<svg width="43" height="43" viewBox="0 0 43 43" fill="none" xmlns="http://www.w3.org/2000/svg">
<g clip-path="url(#clip0_135_74)">
<path d="M-746.895 10.2799L-756.336 18.1663C-758.341 19.8415 -759.5 22.3199 -759.5 24.9329C-759.5 29.8024 -755.552 33.75 -750.683 33.75L1526.01 33.75C1533.13 33.75 1538.58 27.4423 1537.56 20.4053C1536.25 11.3749 1525.54 7.28135 1518.54 13.1318L1517.37 14.1067C1512.72 17.9874 1505.97 17.9874 1501.32 14.1067L1496.74 10.2798C1489.44 4.1836 1478.83 4.18362 1471.53 10.2799C1464.23 16.3761 1453.62 16.3761 1446.32 10.2799C1439.02 4.18363 1428.41 4.18362 1421.11 10.2799C1413.81 16.3761 1403.2 16.3761 1395.9 10.2798C1388.61 4.18363 1377.99 4.18362 1370.69 10.2799C1363.4 16.3761 1352.78 16.3761 1345.48 10.2799C1338.19 4.18363 1327.57 4.18361 1320.27 10.2798C1312.98 16.3761 1302.36 16.3761 1295.07 10.2798C1287.77 4.18361 1277.15 4.18363 1269.86 10.2799C1262.56 16.3761 1251.94 16.3761 1244.65 10.2799C1237.35 4.18362 1226.73 4.18363 1219.44 10.2798C1212.14 16.3761 1201.53 16.3761 1194.23 10.2799C1186.93 4.18362 1176.32 4.18363 1169.02 10.2799C1161.72 16.3761 1151.11 16.3761 1143.81 10.2799C1136.51 4.18362 1125.9 4.18363 1118.6 10.2798C1111.3 16.3761 1100.69 16.3761 1093.39 10.2799C1086.09 4.18362 1075.48 4.18362 1068.18 10.2799C1060.88 16.3761 1050.27 16.3761 1042.97 10.2798C1035.67 4.18363 1025.06 4.18362 1017.76 10.2799C1010.46 16.3761 999.85 16.3761 992.553 10.2799C985.255 4.18363 974.641 4.18361 967.343 10.2798C960.046 16.3761 949.431 16.3761 942.134 10.2798C934.836 4.18361 924.222 4.18363 916.924 10.2799C909.627 16.3761 899.013 16.3761 891.715 10.2799C884.418 4.18362 873.803 4.18363 866.506 10.2798C859.208 16.3761 848.594 16.3761 841.296 10.2799C833.999 4.18362 823.384 4.18363 816.087 10.2799C808.789 16.3761 798.175 16.3761 790.878 10.2799C783.58 4.18362 772.966 4.18363 765.668 10.2798C758.371 16.3761 747.756 16.3761 740.459 10.2799C733.161 4.18362 722.547 4.18362 715.249 10.2799C707.952 16.3761 697.337 16.3761 690.04 10.2798C682.742 4.18363 672.128 4.18362 664.831 10.2799C657.533 16.3761 646.919 16.3761 639.621 10.2799C632.324 4.18363 621.709 4.18362 614.412 10.2799C607.114 16.3761 596.5 16.3761 589.202 10.2798C581.905 4.18363 571.291 4.18362 563.993 10.2799C556.696 16.3761 546.081 16.3761 538.784 10.2799C531.486 4.18363 520.872 4.18362 513.574 10.2798C506.277 16.3761 495.662 16.3761 488.365 10.2798C481.067 4.18362 470.453 4.18361 463.156 10.2799C455.858 16.3761 445.244 16.3761 437.946 10.2799C430.649 4.18362 420.034 4.18361 412.737 10.2799C405.439 16.3761 394.825 16.3761 387.527 10.2799C380.23 4.18362 369.615 4.18361 362.318 10.2799C355.021 16.3761 344.406 16.3761 337.109 10.2799C329.811 4.18362 319.197 4.18361 311.899 10.2799C304.602 16.3761 293.987 16.3761 286.69 10.2799C279.392 4.18362 268.778 4.18362 261.48 10.2799C254.183 16.3761 243.568 16.3761 236.271 10.2799C228.974 4.18361 218.359 4.18362 211.062 10.2799C203.764 16.3761 193.15 16.3761 185.852 10.2799C178.555 4.18361 167.94 4.18362 160.643 10.2799C153.345 16.3761 142.731 16.3761 135.433 10.2799C128.136 4.18361 117.521 4.18362 110.224 10.2798C102.927 16.3761 92.3121 16.3761 85.0146 10.2798C77.7171 4.18362 67.1027 4.18361 59.8052 10.2799C52.5078 16.3761 41.8932 16.3761 34.5958 10.2799C27.2983 4.18362 16.6839 4.18361 9.38641 10.2799C2.08899 16.3761 -8.52551 16.3761 -15.8229 10.2799C-23.1204 4.18362 -33.7349 4.18361 -41.0323 10.2799C-48.3298 16.3761 -58.9443 16.3761 -66.2418 10.2799C-73.5392 4.18362 -84.1537 4.18361 -91.4511 10.2799C-98.7486 16.3761 -109.363 16.3761 -116.661 10.2799C-123.958 4.18362 -134.572 4.18361 -141.87 10.2798C-149.167 16.3761 -159.782 16.3761 -167.079 10.2799C-174.377 4.18361 -184.991 4.18361 -192.289 10.2799C-199.586 16.3761 -210.201 16.3761 -217.498 10.2798C-224.796 4.18361 -235.41 4.18362 -242.707 10.2799C-250.005 16.3761 -260.619 16.3761 -267.917 10.2799C-275.214 4.18361 -285.878 4.22502 -293.176 10.3213C-300.416 16.3697 -310.997 16.4108 -318.237 10.3623C-325.565 4.24092 -336.19 4.38839 -343.355 10.6995C-349.729 16.3143 -355.564 21.2902 -356.15 20.8097C-356.725 20.3376 -362.508 15.4668 -368.787 10.2088C-376.06 4.11852 -386.656 4.17492 -393.936 10.2568C-401.234 16.353 -411.876 16.3761 -419.173 10.2798C-426.471 4.18361 -437.085 4.18361 -444.383 10.2799C-451.68 16.3761 -462.295 16.3761 -469.592 10.2799C-476.889 4.18361 -487.504 4.18361 -494.801 10.2799C-502.099 16.3761 -512.713 16.3761 -520.011 10.2799C-527.308 4.18361 -537.923 4.18361 -545.22 10.2799C-552.518 16.3761 -563.132 16.3761 -570.43 10.2799C-577.727 4.18361 -588.341 4.18361 -595.639 10.2799C-602.936 16.3761 -613.551 16.3761 -620.848 10.2799C-628.146 4.18361 -638.76 4.18361 -646.058 10.2799C-653.355 16.3761 -663.97 16.3761 -671.267 10.2799C-678.565 4.18361 -689.179 4.18361 -696.477 10.2799C-703.774 16.3761 -714.388 16.3761 -721.686 10.2799C-728.983 4.18361 -739.598 4.18361 -746.895 10.2799Z" fill="#8A71FA" stroke="black"/>
<path d="M-759.5 43.5985V44.75L1539.5 44.75L1537.78 32.9101C1536.37 23.2218 1524.88 18.83 1517.37 25.1067C1512.72 28.9874 1505.97 28.9874 1501.32 25.1067L1496.74 21.2798C1489.44 15.1836 1478.83 15.1836 1471.53 21.2799C1464.23 27.3761 1453.62 27.3761 1446.32 21.2799C1439.02 15.1836 1428.41 15.1836 1421.11 21.2799C1413.81 27.3761 1403.2 27.3761 1395.9 21.2798C1388.61 15.1836 1377.99 15.1836 1370.69 21.2799C1363.4 27.3761 1352.78 27.3761 1345.48 21.2799C1338.19 15.1836 1327.57 15.1836 1320.27 21.2798C1312.98 27.3761 1302.36 27.3761 1295.07 21.2798C1287.77 15.1836 1277.15 15.1836 1269.86 21.2799C1262.56 27.3761 1251.94 27.3761 1244.65 21.2799C1237.35 15.1836 1226.73 15.1836 1219.44 21.2798C1212.14 27.3761 1201.53 27.3761 1194.23 21.2799C1186.93 15.1836 1176.32 15.1836 1169.02 21.2799C1161.72 27.3761 1151.11 27.3761 1143.81 21.2799C1136.51 15.1836 1125.9 15.1836 1118.6 21.2798C1111.3 27.3761 1100.69 27.3761 1093.39 21.2799C1086.09 15.1836 1075.48 15.1836 1068.18 21.2799C1060.88 27.3761 1050.27 27.3761 1042.97 21.2798C1035.67 15.1836 1025.06 15.1836 1017.76 21.2799C1010.46 27.3761 999.85 27.3761 992.553 21.2799C985.255 15.1836 974.641 15.1836 967.343 21.2798C960.046 27.3761 949.431 27.3761 942.134 21.2798C934.836 15.1836 924.222 15.1836 916.924 21.2799C909.627 27.3761 899.013 27.3761 891.715 21.2799C884.418 15.1836 873.803 15.1836 866.506 21.2798C859.208 27.3761 848.594 27.3761 841.296 21.2799C833.999 15.1836 823.384 15.1836 816.087 21.2799C808.789 27.3761 798.175 27.3761 790.878 21.2799C783.58 15.1836 772.966 15.1836 765.668 21.2798C758.371 27.3761 747.756 27.3761 740.459 21.2799C733.161 15.1836 722.547 15.1836 715.249 21.2799C707.952 27.3761 697.337 27.3761 690.04 21.2798C682.742 15.1836 672.128 15.1836 664.831 21.2799C657.533 27.3761 646.919 27.3761 639.621 21.2799C632.324 15.1836 621.709 15.1836 614.412 21.2799C607.114 27.3761 596.5 27.3761 589.202 21.2798C581.905 15.1836 571.291 15.1836 563.993 21.2799C556.696 27.3761 546.081 27.3761 538.784 21.2799C531.486 15.1836 520.872 15.1836 513.574 21.2798C506.277 27.3761 495.662 27.3761 488.365 21.2798C481.067 15.1836 470.453 15.1836 463.156 21.2799C455.858 27.3761 445.244 27.3761 437.946 21.2799C430.649 15.1836 420.034 15.1836 412.737 21.2799C405.439 27.3761 394.825 27.3761 387.527 21.2799C380.23 15.1836 369.615 15.1836 362.318 21.2799C355.021 27.3761 344.406 27.3761 337.109 21.2799C329.811 15.1836 319.197 15.1836 311.899 21.2799C304.602 27.3761 293.987 27.3761 286.69 21.2799C279.392 15.1836 268.778 15.1836 261.48 21.2799C254.183 27.3761 243.568 27.3761 236.271 21.2799C228.974 15.1836 218.359 15.1836 211.062 21.2799C203.764 27.3761 193.15 27.3761 185.852 21.2799C178.555 15.1836 167.94 15.1836 160.643 21.2799C153.345 27.3761 142.731 27.3761 135.433 21.2799C128.136 15.1836 117.521 15.1836 110.224 21.2798C102.927 27.3761 92.3121 27.3761 85.0146 21.2798C77.7171 15.1836 67.1027 15.1836 59.8052 21.2799C52.5078 27.3761 41.8932 27.3761 34.5958 21.2799C27.2983 15.1836 16.6839 15.1836 9.38641 21.2799C2.08899 27.3761 -8.52551 27.3761 -15.8229 21.2799C-23.1204 15.1836 -33.7349 15.1836 -41.0323 21.2799C-48.3298 27.3761 -58.9443 27.3761 -66.2418 21.2799C-73.5392 15.1836 -84.1537 15.1836 -91.4511 21.2799C-98.7486 27.3761 -109.363 27.3761 -116.661 21.2799C-123.958 15.1836 -134.572 15.1836 -141.87 21.2798C-149.167 27.3761 -159.782 27.3761 -167.079 21.2799C-174.377 15.1836 -184.991 15.1836 -192.289 21.2799C-199.586 27.3761 -210.201 27.3761 -217.498 21.2798C-224.796 15.1836 -235.41 15.1836 -242.707 21.2799C-250.005 27.3761 -260.619 27.3761 -267.917 21.2799C-275.214 15.1836 -285.878 15.225 -293.176 21.3213C-300.416 27.3697 -310.997 27.4108 -318.237 21.3623C-325.565 15.2409 -336.19 15.3884 -343.355 21.6995C-349.729 27.3143 -355.564 32.2902 -356.15 31.8097C-356.725 31.3376 -362.508 26.4668 -368.787 21.2088C-376.06 15.1185 -386.656 15.1749 -393.936 21.2568C-401.234 27.353 -411.876 27.3761 -419.173 21.2798C-426.471 15.1836 -437.085 15.1836 -444.383 21.2799C-451.68 27.3761 -462.295 27.3761 -469.592 21.2799C-476.889 15.1836 -487.504 15.1836 -494.801 21.2799C-502.099 27.3761 -512.713 27.3761 -520.011 21.2799C-527.308 15.1836 -537.923 15.1836 -545.22 21.2799C-552.518 27.3761 -563.132 27.3761 -570.43 21.2799C-577.727 15.1836 -588.341 15.1836 -595.639 21.2799C-602.936 27.3761 -613.551 27.3761 -620.848 21.2799C-628.146 15.1836 -638.76 15.1836 -646.058 21.2799C-653.355 27.3761 -663.97 27.3761 -671.267 21.2799C-678.565 15.1836 -689.179 15.1836 -696.477 21.2799C-703.774 27.3761 -714.388 27.3761 -721.686 21.2799C-728.983 15.1836 -739.598 15.1836 -746.895 21.2799L-750.453 24.2517C-756.186 29.0414 -759.5 36.1276 -759.5 43.5985Z" fill="#F7FF9C" stroke="black"/>
</g>
<defs>
<clipPath id="clip0_135_74">
<rect width="43" height="43" fill="white" transform="matrix(1 0 0 -1 0 43)"/>
</clipPath>
</defs>
</svg>
