<svg width="40" height="40" viewBox="0 0 40 40" fill="none" xmlns="http://www.w3.org/2000/svg">
<path fill-rule="evenodd" clip-rule="evenodd" d="M22.0001 1.15504L35.3201 8.84504C35.9281 9.1961 36.4331 9.70104 36.7841 10.3091C37.1352 10.9172 37.32 11.6069 37.3201 12.309V27.691C37.32 28.3932 37.1352 29.0829 36.7841 29.691C36.4331 30.299 35.9281 30.804 35.3201 31.155L22.0001 38.845C21.392 39.1961 20.7022 39.3809 20.0001 39.3809C19.2979 39.3809 18.6081 39.1961 18.0001 38.845L4.68005 31.155C4.07199 30.804 3.56705 30.299 3.21598 29.691C2.86491 29.0829 2.68007 28.3932 2.68005 27.691V12.309C2.68007 11.6069 2.86491 10.9172 3.21598 10.3091C3.56705 9.70104 4.07199 9.1961 4.68005 8.84504L18.0001 1.15504C18.6081 0.803966 19.2979 0.619141 20.0001 0.619141C20.7022 0.619141 21.392 0.803966 22.0001 1.15504Z" fill="url(#paint0_linear_2036_3741)"/>
<path d="M19.96 28.0753C20.1065 28.0753 20.247 28.1335 20.3506 28.2371C20.4542 28.3407 20.5125 28.4812 20.5125 28.6278C20.5125 28.7743 20.4542 28.9148 20.3506 29.0185C20.247 29.1221 20.1065 29.1803 19.96 29.1803C19.8134 29.1803 19.6729 29.1221 19.5693 29.0185C19.4657 28.9148 19.4075 28.7743 19.4075 28.6278C19.4075 28.4812 19.4657 28.3407 19.5693 28.2371C19.6729 28.1335 19.8134 28.0753 19.96 28.0753ZM15.237 27.7883C15.3556 27.7883 15.4695 27.8354 15.5534 27.9194C15.6373 28.0033 15.6845 28.1171 15.6845 28.2358C15.6845 28.3545 15.6373 28.4683 15.5534 28.5522C15.4695 28.6361 15.3556 28.6833 15.237 28.6833C15.1183 28.6833 15.0044 28.6361 14.9205 28.5522C14.8366 28.4683 14.7895 28.3545 14.7895 28.2358C14.7895 28.1171 14.8366 28.0033 14.9205 27.9194C15.0044 27.8354 15.1183 27.7883 15.237 27.7883ZM24.795 27.7703C24.8537 27.7703 24.9118 27.7818 24.966 27.8043C25.0202 27.8268 25.0695 27.8597 25.111 27.9012C25.1525 27.9427 25.1855 27.992 25.2079 28.0462C25.2304 28.1005 25.242 28.1586 25.242 28.2173C25.242 28.276 25.2304 28.3341 25.2079 28.3883C25.1855 28.4426 25.1525 28.4918 25.111 28.5334C25.0695 28.5749 25.0202 28.6078 24.966 28.6303C24.9118 28.6527 24.8537 28.6643 24.795 28.6643C24.6764 28.6643 24.5627 28.6172 24.4789 28.5334C24.3951 28.4495 24.348 28.3358 24.348 28.2173C24.348 28.0987 24.3951 27.985 24.4789 27.9012C24.5627 27.8174 24.6764 27.7703 24.795 27.7703ZM16.491 25.3733C16.6724 25.3733 16.8463 25.4453 16.9746 25.5736C17.1029 25.7019 17.175 25.8759 17.175 26.0573C17.175 26.2387 17.1029 26.4127 16.9746 26.5409C16.8463 26.6692 16.6724 26.7413 16.491 26.7413C16.3095 26.7413 16.1356 26.6692 16.0073 26.5409C15.879 26.4127 15.807 26.2387 15.807 26.0573C15.807 25.8759 15.879 25.7019 16.0073 25.5736C16.1356 25.4453 16.3095 25.3733 16.491 25.3733ZM23.53 25.3683C23.6198 25.3683 23.7087 25.386 23.7917 25.4203C23.8747 25.4547 23.9501 25.5051 24.0136 25.5686C24.0771 25.6321 24.1275 25.7075 24.1619 25.7905C24.1963 25.8735 24.214 25.9625 24.214 26.0523C24.214 26.1421 24.1963 26.2311 24.1619 26.314C24.1275 26.397 24.0771 26.4724 24.0136 26.5359C23.9501 26.5995 23.8747 26.6498 23.7917 26.6842C23.7087 26.7186 23.6198 26.7363 23.53 26.7363C23.3485 26.7363 23.1746 26.6642 23.0463 26.5359C22.918 26.4077 22.846 26.2337 22.846 26.0523C22.846 25.8709 22.918 25.6969 23.0463 25.5686C23.1746 25.4403 23.3485 25.3683 23.53 25.3683ZM19.972 24.6033C20.0789 24.5979 20.1858 24.6143 20.2863 24.6515C20.3867 24.6887 20.4785 24.746 20.5561 24.8198C20.6337 24.8936 20.6955 24.9824 20.7377 25.0808C20.7799 25.1792 20.8017 25.2852 20.8017 25.3923C20.8017 25.4994 20.7799 25.6053 20.7377 25.7038C20.6955 25.8022 20.6337 25.891 20.5561 25.9648C20.4785 26.0386 20.3867 26.0958 20.2863 26.133C20.1858 26.1703 20.0789 26.1867 19.972 26.1813C19.7696 26.1711 19.5788 26.0835 19.4392 25.9367C19.2996 25.7898 19.2217 25.5949 19.2217 25.3923C19.2217 25.1896 19.2996 24.9947 19.4392 24.8479C19.5788 24.701 19.7696 24.6135 19.972 24.6033ZM12.504 23.7633C12.6505 23.7633 12.791 23.8215 12.8946 23.9251C12.9982 24.0287 13.0565 24.1692 13.0565 24.3158C13.0565 24.4623 12.9982 24.6028 12.8946 24.7065C12.791 24.8101 12.6505 24.8683 12.504 24.8683C12.3574 24.8683 12.2169 24.8101 12.1133 24.7065C12.0097 24.6028 11.9515 24.4623 11.9515 24.3158C11.9515 24.1692 12.0097 24.0287 12.1133 23.9251C12.2169 23.8215 12.3574 23.7633 12.504 23.7633ZM27.511 23.7253C27.6575 23.7253 27.798 23.7835 27.9016 23.8871C28.0052 23.9907 28.0635 24.1312 28.0635 24.2778C28.0635 24.4243 28.0052 24.5648 27.9016 24.6685C27.798 24.7721 27.6575 24.8303 27.511 24.8303C27.3644 24.8303 27.2239 24.7721 27.1203 24.6685C27.0167 24.5648 26.9585 24.4243 26.9585 24.2778C26.9585 24.1312 27.0167 23.9907 27.1203 23.8871C27.2239 23.7835 27.3644 23.7253 27.511 23.7253ZM18.417 21.3463C18.7798 21.3463 19.1277 21.4904 19.3843 21.747C19.6408 22.0035 19.785 22.3515 19.785 22.7143C19.785 23.0771 19.6408 23.4251 19.3843 23.6816C19.1277 23.9382 18.7798 24.0823 18.417 24.0823C18.0541 24.0823 17.7062 23.9382 17.4496 23.6816C17.1931 23.4251 17.049 23.0771 17.049 22.7143C17.049 22.3515 17.1931 22.0035 17.4496 21.747C17.7062 21.4904 18.0541 21.3463 18.417 21.3463ZM21.584 21.3333C21.9468 21.3333 22.2947 21.4774 22.5513 21.734C22.8078 21.9905 22.952 22.3385 22.952 22.7013C22.952 23.0641 22.8078 23.4121 22.5513 23.6686C22.2947 23.9252 21.9468 24.0693 21.584 24.0693C21.2211 24.0693 20.8732 23.9252 20.6166 23.6686C20.3601 23.4121 20.216 23.0641 20.216 22.7013C20.216 22.3385 20.3601 21.9905 20.6166 21.734C20.8732 21.4774 21.2211 21.3333 21.584 21.3333ZM15.306 21.8963C15.4129 21.8909 15.5198 21.9073 15.6203 21.9445C15.7207 21.9817 15.8125 22.039 15.8901 22.1128C15.9677 22.1866 16.0295 22.2754 16.0717 22.3738C16.1139 22.4722 16.1357 22.5782 16.1357 22.6853C16.1357 22.7924 16.1139 22.8983 16.0717 22.9968C16.0295 23.0952 15.9677 23.184 15.8901 23.2578C15.8125 23.3316 15.7207 23.3888 15.6203 23.426C15.5198 23.4633 15.4129 23.4797 15.306 23.4743C15.1036 23.4641 14.9128 23.3765 14.7732 23.2297C14.6336 23.0828 14.5557 22.8879 14.5557 22.6853C14.5557 22.4826 14.6336 22.2877 14.7732 22.1409C14.9128 21.994 15.1036 21.9065 15.306 21.8963ZM24.696 21.8683C24.8029 21.8629 24.9098 21.8793 25.0103 21.9165C25.1107 21.9537 25.2025 22.011 25.2801 22.0848C25.3577 22.1586 25.4195 22.2474 25.4617 22.3458C25.5039 22.4442 25.5257 22.5502 25.5257 22.6573C25.5257 22.7644 25.5039 22.8703 25.4617 22.9688C25.4195 23.0672 25.3577 23.156 25.2801 23.2298C25.2025 23.3036 25.1107 23.3608 25.0103 23.398C24.9098 23.4353 24.8029 23.4517 24.696 23.4463C24.4936 23.4361 24.3028 23.3485 24.1632 23.2017C24.0236 23.0548 23.9457 22.8599 23.9457 22.6573C23.9457 22.4546 24.0236 22.2597 24.1632 22.1129C24.3028 21.966 24.4936 21.8785 24.696 21.8683ZM16.828 18.5993C17.1908 18.5993 17.5387 18.7434 17.7953 19C18.0518 19.2565 18.196 19.6045 18.196 19.9673C18.196 20.3301 18.0518 20.6781 17.7953 20.9346C17.5387 21.1912 17.1908 21.3353 16.828 21.3353C16.4651 21.3353 16.1172 21.1912 15.8606 20.9346C15.6041 20.6781 15.46 20.3301 15.46 19.9673C15.46 19.6045 15.6041 19.2565 15.8606 19C16.1172 18.7434 16.4651 18.5993 16.828 18.5993ZM23.163 18.5843C23.5258 18.5843 23.8737 18.7284 24.1303 18.985C24.3868 19.2415 24.531 19.5895 24.531 19.9523C24.531 20.3151 24.3868 20.6631 24.1303 20.9196C23.8737 21.1762 23.5258 21.3203 23.163 21.3203C22.8001 21.3203 22.4522 21.1762 22.1956 20.9196C21.9391 20.6631 21.795 20.3151 21.795 19.9523C21.795 19.5895 21.9391 19.2415 22.1956 18.985C22.4522 18.7284 22.8001 18.5843 23.163 18.5843ZM12.948 19.2963C13.0378 19.2963 13.1267 19.314 13.2097 19.3483C13.2927 19.3827 13.3681 19.4331 13.4316 19.4966C13.4951 19.5601 13.5455 19.6355 13.5799 19.7185C13.6143 19.8015 13.632 19.8905 13.632 19.9803C13.632 20.0701 13.6143 20.159 13.5799 20.242C13.5455 20.325 13.4951 20.4004 13.4316 20.4639C13.3681 20.5275 13.2927 20.5778 13.2097 20.6122C13.1267 20.6466 13.0378 20.6643 12.948 20.6643C12.7665 20.6643 12.5926 20.5922 12.4643 20.4639C12.336 20.3357 12.264 20.1617 12.264 19.9803C12.264 19.7989 12.336 19.6249 12.4643 19.4966C12.5926 19.3683 12.7665 19.2963 12.948 19.2963ZM27.039 19.2613C27.1309 19.2578 27.2226 19.2728 27.3086 19.3056C27.3946 19.3384 27.4731 19.3881 27.5394 19.452C27.6057 19.5158 27.6585 19.5923 27.6945 19.677C27.7305 19.7617 27.7491 19.8528 27.7491 19.9448C27.7491 20.0368 27.7305 20.1279 27.6945 20.2126C27.6585 20.2972 27.6057 20.3738 27.5394 20.4376C27.4731 20.5014 27.3946 20.5512 27.3086 20.584C27.2226 20.6167 27.1309 20.6318 27.039 20.6283C26.8622 20.6215 26.6949 20.5465 26.5723 20.4191C26.4496 20.2917 26.3811 20.1217 26.3811 19.9448C26.3811 19.7679 26.4496 19.5979 26.5723 19.4705C26.6949 19.343 26.8622 19.268 27.039 19.2613ZM10.439 19.5413C10.5576 19.5413 10.6715 19.5884 10.7554 19.6723C10.8393 19.7563 10.8865 19.8701 10.8865 19.9888C10.8865 20.1075 10.8393 20.2213 10.7554 20.3052C10.6715 20.3891 10.5576 20.4363 10.439 20.4363C10.3203 20.4363 10.2064 20.3891 10.1225 20.3052C10.0386 20.2213 9.99146 20.1075 9.99146 19.9888C9.99146 19.8701 10.0386 19.7563 10.1225 19.6723C10.2064 19.5884 10.3203 19.5413 10.439 19.5413ZM29.545 19.5093C29.6635 19.5093 29.7772 19.5564 29.861 19.6402C29.9449 19.724 29.992 19.8377 29.992 19.9563C29.992 20.0748 29.9449 20.1885 29.861 20.2724C29.7772 20.3562 29.6635 20.4033 29.545 20.4033C29.4264 20.4033 29.3127 20.3562 29.2289 20.2724C29.1451 20.1885 29.098 20.0748 29.098 19.9563C29.098 19.8377 29.1451 19.724 29.2289 19.6402C29.3127 19.5564 29.4264 19.5093 29.545 19.5093ZM18.405 15.8553C18.5877 15.8503 18.7695 15.8821 18.9397 15.9486C19.1099 16.0151 19.2651 16.115 19.3961 16.2425C19.5271 16.3699 19.6312 16.5224 19.7022 16.6907C19.7733 16.8591 19.8099 17.04 19.8099 17.2228C19.8099 17.4055 19.7733 17.5865 19.7022 17.7548C19.6312 17.9232 19.5271 18.0756 19.3961 18.2031C19.2651 18.3306 19.1099 18.4305 18.9397 18.497C18.7695 18.5635 18.5877 18.5952 18.405 18.5903C18.0487 18.5806 17.7102 18.4323 17.4616 18.1769C17.213 17.9215 17.0739 17.5792 17.0739 17.2228C17.0739 16.8664 17.213 16.524 17.4616 16.2686C17.7102 16.0132 18.0487 15.8649 18.405 15.8553ZM21.572 15.8443C21.7547 15.8393 21.9365 15.8711 22.1067 15.9376C22.2769 16.0041 22.4321 16.104 22.5631 16.2315C22.6941 16.3589 22.7982 16.5114 22.8692 16.6797C22.9403 16.8481 22.9769 17.029 22.9769 17.2118C22.9769 17.3945 22.9403 17.5754 22.8692 17.7438C22.7982 17.9122 22.6941 18.0646 22.5631 18.1921C22.4321 18.3196 22.2769 18.4195 22.1067 18.486C21.9365 18.5525 21.7547 18.5842 21.572 18.5793C21.2157 18.5696 20.8772 18.4213 20.6286 18.1659C20.38 17.9105 20.2409 17.5682 20.2409 17.2118C20.2409 16.8554 20.38 16.513 20.6286 16.2576C20.8772 16.0022 21.2157 15.8539 21.572 15.8443ZM15.297 16.4703C15.4039 16.4649 15.5108 16.4813 15.6113 16.5185C15.7117 16.5557 15.8035 16.613 15.8811 16.6868C15.9587 16.7606 16.0205 16.8494 16.0627 16.9478C16.1049 17.0462 16.1267 17.1522 16.1267 17.2593C16.1267 17.3664 16.1049 17.4723 16.0627 17.5708C16.0205 17.6692 15.9587 17.758 15.8811 17.8318C15.8035 17.9056 15.7117 17.9628 15.6113 18C15.5108 18.0373 15.4039 18.0537 15.297 18.0483C15.0946 18.0381 14.9038 17.9505 14.7642 17.8037C14.6246 17.6568 14.5467 17.4619 14.5467 17.2593C14.5467 17.0566 14.6246 16.8617 14.7642 16.7149C14.9038 16.568 15.0946 16.4805 15.297 16.4703ZM24.694 16.4533C24.8 16.4495 24.9057 16.4671 25.0048 16.5051C25.1039 16.5431 25.1943 16.6006 25.2706 16.6743C25.347 16.748 25.4077 16.8363 25.4492 16.934C25.4907 17.0316 25.5121 17.1367 25.5121 17.2428C25.5121 17.3489 25.4907 17.4539 25.4492 17.5516C25.4077 17.6492 25.347 17.7376 25.2706 17.8112C25.1943 17.8849 25.1039 17.9425 25.0048 17.9805C24.9057 18.0184 24.8 18.0361 24.694 18.0323C24.4894 18.025 24.2957 17.9386 24.1536 17.7914C24.0115 17.6441 23.9321 17.4474 23.9321 17.2428C23.9321 17.0381 24.0115 16.8415 24.1536 16.6942C24.2957 16.5469 24.4894 16.4606 24.694 16.4533ZM12.487 15.0893C12.6335 15.0893 12.774 15.1475 12.8776 15.2511C12.9812 15.3547 13.0395 15.4952 13.0395 15.6418C13.0395 15.7883 12.9812 15.9288 12.8776 16.0325C12.774 16.1361 12.6335 16.1943 12.487 16.1943C12.3404 16.1943 12.1999 16.1361 12.0963 16.0325C11.9927 15.9288 11.9345 15.7883 11.9345 15.6418C11.9345 15.4952 11.9927 15.3547 12.0963 15.2511C12.1999 15.1475 12.3404 15.0893 12.487 15.0893ZM27.491 15.0633C27.6375 15.0633 27.778 15.1215 27.8816 15.2251C27.9852 15.3287 28.0435 15.4692 28.0435 15.6158C28.0435 15.7623 27.9852 15.9028 27.8816 16.0065C27.778 16.1101 27.6375 16.1683 27.491 16.1683C27.3444 16.1683 27.2039 16.1101 27.1003 16.0065C26.9967 15.9028 26.9385 15.7623 26.9385 15.6158C26.9385 15.4692 26.9967 15.3287 27.1003 15.2251C27.2039 15.1215 27.3444 15.0633 27.491 15.0633ZM19.983 13.7483C20.0899 13.7429 20.1968 13.7593 20.2973 13.7965C20.3977 13.8337 20.4895 13.891 20.5671 13.9648C20.6447 14.0386 20.7065 14.1274 20.7487 14.2258C20.7909 14.3242 20.8127 14.4302 20.8127 14.5373C20.8127 14.6444 20.7909 14.7503 20.7487 14.8488C20.7065 14.9472 20.6447 15.036 20.5671 15.1098C20.4895 15.1836 20.3977 15.2408 20.2973 15.278C20.1968 15.3153 20.0899 15.3317 19.983 15.3263C19.7806 15.3161 19.5898 15.2285 19.4502 15.0817C19.3106 14.9348 19.2327 14.7399 19.2327 14.5373C19.2327 14.3346 19.3106 14.1397 19.4502 13.9929C19.5898 13.846 19.7806 13.7585 19.983 13.7483ZM16.468 13.1923C16.5599 13.1888 16.6516 13.2038 16.7376 13.2366C16.8236 13.2694 16.9021 13.3191 16.9684 13.383C17.0347 13.4468 17.0875 13.5233 17.1235 13.608C17.1595 13.6927 17.1781 13.7838 17.1781 13.8758C17.1781 13.9678 17.1595 14.0589 17.1235 14.1436C17.0875 14.2282 17.0347 14.3048 16.9684 14.3686C16.9021 14.4324 16.8236 14.4822 16.7376 14.515C16.6516 14.5477 16.5599 14.5628 16.468 14.5593C16.2912 14.5525 16.1239 14.4775 16.0013 14.3501C15.8786 14.2227 15.8101 14.0527 15.8101 13.8758C15.8101 13.6989 15.8786 13.5289 16.0013 13.4015C16.1239 13.274 16.2912 13.199 16.468 13.1923ZM23.504 13.1823C23.6854 13.1823 23.8593 13.2543 23.9876 13.3826C24.1159 13.5109 24.188 13.6849 24.188 13.8663C24.188 14.0477 24.1159 14.2217 23.9876 14.3499C23.8593 14.4782 23.6854 14.5503 23.504 14.5503C23.3225 14.5503 23.1486 14.4782 23.0203 14.3499C22.892 14.2217 22.82 14.0477 22.82 13.8663C22.82 13.6849 22.892 13.5109 23.0203 13.3826C23.1486 13.2543 23.3225 13.1823 23.504 13.1823ZM15.209 11.2583C15.3276 11.2583 15.4415 11.3054 15.5254 11.3894C15.6093 11.4733 15.6565 11.5871 15.6565 11.7058C15.6565 11.8245 15.6093 11.9383 15.5254 12.0222C15.4415 12.1061 15.3276 12.1533 15.209 12.1533C15.0903 12.1533 14.9764 12.1061 14.8925 12.0222C14.8086 11.9383 14.7615 11.8245 14.7615 11.7058C14.7615 11.5871 14.8086 11.4733 14.8925 11.3894C14.9764 11.3054 15.0903 11.2583 15.209 11.2583ZM24.747 11.2283C24.8656 11.2283 24.9795 11.2754 25.0634 11.3594C25.1473 11.4433 25.1945 11.5571 25.1945 11.6758C25.1945 11.7945 25.1473 11.9083 25.0634 11.9922C24.9795 12.0761 24.8656 12.1233 24.747 12.1233C24.6284 12.1233 24.5147 12.0762 24.4309 11.9924C24.347 11.9085 24.3 11.7948 24.3 11.6763C24.3 11.5577 24.347 11.444 24.4309 11.3602C24.5147 11.2764 24.6284 11.2283 24.747 11.2283ZM19.977 10.7383C20.1235 10.7383 20.264 10.7965 20.3676 10.9001C20.4712 11.0037 20.5295 11.1442 20.5295 11.2908C20.5295 11.4373 20.4712 11.5778 20.3676 11.6815C20.264 11.7851 20.1235 11.8433 19.977 11.8433C19.8304 11.8433 19.6899 11.7851 19.5863 11.6815C19.4827 11.5778 19.4245 11.4373 19.4245 11.2908C19.4245 11.1442 19.4827 11.0037 19.5863 10.9001C19.6899 10.7965 19.8304 10.7383 19.977 10.7383Z" fill="white"/>
<defs>
<linearGradient id="paint0_linear_2036_3741" x1="3687.68" y1="4494.43" x2="-1823.95" y2="-1490.56" gradientUnits="userSpaceOnUse">
<stop stop-color="#4A6EC3"/>
<stop offset="1" stop-color="#0033AD"/>
</linearGradient>
</defs>
</svg>
