<svg width="358" height="606" fill="none" xmlns="http://www.w3.org/2000/svg"><g opacity=".45"><g clip-path="url('#clip0_3465_1536')"><path d="m213.187 15.939-10.383 6.353L209.658.988l3.427 14.533.102.418ZM196.465 41.769l10.706-6.566-7.259-4.195-3.447 10.76Z" fill="#5E646B"/><path d="M226.506 33.588h-.016l-3.195-12.25-5.182-19.815-2.148-8.2-1.849-7.09-2.027-1.173-6.814-3.939-20.193 54.066 7.082 4.1 4.301 2.485 3.447-10.76 7.255 4.195 12.284 7.105 1.645 6.964 1.818 7.786 3.588 2.056 7.873 4.573-7.869-30.103Zm-16.49-7.137-.362-.205-6.846-3.958L209.654.984l3.431 14.545 2.829 11.934.665 2.77-6.563-3.782Z" stroke="#34393A" stroke-width=".6" stroke-miterlimit="10" stroke-linecap="round" stroke-linejoin="round"/><path d="M250.857 73.739a.53.53 0 0 1-.267-.071l-10.785-6.235a.533.533 0 0 1-.268-.465V1.22c0-.193.102-.366.268-.465a.54.54 0 0 1 .535 0l10.737 6.204a.533.533 0 0 1 .268.464v52.77a.523.523 0 0 1 .047.221v12.789a.54.54 0 0 1-.267.465.545.545 0 0 1-.268.07Zm-10.25-7.082 9.715 5.616V60.6a.523.523 0 0 1-.047-.22V7.735l-9.668-5.585v64.507Z" fill="#34393A"/><path d="M250.858 60.95a.527.527 0 0 1-.303-.095l-.047-.031a.531.531 0 0 1-.233-.441V7.422c0-.197.111-.382.288-.472a.54.54 0 0 1 .55.031l.048.032a.533.533 0 0 1 .232.44v52.96c0 .197-.11.382-.287.473a.508.508 0 0 1-.248.063ZM216.579 30.768a.545.545 0 0 1-.268-.071l-13.771-7.944a.532.532 0 0 1-.24-.627L209.146.822a.526.526 0 0 1 .531-.37c.24.008.445.177.5.414l3.431 14.545 3.494 14.703a.534.534 0 0 1-.201.555.594.594 0 0 1-.322.099Zm-13.13-8.728 12.319 7.109-.374-1.56-2.829-11.934-2.99-12.674-6.126 19.059Z" fill="#34393A"/><path d="M250.858 60.95a.527.527 0 0 1-.303-.095l-.047-.031a.531.531 0 0 1-.233-.441V7.422c0-.197.111-.382.288-.472a.54.54 0 0 1 .55.031l.048.032a.533.533 0 0 1 .232.44v52.96c0 .197-.11.382-.287.473a.508.508 0 0 1-.248.063Z" fill="#34393A"/><path d="M250.857 7.99a.532.532 0 0 1-.303-.094l-.031-.02-10.718-6.195a.536.536 0 0 1-.012-.922l10.738-6.585a.534.534 0 0 1 .547-.008L261.874.4a.534.534 0 0 1 .012.922l-10.749 6.585a.493.493 0 0 1-.28.083Zm-9.738-6.782 9.734 5.625L260.56.889l-9.742-5.628-9.699 5.947Z" fill="#34393A"/><path d="M250.857 73.739a.53.53 0 0 1-.531-.536V7.459c0-.185.099-.359.256-.457L261.331.417a.536.536 0 0 1 .543-.012.53.53 0 0 1 .272.468v65.748a.543.543 0 0 1-.256.457l-10.749 6.586a.612.612 0 0 1-.284.075Zm.535-65.98v64.49l9.684-5.927V1.827l-9.684 5.931ZM234.383 64.227a.533.533 0 0 1-.519-.402l-7.846-29.989a.572.572 0 0 1-.047-.114l-3.195-12.25-9.18-35.105a.531.531 0 0 1 .24-.59l10.734-6.586a.543.543 0 0 1 .48-.04.533.533 0 0 1 .319.363l1.849 7.09 13.378 51.108c.012.043.016.09.016.134v22.348a.544.544 0 0 1-.256.456l-5.693 3.498a.547.547 0 0 1-.28.079Zm-7.405-30.891a.52.52 0 0 1 .047.114l7.693 29.406 4.824-2.962V37.913l-13.363-51.037-1.668-6.393-9.781 5.999 12.248 46.854ZM196.465 42.304a.533.533 0 0 1-.511-.697l3.446-10.76a.53.53 0 0 1 .319-.335.526.526 0 0 1 .46.035l7.256 4.195a.535.535 0 0 1 .012.922l-10.703 6.561a.498.498 0 0 1-.279.08Zm3.754-10.5-2.806 8.755 8.708-5.344-5.902-3.411ZM202.807 22.823a.536.536 0 0 1-.279-.992l10.379-6.35a.536.536 0 0 1 .559.915l-10.379 6.349a.569.569 0 0 1-.28.078Z" fill="#34393A"/></g><path d="M161.914 310.368a4.99 4.99 0 0 1-4.344-2.544 5.137 5.137 0 0 1-.501-3.862 5.026 5.026 0 0 1 2.334-3.088c2.389-1.403 5.458-.567 6.838 1.862 1.38 2.429.557 5.548-1.832 6.951a4.923 4.923 0 0 1-2.495.681Zm-.013-8.848c-.627 0-1.262.163-1.845.504a3.722 3.722 0 0 0-1.724 2.283 3.779 3.779 0 0 0 .37 2.854c1.018 1.796 3.286 2.415 5.054 1.376 1.767-1.036 2.376-3.341 1.353-5.137a3.69 3.69 0 0 0-3.208-1.88ZM329.533 161.598a4.99 4.99 0 0 1-4.344-2.544 5.132 5.132 0 0 1-.5-3.862 5.025 5.025 0 0 1 2.333-3.088 4.907 4.907 0 0 1 3.8-.509 4.968 4.968 0 0 1 3.038 2.371 5.13 5.13 0 0 1 .501 3.863 5.025 5.025 0 0 1-2.333 3.088 4.894 4.894 0 0 1-2.495.681Zm-.017-8.848a3.67 3.67 0 0 0-1.846.504 3.734 3.734 0 0 0-1.723 2.283 3.774 3.774 0 0 0 .37 2.854 3.671 3.671 0 0 0 5.053 1.376 3.736 3.736 0 0 0 1.724-2.283 3.779 3.779 0 0 0-.37-2.854 3.692 3.692 0 0 0-3.208-1.88ZM312.022 201.966a.651.651 0 0 1-.566-.332.671.671 0 0 1 .239-.907l.379-.221a.65.65 0 0 1 .893.243.67.67 0 0 1-.24.907l-.379.222a.685.685 0 0 1-.326.088ZM317.006 199.054a.651.651 0 0 1-.566-.332.67.67 0 0 1 .24-.907l.766-.446a.647.647 0 0 1 .892.243.67.67 0 0 1-.239.907l-.766.447a.692.692 0 0 1-.327.088Zm5.372-3.141a.65.65 0 0 1-.566-.332.671.671 0 0 1 .239-.907l.767-.447a.649.649 0 0 1 .892.244.67.67 0 0 1-.24.907l-.766.446a.624.624 0 0 1-.326.089Zm5.376-3.137a.65.65 0 0 1-.566-.332.67.67 0 0 1 .239-.907l.766-.447a.65.65 0 0 1 .893.244.67.67 0 0 1-.24.907l-.766.447a.633.633 0 0 1-.326.088Zm5.371-3.137a.651.651 0 0 1-.566-.332.67.67 0 0 1 .24-.907l.766-.446a.648.648 0 0 1 .892.243.67.67 0 0 1-.239.907l-.766.447a.68.68 0 0 1-.327.088Zm5.376-3.141a.651.651 0 0 1-.566-.332.672.672 0 0 1 .24-.907l.766-.447a.649.649 0 0 1 .892.244.671.671 0 0 1-.239.907l-.766.446a.64.64 0 0 1-.327.089Zm5.372-3.137a.65.65 0 0 1-.566-.332.674.674 0 0 1 .239-.907l.766-.447a.65.65 0 0 1 .893.244.67.67 0 0 1-.24.907l-.766.447a.673.673 0 0 1-.326.088Zm5.376-3.141a.652.652 0 0 1-.566-.332.67.67 0 0 1 .239-.907l.766-.447a.65.65 0 0 1 .893.244.674.674 0 0 1-.24.906l-.766.447a.636.636 0 0 1-.326.089Zm5.371-3.137a.651.651 0 0 1-.566-.332.67.67 0 0 1 .24-.907l.766-.447a.653.653 0 0 1 .892.244.67.67 0 0 1-.239.907l-.766.446a.67.67 0 0 1-.327.089Zm5.376-3.141a.653.653 0 0 1-.566-.332.67.67 0 0 1 .24-.907l.766-.447a.65.65 0 0 1 .892.243.67.67 0 0 1-.239.907l-.766.447a.64.64 0 0 1-.327.089Zm5.372-3.137a.652.652 0 0 1-.566-.332.67.67 0 0 1 .239-.907l.766-.447a.65.65 0 0 1 .893.244.67.67 0 0 1-.24.906l-.766.447a.652.652 0 0 1-.326.089Zm5.375-3.137a.65.65 0 0 1-.565-.332.67.67 0 0 1 .239-.907l.766-.447a.65.65 0 0 1 .893.244.671.671 0 0 1-.24.907l-.766.446a.682.682 0 0 1-.327.089Zm5.372-3.141a.653.653 0 0 1-.566-.332.67.67 0 0 1 .24-.907l.766-.447a.648.648 0 0 1 .892.243.67.67 0 0 1-.239.907l-.766.447a.63.63 0 0 1-.327.089Zm5.376-3.137a.653.653 0 0 1-.566-.332.67.67 0 0 1 .239-.907l.767-.447a.648.648 0 0 1 .892.244.671.671 0 0 1-.239.907l-.767.446a.675.675 0 0 1-.326.089ZM349.792 448.768v4.133l-23.872 14.012-3.522-2.071 27.394-16.074ZM330.669 469.911v3.92l-26.71.863v-4.132l26.71-.863v.212Z" fill="#3A3A3A"/><path d="M303.959 471.224a.644.644 0 0 1-.474-.208.677.677 0 0 1-.175-.518l1.472-15.675a.656.656 0 0 1 .979-.513l7.944 4.663 27.071-15.883a.637.637 0 0 1 .653 0l8.693 5.101a.67.67 0 0 1 0 1.15l-26.414 15.499 7.292 4.282a.663.663 0 0 1 .304.735.653.653 0 0 1-.614.5c-.004.004-26.727.867-26.731.867Zm2.024-15.246-1.306 13.897 23.68-.766-6.29-3.694a.67.67 0 0 1 0-1.151l26.414-15.498-7.387-4.336-27.071 15.884a.642.642 0 0 1-.653 0l-7.387-4.336Z" fill="#3A3A3A"/><path d="M325.919 467.574a.65.65 0 0 1-.565-.332.671.671 0 0 1 .239-.907l23.545-13.822v-3.747c0-.367.292-.664.653-.664.361 0 .653.297.653.664v4.132a.67.67 0 0 1-.327.576l-23.871 14.011a.64.64 0 0 1-.327.089ZM303.959 475.354a.646.646 0 0 1-.453-.185.673.673 0 0 1-.2-.478v-4.133c0-.367.291-.663.653-.663.361 0 .653.296.653.663v3.447l25.403-.823v-3.278c0-.368.292-.664.653-.664.362 0 .653.296.653.664v3.92c0 .358-.278.65-.631.663-.004.005-26.727.867-26.731.867ZM286.994 526.236v15.14l-12.898 7.565v-15.135l12.898-7.57Z" fill="#3A3A3A"/><path d="M274.095 549.603a.662.662 0 0 1-.326-.088.672.672 0 0 1-.327-.575v-15.136a.67.67 0 0 1 .327-.575l12.898-7.57c.2-.12.452-.12.653 0 .2.119.326.336.326.575v15.135a.671.671 0 0 1-.326.576l-12.898 7.57a.614.614 0 0 1-.327.088Zm.653-15.414v13.605l11.592-6.805v-13.605l-11.592 6.805Z" fill="#3A3A3A"/><path d="M274.096 549.603a.639.639 0 0 1-.327-.088l-12.898-7.57a.671.671 0 0 1-.326-.576v-15.135c0-.239.126-.456.326-.575a.637.637 0 0 1 .653 0l12.898 7.57a.67.67 0 0 1 .24.907.65.65 0 0 1-.893.243l-11.918-6.995v13.605l12.571 7.38a.67.67 0 0 1 .24.907.649.649 0 0 1-.566.327Z" fill="#3A3A3A"/><path d="M286.993 526.894a.642.642 0 0 1-.326-.088l-12.571-7.376-12.572 7.376a.645.645 0 0 1-.892-.244.671.671 0 0 1 .239-.907l12.898-7.565c.2-.12.453-.12.653 0l12.898 7.565a.67.67 0 0 1 .239.907.65.65 0 0 1-.566.332ZM330.449 120.653c.276-.144.537-.3.772-.455-.212 4.584-3.933 8.236-8.495 8.236-4.622 0-8.383-3.747-8.502-8.41.309.219.652.432 1.032.629 2.102 1.098 4.846 1.651 7.597 1.651 2.751 0 5.498-.553 7.596-1.651Z" fill="#3A3A3A"/><path d="M322.853 122.87c-2.948 0-5.737-.61-7.854-1.712a9.63 9.63 0 0 1-1.096-.671c-1.517-1.072-2.352-2.436-2.352-3.841a43.446 43.446 0 0 0-.637-6.502 43.749 43.749 0 0 0-1.417-5.739 29.797 29.797 0 0 0-.719-2.016c-1.976-5.035-5.151-9.706-9.445-13.885-6.755-6.577-10.475-15.439-10.475-24.948 0-19.05 15.25-34.552 33.991-34.556 18.746.004 33.995 15.507 33.995 34.556 0 9.513-3.72 18.37-10.474 24.948-4.287 4.171-7.466 8.85-9.446 13.9-.257.656-.499 1.33-.715 2.004a43.327 43.327 0 0 0-1.29 5.085c-.004.03-.015.057-.022.087-.034.178-.068.36-.094.542a.347.347 0 0 1-.015.068 42.87 42.87 0 0 0-.63 6.471c0 1.477-.931 2.906-2.627 4.016a9.146 9.146 0 0 1-.82.481c-2.11 1.102-4.902 1.712-7.858 1.712Zm0-92.737c-18.127 0-32.873 14.995-32.873 33.42 0 9.198 3.597 17.768 10.132 24.129 4.409 4.292 7.675 9.1 9.71 14.287.272.693.522 1.394.742 2.087.54 1.694.987 3.448 1.326 5.217l.127.671c.388 2.189.608 4.44.656 6.687 0 1.049.649 2.053 1.875 2.921a8.9 8.9 0 0 0 .969.591c1.961 1.023 4.566 1.587 7.343 1.587 2.781 0 5.39-.564 7.344-1.587.246-.129.492-.273.726-.429 1.365-.89 2.114-1.981 2.114-3.072.048-2.254.272-4.509.656-6.71.004-.015.004-.026.007-.041.034-.209.071-.417.112-.626a.295.295 0 0 1 .023-.079 44.854 44.854 0 0 1 1.308-5.137c.224-.698.473-1.395.738-2.073 2.043-5.202 5.312-10.013 9.714-14.298 6.534-6.361 10.131-14.93 10.131-24.13-.004-18.42-14.753-33.415-32.88-33.415Z" fill="#3A3A3A"/><path d="M331.941 74.726a.544.544 0 0 1-.28-.076c-1.305-.762-1.916-2.387-2.505-3.96-.544-1.447-1.058-2.814-2.013-3.379-.611-.356-.846-.144-1.513.849-.533.792-1.424 2.118-3.004 1.186-1.301-.762-1.913-2.387-2.502-3.956-.544-1.447-1.054-2.815-2.009-3.375-.611-.36-.846-.144-1.513.848-.529.792-1.42 2.118-3.001 1.19-1.297-.761-1.904-2.383-2.493-3.951-.545-1.448-1.059-2.815-2.013-3.376a.573.573 0 0 1-.205-.777.552.552 0 0 1 .764-.208c1.301.761 1.912 2.383 2.501 3.955.544 1.447 1.055 2.811 2.009 3.372.615.36.85.148 1.517-.845.533-.792 1.42-2.114 2.997-1.19 1.297.766 1.909 2.387 2.498 3.956.544 1.45 1.058 2.819 2.016 3.376.615.363.854.151 1.521-.845.533-.792 1.42-2.114 2.997-1.19 1.301.765 1.908 2.387 2.501 3.955.544 1.451 1.059 2.819 2.017 3.38a.575.575 0 0 1 .205.776.575.575 0 0 1-.492.285ZM322.853 115.362c-3.187 0-6.371-.712-8.797-2.136-1.394-.815-2.427-1.789-3.072-2.891a.58.58 0 0 1 .194-.781.558.558 0 0 1 .768.197c.537.921 1.461 1.781 2.669 2.486 4.544 2.667 11.935 2.667 16.479 0 1.226-.716 2.125-1.557 2.673-2.497a.557.557 0 0 1 .879-.11.577.577 0 0 1 .068.724c-.649 1.095-1.678 2.061-3.057 2.872-2.43 1.424-5.617 2.136-8.804 2.136ZM322.815 108.281c-3.727 0-7.454-.833-10.291-2.497-1.622-.95-2.826-2.083-3.575-3.364a.577.577 0 0 1 .194-.78.558.558 0 0 1 .768.197c.652 1.114 1.722 2.11 3.176 2.962 5.367 3.153 14.101 3.149 19.468 0 1.435-.844 2.539-1.871 3.184-2.974a.552.552 0 0 1 .767-.197.572.572 0 0 1 .194.781c-.753 1.288-1.957 2.425-3.582 3.379-2.848 1.66-6.579 2.493-10.303 2.493ZM322.727 129c-4.95 0-8.931-3.936-9.062-8.964a.564.564 0 0 1 .544-.583h.015c.302 0 .552.246.559.553.116 4.406 3.605 7.858 7.944 7.858 4.253 0 7.738-3.38 7.939-7.695a.563.563 0 0 1 .585-.542c.31.015.548.28.533.595-.227 4.921-4.204 8.778-9.057 8.778ZM200.147 190.554v33.023l-2.633 1.588v35.373l-31.768 18.83v-72.842l32.704-19.193 1.697 3.221ZM183.424 158.829l-13.503 9.774-34.401 20.184 46.11-33.36 1.794 3.402Z" fill="#3A3A3A"/><path d="M287.28 344.363c-6.233 0-12.997-1.654-19.958-4.95-.261-.124-.448-.204-.618-.284-1.82-.809-1.819-.809-61.925-36.084l-7.592-4.456a.668.668 0 0 1-.326-.575v-72.847a.67.67 0 0 1 .326-.575.642.642 0 0 1 .653 0l28.247 16.574-44.683-84.762-44.679 32.324 29.348 17.22c.2.119.326.336.326.575v72.847a.66.66 0 0 1-.326.575.642.642 0 0 1-.653 0l-47.648-27.966c-26.905-15.8-48.796-54.336-48.796-85.903 0-15.45 5.158-26.984 14.525-32.484 8.436-4.951 19.519-4.42 31.302 1.469-.509-7.119-.322-13.799.566-19.874 3.413-23.383 16.172-32.453 21.5-35.266l.239-.129c.03-.022.065-.044.096-.062 13.041-6.69 29.138-5.105 46.559 4.58 17.19 9.556 34.031 26.152 47.425 46.738 13.973 21.472 22.949 45.708 25.308 68.29 16.563 7.853 32.286 23.175 44.313 43.182 11.727 19.511 18.453 41.42 18.453 60.117 0 17.994-5.994 31.422-16.877 37.811-4.457 2.615-9.572 3.915-15.105 3.915Zm-89.113-46.729 7.265 4.265c60.04 35.239 60.04 35.24 61.794 36.018.179.08.375.168.649.297 12.741 6.034 24.764 6.424 33.853 1.088 10.464-6.141 16.223-19.162 16.223-36.66 0-39.62-28.551-86.443-62.343-102.251a.669.669 0 0 1-.378-.535c-4.54-44.881-35.538-94.049-72.098-114.374-17.007-9.455-32.669-11.039-45.297-4.584-.078.053-.187.111-.37.208-5.15 2.721-17.486 11.508-20.812 34.285-.922 6.313-1.075 13.299-.465 20.759a.685.685 0 0 1-.17.504c-.248.274-.701.261-.966.031-11.692-6.084-22.662-6.769-30.902-1.934-8.945 5.248-13.873 16.375-13.873 31.334 0 31.147 21.6 69.17 48.144 84.757l46.668 27.391v-71.325l-29.901-17.547a.673.673 0 0 1-.326-.544.66.66 0 0 1 .274-.571l46.111-33.364a.643.643 0 0 1 .953.226l46.115 87.478a.673.673 0 0 1-.122.792.636.636 0 0 1-.779.097l-29.252-17.162v71.321h.005ZM168.989 62.51a.653.653 0 0 1-.548-.301.673.673 0 0 1 .191-.92 28.12 28.12 0 0 1 2.59-1.536l.205-.11a.648.648 0 0 1 .884.27.67.67 0 0 1-.266.898l-.222.12c-.466.247-1.336.711-2.485 1.472a.583.583 0 0 1-.349.107Z" fill="#3A3A3A"/><path d="M302.054 340.538a.652.652 0 0 1-.566-.331.672.672 0 0 1 .239-.907l34.402-20.189c10.464-6.136 16.223-19.157 16.223-36.66 0-39.615-28.551-86.438-62.343-102.246a.67.67 0 0 1-.378-.536c-4.541-44.876-35.534-94.048-72.098-114.378-17.003-9.454-32.665-11.038-45.297-4.588-.035.022-.07.045-.109.067a.647.647 0 0 1-.875-.297.665.665 0 0 1 .261-.871c.026-.022.061-.04.092-.058 13.041-6.685 29.143-5.101 46.559 4.584 17.19 9.556 34.031 26.156 47.425 46.738 13.973 21.472 22.949 45.708 25.304 68.29 16.563 7.853 32.286 23.175 44.313 43.182 11.727 19.511 18.452 41.42 18.452 60.113 0 17.998-5.994 31.426-16.876 37.811L302.38 340.45a.633.633 0 0 1-.326.088Z" fill="#3A3A3A"/><path d="M137.491 80.99a.651.651 0 0 1-.566-.331.671.671 0 0 1 .239-.907l34.345-20.153a.648.648 0 0 1 .892.243.671.671 0 0 1-.239.907l-34.341 20.153a.682.682 0 0 1-.33.089ZM83.824 134.841a.653.653 0 0 1-.566-.332.671.671 0 0 1 .24-.907l32.185-18.883a.648.648 0 0 1 .892.243.671.671 0 0 1-.239.907L84.15 134.752a.679.679 0 0 1-.326.089ZM200.147 224.246a.658.658 0 0 1-.653-.664v-33.019c0-.367.292-.663.653-.663.361 0 .653.296.653.663v33.019a.658.658 0 0 1-.653.664ZM196.926 185.117a.685.685 0 0 1-.326-.088l-27.01-15.848a.673.673 0 0 1-.327-.545.665.665 0 0 1 .274-.57l13.503-9.774a.648.648 0 0 1 .91.155.673.673 0 0 1-.152.925l-12.676 9.176 26.131 15.33a.67.67 0 0 1 .239.907.644.644 0 0 1-.566.332Z" fill="#3A3A3A"/><path d="M135.519 189.457a.653.653 0 0 1-.566-.332.672.672 0 0 1 .24-.907l34.401-20.184a.649.649 0 0 1 .892.244.671.671 0 0 1-.239.907l-34.402 20.183a.675.675 0 0 1-.326.089ZM165.746 207.192a.652.652 0 0 1-.566-.332.671.671 0 0 1 .239-.907l32.704-19.188a.648.648 0 0 1 .892.243.671.671 0 0 1-.239.907l-32.704 19.188a.678.678 0 0 1-.326.089ZM165.746 280.036a.656.656 0 0 1-.566-.327.665.665 0 0 1 .235-.907l31.768-18.835a.648.648 0 0 1 .892.239.666.666 0 0 1-.235.907l-31.768 18.834a.634.634 0 0 1-.326.089ZM197.514 225.832a.646.646 0 0 1-.562-.328.667.667 0 0 1 .231-.907l15.845-9.548a.643.643 0 0 1 .892.235.671.671 0 0 1-.23.911l-15.845 9.548a.685.685 0 0 1-.331.089ZM128.01 311.244c0 .969-.335 2.049-.884 3-.54.947-1.28 1.779-2.102 2.256-1.65.969-2.991.186-2.991-1.752s1.341-4.291 2.991-5.256c1.645-.969 2.986-.186 2.986 1.752ZM365.196 564.025a.658.658 0 0 1-.653-.664v-44.504l-21.504-12.618a.67.67 0 0 1-.239-.907.648.648 0 0 1 .892-.244l21.83 12.809a.67.67 0 0 1 .327.575v44.889a.658.658 0 0 1-.653.664ZM347.667 574.192a.653.653 0 0 1-.327-.089l-21.83-12.808a.67.67 0 0 1-.326-.575v-44.89a.67.67 0 0 1 .326-.575.642.642 0 0 1 .653 0l21.83 12.809a.67.67 0 0 1 .327.575v44.889a.67.67 0 0 1-.327.575.652.652 0 0 1-.326.089Zm-21.178-13.857 20.525 12.043v-43.359l-20.525-12.043v43.359Z" fill="#3A3A3A"/><path d="M325.836 516.495a.644.644 0 0 1-.566-.337.667.667 0 0 1 .244-.902l17.53-10.167a.648.648 0 0 1 .892.248.67.67 0 0 1-.244.906l-17.529 10.168a.686.686 0 0 1-.327.084ZM347.666 529.304a.645.645 0 0 1-.566-.336.672.672 0 0 1 .244-.907l17.53-10.168a.65.65 0 0 1 .892.248.671.671 0 0 1-.244.907l-17.529 10.167a.64.64 0 0 1-.327.089ZM347.666 574.193a.643.643 0 0 1-.566-.336.672.672 0 0 1 .244-.907l17.53-10.167a.648.648 0 0 1 .892.248.672.672 0 0 1-.244.907l-17.529 10.167a.692.692 0 0 1-.327.088ZM354.793 556.38a.657.657 0 0 1-.653-.663v-5.323c0-.367.291-.664.653-.664.361 0 .653.297.653.664v5.323a.657.657 0 0 1-.653.663ZM357.813 554.845a.657.657 0 0 1-.653-.663v-5.323c0-.367.292-.664.653-.664.361 0 .653.297.653.664v5.323a.657.657 0 0 1-.653.663ZM355.271 546.001c-.396 0-.771-.098-1.106-.292-.775-.456-1.201-1.359-1.201-2.54 0-2.181 1.458-4.743 3.317-5.831 1.005-.593 1.985-.668 2.76-.213.774.456 1.201 1.359 1.201 2.54 0 1.062-.344 2.248-.975 3.336-.623 1.093-1.458 1.982-2.342 2.495-.566.332-1.132.505-1.654.505Zm2.673-7.845c-.292 0-.64.111-1.006.328-1.445.845-2.664 2.986-2.664 4.681 0 .681.2 1.185.549 1.389.348.203.883.128 1.462-.212.692-.403 1.354-1.115 1.863-2.013.505-.877.797-1.85.797-2.668 0-.682-.2-1.186-.549-1.39a.896.896 0 0 0-.452-.115ZM97.797 520.084l-21.769 12.773-21.773-12.773 21.773-12.777 21.77 12.777Z" fill="#3A3A3A"/><path d="M76.028 589.16a.654.654 0 0 1-.653-.664v-55.64c0-.239.126-.456.326-.575l21.77-12.773c.2-.12.452-.12.653 0 .2.119.326.336.326.575v55.636a.67.67 0 0 1-.326.575l-21.77 12.777a.654.654 0 0 1-.326.089Zm.653-55.919v54.109l20.463-12.012v-54.105l-20.463 12.008Z" fill="#3A3A3A"/><path d="M76.028 589.16a.637.637 0 0 1-.327-.089l-21.773-12.777a.67.67 0 0 1-.326-.575v-55.636c0-.239.126-.456.326-.575.2-.12.453-.12.653 0l21.773 12.773a.67.67 0 0 1 .24.907.649.649 0 0 1-.892.243l-20.795-12.198v54.105l21.448 12.588a.67.67 0 0 1 .239.907.658.658 0 0 1-.566.327Z" fill="#3A3A3A"/><path d="M97.797 520.746a.636.636 0 0 1-.327-.088l-21.442-12.587-21.447 12.587a.648.648 0 0 1-.893-.243.671.671 0 0 1 .24-.907L75.7 506.73a.642.642 0 0 1 .653 0l21.77 12.778a.67.67 0 0 1 .239.907.652.652 0 0 1-.566.331Z" fill="#3A3A3A"/><path d="M82.87 532.532c-.2 0-.4-.044-.565-.137L53.41 515.432a.81.81 0 0 1-.426-.713c-.005-.314.174-.601.474-.774l18.77-11.012a1.346 1.346 0 0 1 1.066-.106c.34.119.523.495.405.845a.651.651 0 0 1-.831.411l-18.091 10.623 28.102 16.499 18.374-10.778a.657.657 0 0 1 .092-.398.646.646 0 0 1 .896-.226l.109.066a.821.821 0 0 1 .418.717c0 .314-.183.602-.483.77l-18.757 11.008c-.2.11-.43.168-.657.168Zm18.806-11.53.017.013-.017-.013Zm-47.63-6.729.017.008c-.009 0-.013-.004-.017-.008Z" fill="#3A3A3A"/><path d="M85.522 525.976a.654.654 0 0 1-.327-.089L64.48 513.729a.668.668 0 0 1 0-1.15l8.048-4.725c.2-.12.453-.12.653 0l20.716 12.158a.668.668 0 0 1 0 1.15l-8.049 4.725a.615.615 0 0 1-.326.089Zm-19.41-12.822 19.41 11.393 6.743-3.96-19.41-11.393-6.743 3.96ZM78.522 526.086a.637.637 0 0 1-.326-.089l-13.934-8.176a.67.67 0 0 1-.24-.907.648.648 0 0 1 .893-.243l13.934 8.176a.67.67 0 0 1 .239.907.653.653 0 0 1-.566.332ZM102.041 521.072a.913.913 0 0 1-.466-.132l-28.886-16.95a1.13 1.13 0 0 1-.535-1.124l3.7-20.153a.86.86 0 0 1 .483-.637.864.864 0 0 1 .814.058l28.882 16.945c.383.23.605.703.535 1.128l-3.7 20.153a.863.863 0 0 1-.483.633.787.787 0 0 1-.344.079Zm-28.569-18.153 28.229 16.565 3.552-19.325-28.224-16.565-3.556 19.325ZM49.114 602.281c1.458 1.349-1.894 3.203-1.894 3.203s-1.937 1.539-5.315 3.278c-1.841.947-3.334.682-4.314.244a2.135 2.135 0 0 1-1.253-2l.035-1.213c.3.323.683.571 1.136.7 2.912.858 6.033-.217 6.79-3.695a67.169 67.169 0 0 0-.043-.982c2.542-.372 3.774-.535 4.858.465Z" fill="#3A3A3A"/><path d="M31.314 560.757c-2.747 9.23-4.257 18.313-4.444 30.051-.026 1.822-.026 3.712.009 5.672a1.94 1.94 0 0 1-.231.977c-.984 1.805-4.823 1.859-6.216.443a1.677 1.677 0 0 1-.51-1.199s-.134-23.193.889-28.869c1.023-5.676-1.258-17.361-1.023-23.688.065-1.863.113-3.597.143-5.216l.17.146c.936 2.429 2.455 3.968 4.701 5.251 3.178 1.823 6.186 3.562 10.051 4.31 1.175.225 2.494.097 3.761-.204 2.608-.61 4.079-1.916 4.91-3.291.087 4.765.066 9.658-.048 15.613-.274 14.742-.126 22.002.775 41.062.018.323.03.651.044.983-.758 3.473-3.879 4.552-6.79 3.694a2.48 2.48 0 0 1-1.137-.699 2.289 2.289 0 0 1-.61-1.367c-.439-5.102-1.358-22.724-1.506-29.051-.078-3.769-1.475-9.299-2.938-14.618ZM40.42 493.443l-3.747 8.676s-.806-1.699-2.22-.889c-1.415.81-.257 4.026-1.593 4.849-.997.619-2.625 1.562-4.68.314-.087-2.893-.3-5.645-.183-8.03.131-2.588 2.551-4.504 5.21-4.155 2.63.346 5.725.421 7.214-.765Z" fill="#3A3A3A"/><path d="M28.185 591.454c1.201.65-.07 3.729-1.302 6.127l-.23-.124c.152-.283.239-.61.23-.977-.035-1.965-.035-3.85-.009-5.672.431.194.884.415 1.31.646ZM26.648 597.46l.23.124c-.304.593-.609 1.142-.87 1.606a2.97 2.97 0 0 1-2.607 1.5 7.244 7.244 0 0 1-1.402-.155c-.993-.221-1.667-1.115-1.602-2.097l.035-.531c1.393 1.416 5.232 1.358 6.216-.447Z" fill="#3A3A3A"/><path d="M23.414 599.561c-1.237 0-2.612-.34-3.444-1.185-.457-.469-.7-1.045-.7-1.668-.005-.947-.122-23.317.896-28.989.575-3.185.07-8.406-.418-13.459-.37-3.813-.713-7.415-.613-10.14.039-1.093.152-5.513.152-5.513.178-7.03-.087-11.711-.37-15.905-.052-.739-.1-1.421-.148-2.058-.1-1.384-.187-2.583-.222-3.628-.03-.96-.017-1.734.044-2.437a.657.657 0 0 1 .71-.602.656.656 0 0 1 .591.721c-.056.646-.07 1.372-.04 2.274.036 1.018.123 2.203.223 3.575.048.637.096 1.323.148 2.062.213 3.123.566 8.348.374 16.029 0 0-.113 4.429-.152 5.526-.096 2.633.244 6.194.61 9.959.496 5.141 1.01 10.459.4 13.826-.997 5.549-.88 28.515-.875 28.745 0 .275.104.514.318.735.605.615 1.963.929 3.23.747.953-.137 1.662-.517 1.95-1.044.104-.19.152-.407.148-.646a177.898 177.898 0 0 1-.009-5.694c.17-11.083 1.55-20.409 4.475-30.231a.652.652 0 0 1 .814-.443c.344.106.54.478.435.828-2.886 9.698-4.248 18.909-4.418 29.864-.026 1.783-.026 3.685.009 5.65.008.473-.096.916-.314 1.314-.496.907-1.532 1.517-2.912 1.717a5.36 5.36 0 0 1-.892.07Z" fill="#3A3A3A"/><path d="M39.393 607.444a7.342 7.342 0 0 1-2.067-.305 3.116 3.116 0 0 1-1.428-.885 3.007 3.007 0 0 1-.784-1.761c-.448-5.216-1.366-22.887-1.506-29.09-.082-3.667-1.45-9.118-2.916-14.458-.257-.925-.51-1.845-.762-2.748-.814-2.924-1.584-5.69-2.085-7.924a.661.661 0 0 1 .492-.792c.357-.084.7.142.78.5.491 2.203 1.257 4.951 2.067 7.858.252.902.51 1.827.761 2.752 1.49 5.424 2.882 10.972 2.965 14.786.14 6.185 1.053 23.807 1.502 29.006.03.358.178.694.435.969.226.243.514.42.836.513 1.484.438 2.968.305 4.074-.358.945-.571 1.598-1.522 1.885-2.757l-.04-.889c-.91-19.277-1.044-26.577-.774-41.107.117-6.189.13-10.999.048-15.587a313.371 313.371 0 0 0-.366-10.361.662.662 0 0 1 .618-.699.657.657 0 0 1 .688.628c.187 3.716.305 7.021.366 10.406.082 4.606.07 9.428-.048 15.635-.27 14.495-.135 21.777.77 41.019.018.323.03.654.044.986 0 .058-.005.115-.013.173-.357 1.641-1.228 2.92-2.512 3.694-.88.527-1.928.796-3.03.796Z" fill="#3A3A3A"/><path d="M42.98 535.095a.658.658 0 0 1-.57-.341c-1.127-2.048-2.12-4.066-3.264-6.406l-.853-1.734a.669.669 0 0 1 .291-.89.648.648 0 0 1 .875.297l.853 1.738c1.14 2.323 2.125 4.332 3.235 6.349a.665.665 0 0 1-.566.987Z" fill="#3A3A3A"/><path d="M47.651 539.83a3.993 3.993 0 0 1-3.382-1.894 68.864 68.864 0 0 1-1.676-2.845s-.143-.256-.191-.345a.67.67 0 0 1 .27-.898.65.65 0 0 1 .883.274l.174.319c.5.907 1.04 1.818 1.641 2.787a2.675 2.675 0 0 0 1.776 1.226 2.586 2.586 0 0 0 2.05-.474c3.923-2.951 7.479-6.424 10.012-9.782a11.82 11.82 0 0 1 4.658-3.676l1.075-.474a.749.749 0 0 0 .44-.774l-.052-.496a.659.659 0 0 1 .17-.522l.74-.814a.844.844 0 0 0-.122-1.234.81.81 0 0 0-.74-.12l-1.459.487a6.765 6.765 0 0 0-3.264 2.341l-.51.668a8.987 8.987 0 0 1-2.268 2.101l-7.922 5.119a.63.63 0 0 1-.54.075.663.663 0 0 1-.409-.367l-3.138-7.225c-1.263-2.907-3.013-5.389-5.206-7.38-1.916-1.738-3.87-2.929-6.743-4.11-.018-.004-.03-.013-.048-.022l-.044-.022a.669.669 0 0 1-.283-.894.644.644 0 0 1 .854-.296l.026.013c2.977 1.226 5.101 2.526 7.104 4.345 2.329 2.115 4.187 4.747 5.528 7.831l2.83 6.521 7.282-4.703a7.69 7.69 0 0 0 1.937-1.796l.51-.668a8.095 8.095 0 0 1 3.89-2.787l1.459-.487a2.111 2.111 0 0 1 1.924.314 2.188 2.188 0 0 1 .305 3.199l-.54.593.022.194c.1.912-.392 1.77-1.22 2.137l-1.074.474a10.545 10.545 0 0 0-4.14 3.265c-2.607 3.451-6.255 7.017-10.273 10.043a3.847 3.847 0 0 1-2.316.779ZM36.133 549.419c-.492 0-.958-.04-1.397-.124-3.944-.761-6.974-2.499-10.182-4.344l-.07-.04c-2.507-1.438-4.048-3.159-4.988-5.588-.057-.151-.118-.301-.17-.46a.67.67 0 0 1 .396-.898.649.649 0 0 1 .814.398.211.211 0 0 1 .022.057c.048.142.1.279.152.416.836 2.155 2.155 3.624 4.414 4.92l.07.04c3.112 1.787 6.05 3.473 9.785 4.194.975.186 2.15.12 3.491-.199 2.086-.487 3.6-1.495 4.501-2.991a.642.642 0 0 1 .897-.217c.31.191.405.602.213.912-1.092 1.809-2.881 3.017-5.319 3.588-.94.226-1.824.336-2.63.336Z" fill="#3A3A3A"/><path d="M34.127 512.078a.665.665 0 0 1-.622-.863.16.16 0 0 0 .008-.044c0-.022 0-.044.004-.066-.004-.027-.009-.071-.017-.115a.668.668 0 0 1 .47-.81.65.65 0 0 1 .797.478c.03.115.043.225.056.341.004.07.004.141.004.203a1.654 1.654 0 0 1-.065.416.682.682 0 0 1-.635.46Z" fill="#3A3A3A"/><path d="M32.259 513.034c-.348 0-.718-.04-1.102-.124-2.002-.433-3.556-1.774-3.625-3.119-.01-.159 0-.301.03-.438a.655.655 0 0 1 .775-.513.665.665 0 0 1 .505.787c0 .009-.005.04-.005.098.03.632 1.145 1.57 2.59 1.884 1.206.261 1.981-.057 2.077-.389a.65.65 0 0 1 .81-.451.668.668 0 0 1 .443.823c-.265.915-1.231 1.442-2.498 1.442Z" fill="#3A3A3A"/><path d="M28.203 510.163h-.005a.647.647 0 0 1-.648-.646s.013-.761.013-1.062c0-.654-.009-1.336-.03-2.03v-.022a147.8 147.8 0 0 0-.1-2.518c-.088-1.978-.17-3.849-.084-5.557.07-1.385.701-2.65 1.78-3.566a5.362 5.362 0 0 1 4.167-1.212c3.286.433 5.672.212 6.725-.628a.644.644 0 0 1 .805-.005.67.67 0 0 1 .196.792l-3.748 8.676a.652.652 0 0 1-.587.398.66.66 0 0 1-.601-.376c-.074-.155-.357-.593-.714-.708-.113-.035-.296-.062-.596.107-.405.234-.453 1.092-.497 1.92-.056 1.093-.126 2.327-1.08 2.915-.804.5-2.363 1.474-4.343.797.004.345 0 1.907-.005 2.053-.004.367-.296.672-.648.672Zm.618-4.168c1.488.748 2.642.177 3.7-.477.365-.226.409-1.053.453-1.854.06-1.133.13-2.416 1.157-3.004.54-.31 1.106-.385 1.633-.217.291.093.535.248.74.42l2.629-6.083c-1.458.398-3.47.429-6.012.093a4.06 4.06 0 0 0-3.16.916 3.64 3.64 0 0 0-1.314 2.614c-.083 1.646-.005 3.482.082 5.429.035.703.066 1.429.092 2.163Z" fill="#3A3A3A"/><path d="M34.127 512.079a.657.657 0 0 1-.653-.663v-.978c0-.876 0-2.695 1.81-3.398l.1-.04c1.437-.557 2.443-1.801 2.639-3.256.287-2.146.365-4.133.27-6.854a.658.658 0 0 1 .63-.685.649.649 0 0 1 .675.641c.096 2.765.013 4.885-.283 7.079-.26 1.947-1.602 3.606-3.5 4.332a.067.067 0 0 1-.03.008c-.004.005-.013.005-.017.009-.745.283-.984.81-.984 2.164v.978a.667.667 0 0 1-.657.663ZM39.441 610.074a5.113 5.113 0 0 1-2.115-.456 2.778 2.778 0 0 1-1.641-2.628l.035-1.212c.008-.367.313-.664.67-.646a.658.658 0 0 1 .636.681l-.035 1.212a1.456 1.456 0 0 0 .866 1.376c1.175.527 2.438.447 3.752-.23 3.274-1.685 5.189-3.194 5.21-3.212a.318.318 0 0 1 .092-.057c.736-.407 1.855-1.27 1.92-1.823.004-.053.017-.146-.153-.305-.83-.77-1.758-.677-4.326-.297a.655.655 0 0 1-.74-.562.662.662 0 0 1 .552-.752c2.534-.376 4.062-.601 5.394.628.553.509.614 1.067.57 1.443-.165 1.376-2.05 2.526-2.542 2.805-.313.243-2.216 1.686-5.38 3.314-1.028.535-1.955.721-2.765.721ZM23.432 601.358h-.035a7.591 7.591 0 0 1-1.537-.173c-1.319-.292-2.207-1.469-2.115-2.796l.035-.531a.656.656 0 0 1 .692-.619.66.66 0 0 1 .61.703l-.036.531c-.043.668.414 1.257 1.088 1.407.41.089.828.137 1.272.142h.021c.832 0 1.602-.447 2.011-1.168.323-.567.601-1.084.858-1.584 1.998-3.885 1.802-5.11 1.576-5.234a19.119 19.119 0 0 0-1.271-.628c-.331-.151-.48-.54-.331-.876a.65.65 0 0 1 .862-.337c.492.222.949.447 1.353.668 1.376.744 1.045 2.978-1.031 7.022a48.542 48.542 0 0 1-.884 1.632 3.586 3.586 0 0 1-3.138 1.841ZM20.101 539.745a.646.646 0 0 1-.418-.15l-.174-.151a11.006 11.006 0 0 1-1.602-1.707 2.763 2.763 0 0 1-.404-2.602l.074-.212a4.337 4.337 0 0 0-.431-3.757l-.544-.853c-2.408-3.757-4.484-7-6.813-11.017-1.571-2.712-.88-6.176 1.606-8.057l.828-.619a153.828 153.828 0 0 1 4.026-2.907 10.09 10.09 0 0 1 10.099-.876l2.146 1.018c.326.154.47.548.313.88a.647.647 0 0 1-.866.319l-2.146-1.018a8.8 8.8 0 0 0-8.806.765 152.747 152.747 0 0 0-3.992 2.885l-.822.615c-1.95 1.473-2.495 4.19-1.263 6.318 2.316 3.991 4.384 7.225 6.782 10.968l.544.854a5.67 5.67 0 0 1 .566 4.924l-.074.208a1.44 1.44 0 0 0 .205 1.345 9.64 9.64 0 0 0 1.41 1.509l.166.141a.67.67 0 0 1 .087.934.611.611 0 0 1-.497.243Z" fill="#3A3A3A"/><path d="M19.566 523.326a.65.65 0 0 1-.566-.332l-2.464-4.305a.666.666 0 0 1 .213-.893l2.094-1.359a.649.649 0 0 1 .901.204.667.667 0 0 1-.2.916l-1.567 1.017 2.15 3.752a.67.67 0 0 1-.235.907.585.585 0 0 1-.326.093Z" fill="#3A3A3A"/><path d="M17.102 519.021a.77.77 0 0 1-.174-.022c-.056-.017-5.532-1.61-4.975-7.906a.66.66 0 0 1 .71-.602.662.662 0 0 1 .591.721c-.461 5.199 3.835 6.456 4.018 6.509.348.097.553.46.457.814a.652.652 0 0 1-.627.486ZM44.604 535.398a5.386 5.386 0 0 1-1.845-.345.668.668 0 0 1-.396-.85.65.65 0 0 1 .835-.402c1.045.38 1.98.354 2.856-.075 1.98-.969 2.916-3.686 2.925-3.712a.646.646 0 0 1 .827-.412c.34.12.523.496.41.841-.044.133-1.115 3.265-3.592 4.477a4.473 4.473 0 0 1-2.02.478ZM237.601 327.746l12.436 25.285-12.436 7.3v-32.585Z" fill="#3A3A3A"/><path d="M237.601 361a.662.662 0 0 1-.326-.088l-12.441-7.3a.668.668 0 0 1-.257-.872l12.441-25.285a.646.646 0 0 1 1.167 0l12.436 25.285a.672.672 0 0 1-.257.872l-12.436 7.3a.665.665 0 0 1-.327.088Zm-11.583-8.225 11.583 6.796 11.579-6.796-11.579-23.537-11.583 23.537Z" fill="#3A3A3A"/><path d="M237.601 361a.657.657 0 0 1-.653-.663v-32.586c0-.367.292-.663.653-.663.361 0 .653.296.653.663v32.586a.657.657 0 0 1-.653.663ZM50.698 65.044l10.79 6.327c-23.992 14.079-43.433 48.305-43.433 76.462L7.27 141.506c4.335-28.179 21.586-58.547 43.429-76.462ZM51.507 97.96l9.982 5.853c-8.728 5.123-15.793 17.565-15.793 27.807l-9.981-5.858c2.803-10.127 8.57-20.272 15.792-27.802Z" fill="#3A3A3A"/><path d="M45.696 132.277a.663.663 0 0 1-.327-.088.67.67 0 0 1-.326-.575c0-10.433 7.23-23.166 16.119-28.383a.642.642 0 0 1 .653 0c.2.12.326.337.326.576v18.538a.67.67 0 0 1-.326.575l-15.793 9.269a.614.614 0 0 1-.326.088Zm15.14-27.285c-7.749 5.119-13.97 16.07-14.457 25.454l14.457-8.482v-16.972ZM18.054 148.496a.654.654 0 0 1-.653-.664c0-28.316 19.632-62.874 43.76-77.037a.64.64 0 0 1 .654 0c.2.12.326.337.326.576v18.533a.669.669 0 0 1-.326.575c-3.383 1.982-6.695 4.655-9.843 7.938-7.151 7.45-12.85 17.48-15.63 27.519-1.22 4.402-1.842 8.649-1.842 12.627a.668.668 0 0 1-.327.575l-15.792 9.269a.654.654 0 0 1-.327.089Zm42.781-75.962c-22.992 14.096-41.601 46.858-42.119 74.143l14.478-8.495c.04-3.986.675-8.224 1.89-12.604 2.842-10.243 8.657-20.481 15.953-28.086 3.13-3.265 6.425-5.942 9.798-7.964V72.534Z" fill="#3A3A3A"/><path d="M-9.582 164.716a.663.663 0 0 1-.327-.088.67.67 0 0 1-.326-.575c0-46.204 32.029-102.592 71.397-125.691a.64.64 0 0 1 .653 0c.2.12.326.336.326.575V57.47a.669.669 0 0 1-.326.575c-3.591 2.106-7.196 4.637-10.709 7.513C29.56 83.22 12.2 113.783 7.912 141.604c-.696 4.521-1.049 8.954-1.049 13.18a.67.67 0 0 1-.326.575l-15.793 9.269a.663.663 0 0 1-.326.088ZM60.835 40.091C22.6 63.138-8.403 117.721-8.925 162.899l14.482-8.499c.022-4.177.379-8.548 1.067-12.999 2.141-13.91 7.408-28.541 15.23-42.31 7.823-13.777 17.656-25.727 28.434-34.563 3.46-2.836 7.004-5.336 10.547-7.437V40.092Z" fill="#3A3A3A"/><path d="M-9.583 164.717a.637.637 0 0 1-.326-.089l-14.74-8.649a.67.67 0 0 1-.326-.575c0-46.204 32.03-102.588 71.402-125.691a.64.64 0 0 1 .653 0l14.735 8.65a.67.67 0 0 1 .239.906.648.648 0 0 1-.892.244l-14.409-8.455c-38.75 22.949-70.248 78.39-70.422 123.97l14.413 8.454a.67.67 0 0 1 .24.907.657.657 0 0 1-.567.328ZM18.055 148.497a.635.635 0 0 1-.327-.088l-10.786-6.327a.67.67 0 0 1-.24-.907.647.647 0 0 1 .892-.243l10.787 6.326a.67.67 0 0 1 .24.907.65.65 0 0 1-.566.332ZM61.488 104.47a.679.679 0 0 1-.327-.089l-9.981-5.853a.67.67 0 0 1-.24-.907.648.648 0 0 1 .893-.243l9.981 5.853a.67.67 0 0 1 .24.907.653.653 0 0 1-.566.332ZM45.696 132.276a.635.635 0 0 1-.327-.088l-9.981-5.858a.67.67 0 0 1-.24-.907.648.648 0 0 1 .893-.243l9.981 5.858a.67.67 0 0 1 .24.907.643.643 0 0 1-.566.331ZM61.488 72.035a.637.637 0 0 1-.327-.088l-10.79-6.327a.67.67 0 0 1-.24-.907.648.648 0 0 1 .892-.243l10.791 6.326a.67.67 0 0 1 .24.907.652.652 0 0 1-.566.332ZM85.738 283.62a.664.664 0 0 1-.64-.792l17.956-92.226a.655.655 0 0 1 .766-.522.664.664 0 0 1 .514.779l-17.956 92.225a.654.654 0 0 1-.64.536ZM68.335 273.41a.685.685 0 0 1-.135-.013.664.664 0 0 1-.505-.788l18.94-91.862a.656.656 0 0 1 .774-.514.664.664 0 0 1 .505.788l-18.94 91.863a.653.653 0 0 1-.64.526Z" fill="#3A3A3A"/><path d="M100.228 209.196a.61.61 0 0 1-.322-.089l-16.659-9.68a.672.672 0 0 1-.243-.907.65.65 0 0 1 .892-.248l16.659 9.681a.672.672 0 0 1 .244.907.662.662 0 0 1-.571.336ZM97.369 223.874a.61.61 0 0 1-.323-.088l-16.806-9.769a.672.672 0 0 1-.244-.907.65.65 0 0 1 .892-.248l16.807 9.769a.671.671 0 0 1 .244.907.653.653 0 0 1-.57.336ZM94.51 238.555a.61.61 0 0 1-.323-.088l-16.959-9.858a.671.671 0 0 1-.244-.907.65.65 0 0 1 .893-.248l16.959 9.858a.671.671 0 0 1 .243.907.653.653 0 0 1-.57.336ZM91.65 253.238a.61.61 0 0 1-.323-.088l-17.107-9.942a.671.671 0 0 1-.244-.907.65.65 0 0 1 .893-.248l17.107 9.942a.671.671 0 0 1 .244.907.648.648 0 0 1-.57.336ZM88.794 267.921a.611.611 0 0 1-.322-.089l-17.26-10.03a.671.671 0 0 1-.243-.907.65.65 0 0 1 .892-.248l17.26 10.03a.672.672 0 0 1 .243.907.66.66 0 0 1-.57.337ZM360.039 146.762v4.301l-9.463-5.553v-4.3l9.463 5.552Z" fill="#3A3A3A"/><path d="M360.039 147.423a.652.652 0 0 1-.326-.089l-9.464-5.552a.671.671 0 0 1 0-1.151l21.856-12.826-8.022-4.707a.671.671 0 0 1-.309-.735.654.654 0 0 1 .614-.5l29.064-.938c.188 0 .37.071.497.208a.682.682 0 0 1 .174.518l-1.598 17.056a.658.658 0 0 1-.979.513l-8.676-5.092-22.509 13.211a.632.632 0 0 1-.322.084Zm-8.157-6.212 8.157 4.787 22.509-13.211c.2-.12.453-.12.653 0l8.123 4.765 1.432-15.277-26.035.84 7.017 4.119a.671.671 0 0 1 0 1.151l-21.856 12.826Z" fill="#3A3A3A"/><path d="M360.039 151.722a.651.651 0 0 1-.326-.088l-9.464-5.553a.668.668 0 0 1-.326-.575v-4.3c0-.367.291-.664.653-.664.361 0 .653.297.653.664v3.915l8.81 5.168 22.509-13.211c.2-.12.453-.12.653 0l8.123 4.765 1.502-15.994v-4.27c0-.367.291-.663.653-.663.361 0 .652.296.652.663v4.301c0 .022 0 .044-.004.062l-1.597 17.056a.659.659 0 0 1-.98.513l-8.675-5.092-22.509 13.211a.623.623 0 0 1-.327.092Z" fill="#3A3A3A"/></g><defs><clipPath id="clip0_3465_1536"><path fill="#fff" transform="translate(184.547 -26)" d="M0 0h106.279v99.746H0z"/></clipPath></defs></svg>