<svg width="360" height="117" fill="none" xmlns="http://www.w3.org/2000/svg"><path d="M180.314 116.96c92.915 1.156 181.947-58.466 216.944-144.446C461.843-182.008 347.8-353.464 180.329-353.85 12.858-353.435-101.17-182.022-36.6-27.486-1.633 58.494 87.415 118.1 180.314 116.96Zm0-.444C87.77 117.449-1.114 57.976-35.34-28.02c-62.97-152.417 50.672-321.918 215.654-320.999 164.982-.904 278.61 168.567 215.655 320.985-34.212 86.01-123.111 145.483-215.655 144.55Z" fill="#048417"/><path d="M180.314 116.96c92.915 1.156 181.947-58.466 216.944-144.446C461.843-182.008 347.8-353.464 180.329-353.85 12.858-353.435-101.17-182.022-36.6-27.486-1.633 58.494 87.415 118.1 180.314 116.96Zm0-.444C87.77 117.449-1.114 57.976-35.34-28.02c-62.97-152.417 50.672-321.918 215.654-320.999 164.982-.904 278.61 168.567 215.655 320.985-34.212 86.01-123.111 145.483-215.655 144.55Z" fill="#048417"/><path d="M180.313 116.914c76.557.963 149.914-48.169 178.747-119.021 53.221-127.274-40.82-268.564-178.747-268.905C42.386-270.642-51.639-129.396 1.567-2.107 30.4 68.745 103.77 117.862 180.313 116.914Zm0-.356C104.068 117.329 30.83 68.316 2.633-2.537-49.15-128.374 44.15-267.634 180.314-267.012c136.179-.592 229.464 138.624 177.68 264.475-28.181 70.853-101.434 119.866-177.68 119.095Z" fill="#048417"/><path d="M180.314 116.884c65.178.815 127.629-41.012 152.18-101.315 45.309-108.353-34.759-228.634-152.18-228.93C62.893-213.05-17.161-92.799 28.148 15.569c24.536 60.318 87.003 102.13 152.166 101.315Zm0-.296c-64.911.652-127.274-41.071-151.277-101.39C-15.057-91.94 64.375-210.5 180.314-209.968 296.253-210.472 375.67-91.955 331.59 15.198c-24.002 60.319-86.365 102.042-151.276 101.39Z" fill="#048417"/><path d="M180.313 116.871c56.274.696 110.206-35.411 131.408-87.492 39.116-93.566-30.003-197.43-131.408-197.681C78.924-168.036 9.79-64.202 48.906 29.379c21.202 52.08 75.134 88.188 131.407 87.492Zm0-.267c-56.05.563-109.894-35.456-130.622-87.55-38.064-92.515 30.522-194.897 130.622-194.438 100.116-.444 168.686 101.908 130.623 194.437-20.714 52.095-74.572 88.114-130.623 87.551Z" fill="#048417"/><path d="M180.314 116.855c49.457.622 96.855-31.13 115.48-76.898 34.389-82.232-26.374-173.516-115.48-173.738-89.107.237-149.854 91.492-115.48 173.738 18.624 45.768 66.022 77.505 115.48 76.898Zm0-.237c-49.265.503-96.589-31.16-114.798-76.942C32.06-41.624 92.333-131.603 180.314-131.203c87.98-.386 148.254 89.566 114.798 170.879-18.209 45.783-65.533 77.445-114.798 76.942Z" fill="#048417"/><path d="M180.314 116.841c43.99.548 86.158-27.692 102.723-68.408 30.581-73.149-23.455-154.343-102.723-154.551-79.268.208-133.304 81.387-102.723 154.551 16.565 40.731 58.733 68.956 102.723 68.408Zm0-.207c-43.827.444-85.921-27.722-102.115-68.453-29.767-72.319 23.854-152.358 102.115-152.002 78.261-.341 131.882 79.668 102.115 152.002-16.194 40.731-58.288 68.897-102.115 68.453Z" fill="#048417"/><path d="M180.313 116.826c39.619.489 77.579-24.936 92.499-61.592 27.544-65.86-21.128-138.98-92.499-139.157-71.372.193-120.029 73.282-92.5 139.157 14.92 36.67 52.895 62.081 92.5 61.592Zm0-.178c-39.457.4-77.357-24.966-91.952-61.636-26.803-65.12 21.484-137.187 91.952-136.875 70.467-.312 118.754 71.741 91.951 136.875-14.58 36.67-52.495 62.022-91.951 61.636Z" fill="#048417"/><path d="M180.313 116.827c35.767.444 70.038-22.507 83.506-55.607C288.681 1.762 244.75-64.246 180.313-64.409c-64.437.178-108.368 66.156-83.506 125.63 13.468 33.1 47.754 56.05 83.506 55.606Zm0-.178c-35.619.355-69.845-22.536-83.017-55.636C73.101 2.22 116.691-62.838 180.313-62.542c63.622-.282 107.198 64.763 83.017 123.555-13.172 33.1-47.398 55.991-83.017 55.636Z" fill="#048417"/><path d="M180.314 116.811c32.27.4 63.192-20.313 75.356-50.169 22.433-53.65-17.202-113.212-75.356-113.36-58.14.148-97.775 59.695-75.357 113.36 12.164 29.87 43.086 50.569 75.357 50.169Zm0-.148c-32.152.326-63.015-20.328-74.913-50.213C83.577 13.407 122.9-45.311 180.314-45.044c57.414-.252 96.737 58.436 74.912 111.494-11.883 29.885-42.761 50.524-74.912 50.213Z" fill="#048417"/><path d="M180.313 116.811c29.204.385 57.251-18.328 68.216-45.383 20.239-48.569-15.573-102.441-68.216-102.59-52.628.149-88.44 54.007-68.215 102.59 10.964 27.055 39.012 45.768 68.215 45.383Zm0-.148c-29.085.267-56.954-18.447-67.756-45.442C92.703 23.319 128.455-29.961 180.298-29.65c51.858-.297 87.596 52.969 67.756 100.87-10.786 26.996-38.656 45.71-67.741 45.443Z" fill="#048417"/><path d="M180.313 116.798c26.611.355 52.184-16.698 62.17-41.368 18.447-44.272-14.194-93.359-62.17-93.492-47.961.133-80.602 49.22-62.17 93.492 9.986 24.67 35.56 41.723 62.17 41.368Zm0-.119c-26.507.252-51.902-16.817-61.74-41.412-18.091-43.65 14.49-92.218 61.74-91.936 47.265-.267 79.831 48.272 61.74 91.936-9.838 24.596-35.233 41.649-61.74 41.412Z" fill="#048417"/><path d="M180.313 116.796c24.033.326 47.102-15.068 56.125-37.337 16.639-39.96-12.816-84.292-56.125-84.395-43.308.118-72.763 44.434-56.124 84.395 9.023 22.269 32.107 37.648 56.124 37.337Zm0-.118c-23.928.222-46.849-15.187-55.739-37.382-16.328-39.398 13.068-83.24 55.739-82.988 42.657-.252 72.068 43.576 55.74 82.988-8.875 22.21-31.811 37.604-55.74 37.382Z" fill="#048417"/><path d="M180.313 116.782c21.795.296 42.731-13.676 50.91-33.886 15.098-36.256-11.631-76.468-50.91-76.572-39.293.104-66.007 40.316-50.909 76.572 8.178 20.225 29.114 34.182 50.909 33.886Zm0-.089c-21.706.207-42.508-13.78-50.569-33.915-14.816-35.753 11.868-75.52 50.569-75.298 38.701-.222 65.385 39.545 50.569 75.298-8.06 20.135-28.863 34.107-50.569 33.915Z" fill="#048417"/><path d="M180.312 116.782c19.603.267 38.435-12.298 45.784-30.463 13.586-32.596-10.461-68.763-45.784-68.852-35.322.104-59.354 36.241-45.783 68.852 7.364 18.165 26.181 30.73 45.783 30.463Zm0-.089c-19.513.178-38.226-12.387-45.471-30.492-13.32-32.152 10.667-67.904 45.471-67.697 34.804-.207 58.792 35.56 45.472 67.697-7.245 18.105-25.943 30.67-45.472 30.492Z" fill="#048417"/><path d="M180.313 116.783c17.706.222 34.715-11.098 41.338-27.514 12.268-29.456-9.438-62.082-41.338-62.185-31.915.118-53.606 32.73-41.338 62.185 6.623 16.416 23.647 27.721 41.338 27.514Zm0-.089c-17.632.148-34.522-11.172-41.056-27.544-12.031-29.04 9.63-61.31 41.056-61.148 31.441-.163 53.103 32.108 41.057 61.148-6.52 16.372-23.425 27.692-41.057 27.544Z" fill="#048417"/><path d="M180.313 116.783c15.958.193 31.293-10.001 37.264-24.802 11.053-26.552-8.505-55.962-37.264-56.051-28.758.103-48.316 29.5-37.263 56.05 5.971 14.787 21.306 24.996 37.263 24.803Zm0-.088c-15.883.133-31.129-10.076-37.011-24.833-10.846-26.18 8.667-55.265 37.011-55.117 28.344-.148 47.858 28.936 37.012 55.117-5.882 14.757-21.113 24.966-37.012 24.833Z" fill="#048417"/><path d="M180.313 116.767c14.387.177 28.225-9.024 33.604-22.373 9.971-23.944-7.675-50.466-33.604-50.554-25.944.088-43.575 26.61-33.604 50.554 5.393 13.349 19.217 22.55 33.604 22.373Zm0-.06c-14.328.119-28.062-9.082-33.382-22.402-9.779-23.618 7.824-49.843 33.382-49.71 25.558-.133 43.161 26.092 33.382 49.71-5.305 13.305-19.054 22.506-33.382 22.402Z" fill="#048417"/><path d="M180.313 116.767c13.068.163 25.618-8.194 30.522-20.314 9.068-21.706-6.993-45.857-30.522-45.901-23.528.059-39.59 24.195-30.522 45.901 4.904 12.12 17.454 20.477 30.522 20.314Zm0-.06c-13.009.104-25.484-8.252-30.314-20.328-8.89-21.44 7.097-45.25 30.314-45.13 23.203-.12 39.19 23.69 30.315 45.13-4.83 12.076-17.306 20.432-30.315 20.328Z" fill="#048417"/><path d="M180.313 116.767c11.794.148 23.144-7.394 27.559-18.343 8.194-19.602-6.312-41.412-27.559-41.457-21.247.045-35.752 21.855-27.558 41.457 4.415 10.935 15.764 18.491 27.558 18.343Zm0-.059c-11.749.089-23.025-7.453-27.381-18.373-8.03-19.365 6.416-40.879 27.381-40.775 20.966-.104 35.397 21.395 27.381 40.775-4.356 10.92-15.631 18.462-27.381 18.373Z" fill="#048417"/><path d="M180.312 116.768c19.262.089 32.508-19.75 25.159-37.53-9.453-22.492-40.879-22.492-50.332 0-7.334 17.78 5.912 37.619 25.173 37.53Zm0-.059c-19.113.03-32.329-19.736-24.877-37.353 9.32-21.943 40.42-21.943 49.754 0 7.453 17.632-5.763 37.383-24.877 37.353Z" fill="#048417"/><path d="M180.313 116.767c21.632-.015 32.477-26.21 17.29-41.59-9.186-9.557-25.395-9.557-34.581 0-15.187 15.38-4.342 41.575 17.291 41.59Zm0-.06c-21.47-.103-32.256-26.106-17.039-41.293 8.978-9.26 25.099-9.26 34.078 0 15.216 15.187 4.43 41.19-17.039 41.293Z" fill="#048417"/><path d="M180.313 116.752c19.469-.015 29.233-23.588 15.558-37.427-8.268-8.608-22.862-8.608-31.13 0-13.661 13.84-3.911 37.412 15.558 37.427h.014Zm0-.03c-19.32-.089-29.025-23.499-15.335-37.16 8.09-8.326 22.581-8.326 30.671 0 13.69 13.661 3.985 37.071-15.336 37.16Z" fill="#048417"/><path d="M180.314 116.752c17.513-.015 26.284-21.217 14.002-33.663-7.423-7.734-20.566-7.734-27.989 0-12.298 12.446-3.511 33.648 14.002 33.663h-.015Zm0-.03c-17.38-.074-26.107-21.128-13.794-33.426 7.275-7.497 20.313-7.497 27.588 0 12.313 12.283 3.586 33.337-13.794 33.426Z" fill="#048417"/><path d="M180.313 116.752c15.824 0 23.751-19.173 12.638-30.418-6.712-6.994-18.58-6.994-25.291 0-11.113 11.245-3.186 30.403 12.638 30.418h.015Zm0-.03c-15.706-.074-23.588-19.098-12.461-30.196 6.564-6.77 18.358-6.77 24.922 0 11.127 11.098 3.244 30.122-12.461 30.196Z" fill="#048417"/><path d="M180.313 116.752c14.194 0 21.321-17.202 11.35-27.292-6.031-6.282-16.669-6.267-22.699 0-9.972 10.09-2.86 27.277 11.349 27.292Zm0-.03c-14.09-.059-21.173-17.142-11.186-27.1 5.897-6.074 16.476-6.074 22.373 0 9.986 9.972 2.904 27.041-11.187 27.1Z" fill="#048417"/><path d="M180.314 116.752c12.845 0 19.291-15.557 10.267-24.7-5.452-5.674-15.083-5.674-20.535 0-9.024 9.128-2.578 24.685 10.268 24.7Zm0-.03c-12.758-.059-19.158-15.498-10.12-24.521 5.334-5.497 14.905-5.497 20.239 0 9.038 9.023 2.638 24.462-10.119 24.521Z" fill="#048417"/><path d="M180.314 116.752c11.646 0 17.483-14.105 9.305-22.388-4.905-5.141-13.706-5.141-18.625 0-8.178 8.283-2.341 22.388 9.305 22.388h.015Zm0-.03c-11.557-.059-17.365-14.061-9.171-22.224 4.83-4.979 13.512-4.979 18.342 0 8.194 8.178 2.386 22.18-9.171 22.224Z" fill="#048417"/><path d="M180.313 116.752c10.579.015 15.913-12.876 8.475-20.373-4.43-4.682-12.505-4.667-16.95 0-7.452 7.497-2.104 20.403 8.475 20.373Zm0-.03c-10.505-.015-15.809-12.831-8.356-20.24 4.4-4.533 12.298-4.533 16.698 0 7.453 7.409 2.148 20.211-8.342 20.24Z" fill="#048417"/><path d="M180.313 116.752c9.527.03 14.343-11.587 7.631-18.343-3.986-4.208-11.261-4.193-15.247 0-6.711 6.742-1.896 18.358 7.631 18.343h-.015Zm0-.03c-9.438-.029-14.194-11.542-7.512-18.194 3.956-4.09 11.053-4.09 15.009 0 6.697 6.652 1.926 18.165-7.512 18.194h.015Z" fill="#048417"/><path d="M180.312 116.752c8.609.059 12.994-10.535 6.905-16.61-3.615-3.807-10.209-3.807-13.824 0-6.09 6.075-1.689 16.669 6.905 16.61h.014Zm0-.03c-8.519 0-12.875-10.49-6.8-16.491 3.585-3.704 10.016-3.704 13.601 0 6.075 5.986 1.719 16.491-6.801 16.491Z" fill="#048417"/><path d="M180.314 116.752c7.794.044 11.779-9.542 6.267-15.054-3.274-3.452-9.245-3.452-12.519 0-5.512 5.512-1.541 15.098 6.267 15.054h-.015Zm0-.03c-7.719 0-11.661-9.512-6.164-14.935 3.245-3.348 9.083-3.348 12.328 0 5.497 5.423 1.57 14.95-6.164 14.935Z" fill="#048417"/><path d="M180.313 116.752c7.067.044 10.682-8.653 5.674-13.646-2.978-3.126-8.386-3.126-11.349 0-5.008 4.993-1.393 13.69 5.675 13.646Zm0-.03c-7.009 0-10.579-8.623-5.586-13.542 2.948-3.038 8.238-3.038 11.171 0 4.994 4.919 1.423 13.557-5.585 13.542Z" fill="#048417"/><path d="M180.312 116.737c6.371.074 9.676-7.868 5.142-12.357-2.697-2.83-7.586-2.83-10.268 0-4.534 4.474-1.23 12.416 5.141 12.357h-.015Zm0 0c-6.311.044-9.571-7.838-5.052-12.253 2.667-2.756 7.453-2.756 10.105 0 4.519 4.415 1.259 12.297-5.053 12.253Z" fill="#048417"/><path d="M180.314 116.737c5.779.059 8.772-7.142 4.653-11.201-2.445-2.564-6.875-2.564-9.32 0-4.104 4.059-1.126 11.26 4.652 11.201h.015Zm0 0c-5.719.03-8.682-7.112-4.578-11.112 2.415-2.49 6.756-2.49 9.171 0 4.09 4 1.141 11.142-4.578 11.112h-.015Z" fill="#048417"/><path d="M180.313 116.737c5.26.059 7.986-6.49 4.237-10.194-2.222-2.341-6.252-2.341-8.475 0-3.733 3.689-1.022 10.253 4.238 10.194Zm0 0c-5.186.059-7.897-6.505-4.178-10.12 2.192-2.267 6.148-2.267 8.341 0 3.734 3.601 1.008 10.179-4.178 10.12h.015Z" fill="#048417"/><path d="M180.313 116.739c4.712.089 7.186-5.882 3.808-9.172-2-2.104-5.63-2.104-7.631 0-3.363 3.29-.889 9.246 3.808 9.172h.015Zm0 0c-4.667.059-7.112-5.853-3.748-9.098 1.97-2.044 5.526-2.044 7.512 0 3.363 3.245.918 9.157-3.749 9.098h-.015Z" fill="#048417"/><path d="M180.314 116.739c4.267.074 6.504-5.334 3.452-8.312-1.808-1.897-5.097-1.897-6.905 0-3.052 2.978-.815 8.386 3.453 8.312Zm0 0c-6.372-.207-6.372-9.453 0-9.646 6.371.193 6.371 9.424 0 9.646Z" fill="#048417"/><path d="M180.314 116.737c5.838-.177 5.838-8.638 0-8.83-5.838.192-5.838 8.667 0 8.83Zm0 0c-5.764-.192-5.778-8.564 0-8.741 5.779.163 5.764 8.549 0 8.741Z" fill="#048417"/><path d="M180.312 116.737c5.29-.148 5.29-7.838 0-8.015-5.289.177-5.289 7.852 0 8.015Zm0 0c-5.23-.177-5.23-7.764 0-7.927 5.23.149 5.23 7.75 0 7.927Z" fill="#048417"/><path d="M180.314 116.737c4.786-.148 4.786-7.097 0-7.245-4.786.163-4.786 7.112 0 7.245Zm0 0c-4.726-.148-4.741-7.023 0-7.171 4.741.133 4.726 7.008 0 7.171Z" fill="#048417"/><path d="M180.312 116.737c4.342-.133 4.342-6.43 0-6.578-4.341.148-4.341 6.445 0 6.578Zm0 0c-4.296-.148-4.296-6.371 0-6.504 4.297.133 4.297 6.356 0 6.504Z" fill="#048417"/><path d="M180.312 116.737c3.912-.118 3.912-5.793 0-5.911-3.911.133-3.911 5.808 0 5.911Zm0 0c-3.867-.133-3.867-5.734 0-5.852 3.868.118 3.868 5.719 0 5.852Z" fill="#048417"/><path d="M180.314 116.737c3.511-.103 3.511-5.2 0-5.319-3.512.119-3.527 5.216 0 5.319Zm0 0c-3.482-.118-3.482-5.156 0-5.26 3.482.104 3.482 5.142 0 5.26Z" fill="#048417"/><path d="M180.312 116.737c3.141-.089 3.141-4.652 0-4.756-3.141.104-3.141 4.653 0 4.756Zm0 0c-3.097-.103-3.111-4.608 0-4.697 3.112.089 3.097 4.594 0 4.697Z" fill="#048417"/><path d="M180.312 116.737c-2.711-.089-2.711-4.03 0-4.104 2.712.074 2.712 4.015 0 4.104Zm0 0c2.741-.074 2.741-4.059 0-4.148-2.741.089-2.741 4.074 0 4.148Z" fill="#048417"/><path d="M180.313 116.737c-2.415-.074-2.415-3.645 0-3.659 2.415-.015 2.415 3.57 0 3.659Zm0 0c2.445-.074 2.445-3.689 0-3.689s-2.445 3.615 0 3.689Z" fill="#048417"/><path d="M180.314 116.737c-2.119-.074-2.119-3.2 0-3.2s2.119 3.126 0 3.2Zm0 0c2.133-.059 2.133-3.23 0-3.23-2.134 0-2.134 3.171 0 3.23Z" fill="#048417"/><path d="M180.313 116.737c-1.807-.059-1.822-2.741 0-2.741 1.823 0 1.808 2.682 0 2.741Zm0 0c1.838-.059 1.838-2.77 0-2.77-1.837 0-1.837 2.726 0 2.77Z" fill="#048417"/><path d="M180.313 116.737c-1.511-.044-1.511-2.296 0-2.296 1.512 0 1.512 2.237 0 2.296Zm0 0c1.527-.044 1.527-2.311 0-2.311-1.526 0-1.526 2.267 0 2.311Z" fill="#048417"/><path d="M180.313 116.737c-1.215-.044-1.215-1.837 0-1.837s1.215 1.793 0 1.837Zm0 0c1.23-.029 1.23-1.852 0-1.852s-1.23 1.823 0 1.852Z" fill="#048417"/><path d="M180.313 116.737c-.919-.029-.919-1.378 0-1.378s.919 1.349 0 1.378Zm0 0c.919-.029.919-1.392 0-1.392s-.919 1.363 0 1.392Z" fill="#048417"/><path d="M180.313 116.737c-.608-.015-.608-.933 0-.933.607 0 .607.904 0 .933Zm0 0c.622-.015.622-.933 0-.933-.623 0-.623.918 0 .933Z" fill="#048417"/><path d="M180.313 116.737c-.312 0-.312-.459 0-.474.311 0 .311.459 0 .474Zm0 0c.311 0 .311-.474 0-.474-.312 0-.312.474 0 .474Z" fill="#048417"/><path d="m180.314 116.737-2.415-470.587h4.831l-2.416 470.587Z" fill="#048417"/></svg>