<svg width="241" height="196" fill="none" xmlns="http://www.w3.org/2000/svg"><g clip-path="url('#clip0_3465_2210')"><path d="M144.394 45.49h3.801l1.048-5.01-4.025 2.895-.824 2.114ZM125.072 34.438l12.757-.274-12.239-7.172-.518 7.446ZM152.787 50.285h16.267l4.098-2.343-16.899-9.662-3.466 12.005Z" fill="#DAE0E7"/><path d="m140.371 30.04-1.628-6.175-2.64-9.99-1.095-4.134-.942-3.574-1.032-.592-3.473-1.985-10.289 27.256 3.609 2.067 2.191 1.253 1.757-5.425 3.697 2.115 6.259 3.582.838 3.51.926 3.926 1.828 1.036 4.012 2.306-4.012-15.176h-.006Zm-8.394-3.598-.184-.103-3.489-1.996 3.489-10.74 1.748 7.333 1.441 6.016.339 1.396-3.344-1.906ZM152.763 43.548V16.85l-5.471-3.128V46.868l2.65 1.517 2.845 1.626v-6.448l-.024-.015Z" fill="#02B421"/><path d="m133.594 21.142-5.291 3.203 3.492-10.74 1.746 7.327.053.21Z" fill="#5E646B"/><path d="m135.322 28.348-3.346-1.91-.181-.097-3.492-1.996 5.291-3.203 1.387 5.808.341 1.398ZM134.064 6.167l5.47-3.32L135.039.27l-5.477 3.32 3.472 1.986 1.03.591Z" fill="#fff"/><path d="M152.788 43.563V16.867l-.024-.017v26.698l.024.015Z" fill="#DAE0E7"/><path d="m147.292 13.722 5.471 3.128.024.017 5.477-3.32-5.501-3.143-5.471 3.318ZM152.787 43.563v6.448l5.477-3.318V13.548l-5.477 3.32v26.695ZM140.478 6.421l-.944-3.574-5.47 3.32.943 3.574 1.096 4.134 2.643 9.99 1.626 6.175h.01l4.011 15.175 2.899-1.763V32.186l-6.814-25.765Z" fill="#fff"/><path d="m125.072 34.164 5.455-3.31-3.698-2.115-1.757 5.425Z" fill="#5E646B"/><path d="M140.379 30.04h-.008l-1.628-6.175-2.64-9.99-1.095-4.134-.942-3.574-1.032-.592-3.473-1.985-10.289 27.256 3.609 2.067 2.191 1.253 1.757-5.425 3.697 2.115 6.259 3.582.838 3.51.926 3.926 1.828 1.036 4.012 2.306-4.01-15.176Zm-8.402-3.598-.184-.103-3.489-1.996 3.489-10.74 1.748 7.333 1.441 6.016.339 1.396-3.344-1.906Z" stroke="#34393A" stroke-width=".6" stroke-miterlimit="10" stroke-linecap="round" stroke-linejoin="round"/><path d="M152.787 50.28a.272.272 0 0 1-.136-.035l-5.495-3.143a.27.27 0 0 1-.136-.234V13.721a.271.271 0 0 1 .409-.234l5.471 3.127a.269.269 0 0 1 .136.235v26.602a.258.258 0 0 1 .024.111v6.448a.271.271 0 0 1-.273.27Zm-5.222-3.57 4.95 2.832v-5.885a.259.259 0 0 1-.024-.111v-26.54l-4.926-2.815v32.52Z" fill="#34393A"/><path d="M152.787 43.834a.271.271 0 0 1-.154-.048l-.024-.016a.266.266 0 0 1-.119-.222V16.85c0-.1.056-.193.147-.239a.277.277 0 0 1 .28.016l.024.016c.075.05.119.133.119.223v26.697a.27.27 0 0 1-.147.239.259.259 0 0 1-.126.032ZM135.321 28.618a.278.278 0 0 1-.136-.036l-7.017-4.005a.268.268 0 0 1-.122-.315l3.488-10.74a.268.268 0 0 1 .271-.187.27.27 0 0 1 .254.209l1.749 7.332 1.78 7.412a.268.268 0 0 1-.102.28.308.308 0 0 1-.165.05Zm-6.69-4.4 6.277 3.584-.19-.786-1.442-6.017-1.523-6.39-3.122 9.609ZM134.065 6.437a.277.277 0 0 1-.137-.035l-4.503-2.58a.27.27 0 0 1-.006-.464L134.897.04a.273.273 0 0 1 .278-.004l4.495 2.577a.27.27 0 0 1 .006.465l-5.469 3.32a.279.279 0 0 1-.142.04Zm-3.97-2.855 3.966 2.27 4.942-2.999-3.96-2.27-4.948 2.999Z" fill="#34393A"/><path d="M152.787 43.834a.271.271 0 0 1-.154-.048l-.024-.016a.266.266 0 0 1-.119-.222V16.85c0-.1.056-.193.147-.239a.277.277 0 0 1 .28.016l.024.016c.075.05.119.133.119.223v26.697a.27.27 0 0 1-.147.239.259.259 0 0 1-.126.032Z" fill="#34393A"/><path d="M152.788 17.136a.272.272 0 0 1-.155-.048l-.016-.01-5.461-3.123a.27.27 0 0 1-.006-.465l5.471-3.32a.275.275 0 0 1 .279-.004l5.501 3.143a.268.268 0 0 1 .006.465l-5.477 3.32a.251.251 0 0 1-.142.041Zm-4.962-3.42 4.96 2.836 4.945-2.996-4.964-2.838-4.941 2.998Z" fill="#34393A"/><path d="M152.787 50.28a.268.268 0 0 1-.27-.27V16.868c0-.093.05-.18.13-.23l5.477-3.32a.276.276 0 0 1 .277-.006.268.268 0 0 1 .138.237v33.145c0 .093-.05.18-.13.23l-5.477 3.32a.319.319 0 0 1-.145.038Zm.273-33.262V49.53l4.934-2.988V14.028l-4.934 2.99ZM144.393 45.486a.27.27 0 0 1-.264-.203l-3.998-15.118a.29.29 0 0 1-.024-.058l-1.628-6.175-4.677-17.697a.266.266 0 0 1 .122-.298l5.469-3.32a.28.28 0 0 1 .245-.02c.08.032.14.1.162.183l.943 3.574 6.816 25.765a.26.26 0 0 1 .008.067v11.266c0 .094-.05.181-.13.23l-2.901 1.764a.282.282 0 0 1-.143.04Zm-3.773-15.573a.29.29 0 0 1 .024.057l3.92 14.825 2.458-1.494V32.22l-6.809-25.73-.85-3.222-4.984 3.024 6.241 23.62ZM125.072 34.434a.277.277 0 0 1-.168-.058.267.267 0 0 1-.093-.294l1.757-5.424a.267.267 0 0 1 .162-.169.272.272 0 0 1 .235.018l3.697 2.114a.27.27 0 0 1 .006.465l-5.454 3.308a.256.256 0 0 1-.142.04Zm1.913-5.294-1.43 4.414 4.437-2.694-3.007-1.72ZM128.305 24.613a.27.27 0 0 1-.143-.5l5.289-3.2a.275.275 0 0 1 .375.088.27.27 0 0 1-.09.372l-5.289 3.2a.29.29 0 0 1-.142.04Z" fill="#34393A"/></g><path d="M109.342 168.727a2.231 2.231 0 1 0-2.831-3.449 2.231 2.231 0 0 0 2.831 3.449Z" fill="#fff"/><path d="M107.929 169.572a2.565 2.565 0 1 1-.01-5.129 2.565 2.565 0 0 1 .01 5.129Zm-.007-4.461c-.321 0-.647.083-.945.255a1.88 1.88 0 0 0-.884 1.15 1.895 1.895 0 1 0 1.829-1.405Z" fill="#3A3A3A"/><path d="M195.149 93.78a2.23 2.23 0 1 0-2.693-3.556 2.23 2.23 0 0 0 2.693 3.555Z" fill="#fff"/><path d="M193.814 94.573a2.565 2.565 0 0 1-2.483-3.23 2.543 2.543 0 0 1 1.196-1.556 2.55 2.55 0 0 1 1.947-.257 2.542 2.542 0 0 1 1.557 1.196c.343.593.432 1.285.256 1.947a2.538 2.538 0 0 1-1.195 1.557 2.544 2.544 0 0 1-1.278.343Zm-.009-4.46c-.328 0-.654.087-.946.254a1.885 1.885 0 0 0-.883 1.15c-.132.49-.065 1 .189 1.44a1.898 1.898 0 0 0 3.473-.458c.132-.488.065-1-.189-1.439a1.89 1.89 0 0 0-1.644-.948ZM184.841 114.923a.335.335 0 0 1-.167-.624l.194-.112a.335.335 0 0 1 .335.58l-.194.112a.357.357 0 0 1-.168.044ZM187.395 113.456a.336.336 0 0 1-.167-.625l.392-.225a.336.336 0 0 1 .458.123.336.336 0 0 1-.123.457l-.393.225a.352.352 0 0 1-.167.045Zm2.752-1.584a.335.335 0 0 1-.167-.624l.393-.226a.335.335 0 0 1 .334.58l-.392.226a.33.33 0 0 1-.168.044Zm2.755-1.581a.334.334 0 0 1-.167-.625l.392-.225a.335.335 0 0 1 .335.58l-.393.225a.33.33 0 0 1-.167.045Zm2.752-1.582a.335.335 0 0 1-.167-.624l.392-.225a.336.336 0 0 1 .458.122.336.336 0 0 1-.123.458l-.393.225a.345.345 0 0 1-.167.044Zm2.755-1.583a.334.334 0 0 1-.168-.625l.393-.225a.335.335 0 0 1 .334.58l-.392.225a.336.336 0 0 1-.167.045Zm2.752-1.581a.335.335 0 0 1-.167-.625l.392-.225a.335.335 0 1 1 .335.58l-.393.225a.346.346 0 0 1-.167.045Zm2.754-1.584a.336.336 0 0 1-.167-.625l.393-.225a.335.335 0 0 1 .334.58l-.392.225a.326.326 0 0 1-.168.045Zm2.753-1.581a.335.335 0 0 1-.168-.625l.393-.225a.335.335 0 1 1 .334.58l-.392.225a.349.349 0 0 1-.167.045Zm2.754-1.584a.336.336 0 0 1-.167-.625l.392-.225a.335.335 0 1 1 .335.58l-.393.225a.32.32 0 0 1-.167.045Zm2.752-1.581a.336.336 0 0 1-.29-.168.336.336 0 0 1 .123-.457l.393-.225a.335.335 0 0 1 .334.58l-.392.225a.346.346 0 0 1-.168.045Zm2.755-1.582a.334.334 0 0 1-.167-.624l.392-.226a.335.335 0 0 1 .335.58l-.393.226a.351.351 0 0 1-.167.044Zm2.752-1.583a.335.335 0 0 1-.167-.624l.392-.226a.335.335 0 1 1 .335.58l-.392.225a.329.329 0 0 1-.168.045Zm2.755-1.582a.334.334 0 0 1-.168-.624l.393-.226a.334.334 0 0 1 .335.58l-.393.226a.357.357 0 0 1-.167.044ZM223.188 92.885a.335.335 0 0 1-.167-.624l.194-.112a.337.337 0 0 1 .328-.005l.196.107c.163.09.221.292.134.455a.337.337 0 0 1-.455.134l-.032-.018-.031.018a.318.318 0 0 1-.167.045ZM237.683 100.588a.361.361 0 0 1-.161-.04l-.403-.221a.337.337 0 0 1-.134-.455.337.337 0 0 1 .455-.134l.404.22c.162.09.22.293.133.456a.334.334 0 0 1-.294.174Zm-2.819-1.541a.353.353 0 0 1-.161-.04l-.403-.221a.334.334 0 0 1-.134-.455.337.337 0 0 1 .455-.134l.403.22a.335.335 0 0 1-.16.63Zm-2.822-1.542a.349.349 0 0 1-.16-.04l-.404-.22a.335.335 0 1 1 .321-.59l.404.221a.335.335 0 0 1-.161.63Zm-2.821-1.54a.351.351 0 0 1-.161-.041l-.403-.22a.335.335 0 1 1 .321-.59l.404.221a.335.335 0 0 1-.161.63Zm-2.821-1.542a.348.348 0 0 1-.161-.04l-.404-.221a.337.337 0 0 1-.134-.455.337.337 0 0 1 .455-.134l.404.221c.163.09.221.292.134.455a.341.341 0 0 1-.294.174ZM240.298 102.019a.358.358 0 0 1-.161-.04l-.196-.107a.335.335 0 1 1 .321-.589l.196.107a.335.335 0 0 1-.16.629Z" fill="#3A3A3A"/><path d="M225.506 114.958c1.307.754 2.115 2.371 2.115 4.673 0 4.604-7.22 21.287-7.22 21.287-.111-.129-7.217-8.386-7.217-12.952 0-4.603 3.231-10.2 7.217-12.501 1.954-1.129 3.727-1.256 5.027-.551l.078.044Zm-5.105 11.993c1.508-.87 2.73-2.988 2.73-4.73 0-1.742-1.222-2.447-2.73-1.577-1.508.872-2.73 2.988-2.73 4.73 0 1.742 1.222 2.449 2.73 1.577Z" fill="#fff"/><path d="m221.186 112.463 4.244 2.452c-1.3-.707-3.073-.578-5.027.551-3.986 2.301-7.218 7.9-7.218 12.501 0 4.568 7.106 12.823 7.218 12.952l-4.32-2.493s-7.218-8.351-7.218-12.952c0-4.604 3.232-10.202 7.218-12.504 1.991-1.151 3.796-1.26 5.103-.507Z" fill="#D7DCE0"/><path d="M223.133 122.221c0 1.742-1.222 3.861-2.73 4.73-1.508.873-2.73.165-2.73-1.576 0-1.742 1.222-3.861 2.73-4.731 1.508-.87 2.73-.163 2.73 1.577Z" fill="#3A3A3A"/><path d="M220.146 141.138c-.749-.873-7.297-8.628-7.297-13.171 0-4.702 3.314-10.441 7.384-12.792 1.992-1.15 3.895-1.347 5.356-.553.162.09.223.293.133.453a.332.332 0 0 1-.452.134c-1.249-.678-2.918-.484-4.7.546-3.887 2.244-7.05 7.724-7.05 12.212 0 4.376 6.845 12.394 7.135 12.733l-.509.438Z" fill="#3A3A3A"/><path d="M220.401 141.254a.334.334 0 0 1-.306-.466c.071-.168 7.191-16.673 7.191-21.156 0-2.103-.692-3.66-1.947-4.383a.335.335 0 1 1 .334-.58c1.472.85 2.282 2.612 2.282 4.963 0 4.619-6.95 20.736-7.247 21.421a.336.336 0 0 1-.307.201ZM219.18 127.661c-.316 0-.613-.076-.878-.227-.623-.359-.966-1.091-.966-2.057 0-1.878 1.273-4.081 2.897-5.02.839-.484 1.642-.551 2.266-.192.625.359.966 1.09.966 2.058 0 1.878-1.274 4.084-2.897 5.021-.482.277-.955.417-1.388.417Zm2.438-7.055c-.314 0-.671.112-1.05.328-1.414.817-2.563 2.808-2.563 4.441 0 .718.225 1.242.631 1.479.408.236.975.167 1.597-.192 1.414-.816 2.563-2.808 2.563-4.441 0-.718-.225-1.242-.631-1.479a1.088 1.088 0 0 0-.547-.136Z" fill="#3A3A3A"/><path d="M220.4 141.253a.336.336 0 0 1-.167-.045l-4.32-2.493a.26.26 0 0 1-.085-.072c-.299-.345-7.298-8.498-7.298-13.17 0-4.704 3.312-10.443 7.385-12.794 2.036-1.175 3.968-1.356 5.44-.506l4.32 2.495a.335.335 0 1 1-.334.58l-4.321-2.495c-1.255-.725-2.95-.545-4.77.506-3.888 2.244-7.051 7.724-7.051 12.214 0 4.26 6.549 12.044 7.1 12.691l4.271 2.464a.336.336 0 0 1-.17.625ZM65.953 94.97v2.084l-12.232 7.063-1.804-1.043 14.036-8.103Z" fill="#3A3A3A"/><path d="m65.952 94.97-14.035 8.103 4.237 2.449-13.685.435.754-7.902 4.237 2.447 14.038-8.103 4.454 2.571Z" fill="#fff"/><path d="M56.154 105.629v1.976l-13.685.435v-2.083l13.685-.435v.107Z" fill="#3A3A3A"/><path d="M42.468 106.292a.334.334 0 0 1-.332-.366l.754-7.903a.33.33 0 0 1 .18-.265c.101-.051.224-.05.322.007l4.07 2.35 13.871-8.007a.332.332 0 0 1 .334 0l4.455 2.572a.336.336 0 0 1 0 .58l-13.534 7.813 3.736 2.159a.333.333 0 0 1-.158.622c-.003.003-13.695.438-13.697.438Zm1.038-7.686-.67 7.005 12.134-.386-3.223-1.862a.337.337 0 0 1 0-.58L65.28 94.97l-3.785-2.186-13.87 8.007a.329.329 0 0 1-.335 0l-3.785-2.185Z" fill="#3A3A3A"/><path d="M53.72 104.452a.335.335 0 0 1-.167-.625l12.064-6.968V94.97a.334.334 0 1 1 .67 0v2.084c0 .12-.066.23-.168.29l-12.231 7.063a.333.333 0 0 1-.168.045ZM42.468 108.374a.333.333 0 0 1-.334-.334v-2.083a.334.334 0 1 1 .669 0v1.737l13.016-.415v-1.652a.334.334 0 1 1 .67 0v1.976c0 .18-.143.328-.324.334-.002.002-13.694.437-13.697.437ZM62.97 169.126v7.632l-6.609 3.814v-7.63l6.609-3.816Z" fill="#3A3A3A"/><path d="m62.97 169.125-6.608 3.817-6.61-3.817 6.61-3.814 6.608 3.814Z" fill="#fff"/><path d="M56.361 172.942v7.63l-6.608-3.814v-7.632l6.608 3.816Z" fill="#D7DCE0"/><path d="M56.36 180.905a.34.34 0 0 1-.166-.044.337.337 0 0 1-.168-.29v-7.63c0-.121.065-.23.168-.29l6.608-3.817a.333.333 0 0 1 .502.29v7.631c0 .12-.065.229-.167.289l-6.609 3.817a.32.32 0 0 1-.167.044Zm.336-7.77v6.858l5.939-3.43v-6.859l-5.94 3.431Z" fill="#3A3A3A"/><path d="M56.361 180.905a.332.332 0 0 1-.167-.044l-6.609-3.817a.335.335 0 0 1-.167-.289v-7.631a.333.333 0 0 1 .502-.29l6.608 3.817a.334.334 0 1 1-.334.579l-6.107-3.526v6.859l6.441 3.72a.333.333 0 0 1-.167.622Z" fill="#3A3A3A"/><path d="M62.97 169.458a.334.334 0 0 1-.168-.045l-6.441-3.718-6.441 3.718a.333.333 0 0 1-.458-.122.336.336 0 0 1 .123-.458l6.609-3.814a.333.333 0 0 1 .334 0l6.609 3.814a.336.336 0 0 1-.167.625Z" fill="#3A3A3A"/><path d="M196.747 63.75a19.953 19.953 0 0 1-6.165 14.447c-2.46 2.357-4.481 5.15-5.732 8.301l-.116-.044c-.406.682-1.082 1.325-2.023 1.869-3.31 1.911-8.676 1.911-11.984 0-.941-.542-1.614-1.18-2.02-1.863l-.076.03c-1.254-3.148-3.272-5.938-5.73-8.293a19.949 19.949 0 0 1-6.165-14.447c0-11.05 8.957-20.007 20.004-20.009 11.05.002 20.007 8.96 20.007 20.01Z" fill="#02B421"/><path d="M189.183 57.835c.541-.992-.175-2.425-1.599-3.202-1.425-.777-3.018-.603-3.559.389-.541.991.175 2.425 1.6 3.202 1.424.777 3.017.603 3.558-.389ZM184.735 86.453l.116.045c-.159.394-.304.794-.435 1.2-.322.992-.585 2-.783 3.033h-.005c-.024.127-.049.254-.067.384-.345.582-.919 1.128-1.721 1.59-2.815 1.626-7.381 1.626-10.193 0-.801-.462-1.374-1.006-1.718-1.584-.022-.131-.049-.26-.073-.39a25.939 25.939 0 0 0-.783-3.033 19.497 19.497 0 0 0-.437-1.21l.076-.028c.405.68 1.079 1.32 2.02 1.862 3.308 1.912 8.674 1.912 11.984 0 .937-.544 1.613-1.187 2.019-1.869Z" fill="#fff"/><path d="M183.557 91.116a25.312 25.312 0 0 0-.389 3.892c0 .743-.472 1.481-1.418 2.09-.143.091-.297.18-.462.268-1.255.647-2.901.972-4.545.972-1.648 0-3.29-.325-4.546-.972a5.487 5.487 0 0 1-.618-.37c-.843-.587-1.264-1.287-1.264-1.988a25.101 25.101 0 0 0-.388-3.885c.343.577.919 1.122 1.717 1.583 2.815 1.626 7.38 1.626 10.193 0 .803-.464 1.374-1.008 1.72-1.59Z" fill="#fff"/><path d="M181.286 97.366a5.33 5.33 0 0 0 .462-.268 5.09 5.09 0 0 1-10.171-.103c.185.13.39.255.618.37 1.258.648 2.899.973 4.545.973s3.29-.325 4.546-.972Z" fill="#3A3A3A"/><path d="M176.74 98.671c-1.764 0-3.432-.359-4.699-1.008a5.773 5.773 0 0 1-.656-.395c-.908-.631-1.407-1.434-1.407-2.261a25.11 25.11 0 0 0-1.229-7.207 17.236 17.236 0 0 0-.431-1.186c-1.182-2.965-3.082-5.715-5.651-8.175-4.042-3.872-6.268-9.089-6.268-14.687 0-11.215 9.125-20.342 20.339-20.344 11.217.002 20.341 9.13 20.341 20.344 0 5.6-2.226 10.815-6.267 14.687-2.565 2.456-4.468 5.21-5.652 8.183-.154.386-.299.783-.428 1.18a25.18 25.18 0 0 0-.772 2.993c-.002.018-.009.034-.013.052a8.09 8.09 0 0 0-.056.319 24.804 24.804 0 0 0-.386 3.85c0 .87-.558 1.71-1.572 2.364a5.52 5.52 0 0 1-.491.283c-1.262.649-2.933 1.008-4.702 1.008Zm0-54.596c-10.846 0-19.669 8.828-19.669 19.674 0 5.416 2.152 10.461 6.062 14.206 2.638 2.527 4.592 5.357 5.81 8.41.163.409.312.822.444 1.23.323.997.591 2.03.794 3.071l.076.395a25.45 25.45 0 0 1 .392 3.937c0 .617.388 1.209 1.122 1.72.181.124.377.242.58.347 1.173.602 2.732.935 4.394.935 1.664 0 3.225-.333 4.394-.935.147-.076.294-.16.435-.252.816-.524 1.264-1.166 1.264-1.809a25.9 25.9 0 0 1 .393-3.95l.004-.024c.02-.123.043-.246.067-.368a.205.205 0 0 1 .013-.047c.199-1.015.462-2.032.783-3.025.134-.41.284-.82.442-1.22 1.222-3.062 3.178-5.895 5.812-8.417 3.91-3.745 6.062-8.79 6.062-14.206-.002-10.844-8.827-19.672-19.674-19.672Z" fill="#3A3A3A"/><path d="M182.178 70.327a.328.328 0 0 1-.167-.044c-.781-.449-1.147-1.405-1.499-2.331-.326-.852-.634-1.657-1.205-1.99-.365-.21-.506-.084-.905.5-.319.466-.852 1.247-1.798.698-.778-.448-1.144-1.405-1.496-2.328-.326-.852-.632-1.658-1.202-1.988-.366-.212-.507-.084-.906.5-.317.466-.85 1.247-1.795.7-.777-.448-1.14-1.403-1.493-2.326-.325-.852-.633-1.657-1.204-1.987a.335.335 0 1 1 .335-.58c.778.448 1.144 1.403 1.496 2.328.326.852.631 1.655 1.202 1.985.368.212.509.087.908-.497.319-.466.85-1.245 1.793-.7.776.45 1.142 1.405 1.495 2.328.325.854.633 1.66 1.206 1.987.368.215.511.09.91-.497.319-.466.85-1.244 1.793-.7.779.45 1.142 1.405 1.497 2.328.326.855.633 1.66 1.207 1.99a.335.335 0 0 1-.172.624ZM176.74 94.25c-1.907 0-3.812-.419-5.264-1.257-.834-.48-1.452-1.053-1.837-1.702a.336.336 0 0 1 .116-.46.336.336 0 0 1 .459.116c.321.542.874 1.049 1.597 1.464 2.719 1.57 7.142 1.57 9.86 0 .734-.422 1.272-.917 1.6-1.47a.337.337 0 0 1 .526-.065.336.336 0 0 1 .04.426c-.388.645-1.004 1.213-1.829 1.69-1.454.84-3.361 1.259-5.268 1.259ZM176.718 90.082c-2.231 0-4.461-.49-6.158-1.47-.971-.56-1.691-1.226-2.139-1.98a.336.336 0 0 1 .116-.46.336.336 0 0 1 .459.116c.391.656 1.031 1.243 1.9 1.745 3.212 1.855 8.438 1.853 11.65 0 .858-.498 1.519-1.102 1.904-1.751a.335.335 0 1 1 .576.343c-.451.758-1.171 1.428-2.144 1.99-1.704.977-3.936 1.467-6.164 1.467ZM176.664 102.28a5.392 5.392 0 0 1-5.422-5.277.335.335 0 0 1 .326-.344h.009c.181 0 .33.145.334.326a4.729 4.729 0 0 0 4.753 4.626 4.749 4.749 0 0 0 4.751-4.53.335.335 0 1 1 .669.031 5.416 5.416 0 0 1-5.42 5.168Z" fill="#3A3A3A"/><path d="M205.841 155.495c0 9.323-3.27 15.764-8.48 18.771l-17.627 10.177c5.213-3.008 8.48-9.45 8.48-18.771 0-19.396-14.37-43.674-32.14-51.85-3.671-35.714-39.089-71.108-60.659-60.222l17.595-10.16a.14.14 0 0 0 .032-.02c21.57-10.884 56.988 24.51 60.659 60.224 17.769 8.181 32.14 32.457 32.14 51.851Z" fill="#D7DCE0"/><path d="M84.408 71.226C86.471 57.308 95.263 53.76 95.415 53.6c21.57-10.887 56.988 24.508 60.659 60.221 17.77 8.177 32.14 32.455 32.14 51.851 0 9.321-3.27 15.762-8.48 18.771-4.65 2.685-10.848 2.636-17.653-.535-1.59-.741 2.014 1.334-35.911-20.567V126.62l15.489 8.942-23.628-44.1-23.626 16.82 15.487 8.942v36.723l-24.413-14.096c-13.72-7.924-24.835-27.186-24.835-43.018 0-7.925 2.779-13.492 7.275-16.086 4.195-2.422 9.885-2.257 16.206.995a.05.05 0 0 0 .044.03c-.338-4.05-.207-7.538.24-10.546Z" fill="#fff"/><path d="m127.519 125.819 6.769-4.013 7.37 13.755-15.488-8.941 1.349-.801Z" fill="#D7DCE0"/><path d="m127.519 109.171 6.769 12.635-6.769 4.013v-16.648Z" fill="#fff"/><path d="M127.519 109.172v16.647l-1.349.801v17.832l-16.277 9.493v-36.722l16.756-9.675.87 1.624Z" fill="#3A3A3A"/><path d="m125.87 106.093.779 1.454-16.757 9.675-15.488-8.944 17.627-10.175 13.839 7.99Z" fill="#D7DCE0"/><path d="m118.95 93.176 6.921 12.917-13.84-7.99 6.919-4.927Z" fill="#fff"/><path d="m118.95 93.178-6.919 4.927-17.627 10.175 23.627-16.817.919 1.715Z" fill="#3A3A3A"/><path d="m112.963 43.467-1.409.816c.709-.462 1.222-.714 1.409-.816Z" fill="#fff"/><path d="m67.917 80.747 16.491-9.52c-.446 3.007-.577 6.498-.24 10.544a.048.048 0 0 1-.045-.03c-6.321-3.251-12.01-3.418-16.206-.994Z" fill="#D7DCE0"/><path d="M172.164 186.71c-3.194 0-6.66-.834-10.226-2.495-.134-.063-.23-.103-.317-.143-.932-.408-.932-.408-31.729-18.191l-3.89-2.246a.337.337 0 0 1-.167-.29v-36.724a.334.334 0 0 1 .501-.29l14.473 8.355-22.894-42.73-22.893 16.295 15.037 8.681c.103.06.167.169.167.29v36.724a.333.333 0 0 1-.501.29l-24.414-14.099c-13.786-7.965-25.002-27.392-25.002-43.306 0-7.788 2.643-13.603 7.442-16.376 4.323-2.495 10.001-2.228 16.039.74-.261-3.588-.165-6.956.29-10.018 1.749-11.788 8.286-16.36 11.016-17.779.055-.029.098-.051.122-.065a.581.581 0 0 1 .05-.03c6.682-3.373 14.93-2.575 23.855 2.308 8.808 4.818 17.437 13.184 24.3 23.562 7.16 10.824 11.759 23.042 12.968 34.426 8.486 3.959 16.542 11.683 22.705 21.769 6.008 9.837 9.454 20.882 9.454 30.307 0 9.071-3.071 15.841-8.647 19.062-2.284 1.318-4.904 1.973-7.739 1.973Zm-45.66-23.557 3.722 2.15c30.764 17.765 30.764 17.765 31.663 18.158.091.04.191.084.332.149 6.528 3.042 12.688 3.239 17.345.549 5.362-3.096 8.313-9.66 8.313-18.481 0-19.974-14.629-43.578-31.943-51.548a.336.336 0 0 1-.194-.27c-2.327-22.625-18.209-47.412-36.942-57.658-8.714-4.767-16.739-5.565-23.21-2.31-.04.026-.095.055-.189.104-2.638 1.372-8.96 5.801-10.663 17.283-.473 3.183-.551 6.705-.239 10.466a.342.342 0 0 1-.087.254c-.127.138-.359.132-.495.016-5.99-3.067-11.611-3.413-15.833-.975-4.584 2.645-7.109 8.255-7.109 15.796 0 15.702 11.068 34.87 24.668 42.728l23.912 13.808v-35.956l-15.32-8.846a.339.339 0 0 1-.168-.274.331.331 0 0 1 .141-.288l23.626-16.82a.334.334 0 0 1 .489.114l23.628 44.1a.334.334 0 0 1-.461.448l-14.989-8.652v35.955h.003ZM111.553 44.62a.336.336 0 0 1-.183-.616 14.502 14.502 0 0 1 1.327-.773l.105-.056a.335.335 0 0 1 .317.589l-.114.06c-.239.125-.685.36-1.274.743a.297.297 0 0 1-.178.053Z" fill="#3A3A3A"/><path d="M179.734 184.782a.334.334 0 0 1-.168-.625l17.627-10.177c5.362-3.094 8.313-9.658 8.313-18.481 0-19.972-14.629-43.576-31.944-51.545a.34.34 0 0 1-.194-.27c-2.326-22.623-18.206-47.412-36.941-57.661-8.712-4.767-16.737-5.565-23.21-2.313a.335.335 0 0 1-.504-.116.333.333 0 0 1 .134-.44c.014-.01.031-.02.047-.028 6.682-3.37 14.932-2.572 23.856 2.31 8.808 4.818 17.437 13.187 24.3 23.563 7.159 10.824 11.758 23.042 12.965 34.426 8.487 3.959 16.543 11.683 22.705 21.769 6.009 9.836 9.455 20.881 9.455 30.305 0 9.073-3.071 15.842-8.647 19.061l-17.627 10.177a.336.336 0 0 1-.167.045Z" fill="#3A3A3A"/><path d="M95.415 53.938a.335.335 0 0 1-.168-.625l17.598-10.16a.335.335 0 0 1 .334.58l-17.595 10.16a.357.357 0 0 1-.17.045ZM67.916 81.085a.335.335 0 0 1-.167-.625l16.492-9.52a.335.335 0 0 1 .334.58l-16.491 9.52a.354.354 0 0 1-.168.044ZM127.518 126.156a.334.334 0 0 1-.334-.335v-16.645a.334.334 0 1 1 .669 0v16.645c0 .185-.15.335-.335.335ZM125.868 106.429a.357.357 0 0 1-.168-.044l-13.839-7.99a.337.337 0 0 1-.167-.274.33.33 0 0 1 .14-.288l6.919-4.927a.335.335 0 0 1 .466.078c.107.15.071.36-.078.467l-6.495 4.626 13.389 7.728a.333.333 0 0 1-.167.624Z" fill="#3A3A3A"/><path d="M94.404 108.618a.336.336 0 0 1-.167-.625l17.626-10.175a.335.335 0 0 1 .335.58l-17.627 10.175a.355.355 0 0 1-.167.045ZM109.892 117.559a.335.335 0 0 1-.167-.625l16.757-9.673a.335.335 0 1 1 .334.58l-16.757 9.673a.352.352 0 0 1-.167.045ZM109.892 154.281a.337.337 0 0 1-.29-.165.332.332 0 0 1 .12-.457l16.277-9.495a.334.334 0 1 1 .337.578l-16.277 9.494a.326.326 0 0 1-.167.045ZM126.169 126.955a.331.331 0 0 1-.287-.165.332.332 0 0 1 .118-.457l8.118-4.813a.333.333 0 0 1 .458.118.336.336 0 0 1-.119.459l-8.118 4.814a.359.359 0 0 1-.17.044Z" fill="#3A3A3A"/><path d="M93.428 168.173v13.788l-8.982 5.126v-22.63l8.982-5.126v8.842Zm-3.323 3.352c.28-.479.453-1.024.453-1.512 0-.977-.688-1.372-1.53-.883-.846.486-1.533 1.672-1.533 2.649 0 .977.687 1.372 1.532.884.422-.241.801-.661 1.078-1.138Z" fill="#D7DCE0"/><path d="m93.428 159.332-8.982 5.125L73.261 158l8.981-5.125 11.186 6.457Z" fill="#fff"/><path d="M90.557 170.013c0 .489-.171 1.033-.452 1.512-.277.478-.656.897-1.078 1.138-.845.488-1.532.094-1.532-.883s.687-2.164 1.532-2.65c.844-.488 1.53-.094 1.53.883Z" fill="#3A3A3A"/><path d="M84.446 164.457v22.63l-11.185-6.457V158l11.185 6.457Z" fill="#fff"/><path d="M93.427 182.297a.335.335 0 0 1-.335-.335v-22.436l-11.018-6.361a.334.334 0 1 1 .335-.58l11.185 6.457c.103.061.168.17.168.29v22.63c0 .185-.15.335-.335.335ZM84.446 187.422a.342.342 0 0 1-.168-.045l-11.185-6.457a.335.335 0 0 1-.167-.29v-22.629a.335.335 0 0 1 .502-.29l11.185 6.457c.103.06.167.169.167.29v22.63a.335.335 0 0 1-.334.334Zm-10.851-6.986 10.516 6.072V164.65l-10.516-6.072v21.858Z" fill="#3A3A3A"/><path d="M73.26 158.336a.331.331 0 0 1-.29-.17.333.333 0 0 1 .126-.455l8.981-5.125a.335.335 0 1 1 .333.582l-8.982 5.125a.353.353 0 0 1-.167.043ZM84.445 164.793a.335.335 0 0 1-.165-.627l8.982-5.125a.335.335 0 1 1 .332.582l-8.981 5.125a.333.333 0 0 1-.168.045ZM84.445 187.423a.335.335 0 0 1-.165-.626l8.982-5.126a.336.336 0 0 1 .332.582l-8.981 5.126a.354.354 0 0 1-.168.044ZM88.096 178.443a.334.334 0 0 1-.334-.334v-2.683a.334.334 0 1 1 .669 0v2.683c0 .185-.15.334-.335.334ZM89.645 177.669a.334.334 0 0 1-.334-.334v-2.684a.334.334 0 1 1 .67 0v2.684c-.001.185-.15.334-.336.334ZM88.342 173.21c-.203 0-.394-.049-.566-.147-.397-.23-.616-.685-.616-1.28 0-1.1.747-2.391 1.7-2.94.515-.299 1.017-.337 1.414-.107.397.23.615.685.615 1.28 0 .536-.176 1.133-.5 1.682-.318.551-.746.999-1.2 1.258-.29.167-.58.254-.847.254Zm1.37-3.954c-.15 0-.328.055-.516.165-.74.426-1.364 1.505-1.364 2.36 0 .343.102.597.28.7.179.102.453.065.75-.107.355-.203.694-.562.955-1.015.258-.442.408-.932.408-1.345 0-.343-.103-.598-.281-.7a.464.464 0 0 0-.232-.058Z" fill="#3A3A3A"/><path d="M45.524 131.74v28.048l-11.154 6.441V138.18l11.154-6.44Z" fill="#D7DCE0"/><path d="m45.524 131.74-11.154 6.439-11.156-6.439 11.156-6.441 11.154 6.441Z" fill="#3A3A3A"/><path d="M34.37 138.18v28.049l-11.156-6.441V131.74l11.156 6.44Z" fill="#fff"/><path d="M34.37 166.564a.34.34 0 0 1-.168-.044.337.337 0 0 1-.167-.29v-28.05c0-.12.065-.23.167-.29l11.154-6.439a.333.333 0 0 1 .502.29v28.047c0 .121-.064.23-.167.29l-11.154 6.442a.34.34 0 0 1-.167.044Zm.334-28.19v27.278l10.485-6.055v-27.276l-10.485 6.053Z" fill="#3A3A3A"/><path d="M34.37 166.564a.332.332 0 0 1-.167-.044l-11.157-6.442a.335.335 0 0 1-.167-.29v-28.047a.335.335 0 0 1 .502-.29l11.156 6.439a.335.335 0 0 1-.334.58l-10.655-6.149v27.276l10.99 6.345c.16.092.213.297.122.457a.337.337 0 0 1-.29.165Z" fill="#3A3A3A"/><path d="M45.524 132.075a.323.323 0 0 1-.168-.045l-10.986-6.345-10.99 6.345a.335.335 0 1 1-.334-.58l11.156-6.441a.333.333 0 0 1 .335 0l11.154 6.441a.336.336 0 0 1-.167.625Z" fill="#3A3A3A"/><path d="M49.576 121.442c.075.045.125.145.111.223l-1.896 10.155c-.015.078-.089.107-.165.063l-14.8-8.545c-.076-.045-.125-.143-.112-.223l1.896-10.153c.016-.08.09-.109.165-.065l14.8 8.545Z" fill="#02B421"/><path d="M47.682 131.916c.076.042.067.12-.022.169l-9.618 5.554a.34.34 0 0 1-.299.014l-14.798-8.547c-.078-.043-.067-.121.02-.17l9.62-5.554a.36.36 0 0 1 .27-.026l14.827 8.56Zm-8.449 2.46 4.124-2.382-10.614-6.129-4.124 2.382 10.614 6.129Z" fill="#fff"/><path d="m43.357 131.994-4.123 2.382-10.615-6.129 4.124-2.382 10.614 6.129Z" fill="#fff"/><path d="M37.875 138.016a.603.603 0 0 1-.29-.069l-14.805-8.551a.408.408 0 0 1-.218-.359.446.446 0 0 1 .243-.391l9.617-5.551a.697.697 0 0 1 .547-.054.335.335 0 0 1-.22.634l-9.269 5.355 14.4 8.317 9.414-5.433a.335.335 0 0 1 .506-.315l.056.034a.411.411 0 0 1 .214.361.45.45 0 0 1-.247.388l-9.61 5.549a.71.71 0 0 1-.338.085Zm9.636-5.812.008.006-.008-.006Zm-24.405-3.393.009.005c-.005 0-.007-.003-.01-.005Z" fill="#3A3A3A"/><path d="M39.234 134.711a.342.342 0 0 1-.167-.045l-10.615-6.129a.337.337 0 0 1 0-.58l4.124-2.382a.333.333 0 0 1 .335 0l10.614 6.129a.337.337 0 0 1 0 .58l-4.124 2.382a.322.322 0 0 1-.167.045Zm-9.945-6.464 9.945 5.743 3.455-1.996-9.945-5.743-3.455 1.996ZM35.647 134.766a.332.332 0 0 1-.167-.044l-7.14-4.122a.335.335 0 1 1 .335-.58l7.139 4.122a.335.335 0 0 1-.167.624ZM47.698 132.239a.468.468 0 0 1-.238-.067l-14.801-8.545a.566.566 0 0 1-.274-.566l1.895-10.16a.434.434 0 0 1 .665-.292l14.798 8.543c.197.116.31.354.275.568l-1.896 10.16a.436.436 0 0 1-.424.359Zm-14.638-9.151 14.464 8.35 1.82-9.742-14.462-8.351-1.822 9.743Z" fill="#3A3A3A"/><path d="M17.436 138.972c.03.056.063.112.094.168.094 1.826.156 3.512.187 5.234-.426.694-1.18 1.352-2.516 1.66-.649.151-1.324.216-1.927.102-1.98-.377-3.521-1.253-5.15-2.172-1.15-.649-1.927-1.423-2.408-2.648a5.112 5.112 0 0 1-.085-.227c.062-3.736-.065-6.236-.192-8.05-.082-1.197-.165-2.096-.19-2.855l-1.072.685s-2.57-.702-2.304-3.633a93.744 93.744 0 0 1 2.054-1.459 4.891 4.891 0 0 1 4.844-.413l1.1.513c0 .174-.002.351-.007.525-.009.042-.011.087-.009.133.025.518.747 1.082 1.593 1.263.742.156 1.333-.036 1.454-.428a.444.444 0 0 0 .018-.123c1.57.636 2.594 1.278 3.55 2.134 1.187 1.058 2.108 2.38 2.75 3.835l1.609 3.642c0-.002-1.01 2.964-3.393 2.114Z" fill="#fff"/><path d="M20.579 173.177c.747.681-.97 1.615-.97 1.615s-.993.776-2.724 1.653c-.943.477-1.708.344-2.21.123a1.075 1.075 0 0 1-.642-1.008l.017-.612c.154.163.35.288.583.353 1.492.433 3.09-.109 3.479-1.863a31.75 31.75 0 0 0-.022-.495c1.302-.187 1.933-.27 2.489.234Z" fill="#3A3A3A"/><path d="M11.459 152.245c-1.408 4.652-2.182 9.231-2.277 15.149-.014.919-.014 1.871.004 2.859a.967.967 0 0 1-.118.493c-.504.91-2.471.937-3.185.223a.84.84 0 0 1-.261-.605s-.07-11.691.455-14.553c.524-2.862-.645-8.752-.524-11.942.033-.939.058-1.813.073-2.629l.087.073c.48 1.225 1.258 2.001 2.41 2.648 1.627.919 3.168 1.795 5.149 2.172.602.114 1.278.049 1.927-.102 1.336-.308 2.09-.966 2.516-1.66.044 2.402.033 4.869-.025 7.871-.14 7.432-.064 11.092.397 20.701.01.163.016.328.023.495-.388 1.751-1.988 2.295-3.48 1.862a1.268 1.268 0 0 1-.582-.352 1.144 1.144 0 0 1-.312-.689c-.225-2.572-.696-11.456-.772-14.645-.04-1.9-.756-4.688-1.505-7.369Z" fill="#3A3A3A"/><path d="M17.436 138.972c2.385.849 3.393-2.117 3.393-2.117l4.06-2.581a4.227 4.227 0 0 0 1.076-.983l.261-.337a3.81 3.81 0 0 1 1.834-1.292l.747-.245a.762.762 0 0 1 .682.109.76.76 0 0 1 .107 1.118l-.379.41.027.25a.716.716 0 0 1-.426.734l-.55.239a5.705 5.705 0 0 0-2.256 1.75c-1.327 1.729-3.203 3.522-5.197 4.997a1.7 1.7 0 0 1-2.442-.471 33.59 33.59 0 0 1-.85-1.419c-.024-.051-.058-.107-.087-.162Z" fill="#D7DCE0"/><path d="m16.125 118.31-1.92 4.374s-.413-.857-1.137-.449c-.725.408-.132 2.03-.817 2.445-.51.312-1.345.787-2.397.158-.045-1.458-.154-2.846-.094-4.048.067-1.305 1.307-2.271 2.67-2.094 1.347.174 2.933.212 3.695-.386Z" fill="#3A3A3A"/><path d="M9.864 126.402c.005-.176.007-.35.007-.524 0-.35-.007-.696-.016-1.04 1.055.629 1.887.154 2.398-.158.685-.415.092-2.034.816-2.444.725-.411 1.138.448 1.138.448l1.164-2.648c.045 1.256.02 2.322-.14 3.513-.116.863-.727 1.595-1.58 1.916a.086.086 0 0 0-.024.009c-.629.234-.723.765-.723 1.405v.493c-.116.395-.711.587-1.454.428-.845-.18-1.566-.745-1.592-1.262a.453.453 0 0 1 .006-.136Z" fill="#D7DCE0"/><path d="M12.92 127.19a.238.238 0 0 1 0 .056c-.004-.004-.01-.004-.018-.009v-.168c.01.04.014.081.018.121Z" fill="#fff"/><path d="M12.9 127.238c.007.004.014.004.018.008a.445.445 0 0 1-.018.124v-.132Z" fill="#fff"/><path d="M9.855 167.719c.616.328-.035 1.88-.666 3.089l-.119-.062a.967.967 0 0 0 .119-.493 87.624 87.624 0 0 1-.005-2.86c.22.098.453.21.671.326ZM9.068 170.747l.119.062c-.157.299-.313.576-.447.81a1.525 1.525 0 0 1-1.336.756 3.798 3.798 0 0 1-.718-.078c-.508-.112-.854-.562-.82-1.057l.017-.268c.714.714 2.681.685 3.185-.225Z" fill="#3A3A3A"/><path d="M5.631 141.088c.027.078.056.155.085.229a5.738 5.738 0 0 0-.087-.074c-.002-.052 0-.104.002-.155Z" fill="#fff"/><path d="M5.631 141.089a3.401 3.401 0 0 0-.004.154 5.407 5.407 0 0 1-.772-.81 1.05 1.05 0 0 1-.156-.995l.038-.107a2.477 2.477 0 0 0-.257-2.188c-1.329-2.041-2.482-3.798-3.762-5.971a2.77 2.77 0 0 1 .734-3.624c.14-.105.283-.208.421-.312-.265 2.93 2.304 3.633 2.304 3.633l1.262 2.17c.125 1.814.286 4.316.192 8.05Z" fill="#D7DCE0"/><path d="M7.41 171.807c-.633 0-1.337-.172-1.763-.598a1.18 1.18 0 0 1-.36-.841c-.002-.477-.062-11.754.46-14.614.294-1.606.036-4.238-.214-6.785-.19-1.922-.366-3.738-.315-5.112.02-.551.078-2.779.078-2.779.092-3.544-.044-5.904-.19-8.018-.026-.373-.05-.716-.075-1.037-.051-.699-.096-1.303-.114-1.829-.015-.484-.009-.875.023-1.229a.336.336 0 0 1 .363-.304.333.333 0 0 1 .303.364 9.29 9.29 0 0 0-.02 1.146c.018.513.063 1.111.114 1.803.025.321.05.666.076 1.039.11 1.575.29 4.209.192 8.081 0 0-.058 2.232-.078 2.786-.05 1.327.125 3.122.312 5.02.254 2.592.517 5.273.205 6.97-.51 2.797-.45 14.375-.448 14.491 0 .139.053.259.163.371.31.31 1.006.468 1.655.376.488-.069.852-.26.999-.526a.633.633 0 0 0 .076-.326 88.283 88.283 0 0 1-.005-2.87c.087-5.587.794-10.289 2.293-15.241a.336.336 0 0 1 .417-.223.335.335 0 0 1 .223.417c-1.479 4.89-2.177 9.533-2.264 15.056-.013.899-.013 1.858.005 2.848.004.239-.05.462-.16.663-.255.457-.786.765-1.493.865a2.811 2.811 0 0 1-.457.036Z" fill="#3A3A3A"/><path d="M15.6 175.781c-.346 0-.706-.052-1.06-.154a1.601 1.601 0 0 1-.732-.446 1.507 1.507 0 0 1-.401-.888c-.23-2.63-.7-11.538-.772-14.665-.042-1.849-.743-4.597-1.494-7.289l-.39-1.385c-.418-1.474-.813-2.868-1.069-3.995a.333.333 0 0 1 .252-.399.33.33 0 0 1 .4.252c.251 1.111.644 2.496 1.059 3.961.13.455.26.921.39 1.388.763 2.734 1.476 5.531 1.519 7.454.071 3.118.54 12.002.77 14.622.015.181.09.35.222.489a.939.939 0 0 0 .429.258c.76.221 1.52.154 2.087-.18.484-.288.819-.767.966-1.39l-.02-.448c-.466-9.718-.535-13.398-.397-20.723.06-3.12.067-5.545.024-7.858a155.655 155.655 0 0 0-.187-5.223.335.335 0 1 1 .67-.036c.095 1.874.155 3.54.187 5.246a205.72 205.72 0 0 1-.025 7.882c-.138 7.307-.07 10.978.395 20.678.009.163.015.331.022.498a.566.566 0 0 1-.007.087c-.182.827-.628 1.472-1.287 1.862a3.05 3.05 0 0 1-1.552.402Z" fill="#3A3A3A"/><path d="M17.436 139.307a.338.338 0 0 1-.292-.171c-.577-1.033-1.086-2.05-1.672-3.23l-.438-.874a.335.335 0 0 1 .598-.299l.437.876c.585 1.171 1.089 2.184 1.657 3.201a.332.332 0 0 1-.29.497Z" fill="#3A3A3A"/><path d="M19.83 141.694a2.049 2.049 0 0 1-1.733-.954c-.315-.5-.596-.968-.86-1.435l-.097-.174a.335.335 0 0 1 .59-.314l.09.161c.256.457.533.916.84 1.405.204.323.536.548.91.618.375.069.748-.016 1.051-.239 2.01-1.488 3.832-3.239 5.13-4.932a6.052 6.052 0 0 1 2.386-1.853l.551-.239a.376.376 0 0 0 .226-.39l-.027-.25a.327.327 0 0 1 .087-.263l.379-.41a.423.423 0 0 0-.062-.623.422.422 0 0 0-.38-.06l-.747.245a3.47 3.47 0 0 0-1.673 1.18l-.26.337a4.59 4.59 0 0 1-1.163 1.06l-4.059 2.58a.326.326 0 0 1-.276.038.34.34 0 0 1-.21-.185l-1.608-3.642c-.647-1.466-1.543-2.717-2.668-3.721-.981-.876-1.982-1.476-3.454-2.072-.01-.002-.016-.006-.025-.011l-.022-.011a.335.335 0 0 1-.145-.451.333.333 0 0 1 .45-.142c1.526.617 2.614 1.273 3.64 2.19 1.194 1.066 2.146 2.393 2.833 3.948l1.45 3.287 3.731-2.371c.381-.243.716-.548.993-.905l.26-.337a4.148 4.148 0 0 1 1.994-1.405l.747-.245c.335-.11.703-.049.986.158a1.09 1.09 0 0 1 .156 1.613l-.276.298.011.099c.051.459-.2.892-.624 1.077l-.551.239a5.384 5.384 0 0 0-2.121 1.646c-1.336 1.739-3.205 3.537-5.264 5.063-.348.256-.76.392-1.187.392ZM13.928 146.529c-.252 0-.49-.02-.715-.062-2.021-.384-3.573-1.261-5.217-2.191l-.036-.02c-1.285-.725-2.074-1.592-2.556-2.817-.029-.076-.06-.151-.087-.232a.337.337 0 0 1 .203-.453.335.335 0 0 1 .417.201.115.115 0 0 1 .011.029c.025.072.052.141.078.21.429 1.086 1.104 1.827 2.262 2.48l.036.02c1.594.901 3.1 1.751 5.014 2.115.5.093 1.101.06 1.788-.101 1.069-.245 1.845-.754 2.306-1.508a.332.332 0 0 1 .46-.109.332.332 0 0 1 .11.46c-.56.912-1.477 1.521-2.726 1.809a5.942 5.942 0 0 1-1.348.169Z" fill="#3A3A3A"/><path d="M12.9 127.705a.334.334 0 0 1-.319-.435.085.085 0 0 0 .004-.023c0-.011 0-.022.003-.033-.002-.014-.005-.036-.01-.058a.336.336 0 0 1 .65-.167c.015.058.022.113.029.171a.827.827 0 0 1-.031.313.35.35 0 0 1-.326.232Z" fill="#3A3A3A"/><path d="M11.943 128.187c-.178 0-.368-.02-.564-.063-1.026-.218-1.822-.894-1.858-1.572a.79.79 0 0 1 .016-.221.336.336 0 0 1 .655.138c0 .005-.002.02-.002.049.016.319.587.792 1.327.951.618.131 1.015-.029 1.064-.197a.334.334 0 1 1 .643.188c-.136.461-.632.727-1.28.727Z" fill="#3A3A3A"/><path d="M9.864 126.739h-.002a.329.329 0 0 1-.332-.326s.006-.383.006-.535c0-.33-.004-.673-.015-1.024v-.011c-.014-.43-.031-.854-.051-1.269-.045-.997-.087-1.94-.043-2.801a2.49 2.49 0 0 1 .912-1.798 2.782 2.782 0 0 1 2.135-.611c1.684.218 2.906.107 3.446-.317a.334.334 0 0 1 .513.397l-1.92 4.374a.334.334 0 0 1-.61.011c-.037-.078-.182-.299-.365-.357-.058-.017-.152-.031-.306.054-.207.118-.232.551-.254.968-.03.551-.065 1.173-.553 1.47-.413.252-1.211.742-2.226.401.002.174 0 .962-.002 1.035a.34.34 0 0 1-.333.339Zm.317-2.101c.763.377 1.354.089 1.896-.241.187-.114.21-.531.232-.934.031-.571.067-1.218.593-1.515.277-.156.567-.194.837-.109.149.047.274.125.379.212l1.347-3.067c-.747.201-1.778.216-3.08.047a2.103 2.103 0 0 0-1.62.462 1.826 1.826 0 0 0-.673 1.318c-.043.829-.002 1.755.042 2.736.018.355.034.721.047 1.091Z" fill="#3A3A3A"/><path d="M12.9 127.705a.334.334 0 0 1-.335-.334v-.493c0-.442 0-1.358.928-1.713l.052-.02c.736-.281 1.25-.908 1.351-1.642.147-1.082.188-2.083.138-3.455a.333.333 0 0 1 .324-.345.33.33 0 0 1 .346.323c.049 1.394.006 2.462-.145 3.569-.134.981-.821 1.817-1.794 2.183-.004.002-.009.005-.015.005-.002.002-.007.002-.01.004-.38.143-.503.408-.503 1.091v.493a.338.338 0 0 1-.337.334ZM15.623 177.106c-.437 0-.803-.105-1.084-.229a1.4 1.4 0 0 1-.841-1.325l.018-.611a.332.332 0 0 1 .343-.326c.185.004.33.158.326.343l-.018.612a.733.733 0 0 0 .444.693c.602.266 1.249.225 1.922-.116 1.678-.85 2.66-1.61 2.67-1.619a.177.177 0 0 1 .047-.029c.377-.205.95-.64.984-.919.002-.027.009-.074-.078-.154-.426-.388-.902-.341-2.217-.149a.336.336 0 0 1-.096-.663c1.298-.189 2.08-.303 2.763.317.283.256.315.537.292.727-.084.694-1.05 1.274-1.302 1.414-.16.123-1.136.85-2.757 1.671a3.067 3.067 0 0 1-1.416.363ZM7.42 172.712h-.018a3.908 3.908 0 0 1-.787-.087c-.676-.147-1.131-.74-1.084-1.409l.018-.268a.334.334 0 0 1 .666.043l-.017.267a.685.685 0 0 0 .557.709c.21.045.424.07.651.072h.012c.426 0 .82-.225 1.03-.589.165-.285.308-.546.44-.798 1.023-1.959.923-2.577.807-2.639a9.852 9.852 0 0 0-.652-.317.333.333 0 0 1-.169-.441c.076-.17.272-.244.442-.17.252.112.486.225.693.337.705.375.535 1.501-.528 3.54-.136.258-.284.528-.453.823a1.843 1.843 0 0 1-1.608.927ZM5.714 141.652a.332.332 0 0 1-.214-.076l-.09-.075a5.642 5.642 0 0 1-.82-.861 1.375 1.375 0 0 1-.208-1.312l.038-.107a2.156 2.156 0 0 0-.22-1.894l-.28-.43c-1.233-1.894-2.297-3.529-3.49-5.554a3.096 3.096 0 0 1 .823-4.061l.424-.313a80.836 80.836 0 0 1 2.063-1.465 5.241 5.241 0 0 1 5.174-.442l1.1.513a.334.334 0 0 1-.283.605l-1.1-.513a4.57 4.57 0 0 0-4.512.386 76.647 76.647 0 0 0-2.045 1.454l-.422.31a2.428 2.428 0 0 0-.647 3.185c1.187 2.012 2.246 3.642 3.475 5.529l.279.431c.477.731.587 1.661.29 2.482l-.038.105a.717.717 0 0 0 .105.678c.225.292.462.54.723.761l.084.071a.334.334 0 0 1 .045.471.316.316 0 0 1-.254.122Z" fill="#3A3A3A"/><path d="M5.44 133.375a.335.335 0 0 1-.29-.167l-1.263-2.17a.333.333 0 0 1 .11-.451l1.072-.685a.336.336 0 0 1 .462.103c.1.156.053.363-.103.462l-.803.513 1.102 1.891a.334.334 0 0 1-.12.457.298.298 0 0 1-.168.047Z" fill="#3A3A3A"/><path d="M4.176 131.205a.405.405 0 0 1-.089-.011c-.029-.009-2.835-.812-2.549-3.986a.335.335 0 0 1 .667.06c-.237 2.621 1.965 3.255 2.058 3.281a.334.334 0 0 1-.087.656ZM18.269 139.461c-.306 0-.622-.058-.946-.174a.335.335 0 0 1 .226-.631c.535.191 1.014.178 1.463-.038 1.014-.489 1.494-1.858 1.498-1.872.06-.174.25-.27.424-.207.174.06.268.25.21.424-.022.067-.571 1.646-1.84 2.257a2.32 2.32 0 0 1-1.035.241ZM146.709 178.332l6.372 12.747-6.372 3.68v-16.427Z" fill="#3A3A3A"/><path d="M146.709 178.332v16.427l-6.374-3.68 6.374-12.747Z" fill="#fff"/><path d="M146.709 195.096a.339.339 0 0 1-.167-.044l-6.374-3.68a.334.334 0 0 1-.132-.44l6.374-12.747a.334.334 0 0 1 .598 0l6.372 12.747a.336.336 0 0 1-.131.44l-6.372 3.68a.345.345 0 0 1-.168.044Zm-5.935-4.146 5.935 3.426 5.933-3.426-5.933-11.866-5.935 11.866Z" fill="#3A3A3A"/><path d="M146.71 195.096a.334.334 0 0 1-.335-.334v-16.427a.334.334 0 1 1 .669 0v16.427a.333.333 0 0 1-.334.334Z" fill="#3A3A3A"/><path d="M56.473 65.44v9.346l-8.092 4.673c0-5.164 3.62-11.436 8.092-14.019ZM56.473 49.09v9.343c-1.802 1.041-3.526 2.429-5.114 4.057-3.7 3.796-6.653 8.91-8.092 14.016-.618 2.188-.955 4.376-.955 6.457l-8.091 4.673c-.002-14.195 9.958-31.45 22.252-38.546Z" fill="#fff"/><path d="M56.473 32.736v9.343a43.266 43.266 0 0 0-5.53 3.819c-11.191 9.028-20.03 24.338-22.252 38.546a43.171 43.171 0 0 0-.542 6.695l-8.091 4.673c0-23.225 16.301-51.462 36.415-63.076Z" fill="#fff"/><path d="m48.923 28.378 7.55 4.36C36.36 44.352 20.058 72.59 20.058 95.815l-7.552-4.36c0-23.226 16.304-51.463 36.417-63.077Z" fill="#D7DCE0"/><path d="m50.944 45.898 5.529 3.19c-12.294 7.096-22.255 24.35-22.255 38.545l-5.527-3.19c2.222-14.205 11.06-29.514 22.253-38.545ZM51.36 62.491l5.114 2.95c-4.472 2.584-8.092 8.856-8.092 14.019l-5.114-2.953c1.436-5.106 4.391-10.22 8.091-14.016Z" fill="#3A3A3A"/><path d="M48.38 79.792a.336.336 0 0 1-.335-.335c0-5.26 3.706-11.678 8.26-14.308a.332.332 0 0 1 .334 0c.103.06.168.17.168.29v9.345c0 .12-.065.23-.168.29l-8.091 4.673a.32.32 0 0 1-.168.045Zm7.758-13.755c-3.97 2.58-7.158 8.1-7.407 12.831l7.407-4.275v-8.556ZM34.218 87.968a.336.336 0 0 1-.334-.335c0-14.274 10.059-31.696 22.422-38.836a.333.333 0 0 1 .334 0c.103.06.167.17.167.29v9.343c0 .12-.064.23-.167.29-1.733 1-3.43 2.347-5.043 4.002-3.664 3.756-6.584 8.812-8.009 13.873-.624 2.22-.943 4.36-.943 6.365 0 .121-.065.23-.168.29l-8.091 4.673a.341.341 0 0 1-.168.045Zm21.92-38.294c-11.78 7.106-21.315 23.622-21.58 37.377l7.418-4.282c.02-2.01.345-4.147.968-6.355 1.456-5.163 4.436-10.324 8.174-14.159 1.603-1.646 3.292-2.995 5.02-4.014v-8.567Z" fill="#3A3A3A"/><path d="M20.057 96.145a.336.336 0 0 1-.335-.335c0-23.292 16.412-51.719 36.583-63.364a.332.332 0 0 1 .335 0c.102.06.167.17.167.29v9.343c0 .12-.065.23-.167.29a43.353 43.353 0 0 0-5.487 3.788c-11.04 8.904-19.935 24.311-22.132 38.336a43.146 43.146 0 0 0-.537 6.645c0 .12-.065.23-.168.29L20.225 96.1a.341.341 0 0 1-.168.045Zm36.08-62.827c-19.59 11.619-35.475 39.135-35.743 61.91l7.42-4.284a43.92 43.92 0 0 1 .547-6.553c1.097-7.013 3.796-14.389 7.804-21.33 4.008-6.946 9.046-12.97 14.569-17.424a43.974 43.974 0 0 1 5.404-3.75v-8.569Z" fill="#3A3A3A"/><path d="M20.058 96.145a.33.33 0 0 1-.168-.044l-7.552-4.36a.336.336 0 0 1-.167-.29c0-23.293 16.411-51.717 36.585-63.365a.332.332 0 0 1 .334 0l7.55 4.36a.335.335 0 0 1-.335.58l-7.382-4.262C29.068 40.334 12.929 68.283 12.84 91.261l7.385 4.262c.16.092.214.297.122.457a.337.337 0 0 1-.29.165ZM34.218 87.969a.33.33 0 0 1-.168-.045l-5.526-3.19a.335.335 0 0 1 .334-.58l5.527 3.19a.335.335 0 0 1-.167.625ZM56.473 65.773a.355.355 0 0 1-.167-.044l-5.114-2.951a.335.335 0 0 1 .334-.58l5.114 2.95a.335.335 0 0 1-.167.625ZM48.381 79.792a.33.33 0 0 1-.167-.045L43.1 76.794a.335.335 0 0 1 .334-.58l5.115 2.953a.335.335 0 0 1-.168.625ZM56.473 49.422a.33.33 0 0 1-.167-.044l-5.53-3.19a.335.335 0 0 1 .335-.58l5.53 3.19a.335.335 0 0 1-.168.624ZM68.898 156.087a.334.334 0 0 1-.328-.399l9.2-46.493a.336.336 0 0 1 .393-.264c.18.036.299.212.263.393l-9.2 46.493a.333.333 0 0 1-.328.27ZM59.98 150.94a.335.335 0 0 1-.328-.404l9.705-46.31a.336.336 0 0 1 .656.138l-9.705 46.31a.334.334 0 0 1-.328.266Z" fill="#3A3A3A"/><path d="M76.323 118.567a.319.319 0 0 1-.165-.044l-8.536-4.881a.335.335 0 0 1 .332-.582l8.536 4.88a.336.336 0 0 1-.167.627ZM74.858 125.968a.32.32 0 0 1-.166-.045l-8.611-4.925a.335.335 0 1 1 .332-.582l8.612 4.925a.336.336 0 0 1-.168.627ZM73.392 133.368a.318.318 0 0 1-.165-.044l-8.69-4.97a.335.335 0 0 1 .332-.582l8.69 4.97a.335.335 0 0 1-.167.626ZM71.926 140.771a.32.32 0 0 1-.165-.045l-8.765-5.012a.335.335 0 1 1 .332-.582l8.766 5.012a.335.335 0 0 1-.168.627ZM70.463 148.172a.31.31 0 0 1-.165-.045l-8.843-5.056a.335.335 0 0 1 .332-.582l8.844 5.056a.336.336 0 0 1-.168.627Z" fill="#3A3A3A"/><path d="M226.579 74.403v2.168l-.821 8.598v-2.168l.821-8.598ZM214.42 78.625l1.878-1.086-4.612-2.663 14.892-.473-.821 8.598-4.61-2.663-11.702 6.756-4.849-2.8 9.824-5.669Z" fill="#fff"/><path d="M225.758 83.001v2.168l-4.611-2.663v-2.168l4.611 2.663ZM221.147 80.338v2.168l-11.703 6.756v-2.168l11.703-6.756ZM216.298 77.54l-1.878 1.086-2.734-1.581v-2.168l4.612 2.663Z" fill="#3A3A3A"/><path d="M209.445 87.094v2.168l-4.849-2.799v-2.168l4.849 2.8Z" fill="#3A3A3A"/><path d="M209.444 87.428a.34.34 0 0 1-.167-.045l-4.849-2.799a.335.335 0 0 1 0-.58l11.199-6.466-4.111-2.373a.333.333 0 0 1 .156-.622l14.892-.473c.096 0 .19.036.255.105a.34.34 0 0 1 .089.26l-.819 8.599a.331.331 0 0 1-.18.265.341.341 0 0 1-.321-.006l-4.446-2.568-11.533 6.66a.325.325 0 0 1-.165.043Zm-4.18-3.132 4.18 2.414 11.533-6.66a.333.333 0 0 1 .335 0l4.162 2.402.734-7.702-13.34.424 3.595 2.076a.335.335 0 0 1 0 .58l-11.199 6.466Z" fill="#3A3A3A"/><path d="M209.444 89.596a.34.34 0 0 1-.167-.045l-4.849-2.8a.335.335 0 0 1-.167-.29v-2.167a.334.334 0 1 1 .669 0v1.974l4.514 2.605 11.533-6.66a.333.333 0 0 1 .335 0l4.162 2.402.769-8.063V74.4a.335.335 0 0 1 .669 0v2.168c0 .01 0 .022-.002.03l-.818 8.6a.332.332 0 0 1-.181.265.341.341 0 0 1-.321-.007l-4.445-2.567-11.534 6.66a.32.32 0 0 1-.167.046Z" fill="#3A3A3A"/><path d="M209.444 89.597a.335.335 0 0 1-.335-.335v-2.168a.335.335 0 1 1 .669 0v2.168a.334.334 0 0 1-.334.335ZM221.147 82.84a.335.335 0 0 1-.335-.335v-2.168a.335.335 0 0 1 .67 0v2.168a.336.336 0 0 1-.335.335ZM214.421 78.958a.334.334 0 0 1-.168-.044l-2.734-1.58a.335.335 0 0 1-.167-.29v-2.168a.334.334 0 1 1 .669 0v1.974l2.567 1.484a.335.335 0 0 1-.167.624ZM225.757 85.504a.334.334 0 0 1-.334-.335v-2.168a.334.334 0 1 1 .669 0v2.168a.334.334 0 0 1-.335.335Z" fill="#3A3A3A"/><defs><clipPath id="clip0_3465_2210"><path fill="#fff" transform="translate(119)" d="M0 0h54.153v50.285H0z"/></clipPath></defs></svg>