<svg width="9.375em" height="2.438em" viewBox="0 0 520 66" fill="none" xmlns="http://www.w3.org/2000/svg"><path fill-rule="evenodd" clip-rule="evenodd" d="M43.32 9.2c-2.03-5.63-7.8-9.14-13.9-8.15-4.62.75-8.36 4.16-9.95 8.56L.12 63.13c-.33.92.35 1.9 1.33 1.9h10.47c.6 0 1.13-.37 1.33-.93l17.5-48.41c.24-.67 1.19-.67 1.43 0L49.64 64.1c.2.56.73.94 1.33.94h10.51c.98 0 1.66-.97 1.33-1.9L43.32 9.2Zm436.15-6.75h5.27v43.09l26.37-27h6.17l-20.11 20.29 22.8 26.19h-6.26l-19.85-22.8-9.12 9.3v13.5h-5.27V2.44v.01ZM450.3 18.54h5.27v10.1h.18c1.16-4.2 5.54-10.64 15.11-10.64 1.07 0 2.41.09 3.4.45v4.47c-1.07-.18-2.15-.27-3.31-.27-10.1 0-15.38 7.15-15.38 16.63v25.75h-5.27V18.54Zm-11.91 23.24c0-13.59-8.22-19.67-16.9-19.67-8.68 0-16.9 6.08-16.9 19.67 0 13.59 8.22 19.67 16.9 19.67 8.68 0 16.9-6.08 16.9-19.67Zm-38.97 0c0-16.45 10.55-24.14 22.08-24.14 11.53 0 21.99 7.69 21.99 24.14s-10.55 24.14-21.99 24.14c-11.44 0-22.08-7.69-22.08-24.14Zm-67.53-23.24h5.27l11.35 40.85h.36l13.59-40.85h4.74l13.5 40.85h.36l11.44-40.85h5.19l-13.5 46.49h-6.08l-13.32-39.51-13.32 39.51h-5.99l-13.59-46.49ZM313.01 55.1V23.01h-7.42v-4.47h7.42V7.01h5.27v11.53h9.3v4.47h-9.3v30.93c0 5.45 1.97 7.24 7.06 7.24 1.07 0 1.88 0 2.95-.18v4.2c-1.34.27-2.86.45-4.56.45-6.17 0-10.73-2.5-10.73-10.55h.01ZM299 39.28c-.09-11.44-6.08-17.34-15.29-17.34-9.21 0-15.47 5.63-16 17.34H299Zm-36.47 2.68c0-16.81 9.48-24.32 21.28-24.32s20.29 7.78 20.29 22.62c0 1.52-.09 2.41-.27 3.22h-36.12c.36 12.07 6.17 18.15 16.63 18.15 5.63 0 11.71-1.79 14.21-9.03h4.92c-3.22 10.19-11.09 13.32-19.22 13.32-13.05 0-21.72-7.96-21.72-23.96ZM207.19 2.45h6.44l35.58 54.53h.18V2.45h5.45v62.58h-6.53l-35.4-54.44h-.27v54.44h-5.45V2.45Zm-53.56 50.76c-11.16 0-20.2-9.05-20.2-20.21s9.05-20.21 20.2-20.21c11.15 0 20.21 9.05 20.21 20.21s-9.05 20.21-20.21 20.21Zm0-53.15c-18.19 0-32.94 14.75-32.94 32.94 0 18.19 14.75 32.94 32.94 32.94 18.19 0 32.94-14.75 32.94-32.94 0-18.19-14.75-32.94-32.94-32.94Zm-36.37 21.63C116.95 10.01 107.02.88 95.34.88H68.1c-.72 0-1.31.59-1.31 1.31v61.53c0 .72.59 1.31 1.31 1.31h11.13c.72 0 1.31-.59 1.31-1.31V13.45c0-.36.29-.65.66-.65h12.08c5.05 0 9.46 3.81 9.79 8.85.36 5.52-4.02 10.11-9.46 10.11h-.99c-.45 0-.77.45-.62.88l11.37 31.52c.19.52.68.87 1.23.87h10.73c.91 0 1.54-.9 1.23-1.75l-8.46-23.45c5.69-3.97 9.36-10.62 9.16-18.13v-.01Z" fill="#00E42A"/></svg>