<svg width="93" height="30" fill="none" xmlns="http://www.w3.org/2000/svg"><path fill-rule="evenodd" clip-rule="evenodd" d="M11.826 8.497A3.441 3.441 0 0 0 8.028 6.27c-1.262.205-2.284 1.137-2.718 2.34L.023 23.231c-.09.252.096.52.363.52h2.861a.384.384 0 0 0 .363-.255l4.782-13.226a.208.208 0 0 1 .39 0l4.771 13.226c.055.153.2.257.363.257h2.872a.387.387 0 0 0 .363-.519L11.826 8.497Zm30.14 12.025a5.522 5.522 0 0 1 0-11.044 5.522 5.522 0 0 1 0 11.044Zm0-14.522a9 9 0 1 0 .001 18.002A9 9 0 0 0 41.966 6Zm-9.938 5.91c-.084-3.191-2.797-5.686-5.989-5.686h-7.442a.36.36 0 0 0-.358.358v16.811a.36.36 0 0 0 .358.358h3.04a.36.36 0 0 0 .359-.358V9.658c0-.098.079-.177.18-.177h3.3c1.38 0 2.585 1.04 2.675 2.418a2.59 2.59 0 0 1-2.584 2.762h-.27a.18.18 0 0 0-.17.24l3.106 8.613a.36.36 0 0 0 .337.237H31.5c.249 0 .42-.245.336-.478l-2.311-6.407a5.833 5.833 0 0 0 2.503-4.953v-.003Z" fill="#fff"/><path d="M58.125 6.5v15.75H66.3V24H56.125V6.5h2Zm9.788 5h1.85V24h-1.85V11.5Zm.95-2.5c-.383 0-.7-.125-.95-.375a1.257 1.257 0 0 1-.375-.925c0-.383.125-.7.375-.95s.567-.375.95-.375c.35 0 .65.125.9.375.267.25.4.567.4.95 0 .367-.133.675-.4.925-.25.25-.55.375-.9.375Zm4.546 2.5V8h1.875v3.5h3.325v1.75h-3.325v6.725c0 .767.158 1.325.475 1.675.333.35.75.558 1.25.625a6.42 6.42 0 0 0 1.6 0V23.9c-.65.15-1.292.192-1.925.125a4.062 4.062 0 0 1-1.675-.55c-.484-.317-.875-.758-1.175-1.325-.284-.567-.425-1.292-.425-2.175V13.25h-1.875V11.5h1.875Zm11.864 12.675c-1.167 0-2.209-.283-3.125-.85-.9-.567-1.609-1.342-2.125-2.325-.517-.983-.775-2.108-.775-3.375 0-1.217.258-2.3.775-3.25a5.69 5.69 0 0 1 2.125-2.225c.9-.55 1.925-.825 3.075-.825 1.133 0 2.141.25 3.025.75.9.5 1.6 1.192 2.1 2.075.5.883.733 1.892.7 3.025 0 .183-.009.375-.025.575-.017.2-.034.417-.05.65h-9.675c.033.783.225 1.475.575 2.075.35.6.808 1.075 1.375 1.425.583.333 1.241.5 1.975.5.966 0 1.783-.183 2.45-.55a3.22 3.22 0 0 0 1.475-1.575l1.625.65c-.5 1.05-1.225 1.858-2.175 2.425-.95.55-2.059.825-3.325.825Zm3.725-7.4c.016-.717-.142-1.35-.475-1.9a3.383 3.383 0 0 0-1.35-1.3c-.584-.317-1.259-.475-2.025-.475-.667 0-1.275.158-1.825.475a4.012 4.012 0 0 0-1.375 1.325 4.174 4.174 0 0 0-.625 1.875h7.675Z" fill="#fff"/></svg>