<svg width="50" height="45" fill="none" xmlns="http://www.w3.org/2000/svg"><path d="M23.793 6.772c1.484-2.87 2.002-5.55 1.156-5.988-.847-.438-2.736 1.533-4.22 4.403-1.485 2.87-2.003 5.55-1.156 5.988.846.438 2.735-1.533 4.22-4.403Z" fill="#255EBA"/><path d="M23.024 10.655c.823-.696-.2-3.26-2.286-5.727-2.085-2.468-4.442-3.905-5.265-3.21-.823.695.201 3.26 2.286 5.727 2.085 2.468 4.443 3.905 5.265 3.21Z" fill="#255EBA"/><path d="M21.73 10.108c.563-1.089-1.307-3.175-4.176-4.66-2.87-1.484-5.653-1.805-6.216-.716-.564 1.09 1.306 3.176 4.176 4.66 2.87 1.485 5.652 1.805 6.216.716Z" fill="#5579CE"/><path d="M22.23 12.55c1.184-.32 1.46-3.108.615-6.227-.844-3.119-2.488-5.388-3.671-5.067-1.184.32-1.459 3.108-.615 6.227.845 3.119 2.488 5.387 3.672 5.067Z" fill="#255EBA"/><path d="M22.531 12.55c1.184-.32 1.459-3.108.614-6.227-.844-3.119-2.488-5.388-3.671-5.067-1.184.32-1.459 3.108-.615 6.227.845 3.119 2.488 5.387 3.672 5.067Z" fill="#5579CE"/><path d="M25.12 8.722c2.539-1.999 4.04-4.326 3.353-5.198-.687-.872-3.301.041-5.84 2.04-2.538 2-4.039 4.327-3.352 5.199.687.872 3.301-.042 5.84-2.04Z" fill="#255EBA"/><path d="M25.318 8.922c2.538-2 4.039-4.327 3.352-5.199-.687-.872-3.301.041-5.84 2.04-2.537 2-4.038 4.327-3.351 5.199.686.872 3.3-.041 5.839-2.04Z" fill="#5579CE"/><path d="m38.12 9.342-2.238.408c-.334.055-.561.346-.515.625l1.154 6.467c.046.279.36.473.695.417l10.998-1.978c.335-.056.562-.347.516-.626l-1.154-6.467c-.047-.279-.36-.473-.695-.417l-8.76 1.57Z" fill="#fff"/><path d="M48.26 15.452 37.261 17.43c-.446.075-.86-.171-.928-.544l-1.154-6.468c-.068-.373.229-.76.675-.835l11-1.979c.446-.074.86.172.928.545l1.153 6.467c.068.373-.226.744-.675.836ZM35.91 9.918c-.223.037-.38.23-.337.418l1.154 6.467c.042.188.24.31.464.272l10.998-1.979c.224-.037.38-.23.338-.417l-1.154-6.467c-.043-.188-.24-.31-.464-.273L35.91 9.918Z" fill="#3E3A39"/><path d="m38.696 9.94-1.938.347c-.28.047-.495.266-.455.472l.845 4.752c.04.205.308.338.587.292l9.49-1.71c.279-.047.494-.266.454-.472l-.844-4.752c-.04-.205-.31-.338-.588-.292l-7.55 1.364Z" fill="#95D4EB"/><path d="m41.56 15.1-3.398-2.002-1.17 1.446.244 1.324 4.323-.767Z" fill="#75BFAB"/><path d="M38.628 11.867c.126.69.871 1.134 1.673.989.802-.146 1.343-.821 1.216-1.511-.126-.69-.871-1.134-1.673-.989-.802.146-1.343.821-1.216 1.511Z" fill="#F9F5B1"/><path d="m47.638 13.308-5.118-3.035-4.409 5.445 9.657-1.738-.13-.672Z" fill="#57B79C"/><path d="m47.382 11.944-1.41-.82-3.015 3.727 4.79-.857-.365-2.05Z" fill="#75BFAB"/><path d="m45.775 15.133-.485.087c-.018-.003-.018-.003-.032-.023l-.08-.411c.002-.018.002-.018.02-.015l.484-.087c.018.003.018.003.033.023l.08.411-.02.015Zm.934-.178-.485.086c-.018-.003-.018-.003-.033-.023l-.08-.411c.003-.018.003-.018.02-.015l.485-.087c.018.003.018.003.033.023l.08.412s-.003.017-.02.014Zm.93-.162-.484.087c-.018-.003-.018-.003-.033-.023l-.08-.411c.003-.018.003-.018.02-.015l.485-.087c.018.003.018.003.033.023l.08.411s-.003.018-.02.015Z" fill="#3E3A39"/><path d="M39.69 24.858c0 10.815-8.76 19.575-19.575 19.575S.045 35.658.54 24.858c.555-12.075 8.4-17.295 19.575-18.21 12.45.255 19.575 9.24 19.575 18.21Z" fill="#5579CE"/><path d="M26.73 32.974a7.56 7.56 0 1 0 0-15.12 7.56 7.56 0 0 0 0 15.12Z" fill="#fff"/><path d="M32.075 23.905a3.726 3.726 0 0 1-3.735 3.735 3.726 3.726 0 0 1-3.735-3.735c0-.45.09-.9.225-1.305.225.315.585.495.99.495a1.21 1.21 0 0 0 1.215-1.215c0-.495-.315-.9-.72-1.125a3.935 3.935 0 0 1 2.025-.585 3.726 3.726 0 0 1 3.735 3.735Z" fill="#000"/><path d="M14.175 33.514a7.56 7.56 0 1 0 0-15.12 7.56 7.56 0 0 0 0 15.12Z" fill="#fff"/><path d="M18.98 24.308a3.726 3.726 0 0 1-3.735 3.735 3.726 3.726 0 0 1-3.735-3.735c0-.45.09-.9.225-1.305.225.315.585.495.99.495a1.21 1.21 0 0 0 1.215-1.215c0-.495-.315-.9-.72-1.125a3.935 3.935 0 0 1 2.025-.585 3.726 3.726 0 0 1 3.735 3.735Z" fill="#000"/></svg>