<svg width="47" height="45" fill="none" xmlns="http://www.w3.org/2000/svg"><path d="M23.993 6.972c1.484-2.87 2.002-5.55 1.156-5.988-.846-.438-2.736 1.533-4.22 4.403-1.485 2.87-2.003 5.55-1.156 5.989.846.437 2.735-1.534 4.22-4.404Z" fill="#255EBA"/><path d="M23.224 10.855c.823-.695-.2-3.26-2.286-5.727-2.085-2.468-4.442-3.905-5.265-3.21-.823.695.201 3.26 2.286 5.727 2.085 2.468 4.443 3.905 5.265 3.21Z" fill="#255EBA"/><path d="M21.93 10.309c.563-1.09-1.307-3.176-4.176-4.66-2.87-1.485-5.653-1.805-6.216-.717-.564 1.09 1.306 3.176 4.175 4.66 2.87 1.485 5.653 1.806 6.217.717Z" fill="#5579CE"/><path d="M22.43 12.75c1.184-.32 1.46-3.108.615-6.227-.844-3.119-2.488-5.387-3.671-5.067-1.184.32-1.459 3.108-.615 6.227.845 3.119 2.488 5.387 3.672 5.067Z" fill="#255EBA"/><path d="M22.73 12.75c1.184-.32 1.46-3.108.615-6.227-.844-3.119-2.488-5.387-3.671-5.067-1.184.32-1.459 3.108-.615 6.227.845 3.119 2.488 5.387 3.672 5.067Z" fill="#5579CE"/><path d="M25.32 8.923c2.539-2 4.04-4.327 3.353-5.199-.687-.872-3.301.041-5.84 2.04-2.538 2-4.039 4.327-3.352 5.199.687.872 3.301-.042 5.84-2.04Z" fill="#255EBA"/><path d="M25.518 9.122c2.538-2 4.039-4.327 3.352-5.199-.687-.872-3.301.042-5.84 2.04-2.538 2-4.038 4.327-3.352 5.2.687.871 3.302-.042 5.84-2.041Z" fill="#5579CE"/><path d="M39.89 25.059c0 10.815-8.76 19.575-19.575 19.575S.245 35.859.74 25.059c.555-12.075 8.4-17.295 19.575-18.21 12.45.255 19.575 9.24 19.575 18.21Z" fill="#5579CE"/><path d="M11.758 27.554c-3.19-.23-5.503-1.66-5.678-1.743a.582.582 0 0 1-.182-.79.527.527 0 0 1 .767-.184c.066.029 5.924 3.631 11.597-.113.264-.16.6-.085.759.18a.604.604 0 0 1-.183.803c-2.484 1.607-4.977 2.006-7.08 1.847ZM28.22 27.554c-3.19-.23-5.502-1.66-5.677-1.743a.583.583 0 0 1-.182-.79.527.527 0 0 1 .767-.184c.066.029 5.924 3.631 11.597-.113.264-.16.6-.085.759.18a.604.604 0 0 1-.184.803c-2.483 1.607-4.976 2.006-7.08 1.847Z" fill="#000"/><path d="m36.7 13.125 2.885-1.55-.757 4.125 2.885-1.551M41.383 3l4.012 1.285L40.9 7.269l4.012 1.284" stroke="#A0A0A0" stroke-width=".6" stroke-linecap="round" stroke-linejoin="round"/></svg>