<svg width="41" height="45" fill="none" xmlns="http://www.w3.org/2000/svg"><path d="M24.168 7.336c1.485-2.87 2.002-5.551 1.156-5.989-.846-.438-2.736 1.534-4.22 4.403-1.485 2.87-2.002 5.551-1.156 5.989.846.438 2.736-1.534 4.22-4.403Z" fill="#255EBA"/><path d="M23.4 11.218c.822-.695-.201-3.26-2.287-5.727-2.085-2.468-4.442-3.905-5.265-3.21-.822.696.201 3.26 2.286 5.727 2.086 2.468 4.443 3.905 5.265 3.21Z" fill="#255EBA"/><path d="M22.105 10.672c.563-1.09-1.306-3.175-4.176-4.66-2.87-1.485-5.653-1.805-6.216-.716-.563 1.089 1.306 3.175 4.176 4.66 2.87 1.484 5.652 1.805 6.216.716Z" fill="#5579CE"/><path d="M22.606 13.113c1.184-.32 1.459-3.108.614-6.227-.844-3.119-2.487-5.387-3.671-5.067-1.184.32-1.459 3.109-.614 6.227.844 3.12 2.488 5.388 3.671 5.067Z" fill="#255EBA"/><path d="M22.906 13.113c1.184-.32 1.459-3.108.614-6.227-.844-3.119-2.488-5.387-3.671-5.067-1.184.32-1.459 3.109-.614 6.227.844 3.12 2.488 5.388 3.671 5.067Z" fill="#5579CE"/><path d="M25.496 9.285c2.538-2 4.039-4.327 3.352-5.199-.687-.872-3.301.042-5.84 2.04-2.537 2-4.038 4.327-3.351 5.2.686.871 3.3-.042 5.839-2.041Z" fill="#255EBA"/><path d="M25.693 9.484c2.538-1.999 4.04-4.326 3.352-5.198-.687-.873-3.3.041-5.839 2.04-2.538 1.999-4.039 4.326-3.352 5.198.687.873 3.301-.041 5.84-2.04Z" fill="#5579CE"/><path d="M40.065 25.423c0 10.815-8.76 19.575-19.575 19.575S.42 36.223.915 25.423c.555-12.075 8.4-17.295 19.575-18.21 12.45.255 19.575 9.24 19.575 18.21Z" fill="#5579CE"/><path d="M27.105 33.54a7.56 7.56 0 1 0 0-15.12 7.56 7.56 0 0 0 0 15.12Z" fill="#fff"/><path d="M31.65 26.07a3.726 3.726 0 0 1-3.735 3.735 3.726 3.726 0 0 1-3.735-3.735c0-.45.09-.9.225-1.305.225.315.585.495.99.495a1.21 1.21 0 0 0 1.215-1.215c0-.495-.315-.9-.72-1.125a3.935 3.935 0 0 1 2.025-.585 3.726 3.726 0 0 1 3.735 3.735Z" fill="#000"/><path d="M14.55 34.079a7.56 7.56 0 1 0 0-15.12 7.56 7.56 0 0 0 0 15.12Z" fill="#fff"/><path d="M18.555 26.473a3.726 3.726 0 0 1-3.735 3.735 3.726 3.726 0 0 1-3.735-3.735c0-.45.09-.9.225-1.305.225.315.585.495.99.495a1.21 1.21 0 0 0 1.215-1.215c0-.495-.315-.9-.72-1.125a3.935 3.935 0 0 1 2.025-.585 3.726 3.726 0 0 1 3.735 3.735Z" fill="#000"/></svg>