<svg width="24" height="24" viewBox="0 0 24 24" fill="none" xmlns="http://www.w3.org/2000/svg">
<rect width="24" height="24" rx="6" fill="white" fill-opacity="0.2"/>
<rect x="3" y="3" width="8" height="8" rx="4" fill="white"/>
<path d="M8.91971 6.30735L8.92081 4.93589C8.92081 4.77613 8.85902 4.6229 8.74903 4.50993C8.63904 4.39696 8.48987 4.3335 8.33432 4.3335H5.58748C5.43193 4.3335 5.28275 4.39696 5.17276 4.50993C5.06278 4.6229 5.00099 4.77613 5.00099 4.93589L4.99878 8.76552C4.99883 8.85575 5.01863 8.94483 5.05669 9.02615C5.09476 9.10748 5.15013 9.17899 5.21871 9.23539L6.29298 9.98386C6.30375 9.99284 6.31679 9.99849 6.33056 10.0002C6.34434 10.0018 6.3583 9.99946 6.37081 9.99331C6.38333 9.98716 6.39388 9.97748 6.40126 9.96542C6.40863 9.95335 6.41252 9.93938 6.41248 9.92513L6.41358 7.28624C6.41358 7.26627 6.42131 7.24712 6.43506 7.233C6.44881 7.21888 6.46745 7.21094 6.4869 7.21094H7.1467C7.26336 7.21094 7.37524 7.25854 7.45773 7.34327C7.54022 7.428 7.58657 7.54292 7.58657 7.66274L7.58546 9.92513C7.58547 9.93931 7.58938 9.9532 7.59673 9.9652C7.60409 9.9772 7.6146 9.98683 7.62705 9.99296C7.63949 9.9991 7.65338 10.0015 7.6671 9.99989C7.68081 9.99828 7.69381 9.99272 7.70459 9.98386L8.69977 9.23539C8.76835 9.17899 8.82372 9.10748 8.86179 9.02615C8.89986 8.94483 8.91965 8.85575 8.9197 8.76552L8.92081 7.51214C8.92081 7.35238 8.85902 7.19915 8.74903 7.08618C8.63904 6.97321 8.48987 6.90975 8.33432 6.90975C8.48968 6.90945 8.63857 6.84585 8.74832 6.73291C8.85807 6.61997 8.91971 6.46692 8.91971 6.30735ZM7.14597 6.60855H6.48616C6.46672 6.60855 6.44807 6.60062 6.43432 6.58649C6.42058 6.57237 6.41285 6.55322 6.41285 6.53325V5.17786C6.41285 5.15789 6.42058 5.13874 6.43432 5.12462C6.44807 5.11049 6.46672 5.10256 6.48616 5.10256H7.51252C7.53196 5.10256 7.55061 5.11049 7.56436 5.12462C7.57811 5.13874 7.58583 5.15789 7.58583 5.17786V6.15675C7.58583 6.27658 7.53949 6.39149 7.457 6.47622C7.37451 6.56095 7.26263 6.60855 7.14597 6.60855Z" fill="#15181E"/>
<rect x="13" y="3" width="8" height="8" rx="4" fill="white"/>
<g clip-path="url(#clip0_2328_26010)">
<path d="M16.9996 4.6665L16.9705 4.77282V7.85783L16.9996 7.88906L18.3325 7.04259L16.9996 4.6665Z" fill="#15181E"/>
<path d="M16.9997 4.6665L15.6667 7.04259L16.9997 7.88907V6.39169V4.6665Z" fill="#15181E"/>
<path d="M16.9996 8.16001L16.9832 8.18149V9.28044L16.9996 9.33192L18.3333 7.31396L16.9996 8.16001Z" fill="#15181E"/>
<path d="M16.9997 9.33193V8.16001L15.6667 7.31396L16.9997 9.33193Z" fill="#15181E"/>
<path d="M16.9998 7.88895L18.3327 7.0425L16.9998 6.3916V7.88895Z" fill="#15181E"/>
<path d="M15.6667 7.0425L16.9997 7.88896V6.3916L15.6667 7.0425Z" fill="#15181E"/>
</g>
<rect x="13" y="3" width="8" height="8" rx="4" fill="white"/>
<g clip-path="url(#clip1_2328_26010)">
<path d="M16.9995 4L16.9631 4.13669V8.10314L16.9995 8.14328L18.6657 7.05496L16.9995 4Z" fill="#15181E"/>
<path d="M16.9994 4L15.3333 7.05496L16.9994 8.14329V6.2181V4Z" fill="#15181E"/>
<path d="M16.9995 8.49207L16.979 8.51969V9.93263L16.9995 9.99881L18.6667 7.4043L16.9995 8.49207Z" fill="#15181E"/>
<path d="M16.9994 9.99883V8.49207L15.3333 7.4043L16.9994 9.99883Z" fill="#15181E"/>
<path d="M16.9995 8.14343L18.6657 7.05513L16.9995 6.21826V8.14343Z" fill="#15181E"/>
<path d="M15.3333 7.05513L16.9994 8.14344V6.21826L15.3333 7.05513Z" fill="#15181E"/>
</g>
<rect x="3" y="13" width="8" height="8" rx="4" fill="white"/>
<path d="M5.00734 17L5.01053 18.1605L6.0045 18.7407V19.4201L4.42882 18.5034V16.6607L5.00734 17ZM5.00734 15.8396V16.5158L4.42847 16.1761V15.4999L5.00734 15.1602L5.58905 15.4999L5.00734 15.8396ZM6.4196 15.4999L6.99847 15.1602L7.58018 15.4999L6.99847 15.8396L6.4196 15.4999Z" fill="#15181E"/>
<path d="M5.42554 17.92V17.2406L6.00441 17.5803V18.2565L5.42554 17.92ZM6.41951 18.9841L6.99838 19.3238L7.58009 18.9841V19.6603L6.99838 20L6.41951 19.6603V18.9841ZM8.41029 15.4999L8.98916 15.1602L9.57087 15.4999V16.1761L8.98916 16.5158V15.8396L8.41029 15.4999ZM8.98916 18.1605L8.99235 17L9.57122 16.6603V18.503L7.99554 19.4198V18.7404L8.98916 18.1605Z" fill="#15181E"/>
<path d="M8.57423 17.9201L7.99536 18.2567V17.5804L8.57423 17.2407V17.9201Z" fill="#15181E"/>
<path d="M8.57406 16.0801L8.57725 16.7595L7.58044 17.3397V18.503L7.00157 18.8395L6.4227 18.503V17.3397L5.42589 16.7595V16.0801L6.00724 15.7404L6.99803 16.3234L7.99483 15.7404L8.57654 16.0801H8.57406ZM5.42554 14.9199L6.99838 14L8.57406 14.9199L7.99519 15.2596L6.99838 14.6766L6.00441 15.2596L5.42554 14.9199Z" fill="#15181E"/>
<rect x="13" y="13" width="8" height="8" rx="4" fill="white"/>
<path d="M17.7053 16.7491L18.1491 16.0015L19.3453 17.8513L19.3458 18.2063L19.342 15.7634C19.3391 15.7037 19.3072 15.6491 19.2562 15.6169L17.1026 14.3869C17.0523 14.3623 16.9884 14.3626 16.9381 14.3877C16.9313 14.391 16.9249 14.3947 16.9188 14.3987L16.9113 14.4034L14.8209 15.6062L14.8128 15.6098C14.8024 15.6146 14.7919 15.6206 14.782 15.6277C14.7423 15.6559 14.716 15.6976 14.7075 15.7444C14.7062 15.7515 14.7053 15.7587 14.7048 15.766L14.7081 17.7568L15.8223 16.0421C15.9626 15.8148 16.2682 15.7415 16.5519 15.7455L16.8849 15.7542L14.9229 18.8785L15.1542 19.0107L17.1397 15.7574L18.0173 15.7542L16.0369 19.0896L16.8622 19.5609L16.9608 19.6172C17.0025 19.6341 17.0517 19.6349 17.0937 19.6198L19.2776 18.3632L18.8601 18.6035L17.7053 16.7491ZM17.8746 19.1705L17.0411 17.8715L17.5499 17.0142L18.6446 18.7274L17.8746 19.1705Z" fill="#15181E"/>
<path d="M17.041 17.8715L17.8746 19.1705L18.6446 18.7274L17.5498 17.0142L17.041 17.8715Z" fill="white"/>
<path d="M19.3459 18.2063L19.3453 17.8513L18.1491 16.0015L17.7053 16.7492L18.8601 18.6034L19.2776 18.3632C19.3185 18.3302 19.3433 18.2817 19.3459 18.2294L19.3459 18.2063Z" fill="white"/>
<path d="M14.3333 18.5414L14.9228 18.8787L16.8849 15.7545L16.5519 15.7458C16.2682 15.7418 15.9625 15.815 15.8223 16.0424L14.7081 17.757L14.3333 18.3289V18.5414Z" fill="white"/>
<path d="M18.0172 15.7544L17.1396 15.7576L15.1541 19.0108L15.8481 19.4076L16.0368 19.0898L18.0172 15.7544Z" fill="white"/>
<path d="M19.7157 15.7498C19.7083 15.5675 19.609 15.4007 19.4533 15.3036L17.2715 14.0578C17.1175 13.9808 16.9252 13.9807 16.7709 14.0577C16.7527 14.0669 14.6491 15.2781 14.6491 15.2781C14.62 15.292 14.592 15.3085 14.5656 15.3273C14.4267 15.4262 14.342 15.5798 14.3333 15.7486V18.3286L14.7081 17.7568L14.7048 15.7661C14.7053 15.7588 14.7062 15.7516 14.7075 15.7446C14.716 15.6977 14.7423 15.6559 14.7819 15.6277C14.7918 15.6207 16.9313 14.3911 16.9381 14.3877C16.9884 14.3626 17.0523 14.3623 17.1026 14.3869L19.2562 15.6169C19.3072 15.6491 19.3391 15.7037 19.3419 15.7634V18.2294C19.3393 18.2817 19.3185 18.3302 19.2776 18.3632L18.8601 18.6034L18.6446 18.7274L17.8746 19.1705L17.0937 19.6198C17.0517 19.6349 17.0025 19.634 16.9608 19.6172L16.0369 19.0896L15.8481 19.4074L16.6784 19.8821C16.7059 19.8976 16.7303 19.9113 16.7504 19.9225C16.7815 19.9398 16.8027 19.9514 16.8102 19.955C16.8692 19.9834 16.9541 20 17.0306 20C17.1008 20 17.1692 19.9872 17.2339 19.962L19.502 18.6578C19.6322 18.5577 19.7088 18.4067 19.7157 18.243V15.7498Z" fill="#15181E"/>
<defs>
<clipPath id="clip0_2328_26010">
<rect width="2.66667" height="4.66667" fill="white" transform="translate(15.6667 4.6665)"/>
</clipPath>
<clipPath id="clip1_2328_26010">
<rect width="3.33333" height="6" fill="white" transform="translate(15.3333 4)"/>
</clipPath>
</defs>
</svg>
