<svg xmlns="http://www.w3.org/2000/svg" width="20" height="18" fill="none" viewBox="0 0 20 18"><g clip-path="url('#clip0_3102_5887')"><path fill="#AB9FF2" d="M2.363 17.311c2.548 0 4.463-2.215 5.605-3.966a3.4 3.4 0 0 0-.216 1.147c0 1.022.587 1.75 1.745 1.75 1.59 0 3.29-1.394 4.17-2.897a2.2 2.2 0 0 0-.093.605c0 .712.402 1.161 1.22 1.161 2.579 0 5.173-4.57 5.173-8.566 0-3.114-1.575-5.856-5.528-5.856C7.489.69 0 9.18 0 14.662c0 2.153 1.158 2.65 2.363 2.65m9.682-11.107c0-.774.433-1.317 1.066-1.317.617 0 1.05.543 1.05 1.317 0 .775-.432 1.332-1.05 1.332-.633 0-1.066-.557-1.066-1.332m3.305 0c0-.774.432-1.317 1.066-1.317.617 0 1.05.543 1.05 1.317 0 .775-.433 1.332-1.05 1.332-.634 0-1.066-.557-1.066-1.332"/></g><defs><clipPath id="clip0_3102_5887"><path fill="#fff" d="M0 .69h20V17.31H0z"/></clipPath></defs></svg>