<svg width="16" height="16" viewBox="0 0 16 16" fill="none" xmlns="http://www.w3.org/2000/svg">
  <path d="M4.66504 6C3.56037 6 2.66504 6.89533 2.66504 8V12.6667C2.66504 13.7713 3.56037 14.6667 4.66504 14.6667H11.3317C12.4364 14.6667 13.3317 13.7713 13.3317 12.6667V8C13.3317 6.89533 12.4364 6 11.3317 6C10.6665 6.00002 5.33317 6.00001 4.66504 6ZM7.99837 8C8.73504 8 9.33171 8.59667 9.33171 9.33333C9.33171 9.80667 9.03637 10.1387 8.66504 10.3747V12C8.66504 12.368 8.36637 12.6667 7.99837 12.6667C7.63037 12.6667 7.33171 12.368 7.33171 12V10.3747C6.96037 10.138 6.66504 9.80667 6.66504 9.33333C6.66504 8.59667 7.26171 8 7.99837 8Z" fill="#16085F"/>
  <path fill-rule="evenodd" clip-rule="evenodd" d="M8.00033 2.66634C6.89576 2.66634 6.00033 3.56177 6.00033 4.66634V5.33301C6.00033 5.7012 5.70185 5.99967 5.33366 5.99967C4.96547 5.99967 4.66699 5.7012 4.66699 5.33301V4.66634C4.66699 2.82539 6.15938 1.33301 8.00033 1.33301C9.84127 1.33301 11.3337 2.82539 11.3337 4.66634V5.33301C11.3337 5.7012 11.0352 5.99967 10.667 5.99967C10.2988 5.99967 10.0003 5.7012 10.0003 5.33301V4.66634C10.0003 3.56177 9.10489 2.66634 8.00033 2.66634Z" fill="#161A27"/>
  </svg>
  