<svg width="20" height="20" viewBox="0 0 20 20" fill="none" xmlns="http://www.w3.org/2000/svg">
<path fill-rule="evenodd" clip-rule="evenodd" d="M13.0303 5.53033C13.3232 5.23744 13.3232 4.76256 13.0303 4.46967C12.7374 4.17678 12.2626 4.17678 11.9697 4.46967L6.96967 9.46967C6.67678 9.76256 6.67678 10.2374 6.96967 10.5303L11.9697 15.5303C12.2626 15.8232 12.7374 15.8232 13.0303 15.5303C13.3232 15.2374 13.3232 14.7626 13.0303 14.4697L8.56066 10L13.0303 5.53033Z" fill="#161A27"/>
<path fill-rule="evenodd" clip-rule="evenodd" d="M13.0303 5.53033C13.3232 5.23744 13.3232 4.76256 13.0303 4.46967C12.7374 4.17678 12.2626 4.17678 11.9697 4.46967L6.96967 9.46967C6.67678 9.76256 6.67678 10.2374 6.96967 10.5303L11.9697 15.5303C12.2626 15.8232 12.7374 15.8232 13.0303 15.5303C13.3232 15.2374 13.3232 14.7626 13.0303 14.4697L8.56066 10L13.0303 5.53033Z" fill="black" fill-opacity="0.2"/>
<path fill-rule="evenodd" clip-rule="evenodd" d="M13.0303 5.53033C13.3232 5.23744 13.3232 4.76256 13.0303 4.46967C12.7374 4.17678 12.2626 4.17678 11.9697 4.46967L6.96967 9.46967C6.67678 9.76256 6.67678 10.2374 6.96967 10.5303L11.9697 15.5303C12.2626 15.8232 12.7374 15.8232 13.0303 15.5303C13.3232 15.2374 13.3232 14.7626 13.0303 14.4697L8.56066 10L13.0303 5.53033Z" fill="black" fill-opacity="0.2"/>
</svg>
