<svg width="24" height="24" viewBox="0 0 24 24" fill="none" xmlns="http://www.w3.org/2000/svg">
  <path fill-rule="evenodd" clip-rule="evenodd" d="M5.46984 5.46984C5.74445 5.19524 6.17917 5.17778 6.47375 5.41809L6.53039 5.46984L12.0001 10.9396L17.4698 5.46984C17.7627 5.17695 18.2375 5.17695 18.5304 5.46984C18.8233 5.76274 18.8233 6.2375 18.5304 6.53039L13.0607 12.0001L18.5304 17.4698L18.5821 17.5265C18.8225 17.8211 18.805 18.2558 18.5304 18.5304C18.2558 18.805 17.8211 18.8225 17.5265 18.5821L17.4698 18.5304L12.0001 13.0607L6.53039 18.5304C6.2375 18.8233 5.76274 18.8233 5.46984 18.5304C5.17695 18.2375 5.17695 17.7627 5.46984 17.4698L10.9396 12.0001L5.46984 6.53039L5.41809 6.47375C5.17778 6.17917 5.19524 5.74445 5.46984 5.46984Z" fill="#161A27"/>
  </svg>
  