<svg width="20" height="20" viewBox="0 0 20 20" fill="none" xmlns="http://www.w3.org/2000/svg">
  <path d="M15.0003 6.66699H8.33366C7.41318 6.66699 6.66699 7.41318 6.66699 8.33366V15.0003C6.66699 15.9208 7.41318 16.667 8.33366 16.667H15.0003C15.9208 16.667 16.667 15.9208 16.667 15.0003V8.33366C16.667 7.41318 15.9208 6.66699 15.0003 6.66699Z" stroke="#73767D" stroke-width="1.5" stroke-linecap="round" stroke-linejoin="round"/>
  <path d="M13.333 6.66634V4.99967C13.333 4.55765 13.1574 4.13372 12.8449 3.82116C12.5323 3.5086 12.1084 3.33301 11.6663 3.33301H4.99967C4.55765 3.33301 4.13372 3.5086 3.82116 3.82116C3.5086 4.13372 3.33301 4.55765 3.33301 4.99967V11.6663C3.33301 12.1084 3.5086 12.5323 3.82116 12.8449C4.13372 13.1574 4.55765 13.333 4.99967 13.333H6.66634" stroke="#73767D" stroke-width="1.5" stroke-linecap="round" stroke-linejoin="round"/>
  </svg>
  