<svg width="207" height="131" viewBox="0 0 207 131" fill="none" xmlns="http://www.w3.org/2000/svg">
  <path d="M201.672 129.113C206.472 119.615 192.754 72.123 97.642 72.123C28.9902 72.123 -2.51917 110.996 4.44691 130.696" fill="url(#paint0_radial_9244_8443)"/>
  <path d="M201.672 129.113C206.472 119.615 192.754 72.123 97.642 72.123C28.9902 72.123 -2.51917 110.996 4.44691 130.696" fill="url(#paint1_radial_9244_8443)"/>
  <mask id="mask0_9244_8443" style="mask-type:luminance" maskUnits="userSpaceOnUse" x="3" y="72" width="200" height="59">
  <path d="M201.672 129.113C206.472 119.615 192.754 72.123 97.642 72.123C28.9902 72.123 -2.51917 110.996 4.44691 130.696" fill="white"/>
  </mask>
  <g mask="url(#mask0_9244_8443)">
  <ellipse opacity="0.671968" cx="82.9729" cy="114.064" rx="5.23072" ry="2.90541" fill="url(#paint2_linear_9244_8443)"/>
  <ellipse opacity="0.256348" cx="136.36" cy="94.3195" rx="8.25292" ry="4.53244" fill="url(#paint3_linear_9244_8443)"/>
  <ellipse opacity="0.729957" cx="42.4404" cy="82.2336" rx="8.25292" ry="4.53244" fill="url(#paint4_linear_9244_8443)"/>
  </g>
  <path opacity="0.5" d="M81.0352 82.6543C81.0352 82.6543 101.274 92.1711 109.303 95.8235C115.663 98.7164 148.411 107.971 152.312 105.34C156.213 102.71 164.827 95.4898 161.983 90.5434C159.14 85.5969 144.184 76.7153 137.032 75.4176C129.88 74.1199 109.428 80.0191 109.428 80.0191L91.9837 83.0148L81.0352 82.6543Z" fill="url(#paint5_linear_9244_8443)"/>
  <path d="M96.0355 40.1022L73.4822 56.6855L79.4957 42.577L102.082 28.2379L96.0355 40.1022Z" fill="#E2E7EC"/>
  <path d="M79.1211 42.8684L102.083 28.4941V67.6968L81.0346 82.4538L79.1211 42.8684Z" fill="#D8DFE6"/>
  <path d="M102.082 28.4941L137.29 36.731V75.948L102.082 67.7111V28.4941Z" fill="#E9EFF1"/>
  <path d="M79.1211 42.8672L115.094 51.274V90.491L81.0346 82.6698L79.1211 42.8672Z" fill="#E8EAEB"/>
  <path d="M114.328 51.2884L137.29 36.9141V76.1167L114.328 90.491V51.2884Z" fill="#D8DFE6"/>
  <mask id="mask1_9244_8443" style="mask-type:luminance" maskUnits="userSpaceOnUse" x="114" y="36" width="24" height="55">
  <path d="M114.328 51.2884L137.29 36.9141V76.1167L114.328 90.491V51.2884Z" fill="white"/>
  </mask>
  <g mask="url(#mask1_9244_8443)">
  <rect x="122.857" y="33.6465" width="7.21648" height="60.1107" fill="#C7D0D9"/>
  </g>
  <path d="M124.653 62.9371L147.24 48.5981L136.914 36.9141L114.328 51.2531L124.653 62.9371Z" fill="#E2E7EC"/>
  <path fill-rule="evenodd" clip-rule="evenodd" d="M131.932 0.0143133C131.125 0.260847 114.428 10.2508 114.428 10.2508L119.301 10.6142L122.763 14.4408C122.763 14.4408 132.738 -0.232221 131.932 0.0143133Z" fill="#E8EAEB"/>
  <mask id="mask2_9244_8443" style="mask-type:luminance" maskUnits="userSpaceOnUse" x="114" y="0" width="18" height="15">
  <path fill-rule="evenodd" clip-rule="evenodd" d="M131.932 0.0143133C131.125 0.260847 114.428 10.2508 114.428 10.2508L119.301 10.6142L122.763 14.4408C122.763 14.4408 132.738 -0.232221 131.932 0.0143133Z" fill="white"/>
  </mask>
  <g mask="url(#mask2_9244_8443)">
  <path fill-rule="evenodd" clip-rule="evenodd" d="M119.3 10.6134L131.931 0.0135645L122.762 14.4401L119.3 10.6134Z" fill="#D8DFE6"/>
  </g>
  <path fill-rule="evenodd" clip-rule="evenodd" d="M129.424 11.5894L123.569 10.9774L131.938 0.116469L129.424 11.5894Z" fill="#E8EAEB"/>
  <path d="M106.799 48.4629C106.345 48.7535 105.881 49.0449 105.406 49.3369L105.059 48.7725C105.53 48.4824 105.991 48.1928 106.441 47.9043L106.799 48.4629ZM111.207 45.4238C110.518 45.9393 109.796 46.4575 109.04 46.9775L108.664 46.4307C109.413 45.9155 110.128 45.4027 110.81 44.8926L111.207 45.4238ZM115.332 41.9961C114.707 42.5814 114.038 43.1694 113.323 43.7607L112.9 43.25C113.604 42.6672 114.263 42.0875 114.878 41.5117L115.332 41.9961ZM118.91 38.0312C118.405 38.7189 117.835 39.4106 117.201 40.1064L116.711 39.6592C117.33 38.9804 117.884 38.3069 118.375 37.6387L118.91 38.0312ZM101.434 33.9941C102.163 34.5824 102.905 34.9675 103.66 35.1533L103.501 35.7979C102.648 35.5877 101.819 35.1573 101.018 34.5107L101.434 33.9941ZM121.407 33.2207C121.16 34.0522 120.812 34.8893 120.365 35.7324L119.779 35.4219C120.206 34.6166 120.536 33.8196 120.771 33.0312L121.407 33.2207ZM108.763 34.4648C107.93 35.0619 107.108 35.4798 106.298 35.7168L106.111 35.0801C106.846 34.8653 107.601 34.4814 108.376 33.9258L108.763 34.4648ZM112.554 30.6309C111.964 31.3932 111.38 32.0737 110.804 32.6719L110.326 32.2109C110.886 31.6307 111.453 30.9687 112.029 30.2246L112.554 30.6309ZM98.3535 29.9023C98.6008 30.5466 98.9887 31.2286 99.5225 31.9473C99.5635 32.0024 99.6044 32.0575 99.6455 32.1113L99.1191 32.5137C99.0762 32.4575 99.033 32.4003 98.9902 32.3428C98.4221 31.5779 98.0046 30.8435 97.7344 30.1396L98.3535 29.9023ZM121.451 27.7695C121.637 28.2019 121.756 28.6538 121.807 29.123C121.856 29.5799 121.872 30.0395 121.857 30.501L121.194 30.4795C121.208 30.0488 121.193 29.6196 121.147 29.1934C121.104 28.7908 121.002 28.4038 120.842 28.0322L121.451 27.7695ZM115.533 26.1826C115.056 26.9867 114.583 27.741 114.115 28.4453L113.562 28.0781C114.024 27.3835 114.491 26.6383 114.962 25.8438L115.533 26.1826ZM99.4873 25.4375C98.7711 26.0292 98.31 26.7082 98.1221 27.4658L97.4785 27.3066C97.7028 26.4024 98.2448 25.6036 99.0654 24.9258L99.4873 25.4375ZM117.333 24.1133C118.237 24.5209 119.027 24.9934 119.681 25.5254L119.262 26.04C118.655 25.5464 117.915 25.1028 117.061 24.7178L117.333 24.1133ZM104.2 23.4824C103.29 23.6618 102.45 23.8999 101.704 24.1914L101.463 23.5732C102.247 23.2669 103.124 23.0187 104.071 22.832L104.2 23.4824ZM118.077 21.501C117.663 22.3235 117.252 23.1114 116.845 23.8633L116.262 23.5469C116.666 22.801 117.074 22.0197 117.484 21.2031L118.077 21.501ZM112.127 22.6797C113.042 22.8099 113.928 22.9886 114.767 23.2129L114.595 23.8535C113.782 23.6362 112.922 23.4625 112.033 23.3359L112.127 22.6797ZM109.417 22.4404L109.394 23.1035C108.511 23.0721 107.632 23.0862 106.775 23.1465L106.729 22.4854C107.608 22.4234 108.511 22.4082 109.417 22.4404ZM120.354 16.6914C119.982 17.5238 119.612 18.3293 119.244 19.1074L118.645 18.8242C119.01 18.0501 119.378 17.2483 119.749 16.4199L120.354 16.6914Z" fill="#C7D0D9"/>
  <path d="M0.5 131C3.65464 112.703 15.0832 96.8889 31.4658 88.1516L43 82L66.5 74.5L103 69.5L151.457 78.9295C178.341 84.1609 199.786 104.448 206.5 131H0.5Z" fill="url(#paint6_linear_9244_8443)"/>
  <defs>
  <radialGradient id="paint0_radial_9244_8443" cx="0" cy="0" r="1" gradientUnits="userSpaceOnUse" gradientTransform="translate(89.807 131.001) rotate(-90) scale(66.5 694.526)">
  <stop stop-color="#593FDE" stop-opacity="0.24"/>
  <stop offset="0.55" stop-color="#593FDE" stop-opacity="0.5"/>
  <stop offset="1" stop-color="#593FDE" stop-opacity="0.01"/>
  </radialGradient>
  <radialGradient id="paint1_radial_9244_8443" cx="0" cy="0" r="1" gradientUnits="userSpaceOnUse" gradientTransform="translate(89.807 131.001) rotate(-90) scale(66.5 694.526)">
  <stop stop-color="#593FDE" stop-opacity="0.24"/>
  <stop offset="0.55" stop-color="#593FDE" stop-opacity="0.5"/>
  <stop offset="1" stop-color="#593FDE" stop-opacity="0.01"/>
  </radialGradient>
  <linearGradient id="paint2_linear_9244_8443" x1="78.7626" y1="113.294" x2="80.3562" y2="116.701" gradientUnits="userSpaceOnUse">
  <stop stop-color="#E1E7EA"/>
  <stop offset="1" stop-color="#D0D6DC"/>
  </linearGradient>
  <linearGradient id="paint3_linear_9244_8443" x1="129.431" y1="93.8958" x2="132.347" y2="99.9779" gradientUnits="userSpaceOnUse">
  <stop stop-color="#E1E7EA"/>
  <stop offset="1" stop-color="#D0D6DC"/>
  </linearGradient>
  <linearGradient id="paint4_linear_9244_8443" x1="37.1782" y1="82.307" x2="38.8281" y2="88.8802" gradientUnits="userSpaceOnUse">
  <stop stop-color="#FBFBFB"/>
  <stop offset="1" stop-color="#D9DFE3"/>
  </linearGradient>
  <linearGradient id="paint5_linear_9244_8443" x1="78.0612" y1="85.9543" x2="83.9486" y2="112.356" gradientUnits="userSpaceOnUse">
  <stop stop-color="#C4CDD1"/>
  <stop offset="1" stop-color="#C6CFD3" stop-opacity="0.01"/>
  </linearGradient>
  <linearGradient id="paint6_linear_9244_8443" x1="115" y1="131" x2="115" y2="54.0435" gradientUnits="userSpaceOnUse">
  <stop stop-color="white"/>
  <stop offset="1" stop-color="white" stop-opacity="0"/>
  </linearGradient>
  </defs>
  </svg>
  