<svg width="20" height="20" viewBox="0 0 20 20" fill="none" xmlns="http://www.w3.org/2000/svg">
  <path fill-rule="evenodd" clip-rule="evenodd" d="M1.792 16.667V12.5001C1.79203 12.0859 2.1278 11.7501 2.542 11.7501H6.70899L6.78516 11.754C7.16342 11.7923 7.45896 12.1117 7.45899 12.5001C7.45899 12.8884 7.16344 13.2078 6.78516 13.2461L6.70899 13.2501H4.12989C4.75547 14.3557 5.68334 15.2701 6.81641 15.877C8.27842 16.6599 9.97787 16.8772 11.5898 16.4874C13.2018 16.0975 14.6139 15.1281 15.5566 13.7637C16.4993 12.3993 16.9068 10.7355 16.7012 9.08989C16.4955 7.44421 15.691 5.93135 14.4414 4.84087C13.192 3.7506 11.5849 3.15799 9.92676 3.17681C8.26846 3.19575 6.67453 3.82478 5.4502 4.94341C4.22585 6.06214 3.45616 7.59326 3.28809 9.24321C3.2459 9.65507 2.87776 9.9551 2.46582 9.91314C2.05385 9.87109 1.75399 9.50287 1.7959 9.09087C2.00132 7.07426 2.94205 5.20333 4.43848 3.83599C5.93487 2.4688 7.88239 1.70093 9.90918 1.67778C11.9361 1.65464 13.9005 2.37819 15.4277 3.71099C16.955 5.04376 17.938 6.89204 18.1895 8.90337C18.4409 10.9148 17.9432 12.9485 16.791 14.6163C15.6388 16.284 13.9126 17.4689 11.9424 17.9454C9.97221 18.4218 7.8953 18.1562 6.1084 17.1993C4.98293 16.5965 4.0229 15.7455 3.292 14.7227V16.667C3.29185 17.0811 2.95612 17.417 2.542 17.417C2.12787 17.417 1.79214 17.0811 1.792 16.667ZM9.25049 6.66672C9.25049 6.2525 9.58628 5.91672 10.0005 5.91672C10.4147 5.91672 10.7505 6.2525 10.7505 6.66672V9.68918L12.1978 11.1364L12.2485 11.1931C12.4891 11.4876 12.4723 11.9223 12.1978 12.197C11.9232 12.4715 11.4884 12.4889 11.1939 12.2487L11.1372 12.197L9.47022 10.53C9.32967 10.3894 9.25049 10.1986 9.25049 9.99972V6.66672Z" fill="#73767D"/>
  </svg>
  