<svg width="21" height="20" viewBox="0 0 21 20" fill="none" xmlns="http://www.w3.org/2000/svg">
<path fill-rule="evenodd" clip-rule="evenodd" d="M16.25 3.3335C16.25 2.91928 15.9142 2.5835 15.5 2.5835C15.0858 2.5835 14.75 2.91928 14.75 3.3335C14.75 3.57661 14.6534 3.80977 14.4815 3.98168C14.3096 4.15359 14.0764 4.25016 13.8333 4.25016C13.4191 4.25016 13.0833 4.58595 13.0833 5.00016C13.0833 5.41438 13.4191 5.75016 13.8333 5.75016C14.0764 5.75016 14.3096 5.84674 14.4815 6.01865C14.6534 6.19056 14.75 6.42371 14.75 6.66683C14.75 7.08104 15.0858 7.41683 15.5 7.41683C15.9142 7.41683 16.25 7.08104 16.25 6.66683C16.25 6.42371 16.3466 6.19056 16.5185 6.01865C16.6904 5.84674 16.9236 5.75016 17.1667 5.75016C17.5809 5.75016 17.9167 5.41438 17.9167 5.00016C17.9167 4.58595 17.5809 4.25016 17.1667 4.25016C16.9236 4.25016 16.6904 4.15359 16.5185 3.98168C16.3466 3.80977 16.25 3.57661 16.25 3.3335ZM8.75 5.00016C8.75 4.58595 8.41421 4.25016 8 4.25016C7.58579 4.25016 7.25 4.58595 7.25 5.00016C7.25 6.12733 6.80223 7.20834 6.0052 8.00537C5.20817 8.8024 4.12717 9.25016 3 9.25016C2.58579 9.25016 2.25 9.58595 2.25 10.0002C2.25 10.4144 2.58579 10.7502 3 10.7502C4.12717 10.7502 5.20817 11.1979 6.0052 11.995C6.80223 12.792 7.25 13.873 7.25 15.0002C7.25 15.4144 7.58579 15.7502 8 15.7502C8.41421 15.7502 8.75 15.4144 8.75 15.0002C8.75 13.873 9.19777 12.792 9.9948 11.995C10.7918 11.1979 11.8728 10.7502 13 10.7502C13.4142 10.7502 13.75 10.4144 13.75 10.0002C13.75 9.58595 13.4142 9.25016 13 9.25016C11.8728 9.25016 10.7918 8.8024 9.9948 8.00537C9.19777 7.20834 8.75 6.12733 8.75 5.00016ZM7.06586 9.06603C7.43412 8.69777 7.74727 8.2847 8 7.83964C8.25273 8.2847 8.56588 8.69777 8.93414 9.06603C9.30239 9.43428 9.71546 9.74743 10.1605 10.0002C9.71546 10.2529 9.30239 10.566 8.93414 10.9343C8.56588 11.3026 8.25273 11.7156 8 12.1607C7.74727 11.7156 7.43412 11.3026 7.06586 10.9343C6.69761 10.566 6.28454 10.2529 5.83948 10.0002C6.28454 9.74743 6.69761 9.43428 7.06586 9.06603ZM16.25 13.3335C16.25 12.9193 15.9142 12.5835 15.5 12.5835C15.0858 12.5835 14.75 12.9193 14.75 13.3335C14.75 13.5766 14.6534 13.8098 14.4815 13.9817C14.3096 14.1536 14.0764 14.2502 13.8333 14.2502C13.4191 14.2502 13.0833 14.5859 13.0833 15.0002C13.0833 15.4144 13.4191 15.7502 13.8333 15.7502C14.0764 15.7502 14.3096 15.8467 14.4815 16.0186C14.6534 16.1906 14.75 16.4237 14.75 16.6668C14.75 17.081 15.0858 17.4168 15.5 17.4168C15.9142 17.4168 16.25 17.081 16.25 16.6668C16.25 16.4237 16.3466 16.1906 16.5185 16.0186C16.6904 15.8467 16.9236 15.7502 17.1667 15.7502C17.5809 15.7502 17.9167 15.4144 17.9167 15.0002C17.9167 14.5859 17.5809 14.2502 17.1667 14.2502C16.9236 14.2502 16.6904 14.1536 16.5185 13.9817C16.3466 13.8098 16.25 13.5766 16.25 13.3335Z" fill="#aeaeae"/>
</svg>
