<svg width="24" height="24" viewBox="0 0 24 24" fill="none" xmlns="http://www.w3.org/2000/svg">
  <path d="M10 2.25C14.2802 2.25 17.75 5.71979 17.75 10C17.75 11.87 17.0872 13.585 15.9844 14.9238L21.5303 20.4697L21.582 20.5264C21.8223 20.8209 21.8049 21.2557 21.5303 21.5303C21.2557 21.8049 20.8209 21.8223 20.5264 21.582L20.4697 21.5303L14.9238 15.9844C13.585 17.0872 11.87 17.75 10 17.75C5.71979 17.75 2.25 14.2802 2.25 10C2.25 5.71979 5.71979 2.25 10 2.25ZM10 3.75C6.54822 3.75 3.75 6.54822 3.75 10C3.75 13.4518 6.54822 16.25 10 16.25C13.4518 16.25 16.25 13.4518 16.25 10C16.25 6.54822 13.4518 3.75 10 3.75Z" fill="#161A27"/>
  </svg>
  