<svg width="20" height="20" viewBox="0 0 20 20" fill="none" xmlns="http://www.w3.org/2000/svg">
<path fill-rule="evenodd" clip-rule="evenodd" d="M15.75 3.33337C15.75 2.91916 15.4142 2.58337 15 2.58337C14.5858 2.58337 14.25 2.91916 14.25 3.33337C14.25 3.57649 14.1534 3.80965 13.9815 3.98156C13.8096 4.15346 13.5764 4.25004 13.3333 4.25004C12.9191 4.25004 12.5833 4.58583 12.5833 5.00004C12.5833 5.41425 12.9191 5.75004 13.3333 5.75004C13.5764 5.75004 13.8096 5.84662 13.9815 6.01853C14.1534 6.19043 14.25 6.42359 14.25 6.66671C14.25 7.08092 14.5858 7.41671 15 7.41671C15.4142 7.41671 15.75 7.08092 15.75 6.66671C15.75 6.42359 15.8466 6.19043 16.0185 6.01853C16.1904 5.84662 16.4236 5.75004 16.6667 5.75004C17.0809 5.75004 17.4167 5.41425 17.4167 5.00004C17.4167 4.58583 17.0809 4.25004 16.6667 4.25004C16.4236 4.25004 16.1904 4.15346 16.0185 3.98156C15.8466 3.80965 15.75 3.57649 15.75 3.33337ZM8.25 5.00004C8.25 4.58583 7.91421 4.25004 7.5 4.25004C7.08579 4.25004 6.75 4.58583 6.75 5.00004C6.75 6.12721 6.30223 7.20821 5.5052 8.00524C4.70817 8.80227 3.62717 9.25004 2.5 9.25004C2.08579 9.25004 1.75 9.58583 1.75 10C1.75 10.4143 2.08579 10.75 2.5 10.75C3.62717 10.75 4.70817 11.1978 5.5052 11.9948C6.30223 12.7919 6.75 13.8729 6.75 15C6.75 15.4143 7.08579 15.75 7.5 15.75C7.91421 15.75 8.25 15.4143 8.25 15C8.25 13.8729 8.69777 12.7919 9.4948 11.9948C10.2918 11.1978 11.3728 10.75 12.5 10.75C12.9142 10.75 13.25 10.4143 13.25 10C13.25 9.58583 12.9142 9.25004 12.5 9.25004C11.3728 9.25004 10.2918 8.80227 9.4948 8.00524C8.69777 7.20821 8.25 6.12721 8.25 5.00004ZM6.56586 9.0659C6.93412 8.69765 7.24727 8.28458 7.5 7.83952C7.75273 8.28458 8.06588 8.69765 8.43414 9.0659C8.80239 9.43416 9.21546 9.74731 9.66052 10C9.21546 10.2528 8.80239 10.5659 8.43414 10.9342C8.06588 11.3024 7.75273 11.7155 7.5 12.1606C7.24727 11.7155 6.93412 11.3024 6.56586 10.9342C6.19761 10.5659 5.78454 10.2528 5.33948 10C5.78454 9.74731 6.19761 9.43416 6.56586 9.0659ZM15.75 13.3334C15.75 12.9192 15.4142 12.5834 15 12.5834C14.5858 12.5834 14.25 12.9192 14.25 13.3334C14.25 13.5765 14.1534 13.8096 13.9815 13.9816C13.8096 14.1535 13.5764 14.25 13.3333 14.25C12.9191 14.25 12.5833 14.5858 12.5833 15C12.5833 15.4143 12.9191 15.75 13.3333 15.75C13.5764 15.75 13.8096 15.8466 13.9815 16.0185C14.1534 16.1904 14.25 16.4236 14.25 16.6667C14.25 17.0809 14.5858 17.4167 15 17.4167C15.4142 17.4167 15.75 17.0809 15.75 16.6667C15.75 16.4236 15.8466 16.1904 16.0185 16.0185C16.1904 15.8466 16.4236 15.75 16.6667 15.75C17.0809 15.75 17.4167 15.4143 17.4167 15C17.4167 14.5858 17.0809 14.25 16.6667 14.25C16.4236 14.25 16.1904 14.1535 16.0185 13.9816C15.8466 13.8096 15.75 13.5765 15.75 13.3334Z" fill="#161A27"/>
</svg>
