<svg width="40" height="40" viewBox="0 0 40 40" fill="none" xmlns="http://www.w3.org/2000/svg">
  <rect width="40" height="40" rx="20" fill="#E4E5E9"/>
  <path d="M20 29C24.9706 29 29 24.9706 29 20C29 15.0294 24.9706 11 20 11C15.0294 11 11 15.0294 11 20C11 24.9706 15.0294 29 20 29Z" stroke="#161A27" stroke-width="1.5" stroke-linecap="round" stroke-linejoin="round"/>
  <path d="M11.5996 17H28.3996" stroke="#161A27" stroke-width="1.5" stroke-linecap="round" stroke-linejoin="round"/>
  <path d="M11.5996 23H28.3996" stroke="#161A27" stroke-width="1.5" stroke-linecap="round" stroke-linejoin="round"/>
  <path d="M19.4997 11C17.815 13.6996 16.9219 16.8179 16.9219 20C16.9219 23.1821 17.815 26.3004 19.4997 29" stroke="#161A27" stroke-width="1.5" stroke-linecap="round" stroke-linejoin="round"/>
  <path d="M20.5 11C22.1847 13.6996 23.0778 16.8179 23.0778 20C23.0778 23.1821 22.1847 26.3004 20.5 29" stroke="#161A27" stroke-width="1.5" stroke-linecap="round" stroke-linejoin="round"/>
  </svg>
  