<svg width="55" height="54" viewBox="0 0 55 54" fill="none" xmlns="http://www.w3.org/2000/svg">
<rect x="0.144531" y="0.0732422" width="53.9326" height="53.9326" rx="26.9663" fill="#3618A6" fill-opacity="0.05"/>
<rect x="3.51562" y="3.44336" width="47.191" height="47.191" rx="23.5955" fill="#3618A6" fill-opacity="0.05"/>
<rect x="8.90853" y="8.83724" width="36.4045" height="36.4045" rx="18.2022" fill="white"/>
<rect x="8.90853" y="8.83724" width="36.4045" height="36.4045" rx="18.2022" stroke="#16085F" stroke-width="1.34831"/>
<circle cx="27.1099" cy="27.0396" r="12.0123" fill="#16085F" stroke="white" stroke-width="1.34831"/>
<g clip-path="url(#clip0_10193_35008)">
<path d="M24.8235 26.4677V24.1797C24.8235 23.5728 25.0645 22.9908 25.4936 22.5618C25.9227 22.1327 26.5047 21.8916 27.1115 21.8916C27.7183 21.8916 28.3003 22.1327 28.7294 22.5618C29.1585 22.9908 29.3996 23.5728 29.3996 24.1797V26.4677M23.1074 27.6117C23.1074 27.3083 23.228 27.0173 23.4425 26.8028C23.657 26.5882 23.948 26.4677 24.2514 26.4677H29.9716C30.275 26.4677 30.566 26.5882 30.7805 26.8028C30.9951 27.0173 31.1156 27.3083 31.1156 27.6117V31.0438C31.1156 31.3472 30.9951 31.6382 30.7805 31.8527C30.566 32.0673 30.275 32.1878 29.9716 32.1878H24.2514C23.948 32.1878 23.657 32.0673 23.4425 31.8527C23.228 31.6382 23.1074 31.3472 23.1074 31.0438V27.6117ZM26.5395 29.3278C26.5395 29.4795 26.5998 29.625 26.707 29.7322C26.8143 29.8395 26.9598 29.8998 27.1115 29.8998C27.2632 29.8998 27.4087 29.8395 27.516 29.7322C27.6233 29.625 27.6835 29.4795 27.6835 29.3278C27.6835 29.1761 27.6233 29.0306 27.516 28.9233C27.4087 28.816 27.2632 28.7557 27.1115 28.7557C26.9598 28.7557 26.8143 28.816 26.707 28.9233C26.5998 29.0306 26.5395 29.1761 26.5395 29.3278Z" stroke="white" stroke-width="1.01124" stroke-linecap="round" stroke-linejoin="round"/>
</g>
<defs>
<clipPath id="clip0_10193_35008">
<rect width="13.7283" height="13.7283" fill="white" transform="translate(20.2461 20.1758)"/>
</clipPath>
</defs>
</svg>
