<svg width="32" height="32" viewBox="0 0 32 32" fill="none" xmlns="http://www.w3.org/2000/svg">
<circle cx="16" cy="16" r="16" fill="#F7931A"/>
<path d="M23.0547 13.7207C23.3732 11.5917 21.7522 10.4472 19.5357 9.6837L20.2547 6.7997L18.4992 6.3622L17.7992 9.1702C17.3377 9.0552 16.8637 8.9467 16.3927 8.8392L17.0977 6.0127L15.3432 5.5752L14.6237 8.4582C14.2417 8.3712 13.8667 8.2852 13.5027 8.1947L13.5047 8.1857L11.0837 7.5812L10.6167 9.4562C10.6167 9.4562 11.9192 9.7547 11.8917 9.7732C12.6027 9.9507 12.7312 10.4212 12.7097 10.7942L11.8907 14.0797C11.9397 14.0922 12.0032 14.1102 12.0732 14.1382C12.0147 14.1237 11.9522 14.1077 11.8877 14.0922L10.7397 18.6947C10.6527 18.9107 10.4322 19.2347 9.93516 19.1117C9.95266 19.1372 8.65916 18.7932 8.65916 18.7932L7.78766 20.8027L10.0722 21.3722C10.4972 21.4787 10.9137 21.5902 11.3237 21.6952L10.5972 24.6122L12.3507 25.0497L13.0702 22.1637C13.5492 22.2937 14.0142 22.4137 14.4692 22.5267L13.7522 25.3992L15.5077 25.8367L16.2342 22.9252C19.2277 23.4917 21.4787 23.2632 22.4262 20.5557C23.1897 18.3757 22.3882 17.1182 20.8132 16.2982C21.9602 16.0337 22.8242 15.2792 23.0547 13.7207ZM19.0437 19.3452C18.5012 21.5252 14.8307 20.3467 13.6407 20.0512L14.6047 16.1867C15.7947 16.4837 19.6107 17.0717 19.0437 19.3452ZM19.5867 13.6892C19.0917 15.6722 16.0367 14.6647 15.0457 14.4177L15.9197 10.9127C16.9107 11.1597 20.1022 11.6207 19.5867 13.6892Z" fill="white"/>
</svg>
