<svg width="32" height="32" viewBox="0 0 32 32" fill="none" xmlns="http://www.w3.org/2000/svg">
<circle cx="16" cy="16" r="16" fill="#8C8C8C"/>
<path fill-rule="evenodd" clip-rule="evenodd" d="M18.8506 13.2869C18.7893 13.1817 18.798 13.0502 18.8681 12.945L21.7931 8.60497C21.8719 8.48222 21.8807 8.33317 21.8106 8.21042C21.7406 8.07891 21.6092 8.00877 21.4691 8.00877H20.3306C20.208 8.00877 20.0854 8.07014 20.0066 8.18412L16.5911 13.2694C16.5036 13.4009 16.3634 13.471 16.2058 13.471H15.7767C15.619 13.471 15.4789 13.3921 15.3914 13.2694L11.9934 8.17535C11.9234 8.06137 11.792 8 11.6694 8H10.5309C10.3908 8 10.2507 8.07891 10.1894 8.21042C10.1193 8.34194 10.1368 8.49099 10.2069 8.60497L13.1319 12.9538C13.202 13.0502 13.2107 13.1817 13.1494 13.2869C13.0881 13.4009 12.983 13.4623 12.8604 13.4623H8.38533C8.16639 13.4623 8 13.6376 8 13.8481V14.795C8 15.0142 8.17515 15.1808 8.38533 15.1808H23.6147C23.8336 15.1808 24 15.0054 24 14.795V13.8481C24 13.6464 23.8511 13.4886 23.6585 13.4623C23.6409 13.4623 23.6234 13.4623 23.6059 13.4623H19.1396C19.017 13.4623 18.9031 13.4009 18.8506 13.2869ZM15.4001 18.872L11.9847 23.9572C11.9146 24.0712 11.7833 24.1326 11.6606 24.1326H10.5222C10.382 24.1326 10.2507 24.0537 10.1806 23.9309C10.1106 23.8082 10.1193 23.6504 10.1981 23.5364L13.1144 19.1964C13.1845 19.0912 13.1932 18.9684 13.1319 18.8544C13.0706 18.7492 12.9655 18.6791 12.8429 18.6791H8.38533C8.17515 18.6791 8 18.5125 8 18.2933V17.3464C8 17.136 8.16639 16.9606 8.38533 16.9606H23.5796C23.5796 16.9606 23.6059 16.9606 23.6147 16.9606C23.8248 16.9606 24 17.1272 24 17.3464V18.2933C24 18.5037 23.8336 18.6791 23.6147 18.6791H19.1483C19.017 18.6791 18.9119 18.7404 18.8593 18.8544C18.798 18.9684 18.8068 19.0912 18.8768 19.1876L21.8019 23.5364C21.8719 23.6504 21.8894 23.7994 21.8194 23.9309C21.7493 24.0624 21.618 24.1413 21.4778 24.1413H20.3394C20.208 24.1413 20.0941 24.08 20.0241 23.9748L16.6086 18.8895C16.5211 18.758 16.381 18.6878 16.2233 18.6878H15.7942C15.6366 18.6878 15.4964 18.7667 15.4089 18.8895L15.4001 18.872Z" fill="white"/>
</svg>
