<svg width="20" height="21" viewBox="0 0 20 21" fill="none" xmlns="http://www.w3.org/2000/svg">
<path d="M4.55816 7.87455C4.76782 7.61229 4.91009 7.26021 4.87256 6.90039C4.56566 6.91563 4.19113 7.10289 3.9743 7.36533C3.77961 7.59003 3.6073 7.95687 3.65222 8.30163C3.99674 8.33151 4.34094 8.12943 4.55816 7.87455Z" fill="#6B6F80"/>
<path d="M4.86798 8.36919C4.36765 8.33937 3.94225 8.65317 3.70332 8.65317C3.46426 8.65317 3.09837 8.38419 2.70264 8.39145C2.18757 8.39901 1.70965 8.69025 1.44828 9.15345C0.910672 10.08 1.3064 11.4544 1.82919 12.2091C2.08307 12.5825 2.38904 12.9936 2.79221 12.9788C3.17312 12.9639 3.32243 12.7321 3.78545 12.7321C4.24814 12.7321 4.38263 12.9788 4.78585 12.9713C5.20401 12.9639 5.46543 12.5978 5.71931 12.2241C6.01055 11.7985 6.12978 11.3875 6.13728 11.365C6.12978 11.3575 5.33096 11.0511 5.32355 10.1322C5.31601 9.36273 5.95071 8.99679 5.98059 8.97411C5.62216 8.44395 5.06213 8.38419 4.86798 8.36919Z" fill="#6B6F80"/>
<path d="M9.22468 7.32812C10.3121 7.32812 11.0694 8.07771 11.0694 9.16905C11.0694 10.2643 10.2966 11.0178 9.19743 11.0178H7.99341V12.9325H7.12354V7.32812H9.22468ZM7.99341 10.2876H8.99157C9.74896 10.2876 10.18 9.87986 10.18 9.17294C10.18 8.46614 9.74896 8.06223 8.99548 8.06223H7.99341V10.2876Z" fill="#6B6F80"/>
<path d="M11.2959 11.7699C11.2959 11.0551 11.8435 10.6163 12.8145 10.5619L13.933 10.4959V10.1814C13.933 9.72692 13.6261 9.45506 13.1136 9.45506C12.628 9.45506 12.325 9.68804 12.2513 10.0532H11.459C11.5057 9.3152 12.1348 8.77148 13.1446 8.77148C14.135 8.77148 14.768 9.29582 14.768 10.1153V12.9311H13.964V12.2592H13.9447C13.7078 12.7136 13.1912 13.001 12.6553 13.001C11.8552 13.001 11.2959 12.5038 11.2959 11.7699ZM13.933 11.4009V11.0785L12.9271 11.1406C12.426 11.1756 12.1426 11.397 12.1426 11.7465C12.1426 12.1038 12.4377 12.3369 12.8882 12.3369C13.4747 12.3369 13.933 11.9329 13.933 11.4009Z" fill="#6B6F80"/>
<path d="M15.528 14.4346V13.7548C15.59 13.7704 15.7298 13.7704 15.7997 13.7704C16.1881 13.7704 16.3979 13.6073 16.526 13.1878C16.526 13.18 16.5998 12.9393 16.5998 12.9354L15.124 8.8457H16.0327L17.066 12.1703H17.0814L18.1146 8.8457H19.0001L17.4697 13.1451C17.1203 14.1355 16.7164 14.454 15.8698 14.454C15.7997 14.454 15.59 14.4462 15.528 14.4346Z" fill="#6B6F80"/>
</svg>
