<svg width="18" height="17" viewBox="0 0 18 17" fill="none" xmlns="http://www.w3.org/2000/svg">
<path d="M1.02539 8.50005C1.02539 12.9044 4.59568 16.4748 8.99995 16.4748C13.4043 16.4748 16.9748 12.9043 16.9748 8.50005C16.9748 4.09573 13.4043 0.525391 8.99995 0.525391C4.59568 0.525391 1.02539 4.09572 1.02539 8.50005Z" fill="#0C0C4F"/>
<path fill-rule="evenodd" clip-rule="evenodd" d="M0.818237 8.50003C0.818237 3.98131 4.48126 0.318237 8.99993 0.318237C13.5186 0.318237 17.1819 3.98131 17.1819 8.50003C17.1819 13.0187 13.5186 16.6819 8.99993 16.6819C4.48126 16.6819 0.818237 13.0188 0.818237 8.50003ZM8.99993 0.732512C4.71006 0.732512 1.23251 4.21011 1.23251 8.50003C1.23251 12.79 4.71006 16.2676 8.99993 16.2676C13.2899 16.2676 16.7676 12.7899 16.7676 8.50003C16.7676 4.21012 13.2899 0.732512 8.99993 0.732512Z" fill="url(#paint0_linear_29460_26937)"/>
<path fill-rule="evenodd" clip-rule="evenodd" d="M5.39122 6.57256L5.59319 5.94858C5.63424 5.82166 5.7344 5.72291 5.86178 5.68397L6.48881 5.49114C6.5756 5.46463 6.5763 5.34218 6.49022 5.31427L5.86601 5.11229C5.73933 5.07125 5.64057 4.97107 5.6014 4.8437L5.40881 4.21667C5.38231 4.13011 5.25986 4.12917 5.23194 4.21549L5.02997 4.83948C4.98892 4.96614 4.88876 5.06491 4.76138 5.10409L4.13435 5.29667C4.04756 5.32342 4.04662 5.44564 4.13294 5.47355L4.75715 5.67552C4.88383 5.71657 4.98259 5.81697 5.02176 5.94435L5.21435 6.57115C5.24085 6.65794 5.3633 6.65888 5.39122 6.57256Z" fill="#FAFAFA"/>
<path fill-rule="evenodd" clip-rule="evenodd" d="M15.3019 6.20932C15.0434 5.92026 14.64 5.75751 14.2478 5.69077C13.8525 5.62667 13.4379 5.63262 13.0477 5.70196C12.258 5.83554 11.5405 6.16253 10.9148 6.56592C10.5899 6.76389 10.3128 6.99296 10.0257 7.22626C9.88734 7.34424 9.76123 7.46989 9.62989 7.59374L9.271 7.95082C8.88104 8.35844 8.49668 8.72971 8.12479 9.03745C7.7514 9.34376 7.40231 9.57641 7.05828 9.73887C6.71447 9.90218 6.34658 9.99822 5.86708 10.0136C5.39179 10.0304 4.82946 9.94457 4.22796 9.80298C3.62323 9.66202 2.9882 9.46108 2.27856 9.28819C2.52617 9.97511 2.89904 10.5822 3.37776 11.1371C3.86209 11.6824 4.46687 12.1793 5.2438 12.5062C6.0095 12.8403 6.97175 12.9602 7.87148 12.7793C8.77359 12.6056 9.56524 12.1882 10.2051 11.7054C10.8467 11.2177 11.3657 10.6621 11.8033 10.0845C11.9241 9.92497 11.988 9.83566 12.0754 9.71093L12.317 9.35305C12.4849 9.13168 12.6377 8.87964 12.8039 8.66031C13.1297 8.20096 13.451 7.74214 13.8242 7.31944C14.0121 7.10504 14.2102 6.89997 14.4441 6.70288C14.5607 6.60669 14.6867 6.51255 14.8263 6.42774C14.968 6.33627 15.1177 6.26468 15.3019 6.20932Z" fill="url(#paint1_linear_29460_26937)"/>
<path fill-rule="evenodd" clip-rule="evenodd" d="M15.3019 6.20928C15.0242 5.50854 14.508 4.91867 13.815 4.4834C13.1263 4.05291 12.1697 3.83322 11.2218 4.02049C10.7535 4.11106 10.2998 4.28543 9.90169 4.51763C9.50536 4.74891 9.1502 5.02733 8.84274 5.32601C8.68926 5.47585 8.54994 5.63216 8.41153 5.78935L8.05279 6.24672L7.49872 6.98298C6.79236 7.93026 6.03171 9.04041 4.78343 9.36936C3.55799 9.6923 3.0265 9.40629 2.27856 9.28814C2.41533 9.64122 2.58472 9.98411 2.81437 10.2858C3.03974 10.5935 3.30595 10.8825 3.63691 11.1304C3.80416 11.2494 3.98075 11.3668 4.17686 11.4664C4.37209 11.5627 4.58263 11.6474 4.80735 11.7111C5.25434 11.8336 5.75759 11.8766 6.24484 11.8106C6.73232 11.7456 7.19827 11.5911 7.60556 11.386C8.01585 11.1827 8.37326 10.9351 8.69241 10.674C9.32681 10.1471 9.82026 9.56498 10.2371 8.97655C10.4468 8.68236 10.6371 8.38261 10.8131 8.08278L11.0202 7.72582C11.0836 7.62147 11.1476 7.51648 11.2127 7.41872C11.4752 7.02588 11.7319 6.7109 12.0438 6.47447C12.3513 6.23193 12.7795 6.05274 13.3517 6.01111C13.9216 5.96898 14.5794 6.0468 15.3019 6.20928Z" fill="#FAFAFA"/>
<path fill-rule="evenodd" clip-rule="evenodd" d="M12.219 12.0316C12.219 12.5463 12.6365 12.9637 13.1511 12.9637C13.6658 12.9637 14.0827 12.5463 14.0827 12.0316C14.0827 11.517 13.6658 11.0995 13.1511 11.0995C12.6365 11.0995 12.219 11.517 12.219 12.0316Z" fill="url(#paint2_linear_29460_26937)"/>
<defs>
<linearGradient id="paint0_linear_29460_26937" x1="16.3015" y1="4.51277" x2="1.45084" y2="7.26834" gradientUnits="userSpaceOnUse">
<stop stop-color="#EC796B"/>
<stop offset="1" stop-color="#E175B1"/>
</linearGradient>
<linearGradient id="paint1_linear_29460_26937" x1="15.2323" y1="5.96345" x2="3.76982" y2="12.3323" gradientUnits="userSpaceOnUse">
<stop stop-color="#EC796B"/>
<stop offset="1" stop-color="#E175B1"/>
</linearGradient>
<linearGradient id="paint2_linear_29460_26937" x1="14.0821" y1="11.3778" x2="12.2178" y2="11.575" gradientUnits="userSpaceOnUse">
<stop stop-color="#EC796B"/>
<stop offset="1" stop-color="#E175B1"/>
</linearGradient>
</defs>
</svg>
