<svg width="279" height="35" viewBox="0 0 279 35" fill="none" xmlns="http://www.w3.org/2000/svg">
<g clip-path="url(#clip0_13449_220824)">
<path d="M30.0001 0H50V19.9999H45.0002V9.99965H40.0004V4.99982H30.0001V0ZM34.9999 15.0001V10.0002H39.9998V15.0001H34.9999ZM30.0001 19.9999V15.0001H34.9999V19.9999H30.0001ZM25.0003 19.9999H30.0001V24.9997H25.0003V19.9999ZM19.9999 15.0001H24.9997V19.9999H19.9999V15.0001ZM15.0001 15.0001V10.0002H19.9999V15.0001H15.0001ZM10.0002 19.9999V15.0001H15.0001V19.9999H10.0002ZM4.99982 25.0003V20.0005H9.99965V25.0003H4.99982ZM4.99982 25.0003V30.0001H0V25.0003H4.99982Z" fill="#55E078"/>
</g>
<path d="M61.5 25.7153V21.4307H65.7847V25.7153H61.5ZM82.9233 8.57666V4.29199H87.208V8.57666H82.9233ZM65.7847 30V25.7153H78.6387V17.146H65.7847V12.8613H61.5V4.29199H65.7847V0H82.9233V4.29199H70.0693V12.8613H82.9233V17.146H87.208V25.7153H82.9233V30H65.7847ZM92.4375 30V4.29199H96.7222V0H113.861V4.29199H101.007V12.8613H113.861V4.29199H118.146V30H113.861V17.146H101.007V30H92.4375ZM131.944 30V4.29199H123.375V0H149.083V4.29199H140.514V30H131.944ZM154.312 25.7153V21.4307H158.597V25.7153H154.312ZM175.736 8.57666V4.29199H180.021V8.57666H175.736ZM158.597 30V25.7153H171.451V17.146H158.597V12.8613H154.312V4.29199H158.597V0H175.736V4.29199H162.882V12.8613H175.736V17.146H180.021V25.7153H175.736V30H158.597ZM206.673 25.7153V4.29199H210.958V25.7153H206.673ZM185.25 30V0H206.673V4.29199H193.819V25.7153H206.673V30H185.25ZM216.188 30V4.29199H220.472V0H237.611V4.29199H224.757V12.8613H237.611V4.29199H241.896V30H237.611V17.146H224.757V30H216.188ZM268.548 25.7153V4.29199H272.833V25.7153H268.548ZM259.979 34.2847V30H251.41V25.7153H247.125V4.29199H251.41V0H268.548V4.29199H255.694V25.7153H259.979V17.146H264.264V25.7153H268.548V30H264.264V34.2847H259.979Z" fill="white"/>
<defs>
<clipPath id="clip0_13449_220824">
<rect width="50" height="30.0001" fill="white"/>
</clipPath>
</defs>
</svg>
