<svg width="42" height="42" viewBox="0 0 42 42" fill="none" xmlns="http://www.w3.org/2000/svg">
<rect x="18.833" y="18.833" width="22.6667" height="22.6668" rx="11.3333" stroke="#2D2D2D"/>
<path d="M19.6074 30.1665C19.6074 35.9983 24.3347 40.7257 30.1663 40.7257C35.998 40.7257 40.7256 35.9982 40.7256 30.1665C40.7256 24.3349 35.998 19.6074 30.1663 19.6074C24.3347 19.6074 19.6074 24.3348 19.6074 30.1665Z" fill="#0C0C4F"/>
<path fill-rule="evenodd" clip-rule="evenodd" d="M19.333 30.1664C19.333 24.1832 24.1831 19.333 30.1662 19.333C36.1493 19.333 40.9997 24.1832 40.9997 30.1664C40.9997 36.1495 36.1493 40.9999 30.1662 40.9999C24.1831 40.9999 19.333 36.1496 19.333 30.1664ZM30.1662 19.8815C24.4861 19.8815 19.8815 24.4862 19.8815 30.1664C19.8815 35.8467 24.4861 40.4513 30.1662 40.4513C35.8464 40.4513 40.4512 35.8466 40.4512 30.1664C40.4512 24.4862 35.8464 19.8815 30.1662 19.8815Z" fill="url(#paint0_linear_26618_107266)"/>
<path fill-rule="evenodd" clip-rule="evenodd" d="M25.3878 27.6142L25.6552 26.788C25.7096 26.62 25.8422 26.4892 26.0109 26.4377L26.8411 26.1823C26.956 26.1472 26.9569 25.9851 26.843 25.9481L26.0165 25.6807C25.8487 25.6264 25.718 25.4937 25.6661 25.3251L25.4111 24.4948C25.376 24.3802 25.2139 24.379 25.1769 24.4933L24.9095 25.3195C24.8551 25.4872 24.7225 25.618 24.5538 25.6698L23.7236 25.9248C23.6087 25.9603 23.6074 26.1221 23.7217 26.159L24.5482 26.4265C24.716 26.4808 24.8467 26.6138 24.8986 26.7824L25.1536 27.6124C25.1887 27.7273 25.3508 27.7285 25.3878 27.6142Z" fill="#FAFAFA"/>
<path fill-rule="evenodd" clip-rule="evenodd" d="M38.5105 27.1334C38.1682 26.7507 37.6341 26.5352 37.1148 26.4468C36.5913 26.3619 36.0424 26.3698 35.5257 26.4616C34.4801 26.6385 33.5302 27.0715 32.7016 27.6056C32.2714 27.8677 31.9045 28.171 31.5243 28.4799C31.3412 28.6362 31.1742 28.8025 31.0003 28.9665L30.5251 29.4393C30.0088 29.979 29.4999 30.4706 29.0074 30.8781C28.513 31.2837 28.0508 31.5917 27.5953 31.8069C27.1401 32.0231 26.653 32.1502 26.0181 32.1706C25.3887 32.1928 24.6442 32.0792 23.8477 31.8917C23.047 31.7051 22.2062 31.439 21.2666 31.2101C21.5945 32.1197 22.0882 32.9234 22.722 33.6582C23.3633 34.3802 24.1641 35.0382 25.1928 35.471C26.2066 35.9134 27.4807 36.0722 28.672 35.8326C29.8665 35.6027 30.9147 35.05 31.762 34.4107C32.6114 33.7649 33.2987 33.0293 33.8781 32.2645C34.0379 32.0533 34.1226 31.935 34.2383 31.7699L34.5582 31.296C34.7805 31.0029 34.9829 30.6692 35.2029 30.3787C35.6343 29.7705 36.0597 29.163 36.5539 28.6033C36.8026 28.3194 37.065 28.0479 37.3746 27.7869C37.529 27.6596 37.6959 27.5349 37.8808 27.4226C38.0684 27.3015 38.2665 27.2067 38.5105 27.1334Z" fill="url(#paint1_linear_26618_107266)"/>
<path fill-rule="evenodd" clip-rule="evenodd" d="M38.5105 27.1327C38.1428 26.2048 37.4592 25.4238 36.5417 24.8475C35.6298 24.2775 34.3632 23.9866 33.1081 24.2345C32.4881 24.3545 31.8873 24.5853 31.3602 24.8928C30.8354 25.199 30.3652 25.5677 29.9581 25.9632C29.7548 26.1616 29.5704 26.3685 29.3871 26.5767L28.9121 27.1823L28.1785 28.1571C27.2432 29.4114 26.236 30.8813 24.5832 31.3169C22.9607 31.7445 22.2569 31.3658 21.2666 31.2094C21.4477 31.6769 21.672 32.1309 21.976 32.5303C22.2745 32.9378 22.6269 33.3205 23.0652 33.6486C23.2866 33.8062 23.5204 33.9617 23.7801 34.0936C24.0386 34.221 24.3174 34.3332 24.6149 34.4175C25.2068 34.5798 25.8731 34.6367 26.5182 34.5493C27.1637 34.4632 27.7807 34.2587 28.3199 33.9871C28.8632 33.7179 29.3364 33.3901 29.759 33.0443C30.599 32.3467 31.2524 31.5759 31.8043 30.7968C32.0819 30.4072 32.3339 30.0104 32.5669 29.6134L32.8412 29.1407C32.9251 29.0025 33.0099 28.8635 33.096 28.7341C33.4436 28.2139 33.7836 27.7969 34.1965 27.4838C34.6036 27.1627 35.1706 26.9254 35.9283 26.8703C36.6828 26.8145 37.5538 26.9176 38.5105 27.1327Z" fill="#FAFAFA"/>
<path fill-rule="evenodd" clip-rule="evenodd" d="M34.4287 34.8426C34.4287 35.5242 34.9815 36.0768 35.6629 36.0768C36.3444 36.0768 36.8964 35.5242 36.8964 34.8426C36.8964 34.1612 36.3444 33.6084 35.6629 33.6084C34.9815 33.6084 34.4287 34.1612 34.4287 34.8426Z" fill="url(#paint2_linear_26618_107266)"/>
<rect x="0.5" y="18.833" width="22.6667" height="22.6668" rx="11.3333" stroke="#2D2D2D"/>
<ellipse cx="11.8333" cy="30.1664" rx="10.8333" ry="10.8334" fill="#FC6432"/>
<path fill-rule="evenodd" clip-rule="evenodd" d="M13.7637 28.3297C13.7222 28.2585 13.7282 28.1694 13.7756 28.0982L15.7561 25.1596C15.8094 25.0765 15.8154 24.9756 15.7679 24.8925C15.7205 24.8034 15.6316 24.7559 15.5367 24.7559H14.7658C14.6828 24.7559 14.5998 24.7975 14.5464 24.8747L12.2339 28.3178C12.1746 28.4069 12.0797 28.4544 11.973 28.4544H11.6825C11.5757 28.4544 11.4808 28.401 11.4216 28.3178L9.12088 24.8687C9.07344 24.7916 8.9845 24.75 8.90148 24.75H8.13064C8.03577 24.75 7.94089 24.8034 7.89939 24.8925C7.85195 24.9815 7.86381 25.0824 7.91125 25.1596L9.89172 28.1041C9.93916 28.1694 9.94509 28.2585 9.90358 28.3297C9.86208 28.4069 9.79092 28.4485 9.70791 28.4485H6.67789C6.52965 28.4485 6.41699 28.5672 6.41699 28.7097V29.3508C6.41699 29.4992 6.53558 29.612 6.67789 29.612H16.9894C17.1377 29.612 17.2503 29.4933 17.2503 29.3508V28.7097C17.2503 28.5731 17.1495 28.4663 17.0191 28.4485C17.0072 28.4485 16.9954 28.4485 16.9835 28.4485H13.9594C13.8764 28.4485 13.7993 28.4069 13.7637 28.3297ZM11.4275 32.1113L9.11495 35.5545C9.06751 35.6316 8.97857 35.6732 8.89556 35.6732H8.12471C8.02984 35.6732 7.94089 35.6198 7.89346 35.5367C7.84602 35.4535 7.85195 35.3467 7.90532 35.2695L9.87986 32.3309C9.9273 32.2597 9.93323 32.1766 9.89172 32.0994C9.85022 32.0282 9.77906 31.9807 9.69605 31.9807H6.67789C6.53558 31.9807 6.41699 31.8679 6.41699 31.7195V31.0783C6.41699 30.9359 6.52965 30.8171 6.67789 30.8171H16.9657C16.9657 30.8171 16.9835 30.8171 16.9894 30.8171C17.1317 30.8171 17.2503 30.9299 17.2503 31.0783V31.7195C17.2503 31.8619 17.1377 31.9807 16.9894 31.9807H13.9653C13.8764 31.9807 13.8052 32.0222 13.7697 32.0994C13.7282 32.1766 13.7341 32.2597 13.7815 32.325L15.762 35.2695C15.8094 35.3467 15.8213 35.4476 15.7739 35.5367C15.7264 35.6257 15.6375 35.6791 15.5426 35.6791H14.7718C14.6828 35.6791 14.6057 35.6376 14.5583 35.5663L12.2458 32.1232C12.1865 32.0341 12.0916 31.9866 11.9849 31.9866H11.6943C11.5876 31.9866 11.4927 32.04 11.4334 32.1232L11.4275 32.1113Z" fill="white"/>
<rect x="10.5" y="0.5" width="22.6667" height="22.6668" rx="11.3333" stroke="#2D2D2D"/>
<ellipse cx="21.8333" cy="11.8334" rx="10.8333" ry="10.8334" fill="#F7931A"/>
<path d="M26.6095 10.2896C26.8251 8.84812 25.7276 8.07319 24.2268 7.55623L24.7137 5.60351L23.525 5.30728L23.0511 7.20855C22.7386 7.13068 22.4177 7.05722 22.0988 6.98443L22.5761 5.07064L21.3882 4.77441L20.901 6.72646C20.6424 6.66755 20.3885 6.60932 20.142 6.54805L20.1433 6.54195L18.5041 6.13265L18.1879 7.4022C18.1879 7.4022 19.0698 7.60431 19.0512 7.61683C19.5326 7.73702 19.6196 8.05559 19.6051 8.30814L19.0505 10.5327C19.0837 10.5412 19.1267 10.5534 19.1741 10.5723C19.1345 10.5625 19.0922 10.5517 19.0485 10.5412L18.2712 13.6575C18.2123 13.8037 18.063 14.0231 17.7265 13.9398C17.7383 13.9571 16.8625 13.7242 16.8625 13.7242L16.2725 15.0848L17.8193 15.4704C18.107 15.5425 18.389 15.618 18.6666 15.6891L18.1747 17.6642L19.362 17.9604L19.8492 16.0063C20.1735 16.0943 20.4883 16.1756 20.7964 16.2521L20.3109 18.197L21.4995 18.4932L21.9914 16.5219C24.0183 16.9055 25.5424 16.7508 26.1839 14.9175C26.7009 13.4415 26.1582 12.5901 25.0918 12.0348C25.8684 11.8557 26.4534 11.3449 26.6095 10.2896ZM23.8937 14.0979C23.5264 15.574 21.0412 14.776 20.2354 14.576L20.8881 11.9593C21.6939 12.1604 24.2776 12.5586 23.8937 14.0979ZM24.2614 10.2683C23.9262 11.611 21.8577 10.9288 21.1867 10.7616L21.7785 8.38838C22.4495 8.55562 24.6104 8.86775 24.2614 10.2683Z" fill="white"/>
<defs>
<linearGradient id="paint0_linear_26618_107266" x1="39.8341" y1="24.8869" x2="20.1706" y2="28.5355" gradientUnits="userSpaceOnUse">
<stop stop-color="#EC796B"/>
<stop offset="1" stop-color="#E175B1"/>
</linearGradient>
<linearGradient id="paint1_linear_26618_107266" x1="38.4183" y1="26.8079" x2="23.2411" y2="35.2406" gradientUnits="userSpaceOnUse">
<stop stop-color="#EC796B"/>
<stop offset="1" stop-color="#E175B1"/>
</linearGradient>
<linearGradient id="paint2_linear_26618_107266" x1="36.8956" y1="33.9769" x2="34.4271" y2="34.238" gradientUnits="userSpaceOnUse">
<stop stop-color="#EC796B"/>
<stop offset="1" stop-color="#E175B1"/>
</linearGradient>
</defs>
</svg>
