<?xml version="1.0" encoding="utf-8"?>
<svg width="42" height="32" viewBox="0 0 42 32" fill="none" xmlns="http://www.w3.org/2000/svg">
  <circle cx="16" cy="16" r="15.25" stroke="white" stroke-width="1.5"/>
  <circle cx="16" cy="16" r="8" fill="white"/>
  <circle cx="32.0002" cy="22.0002" r="8.18182" fill="#F7931A"/>
  <path d="M35.6078 20.8347C35.7706 19.7461 34.9417 19.1608 33.8083 18.7704L34.176 17.2956L33.2783 17.0719L32.9203 18.5078C32.6843 18.449 32.4419 18.3935 32.2011 18.3385L32.5616 16.8932L31.6644 16.6694L31.2965 18.1437C31.1011 18.0992 30.9094 18.0552 30.7232 18.009L30.7242 18.0043L29.4862 17.6952L29.2474 18.654C29.2474 18.654 29.9135 18.8067 29.8994 18.8161C30.263 18.9069 30.3287 19.1475 30.3177 19.3382L29.8989 21.0183C29.924 21.0247 29.9564 21.0339 29.9922 21.0482C29.9623 21.0408 29.9304 21.0326 29.8974 21.0247L29.3103 23.3783C29.2658 23.4887 29.1531 23.6544 28.8989 23.5915C28.9079 23.6045 28.2464 23.4286 28.2464 23.4286L27.8008 24.4562L28.969 24.7474C29.1863 24.8019 29.3993 24.8589 29.609 24.9126L29.2375 26.4043L30.1341 26.628L30.5021 25.1522C30.747 25.2187 30.9848 25.28 31.2175 25.3378L30.8508 26.8067L31.7485 27.0304L32.12 25.5416C33.6508 25.8313 34.8019 25.7144 35.2864 24.3299C35.6768 23.2151 35.2669 22.5721 34.4615 22.1528C35.0481 22.0175 35.4899 21.6317 35.6078 20.8347ZM33.5567 23.7109C33.2793 24.8257 31.4023 24.223 30.7938 24.0719L31.2867 22.0958C31.8953 22.2476 33.8466 22.5483 33.5567 23.7109ZM33.8344 20.8186C33.5812 21.8327 32.019 21.3175 31.5123 21.1912L31.9592 19.3988C32.466 19.5251 34.098 19.7609 33.8344 20.8186Z" fill="white"/>
  <circle cx="32.0002" cy="22.0002" r="9.09091" style="stroke: rgb(57, 62, 70); stroke-width: 2px;"/>
</svg>