<svg width="28" height="28" viewBox="0 0 28 28" fill="none" xmlns="http://www.w3.org/2000/svg">
<path d="M12.752 10.25V2.75C12.752 2.08696 12.4886 1.45107 12.0197 0.982233C11.5509 0.513392 10.915 0.25 10.252 0.25H2.75195C2.08891 0.25 1.45303 0.513392 0.984186 0.982233C0.515345 1.45107 0.251953 2.08696 0.251953 2.75V10.25C0.251953 10.913 0.515345 11.5489 0.984186 12.0178C1.45303 12.4866 2.08891 12.75 2.75195 12.75H10.252C10.915 12.75 11.5509 12.4866 12.0197 12.0178C12.4886 11.5489 12.752 10.913 12.752 10.25Z" fill="#EF883B"/>
<path d="M12.752 25.333V17.833C12.752 17.17 12.4886 16.5341 12.0197 16.0652C11.5509 15.5964 10.915 15.333 10.252 15.333H2.75195C2.08891 15.333 1.45303 15.5964 0.984186 16.0652C0.515345 16.5341 0.251953 17.17 0.251953 17.833V25.333C0.251953 25.996 0.515345 26.6319 0.984186 27.1008C1.45303 27.5696 2.08891 27.833 2.75195 27.833H10.252C10.915 27.833 11.5509 27.5696 12.0197 27.1008C12.4886 26.6319 12.752 25.996 12.752 25.333Z" fill="white" fill-opacity="0.2"/>
<path d="M27.667 10.25V2.75C27.667 2.08696 27.4036 1.45107 26.9348 0.982233C26.4659 0.513392 25.83 0.25 25.167 0.25H17.667C17.004 0.25 16.3681 0.513392 15.8992 0.982233C15.4304 1.45107 15.167 2.08696 15.167 2.75V10.25C15.167 10.913 15.4304 11.5489 15.8992 12.0178C16.3681 12.4866 17.004 12.75 17.667 12.75H25.167C25.83 12.75 26.4659 12.4866 26.9348 12.0178C27.4036 11.5489 27.667 10.913 27.667 10.25Z" fill="#6E54CB"/>
<path d="M27.667 25.333V17.833C27.667 17.17 27.4036 16.5341 26.9348 16.0652C26.4659 15.5964 25.83 15.333 25.167 15.333H17.667C17.004 15.333 16.3681 15.5964 15.8992 16.0652C15.4304 16.5341 15.167 17.17 15.167 17.833V25.333C15.167 25.996 15.4304 26.6319 15.8992 27.1008C16.3681 27.5696 17.004 27.833 17.667 27.833H25.167C25.83 27.833 26.4659 27.5696 26.9348 27.1008C27.4036 26.6319 27.667 25.996 27.667 25.333Z" fill="#FD560E"/>
</svg>
