<svg width="32" height="32" viewBox="0 0 32 32" fill="none" xmlns="http://www.w3.org/2000/svg">
<mask id="mask0_42290_29168" style="mask-type:alpha" maskUnits="userSpaceOnUse" x="0" y="0" width="32" height="32">
<ellipse cx="15.999" cy="15.9992" rx="15.999" ry="15.9992" fill="#D9D9D9"/>
</mask>
<g mask="url(#mask0_42290_29168)">
<ellipse cx="15.999" cy="15.9982" rx="15.999" ry="15.9992" fill="#46C693"/>
</g>
<g clip-path="url(#clip0_42290_29168)">
<path d="M25.0837 7.64394L24.293 8.43467C26.1798 10.498 27.2261 13.1928 27.2261 15.9888C27.2261 18.7848 26.1798 21.4796 24.293 23.543L25.0837 24.3337C27.182 22.0577 28.347 19.0753 28.347 15.9796C28.347 12.8839 27.182 9.90154 25.0837 7.62549V7.64394Z" fill="white"/>
<path d="M8.45371 7.71227C10.5171 5.82544 13.2118 4.7791 16.0078 4.7791C18.8037 4.7791 21.4985 5.82544 23.5618 7.71227L24.3525 6.92153C22.0765 4.82318 19.0942 3.6582 15.9985 3.6582C12.9029 3.6582 9.92055 4.82318 7.64453 6.92153L8.45371 7.71227Z" fill="white"/>
<path d="M7.71417 23.5508C5.8296 21.4879 4.78465 18.7948 4.78465 16.0006C4.78465 13.2065 5.8296 10.5133 7.71417 8.4504L6.92344 7.65967C4.82512 9.93572 3.66016 12.9181 3.66016 16.0138C3.66016 19.1095 4.82512 22.0918 6.92344 24.3679L7.71417 23.5508Z" fill="white"/>
<path d="M23.5512 24.2812C21.4878 26.1681 18.7931 27.2144 15.9971 27.2144C13.2012 27.2144 10.5064 26.1681 8.44307 24.2812L7.65234 25.072C9.92836 27.1703 12.9107 28.3353 16.0064 28.3353C19.102 28.3353 22.0843 27.1703 24.3604 25.072L23.5512 24.2812Z" fill="white"/>
<path d="M20.992 13.361C20.8338 11.711 19.4105 11.1575 17.6103 10.9888V8.7168H16.2186V10.9467C15.8523 10.9467 15.478 10.9467 15.1064 10.9467V8.7168H13.7252V11.0047H10.9023V12.4939C10.9023 12.4939 11.9303 12.4754 11.9145 12.4939C12.0998 12.4735 12.2858 12.5258 12.4333 12.6399C12.5808 12.754 12.6783 12.9209 12.7052 13.1054V19.368C12.7012 19.4331 12.6843 19.4967 12.6553 19.5551C12.6263 19.6135 12.5859 19.6655 12.5365 19.708C12.488 19.7513 12.4313 19.7844 12.3697 19.8053C12.3081 19.8261 12.2429 19.8343 12.178 19.8293C12.1965 19.8451 11.1659 19.8293 11.1659 19.8293L10.9023 21.4924H13.6989V23.8172H15.0905V21.5267H16.2028V23.8067H17.5971V21.5082C19.9482 21.3659 21.5877 20.786 21.7933 18.5852C21.9593 16.8139 21.1264 16.0232 19.7954 15.7043C20.6045 15.3063 21.1053 14.5682 20.992 13.361ZM19.0415 18.311C19.0415 20.0401 16.079 19.8424 15.1354 19.8424V16.7744C16.079 16.777 19.0415 16.5055 19.0415 18.311ZM18.3958 13.9884C18.3958 15.5698 15.9234 15.3774 15.138 15.3774V12.5888C15.9234 12.5888 18.3958 12.341 18.3958 13.9884Z" fill="white"/>
<path d="M15.998 30.3987C13.1504 30.3981 10.3668 29.5533 7.99931 27.9709C5.6318 26.3884 3.78664 24.1396 2.69713 21.5085C1.60762 18.8775 1.3227 15.9825 1.87837 13.1896C2.43405 10.3966 3.80538 7.83117 5.81897 5.81756C7.83256 3.80394 10.398 2.43259 13.1909 1.87691C15.9838 1.32123 18.8788 1.60616 21.5097 2.69568C24.1407 3.7852 26.3896 5.63038 27.972 7.99793C29.5544 10.3655 30.3992 13.1491 30.3998 15.9967C30.4001 17.8881 30.0278 19.7611 29.3042 21.5085C28.5806 23.256 27.5198 24.8438 26.1824 26.1812C24.845 27.5186 23.2572 28.5794 21.5097 29.3031C19.7623 30.0267 17.8894 30.399 15.998 30.3987ZM15.998 2.72295C13.3745 2.72503 10.8104 3.50486 8.62995 4.96386C6.44948 6.42285 4.75048 8.49553 3.74769 10.9199C2.7449 13.3443 2.48334 16.0116 2.99606 18.5846C3.50879 21.1576 4.77278 23.5208 6.62829 25.3756C8.48379 27.2304 10.8475 28.4935 13.4207 29.0052C15.9939 29.5169 18.661 29.2543 21.0849 28.2505C23.5089 27.2467 25.5809 25.5469 27.039 23.3658C28.4971 21.1847 29.2759 18.6203 29.2769 15.9967C29.2776 14.253 28.9346 12.5262 28.2674 10.915C27.6003 9.30394 26.6221 7.84014 25.3889 6.60734C24.1556 5.37455 22.6914 4.39695 21.0801 3.73043C19.4687 3.06391 17.7418 2.72156 15.998 2.72295Z" fill="white"/>
</g>
<defs>
<clipPath id="clip0_42290_29168">
<rect width="28.7982" height="28.7986" fill="white" transform="translate(1.60156 1.6001)"/>
</clipPath>
</defs>
</svg>
