<svg width="48" height="48" viewBox="0 0 48 48" fill="none" xmlns="http://www.w3.org/2000/svg">
<rect width="48" height="48" rx="8" fill="#2D2D2D"/>
<path d="M26.0625 15.75C26.0625 15.8992 26.0032 16.0423 25.8977 16.1477C25.7923 16.2532 25.6492 16.3125 25.5 16.3125H22.5C22.3508 16.3125 22.2077 16.2532 22.1023 16.1477C21.9968 16.0423 21.9375 15.8992 21.9375 15.75C21.9375 15.6008 21.9968 15.4577 22.1023 15.3523C22.2077 15.2468 22.3508 15.1875 22.5 15.1875H25.5C25.6492 15.1875 25.7923 15.2468 25.8977 15.3523C26.0032 15.4577 26.0625 15.6008 26.0625 15.75ZM25.5 31.6875H22.5C22.3508 31.6875 22.2077 31.7468 22.1023 31.8523C21.9968 31.9577 21.9375 32.1008 21.9375 32.25C21.9375 32.3992 21.9968 32.5423 22.1023 32.6477C22.2077 32.7532 22.3508 32.8125 22.5 32.8125H25.5C25.6492 32.8125 25.7923 32.7532 25.8977 32.6477C26.0032 32.5423 26.0625 32.3992 26.0625 32.25C26.0625 32.1008 26.0032 31.9577 25.8977 31.8523C25.7923 31.7468 25.6492 31.6875 25.5 31.6875ZM31.5 15.1875H29.25C29.1008 15.1875 28.9577 15.2468 28.8523 15.3523C28.7468 15.4577 28.6875 15.6008 28.6875 15.75C28.6875 15.8992 28.7468 16.0423 28.8523 16.1477C28.9577 16.2532 29.1008 16.3125 29.25 16.3125H31.5C31.5497 16.3125 31.5974 16.3323 31.6326 16.3674C31.6677 16.4026 31.6875 16.4503 31.6875 16.5V18.75C31.6875 18.8992 31.7468 19.0423 31.8523 19.1477C31.9577 19.2532 32.1008 19.3125 32.25 19.3125C32.3992 19.3125 32.5423 19.2532 32.6477 19.1477C32.7532 19.0423 32.8125 18.8992 32.8125 18.75V16.5C32.8125 16.1519 32.6742 15.8181 32.4281 15.5719C32.1819 15.3258 31.8481 15.1875 31.5 15.1875ZM32.25 21.9375C32.1008 21.9375 31.9577 21.9968 31.8523 22.1023C31.7468 22.2077 31.6875 22.3508 31.6875 22.5V25.5C31.6875 25.6492 31.7468 25.7923 31.8523 25.8977C31.9577 26.0032 32.1008 26.0625 32.25 26.0625C32.3992 26.0625 32.5423 26.0032 32.6477 25.8977C32.7532 25.7923 32.8125 25.6492 32.8125 25.5V22.5C32.8125 22.3508 32.7532 22.2077 32.6477 22.1023C32.5423 21.9968 32.3992 21.9375 32.25 21.9375ZM32.25 28.6875C32.1008 28.6875 31.9577 28.7468 31.8523 28.8523C31.7468 28.9577 31.6875 29.1008 31.6875 29.25V31.5C31.6875 31.5497 31.6677 31.5974 31.6326 31.6326C31.5974 31.6677 31.5497 31.6875 31.5 31.6875H29.25C29.1008 31.6875 28.9577 31.7468 28.8523 31.8523C28.7468 31.9577 28.6875 32.1008 28.6875 32.25C28.6875 32.3992 28.7468 32.5423 28.8523 32.6477C28.9577 32.7532 29.1008 32.8125 29.25 32.8125H31.5C31.8481 32.8125 32.1819 32.6742 32.4281 32.4281C32.6742 32.1819 32.8125 31.8481 32.8125 31.5V29.25C32.8125 29.1008 32.7532 28.9577 32.6477 28.8523C32.5423 28.7468 32.3992 28.6875 32.25 28.6875ZM15.75 26.0625C15.8992 26.0625 16.0423 26.0032 16.1477 25.8977C16.2532 25.7923 16.3125 25.6492 16.3125 25.5V22.5C16.3125 22.3508 16.2532 22.2077 16.1477 22.1023C16.0423 21.9968 15.8992 21.9375 15.75 21.9375C15.6008 21.9375 15.4577 21.9968 15.3523 22.1023C15.2468 22.2077 15.1875 22.3508 15.1875 22.5V25.5C15.1875 25.6492 15.2468 25.7923 15.3523 25.8977C15.4577 26.0032 15.6008 26.0625 15.75 26.0625ZM18.75 31.6875H16.5C16.4503 31.6875 16.4026 31.6677 16.3674 31.6326C16.3323 31.5974 16.3125 31.5497 16.3125 31.5V29.25C16.3125 29.1008 16.2532 28.9577 16.1477 28.8523C16.0423 28.7468 15.8992 28.6875 15.75 28.6875C15.6008 28.6875 15.4577 28.7468 15.3523 28.8523C15.2468 28.9577 15.1875 29.1008 15.1875 29.25V31.5C15.1875 31.8481 15.3258 32.1819 15.5719 32.4281C15.8181 32.6742 16.1519 32.8125 16.5 32.8125H18.75C18.8992 32.8125 19.0423 32.7532 19.1477 32.6477C19.2532 32.5423 19.3125 32.3992 19.3125 32.25C19.3125 32.1008 19.2532 31.9577 19.1477 31.8523C19.0423 31.7468 18.8992 31.6875 18.75 31.6875ZM18.75 15.1875H16.5C16.1519 15.1875 15.8181 15.3258 15.5719 15.5719C15.3258 15.8181 15.1875 16.1519 15.1875 16.5V18.75C15.1875 18.8992 15.2468 19.0423 15.3523 19.1477C15.4577 19.2532 15.6008 19.3125 15.75 19.3125C15.8992 19.3125 16.0423 19.2532 16.1477 19.1477C16.2532 19.0423 16.3125 18.8992 16.3125 18.75V16.5C16.3125 16.4503 16.3323 16.4026 16.3674 16.3674C16.4026 16.3323 16.4503 16.3125 16.5 16.3125H18.75C18.8992 16.3125 19.0423 16.2532 19.1477 16.1477C19.2532 16.0423 19.3125 15.8992 19.3125 15.75C19.3125 15.6008 19.2532 15.4577 19.1477 15.3523C19.0423 15.2468 18.8992 15.1875 18.75 15.1875Z" fill="white" fill-opacity="0.2"/>
</svg>
