<svg width="343" height="168" viewBox="0 0 343 168" fill="none" xmlns="http://www.w3.org/2000/svg">
<g opacity="0.15" clip-path="url(#clip0_14357_206361)">
<path d="M294.957 167.738H290.862V171.72H294.957V167.738Z" fill="white"/>
<path d="M290.862 167.738H286.768V171.72H290.862V167.738Z" fill="white"/>
<path d="M286.767 167.738H282.673V171.72H286.767V167.738Z" fill="white"/>
<path d="M282.675 167.738H278.58V171.72H282.675V167.738Z" fill="white"/>
<path d="M254.017 167.738H249.922V171.72H254.017V167.738Z" fill="white"/>
<path d="M249.923 167.738H245.828V171.72H249.923V167.738Z" fill="white"/>
<path d="M245.83 167.738H241.735V171.72H245.83V167.738Z" fill="white"/>
<path d="M241.735 167.738H237.641V171.72H241.735V167.738Z" fill="white"/>
<path d="M237.641 167.738H233.546V171.72H237.641V167.738Z" fill="white"/>
<path d="M233.548 167.738H229.454V171.72H233.548V167.738Z" fill="white"/>
<path d="M229.453 167.738H225.359V171.72H229.453V167.738Z" fill="white"/>
<path d="M225.359 167.738H221.265V171.72H225.359V167.738Z" fill="white"/>
<path d="M221.266 167.738H217.172V171.72H221.266V167.738Z" fill="white"/>
<path d="M217.172 167.738H213.078V171.72H217.172V167.738Z" fill="white"/>
<path d="M213.077 167.738H208.983V171.72H213.077V167.738Z" fill="white"/>
<path d="M208.983 167.738H204.888V171.72H208.983V167.738Z" fill="white"/>
<path d="M196.701 167.738H192.606V171.72H196.701V167.738Z" fill="white"/>
<path d="M192.609 167.738H188.514V171.72H192.609V167.738Z" fill="white"/>
<path d="M188.514 167.738H184.42V171.72H188.514V167.738Z" fill="white"/>
<path d="M184.42 167.738H180.325V171.72H184.42V167.738Z" fill="white"/>
<path d="M180.327 167.738H176.232V171.72H180.327V167.738Z" fill="white"/>
<path d="M176.232 167.738H172.138V171.72H176.232V167.738Z" fill="white"/>
<path d="M163.951 167.738H159.856V171.72H163.951V167.738Z" fill="white"/>
<path d="M159.856 167.738H155.762V171.72H159.856V167.738Z" fill="white"/>
<path d="M147.575 167.738H143.48V171.72H147.575V167.738Z" fill="white"/>
<path d="M143.482 167.738H139.388V171.72H143.482V167.738Z" fill="white"/>
<path d="M139.388 167.738H135.293V171.72H139.388V167.738Z" fill="white"/>
<path d="M135.293 167.738H131.198V171.72H135.293V167.738Z" fill="white"/>
<path d="M131.199 167.738H127.104V171.72H131.199V167.738Z" fill="white"/>
<path d="M127.106 167.738H123.011V171.72H127.106V167.738Z" fill="white"/>
<path d="M123.011 167.738H118.917V171.72H123.011V167.738Z" fill="white"/>
<path d="M118.917 167.738H114.822V171.72H118.917V167.738Z" fill="white"/>
<path d="M114.824 167.738H110.729V171.72H114.824V167.738Z" fill="white"/>
<path d="M110.73 167.738H106.635V171.72H110.73V167.738Z" fill="white"/>
<path d="M106.635 167.738H102.541V171.72H106.635V167.738Z" fill="white"/>
<path d="M102.543 167.738H98.4482V171.72H102.543V167.738Z" fill="white"/>
<path d="M98.4481 167.738H94.3535V171.72H98.4481V167.738Z" fill="white"/>
<path d="M94.3534 167.738H90.2588V171.72H94.3534V167.738Z" fill="white"/>
<path d="M73.8846 167.738H69.79V171.72H73.8846V167.738Z" fill="white"/>
<path d="M69.7899 167.738H65.6953V171.72H69.7899V167.738Z" fill="white"/>
<path d="M57.5086 167.738H53.4141V171.72H57.5086V167.738Z" fill="white"/>
<path d="M53.4139 167.738H49.3193V171.72H53.4139V167.738Z" fill="white"/>
<path d="M32.9452 167.738H28.8506V171.72H32.9452V167.738Z" fill="white"/>
<path d="M28.8504 167.738H24.7559V171.72H28.8504V167.738Z" fill="white"/>
<path d="M8.38169 167.738H4.28711V171.72H8.38169V167.738Z" fill="white"/>
<path d="M4.28744 167.738H0.192871V171.72H4.28744V167.738Z" fill="white"/>
<path d="M294.957 163.756H290.862V167.737H294.957V163.756Z" fill="white"/>
<path d="M290.862 163.756H286.768V167.737H290.862V163.756Z" fill="white"/>
<path d="M286.767 163.756H282.673V167.737H286.767V163.756Z" fill="white"/>
<path d="M282.675 163.756H278.58V167.737H282.675V163.756Z" fill="white"/>
<path d="M254.017 163.756H249.922V167.737H254.017V163.756Z" fill="white"/>
<path d="M249.923 163.756H245.828V167.737H249.923V163.756Z" fill="white"/>
<path d="M245.83 163.756H241.735V167.737H245.83V163.756Z" fill="white"/>
<path d="M241.735 163.756H237.641V167.737H241.735V163.756Z" fill="white"/>
<path d="M237.641 163.756H233.546V167.737H237.641V163.756Z" fill="white"/>
<path d="M233.548 163.756H229.454V167.737H233.548V163.756Z" fill="white"/>
<path d="M229.453 163.756H225.359V167.737H229.453V163.756Z" fill="white"/>
<path d="M225.359 163.756H221.265V167.737H225.359V163.756Z" fill="white"/>
<path d="M221.266 163.756H217.172V167.737H221.266V163.756Z" fill="white"/>
<path d="M217.172 163.756H213.078V167.737H217.172V163.756Z" fill="white"/>
<path d="M213.077 163.756H208.983V167.737H213.077V163.756Z" fill="white"/>
<path d="M208.983 163.756H204.888V167.737H208.983V163.756Z" fill="white"/>
<path d="M196.701 163.756H192.606V167.737H196.701V163.756Z" fill="white"/>
<path d="M192.609 163.756H188.514V167.737H192.609V163.756Z" fill="white"/>
<path d="M188.514 163.756H184.42V167.737H188.514V163.756Z" fill="white"/>
<path d="M184.42 163.756H180.325V167.737H184.42V163.756Z" fill="white"/>
<path d="M180.327 163.756H176.232V167.737H180.327V163.756Z" fill="white"/>
<path d="M176.232 163.756H172.138V167.737H176.232V163.756Z" fill="white"/>
<path d="M163.951 163.756H159.856V167.737H163.951V163.756Z" fill="white"/>
<path d="M159.856 163.756H155.762V167.737H159.856V163.756Z" fill="white"/>
<path d="M147.575 163.756H143.48V167.737H147.575V163.756Z" fill="white"/>
<path d="M143.482 163.756H139.388V167.737H143.482V163.756Z" fill="white"/>
<path d="M139.388 163.756H135.293V167.737H139.388V163.756Z" fill="white"/>
<path d="M135.293 163.756H131.198V167.737H135.293V163.756Z" fill="white"/>
<path d="M131.199 163.756H127.104V167.737H131.199V163.756Z" fill="white"/>
<path d="M127.106 163.756H123.011V167.737H127.106V163.756Z" fill="white"/>
<path d="M123.011 163.756H118.917V167.737H123.011V163.756Z" fill="white"/>
<path d="M118.917 163.756H114.822V167.737H118.917V163.756Z" fill="white"/>
<path d="M114.824 163.756H110.729V167.737H114.824V163.756Z" fill="white"/>
<path d="M110.73 163.756H106.635V167.737H110.73V163.756Z" fill="white"/>
<path d="M106.635 163.756H102.541V167.737H106.635V163.756Z" fill="white"/>
<path d="M102.543 163.756H98.4482V167.737H102.543V163.756Z" fill="white"/>
<path d="M98.4481 163.756H94.3535V167.737H98.4481V163.756Z" fill="white"/>
<path d="M94.3534 163.756H90.2588V167.737H94.3534V163.756Z" fill="white"/>
<path d="M73.8846 163.756H69.79V167.737H73.8846V163.756Z" fill="white"/>
<path d="M69.7899 163.756H65.6953V167.737H69.7899V163.756Z" fill="white"/>
<path d="M57.5086 163.756H53.4141V167.737H57.5086V163.756Z" fill="white"/>
<path d="M53.4139 163.756H49.3193V167.737H53.4139V163.756Z" fill="white"/>
<path d="M32.9452 163.756H28.8506V167.737H32.9452V163.756Z" fill="white"/>
<path d="M28.8504 163.756H24.7559V167.737H28.8504V163.756Z" fill="white"/>
<path d="M8.38169 163.756H4.28711V167.737H8.38169V163.756Z" fill="white"/>
<path d="M4.28744 163.756H0.192871V167.737H4.28744V163.756Z" fill="white"/>
<path d="M335.896 159.775H331.801V163.757H335.896V159.775Z" fill="white"/>
<path d="M331.802 159.775H327.707V163.757H331.802V159.775Z" fill="white"/>
<path d="M278.58 159.775H274.486V163.757H278.58V159.775Z" fill="white"/>
<path d="M274.486 159.775H270.391V163.757H274.486V159.775Z" fill="white"/>
<path d="M262.204 159.775H258.109V163.757H262.204V159.775Z" fill="white"/>
<path d="M258.112 159.775H254.017V163.757H258.112V159.775Z" fill="white"/>
<path d="M254.017 159.775H249.922V163.757H254.017V159.775Z" fill="white"/>
<path d="M249.923 159.775H245.828V163.757H249.923V159.775Z" fill="white"/>
<path d="M245.83 159.775H241.735V163.757H245.83V159.775Z" fill="white"/>
<path d="M241.735 159.775H237.641V163.757H241.735V159.775Z" fill="white"/>
<path d="M196.701 159.775H192.606V163.757H196.701V159.775Z" fill="white"/>
<path d="M192.609 159.775H188.514V163.757H192.609V159.775Z" fill="white"/>
<path d="M188.514 159.775H184.42V163.757H188.514V159.775Z" fill="white"/>
<path d="M184.42 159.775H180.325V163.757H184.42V159.775Z" fill="white"/>
<path d="M180.327 159.775H176.232V163.757H180.327V159.775Z" fill="white"/>
<path d="M176.232 159.775H172.138V163.757H176.232V159.775Z" fill="white"/>
<path d="M172.138 159.775H168.043V163.757H172.138V159.775Z" fill="white"/>
<path d="M168.045 159.775H163.951V163.757H168.045V159.775Z" fill="white"/>
<path d="M163.951 159.775H159.856V163.757H163.951V159.775Z" fill="white"/>
<path d="M159.856 159.775H155.762V163.757H159.856V159.775Z" fill="white"/>
<path d="M155.764 159.775H151.669V163.757H155.764V159.775Z" fill="white"/>
<path d="M151.669 159.775H147.575V163.757H151.669V159.775Z" fill="white"/>
<path d="M147.575 159.775H143.48V163.757H147.575V159.775Z" fill="white"/>
<path d="M143.482 159.775H139.388V163.757H143.482V159.775Z" fill="white"/>
<path d="M106.635 159.775H102.541V163.757H106.635V159.775Z" fill="white"/>
<path d="M102.543 159.775H98.4482V163.757H102.543V159.775Z" fill="white"/>
<path d="M98.4481 159.775H94.3535V163.757H98.4481V159.775Z" fill="white"/>
<path d="M94.3534 159.775H90.2588V163.757H94.3534V159.775Z" fill="white"/>
<path d="M41.1322 159.775H37.0376V163.757H41.1322V159.775Z" fill="white"/>
<path d="M37.0399 159.775H32.9453V163.757H37.0399V159.775Z" fill="white"/>
<path d="M32.9452 159.775H28.8506V163.757H32.9452V159.775Z" fill="white"/>
<path d="M28.8504 159.775H24.7559V163.757H28.8504V159.775Z" fill="white"/>
<path d="M8.38169 159.775H4.28711V163.757H8.38169V159.775Z" fill="white"/>
<path d="M4.28744 159.775H0.192871V163.757H4.28744V159.775Z" fill="white"/>
<path d="M335.896 155.793H331.801V159.775H335.896V155.793Z" fill="white"/>
<path d="M331.802 155.793H327.707V159.775H331.802V155.793Z" fill="white"/>
<path d="M278.58 155.793H274.486V159.775H278.58V155.793Z" fill="white"/>
<path d="M274.486 155.793H270.391V159.775H274.486V155.793Z" fill="white"/>
<path d="M262.204 155.793H258.109V159.775H262.204V155.793Z" fill="white"/>
<path d="M258.112 155.793H254.017V159.775H258.112V155.793Z" fill="white"/>
<path d="M254.017 155.793H249.922V159.775H254.017V155.793Z" fill="white"/>
<path d="M249.923 155.793H245.828V159.775H249.923V155.793Z" fill="white"/>
<path d="M245.83 155.793H241.735V159.775H245.83V155.793Z" fill="white"/>
<path d="M241.735 155.793H237.641V159.775H241.735V155.793Z" fill="white"/>
<path d="M196.701 155.793H192.606V159.775H196.701V155.793Z" fill="white"/>
<path d="M192.609 155.793H188.514V159.775H192.609V155.793Z" fill="white"/>
<path d="M188.514 155.793H184.42V159.775H188.514V155.793Z" fill="white"/>
<path d="M184.42 155.793H180.325V159.775H184.42V155.793Z" fill="white"/>
<path d="M180.327 155.793H176.232V159.775H180.327V155.793Z" fill="white"/>
<path d="M176.232 155.793H172.138V159.775H176.232V155.793Z" fill="white"/>
<path d="M172.138 155.793H168.043V159.775H172.138V155.793Z" fill="white"/>
<path d="M168.045 155.793H163.951V159.775H168.045V155.793Z" fill="white"/>
<path d="M163.951 155.793H159.856V159.775H163.951V155.793Z" fill="white"/>
<path d="M159.856 155.793H155.762V159.775H159.856V155.793Z" fill="white"/>
<path d="M155.764 155.793H151.669V159.775H155.764V155.793Z" fill="white"/>
<path d="M151.669 155.793H147.575V159.775H151.669V155.793Z" fill="white"/>
<path d="M147.575 155.793H143.48V159.775H147.575V155.793Z" fill="white"/>
<path d="M143.482 155.793H139.388V159.775H143.482V155.793Z" fill="white"/>
<path d="M106.635 155.793H102.541V159.775H106.635V155.793Z" fill="white"/>
<path d="M102.543 155.793H98.4482V159.775H102.543V155.793Z" fill="white"/>
<path d="M98.4481 155.793H94.3535V159.775H98.4481V155.793Z" fill="white"/>
<path d="M94.3534 155.793H90.2588V159.775H94.3534V155.793Z" fill="white"/>
<path d="M41.1322 155.793H37.0376V159.775H41.1322V155.793Z" fill="white"/>
<path d="M37.0399 155.793H32.9453V159.775H37.0399V155.793Z" fill="white"/>
<path d="M32.9452 155.793H28.8506V159.775H32.9452V155.793Z" fill="white"/>
<path d="M28.8504 155.793H24.7559V159.775H28.8504V155.793Z" fill="white"/>
<path d="M8.38169 155.793H4.28711V159.775H8.38169V155.793Z" fill="white"/>
<path d="M4.28744 155.793H0.192871V159.775H4.28744V155.793Z" fill="white"/>
<path d="M335.896 151.811H331.801V155.792H335.896V151.811Z" fill="white"/>
<path d="M331.802 151.811H327.707V155.792H331.802V151.811Z" fill="white"/>
<path d="M294.957 151.811H290.862V155.792H294.957V151.811Z" fill="white"/>
<path d="M290.862 151.811H286.768V155.792H290.862V151.811Z" fill="white"/>
<path d="M278.58 151.811H274.486V155.792H278.58V151.811Z" fill="white"/>
<path d="M274.486 151.811H270.391V155.792H274.486V151.811Z" fill="white"/>
<path d="M245.83 151.811H241.735V155.792H245.83V151.811Z" fill="white"/>
<path d="M241.735 151.811H237.641V155.792H241.735V151.811Z" fill="white"/>
<path d="M196.701 151.811H192.606V155.792H196.701V151.811Z" fill="white"/>
<path d="M192.609 151.811H188.514V155.792H192.609V151.811Z" fill="white"/>
<path d="M172.138 151.811H168.043V155.792H172.138V151.811Z" fill="white"/>
<path d="M168.045 151.811H163.951V155.792H168.045V151.811Z" fill="white"/>
<path d="M163.951 151.811H159.856V155.792H163.951V151.811Z" fill="white"/>
<path d="M159.856 151.811H155.762V155.792H159.856V151.811Z" fill="white"/>
<path d="M155.764 151.811H151.669V155.792H155.764V151.811Z" fill="white"/>
<path d="M151.669 151.811H147.575V155.792H151.669V151.811Z" fill="white"/>
<path d="M147.575 151.811H143.48V155.792H147.575V151.811Z" fill="white"/>
<path d="M143.482 151.811H139.388V155.792H143.482V151.811Z" fill="white"/>
<path d="M139.388 151.811H135.293V155.792H139.388V151.811Z" fill="white"/>
<path d="M135.293 151.811H131.198V155.792H135.293V151.811Z" fill="white"/>
<path d="M106.635 151.811H102.541V155.792H106.635V151.811Z" fill="white"/>
<path d="M102.543 151.811H98.4482V155.792H102.543V151.811Z" fill="white"/>
<path d="M335.896 147.83H331.801V151.812H335.896V147.83Z" fill="white"/>
<path d="M331.802 147.83H327.707V151.812H331.802V147.83Z" fill="white"/>
<path d="M294.957 147.83H290.862V151.812H294.957V147.83Z" fill="white"/>
<path d="M290.862 147.83H286.768V151.812H290.862V147.83Z" fill="white"/>
<path d="M278.58 147.83H274.486V151.812H278.58V147.83Z" fill="white"/>
<path d="M274.486 147.83H270.391V151.812H274.486V147.83Z" fill="white"/>
<path d="M245.83 147.83H241.735V151.812H245.83V147.83Z" fill="white"/>
<path d="M241.735 147.83H237.641V151.812H241.735V147.83Z" fill="white"/>
<path d="M196.701 147.83H192.606V151.812H196.701V147.83Z" fill="white"/>
<path d="M192.609 147.83H188.514V151.812H192.609V147.83Z" fill="white"/>
<path d="M172.138 147.83H168.043V151.812H172.138V147.83Z" fill="white"/>
<path d="M168.045 147.83H163.951V151.812H168.045V147.83Z" fill="white"/>
<path d="M163.951 147.83H159.856V151.812H163.951V147.83Z" fill="white"/>
<path d="M159.856 147.83H155.762V151.812H159.856V147.83Z" fill="white"/>
<path d="M155.764 147.83H151.669V151.812H155.764V147.83Z" fill="white"/>
<path d="M151.669 147.83H147.575V151.812H151.669V147.83Z" fill="white"/>
<path d="M147.575 147.83H143.48V151.812H147.575V147.83Z" fill="white"/>
<path d="M143.482 147.83H139.388V151.812H143.482V147.83Z" fill="white"/>
<path d="M139.388 147.83H135.293V151.812H139.388V147.83Z" fill="white"/>
<path d="M135.293 147.83H131.198V151.812H135.293V147.83Z" fill="white"/>
<path d="M106.635 147.83H102.541V151.812H106.635V147.83Z" fill="white"/>
<path d="M102.543 147.83H98.4482V151.812H102.543V147.83Z" fill="white"/>
<path d="M344.083 143.848H339.989V147.829H344.083V143.848Z" fill="white"/>
<path d="M339.989 143.848H335.894V147.829H339.989V143.848Z" fill="white"/>
<path d="M335.896 143.848H331.801V147.829H335.896V143.848Z" fill="white"/>
<path d="M331.802 143.848H327.707V147.829H331.802V143.848Z" fill="white"/>
<path d="M311.333 143.848H307.238V147.829H311.333V143.848Z" fill="white"/>
<path d="M307.238 143.848H303.144V147.829H307.238V143.848Z" fill="white"/>
<path d="M294.957 143.848H290.862V147.829H294.957V143.848Z" fill="white"/>
<path d="M290.862 143.848H286.768V147.829H290.862V143.848Z" fill="white"/>
<path d="M278.58 143.848H274.486V147.829H278.58V143.848Z" fill="white"/>
<path d="M274.486 143.848H270.391V147.829H274.486V143.848Z" fill="white"/>
<path d="M237.641 143.848H233.546V147.829H237.641V143.848Z" fill="white"/>
<path d="M233.548 143.848H229.454V147.829H233.548V143.848Z" fill="white"/>
<path d="M221.266 143.848H217.172V147.829H221.266V143.848Z" fill="white"/>
<path d="M217.172 143.848H213.078V147.829H217.172V143.848Z" fill="white"/>
<path d="M204.89 143.848H200.796V147.829H204.89V143.848Z" fill="white"/>
<path d="M200.796 143.848H196.701V147.829H200.796V143.848Z" fill="white"/>
<path d="M155.764 143.848H151.669V147.829H155.764V143.848Z" fill="white"/>
<path d="M151.669 143.848H147.575V147.829H151.669V143.848Z" fill="white"/>
<path d="M147.575 143.848H143.48V147.829H147.575V143.848Z" fill="white"/>
<path d="M143.482 143.848H139.388V147.829H143.482V143.848Z" fill="white"/>
<path d="M123.011 143.848H118.917V147.829H123.011V143.848Z" fill="white"/>
<path d="M118.917 143.848H114.822V147.829H118.917V143.848Z" fill="white"/>
<path d="M98.4481 143.848H94.3535V147.829H98.4481V143.848Z" fill="white"/>
<path d="M94.3534 143.848H90.2588V147.829H94.3534V143.848Z" fill="white"/>
<path d="M73.8846 143.848H69.79V147.829H73.8846V143.848Z" fill="white"/>
<path d="M69.7899 143.848H65.6953V147.829H69.7899V143.848Z" fill="white"/>
<path d="M65.6976 143.848H61.603V147.829H65.6976V143.848Z" fill="white"/>
<path d="M61.6029 143.848H57.5083V147.829H61.6029V143.848Z" fill="white"/>
<path d="M344.083 139.867H339.989V143.849H344.083V139.867Z" fill="white"/>
<path d="M339.989 139.867H335.894V143.849H339.989V139.867Z" fill="white"/>
<path d="M335.896 139.867H331.802V143.849H335.896V139.867Z" fill="white"/>
<path d="M331.802 139.867H327.707V143.849H331.802V139.867Z" fill="white"/>
<path d="M311.333 139.867H307.238V143.849H311.333V139.867Z" fill="white"/>
<path d="M307.238 139.867H303.144V143.849H307.238V139.867Z" fill="white"/>
<path d="M294.956 139.867H290.862V143.849H294.956V139.867Z" fill="white"/>
<path d="M290.862 139.867H286.768V143.849H290.862V139.867Z" fill="white"/>
<path d="M278.58 139.867H274.486V143.849H278.58V139.867Z" fill="white"/>
<path d="M274.486 139.867H270.391V143.849H274.486V139.867Z" fill="white"/>
<path d="M237.641 139.867H233.546V143.849H237.641V139.867Z" fill="white"/>
<path d="M233.548 139.867H229.454V143.849H233.548V139.867Z" fill="white"/>
<path d="M221.267 139.867H217.172V143.849H221.267V139.867Z" fill="white"/>
<path d="M217.172 139.867H213.078V143.849H217.172V139.867Z" fill="white"/>
<path d="M204.89 139.867H200.796V143.849H204.89V139.867Z" fill="white"/>
<path d="M200.796 139.867H196.701V143.849H200.796V139.867Z" fill="white"/>
<path d="M155.764 139.867H151.669V143.849H155.764V139.867Z" fill="white"/>
<path d="M151.669 139.867H147.575V143.849H151.669V139.867Z" fill="white"/>
<path d="M147.575 139.867H143.48V143.849H147.575V139.867Z" fill="white"/>
<path d="M143.482 139.867H139.388V143.849H143.482V139.867Z" fill="white"/>
<path d="M123.012 139.867H118.917V143.849H123.012V139.867Z" fill="white"/>
<path d="M118.917 139.867H114.822V143.849H118.917V139.867Z" fill="white"/>
<path d="M98.4481 139.867H94.3535V143.849H98.4481V139.867Z" fill="white"/>
<path d="M94.3534 139.867H90.2588V143.849H94.3534V139.867Z" fill="white"/>
<path d="M73.8846 139.867H69.79V143.849H73.8846V139.867Z" fill="white"/>
<path d="M69.7904 139.867H65.6958V143.849H69.7904V139.867Z" fill="white"/>
<path d="M65.6976 139.867H61.603V143.849H65.6976V139.867Z" fill="white"/>
<path d="M61.6034 139.867H57.5088V143.849H61.6034V139.867Z" fill="white"/>
<path d="M319.52 135.885H315.425V139.866H319.52V135.885Z" fill="white"/>
<path d="M315.425 135.885H311.331V139.866H315.425V135.885Z" fill="white"/>
<path d="M311.333 135.885H307.238V139.866H311.333V135.885Z" fill="white"/>
<path d="M307.238 135.885H303.144V139.866H307.238V135.885Z" fill="white"/>
<path d="M278.58 135.885H274.486V139.866H278.58V135.885Z" fill="white"/>
<path d="M274.486 135.885H270.391V139.866H274.486V135.885Z" fill="white"/>
<path d="M98.4481 135.885H94.3535V139.866H98.4481V135.885Z" fill="white"/>
<path d="M94.3534 135.885H90.2588V139.866H94.3534V135.885Z" fill="white"/>
<path d="M73.8846 135.885H69.79V139.866H73.8846V135.885Z" fill="white"/>
<path d="M69.7899 135.885H65.6953V139.866H69.7899V135.885Z" fill="white"/>
<path d="M319.52 131.904H315.425V135.886H319.52V131.904Z" fill="white"/>
<path d="M315.425 131.904H311.331V135.886H315.425V131.904Z" fill="white"/>
<path d="M311.333 131.904H307.238V135.886H311.333V131.904Z" fill="white"/>
<path d="M307.238 131.904H303.144V135.886H307.238V131.904Z" fill="white"/>
<path d="M278.58 131.904H274.486V135.886H278.58V131.904Z" fill="white"/>
<path d="M98.4481 131.904H94.3535V135.886H98.4481V131.904Z" fill="white"/>
<path d="M94.3534 131.904H90.2588V135.886H94.3534V131.904Z" fill="white"/>
<path d="M73.8846 131.904H69.79V135.886H73.8846V131.904Z" fill="white"/>
<path d="M69.7899 131.904H65.6953V135.886H69.7899V131.904Z" fill="white"/>
<path d="M286.767 127.924H282.673V131.905H286.767V127.924Z" fill="white"/>
<path d="M278.58 127.924H274.486V131.905H278.58V127.924Z" fill="white"/>
<path d="M266.299 127.924H262.204V131.905H266.299V127.924Z" fill="white"/>
<path d="M344.083 119.957H339.989V123.939H344.083V119.957Z" fill="white"/>
<path d="M339.989 119.957H335.894V123.939H339.989V119.957Z" fill="white"/>
<path d="M335.896 119.957H331.801V123.939H335.896V119.957Z" fill="white"/>
<path d="M331.802 119.957H327.707V123.939H331.802V119.957Z" fill="white"/>
<path d="M327.707 119.957H323.612V123.939H327.707V119.957Z" fill="white"/>
<path d="M323.615 119.957H319.52V123.939H323.615V119.957Z" fill="white"/>
<path d="M319.52 119.957H315.425V123.939H319.52V119.957Z" fill="white"/>
<path d="M315.425 119.957H311.331V123.939H315.425V119.957Z" fill="white"/>
<path d="M294.957 119.957H290.862V123.939H294.957V119.957Z" fill="white"/>
<path d="M290.862 119.957H286.768V123.939H290.862V119.957Z" fill="white"/>
<path d="M0.194671 119.957H-3.8999V123.939H0.194671V119.957Z" fill="white"/>
<path d="M344.083 115.977H339.989V119.958H344.083V115.977Z" fill="white"/>
<path d="M339.989 115.977H335.894V119.958H339.989V115.977Z" fill="white"/>
<path d="M335.896 115.977H331.801V119.958H335.896V115.977Z" fill="white"/>
<path d="M331.802 115.977H327.707V119.958H331.802V115.977Z" fill="white"/>
<path d="M327.707 115.977H323.612V119.958H327.707V115.977Z" fill="white"/>
<path d="M323.615 115.977H319.52V119.958H323.615V115.977Z" fill="white"/>
<path d="M319.52 115.977H315.425V119.958H319.52V115.977Z" fill="white"/>
<path d="M315.425 115.977H311.331V119.958H315.425V115.977Z" fill="white"/>
<path d="M294.957 115.977H290.862V119.958H294.957V115.977Z" fill="white"/>
<path d="M290.862 115.977H286.768V119.958H290.862V115.977Z" fill="white"/>
<path d="M0.195159 115.977H-3.89941V119.958H0.195159V115.977Z" fill="white"/>
<path d="M311.333 111.994H307.238V115.976H311.333V111.994Z" fill="white"/>
<path d="M307.238 111.994H303.144V115.976H307.238V111.994Z" fill="white"/>
<path d="M57.5086 111.994H53.4141V115.976H57.5086V111.994Z" fill="white"/>
<path d="M53.4139 111.994H49.3193V115.976H53.4139V111.994Z" fill="white"/>
<path d="M41.1322 111.994H37.0376V115.976H41.1322V111.994Z" fill="white"/>
<path d="M37.0399 111.994H32.9453V115.976H37.0399V111.994Z" fill="white"/>
<path d="M0.195159 111.994H-3.89941V115.976H0.195159V111.994Z" fill="white"/>
<path d="M311.333 108.012H307.238V111.993H311.333V108.012Z" fill="white"/>
<path d="M307.238 108.012H303.144V111.993H307.238V108.012Z" fill="white"/>
<path d="M57.5086 108.012H53.4141V111.993H57.5086V108.012Z" fill="white"/>
<path d="M53.4139 108.012H49.3193V111.993H53.4139V108.012Z" fill="white"/>
<path d="M41.1322 108.012H37.0376V111.993H41.1322V108.012Z" fill="white"/>
<path d="M37.0399 108.012H32.9453V111.993H37.0399V108.012Z" fill="white"/>
<path d="M0.195159 108.012H-3.89941V111.993H0.195159V108.012Z" fill="white"/>
<path d="M311.333 104.031H307.238V108.013H311.333V104.031Z" fill="white"/>
<path d="M307.238 104.031H303.144V108.013H307.238V104.031Z" fill="white"/>
<path d="M303.143 104.031H299.049V108.013H303.143V104.031Z" fill="white"/>
<path d="M299.051 104.031H294.957V108.013H299.051V104.031Z" fill="white"/>
<path d="M57.5086 104.031H53.4141V108.013H57.5086V104.031Z" fill="white"/>
<path d="M53.4139 104.031H49.3193V108.013H53.4139V104.031Z" fill="white"/>
<path d="M41.1322 104.031H37.0376V108.013H41.1322V104.031Z" fill="white"/>
<path d="M37.0399 104.031H32.9453V108.013H37.0399V104.031Z" fill="white"/>
<path d="M32.9452 104.031H28.8506V108.013H32.9452V104.031Z" fill="white"/>
<path d="M28.8504 104.031H24.7559V108.013H28.8504V104.031Z" fill="white"/>
<path d="M24.7581 104.031H20.6636V108.013H24.7581V104.031Z" fill="white"/>
<path d="M20.6634 104.031H16.5688V108.013H20.6634V104.031Z" fill="white"/>
<path d="M311.333 100.049H307.238V104.03H311.333V100.049Z" fill="white"/>
<path d="M307.238 100.049H303.144V104.03H307.238V100.049Z" fill="white"/>
<path d="M303.143 100.049H299.049V104.03H303.143V100.049Z" fill="white"/>
<path d="M299.051 100.049H294.957V104.03H299.051V100.049Z" fill="white"/>
<path d="M57.5086 100.049H53.4141V104.03H57.5086V100.049Z" fill="white"/>
<path d="M41.1322 100.049H37.0376V104.03H41.1322V100.049Z" fill="white"/>
<path d="M37.0399 100.049H32.9453V104.03H37.0399V100.049Z" fill="white"/>
<path d="M32.9452 100.049H28.8506V104.03H32.9452V100.049Z" fill="white"/>
<path d="M28.8504 100.049H24.7559V104.03H28.8504V100.049Z" fill="white"/>
<path d="M24.7581 100.049H20.6636V104.03H24.7581V100.049Z" fill="white"/>
<path d="M20.6634 100.049H16.5688V104.03H20.6634V100.049Z" fill="white"/>
<path d="M53.4139 92.0859H49.3193V96.0675H53.4139V92.0859Z" fill="white"/>
<path d="M311.333 72.1758H307.238V76.1573H311.333V72.1758Z" fill="white"/>
<path d="M307.238 72.1758H303.144V76.1573H307.238V72.1758Z" fill="white"/>
<path d="M311.333 68.1953H307.238V72.1769H311.333V68.1953Z" fill="white"/>
<path d="M307.238 68.1953H303.144V72.1769H307.238V68.1953Z" fill="white"/>
<path d="M49.3211 64.2148H45.2266V68.1964H49.3211V64.2148Z" fill="white"/>
<path d="M45.2269 64.2148H41.1323V68.1964H45.2269V64.2148Z" fill="white"/>
<path d="M32.9452 64.2148H28.8506V68.1964H32.9452V64.2148Z" fill="white"/>
<path d="M28.8504 64.2148H24.7559V68.1964H28.8504V64.2148Z" fill="white"/>
<path d="M286.767 60.2324H282.673V64.214H286.767V60.2324Z" fill="white"/>
<path d="M49.3216 60.2324H45.2271V64.214H49.3216V60.2324Z" fill="white"/>
<path d="M45.2269 60.2324H41.1323V64.214H45.2269V60.2324Z" fill="white"/>
<path d="M32.9452 60.2324H28.8506V64.214H32.9452V60.2324Z" fill="white"/>
<path d="M28.8504 60.2324H24.7559V64.214H28.8504V60.2324Z" fill="white"/>
<path d="M319.52 48.2871H315.425V52.2687H319.52V48.2871Z" fill="white"/>
<path d="M315.425 48.2871H311.331V52.2687H315.425V48.2871Z" fill="white"/>
<path d="M311.333 48.2871H307.238V52.2687H311.333V48.2871Z" fill="white"/>
<path d="M307.238 48.2871H303.144V52.2687H307.238V48.2871Z" fill="white"/>
<path d="M319.52 44.3066H315.425V48.2882H319.52V44.3066Z" fill="white"/>
<path d="M315.425 44.3066H311.331V48.2882H315.425V44.3066Z" fill="white"/>
<path d="M311.333 44.3066H307.238V48.2882H311.333V44.3066Z" fill="white"/>
<path d="M307.238 44.3066H303.144V48.2882H307.238V44.3066Z" fill="white"/>
<path d="M0.195159 32.3613H-3.89941V36.3429H0.195159V32.3613Z" fill="white"/>
<path d="M0.195159 28.3789H-3.89941V32.3605H0.195159V28.3789Z" fill="white"/>
<path d="M213.077 24.3984H208.983V28.38H213.077V24.3984Z" fill="white"/>
<path d="M208.983 24.3984H204.888V28.38H208.983V24.3984Z" fill="white"/>
<path d="M213.077 20.4141H208.983V24.3956H213.077V20.4141Z" fill="white"/>
<path d="M208.983 20.4141H204.888V24.3956H208.983V20.4141Z" fill="white"/>
<path d="M213.077 16.4336H208.983V20.4151H213.077V16.4336Z" fill="white"/>
<path d="M208.983 16.4336H204.888V20.4151H208.983V16.4336Z" fill="white"/>
<path d="M196.701 16.4336H192.606V20.4151H196.701V16.4336Z" fill="white"/>
<path d="M192.609 16.4336H188.514V20.4151H192.609V16.4336Z" fill="white"/>
<path d="M0.195159 16.4336H-3.89941V20.4151H0.195159V16.4336Z" fill="white"/>
<path d="M213.077 12.4512H208.983V16.4327H213.077V12.4512Z" fill="white"/>
<path d="M208.983 12.4512H204.888V16.4327H208.983V12.4512Z" fill="white"/>
<path d="M196.701 12.4512H192.606V16.4327H196.701V12.4512Z" fill="white"/>
<path d="M192.609 12.4512H188.514V16.4327H192.609V12.4512Z" fill="white"/>
<path d="M0.195159 12.4512H-3.89941V16.4327H0.195159V12.4512Z" fill="white"/>
<path d="M229.453 8.4707H225.359V12.4523H229.453V8.4707Z" fill="white"/>
<path d="M225.359 8.4707H221.265V12.4523H225.359V8.4707Z" fill="white"/>
<path d="M221.266 8.4707H217.172V12.4523H221.266V8.4707Z" fill="white"/>
<path d="M217.172 8.4707H213.078V12.4523H217.172V8.4707Z" fill="white"/>
<path d="M213.077 8.4707H208.983V12.4523H213.077V8.4707Z" fill="white"/>
<path d="M208.983 8.4707H204.888V12.4523H208.983V8.4707Z" fill="white"/>
<path d="M196.701 8.4707H192.606V12.4523H196.701V8.4707Z" fill="white"/>
<path d="M192.609 8.4707H188.514V12.4523H192.609V8.4707Z" fill="white"/>
<path d="M163.951 8.4707H159.856V12.4523H163.951V8.4707Z" fill="white"/>
<path d="M159.856 8.4707H155.762V12.4523H159.856V8.4707Z" fill="white"/>
<path d="M65.6976 8.4707H61.603V12.4523H65.6976V8.4707Z" fill="white"/>
<path d="M61.6029 8.4707H57.5083V12.4523H61.6029V8.4707Z" fill="white"/>
<path d="M8.38169 8.4707H4.28711V12.4523H8.38169V8.4707Z" fill="white"/>
<path d="M4.28744 8.4707H0.192871V12.4523H4.28744V8.4707Z" fill="white"/>
<path d="M229.453 4.48828H225.359V8.46983H229.453V4.48828Z" fill="white"/>
<path d="M225.359 4.48828H221.265V8.46983H225.359V4.48828Z" fill="white"/>
<path d="M221.266 4.48828H217.172V8.46983H221.266V4.48828Z" fill="white"/>
<path d="M217.172 4.48828H213.078V8.46983H217.172V4.48828Z" fill="white"/>
<path d="M213.077 4.48828H208.983V8.46983H213.077V4.48828Z" fill="white"/>
<path d="M208.983 4.48828H204.888V8.46983H208.983V4.48828Z" fill="white"/>
<path d="M196.701 4.48828H192.606V8.46983H196.701V4.48828Z" fill="white"/>
<path d="M192.609 4.48828H188.514V8.46983H192.609V4.48828Z" fill="white"/>
<path d="M163.951 4.48828H159.856V8.46983H163.951V4.48828Z" fill="white"/>
<path d="M159.856 4.48828H155.762V8.46983H159.856V4.48828Z" fill="white"/>
<path d="M65.6976 4.48828H61.603V8.46983H65.6976V4.48828Z" fill="white"/>
<path d="M61.6029 4.48828H57.5083V8.46983H61.6029V4.48828Z" fill="white"/>
<path d="M8.38169 4.48828H4.28711V8.46983H8.38169V4.48828Z" fill="white"/>
<path d="M4.28744 4.48828H0.192871V8.46983H4.28744V4.48828Z" fill="white"/>
<path d="M229.453 0.505859H225.359V4.48742H229.453V0.505859Z" fill="white"/>
<path d="M225.359 0.505859H221.265V4.48742H225.359V0.505859Z" fill="white"/>
<path d="M221.266 0.505859H217.172V4.48742H221.266V0.505859Z" fill="white"/>
<path d="M217.172 0.505859H213.078V4.48742H217.172V0.505859Z" fill="white"/>
<path d="M147.575 0.505859H143.48V4.48742H147.575V0.505859Z" fill="white"/>
<path d="M143.482 0.505859H139.388V4.48742H143.482V0.505859Z" fill="white"/>
<path d="M229.453 -3.47656H225.359V0.504989H229.453V-3.47656Z" fill="white"/>
<path d="M225.359 -3.47656H221.265V0.504989H225.359V-3.47656Z" fill="white"/>
<path d="M221.266 -3.47656H217.172V0.504989H221.266V-3.47656Z" fill="white"/>
<path d="M217.172 -3.47656H213.078V0.504989H217.172V-3.47656Z" fill="white"/>
<path d="M147.575 -3.47656H143.48V0.504989H147.575V-3.47656Z" fill="white"/>
<path d="M143.482 -3.47656H139.388V0.504989H143.482V-3.47656Z" fill="white"/>
</g>
<defs>
<clipPath id="clip0_14357_206361">
<rect width="343" height="168" fill="white"/>
</clipPath>
</defs>
</svg>
