<svg width="32" height="32" viewBox="0 0 32 32" fill="none" xmlns="http://www.w3.org/2000/svg">
<circle cx="16" cy="16" r="16" fill="#8C8C8C"/>
<path d="M23.0546 13.7197C23.3731 11.5907 21.7521 10.4462 19.5356 9.68272L20.2546 6.79872L18.4991 6.36122L17.7991 9.16922C17.3376 9.05422 16.8636 8.94572 16.3926 8.83822L17.0976 6.01172L15.3431 5.57422L14.6236 8.45722C14.2416 8.37022 13.8666 8.28422 13.5026 8.19372L13.5046 8.18472L11.0836 7.58022L10.6166 9.45522C10.6166 9.45522 11.9191 9.75372 11.8916 9.77222C12.6026 9.94972 12.7311 10.4202 12.7096 10.7932L11.8906 14.0787C11.9396 14.0912 12.0031 14.1092 12.0731 14.1372C12.0146 14.1227 11.9521 14.1067 11.8876 14.0912L10.7396 18.6937C10.6526 18.9097 10.4321 19.2337 9.9351 19.1107C9.9526 19.1362 8.6591 18.7922 8.6591 18.7922L7.7876 20.8017L10.0721 21.3712C10.4971 21.4777 10.9136 21.5892 11.3236 21.6942L10.5971 24.6112L12.3506 25.0487L13.0701 22.1627C13.5491 22.2927 14.0141 22.4127 14.4691 22.5257L13.7521 25.3982L15.5076 25.8357L16.2341 22.9242C19.2276 23.4907 21.4786 23.2622 22.4261 20.5547C23.1896 18.3747 22.3881 17.1172 20.8131 16.2972C21.9601 16.0327 22.8241 15.2782 23.0546 13.7197ZM19.0436 19.3442C18.5011 21.5242 14.8306 20.3457 13.6406 20.0502L14.6046 16.1857C15.7946 16.4827 19.6106 17.0707 19.0436 19.3442ZM19.5866 13.6882C19.0916 15.6712 16.0366 14.6637 15.0456 14.4167L15.9196 10.9117C16.9106 11.1587 20.1021 11.6197 19.5866 13.6882Z" fill="white"/>
</svg>
