<svg xmlns="http://www.w3.org/2000/svg" width="14" height="14" viewBox="0 0 14 14" fill="none">
<path d="M13.3437 6.06217L9.37929 4.62467L7.93742 0.655921C7.86638 0.464544 7.73847 0.299491 7.57089 0.182936C7.4033 0.0663804 7.20405 0.00390625 6.99992 0.00390625C6.79578 0.00390625 6.59653 0.0663804 6.42894 0.182936C6.26136 0.299491 6.13345 0.464544 6.06242 0.655921L4.62492 4.6203L0.656165 6.06217C0.464788 6.13321 0.299735 6.26111 0.18318 6.4287C0.0666245 6.59629 0.00415039 6.79554 0.00415039 6.99967C0.00415039 7.20381 0.0666245 7.40305 0.18318 7.57064C0.299735 7.73823 0.464788 7.86613 0.656165 7.93717L4.62054 9.37467L6.06242 13.3434C6.13345 13.5348 6.26136 13.6999 6.42894 13.8164C6.59653 13.933 6.79578 13.9954 6.99992 13.9954C7.20405 13.9954 7.4033 13.933 7.57089 13.8164C7.73847 13.6999 7.86638 13.5348 7.93742 13.3434L9.37929 9.37842L13.3437 7.93717C13.535 7.86613 13.7001 7.73823 13.8167 7.57064C13.9332 7.40305 13.9957 7.20381 13.9957 6.99967C13.9957 6.79554 13.9332 6.59629 13.8167 6.4287C13.7001 6.26111 13.535 6.13321 13.3437 6.06217ZM9.03554 8.43717C8.89873 8.48714 8.77449 8.56639 8.6715 8.66938C8.56851 8.77237 8.48926 8.89661 8.43929 9.03342L6.99992 12.9934L5.56242 9.0353C5.51248 8.89795 5.43305 8.77322 5.32971 8.66988C5.22637 8.56654 5.10164 8.48711 4.96429 8.43717L1.00617 6.99967L4.96429 5.56217C5.10164 5.51224 5.22637 5.4328 5.32971 5.32946C5.43305 5.22613 5.51248 5.10139 5.56242 4.96405L6.99992 1.00592L8.43742 4.96405C8.48738 5.10086 8.56663 5.2251 8.66962 5.32809C8.77261 5.43108 8.89685 5.51033 9.03366 5.5603L12.9918 6.9978L9.03554 8.43717Z" fill="#55E078"/>
</svg>