<svg width="12" height="16" viewBox="0 0 12 16" xmlns="http://www.w3.org/2000/svg">
<path d="M8.84028 0.661495C8.67535 0.659759 8.52083 0.741356 8.42708 0.876773L7.77257 1.78997C7.24826 1.50004 6.6441 1.33337 6 1.33337C5.3559 1.33337 4.75174 1.50004 4.22743 1.78997L3.57292 0.876773C3.47743 0.736148 3.31597 0.656286 3.14583 0.661495C2.96007 0.668439 2.7934 0.776078 2.71354 0.942745C2.63194 1.10941 2.64931 1.30733 2.76042 1.45663L3.42535 2.38893C2.75174 3.05386 2.33333 3.97747 2.33333 5.00004H9.66667C9.66667 3.97747 9.24826 3.05386 8.57465 2.38893L9.23958 1.45663C9.35243 1.30559 9.36806 1.1042 9.28472 0.935801C9.19965 0.767397 9.02778 0.661495 8.84028 0.661495ZM4.16667 3.00004C4.44271 3.00004 4.66667 3.22399 4.66667 3.50004C4.66667 3.77608 4.44271 4.00004 4.16667 4.00004C3.89062 4.00004 3.66667 3.77608 3.66667 3.50004C3.66667 3.22399 3.89062 3.00004 4.16667 3.00004ZM7.83333 3.00004C8.10938 3.00004 8.33333 3.22399 8.33333 3.50004C8.33333 3.77608 8.10938 4.00004 7.83333 4.00004C7.55729 4.00004 7.33333 3.77608 7.33333 3.50004C7.33333 3.22399 7.55729 3.00004 7.83333 3.00004ZM1 6.00004C0.447916 6.00004 0 6.44795 0 7.00004V10.3334C0 10.8855 0.447916 11.3334 1 11.3334H1.33333V6.00004H1ZM2.33333 6.00004V11.3334C2.33333 11.8872 2.77951 12.3334 3.33333 12.3334H8.66667C9.22049 12.3334 9.66667 11.8872 9.66667 11.3334V6.00004H2.33333ZM10.6667 6.00004V11.3334H11C11.5521 11.3334 12 10.8855 12 10.3334V7.00004C12 6.44795 11.5521 6.00004 11 6.00004H10.6667ZM3 13.3334V14.1667C3 14.8108 3.52257 15.3334 4.16667 15.3334C4.81076 15.3334 5.33333 14.8108 5.33333 14.1667V13.3334H3ZM6.66667 13.3334V14.1667C6.66667 14.8108 7.18924 15.3334 7.83333 15.3334C8.47743 15.3334 9 14.8108 9 14.1667V13.3334H6.66667Z" />
</svg>
