<svg width="20" height="20" viewBox="0 0 20 20" fill="none" xmlns="http://www.w3.org/2000/svg">
<g id="Collapse Arrow 1">
<g id="surface6760">
<path id="Vector" d="M10.0086 15.4999C10.1714 15.4978 10.3276 15.4327 10.4426 15.3177L18.5676 7.19266C18.7304 7.03424 18.7955 6.80203 18.7391 6.58285C18.6827 6.36366 18.5112 6.19222 18.292 6.1358C18.0728 6.07938 17.8406 6.14448 17.6822 6.30724L9.99993 13.9917L2.31764 6.30724C2.15922 6.14448 1.92701 6.07938 1.70783 6.1358C1.48864 6.19222 1.3172 6.36366 1.26078 6.58285C1.20436 6.80203 1.26946 7.03424 1.43222 7.19266L9.55722 15.3177C9.67658 15.437 9.83934 15.5021 10.0086 15.4999Z" fill="#9595A3"/>
</g>
</g>
</svg>
