<svg width="12" height="13" viewBox="0 0 12 13" xmlns="http://www.w3.org/2000/svg">
<path d="M4.99479 0C4.17708 0 3.5 0.677083 3.5 1.49479V2H0.5V3H1.5V11.5C1.5 12.3229 2.17708 13 3 13H9C9.82292 13 10.5 12.3229 10.5 11.5V3H11.5V2H8.5V1.49479C8.5 0.677083 7.82292 0 7.00521 0H4.99479ZM4.99479 1H7.00521C7.28646 1 7.5 1.21354 7.5 1.49479V3H9.5V11.5C9.5 11.7813 9.28125 12 9 12H3C2.71875 12 2.5 11.7813 2.5 11.5V3H4.5V1.49479C4.5 1.21354 4.71354 1 4.99479 1ZM3.5 4V11H4.5V4H3.5ZM5.5 4V11H6.5V4H5.5ZM7.5 4V11H8.5V4H7.5Z" fill="inherit"/>
</svg>
