<svg width="16" height="16" viewBox="0 0 16 16"  xmlns="http://www.w3.org/2000/svg">
<path d="M15.2366 1.20675C15.1051 0.892485 14.7957 0.691691 14.4551 0.700277C14.2408 0.705918 14.0349 0.793317 13.8828 0.950041L8.00011 6.83446L2.1157 0.948294C1.96173 0.794319 1.75162 0.702003 1.52663 0.702003C1.19201 0.702003 0.888671 0.904814 0.762428 1.21704C0.636622 1.52636 0.710899 1.88248 0.949644 2.11666L6.83466 7.99992L0.949816 13.883C0.73743 14.0908 0.652213 14.3954 0.726239 14.6829C0.80083 14.9727 1.02734 15.1992 1.31709 15.2738C1.60464 15.3478 1.90919 15.2626 2.11699 15.0503L8.00011 9.16537L13.8833 15.0503C14.0911 15.2626 14.3956 15.3478 14.6831 15.2738C14.9729 15.1992 15.1994 14.9727 15.274 14.6829C15.348 14.3954 15.2628 14.0908 15.0504 13.883L9.16557 7.99992L15.0506 2.11661C15.2904 1.88134 15.3685 1.52232 15.2366 1.20675Z" />
</svg>
