<svg width="12" height="14" viewBox="0 0 12 14" fill="none" xmlns="http://www.w3.org/2000/svg">
<path d="M2.16667 0.333374C1.34376 0.333374 0.666672 1.01046 0.666672 1.83337V12.1667C0.666672 12.9896 1.34376 13.6667 2.16667 13.6667H9.83334C10.6563 13.6667 11.3333 12.9896 11.3333 12.1667V5.16671C11.3333 5.03476 11.2813 4.90629 11.1875 4.81254L6.85417 0.479207C6.76042 0.385458 6.63195 0.333374 6.50001 0.333374H2.16667ZM2.16667 1.33337H6.00001V4.16671C6.00001 4.98962 6.67709 5.66671 7.50001 5.66671H10.3333V12.1667C10.3333 12.4497 10.1163 12.6667 9.83334 12.6667H2.16667C1.88369 12.6667 1.66667 12.4497 1.66667 12.1667V1.83337C1.66667 1.55039 1.88369 1.33337 2.16667 1.33337ZM7.00001 2.03997L9.62674 4.66671H7.50001C7.21702 4.66671 7.00001 4.44969 7.00001 4.16671V2.03997ZM3.83334 7.33337C3.65278 7.33164 3.48612 7.42539 3.3941 7.58164C3.30382 7.73789 3.30382 7.92886 3.3941 8.08511C3.48612 8.24136 3.65278 8.33511 3.83334 8.33337H8.16667C8.34723 8.33511 8.51389 8.24136 8.60591 8.08511C8.69619 7.92886 8.69619 7.73789 8.60591 7.58164C8.51389 7.42539 8.34723 7.33164 8.16667 7.33337H3.83334ZM3.83334 9.66671C3.65278 9.66497 3.48612 9.75872 3.3941 9.91497C3.30382 10.0712 3.30382 10.2622 3.3941 10.4184C3.48612 10.5747 3.65278 10.6684 3.83334 10.6667H6.83334C7.01389 10.6684 7.18056 10.5747 7.27257 10.4184C7.36285 10.2622 7.36285 10.0712 7.27257 9.91497C7.18056 9.75872 7.01389 9.66497 6.83334 9.66671H3.83334Z" fill="#4072C9"/>
</svg>
