<svg width="18" height="14" viewBox="0 0 18 14" xmlns="http://www.w3.org/2000/svg">
<path d="M1.29164 0.75003C1.06594 0.74786 0.857612 0.865047 0.742594 1.06036C0.629747 1.25567 0.629747 1.49439 0.742594 1.6897C0.857612 1.88501 1.06594 2.0022 1.29164 2.00003H16.7083C16.934 2.0022 17.1423 1.88501 17.2574 1.6897C17.3702 1.49439 17.3702 1.25567 17.2574 1.06036C17.1423 0.865047 16.934 0.74786 16.7083 0.75003H1.29164ZM1.29164 6.37503C1.06594 6.37286 0.857612 6.49005 0.742594 6.68536C0.629747 6.88067 0.629747 7.11939 0.742594 7.3147C0.857612 7.51001 1.06594 7.6272 1.29164 7.62503H16.7083C16.934 7.6272 17.1423 7.51001 17.2574 7.3147C17.3702 7.11939 17.3702 6.88067 17.2574 6.68536C17.1423 6.49005 16.934 6.37286 16.7083 6.37503H1.29164ZM1.29164 12C1.06594 11.9979 0.857612 12.115 0.742594 12.3104C0.629747 12.5057 0.629747 12.7444 0.742594 12.9397C0.857612 13.135 1.06594 13.2522 1.29164 13.25H16.7083C16.934 13.2522 17.1423 13.135 17.2574 12.9397C17.3702 12.7444 17.3702 12.5057 17.2574 12.3104C17.1423 12.115 16.934 11.9979 16.7083 12H1.29164Z" />
</svg>
