<svg width="14" height="14" viewBox="0 0 14 14" xmlns="http://www.w3.org/2000/svg">
<path d="M6.99999 0.333374C3.32465 0.333374 0.333328 3.32469 0.333328 7.00004C0.333328 10.6754 3.32465 13.6667 6.99999 13.6667C10.6753 13.6667 13.6667 10.6754 13.6667 7.00004C13.6667 3.32469 10.6753 0.333374 6.99999 0.333374ZM6.99999 1.33337C10.1354 1.33337 12.6667 3.86462 12.6667 7.00004C12.6667 10.1355 10.1354 12.6667 6.99999 12.6667C3.86458 12.6667 1.33333 10.1355 1.33333 7.00004C1.33333 3.86462 3.86458 1.33337 6.99999 1.33337ZM6.99999 3.66671C6.63194 3.66671 6.33333 3.96532 6.33333 4.33337C6.33333 4.70143 6.63194 5.00004 6.99999 5.00004C7.36805 5.00004 7.66666 4.70143 7.66666 4.33337C7.66666 3.96532 7.36805 3.66671 6.99999 3.66671ZM6.99131 5.9931C6.71701 5.99657 6.49652 6.224 6.49999 6.50004V10.1667C6.49826 10.3473 6.59201 10.5139 6.74826 10.6059C6.90451 10.6962 7.09548 10.6962 7.25173 10.6059C7.40798 10.5139 7.50173 10.3473 7.49999 10.1667V6.50004C7.50173 6.36462 7.44965 6.23442 7.35416 6.13893C7.25694 6.04344 7.12673 5.99136 6.99131 5.9931Z"/>
</svg>
