<svg width="300" height="136" viewBox="0 0 300 136" fill="none" xmlns="http://www.w3.org/2000/svg">
<g clip-path="url(#clip0_511_5770)">
<rect width="300" height="136" fill="white"/>
<rect x="151" y="32.9998" width="80" height="80" rx="9" fill="#D7E2F4"/>
<rect x="151" y="28.9998" width="80" height="80" rx="9" fill="#F3F6FC"/>
<rect opacity="0.5" x="166.7" y="41.9998" width="48" height="48" rx="24" fill="#A0B8E4"/>
<rect x="166.7" y="45.9998" width="48" height="48" rx="24" fill="#D7E2F4"/>
<path d="M178.297 81.6715C173.152 81.6715 168.967 76.3221 168.967 69.7455C168.967 63.1689 173.153 57.8195 178.297 57.8195H203.146C208.291 57.8195 212.477 63.1697 212.477 69.7455C212.477 76.3213 208.291 81.6715 203.146 81.6715H178.297Z" fill="#38384C"/>
<path d="M203.146 58.9053H178.297C173.743 58.9053 170.052 63.7587 170.052 69.7463C170.052 75.7331 173.743 80.5866 178.297 80.5866H203.146C207.699 80.5866 211.391 75.7331 211.391 69.7463C211.391 63.7587 207.7 58.9053 203.146 58.9053Z" fill="#46465D"/>
<path d="M205.44 60.1819H176.004V79.3083H205.44V60.1819Z" fill="#46465D"/>
<path d="M201.705 76.869H179.738C175.804 76.869 172.614 73.679 172.614 69.745C172.614 65.8102 175.804 62.6202 179.738 62.6202H201.705C205.639 62.6202 208.829 65.8102 208.829 69.745C208.829 73.6798 205.639 76.869 201.705 76.869Z" fill="#7A7A90"/>
<path d="M197.703 69.7463C197.703 73.3658 194.577 76.3002 190.722 76.3002C186.866 76.3002 183.74 73.3658 183.74 69.7463C183.74 66.1268 186.866 63.1924 190.722 63.1924C194.577 63.1924 197.703 66.1268 197.703 69.7463Z" fill="#46465D"/>
<path d="M194.045 69.746C194.045 71.4684 192.557 72.8649 190.721 72.8649C188.886 72.8649 187.398 71.4684 187.398 69.746C187.398 68.0236 188.886 66.6263 190.721 66.6263C192.557 66.6263 194.045 68.0229 194.045 69.746Z" fill="#BEBEC5"/>
<path d="M337.036 91.54C338.311 91.1983 339.587 90.844 340.877 90.4749C359.173 85.2358 373.276 77.3051 382.793 66.9013C386.59 62.752 389.632 58.2549 391.908 53.4375L384.707 53.2434C376.983 67.2401 361.558 77.7796 339.083 84.2149C292.629 97.5147 255.438 92.2236 232.407 85.4445C207.419 78.0893 193.226 67.4391 193.085 67.332C191.654 66.2446 189.611 66.5211 188.523 67.9509C187.434 69.3807 187.708 71.4209 189.137 72.5112C189.74 72.9726 204.215 83.88 230.249 91.5984C253.527 98.4977 290.724 103.948 337.036 91.54Z" fill="#BEBEC5"/>
<path d="M68.8412 55.8721C68.8412 57.6709 67.3827 59.1287 65.5847 59.1287L-131.743 59.1287C-133.541 59.1287 -135 57.6709 -135 55.8721C-135 54.0733 -133.542 52.6156 -131.743 52.6156L65.5839 52.6156C67.3827 52.6156 68.8412 54.0733 68.8412 55.8721Z" fill="#BEBEC5"/>
<path d="M90.4207 70.7211V41.0228L69.0963 41.0228V70.7211H90.4207Z" fill="#46465D"/>
<path d="M63.3958 70.7214V41.0231C63.3958 39.4489 64.6721 38.1734 66.2463 38.1734C67.8198 38.1734 69.0961 39.4497 69.0961 41.0231V70.7214C69.0961 72.2956 67.8198 73.5712 66.2463 73.5712C64.6721 73.5712 63.3958 72.2949 63.3958 70.7214Z" fill="#7A7A90"/>
<path d="M98.2205 35.9234L90.4205 41.0234V70.7216L98.2205 75.8208V35.9234Z" fill="#7A7A90"/>
<path d="M131.254 48.0964V45.0493L110.77 45.0493V48.0964H131.254Z" fill="#D9D9DD"/>
<path d="M131.254 66.6957V63.6486L110.77 63.6486V66.6957H131.254Z" fill="#D9D9DD"/>
<path d="M78.8007 62.7211C75.0187 62.7211 71.9519 59.6543 71.9519 55.8723C71.9519 52.0895 75.0187 49.0235 78.8007 49.0235C82.5835 49.0235 85.6503 52.0902 85.6503 55.8723C85.6495 59.6551 82.5835 62.7211 78.8007 62.7211Z" fill="#46465D"/>
<path d="M110.77 75.8217L110.77 35.9243H98.2198V75.8217H110.77Z" fill="#46465D"/>
<path d="M107.635 72.709V39.0359H105.931V72.709H107.635Z" fill="#46465D"/>
<path d="M103.059 72.709V39.0359H101.356V72.709H103.059Z" fill="#46465D"/>
</g>
<defs>
<clipPath id="clip0_511_5770">
<rect width="300" height="136" fill="white"/>
</clipPath>
</defs>
</svg>
