<svg width="256" height="160" viewBox="0 0 256 160" fill="none" xmlns="http://www.w3.org/2000/svg">
<g clip-path="url(#clip0_90_5661)">
<path d="M256 -10.6666H0V160H256V-10.6666Z" fill="white"/>
<mask id="mask0_90_5661" style="mask-type:luminance" maskUnits="userSpaceOnUse" x="20" y="-1" width="216" height="151">
<path d="M213.872 128.666C218.268 154.099 161.36 153.015 136.372 143.56C128.679 140.649 121.718 139.771 114.801 140.054C107.887 140.335 101.018 141.774 93.5086 143.498C92.8336 143.652 92.1546 143.81 91.4694 143.969C89.9191 144.327 88.3397 144.695 86.7256 145.064C79.1308 146.8 70.7659 148.562 61.0326 149.586C59.9012 149.705 58.7877 149.782 57.6929 149.817C42.6063 150.296 31.0913 142.927 24.9994 132.128C18.6091 120.804 18.184 105.708 25.8578 91.941C41.3788 64.0967 23.9504 53.0161 27.2179 31.0248C30.4853 9.03282 61.0275 3.04285 83.9001 12.0172C106.774 20.9914 139.863 4.76155 139.863 4.76155C151.352 0.159691 160.447 -1.24703 167.737 -0.153995C175.77 1.05049 181.612 5.28857 186.052 11.6296C187.181 13.2412 188.22 14.9897 189.18 16.858C191.17 20.7272 194.262 22.7774 197.928 23.9623C205.205 26.3151 214.742 25.2569 222.383 28.26C226.695 29.9548 230.404 32.9425 232.763 38.5662C247.79 74.3816 202.396 62.2819 213.872 128.666Z" fill="white"/>
</mask>
<g mask="url(#mask0_90_5661)">
<path d="M213.872 128.666C218.268 154.099 161.36 153.015 136.372 143.56C128.679 140.649 121.718 139.771 114.801 140.054C107.887 140.335 101.018 141.774 93.5086 143.498C92.8336 143.652 92.1546 143.81 91.4694 143.969C89.9191 144.327 88.3397 144.695 86.7256 145.064C79.1308 146.8 70.7659 148.562 61.0326 149.586C59.9012 149.705 58.7877 149.782 57.6929 149.817C42.6063 150.296 31.0913 142.927 24.9994 132.128C18.6091 120.804 18.184 105.708 25.8578 91.941C41.3788 64.0967 23.9504 53.0161 27.2179 31.0248C30.4853 9.03282 61.0275 3.04285 83.9001 12.0172C106.774 20.9914 139.863 4.76155 139.863 4.76155C151.352 0.159691 160.447 -1.24703 167.737 -0.153995C175.77 1.05049 181.612 5.28857 186.052 11.6296C187.181 13.2412 188.22 14.9897 189.18 16.858C191.17 20.7272 194.262 22.7774 197.928 23.9623C205.205 26.3151 214.742 25.2569 222.383 28.26C226.695 29.9548 230.404 32.9425 232.763 38.5662C247.79 74.3816 202.396 62.2819 213.872 128.666Z" fill="url(#paint0_linear_90_5661)"/>
</g>
<mask id="mask1_90_5661" style="mask-type:luminance" maskUnits="userSpaceOnUse" x="20" y="-1" width="216" height="151">
<path d="M213.872 128.666C218.268 154.099 161.36 153.015 136.372 143.56C128.679 140.649 121.718 139.771 114.801 140.054C107.887 140.335 101.018 141.774 93.5086 143.498C92.8336 143.652 92.1546 143.81 91.4694 143.969C89.9191 144.327 88.3397 144.695 86.7256 145.064C79.1308 146.8 70.7659 148.562 61.0326 149.586C59.9012 149.705 58.7877 149.782 57.6929 149.817C42.6063 150.296 31.0913 142.927 24.9994 132.128C18.6091 120.804 18.184 105.708 25.8578 91.941C41.3788 64.0967 23.9504 53.0161 27.2179 31.0248C30.4853 9.03282 61.0275 3.04285 83.9001 12.0172C106.774 20.9914 139.863 4.76155 139.863 4.76155C151.352 0.159691 160.447 -1.24703 167.737 -0.153995C175.77 1.05049 181.612 5.28857 186.052 11.6296C187.181 13.2412 188.22 14.9897 189.18 16.858C191.17 20.7272 194.262 22.7774 197.928 23.9623C205.205 26.3151 214.742 25.2569 222.383 28.26C226.695 29.9548 230.404 32.9425 232.763 38.5662C247.79 74.3816 202.396 62.2819 213.872 128.666Z" fill="white"/>
</mask>
<g mask="url(#mask1_90_5661)">
<path d="M197.536 149.063C197.553 149.062 197.57 149.06 197.587 149.056C197.724 149.022 197.808 148.884 197.774 148.747C188.963 112.957 180.582 87.5794 174.175 77.2894C174.033 77.0609 173.93 76.896 173.892 76.8131C173.833 76.6848 173.681 76.6294 173.553 76.688C173.425 76.7473 173.369 76.899 173.428 77.0271C173.48 77.1388 173.578 77.2973 173.741 77.5595C180.121 87.8049 188.48 113.13 197.278 148.869C197.308 148.989 197.417 149.068 197.536 149.063Z" fill="#A5C4B7"/>
<path d="M169.447 75.2316C170.209 76.3886 174.226 78.6453 174.556 78.4277C174.887 78.2102 174.399 73.6291 173.637 72.4721C172.875 71.3149 171.32 70.9949 170.163 71.7569C169.006 72.5189 168.685 74.0747 169.447 75.2316Z" fill="#A5C4B7"/>
<path d="M177.231 79.0268C176.755 80.3619 177.385 85.0328 177.766 85.1686C178.147 85.3045 181.59 82.0855 182.066 80.7504C182.542 79.4153 181.846 77.9472 180.51 77.4713C179.175 76.9953 177.707 77.6917 177.231 79.0268Z" fill="#A5C4B7"/>
<path d="M171.908 86.8695C173.316 87.0326 177.725 85.3672 177.772 84.9653C177.819 84.5634 173.907 81.9341 172.499 81.7708C171.091 81.6078 169.817 82.617 169.654 84.0248C169.491 85.4329 170.5 86.7064 171.908 86.8695Z" fill="#A5C4B7"/>
<path d="M188.151 103.006C187.115 105.148 187.321 113.056 187.933 113.352C188.544 113.648 194.871 108.899 195.907 106.757C196.943 104.615 196.046 102.039 193.905 101.003C191.763 99.9674 189.187 100.864 188.151 103.006Z" fill="#A5C4B7"/>
<path d="M177.85 115.131C180.17 115.657 187.829 113.676 187.979 113.014C188.129 112.351 182.078 107.256 179.758 106.729C177.438 106.202 175.13 107.656 174.603 109.976C174.076 112.296 175.529 114.604 177.85 115.131Z" fill="#A5C4B7"/>
<path d="M193.881 112.134C192.068 114.412 190.184 123.908 190.834 124.426C191.484 124.944 200.316 120.979 202.129 118.701C203.943 116.424 203.566 113.107 201.288 111.294C199.011 109.48 195.694 109.857 193.881 112.134Z" fill="#A5C4B7"/>
<path d="M179.227 127.944C182.117 128.294 191.191 124.917 191.29 124.092C191.39 123.267 183.382 117.827 180.491 117.477C177.601 117.128 174.975 119.188 174.626 122.079C174.276 124.969 176.336 127.595 179.227 127.944Z" fill="#A5C4B7"/>
<path d="M197.121 123.824C195.308 126.102 193.424 135.598 194.074 136.115C194.724 136.633 203.556 132.668 205.369 130.391C207.183 128.113 206.806 124.797 204.529 122.983C202.251 121.17 198.934 121.546 197.121 123.824Z" fill="#A5C4B7"/>
<path d="M182.467 139.634C185.357 139.983 194.43 136.606 194.53 135.781C194.63 134.957 186.622 129.516 183.731 129.167C180.841 128.818 178.215 130.878 177.866 133.768C177.516 136.658 179.576 139.284 182.467 139.634Z" fill="#A5C4B7"/>
<path d="M204.77 138.694C202.226 140.11 196.866 148.172 197.27 148.899C197.674 149.625 207.351 149.323 209.895 147.908C212.44 146.493 213.355 143.283 211.94 140.739C210.524 138.194 207.314 137.279 204.77 138.694Z" fill="#A5C4B7"/>
<path d="M185.272 151.175C188.096 151.883 197.52 149.668 197.722 148.862C197.924 148.056 190.659 141.657 187.835 140.949C185.011 140.241 182.148 141.957 181.44 144.78C180.732 147.605 182.448 150.468 185.272 151.175Z" fill="#A5C4B7"/>
<path d="M180.596 86.491C180.112 87.8474 180.752 92.5932 181.139 92.7313C181.526 92.8693 185.024 89.5987 185.508 88.2422C185.991 86.8858 185.284 85.3941 183.927 84.9105C182.571 84.427 181.079 85.1346 180.596 86.491Z" fill="#A5C4B7"/>
<path d="M175.369 94.5566C176.8 94.7222 181.28 93.0301 181.327 92.6218C181.374 92.2135 177.4 89.5418 175.969 89.3762C174.539 89.2105 173.245 90.2359 173.079 91.6664C172.913 93.0968 173.939 94.3908 175.369 94.5566Z" fill="#A5C4B7"/>
<path d="M184.515 93.4632C183.672 95.3275 184.025 102.122 184.557 102.362C185.089 102.603 190.423 98.3795 191.266 96.5152C192.109 94.6509 191.281 92.4564 189.416 91.6136C187.552 90.7708 185.357 91.599 184.515 93.4632Z" fill="#A5C4B7"/>
<path d="M176.164 104.883C178.197 105.119 184.561 102.715 184.628 102.135C184.696 101.555 179.049 97.7592 177.017 97.5237C174.985 97.2883 173.146 98.7449 172.911 100.777C172.675 102.81 174.132 104.648 176.164 104.883Z" fill="#A5C4B7"/>
</g>
<mask id="mask2_90_5661" style="mask-type:luminance" maskUnits="userSpaceOnUse" x="20" y="-1" width="216" height="151">
<path d="M213.872 128.666C218.268 154.099 161.36 153.015 136.372 143.56C128.679 140.649 121.718 139.771 114.801 140.054C107.887 140.335 101.018 141.774 93.5086 143.498C92.8336 143.652 92.1546 143.81 91.4694 143.969C89.9191 144.327 88.3397 144.695 86.7256 145.064C79.1308 146.8 70.7659 148.562 61.0326 149.586C59.9012 149.705 58.7877 149.782 57.6929 149.817C42.6063 150.296 31.0913 142.927 24.9994 132.128C18.6091 120.804 18.184 105.708 25.8578 91.941C41.3788 64.0967 23.9504 53.0161 27.2179 31.0248C30.4853 9.03282 61.0275 3.04285 83.9001 12.0172C106.774 20.9914 139.863 4.76155 139.863 4.76155C151.352 0.159691 160.447 -1.24703 167.737 -0.153995C175.77 1.05049 181.612 5.28857 186.052 11.6296C187.181 13.2412 188.22 14.9897 189.18 16.858C191.17 20.7272 194.262 22.7774 197.928 23.9623C205.205 26.3151 214.742 25.2569 222.383 28.26C226.695 29.9548 230.404 32.9425 232.763 38.5662C247.79 74.3816 202.396 62.2819 213.872 128.666Z" fill="white"/>
</mask>
<g mask="url(#mask2_90_5661)">
<path d="M167.998 160.934C168.01 160.931 168.022 160.926 168.035 160.92C168.132 160.873 168.173 160.756 168.125 160.659C155.793 135.241 145.45 117.559 139 110.871C138.857 110.723 138.754 110.616 138.712 110.56C138.647 110.473 138.524 110.456 138.438 110.52C138.351 110.585 138.334 110.707 138.398 110.794C138.455 110.87 138.554 110.973 138.719 111.143C145.14 117.802 155.459 135.448 167.773 160.83C167.814 160.915 167.909 160.957 167.998 160.934Z" fill="#A5C4B7"/>
<path d="M135.127 110.085C135.884 110.83 139.256 111.879 139.468 111.663C139.681 111.448 138.583 108.091 137.826 107.346C137.07 106.601 135.853 106.61 135.107 107.366C134.362 108.122 134.371 109.34 135.127 110.085Z" fill="#A5C4B7"/>
<path d="M141.569 111.684C141.426 112.761 142.646 116.162 142.953 116.203C143.261 116.243 145.326 113.28 145.469 112.203C145.613 111.126 144.855 110.137 143.779 109.993C142.702 109.85 141.713 110.607 141.569 111.684Z" fill="#A5C4B7"/>
<path d="M138.834 118.415C139.916 118.312 142.954 116.358 142.925 116.049C142.896 115.741 139.543 114.396 138.461 114.499C137.38 114.602 136.587 115.562 136.69 116.643C136.793 117.725 137.753 118.518 138.834 118.415Z" fill="#A5C4B7"/>
<path d="M153.592 127.911C153.158 129.683 154.579 135.578 155.084 135.702C155.59 135.826 159.573 131.253 160.006 129.482C160.44 127.711 159.356 125.923 157.584 125.49C155.813 125.056 154.026 126.14 153.592 127.911Z" fill="#A5C4B7"/>
<path d="M147.81 138.649C149.634 138.672 155.058 135.961 155.065 135.441C155.071 134.92 149.719 132.069 147.896 132.046C146.073 132.022 144.575 133.481 144.552 135.304C144.528 137.128 145.987 138.625 147.81 138.649Z" fill="#A5C4B7"/>
<path d="M159.348 133.837C158.353 135.835 158.461 143.255 159.031 143.539C159.601 143.823 165.587 139.437 166.582 137.44C167.577 135.442 166.764 133.016 164.766 132.022C162.769 131.027 160.343 131.84 159.348 133.837Z" fill="#A5C4B7"/>
<path d="M150.893 148.034C153.116 147.833 159.377 143.85 159.319 143.215C159.262 142.581 152.389 139.784 150.166 139.985C147.944 140.186 146.305 142.15 146.505 144.373C146.706 146.595 148.671 148.234 150.893 148.034Z" fill="#A5C4B7"/>
<path d="M163.647 142.081C162.653 144.079 162.76 151.499 163.33 151.783C163.9 152.067 169.886 147.681 170.881 145.684C171.876 143.686 171.063 141.261 169.066 140.266C167.068 139.271 164.642 140.084 163.647 142.081Z" fill="#A5C4B7"/>
<path d="M155.193 156.277C157.415 156.077 163.676 152.094 163.619 151.459C163.562 150.825 156.688 148.028 154.466 148.229C152.243 148.43 150.604 150.394 150.805 152.617C151.006 154.839 152.97 156.478 155.193 156.277Z" fill="#A5C4B7"/>
<path d="M145.286 116.741C145.14 117.835 146.38 121.29 146.692 121.332C147.004 121.373 149.103 118.362 149.248 117.268C149.394 116.174 148.625 115.169 147.53 115.023C146.436 114.878 145.431 115.647 145.286 116.741Z" fill="#A5C4B7"/>
<path d="M142.659 123.623C143.758 123.519 146.845 121.533 146.815 121.22C146.785 120.906 143.378 119.539 142.28 119.644C141.181 119.749 140.375 120.725 140.48 121.823C140.584 122.922 141.56 123.728 142.659 123.623Z" fill="#A5C4B7"/>
<path d="M149.339 121.34C149.006 122.873 150.358 127.909 150.795 128.004C151.232 128.099 154.555 124.08 154.888 122.548C155.222 121.016 154.25 119.503 152.717 119.17C151.185 118.836 149.673 119.808 149.339 121.34Z" fill="#A5C4B7"/>
<path d="M144.907 131.237C146.468 131.088 150.854 128.268 150.812 127.822C150.77 127.377 145.93 125.435 144.369 125.584C142.807 125.733 141.662 127.119 141.811 128.68C141.96 130.241 143.346 131.386 144.907 131.237Z" fill="#A5C4B7"/>
</g>
<mask id="mask3_90_5661" style="mask-type:luminance" maskUnits="userSpaceOnUse" x="20" y="-1" width="216" height="151">
<path d="M213.872 128.666C218.268 154.099 161.36 153.015 136.372 143.56C128.679 140.649 121.718 139.771 114.801 140.054C107.887 140.335 101.018 141.774 93.5085 143.498C92.8336 143.652 92.1546 143.81 91.4694 143.969C89.9191 144.327 88.3397 144.695 86.7256 145.064C79.1308 146.8 70.7659 148.562 61.0326 149.586C59.9012 149.705 58.7877 149.782 57.6929 149.817C42.6063 150.296 31.0913 142.927 24.9994 132.128C18.6091 120.804 18.184 105.708 25.8578 91.941C41.3788 64.0967 23.9504 53.0161 27.2179 31.0248C30.4853 9.03282 61.0275 3.04285 83.9001 12.0172C106.774 20.9914 139.863 4.76155 139.863 4.76155C151.352 0.159691 160.447 -1.24703 167.737 -0.153995C175.77 1.05049 181.612 5.28857 186.052 11.6296C187.181 13.2412 188.22 14.9897 189.18 16.858C191.17 20.7272 194.262 22.7774 197.928 23.9623C205.205 26.3151 214.742 25.2569 222.383 28.26C226.695 29.9548 230.404 32.9425 232.763 38.5662C247.79 74.3816 202.396 62.2819 213.872 128.666Z" fill="white"/>
</mask>
<g mask="url(#mask3_90_5661)">
<path d="M81.6525 75.8274C81.6525 75.8274 87.8387 79.6154 90.3169 79.4302C92.7953 79.2448 99.9117 77.7705 102.468 78.4924C103.264 78.7171 109.325 80.8943 110.051 82.5013C110.542 83.5885 108.024 85.7094 104.92 84.6608C99.5262 82.8379 96.1575 84.2627 93.7514 84.9918C89.6474 86.2356 87.2263 86.6506 89.158 86.8473C89.158 86.8473 95.1755 86.579 97.7522 87.0612C98.4484 87.1914 103.717 89.1523 104.098 90.6782C104.304 91.5037 102.771 93.9269 97.8953 92.5544C94.6914 91.6525 92.4175 93.3135 90.0662 94.4795C88.0312 95.4886 82.6648 100.759 82.6648 100.759L77.4313 92.6767L81.6525 75.8274Z" fill="#FF8D7D"/>
<path d="M79.8324 143.945C79.4383 141.298 90.8469 118.375 92.3709 116.946C96.1462 113.406 100.358 101.551 102.179 91.7111C103.174 86.345 105.919 80.0974 107.108 77.7499C108.043 75.9035 112.502 68.9463 112.301 67.1293C112.181 66.06 108.591 64.9414 106.985 65.3152C103.544 66.114 100.514 70.0975 96.3782 77.2124C92.4386 83.9912 85.5705 87.2132 85.6104 82.7118C85.7153 70.8462 109.208 67.0342 109.051 61.4534C109.009 59.9525 103.622 60.1548 98.9611 60.8977C97.0446 61.2032 85.4802 64.563 80.9099 67.148C78.0501 68.7655 61.6046 82.9145 58.2262 90.4069C56.6711 93.8558 58.9896 119.31 59.1651 120.081L59.1662 120.084C58.0371 124.436 51.3293 132.663 51.3326 133.283C62.8279 137.142 70.7574 143.53 79.8324 143.945Z" fill="#FFBEA7"/>
<path d="M80.4838 79.4711L69.5967 44.6924L186.937 55.9295L80.4838 79.4711Z" fill="#A0B8E4"/>
<path d="M65.2857 50.4148L52.0832 68.0165L75.1062 66.0514L186.937 55.9295L65.2857 50.4148Z" fill="#D7E2F4"/>
<path d="M69.5967 44.6924L79.2029 33.2657L186.937 55.9295L69.5967 44.6924Z" fill="#D7E2F4"/>
<path d="M71.6174 51.1476L69.5967 44.6924L186.09 55.7128L71.6174 51.1476Z" fill="#648CD3"/>
<path d="M51.2605 132.141L56.8389 116.072L87.6317 127.769L82.8705 143.035L51.2605 132.141Z" fill="#4072C9"/>
<path d="M84.9026 140.549C84.9026 140.549 83.0695 153.584 81.0512 167.682C66.8705 173.241 50.2955 178.485 29.5654 183.265C28.5506 183.499 27.536 183.714 26.5176 183.91L51.6344 128.063L52.5561 128.41L53.538 128.779L54.6674 129.202L54.6699 129.203L55.6296 129.563L55.631 129.566L55.632 129.564L82.3152 139.579L83.2674 139.936L83.2692 139.935L83.3805 139.976L83.7785 140.124L84.3254 140.33L84.3303 140.332L84.9026 140.549Z" fill="#2A2A3C"/>
<path d="M80.9246 132.125C80.5266 132.648 80.628 133.395 81.151 133.793C81.6741 134.191 82.4208 134.09 82.8189 133.567C83.2169 133.044 83.1155 132.297 82.5925 131.899C82.0694 131.501 81.3226 131.602 80.9246 132.125Z" fill="#100259"/>
<path d="M93.8015 115.248C97.1621 110.473 100.585 100.32 102.18 91.7114C103.174 86.3461 105.918 80.0973 107.107 77.7492C108.043 75.9049 112.502 68.9463 112.302 67.1289C112.18 66.0596 108.59 64.9416 106.985 65.3153C103.544 66.1143 100.512 70.0973 96.3783 77.211C92.4392 83.991 89.3692 86.173 86.0837 87.2043C84.9505 87.56 85.207 100.427 78.4675 95.5379C75.0825 93.0823 64.4323 100.83 65.3279 103.306C72.7397 123.8 93.8015 115.248 93.8015 115.248Z" fill="#FFBEA7"/>
</g>
</g>
<defs>
<linearGradient id="paint0_linear_90_5661" x1="128" y1="-0.505493" x2="128" y2="149.839" gradientUnits="userSpaceOnUse">
<stop stop-color="white"/>
<stop offset="1" stop-color="#E7EDF9"/>
</linearGradient>
<clipPath id="clip0_90_5661">
<rect width="256" height="160" fill="white"/>
</clipPath>
</defs>
</svg>
