<svg width="16" height="16" viewBox="0 0 16 16" xmlns="http://www.w3.org/2000/svg">
<path d="M16 13.375H13.375V16H12.125V13.375H9.5V12.125H12.125V9.5H13.375V12.125H16V13.375ZM9.35327 6.98242C9.4082 7.22961 9.4375 7.48645 9.4375 7.75C9.4375 8.82971 8.9502 9.79773 8.1842 10.4459C8.20606 10.4546 8.22815 10.463 8.25001 10.4719V11.8531C7.58081 11.4885 6.81421 11.2813 6 11.2813V11.28C5.98962 11.2803 5.97913 11.2803 5.96875 11.2805C3.36682 11.2805 1.25001 13.3981 1.25001 16H0C0 13.5197 1.52099 11.3881 3.67907 10.4882C2.88379 9.84021 2.375 8.8534 2.375 7.75C2.375 5.80286 3.9591 4.21875 5.90625 4.21875C6.1377 4.21875 6.36389 4.24133 6.58301 4.28405C6.52881 4.03894 6.5 3.78443 6.5 3.52332C6.5 1.58057 8.08057 0 10.0233 0C11.9661 0 13.5467 1.58057 13.5467 3.52332C13.5467 4.61377 13.0485 5.59009 12.2682 6.23682C13.2998 6.64649 14.189 7.33423 14.8402 8.21875H13.1574C12.381 7.53052 11.377 7.09375 10.2739 7.0376C10.191 7.04346 10.1075 7.04663 10.0233 7.04663C9.79419 7.04663 9.57019 7.02442 9.35327 6.98242ZM7.75 3.52332C7.75 4.77685 8.76977 5.79663 10.0233 5.79663C11.2767 5.79663 12.2966 4.77685 12.2966 3.52332C12.2966 2.26977 11.2767 1.25001 10.0233 1.25001C8.76977 1.25001 7.75 2.26977 7.75 3.52332ZM8.1875 7.75C8.1875 6.49206 7.16418 5.46875 5.90625 5.46875C4.64832 5.46875 3.625 6.49206 3.625 7.75C3.625 9.00794 4.64832 10.0313 5.90625 10.0313C7.16418 10.0313 8.1875 9.00794 8.1875 7.75Z" />
</svg>
