<svg width="12" height="15" viewBox="0 0 12 15" xmlns="http://www.w3.org/2000/svg">
<path d="M8.83333 14.6667C8.24132 14.6667 7.83333 14.474 7.47396 14.3039C7.12674 14.1407 6.82639 14 6.33333 14C5.84028 14 5.53993 14.1407 5.19271 14.3039C4.83333 14.474 4.42535 14.6667 3.83333 14.6667C2.39062 14.6667 0 11.3577 0 7.83338C0 5.49658 1.61111 3.66671 3.66667 3.66671C4.34201 3.66671 4.75347 3.86116 5.11458 4.0313C5.46007 4.19276 5.75694 4.33338 6.33333 4.33338C6.90972 4.33338 7.2066 4.19276 7.55208 4.0313C7.91319 3.86116 8.32465 3.66671 9 3.66671C9.88715 3.66671 10.6771 3.99484 11.3472 4.64067C11.4601 4.74831 11.5156 4.90456 11.4965 5.06081C11.4774 5.21533 11.3872 5.35422 11.2517 5.43234C10.4792 5.88199 10 6.83338 10 7.91672C10 9.1372 10.6684 10.1858 11.6615 10.5278C11.7917 10.5712 11.8976 10.6685 11.9549 10.7935C12.0122 10.9185 12.0156 11.0625 11.9618 11.1893C11.1545 13.1719 9.80729 14.6667 8.83333 14.6667ZM6.5 3.33338C6.38021 3.33338 6.26389 3.28998 6.17188 3.21012C6.05035 3.10595 5.98785 2.94796 6.00174 2.78824C6.00521 2.74658 6.10243 1.77262 6.86632 0.993104C7.58507 0.260465 8.28299 0.0417149 8.36111 0.0191455C8.52257 -0.0277295 8.69965 0.0104649 8.82812 0.121576C8.95486 0.232687 9.0191 0.402826 8.99479 0.571229C8.98438 0.65109 8.86458 1.38199 8.25174 2.20317C7.59375 3.08165 6.65451 3.31081 6.61458 3.31949C6.57639 3.32991 6.53819 3.33338 6.5 3.33338Z" />
</svg>
