<svg xmlns="http://www.w3.org/2000/svg" width="49" height="48" viewBox="0 0 49 48" fill="none">
<path d="M47.06 24C47.8553 24 48.5045 24.6453 48.4568 25.4392C48.297 28.0987 47.6953 30.7166 46.6731 33.1844C45.467 36.0962 43.6992 38.742 41.4706 40.9706C39.242 43.1992 36.5962 44.967 33.6844 46.1731C31.2166 47.1953 28.5987 47.797 25.9392 47.9568C25.1453 48.0045 24.5 47.3553 24.5 46.56C24.5 45.7647 25.1455 45.1251 25.9389 45.0709C28.22 44.9152 30.464 44.3897 32.5823 43.5123C35.1447 42.451 37.4729 40.8953 39.4341 38.9341C41.3953 36.9729 42.951 34.6447 44.0123 32.0823C44.8897 29.964 45.4152 27.72 45.5709 25.4389C45.6251 24.6455 46.2647 24 47.06 24Z" fill="url(#paint0_angular_591_10840)"/>
<path d="M1.94 24C1.14471 24 0.495499 23.3547 0.543186 22.5608C0.702953 19.9013 1.30471 17.2834 2.32689 14.8156C3.533 11.9038 5.30083 9.25804 7.52944 7.02944C9.75805 4.80083 12.4038 3.033 15.3156 1.82689C17.7834 0.804714 20.4013 0.202953 23.0608 0.0431862C23.8547 -0.00450134 24.5 0.644711 24.5 1.44C24.5 2.23529 23.8545 2.87489 23.0611 2.92907C20.78 3.08485 18.536 3.61025 16.4177 4.48766C13.8553 5.54905 11.5271 7.10473 9.56591 9.06591C7.60473 11.0271 6.04905 13.3553 4.98767 15.9177C4.11025 18.036 3.58485 20.28 3.42907 22.5611C3.37489 23.3545 2.73529 24 1.94 24Z" fill="url(#paint1_angular_591_10840)"/>
<defs>
<radialGradient id="paint0_angular_591_10840" cx="0" cy="0" r="1" gradientUnits="userSpaceOnUse" gradientTransform="translate(24.5 24) rotate(90) scale(24)">
<stop offset="0.75" stop-color="white"/>
<stop offset="1" stop-color="#46465D"/>
</radialGradient>
<radialGradient id="paint1_angular_591_10840" cx="0" cy="0" r="1" gradientUnits="userSpaceOnUse" gradientTransform="translate(24.5 24) rotate(-90) scale(24)">
<stop offset="0.75" stop-color="white"/>
<stop offset="1" stop-color="#46465D"/>
</radialGradient>
</defs>
</svg>
