<svg width="22" height="22" viewBox="0 0 22 22" fill="none" xmlns="http://www.w3.org/2000/svg">
<path d="M10.9844 0.986998C10.4323 0.994811 9.99217 1.44794 9.99998 2.00002V4.50002C9.99477 4.85939 10.1849 5.19533 10.4948 5.37762C10.8073 5.55992 11.1927 5.55992 11.5052 5.37762C11.8151 5.19533 12.0052 4.85939 12 4.50002V2.00002C12.0026 1.72919 11.8984 1.46877 11.7057 1.27867C11.5156 1.08856 11.2552 0.98179 10.9844 0.986998ZM15.5156 2.19273C15.151 2.19012 14.8125 2.38804 14.6328 2.70575L13.3828 4.87242C13.1068 5.34898 13.2708 5.96096 13.75 6.237C14.2291 6.51304 14.8411 6.34898 15.1172 5.87242L16.3672 3.70575C16.5495 3.39846 16.5547 3.01564 16.3802 2.70314C16.2031 2.39064 15.875 2.19533 15.5156 2.19273ZM6.45311 2.19533C6.10154 2.20835 5.78123 2.40627 5.61456 2.71617C5.44529 3.02606 5.4531 3.40367 5.63279 3.70575L6.88279 5.87242C7.15883 6.34898 7.77081 6.51304 8.24998 6.237C8.72915 5.96096 8.89321 5.34898 8.61717 4.87242L7.36717 2.70575C7.18227 2.37762 6.83071 2.17971 6.45311 2.19533ZM3.23175 5.49221C2.76821 5.47398 2.35415 5.77606 2.22915 6.22137C2.10415 6.66669 2.30206 7.14064 2.70571 7.36721L4.87238 8.61721C5.34894 8.89325 5.96092 8.72919 6.23696 8.25002C6.513 7.77085 6.34894 7.15887 5.87238 6.88283L3.70571 5.63283C3.56248 5.54689 3.39842 5.50002 3.23175 5.49221ZM18.8385 5.49221C18.6458 5.487 18.4583 5.53648 18.2943 5.63283L16.1276 6.88283C15.651 7.15887 15.487 7.77085 15.763 8.25002C16.039 8.72919 16.651 8.89325 17.1276 8.61721L19.2943 7.36721C19.6875 7.14846 19.8854 6.69273 19.7786 6.25523C19.6719 5.82033 19.2864 5.50783 18.8385 5.49221ZM1.99998 10C1.64061 9.99481 1.30467 10.1849 1.12238 10.4948C0.940084 10.8073 0.940084 11.1927 1.12238 11.5052C1.30467 11.8151 1.64061 12.0052 1.99998 12H4.49998C4.85935 12.0052 5.19529 11.8151 5.37758 11.5052C5.55988 11.1927 5.55988 10.8073 5.37758 10.4948C5.19529 10.1849 4.85935 9.99481 4.49998 10H1.99998ZM17.5 10C17.1406 9.99481 16.8047 10.1849 16.6224 10.4948C16.4401 10.8073 16.4401 11.1927 16.6224 11.5052C16.8047 11.8151 17.1406 12.0052 17.5 12H20C20.3594 12.0052 20.6953 11.8151 20.8776 11.5052C21.0599 11.1927 21.0599 10.8073 20.8776 10.4948C20.6953 10.1849 20.3594 9.99481 20 10H17.5ZM5.41404 13.2422C5.22394 13.237 5.03644 13.2865 4.87238 13.3828L2.70571 14.6328C2.22654 14.9089 2.06248 15.5209 2.33852 16C2.61456 16.4792 3.22654 16.6432 3.70571 16.3672L5.87238 15.1172C6.263 14.8985 6.46092 14.4427 6.35675 14.0052C6.24998 13.5703 5.86456 13.2578 5.41404 13.2422ZM16.6536 13.2422C16.1927 13.224 15.7786 13.5261 15.6536 13.9714C15.5286 14.4167 15.7239 14.8906 16.1276 15.1172L18.2943 16.3672C18.7734 16.6432 19.3854 16.4792 19.6614 16C19.9375 15.5209 19.7734 14.9089 19.2943 14.6328L17.1276 13.3828C16.9844 13.2969 16.8229 13.25 16.6536 13.2422ZM7.76561 15.6172C7.40102 15.612 7.06248 15.8099 6.88279 16.1276L5.63279 18.2943C5.35675 18.7735 5.52081 19.3854 5.99998 19.6615C6.47915 19.9375 7.09113 19.7735 7.36717 19.2943L8.61717 17.1276C8.79946 16.8203 8.80467 16.4375 8.63019 16.125C8.4531 15.8125 8.12498 15.6198 7.76561 15.6172ZM14.2031 15.6172C13.8515 15.6302 13.5312 15.8281 13.3646 16.1406C13.1953 16.4505 13.2031 16.8255 13.3828 17.1276L14.6328 19.2943C14.9088 19.7735 15.5208 19.9375 16 19.6615C16.4791 19.3854 16.6432 18.7735 16.3672 18.2943L15.1172 16.1276C14.9323 15.7995 14.5807 15.6016 14.2031 15.6172ZM10.9844 16.487C10.4323 16.4948 9.99217 16.9479 9.99998 17.5V20C9.99477 20.3594 10.1849 20.6953 10.4948 20.8776C10.8073 21.0599 11.1927 21.0599 11.5052 20.8776C11.8151 20.6953 12.0052 20.3594 12 20V17.5C12.0026 17.2292 11.8984 16.9688 11.7057 16.7787C11.5156 16.5886 11.2552 16.4818 10.9844 16.487Z" fill="#8A99B6"/>
</svg>
