<svg xmlns="http://www.w3.org/2000/svg" viewBox="0 0 29 28" fill="none">
  <g clip-path="url(#clip0_1107_16)">
    <path d="M16.9624 0.594241C15.5529 -0.0943476 13.9067 -0.0915592 12.5014 0.593364L5.47962 4.02116C3.73868 4.87103 2.62976 6.63779 2.62976 8.58107V24.3311C2.62976 30.8329 7.392 36.2016 12.8905 38.3543L12.8945 38.3559C14.0751 38.8163 15.3869 38.8163 16.5676 38.3559L16.5715 38.3543C22.07 36.2016 26.8323 30.8329 26.8323 24.3311V8.58107C26.8323 6.63779 25.7233 4.87103 23.9824 4.02116L16.9624 0.594241Z" fill="url(#paint0_linear_1107_16)" fill-opacity="0.5"/>
    <path d="M22.567 6.98679L15.5369 3.54377C15.0376 3.29872 14.4518 3.29872 13.9507 3.54377L6.92052 6.98679C6.30228 7.28957 5.91101 7.91696 5.91101 8.60561V13.532C5.91101 18.4099 9.55049 22.765 14.0985 24.5514C14.513 24.7136 14.9745 24.7136 15.389 24.5514C19.9371 22.765 23.5765 18.4099 23.5765 13.532V8.60561C23.5765 7.91696 23.1853 7.28957 22.567 6.98679Z" fill="url(#paint1_linear_1107_16)"/>
    <path d="M18.2909 15.2462V10.4187C18.2909 9.88381 17.8573 9.4502 17.3224 9.4502C16.7876 9.4502 16.354 9.88381 16.354 10.4187V15.4045C16.354 16.5041 15.8126 17.3955 14.713 17.3955C13.6134 17.3955 13.072 16.5041 13.072 15.4045C13.0714 14.0293 13.0716 11.7201 13.0718 10.4184C13.0719 9.88353 12.6383 9.4502 12.1034 9.4502C11.5686 9.4502 11.135 9.88375 11.135 10.4186V15.2462C11.135 17.4155 12.5436 19.1741 14.713 19.1741C16.8823 19.1741 18.2909 17.4155 18.2909 15.2462Z" fill="white"/>
    <path d="M18.2909 15.2462V10.4187C18.2909 9.88381 17.8573 9.4502 17.3224 9.4502C16.7876 9.4502 16.354 9.88381 16.354 10.4187V15.4045C16.354 16.5041 15.8126 17.3955 14.713 17.3955C13.6134 17.3955 13.072 16.5041 13.072 15.4045C13.0714 14.0293 13.0716 11.7201 13.0718 10.4184C13.0719 9.88353 12.6383 9.4502 12.1034 9.4502C11.5686 9.4502 11.135 9.88375 11.135 10.4186V15.2462C11.135 17.4155 12.5436 19.1741 14.713 19.1741C16.8823 19.1741 18.2909 17.4155 18.2909 15.2462Z" fill="url(#paint2_linear_1107_16)"/>
  </g>
  <defs>
    <linearGradient id="paint0_linear_1107_16" x1="14.731" y1="3.35999" x2="14.731" y2="28.6846" gradientUnits="userSpaceOnUse">
      <stop stop-color="#FD91BC"/>
      <stop offset="0.8" stop-color="#C04174" stop-opacity="0"/>
    </linearGradient>
    <linearGradient id="paint1_linear_1107_16" x1="14.7438" y1="3.35999" x2="14.7438" y2="24.673" gradientUnits="userSpaceOnUse">
      <stop stop-color="#FF8AB1"/>
      <stop offset="1" stop-color="#C90D5F"/>
    </linearGradient>
    <linearGradient id="paint2_linear_1107_16" x1="14.713" y1="8.08509" x2="14.713" y2="19.1742" gradientUnits="userSpaceOnUse">
      <stop offset="0.5" stop-color="#0F2E2A" stop-opacity="0"/>
      <stop offset="1" stop-color="#0F302B" stop-opacity="0.2"/>
    </linearGradient>
    <clipPath id="clip0_1107_16">
      <rect width="28" height="28" fill="white" transform="translate(0.730591)"/>
    </clipPath>
  </defs>
</svg>
