<svg width="97" height="18" viewBox="0 0 97 18" fill="none" xmlns="http://www.w3.org/2000/svg">
<g clip-path="url(#clip0_651_81073)">
<path fill-rule="evenodd" clip-rule="evenodd" d="M70.404 1.31738L64.5658 17.9929H62.1075L56.2375 1.31738H57.9483L62.4274 14.9234C62.5611 15.3266 62.7455 15.9304 62.9806 16.7362H63.6602C63.895 15.9304 64.0794 15.3266 64.2138 14.9234L68.6929 1.31738H70.404Z" fill="black"/>
<path fill-rule="evenodd" clip-rule="evenodd" d="M73.0569 9.945H77.209C78.6182 9.92897 79.5909 9.66715 80.128 9.15955C80.6643 8.65195 80.9329 7.6734 80.9329 6.22326C80.9329 4.75708 80.6643 3.76642 80.128 3.25031C79.5909 2.73519 78.6182 2.4773 77.209 2.4773C75.783 2.4773 74.3992 2.49333 73.0569 2.52541V9.945ZM71.4211 17.993V1.31744C72.8137 1.1885 74.7515 1.12402 77.234 1.12402C79.2636 1.12402 80.6687 1.48271 81.449 2.19944C82.2289 2.91617 82.619 4.25766 82.619 6.22326C82.619 8.18919 82.2373 9.53002 81.4743 10.2471C80.7103 10.9641 79.3559 11.3225 77.4103 11.3225C75.9505 11.3225 74.4995 11.2583 73.0569 11.1291V17.993H71.4211Z" fill="black"/>
<path fill-rule="evenodd" clip-rule="evenodd" d="M96.5113 1.31738V17.9929H93.4734L86.6473 4.79727C86.0264 3.55691 85.6995 2.88796 85.666 2.79142H85.1885C85.2212 3.22636 85.2381 3.89498 85.2381 4.79727V17.9929H83.6027V1.31738H86.7986L93.2654 14.2227C93.7852 15.2219 94.1709 15.971 94.4225 16.4704H94.9511C94.9008 15.6814 94.8758 14.8835 94.8758 14.0777V1.31738H96.5113Z" fill="black"/>
<path fill-rule="evenodd" clip-rule="evenodd" d="M6.75524 14.7273H3.37762V3.27273H0V14.7273V18H3.37762H6.75524H10.1329V14.7273V0H6.75524V14.7273Z" fill="#FF0066"/>
<path fill-rule="evenodd" clip-rule="evenodd" d="M14.5237 1.30909V0H11.1461V1.30909V4.58182V18H14.5237V4.58182H17.9014V5.89091H21.279V4.58182V1.30909H17.9014H14.5237Z" fill="#FF0066"/>
<path fill-rule="evenodd" clip-rule="evenodd" d="M54.7175 1.30909H50.6644V0H47.2867V18H50.6644V4.58182H54.7175V18H58.0951V4.58182V1.30909H54.7175Z" fill="#FF0066"/>
<mask id="mask0_651_81073" style="mask-type:luminance" maskUnits="userSpaceOnUse" x="0" y="0" width="97" height="18">
<path d="M0 18H96.5115V0H0V18Z" fill="white"/>
</mask>
<g mask="url(#mask0_651_81073)">
<path fill-rule="evenodd" clip-rule="evenodd" d="M38.1672 14.7273H42.8958V10.8H38.1672V14.7273ZM42.8958 1.30908H36.8161V4.58181H42.8958V7.52726H38.1672H35.4651H34.7896V14.7273V18H38.1672H42.8958H46.2735V14.7273V10.8V7.52726V1.30908H45.5979H42.8958Z" fill="#FF0066"/>
</g>
<mask id="mask1_651_81073" style="mask-type:luminance" maskUnits="userSpaceOnUse" x="0" y="0" width="97" height="18">
<path d="M0 18H96.5115V0H0V18Z" fill="white"/>
</mask>
<g mask="url(#mask1_651_81073)">
<path fill-rule="evenodd" clip-rule="evenodd" d="M25.67 14.7273H30.3987V10.8H25.67V14.7273ZM25.67 7.52727H28.3721V3.27273H25.67V7.52727ZM31.7497 7.52727V3.27273V0H28.3721H25.67H22.2924V3.27273V14.7273V18H25.67H30.3987H33.7763V14.7273V7.52727H32.763H31.7497Z" fill="#FF0066"/>
</g>
</g>
<defs>
<clipPath id="clip0_651_81073">
<rect width="96.6" height="18" fill="white"/>
</clipPath>
</defs>
</svg>
