<svg width="120" height="28" viewBox="0 0 120 28" fill="none" xmlns="http://www.w3.org/2000/svg">
<g clip-path="url(#clip0_505_5297)">
<path d="M17.9625 0.594241C16.5531 -0.0943476 14.9068 -0.0915592 13.5015 0.593364L6.47974 4.02116C4.7388 4.87103 3.62988 6.63779 3.62988 8.58107V24.3311C3.62988 30.8329 8.39212 36.2016 13.8906 38.3543L13.8946 38.3559C15.0752 38.8163 16.3871 38.8163 17.5677 38.3559L17.5717 38.3543C23.0701 36.2016 27.8324 30.8329 27.8324 24.3311V8.58107C27.8324 6.63779 26.7235 4.87103 24.9825 4.02116L17.9625 0.594241Z" fill="url(#paint0_linear_505_5297)" fill-opacity="0.5"/>
<path d="M23.5672 6.98685L16.5371 3.54383C16.0378 3.29879 15.452 3.29879 14.9509 3.54383L7.9207 6.98685C7.30246 7.28963 6.91119 7.91702 6.91119 8.60567V13.5321C6.91119 18.4099 10.5507 22.765 15.0987 24.5514C15.5132 24.7136 15.9747 24.7136 16.3892 24.5514C20.9372 22.765 24.5767 18.4099 24.5767 13.5321V8.60567C24.5767 7.91702 24.1854 7.28963 23.5672 6.98685Z" fill="url(#paint1_linear_505_5297)"/>
<path d="M19.2911 15.2462V10.4187C19.2911 9.88381 18.8575 9.4502 18.3226 9.4502C17.7877 9.4502 17.3541 9.88381 17.3541 10.4187V15.4045C17.3541 16.5041 16.8127 17.3955 15.7131 17.3955C14.6135 17.3955 14.0721 16.5041 14.0721 15.4045C14.0715 14.0293 14.0717 11.7201 14.0719 10.4184C14.072 9.88353 13.6384 9.4502 13.1035 9.4502C12.5687 9.4502 12.1351 9.88375 12.1351 10.4186V15.2462C12.1351 17.4155 13.5437 19.1741 15.7131 19.1741C17.8825 19.1741 19.2911 17.4155 19.2911 15.2462Z" fill="white"/>
<path d="M19.2911 15.2462V10.4187C19.2911 9.88381 18.8575 9.4502 18.3226 9.4502C17.7877 9.4502 17.3541 9.88381 17.3541 10.4187V15.4045C17.3541 16.5041 16.8127 17.3955 15.7131 17.3955C14.6135 17.3955 14.0721 16.5041 14.0721 15.4045C14.0715 14.0293 14.0717 11.7201 14.0719 10.4184C14.072 9.88353 13.6384 9.4502 13.1035 9.4502C12.5687 9.4502 12.1351 9.88375 12.1351 10.4186V15.2462C12.1351 17.4155 13.5437 19.1741 15.7131 19.1741C17.8825 19.1741 19.2911 17.4155 19.2911 15.2462Z" fill="url(#paint2_linear_505_5297)"/>
</g>
<path fill-rule="evenodd" clip-rule="evenodd" d="M51.2997 19.02C51.2997 19.495 51.6847 19.88 52.1596 19.88C52.607 19.88 52.9797 19.5369 53.0166 19.091L53.0564 18.6112C53.2766 19.0316 53.6169 19.3619 54.0773 19.6021C54.5378 19.8423 55.0433 19.9625 55.5938 19.9625C56.3045 19.9625 56.9201 19.8023 57.4406 19.482C57.9711 19.1517 58.3815 18.6962 58.6718 18.1157C58.9721 17.5351 59.1222 16.8695 59.1222 16.1187C59.1422 15.328 59.0121 14.6323 58.7318 14.0317C58.4516 13.4312 58.0562 12.9657 57.5457 12.6354C57.0352 12.2951 56.4296 12.1249 55.7289 12.1249C55.1584 12.1249 54.6329 12.24 54.1524 12.4702C53.682 12.7004 53.3266 13.0258 53.0864 13.4462V9.99334C53.0864 9.49995 52.6864 9.09998 52.193 9.09998C51.6996 9.09998 51.2997 9.49995 51.2997 9.99334V19.02ZM53.4167 17.2148C53.2465 16.8645 53.1615 16.4691 53.1615 16.0287C53.1615 15.5782 53.2465 15.1878 53.4167 14.8575C53.5869 14.5172 53.8271 14.2519 54.1374 14.0618C54.4477 13.8616 54.8131 13.7615 55.2335 13.7615C55.6639 13.7615 56.0292 13.8616 56.3295 14.0618C56.6398 14.2519 56.8751 14.5172 57.0352 14.8575C57.2054 15.1979 57.2905 15.5882 57.2905 16.0287C57.2905 16.4691 57.2054 16.8595 57.0352 17.1998C56.8751 17.5401 56.6398 17.8054 56.3295 17.9956C56.0292 18.1857 55.6639 18.2808 55.2335 18.2808C54.8131 18.2808 54.4477 18.1908 54.1374 18.0106C53.8271 17.8204 53.5869 17.5551 53.4167 17.2148Z" fill="#222244"/>
<path fill-rule="evenodd" clip-rule="evenodd" d="M60.9236 19.3319C61.374 19.7523 61.9946 19.9625 62.7854 19.9625C63.3659 19.9625 63.8664 19.8423 64.2868 19.6021C64.7072 19.3619 64.9975 19.0516 65.1576 18.6712L65.2085 19.1262C65.2565 19.5554 65.6194 19.88 66.0513 19.88C66.5197 19.88 66.8993 19.5003 66.8993 19.0319V15.2629C66.8993 14.6123 66.7742 14.0518 66.524 13.5813C66.2737 13.1108 65.9084 12.7505 65.4279 12.5003C64.9575 12.25 64.3719 12.1249 63.6712 12.1249C63.0406 12.1249 62.4801 12.24 61.9896 12.4702C61.4991 12.6904 61.1187 13.0007 60.8485 13.4011C60.7167 13.5915 60.6171 13.7985 60.5495 14.0221C60.4266 14.4295 60.7881 14.7825 61.2136 14.7825C61.647 14.7825 61.9628 14.3792 62.2399 14.0459C62.289 13.9869 62.3457 13.9321 62.41 13.8816C62.6903 13.6614 63.0806 13.5513 63.5811 13.5513C63.8914 13.5513 64.1617 13.5963 64.3919 13.6864C64.6221 13.7765 64.7973 13.9266 64.9174 14.1368C65.0475 14.337 65.1126 14.6123 65.1126 14.9626V15.1278L62.9956 15.308C62.1648 15.378 61.4991 15.6083 60.9986 15.9986C60.4981 16.379 60.2479 16.9295 60.2479 17.6502C60.2479 18.3409 60.4731 18.9014 60.9236 19.3319ZM64.1817 18.416C63.9114 18.5261 63.6412 18.5811 63.3709 18.5811C62.9705 18.5811 62.6602 18.496 62.44 18.3259C62.2198 18.1457 62.1097 17.8955 62.1097 17.5752C62.1097 17.2849 62.2198 17.0496 62.44 16.8695C62.6602 16.6793 63.0406 16.5592 63.5811 16.5091L65.1276 16.374V16.7644C65.1276 17.2248 65.0375 17.5852 64.8574 17.8454C64.6772 18.1057 64.452 18.2959 64.1817 18.416Z" fill="#222244"/>
<path d="M70.6245 18.9716C70.6245 19.4733 70.2178 19.88 69.7161 19.88C69.2144 19.88 68.8077 19.4733 68.8077 18.9716V13.2562C68.8077 12.7558 69.2134 12.3501 69.7138 12.3501C70.1603 12.3501 70.5402 12.6753 70.6091 13.1163L70.6395 13.311C70.8797 12.9307 71.2101 12.6404 71.6305 12.4402C72.0609 12.23 72.5263 12.1249 73.0268 12.1249C73.9978 12.1249 74.7084 12.4102 75.1589 12.9807C75.6093 13.5413 75.8345 14.282 75.8345 15.2029V18.9716C75.8345 19.4733 75.4278 19.88 74.9262 19.88C74.4245 19.88 74.0178 19.4733 74.0178 18.9716V15.6383C74.0178 15.2379 73.9677 14.9176 73.8676 14.6774C73.7675 14.4271 73.6374 14.2419 73.4773 14.1218C73.3171 13.9917 73.1469 13.9066 72.9668 13.8666C72.7866 13.8165 72.6114 13.7915 72.4412 13.7915C72.2511 13.7915 72.0459 13.8265 71.8257 13.8966C71.6155 13.9567 71.4203 14.0618 71.2401 14.2119C71.0599 14.352 70.9098 14.5522 70.7897 14.8125C70.6796 15.0627 70.6245 15.383 70.6245 15.7734V18.9716Z" fill="#222244"/>
<path d="M49.2063 13.9116C49.6044 13.9116 49.927 13.589 49.927 13.1909V13.0202C49.927 12.6093 49.6452 12.2383 49.2344 12.2274C49.0469 12.2224 48.8573 12.2333 48.6658 12.26C48.2354 12.3101 47.8651 12.4452 47.5547 12.6654C47.3387 12.8118 47.176 13.0043 47.0667 13.2428L47.0569 13.1545C47.007 12.7051 46.6271 12.3651 46.1749 12.3651C45.6849 12.3651 45.2876 12.7624 45.2876 13.2525V18.9641C45.2876 19.4699 45.6976 19.88 46.2034 19.88C46.7093 19.88 47.1193 19.4699 47.1193 18.9641V16.1638C47.1193 15.4431 47.2995 14.8876 47.6598 14.4972C48.0302 14.1068 48.5457 13.9116 49.2063 13.9116Z" fill="#222244"/>
<path d="M95.6202 19.3884C95.6202 19.6599 95.8403 19.88 96.1118 19.88C96.3833 19.88 96.6034 19.6599 96.6034 19.3884V11.0876L102.184 19.6145C102.292 19.7802 102.477 19.88 102.675 19.88C102.999 19.88 103.262 19.6173 103.262 19.2932V9.79048C103.262 9.52295 103.045 9.30607 102.777 9.30607C102.51 9.30607 102.293 9.52295 102.293 9.79048V17.993L96.7158 9.57359C96.6051 9.40653 96.4181 9.30607 96.2177 9.30607C95.8877 9.30607 95.6202 9.57357 95.6202 9.90354V19.3884Z" fill="#222244"/>
<path fill-rule="evenodd" clip-rule="evenodd" d="M88.2436 19.3956C88.2436 19.6631 88.0267 19.88 87.7592 19.88C87.4917 19.88 87.2748 19.6631 87.2748 19.3956V10.7061C87.2748 9.93288 87.9016 9.30607 88.6748 9.30607H91.2175C92.2129 9.30607 93.0128 9.60274 93.5994 10.2093C94.1941 10.8143 94.4858 11.6173 94.4858 12.6031C94.4858 13.5534 94.1877 14.3541 93.587 14.9948L93.5862 14.9956C92.9823 15.6297 92.188 15.9431 91.2175 15.9431H88.2436V19.3956ZM92.8528 14.343L92.8539 14.3419C93.2829 13.904 93.5027 13.3197 93.5027 12.5744C93.5027 11.837 93.2916 11.2788 92.8847 10.8807L92.8836 10.8796C92.4752 10.4713 91.916 10.2605 91.1888 10.2605H88.9436C88.557 10.2605 88.2436 10.5739 88.2436 10.9605V15.003H91.1027C91.8576 15.003 92.435 14.7786 92.8528 14.343Z" fill="#222244"/>
<path d="M78.2121 9.30607C77.8786 9.30607 77.6484 9.63999 77.7671 9.95164L81.3822 19.4483C81.4812 19.7082 81.7303 19.88 82.0084 19.88C82.2868 19.88 82.5361 19.7079 82.6348 19.4476L86.2399 9.94249C86.3565 9.63509 86.1294 9.30607 85.8007 9.30607C85.6066 9.30607 85.4325 9.4254 85.3625 9.6064L82.5023 17.0011L82.5015 17.003C82.2879 17.581 82.1252 18.0331 82.0138 18.3579C81.8691 17.9398 81.7026 17.4918 81.5147 17.0146L78.6563 9.61074C78.5854 9.42715 78.4089 9.30607 78.2121 9.30607Z" fill="#222244"/>
<path d="M43.441 15.9457V10.0685C43.441 9.53359 43.0074 9.09998 42.4725 9.09998C41.9376 9.09998 41.504 9.53359 41.504 10.0685V16.1041C41.504 17.2037 40.6126 18.095 39.5131 18.095C38.4135 18.095 37.5221 17.2036 37.5221 16.104C37.5214 14.6571 37.5217 11.624 37.5219 10.0672C37.522 9.53226 37.0884 9.09998 36.5535 9.09998C36.0187 9.09998 35.5851 9.53355 35.5851 10.0684V15.9457C35.5851 18.1151 37.3437 19.8737 39.5131 19.8737C41.6824 19.8737 43.441 18.1151 43.441 15.9457Z" fill="#222244"/>
<defs>
<linearGradient id="paint0_linear_505_5297" x1="15.7311" y1="3.35999" x2="15.7311" y2="28.6846" gradientUnits="userSpaceOnUse">
<stop stop-color="#FD91BC"/>
<stop offset="0.8" stop-color="#C04174" stop-opacity="0"/>
</linearGradient>
<linearGradient id="paint1_linear_505_5297" x1="15.744" y1="3.36005" x2="15.744" y2="24.6731" gradientUnits="userSpaceOnUse">
<stop stop-color="#FF8AB1"/>
<stop offset="1" stop-color="#C90D5F"/>
</linearGradient>
<linearGradient id="paint2_linear_505_5297" x1="15.7131" y1="8.08509" x2="15.7131" y2="19.1742" gradientUnits="userSpaceOnUse">
<stop offset="0.5" stop-color="#0F2E2A" stop-opacity="0"/>
<stop offset="1" stop-color="#0F302B" stop-opacity="0.2"/>
</linearGradient>
<clipPath id="clip0_505_5297">
<rect width="28" height="28" fill="white" transform="translate(1.73065)"/>
</clipPath>
</defs>
</svg>
