<svg width="16" height="11" viewBox="0 0 16 11" xmlns="http://www.w3.org/2000/svg">
<path d="M2.83333 0C2.18923 0 1.66666 0.522569 1.66666 1.16667V7.5C1.66666 8.1441 2.18923 8.66667 2.83333 8.66667H13.1667C13.8108 8.66667 14.3333 8.1441 14.3333 7.5V1.16667C14.3333 0.522569 13.8108 0 13.1667 0H2.83333ZM9.15798 1.67188C9.19444 1.67882 9.22743 1.69271 9.25694 1.71701C9.3125 1.76042 9.34375 1.82639 9.32986 1.8941C9.32639 1.92708 9.27257 2.22049 9 2.54688C8.70659 2.90104 8.28993 2.98958 8.27257 2.99653C8.25694 3 8.23958 3 8.22396 3C8.17014 3 8.11632 2.98264 8.07639 2.94965C8.0243 2.90972 7.99305 2.84722 8 2.78299C8.00347 2.76736 8.04687 2.37674 8.38368 2.0625C8.70312 1.7691 9.01389 1.68403 9.05034 1.67361C9.08507 1.66493 9.12152 1.66493 9.15798 1.67188ZM7.1493 3.33333C7.57639 3.33333 7.63715 3.55729 8.11979 3.55729C8.6059 3.55729 8.66666 3.33333 9.09027 3.33333C9.37326 3.33333 9.61284 3.43056 9.81597 3.60938C9.48264 3.78993 9.27257 4.15972 9.27257 4.58333C9.27257 5.07292 9.57639 5.47743 10 5.60938C9.72048 6.23611 9.27257 6.66667 9.02951 6.66667C8.66666 6.66667 8.54687 6.44271 8.11979 6.44271C7.69618 6.44271 7.57639 6.66667 7.21354 6.66667C6.85069 6.66667 6 5.72396 6 4.55729C6 3.83333 6.53298 3.33333 7.1493 3.33333ZM0.83333 9.66667C0.652774 9.66493 0.486108 9.75868 0.394094 9.91493C0.303816 10.0712 0.303816 10.2622 0.394094 10.4184C0.486108 10.5747 0.652774 10.6684 0.83333 10.6667H15.1667C15.3472 10.6684 15.5139 10.5747 15.6059 10.4184C15.6962 10.2622 15.6962 10.0712 15.6059 9.91493C15.5139 9.75868 15.3472 9.66493 15.1667 9.66667H0.83333Z" />
</svg>
