<svg viewBox="0 0 17 12" fill="none" xmlns="http://www.w3.org/2000/svg">
<path d="M8.49023 -0.0077652C8.18163 -0.0038587 7.93359 0.252 7.93749 0.562547V7.68755C7.93554 7.89067 8.04101 8.07817 8.21679 8.18169C8.39257 8.28325 8.60742 8.28325 8.7832 8.18169C8.95898 8.07817 9.06445 7.89067 9.06249 7.68755V0.562547C9.06445 0.410203 9.00585 0.263719 8.89843 0.156297C8.78906 0.0488753 8.64257 -0.0097182 8.49023 -0.0077652ZM6.46288 0.605516C6.4121 0.603563 6.36132 0.609422 6.31054 0.621141C4.21288 1.10356 2.37499 2.26177 1.03515 3.85356C0.835932 4.09184 0.867182 4.44731 1.10351 4.64653C1.34179 4.8477 1.69726 4.81645 1.89648 4.57817C3.08203 3.16802 4.70898 2.14458 6.56445 1.7188C6.84179 1.65825 7.0332 1.40044 7.00585 1.11723C6.98046 0.834032 6.74804 0.613328 6.46288 0.605516ZM10.5762 0.605516C10.5586 0.605516 10.5391 0.605516 10.5215 0.605516C10.2402 0.623094 10.0137 0.84575 9.99218 1.12505C9.9707 1.4063 10.1602 1.6602 10.4355 1.7188C12.291 2.14458 13.918 3.16802 15.1035 4.57817C15.2305 4.73638 15.4336 4.81255 15.6348 4.77739C15.834 4.74419 16 4.60356 16.0684 4.41216C16.1367 4.22075 16.0977 4.00786 15.9648 3.85552C14.625 2.26372 12.7871 1.10356 10.6894 0.621141C10.6523 0.613328 10.6152 0.607469 10.5762 0.605516ZM6.45312 3.72661C6.38281 3.72661 6.31445 3.73833 6.24999 3.76177C5.01171 4.20122 3.94335 4.99028 3.1582 6.00981C3.02929 6.16802 2.99609 6.38481 3.07226 6.57427C3.14843 6.76177 3.32226 6.89653 3.52539 6.92192C3.72656 6.94731 3.92773 6.86138 4.04882 6.69731C4.70507 5.84575 5.59765 5.18755 6.62499 4.82231C6.88476 4.73247 7.04296 4.47075 6.99999 4.20122C6.95703 3.93169 6.72656 3.73052 6.45312 3.72661ZM10.5293 3.72661C10.2598 3.73833 10.0371 3.94145 9.99999 4.20903C9.96093 4.47661 10.1191 4.73247 10.375 4.82036C11.4023 5.18755 12.2949 5.84575 12.9512 6.69731C13.0723 6.86138 13.2734 6.94731 13.4746 6.92192C13.6777 6.89653 13.8516 6.76177 13.9277 6.57427C14.0039 6.38481 13.9707 6.16802 13.8418 6.00981C13.0566 4.99028 11.9883 4.20122 10.75 3.76177C10.6797 3.73442 10.6055 3.7227 10.5293 3.72661ZM10.5527 7.11919C10.3144 7.11528 10.0996 7.26372 10.0156 7.48833C9.93359 7.71294 10.0019 7.96489 10.1875 8.11724C10.4121 8.30864 10.6074 8.53716 10.7598 8.79302C10.8594 8.97075 11.0469 9.07817 11.25 9.07622C11.4531 9.07622 11.6406 8.96489 11.7383 8.78911C11.8379 8.61138 11.834 8.39458 11.7266 8.22075C11.5117 7.85552 11.2363 7.5313 10.9141 7.25786C10.8125 7.17192 10.6855 7.12114 10.5527 7.11919ZM6.41406 7.13091C6.28906 7.13677 6.16796 7.18559 6.07226 7.26958C5.75585 7.53911 5.48632 7.86138 5.27343 8.22075C5.16601 8.39458 5.16015 8.61333 5.25976 8.79106C5.35937 8.9688 5.54687 9.08013 5.74999 9.08013C5.95312 9.08013 6.14257 8.97075 6.24218 8.79302C6.39062 8.54106 6.58203 8.3145 6.80273 8.12505C6.99023 7.97075 7.05663 7.71489 6.96679 7.48833C6.8789 7.26177 6.65624 7.11919 6.41406 7.13091ZM8.49999 9.37505C7.8789 9.37505 7.37499 9.87895 7.37499 10.5C7.37499 11.1211 7.8789 11.625 8.49999 11.625C9.12109 11.625 9.62499 11.1211 9.62499 10.5C9.62499 9.87895 9.12109 9.37505 8.49999 9.37505Z" fill="#2A2A3C"/>
</svg>
