<svg width="14" height="15" viewBox="0 0 14 15" fill="none" xmlns="http://www.w3.org/2000/svg">
<path d="M2.16667 0.333374C1.33334 0.333374 0.666672 1.00004 0.666672 1.83337V12.1667C0.666672 13 1.33334 13.6667 2.16667 13.6667H7.96702C7.69966 13.3993 7.4323 13.066 7.23264 12.6667H2.16667C1.89931 12.6667 1.66667 12.4341 1.66667 12.1667V1.83337C1.66667 1.56601 1.89931 1.33337 2.16667 1.33337H6.00001V4.16671C6.00001 5.00004 6.66667 5.66671 7.50001 5.66671H10.3333V6.00004C10.6667 6.00004 10.934 6.13372 11.1337 6.39935C11.1997 6.46705 11.2674 6.56601 11.3333 6.63372V5.16671C11.3333 5.03303 11.276 4.90803 11.184 4.81601L11.1875 4.81254L6.85417 0.479207L6.8507 0.48268C6.75869 0.390666 6.63369 0.333374 6.50001 0.333374H2.16667ZM7.00001 2.03997L9.62674 4.66671H7.50001C7.23264 4.66671 7.00001 4.43407 7.00001 4.16671V2.03997ZM10.3333 6.67539C10.2326 6.67539 10.1337 6.71705 10.066 6.80039C9.16667 7.96705 7.66667 8.00004 7.66667 8.00004C7.46702 8.00004 7.33334 8.13372 7.33334 8.33337V10.3334C7.33334 13.566 10.2344 14.3334 10.2674 14.3334H10.3993C10.4323 14.3004 13.3333 13.566 13.3333 10.3334V8.33337C13.3333 8.16671 13.1667 8.00004 13 8.00004C13 8.00004 11.5 7.96705 10.6007 6.80039C10.533 6.71705 10.434 6.67539 10.3333 6.67539ZM3.83334 7.33337C3.56598 7.33337 3.33334 7.56601 3.33334 7.83337C3.33334 8.10074 3.56598 8.33337 3.83334 8.33337H6.66667C6.66667 7.80039 7.06598 7.36636 7.56598 7.33337H3.83334ZM3.83334 9.66671C3.56598 9.66671 3.33334 9.89935 3.33334 10.1667C3.33334 10.4341 3.56598 10.6667 3.83334 10.6667H6.66667V9.66671H3.83334Z" fill="#4072C9"/>
</svg>
