<svg width="12" height="12" viewBox="0 0 12 12" fill="none" xmlns="http://www.w3.org/2000/svg">
<path d="M1.5 0C0.677084 0 0 0.677084 0 1.5V4.16667C0 4.98958 0.677084 5.66667 1.5 5.66667H4.16667C4.98958 5.66667 5.66667 4.98958 5.66667 4.16667V1.5C5.66667 0.677084 4.98958 0 4.16667 0H1.5ZM7.83333 0C7.01042 0 6.33333 0.677084 6.33333 1.5V4.16667C6.33333 4.98958 7.01042 5.66667 7.83333 5.66667H10.5C11.3229 5.66667 12 4.98958 12 4.16667V1.5C12 0.677084 11.3229 0 10.5 0H7.83333ZM1.5 1H4.16667C4.44965 1 4.66667 1.21701 4.66667 1.5V4.16667C4.66667 4.44965 4.44965 4.66667 4.16667 4.66667H1.5C1.21701 4.66667 1 4.44965 1 4.16667V1.5C1 1.21701 1.21701 1 1.5 1ZM7.83333 1H10.5C10.783 1 11 1.21701 11 1.5V4.16667C11 4.44965 10.783 4.66667 10.5 4.66667H7.83333C7.55035 4.66667 7.33333 4.44965 7.33333 4.16667V1.5C7.33333 1.21701 7.55035 1 7.83333 1ZM1.5 6.33333C0.677084 6.33333 0 7.01042 0 7.83333V10.5C0 11.3229 0.677084 12 1.5 12H4.16667C4.98958 12 5.66667 11.3229 5.66667 10.5V7.83333C5.66667 7.01042 4.98958 6.33333 4.16667 6.33333H1.5ZM7.83333 6.33333C7.01042 6.33333 6.33333 7.01042 6.33333 7.83333V10.5C6.33333 11.3229 7.01042 12 7.83333 12H10.5C11.3229 12 12 11.3229 12 10.5V7.83333C12 7.01042 11.3229 6.33333 10.5 6.33333H7.83333ZM1.5 7.33333H4.16667C4.44965 7.33333 4.66667 7.55035 4.66667 7.83333V10.5C4.66667 10.783 4.44965 11 4.16667 11H1.5C1.21701 11 1 10.783 1 10.5V7.83333C1 7.55035 1.21701 7.33333 1.5 7.33333ZM7.83333 7.33333H10.5C10.783 7.33333 11 7.55035 11 7.83333V10.5C11 10.783 10.783 11 10.5 11H7.83333C7.55035 11 7.33333 10.783 7.33333 10.5V7.83333C7.33333 7.55035 7.55035 7.33333 7.83333 7.33333Z" fill="#4072C9"/>
</svg>
