<svg viewBox="0 0 16 14" xmlns="http://www.w3.org/2000/svg">
<path d="M8 0.666626C4.50868 0.666626 1.66667 3.50864 1.66667 6.99996C1.66667 10.4913 4.50868 13.3333 8 13.3333C11.4913 13.3333 14.3333 10.4913 14.3333 6.99996C14.3333 3.50864 11.4913 0.666626 8 0.666626ZM8 1.66663C10.9514 1.66663 13.3333 4.04857 13.3333 6.99996C13.3333 9.95135 10.9514 12.3333 8 12.3333C5.04861 12.3333 2.66667 9.95135 2.66667 6.99996C2.66667 4.04857 5.04861 1.66663 8 1.66663ZM1.00174 3.8767C0.984375 3.8767 0.96875 3.8767 0.951389 3.8767C0.751736 3.88885 0.576389 4.01906 0.510417 4.20829C0.185764 5.07635 0 6.01558 0 6.99996C0 7.98433 0.185764 8.92357 0.510417 9.79163C0.569444 9.96176 0.717014 10.085 0.895833 10.1163C1.07292 10.1475 1.25521 10.0798 1.36806 9.94093C1.48264 9.80031 1.51215 9.60933 1.44618 9.44093C1.16146 8.67704 1 7.85933 1 6.99996C1 6.14058 1.16146 5.32288 1.44618 4.55899C1.50521 4.40795 1.48785 4.23781 1.39931 4.10413C1.31076 3.96871 1.16319 3.88364 1.00174 3.8767ZM15.033 3.8767C14.8663 3.87149 14.7066 3.95135 14.6111 4.0885C14.5139 4.22565 14.4931 4.40274 14.5538 4.55899C14.8385 5.32288 15 6.14058 15 6.99996C15 7.85933 14.8385 8.67704 14.5538 9.44093C14.4878 9.60933 14.5174 9.80031 14.6319 9.94093C14.7448 10.0798 14.9271 10.1475 15.1042 10.1163C15.283 10.085 15.4306 9.96176 15.4896 9.79163C15.8142 8.92357 16 7.98433 16 6.99996C16 6.01558 15.8142 5.07635 15.4896 4.20829C15.4201 4.01385 15.2396 3.8819 15.033 3.8767ZM7.99132 3.99301C7.71701 3.99649 7.49653 4.22392 7.5 4.49996V7.49996C7.49826 7.68051 7.59201 7.84718 7.74826 7.9392C7.90451 8.02947 8.09549 8.02947 8.25174 7.9392C8.40799 7.84718 8.50174 7.68051 8.5 7.49996V4.49996C8.50174 4.36454 8.44965 4.23433 8.35417 4.13885C8.25694 4.04336 8.12674 3.99128 7.99132 3.99301ZM8 8.66663C7.63194 8.66663 7.33333 8.96524 7.33333 9.33329C7.33333 9.70135 7.63194 9.99996 8 9.99996C8.36806 9.99996 8.66667 9.70135 8.66667 9.33329C8.66667 8.96524 8.36806 8.66663 8 8.66663Z" />
</svg>
