<svg viewBox="0 0 17 17" xmlns="http://www.w3.org/2000/svg">
<path d="M3.29167 8.13215L1.35417 7.29882C1.07639 7.1877 0.913056 6.98632 0.864167 6.69465C0.815278 6.40298 0.895278 6.15298 1.10417 5.94465L3.72917 3.31965C3.92361 3.12521 4.15278 2.98632 4.41667 2.90298C4.68056 2.81965 4.95139 2.80576 5.22917 2.86132L6.3125 3.09048C5.57639 3.96548 4.98972 4.76076 4.5525 5.47632C4.11528 6.19187 3.695 7.07715 3.29167 8.13215ZM15.5417 0.00714957C15.6528 0.00714957 15.7639 0.0349273 15.875 0.0904828C15.9861 0.146038 16.0833 0.215483 16.1667 0.298816C16.25 0.382149 16.3194 0.479372 16.375 0.590483C16.4306 0.701594 16.4583 0.812705 16.4583 0.923816C16.5139 2.21548 16.2397 3.55576 15.6358 4.94465C15.0319 6.33354 14.1811 7.57659 13.0833 8.67382C12.3333 9.42382 11.6111 10.0246 10.9167 10.4763C10.2222 10.928 9.40278 11.3549 8.45833 11.7571C8.27778 11.8266 8.09389 11.8613 7.90667 11.8613C7.71944 11.8613 7.55611 11.7919 7.41667 11.653L4.8125 9.04882C4.67361 8.90993 4.60417 8.74659 4.60417 8.55882C4.60417 8.37104 4.63889 8.18715 4.70833 8.00715C5.11111 7.07659 5.53833 6.26048 5.99 5.55882C6.44167 4.85715 7.04222 4.13159 7.79167 3.38215C8.88889 2.28493 10.1319 1.43409 11.5208 0.82965C12.9097 0.225205 14.25 -0.0489615 15.5417 0.00714957ZM10.25 6.21548C10.5694 6.53493 10.9619 6.69465 11.4275 6.69465C11.8931 6.69465 12.2853 6.53493 12.6042 6.21548C12.9236 5.89604 13.0833 5.50382 13.0833 5.03882C13.0833 4.57382 12.9236 4.18132 12.6042 3.86132C12.2847 3.54187 11.8922 3.38215 11.4267 3.38215C10.9611 3.38215 10.5689 3.54187 10.25 3.86132C9.93056 4.18076 9.77083 4.57326 9.77083 5.03882C9.77083 5.50437 9.93056 5.89659 10.25 6.21548ZM8.33333 13.1738C9.38889 12.771 10.2778 12.351 11 11.9138C11.7222 11.4766 12.5208 10.8896 13.3958 10.153L13.6042 11.2363C13.6597 11.5141 13.6458 11.7885 13.5625 12.0597C13.4792 12.3308 13.3403 12.5633 13.1458 12.7571L10.5208 15.3821C10.3125 15.5905 10.0625 15.6669 9.77083 15.6113C9.47917 15.5558 9.27778 15.3891 9.16667 15.1113L8.33333 13.1738ZM1.5625 11.378C2.04861 10.8946 2.64028 10.6494 3.3375 10.6421C4.03472 10.6355 4.625 10.8752 5.10833 11.3613C5.59167 11.8474 5.83333 12.4377 5.83333 13.1321C5.83333 13.8266 5.59028 14.4169 5.10417 14.903C4.75694 15.2502 4.17722 15.5488 3.365 15.7988C2.55278 16.0488 1.43111 16.271 0 16.4655C0.194444 15.0349 0.416667 13.9155 0.666667 13.1072C0.916667 12.2994 1.21528 11.723 1.5625 11.378Z" />
</svg>
