<svg width="20" height="20" viewBox="0 0 20 20" fill="none" xmlns="http://www.w3.org/2000/svg">
<g id="Search 1">
<g id="surface6950">
<path id="Vector" d="M8.54167 2.5C5.21267 2.5 2.5 5.21267 2.5 8.54167C2.5 11.8707 5.21267 14.5833 8.54167 14.5833C9.98264 14.5833 11.3064 14.0755 12.3459 13.2292L16.4323 17.3177C16.5907 17.4805 16.8229 17.5456 17.0421 17.4892C17.2613 17.4327 17.4327 17.2613 17.4892 17.0421C17.5456 16.8229 17.4805 16.5907 17.3177 16.4323L13.2292 12.3459C14.0755 11.3064 14.5833 9.98264 14.5833 8.54167C14.5833 5.21267 11.8707 2.5 8.54167 2.5ZM8.54167 3.75C11.1957 3.75 13.3333 5.88759 13.3333 8.54167C13.3333 9.83507 12.8234 11.0026 11.9965 11.862C11.9444 11.901 11.901 11.9444 11.862 11.9965C11.0026 12.8234 9.83507 13.3333 8.54167 13.3333C5.88759 13.3333 3.75 11.1957 3.75 8.54167C3.75 5.88759 5.88759 3.75 8.54167 3.75Z" fill="#7A7A90"/>
</g>
</g>
</svg>
