<svg width="56" height="56" viewBox="0 0 56 56" fill="none" xmlns="http://www.w3.org/2000/svg">
<rect width="56" height="56" rx="12" fill="#D53951"/>
<path d="M17.7188 15.204C17.5903 15.1935 17.4549 15.2074 17.3229 15.2526C16.7986 15.4262 16.5174 15.9921 16.6945 16.5165L18.0278 20.5165C18.1007 20.7387 18.2466 20.9262 18.4445 21.0477L21.4132 22.8984C21.3646 23.2144 21.3334 23.5373 21.3334 23.8671H18.6354L14.8889 21.3671C14.4271 21.0616 13.8091 21.1866 13.5 21.6449C13.1945 22.1067 13.3195 22.7248 13.7778 23.0338L17.7778 25.7005C17.941 25.8081 18.1354 25.8671 18.3334 25.8671H20.4445C22.0209 23.3116 25.0417 21.8671 28 21.8671C30.9584 21.8671 33.9792 23.3116 35.5556 25.8671H37.6667C37.8646 25.8671 38.0591 25.8081 38.2222 25.7005L42.2222 23.0338C42.6806 22.7248 42.8056 22.1067 42.5 21.6449C42.191 21.1866 41.5695 21.0616 41.1111 21.3671L37.3646 23.8671H34.6667C34.6667 23.5338 34.6354 23.204 34.5868 22.8845L37.5313 21.0512C37.7257 20.9262 37.875 20.7387 37.9479 20.5165L39.2813 16.5165C39.4584 15.9921 39.1736 15.4262 38.6493 15.2526C38.125 15.0755 37.5591 15.3602 37.3854 15.8845L36.1667 19.5442L33.9688 20.9123C33.2153 19.3984 31.9028 18.2248 30.3056 17.631C30.5243 17.447 30.6667 17.1762 30.6667 16.8671C30.6667 16.3151 30.2188 15.8671 29.6667 15.8671C29.1146 15.8671 28.6667 16.3151 28.6667 16.8671C28.6667 17.006 28.6945 17.1345 28.7466 17.2526C28.5 17.2248 28.2535 17.2005 28 17.2005C27.7466 17.2005 27.5 17.2248 27.2535 17.2526C27.3056 17.1345 27.3334 17.006 27.3334 16.8671C27.3334 16.3151 26.8854 15.8671 26.3334 15.8671C25.7813 15.8671 25.3334 16.3151 25.3334 16.8671C25.3334 17.1762 25.4757 17.447 25.6945 17.631C24.0972 18.2248 22.7778 19.4053 22.0278 20.9262L19.8091 19.5442L18.5903 15.8845C18.4584 15.4921 18.1077 15.2317 17.7188 15.204ZM28 23.2005C24.7986 23.2005 21.507 25.1692 20.8091 28.5338H17C16.6945 28.5338 16.4097 28.6727 16.2188 28.9088L13.5521 32.2421C13.2084 32.6727 13.2778 33.3047 13.7084 33.6484C13.8924 33.7977 14.1146 33.8671 14.3334 33.8671C14.625 33.8671 14.9167 33.7387 15.1146 33.4921L17.4792 30.5338H20.7049C20.7466 30.9783 20.8264 31.4088 20.941 31.829L17.066 34.7352C16.882 34.8706 16.7535 35.0685 16.6979 35.2908L15.3646 40.6241C15.2292 41.1623 15.5556 41.704 16.0903 41.8359C16.1736 41.8567 16.2535 41.8672 16.3334 41.8672C16.7813 41.8672 17.191 41.5651 17.3021 41.1102L18.5521 36.1206L21.7292 33.7387C23.1459 36.204 25.7327 37.8671 28 37.8671C30.2674 37.8671 32.8542 36.204 34.2709 33.7387L37.4479 36.1206L38.6979 41.1102C38.8091 41.5651 39.2188 41.8672 39.6667 41.8672C39.7466 41.8672 39.8264 41.8567 39.9097 41.8359C40.4445 41.704 40.7709 41.1588 40.6354 40.6241L39.3021 35.2908C39.2466 35.0685 39.1181 34.8706 38.9341 34.7352L35.0591 31.829C35.1736 31.4088 35.2535 30.9783 35.2952 30.5338H38.5209L40.8854 33.4921C41.0834 33.7387 41.375 33.8671 41.6667 33.8671C41.8854 33.8671 42.1077 33.7977 42.2917 33.6484C42.7222 33.3047 42.7917 32.6727 42.4479 32.2421L39.7813 28.9088C39.5903 28.6727 39.3056 28.5338 39 28.5338H35.191C34.4931 25.1692 31.2014 23.2005 28 23.2005Z" fill="white"/>
</svg>
