<svg width="200" height="24" viewBox="0 0 200 24" fill="none" xmlns="http://www.w3.org/2000/svg">
<path d="M36.0052 2.50003C35.7187 2.49743 35.4557 2.65889 35.3281 2.91409L32.7526 8.06774L26.6354 9.00784C26.3567 9.05211 26.125 9.24743 26.0364 9.51566C25.9505 9.78649 26.0208 10.0808 26.2187 10.2813L30.4505 14.5131L29.5078 20.6354C29.4661 20.9141 29.5833 21.1953 29.8125 21.3594C30.0442 21.5235 30.3463 21.5469 30.5963 21.4141L36 18.5964L41.4036 21.4141C41.6536 21.5469 41.9557 21.5235 42.1875 21.3594C42.4166 21.1953 42.5338 20.9141 42.4922 20.6354L41.5495 14.5131L45.7812 10.2813C45.9791 10.0808 46.0495 9.78649 45.9635 9.51566C45.875 9.24743 45.6432 9.05211 45.3646 9.00784L39.2474 8.06774L36.6719 2.91409C36.5442 2.66149 36.2864 2.50264 36.0052 2.50003Z" fill="#5689E3"/>
<path d="M68.0052 2.50003C67.7187 2.49743 67.4557 2.65889 67.3281 2.91409L64.7526 8.06774L58.6354 9.00784C58.3567 9.05211 58.125 9.24743 58.0364 9.51566C57.9505 9.78649 58.0208 10.0808 58.2187 10.2813L62.4505 14.5131L61.5078 20.6354C61.4661 20.9141 61.5833 21.1953 61.8125 21.3594C62.0442 21.5235 62.3463 21.5469 62.5963 21.4141L68 18.5964L73.4036 21.4141C73.6536 21.5469 73.9557 21.5235 74.1875 21.3594C74.4166 21.1953 74.5338 20.9141 74.4922 20.6354L73.5495 14.5131L77.7812 10.2813C77.9791 10.0808 78.0495 9.78649 77.9635 9.51566C77.875 9.24743 77.6432 9.05211 77.3646 9.00784L71.2474 8.06774L68.6719 2.91409C68.5442 2.66149 68.2864 2.50264 68.0052 2.50003Z" fill="#5689E3"/>
<path d="M100.005 2.50003C99.7187 2.49743 99.4557 2.65889 99.3281 2.91409L96.7526 8.06774L90.6354 9.00784C90.3567 9.05211 90.125 9.24743 90.0364 9.51566C89.9505 9.78649 90.0208 10.0808 90.2187 10.2813L94.4505 14.5131L93.5078 20.6354C93.4661 20.9141 93.5833 21.1953 93.8125 21.3594C94.0442 21.5235 94.3463 21.5469 94.5963 21.4141L100 18.5964L105.404 21.4141C105.654 21.5469 105.956 21.5235 106.187 21.3594C106.417 21.1953 106.534 20.9141 106.492 20.6354L105.549 14.5131L109.781 10.2813C109.979 10.0808 110.049 9.78649 109.964 9.51566C109.875 9.24743 109.643 9.05211 109.365 9.00784L103.247 8.06774L100.672 2.91409C100.544 2.66149 100.286 2.50264 100.005 2.50003Z" fill="#5689E3"/>
<path d="M132.005 2.50003C131.719 2.49743 131.456 2.65889 131.328 2.91409L128.753 8.06774L122.635 9.00784C122.357 9.05211 122.125 9.24743 122.036 9.51566C121.95 9.78649 122.021 10.0808 122.219 10.2813L126.45 14.5131L125.508 20.6354C125.466 20.9141 125.583 21.1953 125.812 21.3594C126.044 21.5235 126.346 21.5469 126.596 21.4141L132 18.5964L137.404 21.4141C137.654 21.5469 137.956 21.5235 138.187 21.3594C138.417 21.1953 138.534 20.9141 138.492 20.6354L137.549 14.5131L141.781 10.2813C141.979 10.0808 142.049 9.78649 141.964 9.51566C141.875 9.24743 141.643 9.05211 141.365 9.00784L135.247 8.06774L132.672 2.91409C132.544 2.66149 132.286 2.50264 132.005 2.50003Z" fill="#5689E3"/>
<path d="M164.005 2.50003C163.719 2.49743 163.456 2.65889 163.328 2.91409L160.753 8.06774L154.635 9.00784C154.357 9.05212 154.125 9.24743 154.036 9.51566C153.95 9.78649 154.021 10.0808 154.219 10.2813L158.45 14.5131L157.508 20.6355C157.466 20.9141 157.583 21.1953 157.812 21.3594C158.044 21.5235 158.346 21.5469 158.596 21.4141L164 18.5964L169.404 21.4141C169.654 21.5469 169.956 21.5235 170.187 21.3594C170.417 21.1953 170.534 20.9141 170.492 20.6355L169.549 14.5131L173.781 10.2813C173.979 10.0808 174.049 9.78649 173.964 9.51566C173.875 9.24743 173.643 9.05212 173.365 9.00784L167.247 8.06774L164.672 2.91409C164.544 2.66149 164.286 2.50264 164.005 2.50003Z" fill="#D9D9DD"/>
<path d="M163.328 2.91409C163.456 2.65889 163.719 2.49743 164.005 2.50003L164 18.5964L158.596 21.4141C158.346 21.5469 158.044 21.5235 157.812 21.3594C157.583 21.1953 157.466 20.9141 157.508 20.6355L158.45 14.5131L154.219 10.2813C154.021 10.0808 153.95 9.78649 154.036 9.51566C154.125 9.24743 154.357 9.05212 154.635 9.00784L160.753 8.06774L163.328 2.91409Z" fill="#5689E3"/>
</svg>
