<svg width="15" height="14" viewBox="0 0 15 14" fill="none" xmlns="http://www.w3.org/2000/svg">
<path d="M13.6562 0.328042C13.5278 0.33325 13.4045 0.38707 13.3125 0.479084L0.979151 12.8124C0.848942 12.9392 0.796859 13.1249 0.841998 13.3003C0.887137 13.4756 1.02429 13.6128 1.19964 13.6579C1.37498 13.703 1.56075 13.651 1.68748 13.5208L7.24478 7.96172C7.32637 7.98429 7.41144 7.99992 7.49998 7.99992C8.0538 7.99992 8.49998 7.55374 8.49998 6.99992C8.49998 6.91138 8.48436 6.82631 8.46179 6.74471L9.94096 5.26554C10.7621 6.42353 10.6649 8.05374 9.64408 9.0954C9.44964 9.29332 9.45311 9.60929 9.64929 9.80374C9.74651 9.89922 9.87325 9.9461 9.99998 9.9461C10.1302 9.9461 10.2604 9.89749 10.3559 9.79679C11.7621 8.3645 11.8594 6.10235 10.6562 4.55026L12.0208 3.18568C13.9861 5.33151 13.9826 8.68394 12.0087 10.828C11.8212 11.0312 11.8351 11.3471 12.0382 11.5346C12.1337 11.6232 12.2552 11.6666 12.3767 11.6666C12.5121 11.6666 12.6458 11.6128 12.7448 11.5051C15.0712 8.97735 15.0712 5.01901 12.7448 2.49471C12.7396 2.4895 12.7326 2.48429 12.7274 2.47908L14.0208 1.18742C14.1684 1.04332 14.2118 0.822833 14.1319 0.633597C14.0521 0.444361 13.8628 0.322833 13.6562 0.328042ZM2.60415 2.33325C2.47568 2.33846 2.35068 2.39228 2.25693 2.49297C0.152762 4.77596 -0.0503629 8.22214 1.64582 10.7326L2.3663 10.0121C1.03991 7.89575 1.24998 5.06242 2.98957 3.17353C3.17707 2.9704 3.16665 2.65269 2.96353 2.46693C2.8611 2.37144 2.73089 2.32804 2.60415 2.33325ZM4.99478 4.05374C4.86804 4.05547 4.73957 4.10408 4.64408 4.20304C3.48957 5.38013 3.217 7.11624 3.82116 8.56068L4.60936 7.77075C4.34721 6.77943 4.59721 5.68047 5.35589 4.90443C5.55033 4.70651 5.54686 4.39054 5.35068 4.1961C5.25172 4.10061 5.12325 4.052 4.99478 4.05374Z" fill="#7A7A90"/>
</svg>
