<svg xmlns="http://www.w3.org/2000/svg" width="124" height="21" viewBox="0 0 124 21" fill="none">
  <path fill-rule="evenodd" clip-rule="evenodd" d="M29.0977 18.5892C29.0977 19.4514 29.7966 20.1503 30.6588 20.1503C31.4711 20.1503 32.1476 19.5275 32.2147 18.718L32.2868 17.8469C32.6866 18.6101 33.3044 19.2098 34.1404 19.6459C34.9763 20.082 35.8939 20.3001 36.8934 20.3001C38.1836 20.3001 39.3011 20.0093 40.2461 19.4278C41.2092 18.8282 41.9542 18.0013 42.4812 16.9474C43.0264 15.8934 43.2989 14.685 43.2989 13.3221C43.3353 11.8865 43.099 10.6236 42.5902 9.53329C42.0814 8.44299 41.3636 7.598 40.4369 6.99833C39.5101 6.38049 38.4107 6.07157 37.1387 6.07157C36.1029 6.07157 35.1489 6.28055 34.2766 6.6985C33.4226 7.11645 32.7775 7.70703 32.3413 8.47025V2.2019C32.3413 1.30619 31.6152 0.580078 30.7195 0.580078C29.8238 0.580078 29.0977 1.3062 29.0977 2.20191V18.5892ZM32.941 15.3119C32.6321 14.6759 32.4776 13.9581 32.4776 13.1586C32.4776 12.3408 32.6321 11.6321 32.941 11.0325C33.2499 10.4146 33.6861 9.93307 34.2494 9.58781C34.8127 9.22438 35.476 9.04266 36.2392 9.04266C37.0206 9.04266 37.6838 9.22438 38.229 9.58781C38.7923 9.93307 39.2194 10.4146 39.5101 11.0325C39.819 11.6503 39.9735 12.359 39.9735 13.1586C39.9735 13.9581 39.819 14.6668 39.5101 15.2847C39.2194 15.9025 38.7923 16.3841 38.229 16.7293C37.6838 17.0746 37.0206 17.2472 36.2392 17.2472C35.476 17.2472 34.8127 17.0837 34.2494 16.7566C33.6861 16.4113 33.2499 15.9298 32.941 15.3119Z" fill="#46465D"/>
  <path fill-rule="evenodd" clip-rule="evenodd" d="M46.5691 19.1553C47.3868 19.9185 48.5135 20.3001 49.9491 20.3001C51.003 20.3001 51.9116 20.082 52.6748 19.6459C53.438 19.2098 53.965 18.6464 54.2558 17.9559L54.3481 18.7818C54.4352 19.561 55.094 20.1503 55.8781 20.1503C56.7284 20.1503 57.4177 19.461 57.4177 18.6108V11.7684C57.4177 10.5873 57.1905 9.56964 56.7362 8.71557C56.2819 7.86149 55.6187 7.20731 54.7464 6.75302C53.8923 6.29872 52.8293 6.07157 51.5573 6.07157C50.4124 6.07157 49.3948 6.28055 48.5044 6.6985C47.614 7.09828 46.9235 7.66161 46.4328 8.38848C46.1936 8.73403 46.0127 9.10983 45.8901 9.51588C45.6668 10.2554 46.3231 10.8962 47.0956 10.8962C47.8825 10.8962 48.4558 10.1641 48.9589 9.55897C49.0479 9.4519 49.1508 9.35248 49.2676 9.26072C49.7764 8.86094 50.4851 8.66105 51.3937 8.66105C51.957 8.66105 52.4477 8.74282 52.8656 8.90637C53.2836 9.06992 53.6016 9.34249 53.8196 9.7241C54.0559 10.0875 54.174 10.5873 54.174 11.2233V11.5231L50.3307 11.8502C48.8224 11.9774 47.614 12.3954 46.7054 13.1041C45.7968 13.7946 45.3425 14.794 45.3425 16.1024C45.3425 17.3562 45.7514 18.3739 46.5691 19.1553ZM52.484 17.4925C51.9934 17.6924 51.5028 17.7924 51.0121 17.7924C50.2852 17.7924 49.7219 17.6379 49.3221 17.329C48.9224 17.0019 48.7225 16.5476 48.7225 15.9661C48.7225 15.4391 48.9224 15.0121 49.3221 14.685C49.7219 14.3397 50.4124 14.1217 51.3937 14.0308L54.2013 13.7855V14.4942C54.2013 15.3301 54.0377 15.9843 53.7106 16.4567C53.3835 16.9292 52.9747 17.2745 52.484 17.4925Z" fill="#46465D"/>
  <path d="M64.1804 18.5012C64.1804 19.412 63.4421 20.1503 62.5313 20.1503C61.6206 20.1503 60.8822 19.412 60.8822 18.5012V8.12541C60.8822 7.21692 61.6187 6.48044 62.5272 6.48044C63.3376 6.48044 64.0273 7.07074 64.1524 7.87147L64.2077 8.22493C64.6438 7.5344 65.2435 7.00742 66.0067 6.64399C66.7881 6.26238 67.633 6.07158 68.5416 6.07158C70.3043 6.07158 71.5945 6.58947 72.4122 7.62527C73.23 8.64288 73.6388 9.98759 73.6388 11.6594V18.5012C73.6388 19.412 72.9005 20.1503 71.9897 20.1503C71.079 20.1503 70.3406 19.412 70.3406 18.5012V12.4499C70.3406 11.723 70.2498 11.1415 70.0681 10.7054C69.8864 10.2511 69.6501 9.91491 69.3594 9.69685C69.0686 9.46061 68.7597 9.30615 68.4326 9.23346C68.1055 9.14261 67.7875 9.09718 67.4786 9.09718C67.1333 9.09718 66.7608 9.16078 66.361 9.28798C65.9794 9.39701 65.6251 9.58782 65.298 9.86039C64.9709 10.1148 64.6983 10.4782 64.4802 10.9507C64.2804 11.405 64.1804 11.9865 64.1804 12.6952V18.5012Z" fill="#46465D"/>
  <path d="M25.2974 9.31524C26.02 9.31524 26.6058 8.72947 26.6058 8.00688V7.69695C26.6058 6.9509 26.0942 6.27752 25.3484 6.2577C25.0079 6.24865 24.6638 6.26838 24.3162 6.3169C23.5348 6.40776 22.8624 6.65307 22.2991 7.05285C21.9068 7.31857 21.6115 7.66799 21.4131 8.10111L21.3953 7.94077C21.3046 7.12492 20.615 6.5077 19.7942 6.5077C18.9044 6.5077 18.1832 7.22896 18.1832 8.11867V18.4876C18.1832 19.4059 18.9276 20.1503 19.8459 20.1503C20.7642 20.1503 21.5086 19.4059 21.5086 18.4876V13.4039C21.5086 12.0955 21.8357 11.087 22.4899 10.3783C23.1622 9.66959 24.0981 9.31524 25.2974 9.31524Z" fill="#46465D"/>
  <path d="M109.558 19.2579C109.558 19.7508 109.958 20.1503 110.451 20.1503C110.943 20.1503 111.343 19.7508 111.343 19.2579V4.18851L121.474 19.6684C121.671 19.9691 122.006 20.1503 122.366 20.1503C122.954 20.1503 123.431 19.6734 123.431 19.0851V1.83363C123.431 1.34795 123.037 0.954234 122.551 0.954234C122.066 0.954234 121.672 1.34795 121.672 1.83363V16.7247L111.547 1.43989C111.346 1.13661 111.007 0.954234 110.643 0.954234C110.044 0.954234 109.558 1.43985 109.558 2.03888V19.2579Z" fill="#46465D"/>
  <path fill-rule="evenodd" clip-rule="evenodd" d="M96.1665 19.2709C96.1665 19.7566 95.7728 20.1503 95.2871 20.1503C94.8014 20.1503 94.4077 19.7566 94.4077 19.2709V3.49582C94.4077 2.09214 95.5456 0.954234 96.9493 0.954234H101.565C103.372 0.954234 104.825 1.49281 105.89 2.59404C106.969 3.69234 107.499 5.15013 107.499 6.93968C107.499 8.6649 106.958 10.1185 105.867 11.2817L105.866 11.2832C104.769 12.4343 103.327 13.0033 101.565 13.0033H96.1665V19.2709ZM104.534 10.0983L104.536 10.0964C105.315 9.30137 105.714 8.24075 105.714 6.88758C105.714 5.54889 105.331 4.53549 104.592 3.81284L104.59 3.81089C103.849 3.06953 102.833 2.68696 101.513 2.68696H97.4373C96.7354 2.68696 96.1665 3.25592 96.1665 3.95776V11.2966H101.357C102.727 11.2966 103.776 10.8892 104.534 10.0983Z" fill="#46465D"/>
  <path d="M77.9551 0.954234C77.3497 0.954234 76.9318 1.56044 77.1472 2.12621L83.7102 19.3667C83.8898 19.8385 84.3422 20.1503 84.847 20.1503C85.3523 20.1503 85.805 19.8379 85.9843 19.3653L92.529 2.1096C92.7407 1.55153 92.3284 0.954234 91.7316 0.954234C91.3792 0.954234 91.0632 1.17086 90.9361 1.49945L85.7436 14.9239L85.7422 14.9275C85.3544 15.9768 85.059 16.7974 84.8568 17.3871C84.5942 16.6282 84.2919 15.8147 83.9507 14.9485L78.7615 1.50734C78.6328 1.17403 78.3124 0.954234 77.9551 0.954234Z" fill="#46465D"/>
  <path d="M14.8309 13.008V2.33831C14.8309 1.36727 14.0437 0.580078 13.0727 0.580078C12.1017 0.580078 11.3145 1.36727 11.3145 2.33831V13.2955C11.3145 15.2917 9.69622 16.9099 7.70001 16.9099C5.7038 16.9099 4.08556 15.2916 4.08556 13.2954C4.08431 10.6687 4.08487 5.16223 4.08527 2.33594C4.08541 1.36486 3.29824 0.580078 2.32716 0.580078C1.3562 0.580078 0.569092 1.36719 0.569092 2.33814V13.008C0.569092 16.9463 3.76171 20.1389 7.70001 20.1389C11.6383 20.1389 14.8309 16.9463 14.8309 13.008Z" fill="#46465D"/>
</svg>
