<svg width="32" height="32" viewBox="0 0 32 32" fill="none" xmlns="http://www.w3.org/2000/svg">
<g id="Where 3">
<g id="surface22202">
<path id="Vector" d="M16 2.66675C10.8565 2.66675 6.66666 6.85656 6.66666 12.0001C6.66666 14.3091 7.51504 16.4295 8.90625 18.058V18.0591H8.9074C8.9074 18.0591 12.7662 22.5776 14.1991 23.9457C15.1991 24.8994 16.7998 24.8982 17.7998 23.9457C19.419 22.4005 23.0914 18.0603 23.0937 18.058L23.0949 18.0545C24.4861 16.4272 25.3333 14.308 25.3333 12.0001C25.3333 6.85656 21.1435 2.66675 16 2.66675ZM16 4.66675C20.0625 4.66675 23.3333 7.93758 23.3333 12.0001C23.3333 13.8218 22.6701 15.4746 21.5729 16.7582V16.7593H21.5718C21.5718 16.7593 17.7546 21.2235 16.419 22.4978C16.1725 22.7327 15.8264 22.7327 15.5799 22.4978C14.4768 21.4457 10.4282 16.7617 10.4259 16.7582L10.4248 16.7547C9.3287 15.4723 8.66666 13.8207 8.66666 12.0001C8.66666 7.93758 11.9375 4.66675 16 4.66675ZM16 6.66675C14.1713 6.66675 12.6667 8.17138 12.6667 10.0001V10.2593C12.662 10.6193 12.8507 10.9549 13.162 11.1367C13.4745 11.3184 13.8588 11.3184 14.1713 11.1367C14.4826 10.9549 14.6713 10.6193 14.6667 10.2593V10.0001C14.6667 9.2524 15.2523 8.66675 16 8.66675C16.7477 8.66675 17.3333 9.2524 17.3333 10.0001C17.3333 10.8334 17.0995 10.9075 16.5162 11.4075C15.9329 11.9075 15 12.8334 15 14.3334C14.9954 14.6945 15.184 15.029 15.4954 15.2107C15.8079 15.3936 16.1921 15.3936 16.5046 15.2107C16.816 15.029 17.0046 14.6945 17 14.3334C17 13.5001 17.2338 13.426 17.8171 12.926C18.4005 12.426 19.3333 11.5001 19.3333 10.0001C19.3333 8.17138 17.8287 6.66675 16 6.66675ZM16 16.6667C15.2639 16.6667 14.6667 17.264 14.6667 18.0001C14.6667 18.7362 15.2639 19.3334 16 19.3334C16.7361 19.3334 17.3333 18.7362 17.3333 18.0001C17.3333 17.264 16.7361 16.6667 16 16.6667ZM7.7743 18.7721C6.43287 19.0823 5.35764 20.1147 5.03472 21.5093L4.07639 25.6586C3.87037 26.5545 4.08102 27.4827 4.65393 28.2015C5.22685 28.9214 6.08217 29.3334 7.00115 29.3334H24.9988C25.9178 29.3334 26.7731 28.9214 27.3461 28.2015C27.919 27.4827 28.1296 26.5545 27.9236 25.6586L26.9653 21.5093C26.6424 20.1158 25.5671 19.0823 24.2257 18.7721C24.184 18.8218 23.3657 19.7929 22.6053 20.6667H23.3924C24.1724 20.6667 24.8403 21.198 25.0162 21.9584L25.9745 26.1077C26.0428 26.4063 25.9734 26.7165 25.7824 26.9561C25.5914 27.1957 25.3044 27.3334 24.9988 27.3334H7.00115C6.6956 27.3334 6.40972 27.1957 6.21875 26.9561C6.02778 26.7165 5.95717 26.4063 6.02546 26.1077L6.98379 21.9584C7.15856 21.198 7.82754 20.6667 8.60764 20.6667H9.40509C8.64699 19.7999 7.81713 18.823 7.7743 18.7721Z" fill="#2A2A3C"/>
</g>
</g>
</svg>
