<svg width="14" height="12" viewBox="0 0 14 12" xmlns="http://www.w3.org/2000/svg">
<path d="M0.767371 1.67012L5.76564 0.993041C6.06598 0.95311 6.33334 1.18575 6.33334 1.48957V4.99999C6.33334 5.27603 6.10939 5.49999 5.83334 5.49999H0.833344C0.557302 5.49999 0.333344 5.27603 0.333344 4.99999V2.16665C0.333344 1.91492 0.519108 1.70311 0.767371 1.67012ZM13.6667 0.499985V4.99999C13.6667 5.27603 13.4427 5.49999 13.1667 5.49999H7.83334C7.5573 5.49999 7.33334 5.27603 7.33334 4.99999V1.22047C7.33334 0.970472 7.51911 0.758666 7.76564 0.72568L13.1007 0.00345733C13.2431 -0.0139036 13.3872 0.0260272 13.4965 0.123249C13.6042 0.220472 13.6667 0.355888 13.6667 0.499985ZM0.833344 6.49999H5.83334C6.10939 6.49999 6.33334 6.72394 6.33334 6.99999V10.5104C6.33334 10.8142 6.06598 11.0469 5.76564 11.0069L0.767371 10.3298C0.519108 10.2969 0.333344 10.0851 0.333344 9.83332V6.99999C0.333344 6.72394 0.557302 6.49999 0.833344 6.49999ZM13.1667 6.49999C13.4427 6.49999 13.6667 6.72394 13.6667 6.99999V11.5C13.6667 11.6441 13.6042 11.7795 13.4965 11.8767C13.4028 11.9566 13.2865 12 13.1667 12C13.1441 12 13.1233 12 13.1007 11.9965L7.76564 11.276C7.51911 11.2413 7.33334 11.0295 7.33334 10.7795V6.99999C7.33334 6.72394 7.5573 6.49999 7.83334 6.49999H13.1667Z" />
</svg>
