<svg width="82" height="82" viewBox="0 0 82 82" fill="none" xmlns="http://www.w3.org/2000/svg">
<path fill-rule="evenodd" clip-rule="evenodd" d="M15.0904 38.8936L13.143 45.6507L12.8566 46.8793L12.6275 48.1637L12.4557 49.504L12.3984 50.7884V52.1286L12.4557 53.4689L12.6275 54.8092L12.8566 56.1494L13.2003 57.4897L13.6012 58.8858L14.1167 60.226L14.6894 61.5663L15.3767 62.9066L16.1213 64.191L16.9232 65.4754L17.7823 66.704L18.756 67.8767L19.7297 68.9936L20.8179 70.0546L21.9061 71.1157L23.0516 72.1209L24.3117 73.0702L25.5145 73.9637L26.8318 74.8572L28.2064 75.639L29.581 76.365L31.0129 77.091L32.4448 77.7611L33.9339 78.3196L35.4231 78.878L36.9695 79.3248L38.5159 79.7715L40.1196 80.1066L41.6661 80.4416L43.327 80.665L44.9307 80.8325L46.5345 80.9442L48.1954 81.0001L49.7991 80.9442L51.4601 80.8884L53.0638 80.7209L54.7248 80.4975L56.3285 80.2183L57.9322 79.8274L59.5359 79.3806L61.0824 78.878L62.5142 78.3196L63.9461 77.7053L65.3207 77.0351L66.638 76.3092L67.8408 75.5273L69.0436 74.6897L70.1891 73.852L71.2773 72.9027L72.251 71.9533L73.1674 70.9481L74.0838 69.9429L74.8857 68.8819L75.6303 67.765L76.3176 66.5923L76.8903 65.4195L77.4058 64.2468L77.864 63.0182L79.8113 56.2611L79.3531 57.4897L78.8377 58.6624L78.2076 59.8351L77.5203 61.0079L76.7758 62.0689L75.9739 63.1858L75.1148 64.191L74.1984 65.1962L73.1674 66.1455L72.1365 67.0949L70.991 67.9325L69.7882 68.7702L68.5281 69.552L67.2108 70.278L65.8935 70.9481L64.4616 71.5624L62.9724 72.1209L61.4833 72.6235L59.8796 73.0702L58.2759 73.4053L56.6149 73.7403L55.0112 73.9637L53.3502 74.1312L51.7465 74.1871L50.0855 74.2429L48.4818 74.1871L46.8208 74.0754L45.2171 73.9079L43.6134 73.6286L42.0097 73.3494L40.4633 73.0144L38.9169 72.5676L37.3704 72.1209L35.824 71.5624L34.3921 70.9481L32.903 70.3338L31.4711 69.6079L30.0965 68.8819L28.7791 68.0442L27.4618 67.2066L26.2018 66.3131L24.999 65.3637L23.8535 64.3585L22.708 63.2975L21.677 62.2364L20.6461 61.1195L19.7297 59.891L18.8705 58.7182L18.0687 57.4338L17.3241 56.1494L16.6368 54.8092L16.064 53.4689L15.5486 52.1286L15.1476 50.7325L14.804 49.3923L14.5749 48.052L14.4031 46.7117L14.2885 45.3715V44.0312L14.4031 42.7468L14.5176 41.4065L14.804 40.1221L15.0904 38.8936Z" fill="#FFD731" stroke="black" stroke-width="0.965184" stroke-linejoin="bevel"/>
<path fill-rule="evenodd" clip-rule="evenodd" d="M15.0912 38.8936C14.0602 42.4676 12.9147 45.8182 12.4565 49.504C12.1129 55.7027 13.602 60.2819 16.924 65.4754C24.1979 75.5832 35.9966 81.1676 49.8 80.9442C62.0568 80.2741 72.5382 75.1923 77.4066 64.2468L77.8648 63.0182L79.8122 56.2611L79.354 57.4897C74.2565 68.9936 62.8587 74.0754 50.0863 74.2429C40.1777 73.9637 32.2737 71.0598 24.9998 65.3637C19.9596 61.0637 17.0385 56.9312 15.1485 50.7325C14.2893 47.3819 14.1175 44.9247 14.5184 41.4065L14.8048 40.1221L15.0912 38.8936Z" fill="#FFD731" stroke="black" stroke-width="0.965184" stroke-linejoin="bevel"/>
<path fill-rule="evenodd" clip-rule="evenodd" d="M53.9238 80.6088C64.0615 78.9893 73.2256 73.74 77.4067 64.2465L77.8649 63.0179L79.8122 56.2607L79.354 57.4893C75.0584 67.2062 66.238 72.3439 55.9285 73.7958L53.9238 80.6088Z" fill="black" stroke="black" stroke-width="0.965184" stroke-linejoin="bevel"/>
<path fill-rule="evenodd" clip-rule="evenodd" d="M35.4231 20.8556C18.2978 25.2114 9.87839 40.401 16.6369 54.8088C23.3953 69.2166 42.7544 77.4257 59.8796 73.0699C77.0049 68.714 85.4244 53.5244 78.6659 39.0608C71.9074 24.653 52.5484 16.4997 35.4231 20.8556Z" fill="#FFD731" stroke="black" stroke-width="0.965184"/>
<path fill-rule="evenodd" clip-rule="evenodd" d="M36.2824 22.7542C20.4744 26.775 12.685 40.9035 18.928 54.2503C25.171 67.5971 43.0981 75.136 58.9634 71.1152C74.8286 67.0945 82.618 53.0217 76.375 39.675C70.0748 26.3282 52.1476 18.7334 36.2824 22.7542Z" fill="#FFD731" stroke="black" stroke-width="0.965184"/>
<path fill-rule="evenodd" clip-rule="evenodd" d="M12.3984 52.1277C12.3984 50.7874 12.8566 48.9446 14.8613 49.6147C14.8613 49.6147 13.9449 47.3809 13.8876 45.9848C13.8303 44.3095 14.2885 43.2485 14.2885 42.9692C14.3458 41.2381 12.9712 46.8225 12.9712 46.8783C12.5703 47.8835 12.3984 52.1835 12.3984 52.1277Z" fill="black" stroke="black" stroke-width="0.965184"/>
<path d="M53.4071 75.3037L51.918 80.7764" stroke="black" stroke-width="0.965184"/>
<path d="M51.4026 75.3594L49.9707 80.8321" stroke="black" stroke-width="0.965184"/>
<path d="M49.3987 75.3037L47.9668 80.7764" stroke="black" stroke-width="0.965184"/>
<path fill-rule="evenodd" clip-rule="evenodd" d="M31.5285 40.0098L31.1276 42.2994L31.0703 42.9695V43.5838L31.1849 44.1981L31.2994 44.8124L31.4712 45.4267L31.7003 45.9851L31.9867 46.4877L32.2731 46.9903L32.674 47.4929L33.0749 47.8838L33.4759 48.2747L33.9341 48.6098L34.4495 48.889L34.9078 49.1682L35.4805 49.3357L35.996 49.4474L36.4542 47.1578L35.8814 47.0461L35.366 46.8786L34.8505 46.6552L34.335 46.376L33.8768 46.0409L33.4759 45.65L33.0749 45.2033L32.7313 44.7565L32.3876 44.2539L32.1013 43.6955L31.8722 43.137L31.7003 42.5786L31.5858 41.9643L31.5285 41.2942L31.4712 40.6799L31.5285 40.0098Z" fill="black" stroke="black" stroke-width="0.965184" stroke-linejoin="bevel"/>
<path fill-rule="evenodd" clip-rule="evenodd" d="M36.4543 47.1579L35.9961 49.4475H36.4543L36.9698 49.5034L37.5425 49.4475H38.2298L38.9171 49.3917L39.6617 49.3358L40.4636 49.2241L41.3227 49.1125L42.2391 49.0008L43.1555 48.8332L44.0719 48.7215L45.0456 48.554L46.0193 48.3865L46.9929 48.2189L48.0239 48.0514L48.9976 47.8839L49.9712 47.6605L50.9449 47.493L51.9186 47.3254L52.835 47.1579L53.6941 46.9904L54.5533 46.8787L55.4124 46.7112L56.157 46.5995L56.9015 46.4878L57.5888 46.3761L58.1616 46.3202L58.7343 46.2644L59.1925 46.2086H59.5362H59.8799L60.0517 46.2644L60.4526 43.9748H60.2808L59.9944 43.9189L59.5935 43.9748H59.1353L58.5625 44.0306L57.9898 44.1423L57.3025 44.1982L56.5579 44.3099L55.8133 44.4774L55.0115 44.5891L54.1523 44.7566L53.2359 44.9241L52.3195 45.0917L51.3458 45.2592L50.3722 45.4267L49.3985 45.5943L48.4248 45.7618L47.4511 45.9293L46.4202 46.0969L45.4465 46.2644L44.4728 46.4319L43.5564 46.5995L42.64 46.7112L41.7809 46.8228L40.9218 46.9345L40.1199 47.0462L39.3181 47.1021L38.6308 47.1579L38.0007 47.2138H37.3707H36.8552L36.4543 47.1579Z" fill="#FFD731" stroke="black" stroke-width="0.965184" stroke-linejoin="bevel"/>
<path fill-rule="evenodd" clip-rule="evenodd" d="M60.4517 43.9746L60.0508 46.2642L60.509 46.4318L60.8526 46.711L61.139 46.9902L61.3108 47.3253L61.4254 47.7162L61.4827 48.0512L61.4254 48.4421L61.8263 46.1525L61.8836 45.8175V45.4266L61.7118 45.0356L61.5399 44.7006L61.2536 44.4214L60.9099 44.198L60.4517 43.9746Z" fill="black" stroke="black" stroke-width="0.965184" stroke-linejoin="bevel"/>
<path fill-rule="evenodd" clip-rule="evenodd" d="M36.9113 51.4575L36.5104 53.7471L36.4531 54.0822L36.5104 54.4731L36.5677 54.864L36.6822 55.3108L36.9113 55.7575L37.1404 56.2601L37.4268 56.7627L37.8277 57.2653L38.2287 57.7679L38.7441 58.3264L39.1451 56.0926L38.6296 55.5341L38.2287 54.9757L37.8277 54.4731L37.5414 53.9705L37.3123 53.5238L37.1404 53.077L36.9686 52.6302L36.9113 52.2393V51.8484V51.4575Z" fill="#FFD731" stroke="black" stroke-width="0.965184" stroke-linejoin="bevel"/>
<path fill-rule="evenodd" clip-rule="evenodd" d="M39.1451 56.0929L38.7441 58.3267L39.546 59.1085L40.3478 59.7228L41.2642 60.2812L42.1807 60.7838L43.0971 61.2306L44.0707 61.5657L45.1017 61.789L46.1326 62.0124L47.1636 62.1241L48.2518 62.1799H49.2828L50.371 62.1241L51.4592 62.0124L52.4902 61.789L53.5211 61.5657L54.5521 61.2864L55.583 60.9514L56.5567 60.5605L57.5304 60.1137L58.4468 59.667L59.3059 59.1085L60.1651 58.5501L60.9669 57.9916L61.7115 57.3215L62.3415 56.6514L62.9716 55.9812L63.5443 55.2553L64.0025 54.5293L64.4034 53.7475L64.6898 52.9657L64.9189 52.128L65.3198 49.8384L65.0907 50.676L64.8044 51.4579L64.4034 52.2397L63.9452 52.9657L63.3725 53.6916L62.7997 54.4176L62.1124 55.0877L61.3678 55.702L60.566 56.3163L59.7641 56.8747L58.8477 57.3773L57.9313 57.8241L57.0149 58.2709L55.984 58.6618L55.0103 58.9968L53.9793 59.276L52.8911 59.5553L51.8602 59.7228L50.7719 59.8345L49.741 59.8903H48.6528L47.5645 59.8345L46.5336 59.7228L45.5026 59.5553L44.5289 59.276L43.498 58.941L42.5816 58.5501L41.6652 58.0475L40.806 57.489L39.9469 56.8189L39.1451 56.0929Z" fill="black" stroke="black" stroke-width="0.965184" stroke-linejoin="bevel"/>
<path fill-rule="evenodd" clip-rule="evenodd" d="M35.0787 44.0863L34.6777 46.3759L34.735 46.0967L34.9068 45.8175L35.1359 45.4824L35.4223 45.2032L35.8232 44.8681L36.2814 44.5889L36.7396 42.2993L36.2242 42.6344L35.8232 42.9136L35.5369 43.2487L35.3078 43.5279L35.1359 43.8071L35.0787 44.0863Z" fill="black" stroke="black" stroke-width="0.965184" stroke-linejoin="bevel"/>
<path fill-rule="evenodd" clip-rule="evenodd" d="M36.7414 42.2994L36.2832 44.589L36.455 44.4773L36.7414 44.3656L37.0278 44.1981L37.3714 43.9747L37.7151 43.7514L38.1733 43.4721L38.6315 43.1929L39.147 42.9137L39.7197 42.5786L40.2925 42.2436L40.9225 41.8527L41.4952 41.5176L42.1253 41.1267L42.8126 40.7358L43.4426 40.3449L44.1299 39.9539L44.7599 39.563L45.4472 39.228L46.0773 38.8371L46.7073 38.502L47.3373 38.1111L47.9101 37.776L48.4828 37.4968L49.0556 37.1617L49.571 36.9384L50.0293 36.6591L50.4302 36.4358L50.8311 36.2682L51.1748 36.1007L51.4611 35.989L51.6902 35.9332H51.8048L52.2057 33.6436L52.0912 33.6994L51.8621 33.7552L51.5757 33.8669L51.232 34.0345L50.8884 34.202L50.4302 34.4254L49.972 34.6488L49.4565 34.928L48.8837 35.2072L48.3683 35.5423L47.7382 35.8773L47.1082 36.2124L46.4782 36.5475L45.8482 36.9384L45.2181 37.3293L44.5308 37.7202L43.8435 38.1111L43.2135 38.4462L42.5835 38.8371L41.9534 39.228L41.3234 39.6189L40.6934 39.9539L40.1206 40.289L39.6052 40.6241L39.0897 40.9033L38.5742 41.2384L38.1733 41.4617L37.7724 41.6851L37.4287 41.9085L37.1423 42.076L36.9132 42.2436L36.7414 42.2994Z" fill="#FFD731" stroke="black" stroke-width="0.965184" stroke-linejoin="bevel"/>
<path fill-rule="evenodd" clip-rule="evenodd" d="M52.2056 33.6436L51.8047 35.9332H52.2629L52.6638 36.0449L52.9502 36.2124L53.1793 36.4358L53.3511 36.715L53.4657 37.1059L53.5229 37.4968V37.8877V38.3345L53.4657 38.7812V39.228L53.4084 39.6189L53.3511 40.0098V40.4007V40.7358V41.015L53.752 38.7812V38.502V38.1669V37.776L53.8093 37.3851L53.8666 36.9384V36.4916L53.9239 36.0449V35.5981V35.2072L53.8666 34.8163L53.752 34.4812L53.5802 34.1462L53.3511 33.9228L53.0647 33.7552L52.7211 33.6436H52.2056Z" fill="black" stroke="black" stroke-width="0.965184" stroke-linejoin="bevel"/>
<path fill-rule="evenodd" clip-rule="evenodd" d="M53.7505 38.7808L53.3496 41.0145L53.4642 41.4613L53.636 41.8522L53.8078 42.2431L54.0942 42.5782L54.3233 42.8574L54.6097 43.0808L54.9533 43.2483L55.297 43.4158L55.6406 43.5275L55.9843 43.6392L56.3279 43.6951H56.6716L57.0725 43.6392L57.4161 43.5834L57.7025 43.4717L58.0462 43.36L58.3326 43.1925L58.5617 42.9691L58.7908 42.7457L59.0199 42.4665L59.1344 42.1873L59.249 41.8522L59.6499 39.5626L59.5353 39.8976L59.4208 40.2327L59.1917 40.4561L58.9626 40.7353L58.7335 40.9028L58.4471 41.0704L58.1035 41.2379L57.8171 41.3496L57.4734 41.4054H57.1298H56.7288L56.3852 41.3496L56.0415 41.2938L55.6979 41.1821L55.3542 41.0145L55.0106 40.7912L54.7242 40.5678L54.4951 40.2886L54.266 39.9535L54.0369 39.6184L53.8651 39.2275L53.7505 38.7808Z" fill="black" stroke="black" stroke-width="0.965184" stroke-linejoin="bevel"/>
<path fill-rule="evenodd" clip-rule="evenodd" d="M43.0404 31.1863C27.1751 34.3136 30.4398 46.3201 36.4537 47.1578C40.7494 47.7721 58.7338 43.4162 60.452 43.9747C61.6548 44.3656 62.2275 45.65 61.6548 46.4876C61.0248 47.4928 57.2446 51.1786 56.2137 52.2954C54.8963 53.7474 53.7508 54.8643 52.548 56.1487C51.8607 56.8747 49.627 60.0019 47.3933 57.824C46.5341 56.9305 44.3004 53.3006 43.4413 52.0162C40.062 46.9344 33.3608 50.1175 39.1456 56.0928C47.2214 64.3578 64.5186 57.9357 65.4922 49.0565C65.7213 46.9344 64.6904 44.2539 62.6285 43.0811C60.452 41.9084 57.3592 42.8019 54.839 43.137C52.1471 43.4721 49.4552 43.863 46.8205 44.2539C44.014 44.6448 41.3221 45.0915 38.5729 45.3708C34.9073 45.8175 33.9336 43.9188 36.7401 42.2993C38.172 41.4617 50.8871 33.7552 52.2044 33.6435C54.9536 33.4759 53.5217 37.385 53.7508 38.7811C54.7245 43.6954 64.1749 41.4617 57.0728 34.4811C53.8081 31.2422 48.7679 30.0694 43.0404 31.1863Z" fill="#FFD731" stroke="black" stroke-width="0.965184"/>
<path fill-rule="evenodd" clip-rule="evenodd" d="M14.231 31.0747L12.2836 37.8319L11.9973 39.1163L11.7682 40.4007L11.5963 41.6851L11.5391 42.9695V44.3098L11.5963 45.65L11.7682 46.9903L11.9973 48.3306L12.3409 49.7267L12.7418 51.0669L13.2573 52.4072L13.8301 53.7475L14.5174 55.0877L15.262 56.3721L16.0638 57.6565L16.9229 58.8851L17.8966 60.0578L18.8703 61.1747L19.9585 62.2916L21.0467 63.2968L22.1922 64.302L23.4523 65.2514L24.7124 66.1449L25.9724 67.0384L27.347 67.8202L28.7216 68.602L30.1535 69.2721L31.5854 69.9423L33.0745 70.5007L34.5637 71.0592L36.1101 71.5059L37.6566 71.9527L39.2603 72.2877L40.864 72.6228L42.4677 72.8462L44.0714 73.0137L45.6751 73.1254L47.3361 73.1812H48.9398L50.6007 73.0695L52.2045 72.902L53.8654 72.6786L55.4691 72.3994L57.0728 72.0085L58.6765 71.5618L60.223 71.0592L61.6549 70.5007L63.0867 69.8864L64.4613 69.2163L65.7787 68.4903L67.0387 67.7085L68.1842 66.9267L69.3297 66.0332L70.418 65.1397L71.3916 64.1345L72.3653 63.1851L73.2244 62.1241L74.0263 61.063L74.7709 59.9462L75.4582 58.8293L76.0309 57.6565L76.5464 56.428L77.0046 55.1994L78.952 48.4423L78.4938 49.6708L77.9783 50.8994L77.3483 52.0163L76.661 53.189L75.9737 54.3059L75.1145 55.3669L74.2554 56.3721L73.339 57.3773L72.308 58.3267L71.2771 59.276L70.1316 60.1137L68.9288 60.9514L67.6688 61.7332L66.4087 62.4591L65.0341 63.1293L63.6022 63.7436L62.1131 64.302L60.6239 64.8046L59.0202 65.2514L57.4165 65.6423L55.8128 65.9215L54.1518 66.1449L52.5481 66.3124L50.8871 66.3682L49.2261 66.4241L47.6224 66.3682L45.9615 66.2566L44.3577 66.089L42.754 65.8656L41.1503 65.5306L39.6039 65.1955L38.0575 64.7488L36.511 64.302L35.0219 63.7436L33.5327 63.1851L32.0436 62.515L30.669 61.8449L29.2371 61.063L27.9198 60.2812L26.6024 59.3877L25.3424 58.4942L24.1396 57.5449L22.9941 56.5397L21.8486 55.5345L20.8176 54.4176L19.7867 53.3007L18.8703 52.128L18.0112 50.8994L17.2093 49.615L16.4647 48.3306L15.7774 46.9903L15.2047 45.65L14.6892 44.3098L14.2883 42.9137L13.9446 41.5734L13.7155 40.2332L13.5437 38.8929L13.4291 37.5526V36.2124L13.5437 34.928L13.7155 33.5877L13.9446 32.3033L14.231 31.0747Z" fill="#FFD731" stroke="black" stroke-width="0.965184" stroke-linejoin="bevel"/>
<path fill-rule="evenodd" clip-rule="evenodd" d="M14.2318 31.0747C13.2009 34.6487 12.0554 37.9994 11.5972 41.6851C11.2535 47.8838 12.7427 52.463 16.0646 57.6565C23.3958 67.8202 35.1373 73.3488 48.9406 73.1812C61.1975 72.5111 71.6788 67.3734 76.5472 56.428L77.0054 55.1994L78.9528 48.4423L78.4946 49.6708C73.3971 61.1747 61.9993 66.2565 49.227 66.4241C39.3183 66.1449 31.4144 63.241 24.1404 57.5449C19.1575 53.2449 16.1792 49.1124 14.2891 42.9137C13.43 39.563 13.2581 37.1059 13.7163 33.5877L13.9454 32.3033L14.2318 31.0747Z" fill="#FFD731" stroke="black" stroke-width="0.965184" stroke-linejoin="bevel"/>
<path fill-rule="evenodd" clip-rule="evenodd" d="M53.0645 72.79C63.2022 71.1705 72.3662 65.9211 76.5473 56.4276L77.0055 55.199L78.9528 48.4419L78.4946 49.6705C74.199 59.3874 65.3786 64.525 55.0691 65.977L53.0645 72.79Z" fill="black" stroke="black" stroke-width="0.965184" stroke-linejoin="bevel"/>
<path fill-rule="evenodd" clip-rule="evenodd" d="M34.5638 13.0369C17.4385 17.3927 9.01902 32.5823 15.7775 46.9901C22.536 61.4538 41.895 69.607 59.0203 65.2512C76.1455 60.8953 84.565 45.7057 77.8065 31.2979C71.0481 16.8343 51.689 8.68102 34.5638 13.0369Z" fill="#FFD731" stroke="black" stroke-width="0.965184"/>
<path fill-rule="evenodd" clip-rule="evenodd" d="M35.4815 14.9914C19.6163 19.0122 11.8268 33.0849 18.0698 46.4317C24.3128 59.7784 42.24 67.3174 58.1052 63.2966C73.9704 59.2758 81.7599 45.2031 75.5169 31.8563C69.2166 18.5096 51.2895 10.9148 35.4815 14.9914Z" fill="#FFD731" stroke="black" stroke-width="0.965184"/>
<path fill-rule="evenodd" clip-rule="evenodd" d="M11.5391 44.3093C11.5391 42.9691 11.9973 41.1262 14.0019 41.7963C14.0019 41.7963 13.0855 39.5626 13.0282 38.1665C12.9709 36.4911 13.4291 35.4301 13.4291 35.1509C13.4864 33.4197 12.1118 39.0041 12.1118 39.06C11.7109 40.0652 11.5391 44.421 11.5391 44.3093Z" fill="black" stroke="black" stroke-width="0.965184"/>
<path d="M52.5477 67.4854L51.0586 73.0139" stroke="black" stroke-width="0.965184"/>
<path d="M50.5432 67.541L49.1113 73.0137" stroke="black" stroke-width="0.965184"/>
<path d="M48.5393 67.4854L47.1074 72.9581" stroke="black" stroke-width="0.965184"/>
<path fill-rule="evenodd" clip-rule="evenodd" d="M30.6691 32.2471L30.2682 34.4808L30.2109 35.151L30.2682 35.7653L30.3255 36.4354L30.44 36.9938L30.6119 37.6081L30.841 38.1666L31.1273 38.725L31.4137 39.2276L31.8146 39.6743L32.2156 40.1211L32.6165 40.4562L33.0747 40.7912L33.5902 41.1263L34.1057 41.3497L34.6211 41.5172L35.1366 41.6289L35.5948 39.3393L35.0221 39.2276L34.5066 39.0601L33.9911 38.8367L33.4756 38.5575L33.0174 38.2224L32.6165 37.8315L32.2156 37.3847L31.8719 36.938L31.5283 36.4354L31.2419 35.8769L31.0128 35.3185L30.841 34.7601L30.7264 34.1458L30.6691 33.5315L30.6119 32.8614L30.6691 32.2471Z" fill="black" stroke="black" stroke-width="0.965184" stroke-linejoin="bevel"/>
<path fill-rule="evenodd" clip-rule="evenodd" d="M35.5949 39.3394L35.1367 41.629L35.5949 41.6848H36.1104H36.6831L37.3705 41.629L38.0578 41.5731L38.8023 41.5173L39.6615 41.4056L40.4633 41.2939L41.3797 41.1822L42.2961 41.0147L43.2125 40.903L44.1862 40.7355L45.1599 40.5679L46.1336 40.4004L47.1645 40.2329L48.1382 40.0653L49.1119 39.8978L50.0855 39.7303L51.0592 39.5069L51.9756 39.3394L52.8348 39.2277L53.6939 39.0601L54.553 38.8926L55.2976 38.7809L56.0422 38.6692L56.7295 38.6134L57.3022 38.5017L57.875 38.4459L58.3332 38.39H58.6768H59.0205L59.1923 38.4459L59.6505 36.1562H59.4214H59.135H58.7341H58.2759L57.7031 36.2121L57.1304 36.3238L56.4431 36.4355L55.7558 36.5472L54.9539 36.6588L54.1521 36.7705L53.293 36.9381L52.3766 37.1056L51.4601 37.2731L50.4865 37.4407L49.5128 37.6082L48.5391 37.7757L47.5654 37.9433L46.5918 38.1108L45.5608 38.2783L44.5871 38.4459L43.6707 38.6134L42.697 38.7809L41.7806 38.8926L40.9215 39.0601L40.0624 39.116L39.2605 39.2277L38.4587 39.2835L37.7714 39.3394L37.1414 39.3952H36.5113H35.9958L35.5949 39.3394Z" fill="#FFD731" stroke="black" stroke-width="0.965184" stroke-linejoin="bevel"/>
<path fill-rule="evenodd" clip-rule="evenodd" d="M59.6496 36.1562L59.1914 38.4459L59.6496 38.6134L59.9933 38.8926L60.2796 39.1718L60.4515 39.5069L60.566 39.8978L60.6233 40.2329L60.566 40.6238L60.9669 38.3342L61.0242 37.9991V37.6082L60.8524 37.2731L60.6806 36.9381L60.3942 36.603L60.0505 36.3796L59.6496 36.1562Z" fill="black" stroke="black" stroke-width="0.965184" stroke-linejoin="bevel"/>
<path fill-rule="evenodd" clip-rule="evenodd" d="M36.0533 43.6396L35.6523 45.9293V46.3202V46.6552L35.7096 47.102L35.8814 47.4929L36.0533 47.9955L36.2824 48.4422L36.5687 48.9448L36.9697 49.4474L37.3706 50.0059L37.8861 50.5643L38.287 48.2747L37.8288 47.7163L37.3706 47.1578L36.9697 46.6552L36.6833 46.1526L36.4542 45.7059L36.2824 45.2591L36.1105 44.8124L36.0533 44.4215V44.0306V43.6396Z" fill="#FFD731" stroke="black" stroke-width="0.965184" stroke-linejoin="bevel"/>
<path fill-rule="evenodd" clip-rule="evenodd" d="M38.2876 48.2744L37.8867 50.564L38.6886 51.29L39.4904 51.9043L40.4068 52.5185L41.3232 52.9653L42.2396 53.4121L43.2133 53.7471L44.2443 54.0263L45.2752 54.1939L46.3062 54.3056L47.3944 54.3614H48.4254L49.5136 54.3056L50.6018 54.1939L51.6328 54.0263L52.721 53.7471L53.7519 53.4679L54.7256 53.1328L55.6993 52.7419L56.673 52.2952L57.5894 51.8484L58.5058 51.29L59.3076 50.7315L60.1095 50.1731L60.8541 49.503L61.4841 48.8887L62.1141 48.1627L62.6869 47.4367L63.1451 46.7108L63.546 45.9289L63.8324 45.1471L64.0615 44.3095L64.4624 42.0757L64.2333 42.8575L63.9469 43.6393L63.546 44.4211L63.0878 45.203L62.5151 45.8731L61.9423 46.5991L61.255 47.2692L60.5104 47.8835L59.7086 48.4978L58.9067 49.0562L57.9903 49.5588L57.0739 50.0614L56.1575 50.4523L55.1266 50.8432L54.1529 51.1783L53.1219 51.5134L52.0337 51.7367L51.0027 51.9043L49.9145 52.016L48.8836 52.1276H47.7953L46.7644 52.0718L45.6761 51.9043L44.6452 51.7367L43.6715 51.4575L42.6978 51.1224L41.7242 50.7315L40.8078 50.2289L39.9486 49.6705L39.0895 49.0004L38.2876 48.2744Z" fill="black" stroke="black" stroke-width="0.965184" stroke-linejoin="bevel"/>
<path fill-rule="evenodd" clip-rule="evenodd" d="M34.2193 36.3241L33.8184 38.5579L33.8756 38.2787L34.0475 37.9994L34.2766 37.7202L34.5629 37.3852L34.9639 37.1059L35.4793 36.7709L35.8803 34.5371L35.3648 34.8163L34.9639 35.0956L34.6775 35.4306L34.4484 35.7098L34.3338 36.0449L34.2193 36.3241Z" fill="black" stroke="black" stroke-width="0.965184" stroke-linejoin="bevel"/>
<path fill-rule="evenodd" clip-rule="evenodd" d="M35.8814 34.5369L35.4805 36.7707L35.6523 36.659L35.8814 36.5473L36.1678 36.3797L36.5114 36.1564L36.8551 35.933L37.3133 35.6538L37.7715 35.3746L38.287 35.0953L38.8597 34.7603L39.4325 34.4252L40.0625 34.0343L40.6352 33.6992L41.3225 33.3083L41.9526 32.9174L42.5826 32.5265L43.2699 32.1356L43.8999 31.8005L44.5872 31.4096L45.2173 31.0187L45.8473 30.6836L46.4773 30.3486L47.0501 30.0135L47.6228 29.6784L48.1956 29.3992L48.711 29.12L49.1692 28.8408L49.5702 28.6732L49.9711 28.4499L50.3147 28.3382L50.6011 28.2265L50.8302 28.1148H50.9448L51.403 25.8252L51.2311 25.881L51.002 25.9369L50.7157 26.0486L50.372 26.2161L50.0284 26.3836L49.5702 26.607L49.112 26.8304L48.5965 27.1096L48.081 27.3888L47.5083 27.7239L46.8782 28.059L46.2482 28.394L45.6182 28.7849L44.9882 29.12L44.3581 29.5109L43.6708 29.9018L43.0408 30.2927L42.3535 30.6836L41.7235 31.0745L41.0934 31.4096L40.4634 31.8005L39.8334 32.1356L39.2606 32.4707L38.7452 32.8057L38.2297 33.1408L37.7142 33.42L37.3133 33.6434L36.9123 33.9226L36.5687 34.0901L36.2823 34.2577L36.0532 34.4252L35.8814 34.5369Z" fill="#FFD731" stroke="black" stroke-width="0.965184" stroke-linejoin="bevel"/>
<path fill-rule="evenodd" clip-rule="evenodd" d="M51.4016 25.8252L50.9434 28.1148H51.4016L51.8025 28.2265L52.0889 28.394L52.318 28.6174L52.4898 28.9525L52.6043 29.2875L52.6616 29.6784V30.0694V30.5161L52.6043 30.9629V31.4096L52.5471 31.8005L52.4898 32.2473V32.5823V32.9174V33.1966L52.8907 30.9629V30.6836V30.3486V29.9577L52.948 29.5668L53.0053 29.12L53.0625 28.6732V28.2265V27.8356V27.3888L53.0053 26.9979L52.8907 26.6629L52.7189 26.3836L52.4898 26.1044L52.2034 25.9369L51.8598 25.8252H51.4016Z" fill="black" stroke="black" stroke-width="0.965184" stroke-linejoin="bevel"/>
<path fill-rule="evenodd" clip-rule="evenodd" d="M52.8912 30.9629L52.4902 33.1967L52.6048 33.6434L52.7766 34.0902L52.9484 34.4252L53.2348 34.7603L53.4639 35.0395L53.7503 35.2629L54.0939 35.4863L54.4376 35.598L54.7812 35.7655L55.1249 35.8213L55.4685 35.8772H55.8122H56.2131L56.5568 35.7655L56.8431 35.7096L57.1868 35.5421L57.4732 35.3746L57.7023 35.207L57.9314 34.9278L58.1605 34.6486L58.275 34.3694L58.3896 34.0343L58.7905 31.7447L58.676 32.0798L58.5614 32.4148L58.3323 32.6941L58.1605 32.9174L57.8741 33.1408L57.5877 33.3083L57.3014 33.42L56.9577 33.5317L56.614 33.5876H56.2704H55.8695L55.5258 33.5317L55.1822 33.4759L54.8385 33.3642L54.4949 33.1967L54.2085 32.9733L53.8648 32.7499L53.6357 32.4707L53.4066 32.1356L53.1775 31.8006L53.0057 31.4096L52.8912 30.9629Z" fill="black" stroke="black" stroke-width="0.965184" stroke-linejoin="bevel"/>
<path fill-rule="evenodd" clip-rule="evenodd" d="M42.181 23.3679C26.3158 26.4952 29.5804 38.5017 35.5943 39.3393C39.89 39.9536 57.8744 35.5978 59.6499 36.1562C60.7954 36.5471 61.3682 37.8315 60.7954 38.6692C60.1654 39.6744 56.3852 43.4159 55.4116 44.5328C54.037 45.9848 52.8914 47.0458 51.6887 48.3302C51.0014 49.0562 48.7676 52.2393 46.5339 50.0056C45.6748 49.1121 43.441 45.4822 42.5819 44.1978C39.2027 39.1718 32.5015 42.2991 38.2863 48.2744C46.3621 56.5952 63.6592 50.1731 64.6329 41.238C64.862 39.1159 63.8883 36.4354 61.7691 35.3185C59.5926 34.09 56.4998 34.9835 53.9797 35.3185C51.2877 35.6536 48.5958 36.0445 45.9611 36.4354C43.2119 36.8263 40.4627 37.2731 37.7135 37.6082C34.0479 38.0549 33.0742 36.1004 35.8807 34.5367C37.3699 33.6991 50.0277 25.9367 51.4023 25.825C54.0942 25.6575 52.6623 29.5666 52.8914 30.9627C53.8651 35.877 63.3155 33.6432 56.2707 26.7185C52.9487 23.4796 47.9085 22.251 42.181 23.3679Z" fill="#FFD731" stroke="black" stroke-width="0.965184"/>
<path fill-rule="evenodd" clip-rule="evenodd" d="M3.69193 20.1853L1.80185 26.9425L1.4582 28.2269L1.2291 29.5113L1.05728 30.7957L1 32.136V33.4204L1.05728 34.7606L1.2291 36.1009L1.51548 37.497L1.80185 38.8373L2.26005 40.1775L2.71826 41.5736L3.34828 42.9139L3.97831 44.2542L4.72289 45.5386L5.52474 46.7671L6.44114 47.9957L7.35755 49.1684L8.33122 50.2853L9.41945 51.4022L10.5077 52.4632L11.7105 53.4684L12.9132 54.4178L14.1733 55.3113L15.4906 56.149L16.808 56.9866L18.1826 57.7126L19.6144 58.4386L21.0463 59.0529L22.5355 59.6672L24.0246 60.1698L25.5711 60.6723L27.1175 61.0633L28.7212 61.4542L30.3249 61.7334L31.9286 61.9568L33.5323 62.1801L35.136 62.2918H36.797H38.458L40.0617 62.1801L41.7227 62.0685L43.3264 61.7892L44.9301 61.51L46.5911 61.1191L48.1375 60.7282L49.6839 60.2256L51.1731 59.6672L52.5477 59.0529L53.9223 58.3827L55.2396 57.6568L56.4997 56.8749L57.7024 56.0373L58.7907 55.1438L59.8789 54.2503L60.8526 53.3009L61.8263 52.2957L62.6854 51.2347L63.4872 50.1736L64.2318 49.0568L64.9191 47.9399L65.4919 46.7671L66.0646 45.5944L66.5228 44.3658L68.4129 37.6087L67.9547 38.8373L67.4392 40.01L66.8092 41.1827L66.1792 42.2996L65.4346 43.4165L64.6327 44.4775L63.7163 45.5386L62.7999 46.5438L61.769 47.4931L60.738 48.3866L59.5925 49.2801L58.3897 50.1178L57.187 50.8438L55.8696 51.5697L54.495 52.2399L53.0632 52.91L51.574 53.4684L50.0848 53.9152L48.4811 54.362L46.8774 54.7529L45.2737 55.0321L43.6127 55.2555L42.009 55.423L40.3481 55.5347H38.7444L37.0834 55.4788L35.4797 55.3671L33.8187 55.1996L32.215 54.9762L30.6686 54.697L29.0648 54.3061L27.5184 53.9152L25.972 53.4126L24.4828 52.91L22.9937 52.2957L21.5618 51.6256L20.1299 50.9555L18.7553 50.1736L17.3807 49.3918L16.0634 48.5542L14.8033 47.6606L13.6005 46.6555L12.455 45.7061L11.3668 44.6451L10.2786 43.5282L9.3049 42.4113L8.33122 41.2386L7.4721 40.01L6.67024 38.7814L5.92567 37.497L5.23836 36.1567L4.66561 34.7606L4.15014 33.4204L3.74921 32.0801L3.40556 30.7399L3.17646 29.3438L3.00463 28.0035L2.94736 26.6632V25.3788L3.00463 24.0386L3.17646 22.7541L3.40556 21.4697L3.69193 20.1853Z" fill="#FFD731" stroke="black" stroke-width="0.965184" stroke-linejoin="bevel"/>
<path fill-rule="evenodd" clip-rule="evenodd" d="M3.69275 20.1853C2.6618 23.8152 1.51629 27.1658 1.05809 30.7957C0.71444 37.0502 2.2036 41.5736 5.52556 46.7671C12.8568 56.9308 24.6555 62.4594 38.4588 62.2918C50.6584 61.6217 61.197 56.5399 66.0654 45.5944L66.5236 44.3658L68.4137 37.6087L67.9555 38.8373C62.858 50.2853 51.4603 55.3671 38.7452 55.5347C28.7793 55.2555 20.8753 52.4074 13.6014 46.6555C8.61842 42.3554 5.64011 38.223 3.75003 32.0801C2.94817 28.6736 2.71907 26.2723 3.17727 22.7541L3.40637 21.4697L3.69275 20.1853Z" fill="#FFD731" stroke="black" stroke-width="0.965184" stroke-linejoin="bevel"/>
<path fill-rule="evenodd" clip-rule="evenodd" d="M42.5254 61.9006C52.6631 60.2811 61.8271 55.0876 66.0655 45.5941L66.5237 44.3655L68.4138 37.6084L67.9556 38.837C63.6599 48.498 54.8396 53.6357 44.53 55.0876L42.5254 61.9006Z" fill="black" stroke="black" stroke-width="0.965184" stroke-linejoin="bevel"/>
<path fill-rule="evenodd" clip-rule="evenodd" d="M24.0247 2.14772C6.89941 6.50356 -1.52004 21.6932 5.23843 36.1568C11.9969 50.5646 31.3559 58.7179 48.4812 54.362C65.6065 50.062 74.0259 34.8166 67.2675 20.4088C60.509 6.00097 41.15 -2.15229 24.0247 2.14772Z" fill="#FFD731" stroke="black" stroke-width="0.965184"/>
<path fill-rule="evenodd" clip-rule="evenodd" d="M24.9405 4.1023C9.07526 8.12309 1.28583 22.1958 7.52883 35.5426C13.8291 48.8894 31.7562 56.4842 47.5642 52.4634C63.4294 48.4426 71.2188 34.3699 64.9758 20.9673C58.7329 7.62049 40.8057 0.0815227 24.9405 4.1023Z" fill="#FFD731" stroke="black" stroke-width="0.965184"/>
<path fill-rule="evenodd" clip-rule="evenodd" d="M1 33.4204C1 32.136 1.51548 30.2931 3.46283 30.9633C3.46283 30.9633 2.60371 28.7295 2.54643 27.2775C2.43188 25.6022 2.89008 24.5412 2.89008 24.262C2.94736 22.5308 1.63003 28.1152 1.57275 28.1711C1.17183 29.2321 1 33.5321 1 33.4204Z" fill="black" stroke="black" stroke-width="0.965184"/>
<path d="M42.0081 56.6519L40.5762 62.1246" stroke="black" stroke-width="0.965184"/>
<path d="M40.0041 56.6519L38.5723 62.1246" stroke="black" stroke-width="0.965184"/>
<path d="M38.0002 56.5957L36.5684 62.1243" stroke="black" stroke-width="0.965184"/>
<path fill-rule="evenodd" clip-rule="evenodd" d="M57.0157 3.93475C57.1875 4.21397 57.4166 4.54904 57.6457 4.82826C57.5312 4.49319 57.3594 4.21397 57.1303 3.87891C59.8222 8.06722 65.6643 10.7477 70.8763 10.4127C71.1627 10.3568 71.4491 10.3568 71.6782 10.301V10.3568C71.4491 10.4127 71.22 10.4685 70.9909 10.5244V10.5802C66.6379 12.0322 65.0342 16.0529 67.3252 20.1854H67.268C67.1534 19.962 66.9816 19.7945 66.8098 19.5711C66.9243 19.7945 67.0389 20.0179 67.1534 20.1854C64.4042 16.2205 58.6767 13.6516 53.5792 14.0426V13.9867C53.3501 14.0426 53.0637 14.0426 52.8346 14.0984L52.7773 14.0426C53.0637 13.9867 53.2928 13.9309 53.5219 13.875V13.8192C57.9894 12.3114 59.5358 8.12306 57.0157 3.93475Z" fill="white" stroke="black" stroke-width="0.965184"/>
<path fill-rule="evenodd" clip-rule="evenodd" d="M20.1301 21.3584L19.7292 23.648L19.6719 24.2623L19.7292 24.9324L19.7864 25.5467L19.901 26.161L20.0728 26.7194L20.3019 27.2779L20.5883 27.8363L20.9319 28.3389L21.2756 28.7857L21.6765 29.2324L22.0774 29.6233L22.5356 29.9584L23.0511 30.2376L23.5666 30.461L24.0821 30.6285L24.6548 30.7402L25.0557 28.5065L24.483 28.3948L23.9675 28.1714L23.452 27.948L22.9366 27.6688L22.4784 27.3337L22.0774 26.9428L21.6765 26.5519L21.3329 26.0493L20.9892 25.5467L20.7601 25.0441L20.531 24.4857L20.3019 23.8714L20.1874 23.2571L20.1301 22.6428V22.0285V21.3584Z" fill="black" stroke="black" stroke-width="0.965184" stroke-linejoin="bevel"/>
<path fill-rule="evenodd" clip-rule="evenodd" d="M25.0552 28.5065L24.6543 30.7403L25.0552 30.7962H25.5707H26.2007L26.8308 30.7403L27.5181 30.6845L28.3199 30.6286L29.1218 30.5169L29.9809 30.4052L30.84 30.2936L31.7564 30.1819L32.7301 30.0143L33.6465 29.8468L34.6202 29.6793L35.6511 29.5117L36.6248 29.3442L37.5985 29.1767L38.5722 29.0091L39.5458 28.8416L40.5195 28.6741L41.4359 28.5065L42.3523 28.339L43.2115 28.1715L44.0133 28.0598L44.8152 27.9481L45.5025 27.8364L46.1898 27.7247L46.7625 27.613L47.3353 27.5572H47.7935H48.1944H48.4808H48.7099L49.1108 25.3234L48.8817 25.2676H48.5953H48.1944L47.7362 25.3234L47.2207 25.3793L46.5907 25.4351L45.9034 25.5468L45.2161 25.6585L44.4142 25.7702L43.6124 25.9377L42.7533 26.0494L41.8369 26.2169L40.9205 26.3845L39.9468 26.552L39.0304 26.7195L37.9994 26.8871L37.0257 27.1104L36.0521 27.278L35.0784 27.4455L34.1047 27.613L33.131 27.7806L32.1573 27.8923L31.2409 28.0598L30.3818 28.1715L29.5227 28.2832L28.7208 28.339L27.9763 28.4507L27.2317 28.5065H26.6017L26.0289 28.5624L25.5134 28.5065H25.0552Z" fill="#FFD731" stroke="black" stroke-width="0.965184" stroke-linejoin="bevel"/>
<path fill-rule="evenodd" clip-rule="evenodd" d="M49.1119 25.3232L48.7109 27.557L49.1119 27.7804L49.4555 28.0038L49.7419 28.3388L49.971 28.6739L50.0855 29.009V29.3999L50.0283 29.7349L50.4292 27.4453L50.4865 27.1103V26.7752L50.3719 26.3843L50.1428 26.0492L49.8564 25.77L49.5128 25.4908L49.1119 25.3232Z" fill="black" stroke="black" stroke-width="0.965184" stroke-linejoin="bevel"/>
<path fill-rule="evenodd" clip-rule="evenodd" d="M25.5142 32.8057L25.1133 35.0394V35.4303V35.8213L25.2278 36.2122L25.3424 36.6589L25.5142 37.1057L25.7433 37.5524L26.087 38.055L26.4306 38.5576L26.8888 39.1161L27.347 39.6745L27.8052 37.3849L27.2897 36.8264L26.8315 36.3238L26.4879 35.8213L26.1442 35.3187L25.9151 34.8161L25.7433 34.3693L25.6288 33.9225L25.5142 33.5316V33.1407V32.8057Z" fill="#FFD731" stroke="black" stroke-width="0.965184" stroke-linejoin="bevel"/>
<path fill-rule="evenodd" clip-rule="evenodd" d="M27.8059 37.3852L27.3477 39.6748L28.1495 40.4008L29.0086 41.0709L29.8678 41.6294L30.7842 42.132L31.7578 42.5229L32.7315 42.858L33.7052 43.1372L34.7362 43.3047L35.8244 43.4722L36.8553 43.5281H37.9436L38.9745 43.4164L40.0627 43.3047L41.0937 43.1372L42.1819 42.9138L43.2129 42.5787L44.1866 42.2437L45.2175 41.8528L46.1339 41.4619L47.0503 40.9593L47.9667 40.4567L48.7686 39.8982L49.5704 39.2839L50.315 38.6696L51.0023 37.9995L51.5751 37.2735L52.1478 36.6034L52.606 35.8216L53.0069 35.0398L53.2933 34.258L53.5224 33.4761L53.9806 31.1865L53.7515 32.0242L53.4079 32.806L53.0069 33.5878L52.5487 34.3138L52.0333 35.0398L51.4032 35.7099L50.7159 36.38L49.9714 36.9943L49.2268 37.6086L48.3677 38.167L47.5085 38.6696L46.5348 39.1722L45.6184 39.619L44.6448 40.0099L43.6138 40.345L42.5829 40.6242L41.5519 40.8476L40.4637 41.0709L39.3754 41.1826L38.3445 41.2385H37.2563L36.2253 41.1826L35.1371 41.0709L34.1061 40.8476L33.1325 40.6242L32.1588 40.2333L31.1851 39.8424L30.2687 39.3398L29.4096 38.7813L28.5504 38.1112L27.8059 37.3852Z" fill="black" stroke="black" stroke-width="0.965184" stroke-linejoin="bevel"/>
<path fill-rule="evenodd" clip-rule="evenodd" d="M23.7388 25.4345L23.3379 27.7241L23.3952 27.4449L23.5097 27.1098L23.7388 26.8306L24.0252 26.4955L24.4261 26.2163L24.9416 25.9371L25.3425 23.6475L24.827 23.9267L24.4834 24.2617L24.1397 24.541L23.9106 24.876L23.7961 25.1553L23.7388 25.4345Z" fill="black" stroke="black" stroke-width="0.965184" stroke-linejoin="bevel"/>
<path fill-rule="evenodd" clip-rule="evenodd" d="M25.3423 23.6475L24.9414 25.9372L25.1132 25.8255L25.3423 25.6579L25.6287 25.4904L25.9724 25.3229L26.3733 25.0437L26.7742 24.8203L27.2897 24.5411L27.8052 24.206L28.3206 23.8709L28.8934 23.5359L29.5234 23.2008L30.1534 22.8099L30.7835 22.419L31.4135 22.0839L32.1008 21.693L32.7308 21.3021L33.4181 20.9112L34.0482 20.5203L34.6782 20.1852L35.3082 19.7943L35.9382 19.4592L36.5683 19.1242L37.141 18.7891L37.6565 18.5099L38.172 18.2307L38.6302 18.0073L39.0884 17.7839L39.432 17.6164L39.7757 17.4488L40.0621 17.3372L40.2912 17.2813L40.463 17.2255L40.8639 14.9917H40.6921L40.463 15.0475L40.1766 15.1592L39.833 15.3268L39.4893 15.4943L39.0311 15.7177L38.5729 15.9969L38.0574 16.2203L37.542 16.5553L36.9692 16.8346L36.3392 17.1696L35.7664 17.5047L35.1364 17.8956L34.4491 18.2865L33.8191 18.6216L33.1318 19.0125L32.5017 19.4034L31.8144 19.7943L31.1844 20.1852L30.5544 20.5761L29.9243 20.9112L29.2943 21.3021L28.7216 21.6372L28.2061 21.9722L27.6906 22.2514L27.2324 22.5307L26.7742 22.8099L26.3733 23.0333L26.0296 23.2566L25.7433 23.4242L25.5142 23.5359L25.3423 23.6475Z" fill="#FFD731" stroke="black" stroke-width="0.965184" stroke-linejoin="bevel"/>
<path fill-rule="evenodd" clip-rule="evenodd" d="M40.8638 14.9917L40.4629 17.2255H40.9211L41.2647 17.3372L41.5511 17.5047L41.7802 17.7839L41.952 18.0631L42.0666 18.3982L42.1239 18.7891V19.2359V19.6268V20.0735L42.0666 20.5203L42.0093 20.967L41.952 21.3579V21.7488V22.0839V22.3631L42.4102 20.0735L42.353 19.7943V19.4592L42.4102 19.0683V18.6774L42.4675 18.2307L42.5248 17.8398V17.393V16.9462V16.5553L42.4675 16.1644L42.353 15.7735L42.1811 15.4943L42.0093 15.2709L41.6657 15.1034L41.322 14.9917H40.8638Z" fill="black" stroke="black" stroke-width="0.965184" stroke-linejoin="bevel"/>
<path fill-rule="evenodd" clip-rule="evenodd" d="M42.4113 20.0737L41.9531 22.3633L42.0677 22.8101L42.2395 23.201L42.4686 23.5361L42.6977 23.8711L42.9268 24.1504L43.2705 24.3737L43.5568 24.5971L43.9005 24.7646L44.2441 24.8763L44.5878 24.9322L44.9314 24.988H45.3324H45.676L46.0197 24.9322L46.3633 24.8205L46.6497 24.7088L46.9361 24.5413L47.2224 24.3179L47.3943 24.0945L47.6234 23.8153L47.7379 23.4802L47.8525 23.1452L48.2534 20.9114L48.1961 21.2465L48.0243 21.5257L47.8525 21.8049L47.6234 22.0283L47.337 22.2517L47.0506 22.4192L46.7642 22.5309L46.4206 22.6426L46.0769 22.6984L45.7333 22.7543H45.3896L44.9887 22.6984L44.6451 22.5867L44.3014 22.475L43.9578 22.3075L43.6714 22.14L43.385 21.8607L43.0986 21.5815L42.8695 21.3023L42.6404 20.9114L42.5259 20.5205L42.4113 20.0737Z" fill="black" stroke="black" stroke-width="0.965184" stroke-linejoin="bevel"/>
<path fill-rule="evenodd" clip-rule="evenodd" d="M31.6424 12.535C15.7771 15.6622 19.0991 27.6129 25.0557 28.5064C29.3513 29.0648 47.3358 24.7648 49.1113 25.3233C50.3141 25.7142 50.8295 26.9428 50.3141 27.7804C49.6268 28.7856 45.9039 32.5272 44.8729 33.6441C43.4983 35.096 42.4101 36.1571 41.15 37.4415C40.4627 38.1674 38.229 41.3506 36.0525 39.1168C35.1361 38.2791 32.9024 34.5934 32.1006 33.3648C28.7213 28.283 21.9628 31.4103 27.8049 37.3856C35.8234 45.7064 53.1778 39.2843 54.0942 30.3493C54.3233 28.2272 53.3497 25.5467 51.2305 24.4298C49.054 23.257 46.0184 24.0947 43.441 24.4298C40.7491 24.8207 38.0572 25.2116 35.4225 25.6025C32.6733 25.9934 29.9814 26.3843 27.1749 26.7194C23.5093 27.1661 22.5356 25.2674 25.3421 23.648C26.8312 22.8103 39.4891 15.048 40.8637 14.9921C43.5556 14.7687 42.1237 18.7337 42.4101 20.0739C43.3265 25.0441 52.7769 22.7545 45.7321 15.8298C42.4101 12.5908 37.3699 11.4181 31.6424 12.535Z" fill="#FFD731" stroke="black" stroke-width="0.965184"/>
</svg>
