<svg width="114" height="105" viewBox="0 0 114 105" fill="none" xmlns="http://www.w3.org/2000/svg">
<path fill-rule="evenodd" clip-rule="evenodd" d="M5.277 32.9702L2.1125 44.3453L1.59933 46.398L1.25723 48.5362L1.00064 50.7599L0.82959 52.9836V55.2073L1.00064 57.431L1.25723 59.6547L1.68486 61.8784L2.19802 64.1876L2.88224 66.4969L3.65199 68.7206L4.67831 71.0298L5.70464 73.2535L6.98755 75.3917L8.27046 77.5299L9.72442 79.497L11.2639 81.4641L12.8889 83.4313L14.5995 85.2273L16.3955 86.9379L18.2771 88.6484L20.2443 90.2734L22.2969 91.7274L24.4351 93.1814L26.6588 94.5498L28.8825 95.8327L31.1917 96.9446L33.5865 98.0564L35.9813 98.9972L38.4616 99.938L40.9418 100.708L43.5077 101.478L46.0735 102.076L48.7248 102.504L51.2906 102.931L53.942 103.188L56.5933 103.445L59.2447 103.53L61.9815 103.445L64.6329 103.274L67.2842 103.017L69.9356 102.675L72.5869 102.162L75.2383 101.563L77.8041 100.793L80.2844 99.938L82.6791 98.9972L84.9883 97.9709L87.2121 96.859L89.3502 95.6617L91.4029 94.3787L93.37 93.0103L95.1661 91.5564L96.9622 90.0169L98.5872 88.3918L100.127 86.6813L101.581 84.9708L102.864 83.1747L104.061 81.2931L105.173 79.4115L106.114 77.4444L107.054 75.4772L107.739 73.4246L110.903 62.135L110.133 64.1876L109.278 66.1548L108.337 68.1219L107.225 70.0035L106.028 71.8851L104.66 73.6812L103.291 75.3917L101.752 77.1023L100.127 78.6417L98.3306 80.1812L96.5345 81.6352L94.5674 83.0036L92.5147 84.3721L90.3766 85.5694L88.1529 86.6813L85.8436 87.7076L83.4489 88.6484L80.9686 89.5037L78.4028 90.1879L75.7514 90.8721L73.1001 91.2998L70.4487 91.7274L67.7974 91.984L65.0605 92.155H62.4092L59.7578 92.0695L57.1065 91.8985L54.4551 91.6419L51.8038 91.2142L49.238 90.7011L46.6722 90.1024L44.1063 89.4182L41.6261 88.6484L39.1458 87.7076L36.751 86.7668L34.3563 85.655L32.047 84.4576L29.8233 83.1747L27.5996 81.8918L25.4614 80.4378L23.4088 78.8983L21.4416 77.3588L19.56 75.6483L17.764 73.9377L15.9679 72.0561L14.3429 70.1745L12.8034 68.2074L11.435 66.1548L10.0665 64.1021L8.86915 61.8784L7.75729 59.6547L6.81649 57.431L6.04675 55.1218L5.36253 52.8981L4.76384 50.5888L4.42173 48.3651L4.07962 46.0559L3.9941 43.8322V41.6085L4.07962 39.3848L4.33621 37.2466L4.76384 35.1084L5.277 32.9702Z" fill="#FFD731" stroke="black" stroke-width="1.65922" stroke-linecap="round" stroke-linejoin="round"/>
<path fill-rule="evenodd" clip-rule="evenodd" d="M5.27697 32.9702C3.56642 39.0426 1.68482 44.6019 1.00061 50.7599C0.401917 61.1942 2.79668 68.8061 8.27042 77.5299C20.1587 94.4643 39.4023 103.787 61.9815 103.445C81.9093 102.333 99.1003 93.7801 107.054 75.4772L107.739 73.4246L110.903 62.135L110.133 64.1876C101.837 83.3457 83.2778 91.8985 62.4091 92.155C46.159 91.7274 33.3299 86.8523 21.4416 77.3588C13.231 70.089 8.44147 63.1613 5.36249 52.8981C3.99406 47.1677 3.65195 43.148 4.33617 37.2466L4.7638 35.1084L5.27697 32.9702Z" fill="#4DA2FF" stroke="black" stroke-width="1.65922" stroke-linecap="round" stroke-linejoin="round"/>
<path fill-rule="evenodd" clip-rule="evenodd" d="M38.4618 2.7791C10.4944 10.0489 -3.27546 35.536 7.75754 59.6547C18.7906 83.7734 50.4356 97.4577 78.403 90.1879C106.285 82.9181 120.055 57.5165 109.022 33.3123C97.9887 9.19364 66.3437 -4.49072 38.4618 2.7791Z" fill="#4DA2FF" stroke="black" stroke-width="1.65922" stroke-linecap="round" stroke-linejoin="round"/>
<path fill-rule="evenodd" clip-rule="evenodd" d="M40.3433 7.05543C15.1128 13.641 2.79687 36.5623 12.718 58.3717C22.6392 80.1812 51.2053 92.4971 76.4358 85.997C101.666 79.4114 114.068 56.4046 104.061 34.5952C94.1399 12.8713 65.5738 0.469833 40.3433 7.05543Z" stroke="black" stroke-width="1.65922" stroke-linecap="round" stroke-linejoin="round"/>
<path fill-rule="evenodd" clip-rule="evenodd" d="M40.5997 8.25286C15.7968 14.7529 3.5664 37.4176 13.402 58.7994C23.1521 80.2668 51.2906 92.4116 76.0935 85.9971C100.982 79.497 113.127 56.9178 103.377 35.4505C93.541 13.9832 65.4881 1.83832 40.5997 8.25286Z" fill="#4DA2FF" stroke="black" stroke-width="1.65922" stroke-linecap="round" stroke-linejoin="round"/>
<path fill-rule="evenodd" clip-rule="evenodd" d="M72.5872 67.9508L74.0411 67.4377L74.2977 67.2666C74.3832 67.1811 74.5543 67.1811 74.6398 67.0956C77.2056 65.8982 79.9425 63.76 81.482 61.7074C81.8241 61.1087 82.2518 60.5955 82.5939 59.9968C82.7649 59.7402 82.936 59.4836 83.0215 59.1415C83.1926 58.885 83.3636 58.5428 83.4491 58.2863C83.5347 58.1152 83.6202 57.9442 83.6202 57.8586C83.7912 57.3455 83.9623 57.0889 84.1334 56.4902C84.3899 55.7204 84.4755 55.2928 84.6465 54.5231C85.0742 52.2138 84.9886 49.2204 84.0478 46.2269C82.2518 40.6677 77.9754 35.8781 72.2451 32.8847C71.903 32.7136 71.5609 32.5426 71.1332 32.3715C68.6529 31.2597 66.1726 30.2333 63.6068 29.1215L48.554 22.7925C47.3567 22.2793 45.9882 21.6806 44.7908 21.1675C44.4487 20.9964 44.3632 21.0819 44.1066 21.0819L43.9356 21.1675C43.9356 21.253 43.85 21.253 43.7645 21.3385C43.679 21.424 43.679 21.5096 43.679 21.5951L43.3369 23.0491C43.3369 23.3912 43.2513 23.6477 43.1658 23.9899L41.0276 34.5952C40.8566 35.1939 40.7711 35.8781 40.6 36.4768L40.2579 37.9308C40.2579 38.1018 40.2579 38.2729 40.1724 38.3584C40.0868 39.0426 39.9158 39.6413 39.8303 40.3256C39.5737 41.6085 39.2316 42.8914 38.975 44.1743C38.5474 46.6546 38.5474 49.3059 39.4026 52.4704C40.3434 55.7204 42.4816 59.056 45.0474 61.6218C46.2448 62.8192 47.6132 63.9311 48.9817 64.7863C49.6659 65.214 50.3501 65.6416 51.0343 66.0692C51.7185 66.4113 52.4883 66.7535 53.1725 67.0956C53.3436 67.1811 53.5146 67.1811 53.6857 67.2666C54.2844 67.5232 54.712 67.6943 55.3107 67.8653C57.1068 68.5495 59.1594 68.9772 61.1265 69.2337C62.2384 69.3193 63.5213 69.4048 64.7187 69.4048C67.0279 69.3193 69.0806 68.9772 71.2187 68.3785C71.4753 68.2929 72.4161 67.9508 72.5872 67.9508ZM79.0017 53.5823C79.1728 53.2402 79.3438 51.7007 79.3438 51.273C79.4294 48.6217 78.5741 45.6282 76.9491 43.0624C75.8372 41.2663 74.1267 39.5558 72.5872 38.3584C71.2187 37.4176 70.2779 36.7334 68.824 36.1347C68.3963 35.8781 67.9687 35.7071 67.5411 35.536C64.12 34.0821 60.6134 32.5426 57.1068 31.0886C56.2515 30.7465 55.3962 30.4044 54.5409 30.0623L51.8896 28.9504C51.1198 28.6083 50.008 28.1807 49.3238 27.8386C48.8106 27.582 48.2975 27.4965 47.8698 27.8386C47.5277 28.0952 47.5277 28.5228 47.4422 28.9504C47.2711 29.7202 47.1001 30.4899 47.0145 31.2597C46.4159 33.6544 46.8435 36.4768 48.2119 39.0426C49.4948 41.4374 51.462 43.1479 53.8567 44.1743C54.4554 44.4309 54.6265 44.5164 55.2252 44.6874C55.6528 44.8585 56.0804 45.0295 56.5936 45.1151C57.0212 45.2861 57.4489 45.3717 57.962 45.4572C59.587 45.7993 61.8963 45.9703 63.6068 46.2269C64.7187 46.398 66.6858 46.7401 67.7977 47.0822L68.824 47.3388C68.9095 47.4243 68.995 47.4243 69.1661 47.4243L70.1924 47.7664C70.7911 48.023 71.1332 48.1941 71.8174 48.4506C76.8635 50.5888 78.6596 53.4112 79.0017 53.5823ZM70.2779 63.2468C72.5872 62.306 74.5543 60.9376 76.0938 59.2271L76.1793 59.1415C76.3504 58.885 75.0675 57.0889 74.8109 56.8323C73.2714 54.8652 71.5609 53.6678 69.2516 52.6415C69.0806 52.6415 68.9095 52.5559 68.7385 52.4704C68.3963 52.2994 67.1134 51.8717 66.6858 51.7862C66.5147 51.7007 66.3437 51.7007 66.1726 51.6151C64.8897 51.273 63.0937 51.0165 61.7252 50.8454C59.7581 50.5888 58.2186 50.5033 56.2515 50.0757C54.5409 49.648 53.6857 49.3914 51.9751 48.7072C50.6922 48.1941 49.4093 47.5098 48.1264 46.569C47.1001 45.8848 46.1593 45.1151 45.3895 44.2598C45.1329 43.9177 44.8764 43.5756 44.5343 43.2335C44.5343 43.319 44.1921 45.0295 44.1066 45.2006C43.7645 47.1677 43.85 49.477 44.4487 51.6151C45.0474 53.4112 45.8172 54.9507 47.1001 56.5757C48.1264 58.1152 49.4948 59.3126 50.9488 60.3389C53.6001 62.3916 57.0212 63.6745 59.7581 64.1876C63.0081 64.7008 66.6003 64.6153 70.2779 63.2468Z" fill="white"/>
<path fill-rule="evenodd" clip-rule="evenodd" d="M36.1525 72.9113C36.1525 75.9048 27.8563 75.8192 25.1194 78.6416C22.5536 81.1219 23.1523 88.9049 20.1589 88.9049C17.0799 88.9049 17.7641 81.1219 15.1983 78.6416C12.3759 75.8192 4.16528 75.9048 4.16528 72.9113C4.16528 69.8323 12.3759 69.9179 15.1983 67.181C17.7641 64.6152 17.0799 56.9177 20.1589 56.9177C23.1523 56.9177 22.5536 64.6152 25.1194 67.181C27.8563 69.9179 36.1525 69.8323 36.1525 72.9113Z" fill="white" stroke="black" stroke-width="1.65922"/>
<path fill-rule="evenodd" clip-rule="evenodd" d="M101.495 16.9765C101.495 18.9436 96.1071 18.8581 94.2255 20.6542C92.6005 22.3647 93.0281 27.4108 90.9755 27.4108C89.0083 27.4108 89.436 22.3647 87.8109 20.6542C85.9294 18.8581 80.5411 18.9436 80.5411 16.9765C80.5411 14.9239 85.9294 15.0094 87.8109 13.2133C89.436 11.5028 89.0083 6.45667 90.9755 6.45667C93.0281 6.45667 92.6005 11.5028 94.2255 13.2133C96.1071 15.0094 101.495 14.9239 101.495 16.9765Z" fill="white" stroke="black" stroke-width="1.65922"/>
<path fill-rule="evenodd" clip-rule="evenodd" d="M41.8114 100.91C47.7983 102.62 54.2984 103.476 61.055 103.561C80.9829 102.877 98.1738 95.5571 106.299 77.4254L107.069 75.3727L110.319 64.0831L109.549 66.1358C101.082 85.2083 82.4368 93.3334 61.6537 93.1624C55.5813 92.8203 49.9365 91.965 44.7193 90.4255L41.8114 100.91Z" fill="black" stroke="black" stroke-width="1.65922" stroke-linejoin="bevel"/>
</svg>
