<svg width="1440" height="821" viewBox="0 0 1440 821" fill="none" xmlns="http://www.w3.org/2000/svg">
<path fill-rule="evenodd" clip-rule="evenodd" d="M1196.24 8.83984L1191.84 24.8561L1191.1 27.9127L1190.49 30.9692L1190.12 34.0257L1190 37.2045V40.3834L1190.12 43.5622L1190.49 46.8632L1191.1 50.042L1191.84 53.3431L1192.81 56.6441L1194.04 59.9452L1195.38 63.124L1196.97 66.4251L1198.68 69.6039L1200.64 72.6604L1202.6 75.5947L1204.8 78.529L1207.12 81.2187L1209.56 83.9085L1212.25 86.5983L1214.94 89.0435L1217.76 91.3665L1220.69 93.6894L1223.75 95.7679L1226.8 97.8463L1230.1 99.6803L1233.41 101.514L1236.83 103.104L1240.25 104.693L1243.8 106.038L1247.34 107.383L1251.01 108.483L1254.68 109.461L1258.35 110.195L1262.14 110.928L1265.93 111.417L1269.72 111.906L1273.51 112.029L1277.3 112.151L1281.09 112.029L1285 111.784L1288.79 111.417L1292.58 110.806L1296.25 110.072L1300.04 109.094L1303.58 107.994L1307.01 106.771L1310.31 105.427L1313.49 103.837L1316.54 102.248L1319.48 100.536L1322.17 98.5799L1324.86 96.6237L1327.3 94.423L1329.75 92.2223L1331.83 89.8993L1333.9 87.5763L1335.86 85.0089L1337.57 82.4414L1339.04 79.7516L1340.51 76.9396L1341.73 74.1276L1342.83 71.3155L1347.35 55.2993L1346.25 58.1113L1345.03 60.9233L1343.56 63.7353L1341.97 66.4251L1340.26 68.9926L1338.43 71.4378L1336.35 73.883L1334.15 76.206L1331.83 78.4067L1329.38 80.4852L1326.69 82.5636L1324 84.3975L1321.07 86.2315L1318.01 87.8209L1314.83 89.288L1311.53 90.7551L1308.11 91.9778L1304.44 93.0781L1300.77 93.934L1296.98 94.7898L1293.19 95.2788L1289.4 95.7679L1285.61 96.0124L1281.82 96.1347L1278.03 96.0124L1274.24 95.7679L1270.45 95.4011L1266.66 94.912L1262.87 94.1785L1259.2 93.3226L1255.41 92.3446L1251.87 91.2442L1248.2 90.0216L1244.78 88.6767L1241.23 87.0873L1237.93 85.4979L1234.63 83.664L1231.33 81.7078L1228.27 79.7516L1225.21 77.5509L1222.28 75.3502L1219.47 73.0272L1216.66 70.4597L1214.09 67.8922L1211.64 65.2025L1209.32 62.3904L1207.12 59.5784L1205.04 56.6441L1203.21 53.4653L1201.5 50.4088L1199.91 47.1077L1198.56 43.8067L1197.34 40.5056L1196.36 37.3268L1195.63 34.0257L1195.02 30.7247L1194.65 27.5459L1194.53 24.3671V21.1883L1194.65 18.0095L1195.02 14.9529L1195.63 11.8964L1196.24 8.83984Z" fill="#FFD731" stroke="black" stroke-width="2.11311" stroke-linejoin="bevel"/>
<path fill-rule="evenodd" clip-rule="evenodd" d="M1196.24 8.83984C1193.92 17.3982 1191.23 25.3452 1190.12 34.0257C1189.27 48.9417 1192.81 59.9452 1200.64 72.6604C1217.63 97.4795 1245.14 111.54 1277.3 112.151C1305.78 111.417 1330.36 100.047 1341.73 74.1276L1342.83 71.3155L1347.35 55.2993L1346.25 58.1113C1334.27 85.2534 1307.74 96.6237 1278.03 96.0124C1254.8 94.6675 1236.34 87.2096 1219.47 73.0272C1207.73 62.2682 1200.76 52.1205 1196.36 37.3268C1194.4 29.1353 1194.04 23.2667 1195.02 14.9529L1195.63 11.8964L1196.24 8.83984Z" fill="#FFD731" stroke="black" stroke-width="2.11311" stroke-linejoin="bevel"/>
<path fill-rule="evenodd" clip-rule="evenodd" d="M1286.83 111.539C1310.55 108.483 1331.95 96.6233 1341.73 74.1271L1342.83 71.3151L1347.35 55.2988L1346.25 58.1108C1336.23 81.096 1315.57 92.7109 1291.48 95.4007L1286.83 111.539Z" fill="black" stroke="black" stroke-width="2.11311" stroke-linejoin="bevel"/>
<path fill-rule="evenodd" clip-rule="evenodd" d="M1243.68 -32.8511C1203.7 -23.6814 1184.13 12.1412 1199.91 47.1081C1215.68 82.0749 1260.79 103.104 1300.77 93.9343C1340.75 84.8869 1360.31 49.0642 1344.54 13.9752C1328.77 -20.9917 1283.65 -42.0207 1243.68 -32.8511Z" fill="#FFD731" stroke="black" stroke-width="2.11311"/>
<path d="M1316.3 9.32959C1325.96 32.8038 1312.51 56.2781 1285.86 62.3912C1258.71 68.6265 1228.03 54.3219 1217.27 30.4809" stroke="black" stroke-width="2.11311"/>
<path fill-rule="evenodd" clip-rule="evenodd" d="M1244.16 1.74891C1254.43 -0.69632 1266.17 4.80546 1270.21 13.8528C1274.24 22.9002 1269.23 32.0698 1258.96 34.515C1248.57 36.838 1236.83 31.4585 1232.79 22.4111C1228.76 13.3638 1233.77 4.07189 1244.16 1.74891Z" fill="white" stroke="black" stroke-width="2.11311"/>
<path fill-rule="evenodd" clip-rule="evenodd" d="M1285.86 28.2799C1296.25 25.9569 1301.26 16.6651 1297.23 7.6177C1293.07 -1.42967 1281.45 -6.80918 1271.06 -4.48621C1260.79 -2.16324 1255.66 7.12865 1259.81 16.176C1263.85 25.2234 1275.59 30.6029 1285.86 28.2799Z" fill="white" stroke="black" stroke-width="2.11311"/>
<path fill-rule="evenodd" clip-rule="evenodd" d="M1278.64 -3.6308C1284.27 -4.85342 1291.72 0.28157 1295.15 8.10632C1298.69 15.8088 1296.86 23.1445 1291.24 24.4894C1285.61 25.712 1278.28 20.577 1274.73 12.7523C1271.31 5.04978 1273.02 -2.28592 1278.64 -3.6308Z" fill="black" stroke="black" stroke-width="2.11311"/>
<path fill-rule="evenodd" clip-rule="evenodd" d="M1262.99 30.9686C1268.62 29.6237 1270.33 22.288 1266.78 14.5856C1263.36 6.88307 1255.9 1.62582 1250.28 2.84843C1244.65 4.19331 1242.94 11.529 1246.37 19.2315C1249.91 27.0562 1257.25 32.1912 1262.99 30.9686Z" fill="black" stroke="black" stroke-width="2.11311"/>
<path fill-rule="evenodd" clip-rule="evenodd" d="M-14.0981 131.492L28.6503 95.6724C35.5792 89.8004 45.4442 91.3271 50.4942 99.0782L83.7298 150.165C88.6623 157.798 87.1356 168.955 80.0892 174.827L37.3408 210.647C30.2944 216.519 20.5469 214.992 15.4969 207.241L-17.7387 156.154C-22.7887 148.521 -21.1445 137.364 -14.0981 131.492Z" fill="#F7F7F7" stroke="black" stroke-width="2.02978"/>
<path fill-rule="evenodd" clip-rule="evenodd" d="M-12.8064 135.133L53.3126 94.6158C61.6509 89.5658 72.5729 92.0321 77.7403 100.253L109.097 150.4C114.264 158.621 111.681 169.543 103.46 174.593L37.3407 215.11C29.0025 220.16 18.0805 217.576 12.9131 209.355L-18.5609 159.208C-23.7283 150.987 -21.1446 140.183 -12.8064 135.133Z" fill="#55DB9C" stroke="black" stroke-width="2.02978"/>
<path fill-rule="evenodd" clip-rule="evenodd" d="M133.29 172.597L127.653 192.444L127.418 193.266C125.539 197.964 122.485 200.9 117.788 203.014L116.965 203.483L28.7676 237.541L27.8281 237.893C18.3154 240.712 8.9202 237.541 3.75282 230.26L3.28305 229.555L2.93073 228.733L-24.3155 176.237L-24.6678 175.415C-25.9596 172.244 -26.312 169.778 -25.7247 166.255L-25.6073 165.433L-19.9702 145.585C-18.6783 140.535 -14.8028 136.073 -8.93076 133.841L79.1496 99.666C88.8972 95.9079 100.641 99.9009 105.104 108.474L132.233 161.087C134.229 164.845 134.464 168.838 133.29 172.597Z" fill="#5C4ADE"/>
<path d="M127.535 180.817C128.357 180.113 129.179 179.291 130.001 178.469M133.29 172.597L127.653 192.444L127.418 193.266C125.539 197.964 122.485 200.9 117.788 203.014L116.965 203.483L28.7676 237.541L27.8281 237.893C18.3154 240.712 8.9202 237.541 3.75281 230.26L3.28305 229.555L2.93073 228.733L-24.3155 176.237L-24.6678 175.415C-25.9596 172.244 -26.312 169.778 -25.7247 166.255L-25.6073 165.433L-19.9702 145.585C-18.6783 140.535 -14.8028 136.073 -8.93076 133.841L79.1496 99.666C88.8972 95.9079 100.641 99.9009 105.104 108.474L132.233 161.087C134.229 164.845 134.464 168.838 133.29 172.597Z" stroke="black" stroke-width="2.02978" stroke-linejoin="bevel"/>
<path fill-rule="evenodd" clip-rule="evenodd" d="M96.4135 129.965L111.211 124.211C113.677 123.271 116.848 124.445 118.023 126.794L122.72 135.837C124.012 138.303 122.955 141.005 120.489 142.062L105.691 147.699C101.111 149.46 95.5914 147.346 93.36 143.118L92.3031 140.887C90.0717 136.659 91.9508 131.727 96.4135 129.965Z" fill="#5C4ADE" stroke="black" stroke-width="2.02978"/>
<path fill-rule="evenodd" clip-rule="evenodd" d="M133.29 172.596L127.653 192.444L127.418 193.266C125.539 197.963 122.485 200.899 117.788 203.013L116.966 203.483L28.8853 237.423C17.4936 235.075 22.0738 221.451 33.4655 217.928L34.405 217.693L122.603 183.518C127.3 181.639 130.589 178.821 132.703 174.123L133.055 173.301L133.29 172.596Z" fill="black" stroke="black" stroke-width="2.02978" stroke-linejoin="bevel"/>
<path d="M-16.5643 159.208L9.27262 209.238C11.504 213.466 13.6179 215.697 17.376 217.342" stroke="black" stroke-width="2.02978"/>
<path fill-rule="evenodd" clip-rule="evenodd" d="M213.492 493.771L212.285 491.86C208.061 483.513 207.458 476.573 208.363 467.421C209.469 459.275 211.581 451.128 213.291 443.083L212.889 445.295C211.38 456.257 212.084 464.806 217.716 473.958L218.018 474.461L218.42 474.964C221.84 479.993 225.259 484.82 228.88 489.748L229.282 490.251L229.684 490.754L225.46 510.566L225.058 510.064L224.656 509.561L224.254 508.957C221.236 504.834 218.219 500.61 215.202 496.285L214.9 495.782L214.498 495.279L214.196 494.777L213.794 494.274L213.492 493.771Z" fill="white" stroke="black" stroke-width="1.73824" stroke-linejoin="bevel"/>
<path fill-rule="evenodd" clip-rule="evenodd" d="M340.113 526.858L335.989 546.671L335.688 547.676L335.285 548.481C333.073 551.498 330.458 550.191 328.145 548.079L327.34 547.274L326.033 545.665C318.59 537.317 311.148 530.981 300.99 526.456L300.286 526.154L299.683 525.953L299.18 525.651L298.677 525.45L298.174 525.249L297.772 525.148L297.47 524.947L301.594 505.134L301.996 505.335L302.398 505.436L302.901 505.637L303.404 505.838C314.567 510.465 322.211 516.7 330.156 525.852L331.463 527.461C333.777 529.875 336.995 532.088 339.509 528.668L339.912 527.864L340.113 526.858Z" fill="#FB4903" stroke="black" stroke-width="1.73824" stroke-linejoin="bevel"/>
<path fill-rule="evenodd" clip-rule="evenodd" d="M340.113 526.858L335.989 546.671C334.883 550.191 332.972 550.995 329.754 549.386H329.653L333.475 529.272C335.688 530.78 337.8 530.981 339.509 528.668L339.912 527.864L340.113 526.858Z" fill="black" stroke="black" stroke-width="1.73824" stroke-linejoin="bevel"/>
<path fill-rule="evenodd" clip-rule="evenodd" d="M301.594 505.134L297.47 524.947H297.37H297.269L297.068 525.048L296.766 525.148C292.542 526.456 288.016 528.869 286.508 533.294L286.407 533.998C289.022 521.427 287.715 509.66 300.588 505.436L300.99 505.335L301.191 505.235L301.493 505.134H301.594Z" fill="black" stroke="black" stroke-width="1.73824" stroke-linejoin="bevel"/>
<path fill-rule="evenodd" clip-rule="evenodd" d="M299.783 537.016L295.66 556.829C294.654 560.349 293.347 562.561 290.833 565.176L294.956 545.364C297.269 543.05 298.577 541.039 299.582 537.921L299.783 537.016Z" fill="black" stroke="black" stroke-width="1.73824" stroke-linejoin="bevel"/>
<path fill-rule="evenodd" clip-rule="evenodd" d="M294.956 545.364L290.832 565.176H290.631H290.43H290.028C280.574 564.171 270.617 558.84 269.209 548.582V547.073L269.31 545.565L273.433 525.752V527.261C273.836 538.525 283.993 543.956 293.849 545.263L294.252 545.364H294.654H294.855H294.956Z" fill="#E9CCFF" stroke="black" stroke-width="1.73824" stroke-linejoin="bevel"/>
<path fill-rule="evenodd" clip-rule="evenodd" d="M273.433 525.751L269.31 545.564V545.464V545.363H269.209V545.262V545.162H269.109V545.061L269.008 544.961L268.505 544.357C263.276 537.719 255.934 538.423 248.592 540.636L247.888 540.837L252.112 521.024C259.856 518.611 267.902 517.706 273.232 525.148L273.333 525.249V525.349H273.433V525.45V525.55V525.651V525.751Z" fill="black" stroke="black" stroke-width="1.73824" stroke-linejoin="bevel"/>
<path fill-rule="evenodd" clip-rule="evenodd" d="M252.112 521.025L247.888 540.838L247.787 541.14L247.687 541.542L247.486 541.944L247.385 542.347L247.184 542.749L246.983 543.252L246.882 543.855L246.681 544.358L246.48 544.962L246.279 545.666L246.078 546.37L245.977 547.074L245.776 547.878L250 528.065L250.1 527.261L250.302 526.557L250.503 525.853L250.704 525.149L250.905 524.545L251.006 523.942L251.207 523.439L251.408 522.936L251.609 522.534L251.71 522.132L251.81 521.729L252.011 521.327L252.112 521.025Z" fill="white" stroke="black" stroke-width="1.73824" stroke-linejoin="bevel"/>
<path fill-rule="evenodd" clip-rule="evenodd" d="M252.916 555.622L248.793 575.434L248.592 576.138L248.29 576.742L247.888 577.245L247.284 577.647C243.966 578.854 240.546 576.239 238.032 574.227C227.975 565.478 214.8 548.682 214.8 536.513V535.608L214.9 534.602L215.101 533.697L215.202 532.792L219.426 512.878L219.225 513.884L219.124 514.789L219.024 515.795V516.7V517.706V518.712L219.124 519.717L219.325 520.824L219.426 521.93L219.627 522.734L219.929 523.64L220.231 524.545C223.851 533.999 232.5 545.062 239.742 552.202L240.647 553.007L241.451 553.711C243.966 555.923 247.284 558.538 250.905 558.035L251.508 557.834L252.112 557.432L252.514 556.929L252.816 556.326L252.916 555.622Z" fill="#FB4903" stroke="black" stroke-width="1.73824" stroke-linejoin="bevel"/>
<path fill-rule="evenodd" clip-rule="evenodd" d="M252.917 555.622L248.793 575.434L248.592 576.138C247.184 579.055 244.368 577.848 241.954 577.144L245.977 557.03H246.078L247.184 557.633C249.196 558.236 251.006 558.739 252.514 556.929L252.816 556.326L252.917 555.622Z" fill="black" stroke="black" stroke-width="1.73824" stroke-linejoin="bevel"/>
<path fill-rule="evenodd" clip-rule="evenodd" d="M217.716 474.159C203.938 453.341 219.929 419.85 224.958 418.14C230.489 416.431 271.02 430.812 281.177 454.346L301.594 505.336L252.112 521.227C250.101 517.707 230.389 492.765 217.716 474.159Z" fill="white" stroke="black" stroke-width="1.73824"/>
<path fill-rule="evenodd" clip-rule="evenodd" d="M212.487 448.814C213.995 433.326 221.739 419.246 224.958 418.139C228.578 417.033 246.681 422.564 261.767 433.024C243.966 433.426 227.07 436.343 212.487 448.814Z" fill="#FB4903" stroke="black" stroke-width="1.73824"/>
<path fill-rule="evenodd" clip-rule="evenodd" d="M243.061 452.836C252.112 450.02 262.169 452.735 265.689 458.971C269.209 465.206 264.784 472.548 255.833 475.465C246.882 478.281 236.724 475.565 233.204 469.33C229.684 463.094 234.11 455.753 243.061 452.836Z" fill="#F7F7F7" stroke="black" stroke-width="1.73824"/>
<path fill-rule="evenodd" clip-rule="evenodd" d="M244.67 452.635C251.408 450.422 259.052 452.434 261.666 457.161C264.382 461.887 261.063 467.419 254.224 469.631C247.486 471.844 239.842 469.732 237.227 465.005C234.613 460.379 237.931 454.747 244.67 452.635Z" fill="#4DA2FF" stroke="black" stroke-width="1.73824"/>
<path fill-rule="evenodd" clip-rule="evenodd" d="M252.112 521.226L229.282 491.054C223.851 503.425 217.113 510.364 219.527 522.03C221.236 530.78 233.707 547.274 242.256 554.616C249.497 560.751 254.526 558.639 252.615 552.906C246.078 533.295 251.207 524.344 252.112 521.226Z" fill="#FB4903" stroke="black" stroke-width="1.73824"/>
<path fill-rule="evenodd" clip-rule="evenodd" d="M301.593 505.337L288.72 471.947C304.208 477.579 315.573 478.786 325.027 488.139C332.268 495.179 339.308 513.383 340.314 523.138C341.118 531.385 335.687 532.592 331.564 527.563C317.283 510.365 305.315 507.046 301.593 505.337Z" fill="#FB4903" stroke="black" stroke-width="1.73824"/>
<path fill-rule="evenodd" clip-rule="evenodd" d="M278.462 512.778L275.747 513.583L257.342 519.516C265.287 518.812 270.215 520.924 273.232 525.35C273.333 525.45 273.433 525.651 273.534 525.752C279.669 523.74 285.502 521.829 291.637 519.919C291.637 519.919 291.536 519.717 291.436 519.516C289.223 514.789 290.732 510.666 296.867 506.844L278.462 512.778Z" fill="#CCCCCC" stroke="black" stroke-width="1.73824"/>
<path fill-rule="evenodd" clip-rule="evenodd" d="M291.738 520.02L273.434 525.853C272.025 542.95 294.353 545.767 295.057 545.465C300.186 540.537 305.214 527.664 291.738 520.02Z" fill="#E9CCFF" stroke="black" stroke-width="1.73824"/>
<path fill-rule="evenodd" clip-rule="evenodd" d="M287.916 521.125L277.456 524.544C276.551 534.299 289.424 536.009 289.827 535.808C292.844 532.992 295.76 525.55 287.916 521.125Z" fill="#FFD731" stroke="black" stroke-width="1.73824"/>
<path fill-rule="evenodd" clip-rule="evenodd" d="M208.363 479.388C208.765 477.578 207.659 464.001 213.492 466.012C214.398 466.314 213.794 466.414 213.492 463.196C213.291 461.587 211.984 452.234 212.084 451.429C211.079 451.63 208.263 465.61 208.263 468.024C208.263 469.934 208.564 478.684 208.363 479.388Z" fill="black"/>
<path d="M215.403 470.035L211.28 489.345" stroke="black" stroke-width="1.73824"/>
<path fill-rule="evenodd" clip-rule="evenodd" d="M1248.45 681.528L1240.59 686.371C1239.29 687.138 1238.29 687.577 1236.82 688.038L1236.2 688.224L1154.65 705.152L1153.95 705.263C1146.69 706.152 1140.46 702.127 1138.4 695.159L1138.29 694.457L1125.2 631.096L1125.01 630.477C1124.38 625.247 1126.21 620.766 1130.37 617.353L1130.82 617.018L1138.6 612.101L1138.14 612.436L1137.61 612.853C1133.77 616.252 1132.16 620.487 1132.79 625.56L1132.9 626.261L1146.07 689.54L1146.18 690.242C1148.23 697.21 1154.47 701.236 1161.65 700.428L1162.43 700.235C1180.77 696.393 1234.19 688.946 1247.83 681.871L1248.45 681.528Z" fill="black" stroke="black" stroke-width="1.91654" stroke-linejoin="bevel"/>
<path fill-rule="evenodd" clip-rule="evenodd" d="M1248.44 681.528L1240.59 686.371C1239.29 687.138 1238.29 687.577 1236.82 688.039L1236.2 688.225L1154.65 705.152L1153.95 705.263C1150.36 705.745 1147.11 705.034 1144.44 703.354L1151.48 697.922C1154.25 699.99 1157.82 700.843 1161.65 700.428L1162.43 700.235C1180.77 696.393 1234.19 688.947 1247.83 681.871L1248.44 681.528Z" fill="black" stroke="black" stroke-width="1.91654" stroke-linejoin="bevel"/>
<path fill-rule="evenodd" clip-rule="evenodd" d="M1143.6 609.905L1225.3 592.97C1232.69 591.447 1240.05 596.204 1241.5 603.672L1254.67 666.951C1256.19 674.337 1251.36 681.785 1243.98 683.308L1162.43 700.236C1154.88 701.766 1147.59 696.927 1146.07 689.541L1132.9 626.262C1131.45 618.794 1136.21 611.428 1143.6 609.905Z" fill="#4DA2FF" stroke="black" stroke-width="1.91654"/>
<path fill-rule="evenodd" clip-rule="evenodd" d="M1154.01 641.287L1170.73 637.757C1174.22 637.044 1177.71 639.314 1178.42 642.813L1181.26 656.495C1181.97 659.994 1179.7 663.476 1176.2 664.189L1159.49 667.719C1155.99 668.433 1152.51 666.162 1151.8 662.663L1148.96 648.981C1148.24 645.482 1150.52 642 1154.01 641.287Z" fill="#FFD731" stroke="black" stroke-width="1.91654"/>
<path d="M1150.26 650.019L1178.1 644.32" stroke="black" stroke-width="1.91654"/>
<path d="M1180.39 654.653L1152.4 660.359" stroke="black" stroke-width="1.91654"/>
<path d="M1162.51 640.025L1167.88 665.913" stroke="black" stroke-width="1.91654"/>
<path fill-rule="evenodd" clip-rule="evenodd" d="M1163.27 644.464C1165.06 644.145 1167 645.31 1167.4 647.175L1169.25 656.508C1169.65 658.373 1168.48 660.155 1166.61 660.556C1164.75 660.957 1162.97 659.785 1162.56 657.92L1160.63 648.512C1160.31 646.722 1161.4 644.865 1163.27 644.464Z" fill="#FFD731" stroke="black" stroke-width="1.91654"/>
<path fill-rule="evenodd" clip-rule="evenodd" d="M1280.52 749.731L1272.85 755.192L1272.24 755.535C1268.58 757.747 1264.97 757.759 1261.13 756.212L1176.72 720.602L1176.08 720.318L1175.44 720.034C1169.23 716.479 1166.01 709.644 1167.33 702.753L1167.53 702.037L1184.41 640.019L1184.61 639.304L1184.9 638.662C1185.67 636.664 1186.55 635.367 1188.13 633.958L1188.66 633.541L1196.33 628.079L1195.8 628.497L1195.35 628.832L1194.9 629.324C1193.49 631.038 1192.69 632.41 1192.08 634.558L1175.21 696.575L1175.08 697.209C1173.69 704.339 1177.08 711.48 1183.75 714.857L1184.48 715.216L1268.8 750.751L1269.44 751.035C1272.87 752.209 1276.01 752.218 1279.46 750.409L1279.99 750.148L1280.52 749.731Z" fill="black" stroke="black" stroke-width="1.91654" stroke-linejoin="bevel"/>
<path fill-rule="evenodd" clip-rule="evenodd" d="M1280.53 749.731L1272.85 755.192L1272.24 755.535C1268.96 757.494 1265.91 757.715 1262.48 756.698L1261.77 756.496L1261.13 756.212L1176.72 720.603C1176.08 720.319 1175.44 720.035 1174.87 719.669C1172.37 718.138 1170.96 716.555 1169.36 714.197C1169.02 713.585 1168.76 713.048 1168.41 712.279C1168.75 712.891 1175.98 706.429 1176.16 706.892C1177.3 709.429 1178.63 711.094 1180.77 713.035C1181.99 713.998 1182.96 714.58 1184.48 715.216L1268.8 750.751C1272.47 752.149 1275.85 752.226 1279.46 750.409L1280 750.148L1280.53 749.731Z" fill="black" stroke="black" stroke-width="1.91654" stroke-linejoin="bevel"/>
<path fill-rule="evenodd" clip-rule="evenodd" d="M1208.52 626.725L1292.84 662.261C1299.88 665.228 1304.12 673.585 1302.11 680.901L1285.23 742.918C1283.22 750.234 1275.85 753.719 1268.8 750.752L1184.48 715.217C1177.43 712.25 1173.27 703.811 1175.21 696.577L1192.08 634.56C1194.1 627.244 1201.47 623.759 1208.52 626.725Z" fill="#5C4ADE" stroke="black" stroke-width="1.91654"/>
<path fill-rule="evenodd" clip-rule="evenodd" d="M1204.02 659.825L1222.04 667.537C1225.32 668.875 1227.16 672.792 1226.3 676.208L1222.61 689.646C1221.59 693.069 1218.29 694.715 1215.01 693.377L1196.91 685.747C1193.79 684.402 1191.8 680.492 1192.82 677.069L1196.42 663.556C1197.37 660.215 1200.74 658.487 1204.02 659.825Z" fill="#FFD731" stroke="black" stroke-width="1.91654"/>
<path d="M1197.14 665.407L1225.33 677.274" stroke="black" stroke-width="1.91654"/>
<path d="M1222.66 687.446L1194.32 675.586" stroke="black" stroke-width="1.91654"/>
<path d="M1212.94 664.195L1206.04 689.559" stroke="black" stroke-width="1.91654"/>
<path fill-rule="evenodd" clip-rule="evenodd" d="M1211.57 668.498C1213.41 669.275 1214.54 671.499 1214.01 673.565L1211.66 682.074C1211.2 684.058 1209.13 685.018 1207.28 684.241C1205.44 683.464 1204.39 681.158 1204.93 679.249L1207.2 670.665C1207.81 668.674 1209.73 667.721 1211.57 668.498Z" fill="#FFD731" stroke="black" stroke-width="1.91654"/>
<path fill-rule="evenodd" clip-rule="evenodd" d="M1307.11 660.413C1306.92 661.286 1306.72 662.159 1306.61 663.106C1306.89 662.308 1307.24 661.428 1307.43 660.555C1304.37 672.316 1309.45 685.187 1318.99 691.02L1319.07 691.095C1319.55 691.386 1320.04 691.678 1320.6 691.887L1320.52 691.969C1319.96 691.76 1319.49 691.625 1318.93 691.416L1318.85 691.498C1308.69 688.991 1298.61 694.958 1295.05 706.114C1295.17 705.48 1295.3 704.846 1295.35 704.294C1295.14 704.853 1294.93 705.412 1294.73 705.972C1297.32 694.39 1292.27 681.989 1282.98 676.379L1282.9 676.305C1282.41 676.013 1281.93 675.722 1281.44 675.431C1282 675.64 1282.48 675.775 1283.04 675.984L1283.11 675.902C1293.52 678.476 1303.82 672.107 1307.11 660.413Z" fill="white" stroke="black" stroke-width="1.91654"/>
</svg>
