<svg width="744" height="811" viewBox="0 0 744 811" fill="none" xmlns="http://www.w3.org/2000/svg">
<path fill-rule="evenodd" clip-rule="evenodd" d="M672.678 34.2737L669.377 46.2859L668.827 48.5783L668.369 50.8707L668.094 53.1631L668.002 55.5472V57.9313L668.094 60.3154L668.369 62.7912L668.827 65.1753L669.377 67.6511L670.111 70.1269L671.028 72.6027L672.037 74.9868L673.229 77.4626L674.512 79.8467L675.98 82.1391L677.447 84.3398L679.097 86.5405L680.839 88.5578L682.673 90.5752L684.691 92.5925L686.708 94.4264L688.817 96.1686L691.018 97.9109L693.31 99.4697L695.603 101.029L698.078 102.404L700.554 103.779L703.122 104.971L705.689 106.164L708.348 107.172L711.007 108.181L713.758 109.006L716.509 109.74L719.26 110.29L722.103 110.84L724.945 111.207L727.788 111.574L730.63 111.665L733.473 111.757L736.316 111.665L739.25 111.482L742.093 111.207L744.935 110.748L747.686 110.198L750.529 109.465L753.188 108.639L755.755 107.722L758.231 106.714L760.615 105.522L762.908 104.33L765.108 103.046L767.126 101.579L769.143 100.112L770.977 98.461L772.811 96.8105L774.37 95.0683L775.928 93.3261L777.396 91.4004L778.679 89.4748L779.78 87.4575L780.88 85.3485L781.797 83.2395L782.622 81.1305L786.015 69.1183L785.19 71.2273L784.273 73.3363L783.172 75.4453L781.98 77.4626L780.697 79.3882L779.321 81.2222L777.762 83.0561L776.112 84.7983L774.37 86.4488L772.536 88.0077L770.518 89.5665L768.501 90.942L766.3 92.3174L764.008 93.5094L761.624 94.6098L759.148 95.7102L756.581 96.6271L753.83 97.4524L751.079 98.0943L748.236 98.7361L745.394 99.1029L742.551 99.4697L739.708 99.6531L736.866 99.7448L734.023 99.6531L731.181 99.4697L728.338 99.1946L725.495 98.8278L722.653 98.2776L719.902 97.6358L717.059 96.9022L714.4 96.0769L711.649 95.16L709.082 94.1513L706.423 92.9593L703.947 91.7672L701.471 90.3918L698.995 88.9246L696.703 87.4575L694.41 85.807L692.21 84.1564L690.101 82.4142L687.992 80.4886L686.066 78.563L684.232 76.5456L682.49 74.4366L680.839 72.3276L679.281 70.1269L677.905 67.7428L676.621 65.4504L675.429 62.9746L674.421 60.4988L673.504 58.023L672.77 55.6389L672.22 53.1631L671.761 50.6873L671.486 48.3032L671.395 45.9191V43.535L671.486 41.1509L671.761 38.8585L672.22 36.5661L672.678 34.2737Z" fill="#FFD731" stroke="black" stroke-width="1.58483" stroke-linejoin="bevel"/>
<path fill-rule="evenodd" clip-rule="evenodd" d="M672.679 34.2737C670.936 40.6924 668.919 46.6527 668.094 53.1631C667.452 64.35 670.111 72.6027 675.98 82.1391C688.725 100.753 709.357 111.299 733.473 111.757C754.838 111.207 773.269 102.679 781.797 83.2395L782.622 81.1305L786.015 69.1183L785.19 71.2273C776.204 91.5838 756.305 100.112 734.023 99.6531C716.601 98.6444 702.755 93.051 690.101 82.4142C681.298 74.3449 676.071 66.7341 672.77 55.6389C671.303 49.4953 671.028 45.0938 671.762 38.8585L672.22 36.5661L672.679 34.2737Z" fill="#FFD731" stroke="black" stroke-width="1.58483" stroke-linejoin="bevel"/>
<path fill-rule="evenodd" clip-rule="evenodd" d="M740.625 111.298C758.414 109.006 774.461 100.111 781.797 83.2391L782.622 81.1301L786.015 69.1179L785.19 71.2269C777.671 88.4658 762.174 97.177 744.11 99.1943L740.625 111.298Z" fill="black" stroke="black" stroke-width="1.58483" stroke-linejoin="bevel"/>
<path fill-rule="evenodd" clip-rule="evenodd" d="M708.257 3.0055C678.272 9.88272 663.6 36.7497 675.429 62.9748C687.258 89.2 721.094 104.972 751.079 98.0945C781.063 91.309 795.735 64.442 783.906 38.1252C772.077 11.9 738.241 -3.87172 708.257 3.0055Z" fill="#FFD731" stroke="black" stroke-width="1.58483"/>
<path d="M762.724 34.6411C769.968 52.2468 759.882 69.8525 739.892 74.4373C719.535 79.1138 696.52 68.3853 688.45 50.5046" stroke="black" stroke-width="1.58483"/>
<path fill-rule="evenodd" clip-rule="evenodd" d="M708.624 28.9554C716.326 27.1214 725.129 31.2478 728.155 38.0333C731.181 44.8188 727.421 51.696 719.719 53.53C711.925 55.2722 703.122 51.2375 700.096 44.452C697.07 37.6665 700.829 30.6976 708.624 28.9554Z" fill="white" stroke="black" stroke-width="1.58483"/>
<path fill-rule="evenodd" clip-rule="evenodd" d="M739.892 48.8532C747.686 47.111 751.446 40.1421 748.42 33.3566C745.302 26.5711 736.591 22.5364 728.797 24.2787C721.094 26.0209 717.243 32.9898 720.36 39.7753C723.386 46.5608 732.189 50.5955 739.892 48.8532Z" fill="white" stroke="black" stroke-width="1.58483"/>
<path fill-rule="evenodd" clip-rule="evenodd" d="M734.482 24.9207C738.7 24.0037 744.293 27.855 746.861 33.7235C749.52 39.5004 748.144 45.0022 743.926 46.0108C739.708 46.9278 734.207 43.0766 731.547 37.208C728.98 31.4311 730.264 25.9294 734.482 24.9207Z" fill="black" stroke="black" stroke-width="1.58483"/>
<path fill-rule="evenodd" clip-rule="evenodd" d="M722.745 50.8703C726.963 49.8616 728.246 44.3598 725.587 38.583C723.02 32.8061 717.426 28.8632 713.208 29.7801C708.99 30.7888 707.706 36.2906 710.274 42.0674C712.933 47.936 718.435 51.7872 722.745 50.8703Z" fill="black" stroke="black" stroke-width="1.58483"/>
<path fill-rule="evenodd" clip-rule="evenodd" d="M-13.0735 120.983L18.9877 94.1187C24.1845 89.7147 31.5832 90.8597 35.3707 96.673L60.2974 134.988C63.9968 140.713 62.8517 149.081 57.5669 153.485L25.5057 180.349C20.2208 184.753 12.9102 183.608 9.12272 177.795L-15.804 139.48C-19.5915 133.755 -18.3584 125.387 -13.0735 120.983Z" fill="#F7F7F7" stroke="black" stroke-width="1.52234"/>
<path fill-rule="evenodd" clip-rule="evenodd" d="M-12.1047 123.714L37.4845 93.3261C43.7382 89.5386 51.9297 91.3883 55.8052 97.5539L79.3227 135.164C83.1982 141.33 81.2605 149.521 75.0948 153.309L25.5056 183.697C19.2519 187.484 11.0604 185.546 7.18486 179.381L-16.4207 141.77C-20.2962 135.605 -18.3584 127.501 -12.1047 123.714Z" fill="#55DB9C" stroke="black" stroke-width="1.52234"/>
<path fill-rule="evenodd" clip-rule="evenodd" d="M97.4673 151.812L93.2394 166.697L93.0632 167.314C91.654 170.837 89.3639 173.039 85.8407 174.625L85.2241 174.977L19.0757 200.52L18.3711 200.784C11.2366 202.898 4.19015 200.52 0.314611 195.059L-0.0377102 194.531L-0.301952 193.914L-20.7366 154.542L-21.0008 153.926C-21.9697 151.548 -22.234 149.698 -21.7936 147.055L-21.7055 146.439L-17.4776 131.553C-16.5087 127.766 -13.6021 124.419 -9.19807 122.745L56.8622 97.1139C64.1729 94.2953 72.9809 97.29 76.328 103.72L96.6745 143.18C98.1719 145.998 98.3481 148.993 97.4673 151.812Z" fill="#5C4ADE"/>
<path d="M93.1513 157.977C93.7679 157.449 94.3844 156.832 95.001 156.216M97.4673 151.812L93.2394 166.697L93.0632 167.314C91.654 170.837 89.3639 173.039 85.8406 174.625L85.2241 174.977L19.0757 200.52L18.3711 200.784C11.2366 202.898 4.19015 200.52 0.314611 195.059L-0.0377105 194.531L-0.301952 193.914L-20.7366 154.542L-21.0008 153.926C-21.9697 151.548 -22.234 149.698 -21.7936 147.055L-21.7055 146.439L-17.4776 131.553C-16.5087 127.766 -13.6021 124.419 -9.19807 122.745L56.8622 97.1139C64.1729 94.2953 72.9809 97.29 76.328 103.72L96.6745 143.18C98.1719 145.998 98.3481 148.993 97.4673 151.812Z" stroke="black" stroke-width="1.52234" stroke-linejoin="bevel"/>
<path fill-rule="evenodd" clip-rule="evenodd" d="M69.8101 119.838L80.9082 115.522C82.7579 114.817 85.1361 115.698 86.0169 117.46L89.5401 124.242C90.509 126.092 89.7163 128.118 87.8666 128.91L76.7684 133.138C73.3333 134.459 69.1935 132.874 67.52 129.703L66.7273 128.029C65.0538 124.859 66.463 121.159 69.8101 119.838Z" fill="#5C4ADE" stroke="black" stroke-width="1.52234"/>
<path fill-rule="evenodd" clip-rule="evenodd" d="M97.4674 151.812L93.2395 166.697L93.0634 167.314C91.6541 170.837 89.364 173.039 85.8408 174.624L85.2242 174.977L19.1639 200.432C10.6201 198.67 14.0553 188.453 22.5991 185.811L23.3037 185.634L89.4521 160.003C92.9753 158.594 95.4415 156.48 97.027 152.957L97.2912 152.34L97.4674 151.812Z" fill="black" stroke="black" stroke-width="1.52234" stroke-linejoin="bevel"/>
<path d="M-14.9232 141.771L4.45443 179.293C6.12796 182.464 7.71341 184.137 10.532 185.37" stroke="black" stroke-width="1.52234"/>
<path fill-rule="evenodd" clip-rule="evenodd" d="M12.6686 524.828L11.7634 523.395C8.59539 517.135 8.14281 511.93 8.82167 505.066C9.6514 498.956 11.2354 492.846 12.5177 486.812L12.216 488.471C11.0845 496.693 11.6126 503.105 15.8366 509.969L16.0629 510.346L16.3646 510.723C18.9292 514.495 21.4938 518.115 24.2092 521.811L24.5109 522.188L24.8127 522.565L21.6446 537.425L21.3429 537.048L21.0412 536.671L20.7395 536.218C18.4766 533.126 16.2137 529.957 13.9509 526.714L13.7246 526.337L13.4229 525.96L13.1966 525.583L12.8948 525.205L12.6686 524.828Z" fill="white" stroke="black" stroke-width="1.30368" stroke-linejoin="bevel"/>
<path fill-rule="evenodd" clip-rule="evenodd" d="M107.634 549.644L104.541 564.503L104.315 565.257L104.013 565.861C102.354 568.124 100.393 567.143 98.6578 565.559L98.0544 564.956L97.0738 563.749C91.492 557.488 85.9103 552.736 78.2919 549.342L77.7639 549.116L77.3114 548.965L76.9342 548.738L76.5571 548.588L76.1799 548.437L75.8782 548.361L75.6519 548.21L78.7445 533.351L79.0462 533.502L79.3479 533.577L79.7251 533.728L80.1022 533.879C88.4749 537.349 94.2075 542.025 100.166 548.889L101.147 550.096C102.882 551.906 105.296 553.566 107.181 551.001L107.483 550.398L107.634 549.644Z" fill="#FB4903" stroke="black" stroke-width="1.30368" stroke-linejoin="bevel"/>
<path fill-rule="evenodd" clip-rule="evenodd" d="M107.634 549.644L104.541 564.503C103.712 567.143 102.278 567.747 99.8647 566.54H99.7893L102.656 551.454C104.315 552.585 105.899 552.736 107.181 551.001L107.483 550.398L107.634 549.644Z" fill="black" stroke="black" stroke-width="1.30368" stroke-linejoin="bevel"/>
<path fill-rule="evenodd" clip-rule="evenodd" d="M78.7446 533.351L75.652 548.21H75.5765H75.5011L75.3503 548.286L75.124 548.361C71.9559 549.342 68.5616 551.152 67.4302 554.471L67.3548 554.999C69.3159 545.57 68.3353 536.745 77.9903 533.577L78.292 533.502L78.4429 533.426L78.6691 533.351H78.7446Z" fill="black" stroke="black" stroke-width="1.30368" stroke-linejoin="bevel"/>
<path fill-rule="evenodd" clip-rule="evenodd" d="M77.3869 557.262L74.2943 572.122C73.54 574.762 72.5595 576.421 70.6737 578.382L73.7663 563.523C75.5012 561.788 76.4818 560.279 77.2361 557.941L77.3869 557.262Z" fill="black" stroke="black" stroke-width="1.30368" stroke-linejoin="bevel"/>
<path fill-rule="evenodd" clip-rule="evenodd" d="M73.7661 563.523L70.6735 578.382H70.5227H70.3718H70.0701C62.9798 577.628 55.5123 573.63 54.4563 565.936V564.805L54.5317 563.674L57.6243 548.814V549.945C57.926 558.393 65.5444 562.467 72.9364 563.447L73.2381 563.523H73.5398H73.6907H73.7661Z" fill="#E9CCFF" stroke="black" stroke-width="1.30368" stroke-linejoin="bevel"/>
<path fill-rule="evenodd" clip-rule="evenodd" d="M57.6244 548.814L54.5318 563.673V563.598V563.522H54.4564V563.447V563.371H54.3809V563.296L54.3055 563.221L53.9284 562.768C50.006 557.79 44.4997 558.318 38.9934 559.977L38.4654 560.128L41.6334 545.268C47.4414 543.458 53.4758 542.779 57.4735 548.361L57.549 548.437V548.512H57.6244V548.587V548.663V548.738V548.814Z" fill="black" stroke="black" stroke-width="1.30368" stroke-linejoin="bevel"/>
<path fill-rule="evenodd" clip-rule="evenodd" d="M41.6333 545.269L38.4653 560.129L38.3898 560.355L38.3144 560.657L38.1635 560.958L38.0881 561.26L37.9372 561.562L37.7864 561.939L37.711 562.391L37.5601 562.769L37.4092 563.221L37.2584 563.749L37.1075 564.277L37.0321 564.805L36.8812 565.409L40.0493 550.549L40.1247 549.946L40.2756 549.418L40.4264 548.89L40.5773 548.362L40.7281 547.909L40.8036 547.456L40.9544 547.079L41.1053 546.702L41.2561 546.4L41.3316 546.099L41.407 545.797L41.5578 545.495L41.6333 545.269Z" fill="white" stroke="black" stroke-width="1.30368" stroke-linejoin="bevel"/>
<path fill-rule="evenodd" clip-rule="evenodd" d="M42.2367 571.216L39.1441 586.076L38.9932 586.604L38.7669 587.056L38.4652 587.434L38.0126 587.735C35.5235 588.64 32.9589 586.679 31.0731 585.171C23.5302 578.608 13.649 566.012 13.649 556.885V556.206L13.7244 555.452L13.8753 554.773L13.9507 554.094L17.1187 539.159L16.9679 539.913L16.8924 540.592L16.817 541.346V542.025V542.78V543.534L16.8924 544.288L17.0433 545.118L17.1187 545.948L17.2696 546.551L17.4959 547.23L17.7222 547.909C20.4376 554.999 26.9245 563.296 32.3554 568.652L33.0343 569.255L33.6377 569.783C35.5235 571.443 38.0126 573.404 40.7281 573.027L41.1806 572.876L41.6332 572.574L41.9349 572.197L42.1612 571.744L42.2367 571.216Z" fill="#FB4903" stroke="black" stroke-width="1.30368" stroke-linejoin="bevel"/>
<path fill-rule="evenodd" clip-rule="evenodd" d="M42.2369 571.216L39.1443 586.076L38.9934 586.604C37.9374 588.791 35.8254 587.886 34.0151 587.358L37.0323 572.272H37.1077L37.9374 572.725C39.446 573.177 40.8037 573.555 41.9352 572.197L42.1614 571.744L42.2369 571.216Z" fill="black" stroke="black" stroke-width="1.30368" stroke-linejoin="bevel"/>
<path fill-rule="evenodd" clip-rule="evenodd" d="M15.8366 510.119C5.50284 494.505 17.4961 469.387 21.2675 468.105C25.4161 466.823 55.8141 477.609 63.4324 495.26L78.7446 533.502L41.6334 545.42C40.1248 542.78 25.3407 524.074 15.8366 510.119Z" fill="white" stroke="black" stroke-width="1.30368"/>
<path fill-rule="evenodd" clip-rule="evenodd" d="M11.9143 491.11C13.0457 479.494 18.8537 468.934 21.2675 468.104C23.9829 467.275 37.5602 471.423 48.8745 479.268C35.5236 479.57 22.8515 481.757 11.9143 491.11Z" fill="#FB4903" stroke="black" stroke-width="1.30368"/>
<path fill-rule="evenodd" clip-rule="evenodd" d="M34.8447 494.127C41.6333 492.015 49.1762 494.052 51.8162 498.728C54.4563 503.405 51.1374 508.911 44.4242 511.099C37.711 513.211 30.0926 511.174 27.4526 506.498C24.8126 501.821 28.1315 496.315 34.8447 494.127Z" fill="#F7F7F7" stroke="black" stroke-width="1.30368"/>
<path fill-rule="evenodd" clip-rule="evenodd" d="M36.0517 493.976C41.1054 492.317 46.838 493.825 48.7992 497.37C50.8358 500.916 48.3466 505.064 43.2174 506.724C38.1637 508.383 32.4311 506.799 30.4699 503.254C28.5088 499.784 30.9979 495.56 36.0517 493.976Z" fill="#4DA2FF" stroke="black" stroke-width="1.30368"/>
<path fill-rule="evenodd" clip-rule="evenodd" d="M41.6333 545.42L24.5109 522.791C20.4377 532.069 15.384 537.273 17.1943 546.023C18.4766 552.585 27.8298 564.956 34.2413 570.462C39.6722 575.063 43.4436 573.479 42.0105 569.18C37.1076 554.471 40.9545 547.758 41.6333 545.42Z" fill="#FB4903" stroke="black" stroke-width="1.30368"/>
<path fill-rule="evenodd" clip-rule="evenodd" d="M78.7444 533.503L69.0895 508.46C80.7056 512.684 89.2291 513.589 96.3194 520.604C101.75 525.884 107.03 539.537 107.785 546.854C108.388 553.039 104.315 553.944 101.222 550.173C90.5114 537.274 81.5353 534.785 78.7444 533.503Z" fill="#FB4903" stroke="black" stroke-width="1.30368"/>
<path fill-rule="evenodd" clip-rule="evenodd" d="M61.3958 539.084L59.3592 539.687L45.5557 544.137C51.5146 543.609 55.2106 545.193 57.4735 548.512C57.5489 548.588 57.6244 548.739 57.6998 548.814C62.301 547.305 66.6758 545.872 71.277 544.439C71.277 544.439 71.2016 544.288 71.1262 544.137C69.4667 540.592 70.5982 537.5 75.1993 534.633L61.3958 539.084Z" fill="#CCCCCC" stroke="black" stroke-width="1.30368"/>
<path fill-rule="evenodd" clip-rule="evenodd" d="M71.3526 544.515L57.6245 548.89C56.5685 561.713 73.3137 563.825 73.8417 563.599C77.6886 559.903 81.4601 550.248 71.3526 544.515Z" fill="#E9CCFF" stroke="black" stroke-width="1.30368"/>
<path fill-rule="evenodd" clip-rule="evenodd" d="M68.4862 545.344L60.6416 547.908C59.9627 555.225 69.6177 556.507 69.9194 556.356C72.1823 554.244 74.3697 548.662 68.4862 545.344Z" fill="#FFD731" stroke="black" stroke-width="1.30368"/>
<path fill-rule="evenodd" clip-rule="evenodd" d="M8.82177 514.041C9.12349 512.683 8.29377 502.5 12.6687 504.009C13.3475 504.235 12.8949 504.311 12.6687 501.897C12.5178 500.69 11.5372 493.675 11.6127 493.072C10.8584 493.223 8.74635 503.707 8.74635 505.518C8.74635 506.951 8.97263 513.513 8.82177 514.041Z" fill="black"/>
<path d="M14.1016 507.026L11.009 521.509" stroke="black" stroke-width="1.30368"/>
<path fill-rule="evenodd" clip-rule="evenodd" d="M743.154 538.261L737.905 541.578C737.038 542.104 736.373 542.41 735.398 542.737L734.988 542.869L681.029 555.297L680.566 555.381C675.773 556.08 671.731 553.519 670.487 548.952L670.424 548.491L662.781 506.877L662.669 506.471C662.33 503.03 663.604 500.044 666.395 497.728L666.7 497.499L671.896 494.135L671.591 494.363L671.236 494.646C668.652 496.948 667.528 499.768 667.865 503.107L667.927 503.568L675.621 545.126L675.683 545.587C676.927 550.154 680.969 552.715 685.712 552.072L686.226 551.932C698.365 549.114 733.655 543.376 742.746 538.497L743.154 538.261Z" fill="black" stroke="black" stroke-width="1.25734" stroke-linejoin="bevel"/>
<path fill-rule="evenodd" clip-rule="evenodd" d="M743.154 538.631L737.95 541.919C737.09 542.441 736.431 542.744 735.464 543.068L735.057 543.199L681.559 555.521L681.1 555.604C678.75 555.974 676.638 555.559 674.921 554.5L679.604 550.838C681.378 552.149 683.697 552.653 686.202 552.323L686.711 552.185C698.746 549.391 733.736 543.702 742.749 538.864L743.154 538.631Z" fill="black" stroke="black" stroke-width="1.25734" stroke-linejoin="bevel"/>
<path fill-rule="evenodd" clip-rule="evenodd" d="M674.981 493.17L728.765 480.8C733.627 479.687 738.379 482.697 739.213 487.577L746.867 528.919C747.751 533.745 744.471 538.709 739.61 539.822L685.928 552.185C680.964 553.306 676.262 550.24 675.377 545.415L667.724 504.073C666.889 499.192 670.119 494.283 674.981 493.17Z" fill="#4DA2FF" stroke="black" stroke-width="1.25734"/>
<path fill-rule="evenodd" clip-rule="evenodd" d="M681.39 513.17L692.393 510.595C694.696 510.073 696.942 511.51 697.355 513.797L699.004 522.737C699.417 525.023 697.876 527.344 695.573 527.866L684.57 530.441C682.266 530.964 680.02 529.527 679.607 527.24L677.959 518.3C677.545 516.014 679.086 513.693 681.39 513.17Z" fill="#FFD731" stroke="black" stroke-width="1.25734"/>
<path d="M678.741 518.943L697.002 514.787" stroke="black" stroke-width="1.25734"/>
<path d="M698.505 521.565L680.141 525.728" stroke="black" stroke-width="1.25734"/>
<path d="M686.973 512.178L690.106 529.162" stroke="black" stroke-width="1.25734"/>
<path fill-rule="evenodd" clip-rule="evenodd" d="M687.398 515.1C688.578 514.863 689.833 515.599 690.068 516.82L691.138 522.933C691.373 524.154 690.575 525.344 689.345 525.637C688.114 525.93 686.962 525.186 686.728 523.965L685.605 517.805C685.423 516.631 686.167 515.393 687.398 515.1Z" fill="#FFD731" stroke="black" stroke-width="1.25734"/>
<path fill-rule="evenodd" clip-rule="evenodd" d="M763.74 583.453L758.595 587.182L758.186 587.418C755.735 588.938 753.353 589.001 750.844 588.038L695.724 565.797L695.305 565.62L694.887 565.442C690.845 563.187 688.824 558.718 689.805 554.141L689.949 553.665L702.041 512.402L702.185 511.925L702.382 511.497C702.921 510.164 703.522 509.293 704.588 508.337L704.944 508.053L710.089 504.324L709.733 504.608L709.427 504.836L709.124 505.169C708.167 506.324 707.619 507.243 707.186 508.673L695.095 549.935L695.001 550.356C693.972 555.092 696.101 559.761 700.45 561.89L700.922 562.116L755.989 584.309L756.408 584.486C758.652 585.21 760.724 585.168 763.026 583.918L763.384 583.737L763.74 583.453Z" fill="black" stroke="black" stroke-width="1.25734" stroke-linejoin="bevel"/>
<path fill-rule="evenodd" clip-rule="evenodd" d="M764.2 583.396L759.044 587.134L758.634 587.37C756.433 588.72 754.413 588.913 752.166 588.292L751.696 588.17L751.276 587.991L696.035 565.699C695.616 565.521 695.196 565.343 694.827 565.109C693.195 564.133 692.289 563.106 691.266 561.568C691.049 561.168 690.885 560.816 690.666 560.312C690.883 560.712 695.764 556.319 695.875 556.622C696.589 558.286 697.445 559.368 698.824 560.622C699.617 561.241 700.249 561.612 701.245 562.01L756.433 584.253C758.841 585.123 761.074 585.122 763.484 583.862L763.843 583.681L764.2 583.396Z" fill="black" stroke="black" stroke-width="1.25734" stroke-linejoin="bevel"/>
<path fill-rule="evenodd" clip-rule="evenodd" d="M717.881 503.757L772.745 525.865C777.33 527.71 779.986 533.15 778.551 537.999L766.504 579.104C765.069 583.953 760.17 586.362 755.585 584.516L700.721 562.409C696.136 560.563 693.531 555.069 694.915 550.275L706.962 509.17C708.397 504.32 713.296 501.912 717.881 503.757Z" fill="#5C4ADE" stroke="black" stroke-width="1.25734"/>
<path fill-rule="evenodd" clip-rule="evenodd" d="M714.265 525.213L725.985 530.012C728.119 530.842 729.262 533.393 728.644 535.655L726.013 544.56C725.292 546.829 723.1 547.963 720.965 547.133L709.195 542.389C707.164 541.552 705.918 539.008 706.639 536.739L709.217 527.787C709.888 525.573 712.13 524.383 714.265 525.213Z" fill="#FFD731" stroke="black" stroke-width="1.25734"/>
<path d="M709.495 528.999L727.987 536.445" stroke="black" stroke-width="1.25734"/>
<path d="M726.239 543.117L707.645 535.679" stroke="black" stroke-width="1.25734"/>
<path d="M720.034 528.035L715.161 544.674" stroke="black" stroke-width="1.25734"/>
<path fill-rule="evenodd" clip-rule="evenodd" d="M719.078 530.834C720.27 531.315 720.971 532.754 720.592 534.115L718.926 539.724C718.597 541.03 717.226 541.691 716.035 541.21C714.843 540.729 714.193 539.235 714.574 537.977L716.187 532.32C716.619 531.007 717.887 530.353 719.078 530.834Z" fill="#FFD731" stroke="black" stroke-width="1.25734"/>
</svg>
