<svg width="428" height="811" viewBox="0 0 428 811" fill="none" xmlns="http://www.w3.org/2000/svg">
<path fill-rule="evenodd" clip-rule="evenodd" d="M356.678 34.2738L353.377 46.286L352.827 48.5784L352.369 50.8708L352.094 53.1632L352.002 55.5473V57.9314L352.094 60.3155L352.369 62.7913L352.827 65.1754L353.377 67.6512L354.111 70.127L355.028 72.6028L356.037 74.9869L357.229 77.4627L358.512 79.8468L359.979 82.1392L361.447 84.3399L363.097 86.5407L364.839 88.558L366.673 90.5753L368.691 92.5926L370.708 94.4265L372.817 96.1688L375.018 97.911L377.31 99.4698L379.602 101.029L382.078 102.404L384.554 103.78L387.122 104.972L389.689 106.164L392.348 107.172L395.007 108.181L397.758 109.006L400.509 109.74L403.26 110.29L406.103 110.84L408.945 111.207L411.788 111.574L414.63 111.665L417.473 111.757L420.316 111.665L423.25 111.482L426.092 111.207L428.935 110.748L431.686 110.198L434.529 109.465L437.188 108.639L439.755 107.722L442.231 106.714L444.615 105.522L446.908 104.33L449.108 103.046L451.126 101.579L453.143 100.112L454.977 98.4612L456.811 96.8106L458.37 95.0684L459.928 93.3262L461.396 91.4006L462.679 89.4749L463.78 87.4576L464.88 85.3486L465.797 83.2396L466.622 81.1306L470.015 69.1184L469.19 71.2274L468.273 73.3364L467.172 75.4454L465.98 77.4627L464.697 79.3884L463.321 81.2223L461.762 83.0562L460.112 84.7984L458.37 86.449L456.536 88.0078L454.518 89.5666L452.501 90.9421L450.3 92.3175L448.008 93.5096L445.624 94.6099L443.148 95.7103L440.58 96.6272L437.83 97.4525L435.079 98.0944L432.236 98.7363L429.394 99.103L426.551 99.4698L423.708 99.6532L420.866 99.7449L418.023 99.6532L415.181 99.4698L412.338 99.1947L409.495 98.8279L406.653 98.2778L403.902 97.6359L401.059 96.9023L398.4 96.0771L395.649 95.1601L393.082 94.1514L390.423 92.9594L387.947 91.7673L385.471 90.3919L382.995 88.9248L380.703 87.4576L378.41 85.8071L376.21 84.1566L374.101 82.4143L371.992 80.4887L370.066 78.5631L368.232 76.5458L366.49 74.4368L364.839 72.3277L363.281 70.127L361.905 67.7429L360.621 65.4505L359.429 62.9747L358.421 60.4989L357.504 58.0231L356.77 55.639L356.22 53.1632L355.761 50.6874L355.486 48.3033L355.395 45.9192V43.5351L355.486 41.151L355.761 38.8586L356.22 36.5662L356.678 34.2738Z" fill="#FFD731" stroke="black" stroke-width="1.58483" stroke-linejoin="bevel"/>
<path fill-rule="evenodd" clip-rule="evenodd" d="M356.679 34.2738C354.936 40.6925 352.919 46.6528 352.094 53.1632C351.452 64.3502 354.111 72.6028 359.98 82.1392C372.725 100.754 393.357 111.299 417.473 111.757C438.838 111.207 457.269 102.679 465.797 83.2396L466.622 81.1306L470.015 69.1184L469.19 71.2274C460.204 91.584 440.305 100.112 418.023 99.6532C400.601 98.6446 386.755 93.0511 374.101 82.4143C365.298 74.3451 360.071 66.7343 356.77 55.639C355.303 49.4954 355.028 45.094 355.762 38.8586L356.22 36.5662L356.679 34.2738Z" fill="#FFD731" stroke="black" stroke-width="1.58483" stroke-linejoin="bevel"/>
<path fill-rule="evenodd" clip-rule="evenodd" d="M424.625 111.298C442.414 109.006 458.461 100.111 465.797 83.2393L466.622 81.1302L470.015 69.118L469.19 71.2271C461.671 88.4659 446.174 97.1771 428.11 99.1944L424.625 111.298Z" fill="black" stroke="black" stroke-width="1.58483" stroke-linejoin="bevel"/>
<path fill-rule="evenodd" clip-rule="evenodd" d="M392.257 3.00556C362.272 9.88278 347.6 36.7498 359.429 62.9749C371.258 89.2 405.094 104.972 435.079 98.0946C465.063 91.309 479.735 64.442 467.906 38.1252C456.077 11.9001 422.241 -3.87166 392.257 3.00556Z" fill="#FFD731" stroke="black" stroke-width="1.58483"/>
<path d="M446.724 34.6411C453.968 52.2468 443.882 69.8525 423.892 74.4373C403.535 79.1138 380.52 68.3853 372.45 50.5046" stroke="black" stroke-width="1.58483"/>
<path fill-rule="evenodd" clip-rule="evenodd" d="M392.624 28.9556C400.326 27.1217 409.129 31.248 412.155 38.0335C415.181 44.8191 411.421 51.6963 403.719 53.5302C395.925 55.2724 387.122 51.2378 384.096 44.4523C381.07 37.6667 384.829 30.6978 392.624 28.9556Z" fill="white" stroke="black" stroke-width="1.58483"/>
<path fill-rule="evenodd" clip-rule="evenodd" d="M423.892 48.8535C431.686 47.1113 435.445 40.1423 432.42 33.3568C429.302 26.5713 420.591 22.5367 412.797 24.2789C405.094 26.0211 401.243 32.99 404.36 39.7756C407.386 46.5611 416.189 50.5957 423.892 48.8535Z" fill="white" stroke="black" stroke-width="1.58483"/>
<path fill-rule="evenodd" clip-rule="evenodd" d="M418.482 24.9208C422.7 24.0039 428.293 27.8551 430.861 33.7237C433.52 39.5005 432.144 45.0023 427.926 46.011C423.708 46.9279 418.207 43.0767 415.547 37.2081C412.98 31.4313 414.264 25.9295 418.482 24.9208Z" fill="black" stroke="black" stroke-width="1.58483"/>
<path fill-rule="evenodd" clip-rule="evenodd" d="M406.745 50.8704C410.963 49.8617 412.246 44.3599 409.587 38.5831C407.02 32.8062 401.426 28.8633 397.208 29.7802C392.99 30.7889 391.706 36.2907 394.274 42.0675C396.933 47.9361 402.435 51.7873 406.745 50.8704Z" fill="black" stroke="black" stroke-width="1.58483"/>
<path fill-rule="evenodd" clip-rule="evenodd" d="M-13.0735 120.983L18.9877 94.1186C24.1845 89.7146 31.5832 90.8596 35.3707 96.6729L60.2974 134.988C63.9968 140.713 62.8517 149.081 57.5669 153.485L25.5057 180.349C20.2208 184.753 12.9102 183.608 9.12272 177.795L-15.804 139.48C-19.5915 133.755 -18.3584 125.387 -13.0735 120.983Z" fill="#F7F7F7" stroke="black" stroke-width="1.52234"/>
<path fill-rule="evenodd" clip-rule="evenodd" d="M-12.1047 123.714L37.4845 93.3261C43.7382 89.5386 51.9297 91.3883 55.8052 97.5539L79.3227 135.164C83.1982 141.33 81.2605 149.521 75.0948 153.309L25.5056 183.697C19.2519 187.484 11.0604 185.546 7.18486 179.381L-16.4207 141.77C-20.2962 135.605 -18.3584 127.501 -12.1047 123.714Z" fill="#55DB9C" stroke="black" stroke-width="1.52234"/>
<path fill-rule="evenodd" clip-rule="evenodd" d="M97.4673 151.812L93.2394 166.697L93.0632 167.314C91.654 170.837 89.3639 173.039 85.8407 174.624L85.2241 174.977L19.0757 200.52L18.3711 200.784C11.2366 202.898 4.19015 200.52 0.314611 195.059L-0.0377102 194.531L-0.301952 193.914L-20.7366 154.542L-21.0008 153.926C-21.9697 151.547 -22.234 149.698 -21.7936 147.055L-21.7055 146.439L-17.4776 131.553C-16.5087 127.766 -13.6021 124.419 -9.19807 122.745L56.8622 97.1137C64.1729 94.2952 72.9809 97.2899 76.328 103.72L96.6745 143.18C98.1719 145.998 98.3481 148.993 97.4673 151.812Z" fill="#5C4ADE"/>
<path d="M93.1513 157.977C93.7679 157.449 94.3844 156.832 95.001 156.216M97.4673 151.812L93.2394 166.697L93.0632 167.314C91.654 170.837 89.3639 173.039 85.8406 174.624L85.2241 174.977L19.0757 200.52L18.3711 200.784C11.2366 202.898 4.19015 200.52 0.314611 195.059L-0.0377105 194.531L-0.301952 193.914L-20.7366 154.542L-21.0008 153.926C-21.9697 151.547 -22.234 149.698 -21.7936 147.055L-21.7055 146.439L-17.4776 131.553C-16.5087 127.766 -13.6021 124.419 -9.19807 122.745L56.8622 97.1137C64.1729 94.2952 72.9809 97.2899 76.328 103.72L96.6745 143.18C98.1719 145.998 98.3481 148.993 97.4673 151.812Z" stroke="black" stroke-width="1.52234" stroke-linejoin="bevel"/>
<path fill-rule="evenodd" clip-rule="evenodd" d="M69.8101 119.838L80.9082 115.522C82.7579 114.818 85.1361 115.698 86.0169 117.46L89.5401 124.242C90.509 126.092 89.7163 128.118 87.8666 128.91L76.7684 133.138C73.3333 134.459 69.1935 132.874 67.52 129.703L66.7273 128.03C65.0538 124.859 66.463 121.159 69.8101 119.838Z" fill="#5C4ADE" stroke="black" stroke-width="1.52234"/>
<path fill-rule="evenodd" clip-rule="evenodd" d="M97.4674 151.811L93.2395 166.697L93.0634 167.314C91.6541 170.837 89.364 173.039 85.8408 174.624L85.2242 174.977L19.1639 200.432C10.6201 198.67 14.0553 188.453 22.5991 185.81L23.3037 185.634L89.4521 160.003C92.9753 158.594 95.4415 156.48 97.027 152.956L97.2912 152.34L97.4674 151.811Z" fill="black" stroke="black" stroke-width="1.52234" stroke-linejoin="bevel"/>
<path d="M-14.9232 141.771L4.45443 179.293C6.12796 182.464 7.71341 184.137 10.532 185.37" stroke="black" stroke-width="1.52234"/>
<path fill-rule="evenodd" clip-rule="evenodd" d="M12.6686 524.828L11.7634 523.395C8.59539 517.134 8.14281 511.93 8.82167 505.066C9.6514 498.956 11.2354 492.846 12.5177 486.812L12.216 488.471C11.0845 496.693 11.6126 503.105 15.8366 509.969L16.0629 510.346L16.3646 510.723C18.9292 514.494 21.4938 518.115 24.2092 521.811L24.5109 522.188L24.8127 522.565L21.6446 537.425L21.3429 537.048L21.0412 536.671L20.7395 536.218C18.4766 533.125 16.2137 529.957 13.9509 526.714L13.7246 526.337L13.4229 525.96L13.1966 525.582L12.8948 525.205L12.6686 524.828Z" fill="white" stroke="black" stroke-width="1.30368" stroke-linejoin="bevel"/>
<path fill-rule="evenodd" clip-rule="evenodd" d="M107.634 549.643L104.541 564.503L104.315 565.257L104.013 565.861C102.354 568.124 100.393 567.143 98.6578 565.559L98.0544 564.956L97.0738 563.749C91.492 557.488 85.9103 552.736 78.2919 549.342L77.7639 549.115L77.3114 548.965L76.9342 548.738L76.5571 548.587L76.1799 548.437L75.8782 548.361L75.6519 548.21L78.7445 533.351L79.0462 533.502L79.3479 533.577L79.7251 533.728L80.1022 533.879C88.4749 537.348 94.2075 542.025 100.166 548.889L101.147 550.096C102.882 551.906 105.296 553.566 107.181 551.001L107.483 550.398L107.634 549.643Z" fill="#FB4903" stroke="black" stroke-width="1.30368" stroke-linejoin="bevel"/>
<path fill-rule="evenodd" clip-rule="evenodd" d="M107.634 549.643L104.541 564.503C103.712 567.143 102.278 567.746 99.8647 566.54H99.7893L102.656 551.454C104.315 552.585 105.899 552.736 107.181 551.001L107.483 550.398L107.634 549.643Z" fill="black" stroke="black" stroke-width="1.30368" stroke-linejoin="bevel"/>
<path fill-rule="evenodd" clip-rule="evenodd" d="M78.7446 533.351L75.652 548.21H75.5765H75.5011L75.3503 548.286L75.124 548.361C71.9559 549.342 68.5616 551.152 67.4302 554.471L67.3548 554.999C69.3159 545.57 68.3353 536.745 77.9903 533.577L78.292 533.502L78.4429 533.426L78.6691 533.351H78.7446Z" fill="black" stroke="black" stroke-width="1.30368" stroke-linejoin="bevel"/>
<path fill-rule="evenodd" clip-rule="evenodd" d="M77.3869 557.262L74.2943 572.122C73.54 574.762 72.5595 576.421 70.6737 578.382L73.7663 563.523C75.5012 561.788 76.4818 560.279 77.2361 557.941L77.3869 557.262Z" fill="black" stroke="black" stroke-width="1.30368" stroke-linejoin="bevel"/>
<path fill-rule="evenodd" clip-rule="evenodd" d="M73.7661 563.523L70.6735 578.382H70.5227H70.3718H70.0701C62.9798 577.628 55.5123 573.63 54.4563 565.936V564.805L54.5317 563.674L57.6243 548.814V549.945C57.926 558.393 65.5444 562.467 72.9364 563.447L73.2381 563.523H73.5398H73.6907H73.7661Z" fill="#E9CCFF" stroke="black" stroke-width="1.30368" stroke-linejoin="bevel"/>
<path fill-rule="evenodd" clip-rule="evenodd" d="M57.6244 548.814L54.5318 563.673V563.598V563.522H54.4564V563.447V563.371H54.3809V563.296L54.3055 563.221L53.9284 562.768C50.006 557.79 44.4997 558.318 38.9934 559.977L38.4654 560.128L41.6334 545.268C47.4414 543.458 53.4758 542.779 57.4735 548.361L57.549 548.436V548.512H57.6244V548.587V548.663V548.738V548.814Z" fill="black" stroke="black" stroke-width="1.30368" stroke-linejoin="bevel"/>
<path fill-rule="evenodd" clip-rule="evenodd" d="M41.6333 545.269L38.4653 560.129L38.3898 560.355L38.3144 560.657L38.1635 560.958L38.0881 561.26L37.9372 561.562L37.7864 561.939L37.711 562.391L37.5601 562.769L37.4092 563.221L37.2584 563.749L37.1075 564.277L37.0321 564.805L36.8812 565.409L40.0493 550.549L40.1247 549.946L40.2756 549.418L40.4264 548.89L40.5773 548.362L40.7281 547.909L40.8036 547.456L40.9544 547.079L41.1053 546.702L41.2561 546.4L41.3316 546.099L41.407 545.797L41.5578 545.495L41.6333 545.269Z" fill="white" stroke="black" stroke-width="1.30368" stroke-linejoin="bevel"/>
<path fill-rule="evenodd" clip-rule="evenodd" d="M42.2367 571.216L39.1441 586.076L38.9932 586.604L38.7669 587.056L38.4652 587.433L38.0126 587.735C35.5235 588.64 32.9589 586.679 31.0731 585.171C23.5302 578.608 13.649 566.012 13.649 556.885V556.206L13.7244 555.452L13.8753 554.773L13.9507 554.094L17.1187 539.159L16.9679 539.913L16.8924 540.592L16.817 541.346V542.025V542.779V543.534L16.8924 544.288L17.0433 545.118L17.1187 545.947L17.2696 546.551L17.4959 547.23L17.7222 547.909C20.4376 554.999 26.9245 563.296 32.3554 568.652L33.0343 569.255L33.6377 569.783C35.5235 571.442 38.0126 573.404 40.7281 573.027L41.1806 572.876L41.6332 572.574L41.9349 572.197L42.1612 571.744L42.2367 571.216Z" fill="#FB4903" stroke="black" stroke-width="1.30368" stroke-linejoin="bevel"/>
<path fill-rule="evenodd" clip-rule="evenodd" d="M42.2369 571.216L39.1443 586.076L38.9934 586.604C37.9374 588.791 35.8254 587.886 34.0151 587.358L37.0323 572.272H37.1077L37.9374 572.725C39.446 573.177 40.8037 573.554 41.9352 572.197L42.1614 571.744L42.2369 571.216Z" fill="black" stroke="black" stroke-width="1.30368" stroke-linejoin="bevel"/>
<path fill-rule="evenodd" clip-rule="evenodd" d="M15.8366 510.119C5.50284 494.505 17.4961 469.387 21.2675 468.105C25.4161 466.823 55.8141 477.609 63.4324 495.26L78.7446 533.502L41.6334 545.42C40.1248 542.78 25.3407 524.074 15.8366 510.119Z" fill="white" stroke="black" stroke-width="1.30368"/>
<path fill-rule="evenodd" clip-rule="evenodd" d="M11.9143 491.11C13.0457 479.494 18.8537 468.934 21.2675 468.104C23.9829 467.275 37.5602 471.423 48.8745 479.268C35.5236 479.57 22.8515 481.757 11.9143 491.11Z" fill="#FB4903" stroke="black" stroke-width="1.30368"/>
<path fill-rule="evenodd" clip-rule="evenodd" d="M34.8447 494.127C41.6333 492.015 49.1762 494.052 51.8162 498.728C54.4563 503.405 51.1374 508.911 44.4242 511.099C37.711 513.211 30.0926 511.174 27.4526 506.497C24.8126 501.821 28.1315 496.314 34.8447 494.127Z" fill="#F7F7F7" stroke="black" stroke-width="1.30368"/>
<path fill-rule="evenodd" clip-rule="evenodd" d="M36.0517 493.976C41.1054 492.317 46.838 493.825 48.7992 497.37C50.8358 500.916 48.3466 505.064 43.2174 506.724C38.1637 508.383 32.4311 506.799 30.4699 503.254C28.5088 499.784 30.9979 495.56 36.0517 493.976Z" fill="#4DA2FF" stroke="black" stroke-width="1.30368"/>
<path fill-rule="evenodd" clip-rule="evenodd" d="M41.6333 545.419L24.5109 522.791C20.4377 532.068 15.384 537.273 17.1943 546.023C18.4766 552.585 27.8298 564.956 34.2413 570.462C39.6722 575.063 43.4436 573.479 42.0105 569.18C37.1076 554.471 40.9545 547.758 41.6333 545.419Z" fill="#FB4903" stroke="black" stroke-width="1.30368"/>
<path fill-rule="evenodd" clip-rule="evenodd" d="M78.7444 533.503L69.0895 508.46C80.7056 512.684 89.2291 513.589 96.3194 520.604C101.75 525.884 107.03 539.537 107.785 546.854C108.388 553.039 104.315 553.944 101.222 550.172C90.5114 537.274 81.5353 534.785 78.7444 533.503Z" fill="#FB4903" stroke="black" stroke-width="1.30368"/>
<path fill-rule="evenodd" clip-rule="evenodd" d="M61.3958 539.083L59.3592 539.687L45.5557 544.137C51.5146 543.609 55.2106 545.193 57.4735 548.512C57.5489 548.588 57.6244 548.738 57.6998 548.814C62.301 547.305 66.6758 545.872 71.277 544.439C71.277 544.439 71.2016 544.288 71.1262 544.137C69.4667 540.592 70.5982 537.499 75.1993 534.633L61.3958 539.083Z" fill="#CCCCCC" stroke="black" stroke-width="1.30368"/>
<path fill-rule="evenodd" clip-rule="evenodd" d="M71.3526 544.515L57.6245 548.89C56.5685 561.713 73.3137 563.825 73.8417 563.599C77.6886 559.903 81.4601 550.248 71.3526 544.515Z" fill="#E9CCFF" stroke="black" stroke-width="1.30368"/>
<path fill-rule="evenodd" clip-rule="evenodd" d="M68.4862 545.343L60.6416 547.908C59.9627 555.225 69.6177 556.507 69.9194 556.356C72.1823 554.244 74.3697 548.662 68.4862 545.343Z" fill="#FFD731" stroke="black" stroke-width="1.30368"/>
<path fill-rule="evenodd" clip-rule="evenodd" d="M8.82177 514.041C9.12349 512.683 8.29377 502.501 12.6687 504.009C13.3475 504.235 12.8949 504.311 12.6687 501.897C12.5178 500.69 11.5372 493.675 11.6127 493.072C10.8584 493.223 8.74635 503.707 8.74635 505.518C8.74635 506.951 8.97263 513.513 8.82177 514.041Z" fill="black"/>
<path d="M14.1016 507.026L11.009 521.508" stroke="black" stroke-width="1.30368"/>
<path fill-rule="evenodd" clip-rule="evenodd" d="M427.154 539.406L421.999 542.583C421.147 543.086 420.491 543.374 419.527 543.677L419.121 543.799L365.62 554.904L365.16 554.977C360.398 555.561 356.309 552.92 354.962 548.348L354.889 547.888L346.3 506.32L346.178 505.914C345.76 502.483 346.961 499.543 349.688 497.304L349.987 497.084L355.089 493.858L354.79 494.078L354.442 494.352C351.92 496.581 350.866 499.36 351.279 502.688L351.352 503.148L359.991 544.662L360.064 545.122C361.411 549.694 365.5 552.335 370.213 551.805L370.722 551.678C382.757 549.158 417.804 544.273 426.753 539.631L427.154 539.406Z" fill="black" stroke="black" stroke-width="1.25734" stroke-linejoin="bevel"/>
<path fill-rule="evenodd" clip-rule="evenodd" d="M427.154 539.406L421.998 542.583C421.147 543.086 420.491 543.374 419.526 543.677L419.12 543.799L365.62 554.904L365.16 554.977C362.806 555.294 360.672 554.827 358.921 553.725L363.544 550.161C365.358 551.518 367.702 552.077 370.212 551.805L370.721 551.679C382.757 549.158 417.803 544.273 426.752 539.631L427.154 539.406Z" fill="black" stroke="black" stroke-width="1.25734" stroke-linejoin="bevel"/>
<path fill-rule="evenodd" clip-rule="evenodd" d="M358.369 492.418L411.972 481.308C416.817 480.308 421.65 483.429 422.6 488.329L431.239 529.843C432.238 534.688 429.068 539.574 424.222 540.574L370.722 551.679C365.774 552.683 360.99 549.508 359.991 544.663L351.353 503.149C350.402 498.249 353.523 493.417 358.369 492.418Z" fill="#4DA2FF" stroke="black" stroke-width="1.25734"/>
<path fill-rule="evenodd" clip-rule="evenodd" d="M365.203 513.006L376.167 510.69C378.462 510.222 380.746 511.712 381.214 514.007L383.076 522.983C383.544 525.279 382.055 527.563 379.759 528.031L368.796 530.347C366.5 530.815 364.216 529.325 363.748 527.03L361.886 518.053C361.418 515.758 362.908 513.474 365.203 513.006Z" fill="#FFD731" stroke="black" stroke-width="1.25734"/>
<path d="M362.741 518.734L381.002 514.995" stroke="black" stroke-width="1.25734"/>
<path d="M382.505 521.774L364.141 525.518" stroke="black" stroke-width="1.25734"/>
<path d="M370.778 512.178L374.302 529.162" stroke="black" stroke-width="1.25734"/>
<path fill-rule="evenodd" clip-rule="evenodd" d="M371.274 515.09C372.449 514.881 373.72 515.645 373.984 516.869L375.197 522.991C375.461 524.215 374.691 525.384 373.468 525.647C372.244 525.91 371.075 525.141 370.812 523.918L369.545 517.746C369.335 516.571 370.051 515.353 371.274 515.09Z" fill="#FFD731" stroke="black" stroke-width="1.25734"/>
<path fill-rule="evenodd" clip-rule="evenodd" d="M448.2 584.15L443.167 587.733L442.765 587.958C440.361 589.409 437.993 589.417 435.473 588.402L380.101 565.04L379.681 564.854L379.26 564.668C375.186 562.335 373.07 557.851 373.94 553.33L374.072 552.86L385.145 512.174L385.277 511.705L385.463 511.284C385.968 509.973 386.547 509.122 387.585 508.198L387.932 507.924L392.966 504.341L392.618 504.615L392.319 504.835L392.026 505.157C391.1 506.282 390.576 507.182 390.178 508.591L379.106 549.277L379.022 549.693C378.108 554.371 380.336 559.056 384.714 561.271L385.189 561.506L440.507 584.819L440.927 585.005C443.178 585.775 445.238 585.782 447.5 584.595L447.852 584.424L448.2 584.15Z" fill="black" stroke="black" stroke-width="1.25734" stroke-linejoin="bevel"/>
<path fill-rule="evenodd" clip-rule="evenodd" d="M448.2 584.15L443.167 587.733L442.765 587.958C440.611 589.243 438.61 589.388 436.364 588.721L435.894 588.588L435.474 588.402L380.102 565.04C379.681 564.854 379.26 564.668 378.889 564.428C377.245 563.423 376.321 562.385 375.27 560.838C375.045 560.436 374.874 560.084 374.645 559.58C374.87 559.981 379.615 555.742 379.732 556.046C380.479 557.71 381.355 558.802 382.753 560.076C383.555 560.707 384.191 561.09 385.189 561.506L440.507 584.819C442.919 585.736 445.135 585.787 447.5 584.595L447.852 584.424L448.2 584.15Z" fill="black" stroke="black" stroke-width="1.25734" stroke-linejoin="bevel"/>
<path fill-rule="evenodd" clip-rule="evenodd" d="M400.959 503.453L456.277 526.766C460.899 528.712 463.68 534.195 462.359 538.995L451.287 579.681C449.967 584.48 445.13 586.767 440.508 584.82L385.19 561.507C380.567 559.561 377.836 554.024 379.107 549.279L390.179 508.592C391.499 503.793 396.336 501.506 400.959 503.453Z" fill="#5C4ADE" stroke="black" stroke-width="1.25734"/>
<path fill-rule="evenodd" clip-rule="evenodd" d="M398.01 525.167L409.833 530.227C411.986 531.105 413.188 533.675 412.623 535.916L410.203 544.732C409.536 546.977 407.372 548.057 405.22 547.18L393.347 542.174C391.297 541.291 389.993 538.726 390.66 536.48L393.026 527.615C393.644 525.423 395.857 524.29 398.01 525.167Z" fill="#FFD731" stroke="black" stroke-width="1.25734"/>
<path d="M393.495 528.829L411.987 536.615" stroke="black" stroke-width="1.25734"/>
<path d="M410.239 543.288L391.645 535.507" stroke="black" stroke-width="1.25734"/>
<path d="M403.86 528.035L399.335 544.674" stroke="black" stroke-width="1.25734"/>
<path fill-rule="evenodd" clip-rule="evenodd" d="M402.962 530.857C404.171 531.367 404.908 532.826 404.56 534.181L403.019 539.764C402.719 541.065 401.359 541.695 400.15 541.185C398.942 540.676 398.253 539.163 398.606 537.91L400.094 532.279C400.496 530.973 401.754 530.347 402.962 530.857Z" fill="#FFD731" stroke="black" stroke-width="1.25734"/>
</svg>
