<svg width="56" height="56" viewBox="0 0 56 56" fill="none" xmlns="http://www.w3.org/2000/svg">
<path fill-rule="evenodd" clip-rule="evenodd" d="M25.7647 8.63758C26.4377 8.22619 27.2111 8.00851 27.9999 8.00851C28.7887 8.00851 29.5621 8.22619 30.2351 8.63758C30.9081 9.04897 31.4545 9.6381 31.8142 10.3401L31.8206 10.3526L47.5327 41.7772L47.5338 41.7792C47.8618 42.4309 48.0181 43.1561 47.9875 43.8852C47.957 44.6152 47.7404 45.3252 47.3581 45.9478C46.9758 46.5703 46.441 47.0849 45.8038 47.4426C45.167 47.8004 44.449 47.9892 43.7184 47.9915H43.7141H12.2856H12.2813C11.5507 47.9892 10.8329 47.8004 10.1959 47.4426C9.55886 47.0849 9.02387 46.5703 8.6417 45.9478C8.25954 45.3252 8.04288 44.6152 8.0123 43.8852C7.98176 43.1561 8.13788 42.4312 8.46585 41.7795L8.46701 41.7772L24.1793 10.3526L24.1855 10.3401C24.5452 9.63807 25.0917 9.04897 25.7647 8.63758ZM27.9998 19.7775C29.1833 19.7775 30.1427 20.7369 30.1427 21.9203V31.2061C30.1427 32.3895 29.1833 33.3489 27.9998 33.3489C26.8164 33.3489 25.857 32.3895 25.857 31.2061V21.9203C25.857 20.7369 26.8164 19.7775 27.9998 19.7775ZM30.857 39.0632C30.857 40.6412 29.5778 41.9203 27.9998 41.9203C26.4219 41.9203 25.1427 40.6412 25.1427 39.0632C25.1427 37.4852 26.4219 36.2061 27.9998 36.2061C29.5778 36.2061 30.857 37.4852 30.857 39.0632Z" fill="#4CA2FF" fill-opacity="0.4"/>
</svg>
