<svg width="32" height="32" viewBox="0 0 32 32" fill="none" xmlns="http://www.w3.org/2000/svg">
<rect width="32" height="32" rx="16" fill="#8D91AB"/>
<path fill-rule="evenodd" clip-rule="evenodd" d="M11.0688 5.19609C11.0037 5.14377 10.6474 4.86385 10.2777 4.57402C9.90809 4.28419 9.59018 4.03392 9.57247 4.01839C9.54729 3.99714 9.53845 3.99431 9.53845 4.00989C9.53845 4.0283 9.87261 5.01089 11.0022 8.32065C11.2664 9.09341 11.53 9.8663 11.7933 10.6393C12.1492 11.6818 12.5067 12.7302 12.8057 13.6067C13.1291 14.5549 13.3838 15.302 13.4937 15.623C13.6194 15.9878 13.7466 16.3625 13.7761 16.453C13.8072 16.5449 13.8367 16.6198 13.8427 16.6198C13.8545 16.6198 13.9832 16.4657 14.962 15.2851C15.2577 14.9289 15.6273 14.4835 15.7841 14.2955C15.9776 14.0623 16.4715 13.4675 16.9693 12.868L18.2386 11.3392C18.3731 11.1752 18.4841 11.0394 18.4825 11.0352C18.4825 11.031 18.4042 10.9673 18.3096 10.8924C18.2239 10.8258 17.6556 10.379 16.9991 9.8627L16.791 9.69913C16.3019 9.31377 15.7151 8.85229 15.2481 8.48502C15.0091 8.29709 14.8016 8.1339 14.6544 8.01807C14.2378 7.6902 13.8214 7.36219 13.405 7.03406L13.266 6.92456C13.0458 6.75122 12.8096 6.56512 12.6953 6.4756C12.1759 6.06775 11.6569 5.65945 11.1382 5.25072L11.0688 5.19609ZM18.9247 11.7862C18.8573 11.6468 18.8107 11.5504 18.796 11.5201C18.7591 11.441 18.7236 11.3745 18.7191 11.3745C18.7132 11.3745 18.6999 11.3886 18.6866 11.4056C18.6748 11.424 18.5032 11.6332 18.3051 11.8708C18.0546 12.1727 17.8038 12.4743 17.5525 12.7756C17.3387 13.0348 17.1243 13.2935 16.9093 13.5518C16.6429 13.8721 16.3767 14.1925 16.1108 14.5132C15.3996 15.37 14.8407 16.0429 14.4578 16.5038C14.2877 16.7089 14.1517 16.8785 14.1561 16.8828C14.1591 16.887 15.3464 17.0354 16.7925 17.2136L18.0062 17.3629C19.0987 17.4973 20.1455 17.626 20.628 17.6858C21.2904 17.7678 21.8345 17.8328 21.8375 17.83C21.8434 17.8244 21.7399 17.6066 21.1899 16.4713L20.9682 16.013C20.7826 15.6294 20.5515 15.1517 20.3663 14.7677C20.2089 14.4432 19.9938 13.9979 19.7869 13.5695C19.6341 13.2532 19.4857 12.9461 19.3682 12.7035C19.1973 12.3505 19.0338 12.012 18.9247 11.7862ZM24.1404 12.1897L24.1663 12.1196C24.2003 12.0333 24.2136 11.9824 24.2018 11.9838C24.1693 11.9853 20.3559 13.7865 20.3515 13.802C20.3456 13.8176 20.489 14.1173 21.4782 16.1603C21.7118 16.6424 21.9558 17.1486 22.0209 17.2843C22.0859 17.42 22.1436 17.5374 22.151 17.543C22.1569 17.5501 22.1761 17.5175 22.1924 17.4723C22.2087 17.4271 22.6419 16.2508 23.1564 14.8596C23.671 13.467 24.0968 12.3133 24.1028 12.2935C24.1068 12.2799 24.1221 12.2388 24.1404 12.1897ZM25.4394 16.4911C25.4468 16.4855 25.3182 15.8945 24.7252 13.2068C24.6188 12.7247 24.5286 12.3288 24.5241 12.3246C24.5227 12.3232 24.5228 12.3184 24.5217 12.3181C24.5158 12.3165 24.4766 12.4268 24.0303 13.6352C23.6562 14.6503 23.5719 14.8893 23.5882 14.902C23.5938 14.9074 23.7153 15.0122 23.9019 15.1733C24.0585 15.3086 24.2612 15.4835 24.4798 15.6725C24.9603 16.0868 25.3699 16.4416 25.3921 16.4614C25.4143 16.4812 25.4364 16.494 25.4394 16.4911ZM18.2969 17.7843C17.3798 17.6714 16.3832 17.5487 15.7308 17.4681C14.7816 17.3521 13.9905 17.256 13.9743 17.256C13.958 17.256 13.9417 17.2645 13.9388 17.273C13.9358 17.2829 13.8989 17.5713 13.8589 17.9134C13.8175 18.2556 13.6593 19.562 13.507 20.8146C13.3547 22.0686 13.2335 23.0979 13.2379 23.1021C13.2423 23.1064 14.063 22.6285 15.0625 22.0404C18.7591 19.8631 20.0913 19.0784 20.8054 18.6585C21.2076 18.4224 21.5462 18.2202 21.5581 18.2103C21.5743 18.1948 21.5684 18.1906 21.5211 18.1835C21.4886 18.1778 20.5615 18.0633 19.4599 17.9276C19.1154 17.8851 18.7143 17.8358 18.2969 17.7843ZM12.9553 21.9688L13.0279 21.3787C13.2556 19.5294 13.439 18.0124 13.4361 18.0096C13.4272 17.9997 13.4124 18.0223 13.1433 18.486C13.0684 18.6135 12.9386 18.8356 12.7953 19.0805C12.6812 19.2758 12.5585 19.4856 12.4483 19.6736C12.0524 20.3498 11.6566 21.0261 11.261 21.7025L11.0006 22.1479C10.6889 22.6809 10.4103 23.1573 10.3221 23.3072C10.2592 23.4154 10.0756 23.7291 9.84046 24.1308C9.66091 24.4374 9.45143 24.7953 9.24273 25.1522C8.83543 25.8489 8.42783 26.5455 8.01992 27.2418C7.82914 27.5684 7.67536 27.8371 7.67978 27.8399C7.68277 27.8427 7.89422 27.7862 8.14999 27.7126C8.2673 27.6789 8.42717 27.6333 8.59527 27.5854C8.7865 27.5309 8.97766 27.4763 9.16876 27.4214C9.52633 27.3204 9.88367 27.2185 10.2408 27.116C10.4501 27.0569 10.8282 26.9491 11.191 26.8456L11.5715 26.7371C12.3182 26.525 12.3862 26.5038 12.3966 26.4727C12.4025 26.4543 12.4528 26.057 12.5104 25.5905C12.5606 25.1736 12.7525 23.6153 12.9553 21.9688Z" fill="white"/>
</svg>
