<svg width="32" height="32" viewBox="0 0 32 32" fill="none" xmlns="http://www.w3.org/2000/svg">
<path d="M4.32033 19.179C3.7366 18.5952 3.34513 17.9209 3.14593 17.1564C2.95136 16.3872 2.95136 15.618 3.14593 14.8488C3.34513 14.075 3.73428 13.3985 4.31337 12.8193C4.90173 12.2308 5.58042 11.8393 6.34946 11.6447C7.1185 11.4501 7.88753 11.4501 8.65656 11.6447C9.42557 11.8393 10.102 12.2285 10.6857 12.8123L12.1311 14.2581L14.2714 12.1173L12.826 10.6716C12.2423 10.0878 11.8508 9.41357 11.6516 8.64902C11.457 7.87983 11.4548 7.11296 11.6446 6.34841C11.8393 5.57923 12.2307 4.9004 12.8191 4.31192C13.4028 3.72808 14.0792 3.33886 14.8482 3.14425C15.6172 2.94963 16.3839 2.95194 17.1483 3.15119C17.9173 3.3458 18.5937 3.73504 19.1775 4.31888C19.7612 4.90272 20.1504 5.57923 20.3449 6.34841C20.5442 7.11296 20.5464 7.87983 20.3519 8.64902C20.1619 9.42284 19.7751 10.1017 19.1914 10.6855L17.7529 12.1242L19.8863 14.2581L21.3247 12.8193C21.9085 12.2355 22.5825 11.8439 23.3469 11.6447C24.116 11.4501 24.8827 11.4523 25.6471 11.6516C26.4161 11.8462 27.0948 12.2378 27.6831 12.8263C28.2669 13.4101 28.656 14.0866 28.8506 14.8558C29.0498 15.6204 29.0498 16.3849 28.8506 17.1495C28.656 17.9187 28.2669 18.5952 27.6831 19.179C27.0948 19.7674 26.4161 20.159 25.6471 20.3536C24.8827 20.5436 24.116 20.5413 23.3469 20.3467C22.5871 20.152 21.9154 19.7628 21.3317 19.179L19.8932 17.7403L17.7529 19.881L19.1914 21.3198C19.7751 21.9035 20.1619 22.5778 20.3519 23.3423C20.5464 24.1115 20.5464 24.8807 20.3519 25.6499C20.1573 26.4191 19.7658 27.0979 19.1775 27.6864C18.5984 28.2655 17.922 28.6548 17.1483 28.854C16.3793 29.0487 15.6103 29.0487 14.8413 28.854C14.0815 28.6594 13.4097 28.2702 12.826 27.6864C12.2377 27.0979 11.8439 26.4214 11.6446 25.6569C11.4501 24.8877 11.4501 24.1185 11.6446 23.3493C11.8485 22.5801 12.24 21.9059 12.8191 21.3267L14.2714 19.874L12.1381 17.7403L10.6857 19.1929C10.1066 19.7721 9.4279 20.159 8.6496 20.3536C7.88057 20.5482 7.11155 20.5482 6.34252 20.3536C5.57812 20.1544 4.90405 19.7628 4.32033 19.179ZM6.0576 17.4414C6.32166 17.7055 6.62742 17.8816 6.97487 17.9696C7.32696 18.0623 7.67674 18.0646 8.02419 17.9765C8.37164 17.8885 8.6774 17.7124 8.94147 17.4483L10.3938 15.9957L8.94842 14.55C8.68435 14.2858 8.37628 14.1121 8.02419 14.0287C7.67674 13.9407 7.32928 13.9407 6.98183 14.0287C6.63437 14.1168 6.32629 14.2951 6.0576 14.5639C5.79353 14.828 5.61517 15.1315 5.52252 15.4744C5.4345 15.8219 5.4345 16.1694 5.52252 16.517C5.61517 16.8691 5.79353 17.1772 6.0576 17.4414ZM14.5633 8.93399L16.0087 10.3797L17.4471 8.94094C17.7158 8.67219 17.8919 8.36637 17.9753 8.02347C18.0633 7.67595 18.061 7.32611 17.9683 6.97395C17.8803 6.62643 17.7042 6.32061 17.4402 6.05649C17.1761 5.79237 16.8704 5.61629 16.5229 5.52825C16.1754 5.44021 15.828 5.44021 15.4806 5.52825C15.1377 5.61166 14.832 5.78774 14.5633 6.05649C14.2992 6.32061 14.1186 6.62643 14.0213 6.97395C13.9332 7.32147 13.9332 7.669 14.0213 8.01652C14.1186 8.36405 14.2992 8.66986 14.5633 8.93399ZM21.2235 16.0026L22.662 17.4414C22.926 17.7055 23.2295 17.8839 23.5724 17.9765C23.9198 18.0646 24.6719 18.0623 25.0147 17.9696C25.3622 17.8816 25.6702 17.7032 25.939 17.4344C26.2076 17.1656 26.3837 16.8599 26.4671 16.517C26.5597 16.174 26.5621 15.8289 26.474 15.4813C26.386 15.1338 26.21 14.828 25.9459 14.5639C25.6772 14.2951 25.3691 14.1168 25.0217 14.0287C24.6742 13.9407 23.9198 13.9407 23.5724 14.0287C23.2341 14.1168 22.9306 14.2951 22.662 14.5639L21.2235 16.0026ZM14.5633 25.9487C14.8274 26.2129 15.1331 26.3889 15.4806 26.477C15.828 26.565 16.1732 26.5627 16.516 26.47C16.8634 26.382 17.1692 26.2059 17.4332 25.9418C17.7019 25.6731 17.8803 25.3649 17.9683 25.0174C18.061 24.6745 18.0633 24.3293 17.9753 23.9818C17.8919 23.6296 17.7182 23.3215 17.4541 23.0573L16.0156 21.6186L14.5633 23.0713C14.2992 23.3354 14.1208 23.6389 14.0282 23.9818C13.9402 24.3293 13.9402 24.6768 14.0282 25.0244C14.1162 25.3718 14.2946 25.68 14.5633 25.9487ZM13.8753 16.0026L16.0087 18.1364L18.149 15.9957L16.0156 13.8619L13.8753 16.0026Z" fill="white"/>
</svg>
