<svg width="33" height="32" viewBox="0 0 33 32" fill="none" xmlns="http://www.w3.org/2000/svg">
<g clip-path="url(#clip0_616_2517)">
<path d="M16.5 32C25.3365 32 32.5 24.8365 32.5 16C32.5 7.16344 25.3365 0 16.5 0C7.66344 0 0.5 7.16344 0.5 16C0.5 24.8365 7.66344 32 16.5 32Z" fill="#8D91AB"/>
<path d="M21.0545 16.2333C21.5015 15.4201 22.223 15.4201 22.67 16.2333L25.4543 21.3805C25.9014 22.1938 25.5356 22.8572 24.6414 22.8572H19.0324C18.1484 22.8572 17.7825 22.1938 18.2195 21.3805L21.0545 16.2333ZM15.669 6.32432C16.1161 5.51104 16.8275 5.51104 17.2745 6.32432L17.8943 7.5014L19.3575 10.2087C19.7132 10.9792 19.7132 11.8888 19.3575 12.6592L14.4497 21.6159C14.0026 22.3436 13.2608 22.8037 12.4377 22.8572H8.36308C7.46891 22.8572 7.1031 22.2044 7.55019 21.3805L15.669 6.32432Z" fill="white"/>
</g>
<defs>
<clipPath id="clip0_616_2517">
<rect width="32" height="32" fill="white" transform="translate(0.5)"/>
</clipPath>
</defs>
</svg>
