<svg width="32" height="32" viewBox="0 0 32 32" fill="none" xmlns="http://www.w3.org/2000/svg">
<path fill-rule="evenodd" clip-rule="evenodd" d="M9.57935 24.6054C6.96087 22.6489 5.26196 19.5218 5.26196 16C5.26196 10.0717 10.0717 5.26196 16 5.26196C20.8946 5.26196 26.2391 8.18696 27.5304 12.6674C26.0858 7.66196 21.4718 4 16 4C9.37392 4 4 9.37392 4 16C4 22.6261 9.37392 28 16 28C22.6261 28 28 22.6261 28 16V15.3674H27.3413C27.3218 15.3674 27.2924 15.3674 27.2532 15.3674C27.175 15.3674 27.0641 15.3642 26.9207 15.3576C26.6369 15.3478 26.2457 15.3282 25.8054 15.2892C24.9054 15.2108 23.8782 15.0576 23.1804 14.7772C22.0554 14.3272 21.4196 13.7337 20.6957 13.0359L20.6532 12.9968C19.9261 12.2989 19.1109 11.5131 17.6924 10.8478C16.2968 10.1924 14.7543 10.2967 13.6228 10.5315C13.0489 10.6489 12.5532 10.8054 12.2043 10.9326C12.0282 10.9946 11.8881 11.0533 11.7902 11.0924C11.2196 11.3337 10.6652 11.6174 10.1076 11.8815C10.1076 11.8815 11.2065 12.1815 11.7478 12.3511C11.7674 12.3576 11.7968 12.3674 11.8391 12.3804C11.9207 12.4065 12.038 12.4489 12.1782 12.5076C12.4653 12.625 12.8403 12.7978 13.212 13.0392C13.7989 13.4142 14.2847 13.8903 14.4837 14.4707C13.2413 14.6337 12.0739 15.1815 11.2 15.6935C10.6717 16.0032 10.2315 16.3163 9.92174 16.5478C9.76848 16.6652 9.64457 16.7631 9.55978 16.8315C9.48804 16.8903 8.36631 17.8782 8.36631 17.8782C8.36631 17.8782 9.81413 18.0315 10.5283 18.175C11.0043 18.2696 11.6435 18.4261 12.3153 18.6576C12.9869 18.8924 13.6652 19.1989 14.2293 19.5935C14.7935 19.988 15.2076 20.4413 15.4097 20.963C16.0032 22.4826 15.4196 23.9598 14.2489 24.7913C13.0913 25.6131 11.3337 25.8087 9.57609 24.6022L9.57935 24.6054ZM13.675 26.4837C14.1478 26.3304 14.588 26.1054 14.9859 25.825C16.5772 24.6935 17.4153 22.6196 16.5903 20.5065C16.2642 19.675 15.6446 19.0424 14.9565 18.5597C14.2653 18.0772 13.4728 17.725 12.7359 17.4674C12.2532 17.2978 11.7837 17.1674 11.3761 17.0696C11.5228 16.975 11.6761 16.8772 11.8424 16.7793C12.8141 16.2087 14.0402 15.6837 15.2141 15.6837C16.9847 15.6837 18.3022 16.2282 19.5609 16.8087C19.675 16.8609 19.7892 16.9163 19.9065 16.9685C21.0315 17.4968 22.212 18.0511 23.5848 18.0511C24.9576 18.0511 25.9522 17.6761 26.6663 17.2847C26.0304 22.6065 21.5011 26.7347 16.0065 26.7347C15.2076 26.7347 14.4282 26.6468 13.6815 26.4837H13.675ZM25.2968 16.5119C24.8239 16.6718 24.25 16.7892 23.5815 16.7892C22.5054 16.7892 21.5793 16.3587 20.4054 15.8109C20.3011 15.7619 20.1968 15.713 20.0891 15.6642C18.912 15.1196 17.5522 14.5424 15.7815 14.4381C15.5435 13.2674 14.6565 12.4653 13.8935 11.9761C13.8087 11.9207 13.7239 11.8685 13.6391 11.8196C13.7141 11.8032 13.7924 11.7837 13.8739 11.7674C14.8978 11.5554 16.1174 11.5032 17.1511 11.9924C18.3772 12.5696 19.0718 13.2347 19.7924 13.9261L19.8185 13.9489C20.5587 14.6597 21.3446 15.4065 22.7108 15.9543C23.4707 16.2576 24.4554 16.4207 25.2968 16.5119Z" fill="white"/>
</svg>
