<svg width="32" height="32" viewBox="0 0 32 32" fill="none" xmlns="http://www.w3.org/2000/svg">
<g clip-path="url(#clip0_607_2451)">
<path d="M16 32C24.8365 32 32 24.8365 32 16C32 7.16344 24.8365 0 16 0C7.16344 0 0 7.16344 0 16C0 24.8365 7.16344 32 16 32Z" fill="#8D91AB"/>
<path d="M20.3629 19.9173V22.3098H10.6812C10.8143 20.7347 11.3131 19.627 13.0365 18.0685L20.3629 11.6965V17.2885H23V7H8.00294V12.1285H10.6393V9.68875H18.6064L11.316 16.0323L11.2984 16.0488C8.24274 18.8072 8 21.0333 8 23.656V25H22.9992V19.9181H20.3622L20.3629 19.9173Z" fill="white"/>
</g>
<defs>
<clipPath id="clip0_607_2451">
<rect width="32" height="32" fill="white"/>
</clipPath>
</defs>
</svg>
