<svg width="32" height="32" viewBox="0 0 32 32" fill="none" xmlns="http://www.w3.org/2000/svg">
<path d="M5.91989 13.9044H2.98242V12.1453H5.91989C5.91989 12.0971 5.91989 12.0571 5.91989 12.0172C5.92743 11.5038 5.91464 10.9899 5.94683 10.4775C6.00869 9.49336 6.26048 8.56609 6.85172 7.75708C7.47081 6.90994 8.32411 6.42531 9.32853 6.18334C10.1469 5.98656 10.9765 5.96647 11.8113 6.03747C12.6756 6.11263 13.5252 6.30826 14.3353 6.61866C14.381 6.63601 14.4267 6.65541 14.4821 6.67801L13.9854 8.26637C13.8676 8.22071 13.7571 8.17506 13.6446 8.13351C12.5735 7.73471 11.4679 7.6313 10.3448 7.80616C9.06647 8.00453 8.29466 8.81058 8.08488 10.0924C8.00909 10.5574 8.01525 11.0242 8.01502 11.4919C8.01502 11.704 8.01502 11.9163 8.01502 12.1398H13.2184V13.8936H8.0237V24.7596H5.91989V13.9044Z" fill="white"/>
<path d="M22.7447 19.3676C22.7404 19.3603 22.7367 19.3527 22.7337 19.3448C22.7368 19.3369 22.7404 19.3292 22.7447 19.3219C23.256 18.3995 23.787 17.4295 24.297 16.5057C24.4933 16.1493 24.7056 15.7859 24.9133 15.407H22.9273C22.9273 15.407 22.0489 17.3702 21.649 18.2458H21.6033C21.1616 17.3644 20.2108 15.407 20.2108 15.407L18.1209 15.3956C18.1501 15.4508 19.6378 18.1137 20.3249 19.3219C20.3297 19.3304 20.3338 19.3379 20.3375 19.3448L20.3249 19.3676C19.6378 20.5585 18.1273 23.2741 18.0981 23.3284L20.2108 23.3172C20.2108 23.3172 21.1616 21.3876 21.6033 20.5202H21.649C22.0489 21.383 22.9273 23.3184 22.9273 23.3184H24.9361C24.7275 22.9435 23.256 20.2768 22.7447 19.3676ZM17.3738 23.9464C17.0277 24.2262 16.6645 24.5187 16.3301 24.7894C13.4008 22.1254 13.0751 17.0074 16.3185 13.9102C16.657 14.182 17.0179 14.4781 17.3646 14.7582C17.2733 14.863 17.1868 14.9621 17.1014 15.0623C16.3938 15.8934 15.9034 16.81 15.6966 17.8883C15.5663 18.5682 15.5423 19.253 15.5902 19.9428C15.6443 20.719 15.8231 21.4636 16.1561 22.169C16.4462 22.7758 16.823 23.3371 17.2747 23.8354C17.3042 23.8667 17.3313 23.8987 17.3738 23.9464ZM25.6511 23.9464C25.997 24.2262 26.3601 24.5187 26.6946 24.7894C29.6238 22.1254 29.9498 17.0074 26.7064 13.9102C26.3688 14.182 26.0068 14.4781 25.6593 14.7582C25.7506 14.863 25.8369 14.9621 25.9225 15.0623C26.6302 15.8934 27.1205 16.81 27.3271 17.8883C27.4575 18.5682 27.4814 19.253 27.4335 19.9428C27.3794 20.719 27.2009 21.4636 26.8678 22.169C26.5776 22.7757 26.2009 23.337 25.7493 23.8354C25.7196 23.8667 25.6924 23.8987 25.6511 23.9464Z" fill="white"/>
</svg>
