<svg width="32" height="32" viewBox="0 0 32 32" fill="none" xmlns="http://www.w3.org/2000/svg">
<g clip-path="url(#clip0_618_2441)">
<path d="M15.9998 32.0002C24.8363 32.0002 31.9997 24.8368 31.9997 16.0003C31.9997 7.16386 24.8363 0.000488281 15.9998 0.000488281C7.16338 0.000488281 0 7.16386 0 16.0003C0 24.8368 7.16338 32.0002 15.9998 32.0002Z" fill="#8D91AB"/>
<path fill-rule="evenodd" clip-rule="evenodd" d="M24.6646 10.3423C24.5092 10.1937 17.6039 6.17345 16.8067 5.76806C16.4553 5.58563 15.8067 5.53833 15.435 5.66672C15.0026 5.80861 7.69191 10.072 7.39463 10.3491C7.24598 10.491 7.06354 10.7275 6.98922 10.8761C6.86086 11.1396 6.85409 11.322 6.83382 16.1936L6.82031 21.2341L7.75273 21.7813C8.26623 22.0786 8.72569 22.3287 8.75946 22.3421C8.8338 22.3624 15.4688 11.795 15.4688 11.6531C15.4688 11.5518 13.9689 11.572 13.4351 11.6801C12.881 11.8018 12.3946 12.045 12.1175 12.3423C12.0027 12.4639 11.077 13.8558 10.0635 15.4368C9.05001 17.0179 8.19866 18.3354 8.16489 18.3693C8.1311 18.4098 8.10407 16.9435 8.10407 14.9368V11.4369L8.29326 11.268C8.61758 10.9707 15.7999 6.85589 15.9891 6.85589C16.1715 6.85589 16.2729 6.90993 17.935 7.86937C18.4958 8.19369 19.9958 9.05856 21.2796 9.78827C22.5633 10.5248 23.6782 11.2004 23.766 11.2883L23.9147 11.4572V18.7271L20.3489 13.252C20.1865 12.9869 20.0169 12.7239 19.9255 12.6019L19.9126 12.5821L19.9111 12.583C19.8854 12.5501 19.8678 12.5315 19.8606 12.5315C19.8337 12.5382 19.6511 12.8355 18.8337 14.2139C18.7323 14.3828 18.5836 14.6396 18.5094 14.7814L18.3675 15.0382L18.3687 15.0404L18.3649 15.0426L18.4676 15.2115L18.5431 15.3422C18.567 15.3833 18.5919 15.4218 18.6161 15.456L18.8526 15.8451C18.8817 15.9092 18.9222 15.9817 18.9687 16.0517C19.0769 16.2138 19.2188 16.4435 19.2863 16.5651C19.3035 16.5959 19.3219 16.6237 19.3403 16.6475L22.263 21.4571L21.9147 21.6597C21.7164 21.7719 21.6217 21.8219 21.5619 21.825L17.9062 16.1416L17.8134 15.9909L17.4823 16.5314L17.4574 16.5728L16.0299 18.8931L16.026 18.896L18.8812 23.3843C18.5183 23.669 16.1059 25.3235 15.9499 25.3235C15.7742 25.3235 12.6175 23.153 12.6581 23.0786C12.6725 23.0498 13.6462 21.3978 14.8288 19.3915L14.8306 19.3885C15.8668 17.6304 17.0631 15.6009 17.9147 14.1531C18.9283 12.4369 19.3471 11.6734 19.2796 11.6531C19.2323 11.6328 18.5566 11.6261 17.7863 11.6396L16.3809 11.6599L13.1378 17.0043C11.9437 18.9765 10.8647 20.7547 10.2574 21.7554L10.256 21.7578C9.95706 22.2504 9.7727 22.5543 9.74594 22.5989L9.59729 22.8421L12.1108 24.288C13.4959 25.0853 14.8134 25.8354 15.0499 25.9637C15.5432 26.2272 16.1107 26.3151 16.5094 26.1799C16.7729 26.0989 24.1985 21.8219 24.57 21.5448C24.6849 21.457 24.8809 21.1935 24.9958 20.957L25.1983 20.5381L25.1849 15.8422L25.1646 11.1464L25.0025 10.8288C24.9147 10.6531 24.7593 10.4302 24.6646 10.3423ZM23.9087 18.8202L23.9147 18.8287V18.8163L23.9087 18.8202Z" fill="white"/>
<path d="M24.0516 18.9174L19.8649 12.4961L18.2969 15.0127L22.3452 21.6936L24.1198 20.8405L24.0516 18.9174Z" fill="white"/>
<path d="M22.0114 22.4214L17.8247 16L16.0234 18.873L19.3838 24.2526L21.5324 23.3802L22.0114 22.4214Z" fill="white"/>
<path fill-rule="evenodd" clip-rule="evenodd" d="M8.17567 11.4939L16.0014 6.98539L23.8271 11.4939V20.5057L16.0014 25.0142L10.2561 21.7043L9.49071 22.9537L15.7864 26.5807C15.9195 26.6574 16.0833 26.6574 16.2164 26.5807L25.0761 21.4764C25.2097 21.3996 25.2919 21.2572 25.2919 21.1031V10.8963C25.2919 10.7423 25.2097 10.6 25.0761 10.5231L16.2164 5.41886C16.0833 5.34215 15.9195 5.34215 15.7864 5.41884L6.92668 10.5231C6.79319 10.6 6.71094 10.7423 6.71094 10.8963V21.1031C6.71094 21.2572 6.79319 21.3996 6.92668 21.4764L8.69705 22.4964L9.48595 21.2606L8.17567 20.5057V11.4939Z" fill="white"/>
<path d="M19.3993 11.5938L16.3762 11.6368L9.48438 22.9592L11.9158 24.3669L19.3993 11.5938Z" fill="white"/>
<path d="M11.898 12.6255C12.5883 11.4963 14.5651 11.5009 15.4672 11.6444L8.69467 22.4946C8.46468 22.3622 7.89431 22.0342 7.45275 21.7811C6.86927 21.4467 6.77289 21.4378 6.71094 21.1282V20.5277C8.15235 18.3642 11.2077 13.7548 11.898 12.6255Z" fill="white"/>
</g>
<defs>
<clipPath id="clip0_618_2441">
<rect width="32" height="32" fill="white"/>
</clipPath>
</defs>
</svg>
