<svg width="32" height="32" viewBox="0 0 32 32" fill="none" xmlns="http://www.w3.org/2000/svg">
<g clip-path="url(#clip0_739_3694)">
<path d="M32 16C32 7.16344 24.8366 0 16 0C7.16344 0 0 7.16344 0 16C0 24.8366 7.16344 32 16 32C24.8366 32 32 24.8366 32 16Z" fill="url(#paint0_linear_739_3694)"/>
<path d="M18.1352 7.1843V4.18164C21.0693 4.69423 23.7091 6.24532 25.5534 8.54044C27.3979 10.8355 28.3184 13.7148 28.1403 16.6314C27.9622 19.5482 26.6977 22.2991 24.5873 24.362C22.4766 26.425 19.6669 27.6562 16.6915 27.8218C16.4669 27.8342 16.24 27.8402 16.011 27.8402V21.1537C17.3005 21.1522 18.5459 20.6934 19.5171 19.8615C20.4883 19.0297 21.1195 17.8814 21.2939 16.6287C21.4686 15.376 21.1747 14.1038 20.4667 13.047C19.7587 11.9903 18.6845 11.2206 17.4425 10.8802V12.4252C17.7573 12.5497 18.0536 12.7149 18.3235 12.9165L17.6453 13.5816C17.0877 13.207 16.4142 13.0355 15.7413 13.0966C15.0683 13.1577 14.4385 13.4478 13.9607 13.9164C13.483 14.385 13.1875 15.0028 13.1255 15.6626C13.0635 16.3225 13.2388 16.9826 13.6212 17.529L12.9428 18.1942C12.4633 17.5729 12.192 16.8214 12.1661 16.0428C12.1402 15.2642 12.3612 14.4969 12.7984 13.8464C13.2356 13.196 13.8677 12.6944 14.6077 12.4107C15.3477 12.127 16.1592 12.0751 16.9305 12.2622V9.03278C18.6555 9.25558 20.2368 10.093 21.3726 11.3853C22.5085 12.6776 23.1195 14.3345 23.0894 16.0402C23.0593 17.7458 22.3902 19.381 21.2094 20.6342C20.0288 21.8873 18.419 22.6705 16.6872 22.8346V24.8764C18.8667 24.7178 20.9168 23.8002 22.4669 22.2895C24.0169 20.7788 24.9651 18.7745 25.14 16.6385C25.3147 14.5024 24.7048 12.3755 23.4203 10.6418C22.1357 8.90802 20.2613 7.68172 18.1352 7.1843Z" fill="white"/>
<path d="M18.9894 13.5447C19.5463 14.2157 19.8502 15.0547 19.8494 15.92C19.8489 16.4915 19.7159 17.0554 19.4604 17.5691C19.205 18.0827 18.8338 18.5328 18.375 18.8851C17.9161 19.2376 17.3815 19.483 16.8114 19.603C16.2417 19.723 15.6514 19.7146 15.0854 19.5781V22.8075C13.3602 22.5848 11.7791 21.7475 10.6432 20.4554C9.50721 19.163 8.89598 17.5062 8.92591 15.8005C8.95585 14.0949 9.62491 12.4596 10.8055 11.2064C11.9861 9.9533 13.5958 9.16994 15.3276 9.00557V6.96378C13.1509 7.12592 11.1048 8.0448 9.55782 9.55488C8.01081 11.065 7.06465 13.067 6.88975 15.2004C6.71479 17.3338 7.32267 19.4582 8.60372 21.1912C9.88483 22.9242 11.7549 24.1517 13.8773 24.6526V27.6586C10.8838 27.1374 8.19795 25.5358 6.34935 23.1693C4.50081 20.8026 3.62364 17.8429 3.89081 14.8735C4.15799 11.9042 5.55012 9.14069 7.79268 7.12795C10.0353 5.11518 12.9656 3.9992 16.006 4V10.6866C14.7153 10.6857 13.468 11.1434 12.495 11.9748C11.5219 12.8063 10.8892 13.9552 10.7138 15.209C10.5385 16.4627 10.8324 17.7363 11.5411 18.7938C12.25 19.8514 13.3256 20.6214 14.5689 20.9611V19.415C14.2131 19.2746 13.8812 19.0819 13.5843 18.8438L14.2583 18.183C14.8157 18.597 15.5071 18.799 16.2047 18.752C16.9023 18.705 17.559 18.4122 18.0534 17.9274C18.5478 17.4426 18.8466 16.7987 18.8945 16.1149C18.9425 15.4308 18.7364 14.753 18.3143 14.2065L18.9894 13.5447Z" fill="white"/>
<path d="M17.4341 16.9544C17.6607 16.6544 17.7829 16.2911 17.7826 15.9179L17.7837 15.9222C17.7835 15.6939 17.7375 15.4679 17.6482 15.257C17.5594 15.0454 17.4288 14.853 17.264 14.6909C17.0992 14.5288 16.9035 14.4002 16.688 14.3124C16.3363 14.1693 15.947 14.1411 15.5777 14.2317C15.2085 14.3223 14.8787 14.527 14.6371 14.8156C14.3956 15.1041 14.2551 15.4611 14.2365 15.8339C14.2179 16.2068 14.322 16.5756 14.5335 16.8858C14.7451 17.196 15.0529 17.4314 15.4113 17.557C15.7698 17.6828 16.16 17.6919 16.5243 17.5834C16.8885 17.4749 17.2075 17.2544 17.4341 16.9544Z" fill="white"/>
</g>
<defs>
<linearGradient id="paint0_linear_739_3694" x1="16" y1="14.7586" x2="16" y2="-17.9098" gradientUnits="userSpaceOnUse">
<stop stop-color="#00182B"/>
<stop offset="0.136" stop-color="#081637"/>
<stop offset="0.381" stop-color="#201057"/>
<stop offset="0.707" stop-color="#45088A"/>
<stop offset="1" stop-color="#6C00BF"/>
</linearGradient>
<clipPath id="clip0_739_3694">
<rect width="32" height="32" fill="white"/>
</clipPath>
</defs>
</svg>
