<svg width="32" height="32" viewBox="0 0 32 32" fill="none" xmlns="http://www.w3.org/2000/svg">
<g clip-path="url(#clip0_635_2493)">
<path d="M32 16C32 7.16344 24.8366 0 16 0C7.16344 0 0 7.16344 0 16C0 24.8366 7.16344 32 16 32C24.8366 32 32 24.8366 32 16Z" fill="#8D91AB"/>
<path fill-rule="evenodd" clip-rule="evenodd" d="M28 17.2747C28 17.3878 27.9736 17.4953 27.9237 17.5886L22.7768 26.4337C22.5584 26.8089 22.155 27.04 21.7186 27.04H10.2815C9.84494 27.04 9.44155 26.8089 9.22328 26.4337L4.07592 17.5876C4.02605 17.4945 4 17.3876 4 17.2747C4 16.9086 4.29912 16.6118 4.6681 16.6118H10.3152L11.7463 19.0238L11.7551 19.0382C11.9461 19.3424 12.3479 19.4416 12.661 19.2587L12.6772 19.2489C12.8215 19.159 12.926 19.0177 12.9688 18.8536L14.7924 11.8589L16.3582 23.1198L16.3606 23.1355C16.4184 23.4897 16.751 23.7352 17.1114 23.6859L17.1277 23.6835C17.3885 23.6412 17.6003 23.45 17.6669 23.1952L19.8648 14.7642L20.7674 16.2852L20.7763 16.3C20.8981 16.4936 21.1122 16.6118 21.343 16.6118H27.3318C27.701 16.6118 28 16.9086 28 17.2747ZM21.7186 4.95996C22.155 4.95996 22.5584 5.19105 22.7768 5.56617L27.924 14.4118C27.9738 14.505 28 14.6124 28 14.7252C28 15.0913 27.701 15.3881 27.3318 15.3881H21.6662L20.2352 12.9761L20.2253 12.9601C20.1347 12.8168 19.9922 12.7131 19.8267 12.6707L19.8112 12.6669C19.459 12.5852 19.1037 12.7971 19.0126 13.1464L17.1891 20.1409L15.6233 8.88014L15.6208 8.8639C15.5783 8.60513 15.3856 8.39489 15.1288 8.32897C14.7716 8.23727 14.4071 8.45028 14.3147 8.80471L12.1166 17.2356L11.2141 15.7146L11.2052 15.7C11.0834 15.5063 10.8693 15.3881 10.6384 15.3881H4.6681C4.29912 15.3881 4 15.0913 4 14.7252C4 14.6132 4.02534 14.5074 4.0743 14.4148L9.22328 5.56617C9.44155 5.19105 9.84494 4.95996 10.2815 4.95996H21.7186Z" fill="white"/>
</g>
<defs>
<clipPath id="clip0_635_2493">
<rect width="32" height="32" fill="white"/>
</clipPath>
</defs>
</svg>
