<svg width="32" height="32" viewBox="0 0 32 32" fill="none" xmlns="http://www.w3.org/2000/svg">
<g clip-path="url(#clip0_605_2447)">
<path d="M16 32C24.8365 32 32 24.8365 32 16C32 7.16344 24.8365 0 16 0C7.16344 0 0 7.16344 0 16C0 24.8365 7.16344 32 16 32Z" fill="#8D91AB"/>
<path d="M26.0786 9.60072C25.4565 8.50695 24.3428 7.85186 23.0988 7.85186H16.2384C16.1495 7.84584 16.0607 7.83984 15.9718 7.83984C15.883 7.83984 15.794 7.84584 15.7052 7.85186H8.84489C7.60079 7.85186 6.48703 8.50695 5.86499 9.60072C5.24292 10.6945 5.24292 11.9987 5.86499 13.0925L12.9918 25.611C13.6139 26.7048 14.7277 27.3598 15.9718 27.3598C17.2159 27.3598 18.3296 26.7048 18.9517 25.611L26.0786 13.0925C26.7007 12.0046 26.7007 10.6945 26.0786 9.60072ZM17.3048 24.6494C17.0263 25.1363 16.5287 25.4307 15.9718 25.4307C15.4149 25.4307 14.9173 25.1363 14.6388 24.6494L10.6281 17.6059L14.6388 10.5563C14.8877 10.1176 15.3083 9.84109 15.794 9.78704H16.1495C16.6352 9.84109 17.056 10.1235 17.3048 10.5563L21.3154 17.5998L17.3048 24.6494Z" fill="white"/>
</g>
<defs>
<clipPath id="clip0_605_2447">
<rect width="32" height="32" fill="white"/>
</clipPath>
</defs>
</svg>
