<svg width="32" height="32" viewBox="0 0 32 32" fill="none" xmlns="http://www.w3.org/2000/svg">
<path d="M7.04885 13.2818C6.13335 12.3923 5.49156 11.2417 5.49156 9.87846V9.73344C5.56707 7.40332 7.43581 5.52762 9.7104 5.45994H24.1885C24.566 5.47928 24.868 5.75001 24.868 6.14641V18.6961C25.1983 18.7542 25.3587 18.8026 25.6797 18.9186C25.9346 19.0153 26.2837 19.2183 26.2837 19.2183V6.14641C26.2648 4.95718 25.3399 4 24.1791 4H9.70095C6.57694 4.04834 4.06641 6.66851 4.06641 9.87846C4.06641 11.7445 4.89696 13.3398 6.25604 14.4613C6.35043 14.5387 6.43537 14.6354 6.68077 14.6354C7.10548 14.6354 7.4075 14.2873 7.38862 13.9102C7.37918 13.5912 7.24705 13.4752 7.04885 13.2818Z" fill="white"/>
<path d="M23.8103 19.5179H12.4563C11.6918 19.5276 11.0783 20.1561 11.0783 20.9392V22.6118C11.0972 23.3854 11.739 24.0428 12.5035 24.0428H13.3435V22.6118H12.5035V20.9779C12.5035 20.9779 12.7111 20.9779 12.966 20.9779C14.4006 20.9779 15.4577 22.3411 15.4577 23.8011C15.4577 25.0967 14.3062 26.75 12.3808 26.6147C10.6725 26.4986 9.74757 24.9419 9.74757 23.8011V9.62702C9.74757 8.9889 9.23791 8.4668 8.615 8.4668H7.48242V9.91708H8.32241V23.8107C8.27523 26.634 10.2855 28.0553 12.3808 28.0553L23.8198 28.0939C26.1227 28.0939 27.9915 26.1796 27.9915 23.8107C27.9915 21.442 26.1133 19.5179 23.8103 19.5179ZM26.5662 23.8978C26.5191 25.4157 25.3015 26.634 23.8103 26.634L15.854 26.6049C16.4864 25.8508 16.8734 24.8742 16.8734 23.8107C16.8734 22.1381 15.9012 20.9875 15.9012 20.9875H23.8198C25.3393 20.9875 26.5757 22.2542 26.5757 23.8107L26.5662 23.8978Z" fill="white"/>
<path d="M20.7537 10.1788H12.1934V8.72852H20.7537C21.1407 8.72852 21.4616 9.04757 21.4616 9.45365C21.4616 9.85006 21.1502 10.1788 20.7537 10.1788Z" fill="white"/>
<path d="M20.7537 17.005H12.1934V15.5547H20.7537C21.1407 15.5547 21.4616 15.8738 21.4616 16.2799C21.4616 16.6763 21.1502 17.005 20.7537 17.005Z" fill="white"/>
<path d="M22.2639 13.5909H12.1934V12.1406H22.2543C22.6414 12.1406 22.9622 12.4597 22.9622 12.8658C22.9717 13.2622 22.6508 13.5909 22.2639 13.5909Z" fill="white"/>
</svg>
