<svg width="32" height="32" viewBox="0 0 32 32" fill="none" xmlns="http://www.w3.org/2000/svg">
<g clip-path="url(#clip0_624_2486)">
<path d="M32 16C32 7.16344 24.8366 0 16 0C7.16344 0 0 7.16344 0 16C0 24.8366 7.16344 32 16 32C24.8366 32 32 24.8366 32 16Z" fill="#8D91AB"/>
<path d="M16.0357 21.0151C13.9561 19.9025 11.336 18.5031 8.82031 17.1636C10.627 19.8324 12.7884 23.0135 14.8776 26.0884C15.2671 26.6617 15.654 27.2313 16.0357 27.793V21.0151Z" fill="white"/>
<path d="M16.0312 21.0151C18.1108 19.9025 20.7309 18.5031 23.2466 17.1636C21.4399 19.8324 19.2786 23.0135 17.1893 26.0884C16.7999 26.6617 16.4128 27.2313 16.0312 27.793V21.0151Z" fill="white" fill-opacity="0.6"/>
<path d="M16.0357 4.31982L8.82031 14.9123L16.0357 11.1038V4.31982Z" fill="white"/>
<path d="M16.0312 4.31982L23.2466 14.9123L16.0312 11.1038V4.31982Z" fill="white" fill-opacity="0.6"/>
<path d="M16.0307 16.0439H9.12502L9.10156 16.0564L16.0307 19.7387V16.0439Z" fill="white" fill-opacity="0.4"/>
<path d="M16.0307 16.0439H9.12502L9.10156 16.0312L16.0307 12.3491V16.0439Z" fill="white"/>
<path d="M16.0312 16.0439H22.937L22.9604 16.0564L16.0312 19.7387V16.0439Z" fill="white" fill-opacity="0.3"/>
<path d="M16.0312 16.0439H22.937L22.9604 16.0312L16.0312 12.3491V16.0439Z" fill="white" fill-opacity="0.6"/>
</g>
<defs>
<clipPath id="clip0_624_2486">
<rect width="32" height="32" fill="white"/>
</clipPath>
</defs>
</svg>
