<svg width="32" height="32" viewBox="0 0 32 32" fill="none" xmlns="http://www.w3.org/2000/svg">
<rect width="32" height="32" rx="16" fill="black"/>
<path d="M7.72268 14.1704H5.31055V12.7259H7.72268C7.72268 12.6864 7.72268 12.6536 7.72268 12.6208C7.72887 12.1992 7.71837 11.7772 7.7448 11.3564C7.7956 10.5483 8.00236 9.78686 8.48786 9.12253C8.99624 8.4269 9.69693 8.02894 10.5217 7.83024C11.1937 7.66865 11.8749 7.65216 12.5605 7.71045C13.2702 7.77218 13.9678 7.93282 14.6331 8.18771C14.6706 8.20195 14.7081 8.21789 14.7536 8.23644L14.3458 9.54074C14.249 9.50325 14.1583 9.46576 14.0659 9.43164C13.1864 9.10416 12.2785 9.01925 11.3563 9.16283C10.3065 9.32573 9.67275 9.98762 9.50048 11.0402C9.43825 11.422 9.44331 11.8054 9.44312 12.1894C9.44312 12.3636 9.44312 12.5379 9.44312 12.7214H13.7159V14.1616H9.45024V23.0844H7.72268V14.1704Z" fill="white"/>
<path d="M21.5377 18.6553C21.5341 18.6493 21.5311 18.643 21.5287 18.6365C21.5312 18.63 21.5342 18.6238 21.5377 18.6178C21.9576 17.8603 22.3936 17.0638 22.8123 16.3052C22.9735 16.0125 23.1479 15.7141 23.3185 15.403H21.6876C21.6876 15.403 20.9663 17.015 20.6379 17.7341H20.6004C20.2377 17.0104 19.4569 15.403 19.4569 15.403L17.7408 15.3936C17.7648 15.4389 18.9864 17.6256 19.5507 18.6178C19.5546 18.6247 19.558 18.6309 19.561 18.6365L19.5507 18.6553C18.9864 19.6332 17.7461 21.8631 17.7221 21.9077L19.4569 21.8986C19.4569 21.8986 20.2377 20.314 20.6004 19.6017H20.6379C20.9663 20.3103 21.6876 21.8995 21.6876 21.8995H23.3372C23.1659 21.5917 21.9576 19.4019 21.5377 18.6553ZM17.1273 22.4152C16.8431 22.645 16.5449 22.8851 16.2702 23.1074C13.8649 20.9199 13.5974 16.7172 16.2607 14.1738C16.5387 14.3971 16.835 14.6402 17.1198 14.8702C17.0448 14.9563 16.9738 15.0376 16.9036 15.1199C16.3225 15.8024 15.9199 16.555 15.7501 17.4406C15.643 17.9988 15.6233 18.5612 15.6627 19.1276C15.7071 19.765 15.8539 20.3764 16.1274 20.9557C16.3656 21.4539 16.675 21.9149 17.0459 22.3241C17.0701 22.3498 17.0924 22.376 17.1273 22.4152ZM23.9243 22.4152C24.2083 22.645 24.5065 22.8851 24.7811 23.1074C27.1865 20.9199 27.4542 16.7172 24.7909 14.1738C24.5137 14.3971 24.2164 14.6402 23.931 14.8702C24.006 14.9563 24.0769 15.0376 24.1472 15.1199C24.7283 15.8024 25.1309 16.555 25.3006 17.4406C25.4076 17.9988 25.4273 18.5612 25.3879 19.1276C25.3435 19.765 25.1969 20.3764 24.9234 20.9557C24.6851 21.4539 24.3757 21.9148 24.0049 22.3241C23.9805 22.3498 23.9582 22.376 23.9243 22.4152Z" fill="#F7D509"/>
</svg>
