<svg width="32" height="32" viewBox="0 0 32 32" fill="none" xmlns="http://www.w3.org/2000/svg">
<g clip-path="url(#clip0_619_2464)">
<path d="M16 32C24.8365 32 32 24.8365 32 16C32 7.16344 24.8365 0 16 0C7.16344 0 0 7.16344 0 16C0 24.8365 7.16344 32 16 32Z" fill="#8D91AB"/>
<path d="M13.2351 18.2699L15.6264 19.0048L14.545 20.0862L14.4467 20.1845L12.8024 19.6806C11.2404 19.2013 10.073 17.9688 9.67858 16.3835C9.28412 14.7984 9.73764 13.1628 10.8928 12.0076L17.3381 5.55957C17.358 5.56827 17.3775 5.57802 17.3959 5.58911C17.4157 5.59885 17.4353 5.60992 17.4537 5.61995C17.4869 5.63709 17.5188 5.65687 17.5521 5.67531C17.5839 5.69378 17.6159 5.7133 17.6481 5.73439C17.6738 5.75047 17.6985 5.76629 17.7229 5.78343C17.7474 5.79952 17.7719 5.81666 17.7967 5.83511C17.8202 5.8512 17.8421 5.86834 17.8642 5.88547C17.8841 5.89891 17.9036 5.91501 17.922 5.93083C17.9391 5.94322 17.9553 5.95667 17.9711 5.97143C17.9733 5.97275 17.9761 5.97381 17.9785 5.97645C18.0522 6.03787 18.1221 6.1017 18.1909 6.17051L18.5031 6.48271L11.9349 13.0499C11.1496 13.8364 10.8411 14.9484 11.109 16.0274C11.3769 17.1064 12.1719 17.9443 13.2351 18.2699Z" fill="white"/>
<path d="M13.9452 16.1095L17.5606 17.0767L16.3562 18.2809L13.5642 17.5337C12.7692 17.3221 12.1683 16.7212 11.9544 15.9263C11.7419 15.1313 11.9618 14.3102 12.543 13.729L19.1495 7.12256L20.1929 8.16594L13.5863 14.7711C13.5051 14.8534 13.4437 14.9467 13.4033 15.0501C13.3432 15.2075 13.3345 15.3781 13.3788 15.5452C13.3875 15.5785 13.3986 15.6104 13.412 15.6412C13.5067 15.8722 13.6997 16.0444 13.9455 16.1095H13.9452Z" fill="white"/>
<path d="M20.9479 19.8328L14.5012 26.2808L13.5981 27.184C13.3043 27.0046 13.0304 26.7882 12.7809 26.5387L12.4688 26.2266L13.3376 25.3578L19.9059 18.7906C20.6924 18.004 21.0009 16.8907 20.7316 15.8131C20.4625 14.7341 19.6687 13.8961 18.6055 13.5705L16.2153 12.8369L16.3137 12.7386L17.3951 11.6572L19.0393 12.1611C20.6012 12.6405 21.7687 13.8729 22.1631 15.4582C22.5563 17.0434 22.103 18.679 20.9479 19.8328Z" fill="white"/>
<path d="M19.2986 18.1125L12.6934 24.7189L11.8246 25.5876L10.7812 24.5443L11.6501 23.6755L18.2565 17.0704C18.3388 16.9869 18.4002 16.8934 18.4385 16.7901C18.4986 16.6326 18.5073 16.4621 18.4629 16.296C18.4543 16.2627 18.4433 16.2309 18.4311 16.2C18.3378 15.969 18.1434 15.7968 17.8967 15.7306L14.2824 14.7648L14.3831 14.664L15.3859 13.6613L15.4866 13.5605L18.2773 14.3052C19.0724 14.519 19.6733 15.1199 19.8871 15.9139C20.0997 16.7089 19.8797 17.531 19.2986 18.1125Z" fill="white"/>
<path d="M26.609 15.9201C26.609 16.7792 26.2748 17.5866 25.6677 18.1936L18.1911 25.6702C17.5842 26.2771 16.7767 26.6115 15.9177 26.6115C15.8673 26.6115 15.817 26.6102 15.7677 26.6078H15.7529C15.7136 26.6054 15.6754 26.6029 15.6374 26.5992C15.624 26.5978 15.6116 26.5968 15.5981 26.5954C15.5601 26.5917 15.5232 26.588 15.485 26.5819C15.4789 26.5819 15.4726 26.5806 15.4665 26.5797C15.4504 26.5782 15.4333 26.5758 15.4162 26.5736C15.3732 26.5662 15.3313 26.5587 15.2896 26.5514C15.2835 26.549 15.2772 26.5477 15.2725 26.5477C15.2345 26.539 15.1963 26.5306 15.1593 26.5219C15.1237 26.5131 15.0881 26.5048 15.0526 26.4936C15.028 26.4875 15.0046 26.4802 14.9814 26.4739C14.9397 26.4614 14.8978 26.448 14.8572 26.4333C14.8448 26.4283 14.8326 26.4246 14.8203 26.4198C14.8166 26.4186 14.8142 26.4174 14.8105 26.4162C14.7749 26.4037 14.7404 26.3902 14.7061 26.3755C14.6913 26.3706 14.6765 26.3632 14.6618 26.3571C14.6114 26.3349 14.5611 26.3128 14.5107 26.2883C14.5057 26.2859 14.5009 26.2832 14.4959 26.2808L20.9426 19.8328C22.0978 18.679 22.5513 17.0434 22.158 15.4582C21.7634 13.8729 20.5959 12.6402 19.0341 12.1611L17.3898 11.6572L16.3085 12.7386L16.2101 12.8369L18.6004 13.5705C19.6633 13.8961 20.4572 14.7341 20.7264 15.8131C20.9956 16.8907 20.6871 18.0043 19.9005 18.7906L13.3323 25.3578L12.4635 26.2266L11.8246 25.5877L12.6934 24.7189L19.2986 18.1123C19.8797 17.5312 20.0999 16.7091 19.8871 15.9138C19.6733 15.1199 19.0724 14.5189 18.2773 14.3051L15.4866 13.5605L15.3858 13.6612L14.3831 14.664L14.2824 14.7647L17.8965 15.7305C18.1437 15.797 18.3378 15.9689 18.4311 16.1998C18.4434 16.2307 18.4546 16.2627 18.4629 16.2958C18.5072 16.4618 18.4986 16.6326 18.4384 16.7901C18.4005 16.8931 18.3388 16.9867 18.2565 17.0702L11.6501 23.6755L6.16789 18.1933C5.5609 17.5862 5.22656 16.7789 5.22656 15.9199C5.22656 15.0608 5.5609 14.2534 6.16789 13.6464L13.6445 6.17033C14.2515 5.56334 15.0589 5.229 15.918 5.229C15.9683 5.229 16.0186 5.23032 16.0681 5.23268H16.0828C16.1345 5.23507 16.1858 5.24008 16.2375 5.24508C16.2792 5.24878 16.3212 5.25379 16.3617 5.25985C16.3692 5.25985 16.3751 5.26116 16.3815 5.26222C16.3977 5.26355 16.4124 5.26592 16.4268 5.26828C16.4661 5.27435 16.5044 5.28174 16.5423 5.28912C16.5496 5.29044 16.5557 5.29148 16.5632 5.29281C16.6012 5.30152 16.6381 5.30995 16.6762 5.31865C16.7119 5.32736 16.7474 5.33579 16.7831 5.34686C16.8015 5.35187 16.821 5.35662 16.8396 5.36296C16.8677 5.37164 16.8959 5.38009 16.9244 5.39011C16.9797 5.40857 17.0362 5.42808 17.0903 5.45022C17.1185 5.45892 17.1457 5.47 17.1725 5.48345C17.2007 5.49452 17.229 5.50692 17.256 5.52036C17.2844 5.53276 17.3116 5.5462 17.3384 5.55966L10.893 12.0077C9.73784 13.1628 9.28432 14.7984 9.67879 16.3837C10.0733 17.969 11.2405 19.2016 12.8026 19.6806L14.4469 20.1846L14.5452 20.0862L15.6266 19.005L13.2353 18.2701C12.1724 17.9443 11.3771 17.1061 11.1092 16.0275C10.8413 14.9485 11.1498 13.8363 11.9351 13.05L18.5032 6.4828L19.1436 7.123L12.5371 13.7295C11.9559 14.3106 11.7357 15.1317 11.9485 15.9267C12.1624 16.7218 12.7633 17.3226 13.5583 17.5341L16.3505 18.2814L17.5546 17.0771L13.9393 16.1099C13.6936 16.0448 13.5005 15.8729 13.4059 15.6417C13.3924 15.6108 13.3814 15.5789 13.3727 15.5457C13.3284 15.3785 13.3371 15.2077 13.3972 15.0505C13.4378 14.9474 13.4992 14.8538 13.5802 14.7715L20.1866 8.16638L25.6674 13.6472C26.2744 14.2542 26.6088 15.0616 26.6088 15.9207L26.609 15.9201Z" fill="white" fill-opacity="0.2"/>
<path d="M26.5387 12.7768L21.0579 7.29598L20.0146 6.25261L19.0635 5.30152C18.8141 5.05208 18.5387 4.83586 18.245 4.6563C17.5531 4.22861 16.7544 4 15.9199 4C14.7328 4 13.6169 4.46197 12.7776 5.30125L5.30125 12.7768C4.46197 13.6174 4 14.7333 4 15.9204C4 17.1075 4.46197 18.2234 5.30125 19.064L10.7834 24.5448L11.6522 23.676L6.17008 18.1938C5.56309 17.5869 5.22874 16.7795 5.22874 15.9204C5.22874 15.0613 5.56309 14.254 6.17008 13.647L13.6467 6.17034C14.2537 5.56336 15.0611 5.22901 15.9201 5.22901C15.9705 5.22901 16.0208 5.23032 16.0702 5.2327H16.085C16.1366 5.23507 16.188 5.24008 16.2397 5.24509C16.2814 5.24878 16.3234 5.25379 16.3638 5.25986C16.3714 5.25986 16.3773 5.26118 16.3837 5.26222C16.3998 5.26355 16.4146 5.26592 16.429 5.26829C16.4683 5.27437 16.5066 5.28174 16.5445 5.28912C16.5518 5.29045 16.5579 5.2915 16.5653 5.29282C16.6034 5.30152 16.6402 5.30995 16.6784 5.31866C16.7141 5.32736 16.7496 5.33579 16.7853 5.34686C16.8037 5.35189 16.8232 5.35662 16.8418 5.36296C16.8699 5.37166 16.8981 5.3801 16.9266 5.39011C16.9819 5.40858 17.0384 5.42808 17.0925 5.45024C17.1206 5.45893 17.1478 5.47002 17.1747 5.48346C17.2029 5.49453 17.2312 5.50693 17.2582 5.52037C17.2866 5.53277 17.3136 5.54621 17.3406 5.55966L10.8952 12.0077C9.74003 13.1628 9.2865 14.7984 9.68096 16.3837C10.0754 17.969 11.2427 19.2016 12.8048 19.6808L14.4491 20.1846L14.5474 20.0862L15.6288 19.005L13.2375 18.2701C12.1746 17.9443 11.3793 17.1062 11.1114 16.0275C10.8435 14.9485 11.152 13.8363 11.9373 13.05L18.5054 6.4828L18.4968 6.4741L19.1458 7.12301L12.5392 13.7295C11.9581 14.3106 11.7379 15.1317 11.9507 15.9267C12.1646 16.7218 12.7655 17.3226 13.5605 17.5341L16.3526 18.2814L17.5568 17.0771L13.9415 16.1099C13.6957 16.0448 13.5027 15.8729 13.4081 15.6417C13.3946 15.6108 13.3835 15.5789 13.3748 15.5457C13.3305 15.3785 13.3392 15.2077 13.3994 15.0505C13.44 14.9474 13.5014 14.8538 13.5824 14.7716L20.1888 8.16638L25.6696 13.6472C26.2766 14.2542 26.611 15.0616 26.611 15.9207C26.611 16.7797 26.2766 17.587 25.6696 18.1941L18.1931 25.6707C17.5861 26.2778 16.7787 26.612 15.9196 26.612C15.8692 26.612 15.8189 26.6107 15.7696 26.6083H15.7548C15.7155 26.6059 15.6773 26.6034 15.6393 26.5997C15.6259 26.5984 15.6135 26.5973 15.6 26.596C15.5621 26.5923 15.5251 26.5886 15.4869 26.5826C15.4808 26.5826 15.4745 26.5811 15.4684 26.5802C15.4524 26.5789 15.4352 26.5765 15.4181 26.5741C15.3751 26.5667 15.3332 26.5594 15.2915 26.552C15.2855 26.5496 15.2791 26.5482 15.2744 26.5482C15.2364 26.5395 15.1982 26.531 15.1613 26.5224C15.1257 26.5138 15.0901 26.5053 15.0545 26.4942C15.03 26.4882 15.0065 26.4808 14.9833 26.4744C14.9416 26.4621 14.8997 26.4486 14.8591 26.4338C14.8467 26.4288 14.8346 26.4251 14.8222 26.4203C14.8185 26.419 14.8161 26.4179 14.8124 26.4166C14.7768 26.4043 14.7423 26.3909 14.708 26.376C14.6932 26.371 14.6785 26.3637 14.6637 26.3576C14.6133 26.3355 14.563 26.3133 14.5126 26.2888C14.5076 26.2864 14.5029 26.2838 14.4978 26.2814L13.5948 27.1845C14.2866 27.6122 15.0853 27.8408 15.9199 27.8408C17.1069 27.8408 18.2229 27.3789 19.0635 26.5395L26.5387 19.0642C27.3781 18.2237 27.84 17.1077 27.84 15.9207C27.84 14.7336 27.3781 13.6177 26.5387 12.7771V12.7768Z" fill="white"/>
</g>
<defs>
<clipPath id="clip0_619_2464">
<rect width="32" height="32" fill="white"/>
</clipPath>
</defs>
</svg>
