<svg width="32" height="32" viewBox="0 0 32 32" fill="none" xmlns="http://www.w3.org/2000/svg">
<rect width="32" height="32" rx="16" fill="#8D91AB"/>
<path d="M16.0693 10.995C17.7933 10.995 19.1909 9.60822 19.1909 7.89754C19.1909 6.18684 17.7933 4.80005 16.0693 4.80005C14.3453 4.80005 12.9478 6.18684 12.9478 7.89754C12.9478 9.60822 14.3453 10.995 16.0693 10.995Z" fill="white"/>
<path d="M24.7443 17.4706C23.2514 16.6177 21.34 17.1227 20.4804 18.6041C20.1864 19.1091 20.0507 19.6703 20.062 20.2202C20.0959 21.5894 18.8518 22.2964 17.6755 21.5894C17.6303 21.5669 17.5851 21.5333 17.5285 21.5108C16.341 20.8487 16.341 19.4458 17.5285 18.7949C18.5012 18.2674 19.1685 17.2462 19.1685 16.0678C19.1685 16.0453 19.1685 16.0229 19.1685 16.0005C19.1346 14.6312 20.3786 13.9242 21.5549 14.6312C22.4936 15.2036 23.7151 15.2485 24.733 14.6649C26.2259 13.812 26.7349 11.9153 25.8753 10.4339C25.0158 8.95252 23.1044 8.44749 21.6114 9.30042C20.5936 9.88401 20.028 10.9614 20.0507 12.05C20.0846 13.4191 18.8405 14.1262 17.6755 13.4191C17.2006 13.1274 16.6463 12.9591 16.0469 12.9591C15.4475 12.9591 14.8933 13.1274 14.4183 13.4079C13.2421 14.1038 12.0093 13.3967 12.0432 12.0388C12.0658 10.939 11.5003 9.87279 10.4824 9.2892C8.98949 8.43627 7.07811 8.95252 6.21855 10.4339C5.35899 11.9153 5.87925 13.812 7.37217 14.6649C8.39007 15.2485 9.61154 15.1923 10.5503 14.6312C11.7265 13.9242 12.9593 14.6312 12.9254 16.0005C12.9254 16.0229 12.9254 16.0453 12.9254 16.0678C12.9254 17.2462 13.5814 18.2674 14.5653 18.7949C15.7528 19.457 15.7528 20.8599 14.5653 21.5108C14.52 21.5333 14.4748 21.5669 14.4296 21.5894C13.2534 22.2852 12.0206 21.5781 12.0545 20.2202C12.0658 19.6703 11.9301 19.1091 11.636 18.5929C10.7765 17.1115 8.86508 16.6065 7.37217 17.4594C5.87925 18.3347 5.3703 20.2314 6.22986 21.7128C7.08941 23.1942 9.00081 23.6992 10.4937 22.8463C10.5163 22.8351 10.5277 22.8239 10.5503 22.8126C11.7265 22.1056 12.9593 22.8126 12.9254 24.1818C12.9254 24.2042 12.9254 24.2267 12.9254 24.2603C12.9254 25.9662 14.3278 27.3578 16.0469 27.3578C17.766 27.3578 19.1685 25.9662 19.1685 24.2603C19.1685 24.2379 19.1685 24.2155 19.1685 24.193C19.1346 22.8239 20.3786 22.1169 21.5549 22.8239C21.5775 22.8351 21.6001 22.8463 21.6228 22.8688C23.1157 23.7216 25.0271 23.2167 25.8866 21.7352C26.7462 20.2202 26.2372 18.3235 24.7443 17.4706Z" fill="white"/>
</svg>
