<svg width="32" height="32" viewBox="0 0 32 32" fill="none" xmlns="http://www.w3.org/2000/svg">
<rect width="32" height="32" rx="16" fill="white"/>
<path d="M10.5032 12.0369C11.1492 12.1891 11.549 12.8344 11.3963 13.4782C11.2436 14.1219 10.5962 14.5205 9.95025 14.3683C9.3043 14.2161 8.90443 13.5708 9.05713 12.9271C9.20983 12.2833 9.85726 11.8847 10.5032 12.0369Z" fill="#00A84F"/>
<path fill-rule="evenodd" clip-rule="evenodd" d="M23.6826 17.8346C23.3783 18.3198 23.0284 18.7595 22.6481 19.1688L22.6633 19.2143C22.9718 19.3954 23.2573 19.535 23.5175 19.6622C24.6304 20.2065 25.28 20.5241 25.28 22.8836C25.28 25.7947 21.1116 28.16 16 28.16C10.8884 28.16 6.71997 25.7947 6.71997 22.8836C6.71997 21.4886 7.6784 20.215 9.23013 19.275C8.75853 18.7746 8.36299 18.244 7.99787 17.6375C7.93702 17.5162 7.87617 17.41 7.81532 17.3039C7.8001 17.2812 7.78869 17.2584 7.77728 17.2357C7.76587 17.2129 7.75446 17.1902 7.73925 17.1674C7.71999 17.1291 7.70073 17.0916 7.68172 17.0547C7.62564 16.9458 7.57171 16.841 7.52627 16.7277C7.51105 16.6974 7.49964 16.6671 7.48823 16.6368C7.47682 16.6065 7.46541 16.5761 7.4502 16.5458C7.11551 15.7574 6.88732 14.9235 6.79604 14.0441C6.78082 13.9834 6.78082 13.9379 6.78082 13.8773C6.76561 13.7257 6.7504 13.574 6.7504 13.4072V12.9372C6.7504 11.2846 7.17636 9.75318 8.01308 8.35827C8.43905 7.66081 8.92587 7.02401 9.48876 6.47817C9.50955 6.44709 9.53745 6.42308 9.56274 6.40132C9.57446 6.39124 9.58561 6.38164 9.59525 6.37204C9.73217 6.23558 9.8843 6.09912 10.0364 5.97782C10.0592 5.96266 10.0783 5.9475 10.0973 5.93233C10.1163 5.91717 10.1353 5.90201 10.1581 5.88685C10.5385 5.56844 10.9492 5.29553 11.3904 5.03777C11.649 4.88615 11.9229 4.74969 12.1967 4.6284C12.2423 4.60565 12.288 4.5867 12.3336 4.56775C12.3792 4.5488 12.4249 4.52984 12.4705 4.5071C12.6531 4.43129 12.8509 4.35548 13.0334 4.29483C13.0806 4.28014 13.1272 4.26545 13.1734 4.25087C13.3658 4.19021 13.5522 4.13146 13.7484 4.08256C13.7941 4.07498 13.8435 4.06361 13.893 4.05224C13.9424 4.04086 13.9918 4.02949 14.0375 4.02191C14.0502 4.01875 14.0622 4.01558 14.0737 4.01255C14.1174 4.00108 14.1535 3.99159 14.1896 3.99159C14.5852 3.91578 14.9807 3.87029 15.3914 3.83997H15.9848C16.928 3.83997 17.8255 3.96126 18.6775 4.23418C18.7079 4.24176 18.7383 4.25313 18.7688 4.2645C18.7992 4.27588 18.8296 4.28725 18.86 4.29483C18.8981 4.30999 18.9361 4.32136 18.9741 4.33274C19.0122 4.34411 19.0502 4.35548 19.0882 4.37064C19.1187 4.3858 19.1529 4.39717 19.1871 4.40855C19.2213 4.41992 19.2556 4.43129 19.286 4.44645C19.3012 4.44645 19.3164 4.45403 19.3316 4.46161C19.3469 4.46919 19.3621 4.47677 19.3773 4.47677C19.5294 4.53742 19.6663 4.59807 19.8185 4.67388C20.0619 4.78002 20.3053 4.90131 20.5335 5.03777C20.7617 5.17423 20.9747 5.31069 21.1724 5.44715C21.2485 5.49263 21.3398 5.55328 21.4158 5.61393C21.5071 5.67458 21.5832 5.73523 21.6592 5.79588C21.6821 5.81104 21.7011 5.8262 21.7201 5.84136C21.7391 5.85653 21.7581 5.87169 21.781 5.88685C22.6177 6.56914 23.3175 7.3879 23.8956 8.35827C24.0325 8.57054 24.1542 8.79797 24.2607 9.0254L24.4433 9.43478C24.4585 9.48027 24.4775 9.52575 24.4965 9.57124C24.5155 9.61672 24.5345 9.66221 24.5497 9.7077C24.5986 9.8172 24.6376 9.93647 24.6747 10.0498C24.6838 10.0777 24.6929 10.1053 24.7019 10.1322C24.7171 10.1777 24.7323 10.227 24.7475 10.2763C24.7627 10.3256 24.7779 10.3748 24.7932 10.4203C24.8084 10.4658 24.8198 10.5151 24.8312 10.5644C24.8426 10.6136 24.854 10.6629 24.8692 10.7084C24.8844 10.7615 24.8958 10.8145 24.9072 10.8676C24.9187 10.9207 24.9301 10.9737 24.9453 11.0268L24.9909 11.2997C25.0061 11.3452 25.0213 11.4059 25.0213 11.4665C25.0264 11.4968 25.0332 11.5271 25.0399 11.5575C25.0535 11.6181 25.067 11.6788 25.067 11.7394C25.0822 11.8456 25.0974 11.9517 25.0974 12.0578C25.1126 12.1488 25.1126 12.2549 25.1126 12.3459V12.9827C25.1126 13.665 25.0366 14.317 24.8996 14.9538C24.8236 15.2873 24.7323 15.6209 24.6106 15.9545C24.5954 16 24.5764 16.0455 24.5573 16.0909C24.5383 16.1364 24.5193 16.1819 24.5041 16.2274C24.4585 16.3639 24.3976 16.5003 24.3368 16.6368C24.2759 16.7732 24.215 16.9098 24.139 17.0462C24.0477 17.2281 23.9564 17.3949 23.8499 17.5768C23.8195 17.6223 23.7929 17.664 23.7663 17.7057C23.7396 17.7474 23.713 17.7891 23.6826 17.8346ZM22.6937 13.4527C22.785 13.5134 22.8459 13.574 22.8763 13.6498V13.665C22.9219 13.7408 22.9372 13.8318 22.9372 13.9228C22.9372 14.0137 22.9219 14.1047 22.8763 14.1805C22.8307 14.2563 22.7698 14.317 22.6937 14.3625C22.6177 14.4079 22.572 14.4231 22.4199 14.4231C22.2678 14.4231 22.1309 14.3928 22.0244 14.3018C21.9027 14.2108 21.8266 14.0895 21.7657 13.9228C21.7657 13.9228 21.4311 14.0592 21.4311 14.0744C21.4767 14.2108 21.5528 14.3321 21.644 14.4383C21.7353 14.5444 21.8418 14.6202 21.9787 14.6809C22.1156 14.7415 22.2678 14.7718 22.4199 14.7718C22.572 14.7718 22.7242 14.7415 22.8611 14.6657C22.998 14.6051 23.1045 14.4989 23.1806 14.3776C23.2566 14.2412 23.3023 14.0895 23.3023 13.9379C23.3023 13.7863 23.2718 13.6498 23.2262 13.5437C23.1653 13.4224 23.0893 13.3314 22.9828 13.2405C22.8763 13.1495 22.7242 13.0585 22.5416 12.9827L22.1765 12.8008C22.0852 12.7553 22.0244 12.7098 21.9939 12.6491C21.9483 12.5885 21.9331 12.5278 21.9331 12.452C21.9331 12.3762 21.9483 12.3004 21.9939 12.2398C22.0396 12.1791 22.1004 12.1185 22.1613 12.0881C22.2221 12.0427 22.283 12.0275 22.3895 12.0275C22.496 12.0275 22.6025 12.0427 22.6785 12.1033C22.7546 12.1488 22.8307 12.2398 22.8915 12.3611C22.8915 12.3611 23.1958 12.1791 23.1958 12.164C23.1045 12.0123 22.998 11.891 22.8611 11.8001C22.7242 11.7091 22.5264 11.6636 22.3743 11.6636C22.2221 11.6636 22.0852 11.7091 21.9635 11.7697C21.8418 11.8456 21.7505 11.9365 21.6745 12.0427C21.5984 12.164 21.568 12.2853 21.568 12.4217C21.568 12.5582 21.5984 12.6795 21.6592 12.7704C21.7201 12.8766 21.7962 12.9524 21.9027 13.0282C22.0091 13.104 22.1613 13.1798 22.3286 13.2556C22.4808 13.3163 22.6025 13.3921 22.6937 13.4527ZM20.5639 11.7697L19.1795 14.6657H19.5446L20.9138 11.7697H20.5639ZM18.8752 12.0881L18.7231 11.7697L18.7079 11.7546H18.358L19.3316 13.8015L19.5142 13.4376L18.8752 12.0881ZM16.928 13.4527C17.0192 13.5134 17.0801 13.574 17.1105 13.6498V13.665C17.1562 13.7408 17.1714 13.8318 17.1714 13.9228C17.1714 14.0137 17.1562 14.1047 17.1105 14.1805C17.0649 14.2563 17.004 14.317 16.928 14.3625C16.8519 14.4079 16.8063 14.4231 16.6541 14.4231C16.502 14.4231 16.3651 14.3928 16.2586 14.3018C16.1369 14.2108 16.0608 14.0895 16 13.9228C16 13.9228 15.6653 14.0592 15.6653 14.0744C15.7109 14.2108 15.787 14.3321 15.8783 14.4383C15.9695 14.5444 16.076 14.6202 16.213 14.6809C16.3499 14.7415 16.502 14.7718 16.6541 14.7718C16.8063 14.7718 16.9584 14.7415 17.0953 14.6657C17.2322 14.6051 17.3387 14.4989 17.4148 14.3776C17.4909 14.2412 17.5365 14.0895 17.5365 13.9379C17.5365 13.7863 17.5061 13.6498 17.4604 13.5437C17.3996 13.4224 17.3235 13.3314 17.217 13.2405C17.1105 13.1495 16.9584 13.0585 16.7758 12.9827L16.4107 12.8008C16.3194 12.7553 16.2586 12.7098 16.2282 12.6491C16.1825 12.5885 16.1673 12.5278 16.1673 12.452C16.1673 12.3762 16.1825 12.3004 16.2282 12.2398C16.2738 12.1791 16.3347 12.1185 16.3955 12.0881C16.4564 12.0427 16.5172 12.0275 16.6237 12.0275C16.7302 12.0275 16.8367 12.0427 16.9128 12.1033C16.9888 12.1488 17.0649 12.2398 17.1257 12.3611C17.1257 12.3611 17.43 12.1791 17.43 12.164C17.3387 12.0123 17.2322 11.891 17.0953 11.8001C16.9584 11.7091 16.7606 11.6636 16.6085 11.6636C16.4564 11.6636 16.3194 11.7091 16.1977 11.7697C16.076 11.8456 15.9848 11.9365 15.9087 12.0427C15.8326 12.164 15.8022 12.2853 15.8022 12.4217C15.8022 12.5582 15.8326 12.6795 15.8935 12.7704C15.9543 12.8766 16.0304 12.9524 16.1369 13.0282C16.2434 13.104 16.3955 13.1798 16.5629 13.2556C16.715 13.3163 16.8367 13.3921 16.928 13.4527ZM15.0344 14.6505H14.6916L14.5395 14.3321L13.7028 12.5885L13.8853 12.2246L15.0344 14.6505ZM13.8549 11.7546H13.4898L12.1206 14.6505H12.4705L13.8549 11.7546ZM10.219 11.6636C9.36705 11.6636 8.68246 12.3459 8.68246 13.195C8.68246 14.0441 9.36705 14.7263 10.219 14.7263C11.0709 14.7263 11.7555 14.0441 11.7555 13.195C11.7555 12.3459 11.0709 11.6636 10.219 11.6636ZM7.90659 22.8229C7.90659 23.6113 8.40863 24.3998 9.33663 25.0821C9.28235 24.9784 9.23614 24.9444 9.198 24.9163C9.10786 24.85 9.06279 24.8169 9.06279 23.9752C9.06279 22.7774 10.006 21.7009 11.4817 20.9731C11.4589 20.958 11.436 20.9466 11.4132 20.9352C11.3904 20.9239 11.3676 20.9125 11.3448 20.8973C10.9949 20.6851 10.6754 20.4728 10.3559 20.2302L10.1277 20.0482C10.1157 20.0542 10.1061 20.0626 10.0969 20.0705C10.0829 20.0826 10.0701 20.0937 10.0516 20.0937C8.66725 20.8822 7.90659 21.8374 7.90659 22.8229ZM12.7444 25.3701C12.7444 25.8402 13.9006 26.7499 16 26.7499C18.0994 26.7499 19.2556 25.8402 19.2556 25.3701C19.2556 24.9001 18.0994 23.9904 16 23.9904C13.9006 23.9904 12.7444 24.9001 12.7444 25.3701ZM20.4121 25.6861C20.4272 25.5808 20.4422 25.4755 20.4422 25.3701C20.4422 23.9601 18.4493 22.8077 15.9848 22.8077C13.5202 22.8077 11.5273 23.9601 11.5273 25.3701C11.5273 25.4876 11.5273 25.5869 11.5273 25.6704C10.7239 25.1887 10.2342 24.6043 10.2342 23.9904C10.2342 23.0503 11.3752 22.1709 13.003 21.6554C13.0638 21.6782 13.1247 21.6971 13.1855 21.7161C13.2464 21.735 13.3072 21.754 13.3681 21.7767C13.5963 21.8374 13.8397 21.898 14.0679 21.9435C14.1135 21.9435 14.1592 21.9587 14.2048 21.9738C14.3294 22.0014 14.4666 22.0165 14.5934 22.0304C14.606 22.0318 14.6185 22.0331 14.6308 22.0345C14.6764 22.0345 14.7221 22.0345 14.7829 22.0496C15.1176 22.0951 15.4675 22.1103 15.8174 22.1103C16.3803 22.1103 16.928 22.0648 17.4604 21.9738H17.5061C17.7799 21.9283 18.0537 21.8677 18.3124 21.7919C18.3428 21.7919 18.358 21.7919 18.3884 21.7767C18.4645 21.754 18.5367 21.7312 18.609 21.7085C18.6813 21.6858 18.7535 21.663 18.8296 21.6403C20.5031 22.1406 21.7049 23.0503 21.7049 24.0056C21.7049 24.9468 21.2174 25.2255 20.4172 25.6832L20.4121 25.6861ZM11.5515 25.6848C11.5534 25.68 11.5555 25.6807 11.5577 25.6885C11.5556 25.6873 11.5536 25.6861 11.5515 25.6848ZM22.9219 23.9752C22.9219 24.3543 22.8307 24.7333 22.6481 25.0821C23.5761 24.3998 24.0781 23.8084 24.0781 22.8229C24.0781 21.8374 23.3175 20.867 21.9331 20.0937L21.7505 20.0028C21.3398 20.3212 20.9138 20.6244 20.4574 20.8822C20.4498 20.8822 20.4384 20.8897 20.427 20.8973C20.4156 20.9049 20.4042 20.9125 20.3966 20.9125C21.9331 21.6403 22.9219 22.7471 22.9219 23.9752Z" fill="#00A84F"/>
</svg>
