<svg width="32" height="32" viewBox="0 0 32 32" fill="none" xmlns="http://www.w3.org/2000/svg">
<g clip-path="url(#clip0_661_2483)">
<path d="M32 16C32 7.16344 24.8366 0 16 0C7.16344 0 0 7.16344 0 16C0 24.8366 7.16344 32 16 32C24.8366 32 32 24.8366 32 16Z" fill="#8D91AB"/>
<path d="M26.7262 20.4758L22.8878 15.2735C22.4708 14.7082 21.8534 14.3696 21.1958 14.295C21.0462 14.2776 20.9126 14.191 20.8377 14.0603C20.7615 13.9296 20.7534 13.771 20.8135 13.6323C21.0769 13.0271 21.0929 12.3245 20.8097 11.6819L18.2127 5.76504C17.8279 4.88645 16.9578 4.31982 15.9968 4.31982C15.036 4.31982 14.1659 4.88778 13.781 5.76504L11.1842 11.6819C10.9022 12.3245 10.9169 13.0271 11.1802 13.6323C11.2403 13.771 11.231 13.9296 11.1561 14.0603C11.0799 14.191 10.9476 14.2776 10.7979 14.295C10.1404 14.3696 9.52292 14.7082 9.10595 15.2735L5.26755 20.4758C4.6982 21.2477 4.64073 22.2822 5.12052 23.1128C5.60166 23.9421 6.5292 24.4101 7.48344 24.3048L13.9186 23.5902C14.6176 23.5128 15.2204 23.1489 15.6133 22.6182C15.7029 22.4969 15.8459 22.4249 15.9968 22.4249C16.1479 22.4249 16.2895 22.4969 16.3806 22.6182C16.7734 23.1489 17.3762 23.5128 18.0751 23.5902L24.5103 24.3048C25.4646 24.4115 26.3921 23.9435 26.8732 23.1128C27.353 22.2822 27.2956 21.2477 26.7262 20.4758ZM12.8628 12.4245L15.4636 6.50098C15.5572 6.28899 15.767 6.15166 15.9982 6.15166C16.2294 6.15166 16.4393 6.28899 16.5329 6.50098L19.1337 12.4245C19.2151 12.6111 19.1978 12.8271 19.0855 12.9977C18.9732 13.1684 18.7834 13.271 18.5777 13.271H13.4175C13.213 13.271 13.0219 13.1684 12.9096 12.9977C12.7973 12.8271 12.7799 12.6111 12.8615 12.4245H12.8628ZM14.1979 21.4424C14.1057 21.6249 13.9267 21.7477 13.7235 21.7702L7.28163 22.4849C7.05176 22.5102 6.82723 22.3984 6.71096 22.1982C6.59467 21.9982 6.60939 21.7489 6.74703 21.5624L10.5895 16.3549C10.7111 16.1909 10.9062 16.0974 11.1107 16.1094C11.3152 16.1201 11.4996 16.2334 11.6025 16.4107L11.6065 16.4174L14.1793 20.8624L14.1833 20.8691C14.2862 21.0464 14.2915 21.2624 14.1993 21.4437L14.1979 21.4424ZM16.5262 19.4318C16.4166 19.6198 16.2161 19.7371 15.9968 19.7371C15.779 19.7371 15.5773 19.6213 15.4676 19.4331L13.491 16.0189C13.3814 15.8308 13.3814 15.5975 13.491 15.4096C13.6006 15.2215 13.8011 15.1042 14.0202 15.1042H17.9722C18.1902 15.1042 18.3918 15.2189 18.5015 15.4082C18.6111 15.5975 18.6111 15.8295 18.5015 16.0174L16.5262 19.4318ZM25.2841 22.1982C25.1679 22.3984 24.9447 22.5117 24.7135 22.4862L18.2716 21.7717C18.0684 21.7489 17.8894 21.6264 17.7972 21.4437C17.7049 21.2611 17.7103 21.0449 17.8132 20.8691L17.8172 20.8624L20.39 16.4174L20.3938 16.4107C20.4969 16.2334 20.6812 16.1201 20.8857 16.1094C21.0903 16.0989 21.2854 16.1909 21.407 16.3549L25.2494 21.5624C25.3871 21.7489 25.4004 21.9982 25.2855 22.1982H25.2841Z" fill="white"/>
</g>
<defs>
<clipPath id="clip0_661_2483">
<rect width="32" height="32" fill="white"/>
</clipPath>
</defs>
</svg>
