<svg width="32" height="32" viewBox="0 0 32 32" fill="none" xmlns="http://www.w3.org/2000/svg">
<g clip-path="url(#clip0_641_2507)">
<path d="M16 32C24.8365 32 32 24.8365 32 16C32 7.16344 24.8365 0 16 0C7.16344 0 0 7.16344 0 16C0 24.8365 7.16344 32 16 32Z" fill="#8D91AB"/>
<path d="M16.5 4V12.87L23.9971 16.22L16.5 4Z" fill="white" fill-opacity="0.602"/>
<path d="M16.4979 4L9 16.22L16.4979 12.87V4Z" fill="white"/>
<path d="M16.5 21.9692V27.9962L24.0021 17.6172L16.5 21.9692Z" fill="white" fill-opacity="0.602"/>
<path d="M16.4979 27.9962V21.9682L9 17.6172L16.4979 27.9962Z" fill="white"/>
<path d="M16.5 20.574L23.9971 16.221L16.5 12.873V20.574Z" fill="white" fill-opacity="0.2"/>
<path d="M9 16.221L16.4979 20.574V12.873L9 16.221Z" fill="white" fill-opacity="0.602"/>
</g>
<defs>
<clipPath id="clip0_641_2507">
<rect width="32" height="32" fill="white"/>
</clipPath>
</defs>
</svg>
