<svg width="32" height="32" viewBox="0 0 32 32" fill="none" xmlns="http://www.w3.org/2000/svg">
<rect width="32" height="32" rx="16" fill="#8D91AB"/>
<path fill-rule="evenodd" clip-rule="evenodd" d="M25.1266 18.5917C25.7034 18.257 26.0666 17.7798 26.0713 17.0993C26.085 15.1663 26.0803 13.2332 26.0733 11.3C26.0713 10.7831 25.8622 10.3336 25.4475 10.0372C25.134 9.81308 24.8003 9.61729 24.4496 9.41138C24.2912 9.31855 24.129 9.22353 23.9639 9.12294V9.51366C23.9639 11.7483 23.9555 13.983 23.9712 16.2173C23.9743 16.6465 23.8151 16.9017 23.4527 17.1101C22.2578 17.7974 21.0669 18.4911 19.8757 19.1847C19.0359 19.674 18.1961 20.1633 17.355 20.6503C17.2448 20.7141 17.1818 20.7811 17.155 20.8785C17.1433 20.9205 17.1386 20.9682 17.1396 21.0238C17.1453 21.3526 17.1463 21.6815 17.146 22.0105C17.1456 22.3288 17.1443 22.6473 17.1446 22.9656C17.1446 23.011 17.148 23.0564 17.1517 23.1099C17.1543 23.1448 17.1574 23.1831 17.16 23.2272L18.4166 22.4977L20.3832 21.3517C21.9637 20.4307 23.5441 19.5097 25.1266 18.5917ZM25.1487 22.5546C25.6619 22.2569 26.0096 21.8322 26.0572 21.2342C26.0997 20.6977 26.0662 20.1549 26.0662 19.5724C26.0076 19.6008 25.9667 19.6187 25.9322 19.6361C25.9188 19.6428 25.9061 19.6496 25.894 19.6567C23.0336 21.3222 20.1742 22.989 17.3121 24.6509C17.224 24.7018 17.1778 24.7584 17.1563 24.8323C17.145 24.8725 17.1406 24.9175 17.1409 24.9697C17.1456 25.4158 17.1453 25.862 17.145 26.3083C17.1446 26.5182 17.1443 26.7282 17.1446 26.9382C17.145 26.9881 17.1486 27.0381 17.153 27.0963C17.1553 27.1258 17.1577 27.1574 17.1597 27.1922L17.2501 27.1447C17.3098 27.1137 17.3614 27.0869 17.4116 27.0577C18.0283 26.6997 18.6443 26.3408 19.2607 25.982C21.223 24.8394 23.1844 23.6944 25.1487 22.5546ZM12.1849 9.27619C12.5286 9.07348 12.822 9.07146 13.166 9.27551C14.1877 9.88194 15.2155 10.4789 16.2428 11.0757L19.256 12.8292C19.256 12.0124 19.261 11.2513 19.248 10.4904C19.2473 10.4563 19.2279 10.4175 19.1997 10.3807C19.1642 10.3346 19.115 10.2919 19.0714 10.2664C17.2411 9.19383 15.4084 8.12629 13.5744 7.06062C12.9851 6.71799 12.3842 6.70972 11.7946 7.051C10.4647 7.81996 9.13786 8.59432 7.81099 9.36868L6.95678 9.86709C6.61878 10.0642 6.36353 10.343 6.22685 10.7127C6.06171 11.1589 6.0741 11.6151 6.08683 12.0867C6.09319 12.3296 6.09989 12.5767 6.08248 12.8285L6.21881 12.7542C6.28748 12.7168 6.34075 12.6879 6.39267 12.6575L7.7383 11.874C9.22227 11.0109 10.7059 10.1478 12.1849 9.27619ZM14.858 23.1352L15.0369 23.2378C15.0369 22.4736 15.0295 21.7656 15.0416 21.058C15.0453 20.8569 14.9907 20.7433 14.8098 20.6408C14.3532 20.3822 13.8996 20.1181 13.4464 19.8536C12.9875 19.5858 12.5286 19.3176 12.0669 19.0548C11.7477 18.8732 11.6074 18.6246 11.6154 18.2556C11.6295 17.6087 11.6194 16.9614 11.6194 16.3141V15.1195L11.5467 15.1538C11.5082 15.1715 11.4791 15.185 11.4512 15.2012C11.2727 15.3048 11.0945 15.4091 10.9163 15.5134C10.5019 15.7558 10.0875 15.9982 9.66947 16.2336C9.52845 16.3131 9.50567 16.4127 9.50634 16.5567C9.51069 17.6203 9.51471 18.6843 9.50332 19.7481C9.50098 19.9542 9.5663 20.0621 9.74183 20.1632C10.9843 20.8796 12.2237 21.6018 13.4628 22.3241L14.6038 22.9887C14.6842 23.0356 14.7649 23.0819 14.858 23.1352ZM14.9364 27.149L15.0372 27.2008C15.0372 26.9878 15.0366 26.7787 15.0359 26.5722C15.0339 26.044 15.0322 25.5339 15.0429 25.0242C15.0476 24.8151 14.9736 24.7114 14.8011 24.6115C13.8641 24.0696 12.9285 23.5249 11.9929 22.9804C10.8891 22.3381 9.78571 21.6957 8.67993 21.0577C8.35333 20.8692 8.20325 20.6276 8.20627 20.245C8.21766 18.8617 8.21665 17.4782 8.2066 16.0949C8.20392 15.7232 8.35098 15.4859 8.66854 15.3026C10.6051 14.1846 12.5353 13.0555 14.4671 11.9296C14.5364 11.8892 14.6048 11.8479 14.6845 11.7998L14.783 11.7404C14.6095 11.6393 14.438 11.54 14.2681 11.4418C13.7965 11.1685 13.3375 10.9029 12.8843 10.6279C12.7235 10.5307 12.6106 10.5454 12.4565 10.6359C10.6717 11.6823 8.88695 12.7288 7.09278 13.7585C6.40339 14.1541 6.08315 14.7279 6.0875 15.5209C6.09621 17.2769 6.09956 19.0328 6.08549 20.7887C6.07879 21.6142 6.4054 22.2019 7.12226 22.6149C8.94792 23.6662 10.7682 24.7275 12.5882 25.7889C13.3158 26.2132 14.0433 26.6376 14.7713 27.0612C14.8225 27.0911 14.8754 27.1179 14.9364 27.149ZM16.8867 5.02024C16.4077 4.74479 15.8854 4.72825 15.391 4.97281C15.0657 5.13383 14.7525 5.31915 14.4272 5.51139C14.2812 5.5978 14.1328 5.68557 13.9797 5.77333L14.0892 5.84084C14.1582 5.88338 14.2135 5.91781 14.2698 5.95038C16.1936 7.07142 18.1134 8.19921 20.0449 9.3064C20.4221 9.52278 20.5688 9.79924 20.5668 10.2283C20.5551 12.4621 20.5611 14.696 20.5611 16.93V17.2716L21.0462 16.9903C21.5654 16.689 22.0602 16.4022 22.5499 16.1079C22.6136 16.0696 22.6651 15.9528 22.6655 15.8723C22.6712 13.7004 22.6752 11.5284 22.6651 9.35653C22.6625 8.73728 22.3911 8.23178 21.8595 7.91734C21.139 7.49134 20.4174 7.0677 19.6945 6.64592C18.7602 6.10093 17.8243 5.55915 16.8867 5.02024Z" fill="white"/>
</svg>
