<svg width="32" height="32" viewBox="0 0 32 32" fill="none" xmlns="http://www.w3.org/2000/svg">
<path d="M27.5377 17.5837C27.5377 18.6384 27.5377 19.6932 27.5377 20.748C27.3748 20.8874 27.1725 20.8786 26.9757 20.8787C21.9057 20.8812 16.8356 20.8823 11.7657 20.8779C11.0853 20.8773 10.9592 20.7517 10.9581 20.0816C10.953 17.3373 10.9532 14.5932 10.958 11.849C10.9591 11.1636 11.0839 11.0443 11.8 11.0435C15.6555 11.0394 19.5109 11.0421 23.3663 11.0416C24.1776 11.0415 24.1782 11.0409 24.1782 10.2596C24.1781 9.74592 24.1738 9.23211 24.179 8.71853C24.1819 8.42912 24.0577 8.29289 23.7514 8.30535C23.5964 8.31162 23.4407 8.30446 23.2854 8.30446C17.354 8.30435 11.4224 8.30469 5.491 8.30413C4.61112 8.30402 4.6011 8.3027 4.614 7.4738C4.62678 6.65185 4.55781 5.82857 4.65223 5.00783C12.1677 5.00783 19.6832 5.00992 27.1987 5C27.489 4.99967 27.5473 5.05434 27.5462 5.3324C27.5327 8.33433 27.5377 11.3364 27.5377 14.3383C27.3194 14.5123 27.0559 14.4673 26.8064 14.4676C23.0102 14.4705 19.2141 14.4694 15.4179 14.4697C14.5371 14.4698 14.5367 14.4704 14.5369 15.3127C14.537 15.8665 14.5293 16.4204 14.54 16.9741C14.548 17.3848 14.603 17.4327 15.037 17.4492C15.3049 17.4593 15.5731 17.4524 15.8413 17.4524C19.4964 17.4527 23.1513 17.4515 26.8064 17.4546C27.0559 17.4546 27.3194 17.4096 27.5377 17.5837Z" fill="white"/>
<path d="M27.5373 26.8321C20.0644 26.8321 12.5917 26.8299 5.1189 26.8392C4.77233 26.8396 4.64718 26.7947 4.64845 26.4138C4.66537 21.4648 4.66307 16.5158 4.65179 11.5668C4.6511 11.2498 4.73238 11.1625 5.06386 11.1726C5.86821 11.1972 6.67441 11.1956 7.47898 11.174C7.84639 11.1642 7.95911 11.2719 7.95796 11.6327C7.94484 15.5811 7.95232 19.5296 7.9438 23.4779C7.94322 23.7412 7.9796 23.8458 8.29761 23.8452C14.6686 23.8351 21.0397 23.8376 27.4107 23.8372C27.453 23.8372 27.4951 23.8328 27.5374 23.8303C27.5373 24.8308 27.5373 25.8315 27.5373 26.8321Z" fill="white"/>
</svg>
