<svg width="32" height="32" viewBox="0 0 32 32" fill="none" xmlns="http://www.w3.org/2000/svg">
<g clip-path="url(#clip0_624_2500)">
<path d="M32 16C32 7.16344 24.8366 0 16 0C7.16344 0 0 7.16344 0 16C0 24.8366 7.16344 32 16 32C24.8366 32 32 24.8366 32 16Z" fill="#8D91AB"/>
<path fill-rule="evenodd" clip-rule="evenodd" d="M12.4439 6.23353C12.5801 6.13308 12.7448 6.0793 12.9137 6.08009C12.9931 6.08053 13.0721 6.09308 13.1478 6.11729C13.1478 6.11729 14.8544 6.60012 15.2551 8.27489C15.4662 9.15569 15.9407 9.51591 16.5659 9.76289C16.9109 9.89911 17.2857 9.96532 17.6427 10.0031V9.25449C17.6427 8.37756 18.3485 7.66729 19.22 7.66729C20.0915 7.66729 20.7973 8.37756 20.7973 9.25449V10.8417C20.7973 11.0522 20.7142 11.254 20.5662 11.4028C20.4184 11.5516 20.2177 11.6353 20.0086 11.6353C18.6963 11.871 18.4313 13.2907 18.4313 14.0161C18.4313 16.0524 19.9598 18.7716 22.2838 18.7716C22.3952 18.7585 22.5081 18.7695 22.615 18.8039C23.2731 19.0159 23.0251 19.6849 23.3651 20.1215C24.2534 21.2623 25.5294 21.7948 25.5294 23.5393C25.5294 24.4897 24.9211 25.2618 24.2293 25.5745C23.5376 25.8869 22.7979 25.9201 22.119 25.9201C19.392 25.9201 17.5989 24.0479 16.8032 23.403C13.9617 21.0977 11.6955 18.0106 8.97959 15.5661C6.85929 13.6577 6.60583 10.9238 6.60583 10.9238C6.58719 10.7442 6.62994 10.5634 6.72706 10.4115C6.82428 10.2596 6.9701 10.1456 7.14033 10.0884L9.15518 9.41258C9.29436 9.04601 9.53958 8.5298 10.1102 8.03773C10.8039 7.43956 12.4439 6.23353 12.4439 6.23353ZM13.7209 8.64689C13.615 8.2045 13.2715 7.96018 12.9969 7.80677C12.5862 8.11348 11.5857 8.85597 11.1361 9.24362C10.9383 9.4142 10.7834 9.67644 10.6739 9.89929L11.9001 11.457C12.5674 12.2609 11.254 13.2359 10.6632 12.4413L9.50486 10.9688L8.32954 11.364C8.46881 12.0287 8.81036 13.2826 10.0316 14.3819C12.7253 16.8063 14.9758 19.8815 17.7936 22.1676C18.6728 22.8804 19.812 24.0269 21.4627 24.2786C19.1709 22.6037 15.6887 18.8135 14.488 16.3969C14.689 16.6366 15.3823 17.053 15.6402 16.8681C15.9201 16.6665 15.9723 16.2911 15.7988 16.0094C15.6127 15.7131 15.2799 15.375 14.9332 15.0229C14.3366 14.417 13.6992 13.7696 13.6992 13.2225C13.6992 12.6797 14.0462 12.4289 14.488 12.4289C14.9296 12.4289 15.3074 13.2163 16.0653 13.2163C16.3989 13.2163 16.8541 13.0082 16.8541 12.4289C16.8541 11.9661 16.6032 11.4186 16.1238 11.283C14.9286 10.9449 14.0033 9.82529 13.7209 8.64689ZM22.1237 21.1012C21.9704 20.9044 21.8347 20.6661 21.7369 20.3989C21.2502 20.4519 20.7973 20.6129 20.7973 21.1631C20.7973 22.7717 22.5873 23.6415 23.7549 24.0446C23.9099 23.9593 23.952 23.8695 23.952 23.5393C23.952 22.4023 22.744 21.8977 22.1237 21.1012Z" fill="white"/>
<path d="M21.879 12.4759C22.6073 12.7724 22.4036 13.7346 22.013 14.2269C21.6873 14.6374 21.0111 14.9636 20.4894 14.7526C19.9718 14.5433 19.8318 13.8457 20.2295 13.451C20.3785 13.3033 20.5855 13.2196 20.7945 13.2225C20.7871 12.6732 21.3612 12.2651 21.879 12.4759Z" fill="white"/>
<path d="M21.8102 15.0393C22.1137 14.7247 22.6275 14.7234 22.9333 15.0305C23.3625 15.4617 23.1358 16.1915 22.8057 16.6075C22.5537 16.9251 22.0973 17.1903 21.5873 17.1903C21.2678 17.1949 20.971 16.9978 20.8486 16.7031C20.6342 16.1875 21.0259 15.5951 21.5873 15.6031C21.5845 15.3929 21.6646 15.1901 21.8102 15.0393Z" fill="white"/>
</g>
<defs>
<clipPath id="clip0_624_2500">
<rect width="32" height="32" fill="white"/>
</clipPath>
</defs>
</svg>
