<svg width="32" height="32" viewBox="0 0 32 32" fill="none" xmlns="http://www.w3.org/2000/svg">
<rect width="32" height="32" rx="16" fill="#8D91AB"/>
<path d="M28.2862 13.5165C28.1205 12.7114 27.8755 11.9248 27.5548 11.168C27.2387 10.4226 26.852 9.70919 26.3999 9.03752C25.9517 8.37394 25.4403 7.75522 24.8731 7.18998C24.3075 6.62266 23.6884 6.11133 23.0245 5.66312C22.3518 5.21332 21.639 4.82673 20.8951 4.50828C19.3566 3.85579 17.7026 3.51953 16.0315 3.51953C14.3604 3.51953 12.7064 3.85579 11.168 4.50828C9.68038 5.13575 8.32922 6.04697 7.18998 7.19103C6.62277 7.75593 6.11144 8.3743 5.66312 9.03752C5.21326 9.71052 4.82667 10.4237 4.50828 11.168C3.85579 12.7064 3.51953 14.3604 3.51953 16.0315C3.51953 17.7026 3.85579 19.3566 4.50828 20.8951C4.81638 21.6391 5.2146 22.3444 5.66312 23.0245C6.11142 23.6884 6.62274 24.3074 7.18998 24.8731C7.75555 25.4404 8.37462 25.9517 9.03857 26.3999C9.70506 26.8485 10.424 27.2341 11.168 27.5548C12.7064 28.2073 14.3604 28.5435 16.0315 28.5435C17.7026 28.5435 19.3566 28.2073 20.8951 27.5548C21.6391 27.2467 22.3444 26.8485 23.0245 26.3999C23.6884 25.9517 24.3075 25.4404 24.8731 24.8731C25.4404 24.3075 25.9517 23.6884 26.3999 23.0245C26.8485 22.358 27.2341 21.6391 27.5548 20.8951C28.542 18.5668 28.7971 15.9932 28.2862 13.5165ZM16.0431 26.9774C9.99953 26.9774 5.11085 22.0751 5.11085 16.0441C5.11085 10.0132 10.0132 5.11085 16.0431 5.11085C22.074 5.11085 26.9763 10.0132 26.9763 16.0441C26.9763 22.0751 22.0751 26.9774 16.0431 26.9774Z" fill="white"/>
<path d="M16.2367 26.0277H16.5322C16.5836 26.0277 16.6339 26.0277 16.6852 26.0141H16.6988C16.7502 26.0141 16.7879 26.0141 16.8393 26.0015H16.878C16.9168 26.0015 16.9556 26.0015 16.9933 25.9889H17.0321C17.0709 25.9889 17.1096 25.9764 17.161 25.9764H17.1861C17.2375 25.9764 17.2888 25.9627 17.3402 25.9627C17.3915 25.9627 17.4303 25.9502 17.4817 25.9376H17.5068C17.5456 25.9376 17.5843 25.925 17.6221 25.925H17.6483C17.6996 25.9114 17.7384 25.9114 17.7897 25.8988C17.8914 25.8862 17.9941 25.86 18.0842 25.8349H18.1104C18.1481 25.8223 18.1995 25.8223 18.2383 25.8087H18.2508C18.3535 25.7835 18.4437 25.7573 18.5464 25.7322C17.5852 25.7627 16.624 25.6722 15.6855 25.4629C14.2728 25.1548 12.9262 24.6035 11.784 23.6531C10.8834 22.9036 10.1607 21.9634 9.66813 20.9005C9.17552 19.8375 8.92532 18.6783 8.93562 17.5068C8.94487 15.7591 9.56676 14.0699 10.693 12.7334C12.156 11.0012 14.2351 10.0894 16.3645 10.0381H16.6601V8.33203H16.3268C15.679 8.3439 15.034 8.42114 14.4017 8.56258C13.7654 8.70646 13.1462 8.91722 12.5542 9.19135C11.9506 9.4743 11.3857 9.82012 10.8597 10.2183C10.316 10.6316 9.82104 11.1051 9.38415 11.6299C8.97279 12.1156 8.61576 12.6448 8.31943 13.2081C8.02627 13.7512 7.78959 14.3229 7.61311 14.9142C7.44 15.4964 7.32418 16.0941 7.26729 16.6989L7.22852 17.2627V17.5959C7.24109 18.2509 7.31864 18.8922 7.45906 19.521C7.60054 20.1634 7.81851 20.7785 8.08783 21.3696C8.40955 22.0748 8.98697 23.1144 9.84629 23.8972C11.6009 25.2804 13.7709 26.0311 16.0051 26.0277H16.2367Z" fill="white"/>
<path d="M19.033 24.3846C18.4 24.362 17.7696 24.2933 17.1467 24.1792C14.5037 23.7045 12.2318 22.0875 11.3987 19.6499C10.3842 16.6853 11.9373 13.4775 14.8883 12.5029C15.4507 12.3145 16.04 12.2189 16.6332 12.22C17.3908 12.22 18.1475 12.374 18.8412 12.6559L19.559 11.1291C19.3432 11.0425 19.1251 10.9614 18.9051 10.8859C18.1699 10.6552 17.4037 10.5382 16.6332 10.5391C15.8611 10.5405 15.0944 10.6661 14.3623 10.9111C13.4279 11.2193 12.5673 11.7174 11.8346 12.374C11.4812 12.6888 11.1591 13.0369 10.8726 13.4136C10.5894 13.7859 10.3443 14.1858 10.1411 14.6072C9.72734 15.4544 9.48313 16.3743 9.42223 17.3151C9.3583 18.2897 9.48615 19.2643 9.80682 20.1886C10.1336 21.1394 10.6587 22.0099 11.3473 22.7424C11.9761 23.4226 12.7075 23.9361 13.592 24.4108C14.5163 24.8981 15.6586 25.1548 16.8511 25.3225C17.6214 25.4241 18.6484 25.4503 19.2509 25.4503C19.777 25.2575 19.995 25.1674 20.2779 25.0521C20.5221 24.9368 20.7652 24.8216 21.0094 24.6801C21.2536 24.5386 21.2923 24.5124 21.7021 24.2441C21.7386 24.2214 21.773 24.1955 21.8048 24.1666C20.3932 24.4108 20.0338 24.3971 19.033 24.3846Z" fill="white"/>
<path d="M22.1907 22.474C21.7924 22.4992 21.2276 22.5369 20.5862 22.5369C19.444 22.5369 18.045 22.4353 16.8524 22.037C15.0038 21.4219 13.259 19.8437 13.259 17.8924C13.2586 17.4306 13.3492 16.9732 13.5258 16.5464C13.7023 16.1197 13.9613 15.7319 14.2878 15.4054C14.6144 15.0788 15.0022 14.8199 15.4289 14.6433C15.8557 14.4668 16.313 14.3761 16.7749 14.3765C18.0963 14.3765 19.2386 15.108 19.8422 16.1727L21.3691 15.4161C21.1297 14.9654 20.8221 14.5543 20.4574 14.1973C19.974 13.7131 19.3999 13.329 18.7679 13.0669C18.1359 12.8048 17.4585 12.6699 16.7743 12.6699C16.0902 12.6699 15.4127 12.8048 14.7807 13.0669C14.1488 13.329 13.5747 13.7131 13.0913 14.1973C12.6073 14.6807 12.2233 15.2547 11.9613 15.8866C11.6993 16.5185 11.5645 17.1958 11.5645 17.8798C11.5679 18.5967 11.7214 19.305 12.0151 19.959C12.2833 20.5489 12.6564 21.1012 13.1311 21.6147C13.9653 22.5118 15.1065 23.2306 16.3263 23.6414C17.4937 24.026 19.2134 24.1675 20.8818 24.0522C21.3429 24.0135 21.6897 23.9747 22.2797 23.8468C22.8491 23.3975 23.3659 22.8853 23.8202 22.32C23.422 22.3588 22.6905 22.4353 22.1907 22.474Z" fill="white"/>
</svg>
