<svg width="32" height="32" viewBox="0 0 32 32" fill="none" xmlns="http://www.w3.org/2000/svg">
<rect width="32" height="32" rx="16" fill="#8D91AB"/>
<path d="M5.2793 12.6985V12.1602H8.55751V12.6985L7.61166 12.8131C7.60449 13.2866 7.59732 13.7677 7.59017 14.2564C7.59017 14.7375 7.59017 15.2224 7.59017 15.7112V16.41C7.59017 16.8147 7.59017 17.25 7.59017 17.7157C7.59732 18.1816 7.60449 18.655 7.61166 19.1362H9.7828L10.0838 17.5554H10.8361L10.7286 19.7547H5.2793V19.2163L6.18215 19.1132C6.19648 18.6321 6.20365 18.1587 6.20365 17.6928C6.20365 17.2194 6.20365 16.7651 6.20365 16.3298V15.7112C6.20365 15.2148 6.20365 14.7261 6.20365 14.2449C6.20365 13.7562 6.19648 13.2751 6.18215 12.8016L5.2793 12.6985Z" fill="white"/>
<path d="M14.1783 19.9151C13.6909 19.9151 13.2503 19.8004 12.8562 19.5713C12.4692 19.3422 12.1611 19.0102 11.9318 18.5749C11.7025 18.1396 11.5879 17.6202 11.5879 17.017C11.5879 16.4061 11.7061 15.8829 11.9426 15.4476C12.1862 15.0123 12.5051 14.6802 12.8992 14.4511C13.2933 14.222 13.7196 14.1074 14.1783 14.1074C14.6368 14.1074 15.0631 14.222 15.4573 14.4511C15.8514 14.6802 16.1703 15.0123 16.4139 15.4476C16.6575 15.8753 16.7793 16.3984 16.7793 17.017C16.7793 17.6279 16.6611 18.151 16.4246 18.5863C16.1953 19.0139 15.8836 19.3422 15.4894 19.5713C15.1026 19.8004 14.6655 19.9151 14.1783 19.9151ZM14.1783 19.3538C14.5651 19.3538 14.859 19.1629 15.0595 18.7811C15.2674 18.3992 15.3712 17.8149 15.3712 17.0284C15.3712 15.4553 14.9736 14.6687 14.1783 14.6687C13.39 14.6687 12.9959 15.4553 12.9959 17.0284C12.9959 17.8149 13.0962 18.3992 13.2969 18.7811C13.4975 19.1629 13.7913 19.3538 14.1783 19.3538Z" fill="white"/>
<path d="M20.2016 19.9151C19.7143 19.9151 19.2736 19.8004 18.8796 19.5713C18.4926 19.3422 18.1845 19.0102 17.9553 18.5749C17.7259 18.1396 17.6113 17.6202 17.6113 17.017C17.6113 16.4061 17.7295 15.8829 17.9659 15.4476C18.2097 15.0123 18.5284 14.6802 18.9226 14.4511C19.3167 14.222 19.743 14.1074 20.2016 14.1074C20.6602 14.1074 21.0865 14.222 21.4807 14.4511C21.8747 14.6802 22.1936 15.0123 22.4372 15.4476C22.6808 15.8753 22.8026 16.3984 22.8026 17.017C22.8026 17.6279 22.6844 18.151 22.448 18.5863C22.2187 19.0139 21.907 19.3422 21.5129 19.5713C21.1259 19.8004 20.6889 19.9151 20.2016 19.9151ZM20.2016 19.3538C20.5885 19.3538 20.8823 19.1629 21.0829 18.7811C21.2908 18.3992 21.3946 17.8149 21.3946 17.0284C21.3946 15.4553 20.997 14.6687 20.2016 14.6687C19.4134 14.6687 19.0194 15.4553 19.0194 17.0284C19.0194 17.8149 19.1196 18.3992 19.3203 18.7811C19.521 19.1629 19.8147 19.3538 20.2016 19.3538Z" fill="white"/>
<path d="M25.4025 19.9155C24.9726 19.9155 24.6358 19.8009 24.3922 19.5718C24.1486 19.3427 24.0268 18.9762 24.0268 18.4723C24.0268 18.2966 24.0268 18.1324 24.0268 17.9797C24.0339 17.8192 24.0375 17.6284 24.0375 17.4069V14.967H23.2422V14.3714L24.1128 14.2568L24.5212 12.6875H25.3918L25.3488 14.2683H26.6386V14.967H25.3381V18.3463C25.3381 18.6288 25.3882 18.8349 25.4886 18.9647C25.596 19.0946 25.7358 19.1595 25.9077 19.1595C26.1012 19.1595 26.3197 19.064 26.5633 18.8731L26.8213 19.1595C26.6851 19.3962 26.4988 19.5833 26.2624 19.7208C26.0259 19.8507 25.7394 19.9155 25.4025 19.9155Z" fill="white"/>
</svg>
