<svg width="32" height="32" viewBox="0 0 32 32" fill="none" xmlns="http://www.w3.org/2000/svg">
<g clip-path="url(#clip0_677_2634)">
<path d="M32 16C32 7.16344 24.8366 0 16 0C7.16344 0 0 7.16344 0 16C0 24.8366 7.16344 32 16 32C24.8366 32 32 24.8366 32 16Z" fill="#8D91AB"/>
<path d="M26.996 14.6546C26.996 14.6152 26.2712 14.1561 25.8898 13.9166C25.7251 13.8141 25.5722 13.6941 25.4338 13.5587C25.1482 13.2789 24.6726 12.7897 24.5184 12.4887C24.419 12.2963 24.4598 11.9501 24.5371 11.6199C24.671 11.0399 24.5696 10.431 24.2547 9.92456L23.7587 9.12371C23.5304 8.75837 23.3469 8.36736 23.212 7.95896C23.0405 7.43419 22.7422 6.9589 22.3434 6.57442C21.5362 5.79394 19.3026 5.40967 17.4472 5.34835C17.3326 5.31405 17.216 5.28655 17.0981 5.26602C16.272 5.12656 15.3906 4.90123 14.5999 5.04754C13.426 5.26424 12.2392 5.62903 11.3534 6.52904C11.1748 6.71077 10.8957 6.79643 10.7033 6.96864C10.3217 7.30997 9.80803 7.30997 9.46915 7.68891C9.27067 7.91027 9.17892 8.6321 8.65875 8.90767C7.79835 9.36477 7.16163 9.86834 6.95312 10.1251C6.7955 10.3183 6.67339 10.5443 6.52001 10.7418C6.36374 10.9443 5.62233 11.2872 5.40689 11.5017C5.19145 11.7162 4.90257 12.2381 5.03228 12.8548C5.04433 12.911 5.0546 12.9575 5.06196 12.9951C5.14681 13.3086 5.37742 13.8768 5.32406 14.1373C5.262 14.4456 4.46187 16.7443 6.24966 17.3571C6.62182 17.4848 6.77944 17.7333 6.82006 18.1118C6.85153 18.3942 6.93616 18.684 7.08462 18.996C7.24736 19.3362 7.56772 19.5213 7.59385 19.5438C7.70168 19.6381 8.20355 20.1574 8.24484 20.2331C8.8791 21.3954 8.70094 21.9762 9.91497 22.371C10.2269 22.4731 10.5264 22.6093 10.808 22.7771C11.1511 22.9818 11.5185 23.1432 11.9019 23.2578C11.9131 23.261 11.93 23.2669 11.9499 23.2739C12.2196 22.6278 12.4931 22.0149 12.7656 21.4381C10.5803 19.2162 11.1549 16.7269 11.3645 16.0594C11.3707 16.0395 11.3818 16.0216 11.3968 16.007C11.4118 15.9927 11.4302 15.9822 11.4503 15.9766C11.4705 15.971 11.4917 15.9705 11.5121 15.9751C11.5325 15.9797 11.5513 15.9893 11.567 16.003C12.0256 16.4014 13.42 17.8387 13.2563 20.4331C13.7386 19.4782 14.2076 18.6384 14.636 17.9214C13.059 15.2715 14.2342 12.9486 14.6046 12.3362C14.6155 12.3181 14.6308 12.3031 14.6491 12.2925C14.6674 12.2818 14.6881 12.276 14.7093 12.2754C14.7306 12.2748 14.7516 12.2796 14.7704 12.2892C14.7893 12.2988 14.8054 12.313 14.8173 12.3304C15.1388 12.8037 16.0123 14.3551 15.4714 16.5902C15.8637 15.9958 16.1821 15.5557 16.3901 15.2795C16.9536 11.5847 19.7678 10.3724 20.5075 10.1154C20.5274 10.1084 20.5486 10.1064 20.5694 10.1097C20.5901 10.113 20.6098 10.1215 20.6264 10.1342C20.643 10.147 20.6562 10.1638 20.6645 10.1829C20.6728 10.2021 20.6762 10.223 20.6742 10.2437C20.6059 11.0078 20.1309 13.95 16.8666 15.461C16.4742 15.9734 16.0963 16.5128 15.7349 17.0662C16.983 16.1002 18.7325 15.6449 20.1858 15.9946C20.2062 15.9993 20.2253 16.009 20.2411 16.0227C20.257 16.0365 20.2691 16.0539 20.2763 16.0736C20.2837 16.0931 20.2859 16.1141 20.283 16.1349C20.28 16.1555 20.272 16.175 20.2595 16.1918C19.8416 16.7403 18.1795 18.5904 15.0488 18.1666C14.5197 19.0509 14.0348 19.9469 13.6044 20.804C14.9562 19.7898 16.9317 19.4013 18.4645 19.9118C18.485 19.9184 18.5034 19.9298 18.5182 19.9453C18.533 19.9606 18.5437 19.9794 18.5491 20C18.5547 20.0205 18.555 20.0421 18.5499 20.0627C18.545 20.0834 18.5347 20.1024 18.5203 20.1182C18.0443 20.6274 16.2115 22.2934 13.1981 21.6318C12.9157 22.2237 12.4944 23.197 12.2888 23.6779C12.218 23.8434 12.1528 24.0099 12.095 24.1806C11.9611 24.5725 11.7825 25.0611 11.5679 25.5501C11.5377 25.6198 11.5223 25.695 11.5227 25.7709C11.523 25.8467 11.5391 25.9218 11.5699 25.9912C11.6007 26.0606 11.6456 26.1232 11.7018 26.1747C11.758 26.2262 11.8243 26.2658 11.8965 26.2907C14.2745 27.1326 16.8563 27.2274 19.2906 26.5624C19.371 26.5398 19.4453 26.4995 19.5078 26.4446C19.5704 26.3896 19.6197 26.3213 19.6518 26.2448C19.7024 26.1254 19.7525 26.0125 19.7525 26.0125C19.7525 26.0125 20.8035 23.5918 20.9581 22.5373C21.019 22.1227 21.1405 21.8117 21.2656 21.5854C21.3478 21.4376 21.4666 21.313 21.6107 21.223C21.7549 21.1333 21.9197 21.0814 22.0896 21.0722C22.8907 21.0301 24.5963 20.9192 25.2168 20.7243C26.0414 20.4646 25.6838 18.9755 25.6395 18.8149C25.5954 18.6542 26.0363 18.2811 26.1272 18.0634C26.2181 17.8456 25.9038 17.771 25.776 17.5322C25.648 17.2933 26.0941 17.1211 26.1578 16.9042C26.2213 16.6872 26.0126 16.4486 25.928 16.2882C25.8434 16.1277 25.811 15.9269 25.811 15.9269C25.811 15.9269 26.4138 15.4889 26.7349 15.2124C27.0558 14.9359 26.9958 14.7082 26.9952 14.6544" fill="white"/>
</g>
<defs>
<clipPath id="clip0_677_2634">
<rect width="32" height="32" fill="white"/>
</clipPath>
</defs>
</svg>
