<svg width="200" height="200" viewBox="0 0 200 200" fill="none" xmlns="http://www.w3.org/2000/svg">
<rect width="200" height="200" rx="100" fill="black"/>
<path d="M100.433 68.7186C111.207 68.7186 119.943 60.0511 119.943 49.3593C119.943 38.6675 111.207 30 100.433 30C89.6577 30 80.9229 38.6675 80.9229 49.3593C80.9229 60.0511 89.6577 68.7186 100.433 68.7186Z" fill="#FD7F18"/>
<path d="M154.652 109.191C145.322 103.86 133.375 107.016 128.003 116.275C126.165 119.431 125.317 122.939 125.388 126.376C125.6 134.933 117.824 139.352 110.472 134.933C110.19 134.793 109.907 134.582 109.554 134.442C102.132 130.304 102.132 121.536 109.554 117.468C115.633 114.171 119.803 107.788 119.803 100.423C119.803 100.282 119.803 100.142 119.803 100.002C119.591 91.4447 127.367 87.0258 134.719 91.4447C140.586 95.0221 148.22 95.3028 154.581 91.6553C163.912 86.3244 167.093 74.4703 161.721 65.2115C156.349 55.9527 144.403 52.7963 135.072 58.1271C128.71 61.7745 125.176 68.5082 125.317 75.312C125.529 83.8691 117.753 88.2885 110.472 83.8691C107.504 82.0456 104.04 80.9936 100.294 80.9936C96.547 80.9936 93.0834 82.0457 90.1145 83.7991C82.7632 88.1479 75.0583 83.7291 75.2703 75.2418C75.4117 68.3679 71.8774 61.7044 65.5155 58.057C56.1847 52.7262 44.2386 55.9527 38.8663 65.2115C33.4941 74.4703 36.7457 86.3244 46.0764 91.6553C52.4383 95.3028 60.0725 94.9516 65.9396 91.4447C73.2911 87.0258 80.996 91.4447 80.7839 100.002C80.7839 100.142 80.7839 100.282 80.7839 100.423C80.7839 107.788 84.8838 114.171 91.0337 117.468C98.4556 121.606 98.4556 130.374 91.0337 134.442C90.7507 134.582 90.4681 134.793 90.1855 134.933C82.8339 139.282 75.1289 134.863 75.341 126.376C75.4117 122.939 74.5635 119.431 72.7256 116.205C67.3534 106.946 55.4072 103.79 46.0764 109.121C36.7457 114.592 33.5648 126.446 38.937 135.705C44.3092 144.963 56.2554 148.12 65.5862 142.789C65.7275 142.719 65.7982 142.649 65.9396 142.578C73.2911 138.159 80.996 142.578 80.7839 151.136C80.7839 151.276 80.7839 151.416 80.7839 151.627C80.7839 162.288 89.5493 170.986 100.294 170.986C111.038 170.986 119.803 162.288 119.803 151.627C119.803 151.487 119.803 151.346 119.803 151.206C119.591 142.649 127.367 138.23 134.719 142.649C134.86 142.719 135.001 142.789 135.143 142.929C144.473 148.26 156.42 145.104 161.792 135.845C167.164 126.375 163.983 114.522 154.652 109.191Z" fill="#FD7F18"/>
</svg>
