<svg width="32" height="32" viewBox="0 0 32 32" fill="none" xmlns="http://www.w3.org/2000/svg">
<rect width="32" height="32" rx="16" fill="#8D91AB"/>
<path d="M10.6896 19.7998L16.445 4.65256C17.5641 4.56117 20.4738 4.95413 23.1596 7.25706C20.0353 10.3825 13.5445 16.9211 10.6896 19.7998Z" fill="white"/>
<path d="M13.4303 6.57166L4.66011 15.3447C4.54592 16.9897 4.87937 20.8416 7.12672 23.0897C8.49705 19.3063 11.9001 10.5013 13.4303 6.57166Z" fill="white"/>
<path d="M23.2967 24.6661C17.3768 29.5461 11.1007 26.6995 8.7026 24.6661L15.9654 17.4695C17.6098 19.1144 21.3782 22.8567 23.2967 24.6661Z" fill="white"/>
<path d="M24.667 23.1582C26.6997 20.7594 29.5454 14.4811 24.667 8.55931C22.8582 10.4784 19.1172 14.2481 17.4727 15.893L24.667 23.1582Z" fill="white"/>
</svg>
