<svg width="32" height="32" viewBox="0 0 32 32" fill="none" xmlns="http://www.w3.org/2000/svg">
<path d="M16 32C24.8366 32 32 24.8366 32 16C32 7.16344 24.8366 0 16 0C7.16344 0 0 7.16344 0 16C0 24.8366 7.16344 32 16 32Z" fill="#8D91AB"/>
<path d="M27.2318 9.45649C27.2514 9.46798 27.2677 9.48433 27.2791 9.50393C27.2904 9.52354 27.2964 9.54571 27.2964 9.56826V22.3691C27.2964 22.4035 27.2872 22.4374 27.2697 22.4674C27.2522 22.4974 27.2271 22.5225 27.1968 22.5401L16.2677 28.8476C16.21 28.8808 16.1446 28.8983 16.0782 28.8983C16.0118 28.8983 15.9466 28.8808 15.8893 28.8476L4.91855 22.5186C4.89528 22.5054 4.87592 22.4863 4.86243 22.4631C4.84894 22.4399 4.84182 22.4135 4.8418 22.3866V9.56287C4.84177 9.54199 4.84735 9.52141 4.85799 9.50321C4.86863 9.485 4.88395 9.46982 4.90239 9.45918L15.9769 3.06686C16.0087 3.04842 16.045 3.03883 16.0819 3.03907C16.1188 3.0393 16.1551 3.04936 16.1869 3.0682L27.2318 9.45649ZM26.9625 9.62616L16.1102 3.36984C16.0926 3.35968 16.0726 3.35433 16.0523 3.35433C16.0319 3.35433 16.012 3.35968 15.9944 3.36984L5.17172 9.62212C5.15331 9.63228 5.13797 9.64726 5.12731 9.66551C5.11665 9.68375 5.11106 9.70458 5.11112 9.72581V22.2304C5.11105 22.2574 5.11812 22.2839 5.13159 22.3073C5.14507 22.3307 5.16448 22.3502 5.18787 22.3637L16.0024 28.6106C16.0201 28.6208 16.04 28.6261 16.0604 28.6261C16.0807 28.6261 16.1007 28.6208 16.1183 28.6106L26.9476 22.3597C26.9718 22.3457 26.9918 22.3256 27.0057 22.3012C27.0197 22.2769 27.027 22.2492 27.0271 22.221V9.73793C27.0271 9.71504 27.0211 9.69262 27.0097 9.67298C26.9984 9.65334 26.9821 9.63718 26.9625 9.62616Z" fill="white"/>
<path d="M19.5524 10.0987L19.4038 10.1847C19.3555 10.213 19.3193 10.2467 19.3004 10.2808L16.1246 15.9656L9.25586 16.0238L12.6269 10.0784C12.6485 10.0403 12.6802 10.0087 12.7185 9.9867C12.7569 9.96471 12.8006 9.95312 12.8453 9.95313C15.08 9.95313 17.2652 9.95313 19.4009 9.95313C19.4805 9.95313 19.531 10.0017 19.5524 10.0987Z" fill="white"/>
<path d="M19.5508 10.0977L22.8592 15.8961C22.8699 15.9152 22.8756 15.9369 22.8756 15.9591C22.8756 15.9812 22.8699 16.0031 22.8592 16.0228C21.7652 18.0002 20.6498 19.9656 19.513 21.9187C19.4877 21.9634 19.4572 21.9901 19.4212 21.9988C19.3795 22.0105 19.3358 22.0095 19.2902 21.9959C19.3649 21.8804 19.3557 21.7459 19.2625 21.5926C18.4325 20.2112 17.386 18.3351 16.123 15.9645L19.2989 10.2797C19.3178 10.2456 19.354 10.212 19.4023 10.1836L19.5508 10.0977Z" fill="white" fill-opacity="0.9"/>
<path d="M16.1246 15.9648C17.3875 18.3355 18.434 20.2115 19.264 21.5929C19.3572 21.7463 19.3664 21.8807 19.2917 21.9963L12.8176 22.0021C12.78 22.002 12.7429 21.992 12.7102 21.9731C12.6775 21.9542 12.6503 21.9271 12.6312 21.8943L9.25586 16.0231L16.1246 15.9648Z" fill="white" fill-opacity="0.8"/>
</svg>
