<svg width="32" height="32" viewBox="0 0 32 32" fill="none" xmlns="http://www.w3.org/2000/svg">
<g clip-path="url(#clip0_758_2743)">
<path d="M32 16C32 7.16344 24.8366 0 16 0C7.16344 0 0 7.16344 0 16C0 24.8366 7.16344 32 16 32C24.8366 32 32 24.8366 32 16Z" fill="black"/>
<path d="M23.1174 15.9353L26.9731 14.014L28.3022 9.93448L25.6439 8H7.94422L3.85156 11.0399H24.6571L23.5516 14.4614H15.2084L14.4056 16.9618H22.7489L20.4065 24.1602L24.3148 22.2256L25.7097 17.9093L23.091 15.9879L23.1174 15.9353Z" fill="#FDFD03"/>
<path d="M9.73783 21.0677L12.1461 13.5667L9.47465 11.5664L5.46094 24.1602H20.4103L21.4105 21.0677H9.73783Z" fill="#FDFD03"/>
</g>
<defs>
<clipPath id="clip0_758_2743">
<rect width="32" height="32" fill="white"/>
</clipPath>
</defs>
</svg>
