<svg width="32" height="32" viewBox="0 0 32 32" fill="none" xmlns="http://www.w3.org/2000/svg">
<path d="M29.9644 15.0527C29.4403 7.33642 22.7623 1.5086 15.0496 2.03276C11.2075 2.29461 7.83351 4.08458 5.47869 6.76605L5.47169 6.76138C5.45489 6.78285 5.44042 6.80432 5.42595 6.82579C3.08747 9.52406 1.77146 13.1092 2.0328 16.9528C2.05706 17.3197 2.1 17.6791 2.15273 18.0357C2.15273 18.0529 2.1574 18.067 2.15973 18.0838C2.19566 18.3185 2.23673 18.5538 2.282 18.7839C2.32491 18.9966 2.37283 19.2082 2.42573 19.4187C4.04321 25.8672 10.0833 30.4344 16.9499 29.9672C24.6626 29.4425 30.4917 22.7638 29.9672 15.048L29.9644 15.0527ZM26.917 15.2609C26.9819 16.2102 26.9217 17.14 26.7518 18.0361C26.7518 18.0315 26.7472 18.0268 26.7472 18.0217C25.7308 15.5414 23.7232 13.7491 21.9596 12.7591C22.3166 8.55603 20.8909 6.78285 19.2763 6.49534C18.9634 6.43655 18.6418 6.44236 18.3313 6.51239C18.0207 6.58243 17.7278 6.71522 17.4704 6.90261C17.213 7.09 16.9967 7.32803 16.8346 7.60208C16.6726 7.87614 16.5682 8.18044 16.528 8.49629C16.4887 8.80097 16.5099 9.11042 16.5903 9.40692C16.6707 9.70342 16.8088 9.98114 16.9966 10.2242C17.1845 10.4672 17.4185 10.6708 17.6851 10.8233C17.9518 10.9758 18.2459 11.0742 18.5506 11.1129C18.6631 11.1273 18.7732 11.132 18.881 11.1297C18.8888 11.2797 18.8929 11.4299 18.8931 11.5801C17.4002 11.2114 16.0058 11.1367 14.7337 11.252C14.2553 11.2834 13.7792 11.3434 13.308 11.4317C13.4667 10.0128 14.0005 8.41694 15.0333 7.2524C16.032 6.12381 17.5178 5.47923 19.1372 5.64446C19.4443 5.67573 19.7723 5.75227 20.0668 5.85076C20.0813 5.85543 20.0957 5.86009 20.1079 5.86243C23.8599 7.39149 26.6226 10.9546 26.9147 15.2609H26.917ZM17.1585 17.3986C17.1585 17.3986 17.1585 17.4009 17.1562 17.4032C16.8022 17.912 16.4011 18.3863 15.9582 18.8198C15.2875 18.1111 14.7196 17.3117 14.2712 16.445C14.2498 16.3993 14.226 16.3587 14.204 16.3129V16.3082C13.9413 15.7465 13.7312 15.1617 13.5763 14.5612C14.5704 14.3264 15.5457 14.2401 16.4781 14.2858L16.6265 14.2928H16.6312C17.2159 14.3409 17.8244 14.4487 18.4544 14.6214C18.162 15.6049 17.7261 16.5399 17.1608 17.3962L17.1585 17.3986ZM12.3761 5.67339L12.3691 5.68273C10.7278 7.8013 10.1813 10.4347 10.2056 12.4571C6.38636 14.2494 5.56689 16.3703 6.12269 17.9134C6.13669 17.9568 6.15396 17.9974 6.17076 18.0385C6.41022 18.6106 6.86698 19.0642 7.44067 19.2996C8.01436 19.5351 8.65804 19.533 9.23025 19.294C9.80225 19.0545 10.2558 18.5977 10.4912 18.0239C10.7266 17.4501 10.7246 16.8063 10.4856 16.234C10.4421 16.1324 10.3917 16.0338 10.3349 15.939C10.4548 15.8597 10.5841 15.7813 10.7231 15.6996C11.1492 17.1783 11.7797 18.4268 12.5151 19.4714C12.7811 19.8667 13.0686 20.2476 13.3822 20.6145C12.0741 21.1872 10.4259 21.5228 8.89938 21.211C7.42377 20.9094 6.12269 19.9461 5.45442 18.46C5.3264 18.1685 5.23003 17.8642 5.16695 17.5521C5.12755 17.2841 5.09797 17.0148 5.07829 16.7447C4.73762 11.729 7.84797 7.26454 12.3761 5.67339ZM16.7413 26.9216C13.7635 27.1251 10.9793 26.1095 8.87558 24.3022C11.5305 24.6644 14.0845 23.8206 15.8243 22.7881C19.2861 25.2012 21.5335 24.8511 22.5924 23.5979C22.7999 23.356 22.9557 23.0743 23.0504 22.77C23.145 22.4657 23.1765 22.1453 23.1428 21.8284C23.1092 21.5115 23.0111 21.2048 22.8547 20.9272C22.6982 20.6496 22.4867 20.4069 22.2331 20.214C21.9888 20.0277 21.7102 19.8914 21.4132 19.8129C21.1162 19.7344 20.8067 19.7152 20.5023 19.7563C20.1978 19.7975 19.9045 19.8983 19.6391 20.0529C19.3736 20.2075 19.1412 20.4129 18.9552 20.6574C18.8885 20.7461 18.8283 20.8422 18.7755 20.9379C18.6486 20.873 18.5142 20.8012 18.3779 20.7223C19.3533 19.7158 20.1527 18.5525 20.7425 17.2809C20.9537 16.8506 21.1393 16.4081 21.2983 15.9559C22.4487 16.8044 23.565 18.0623 24.0587 19.5405C24.5356 20.9687 24.3532 22.579 23.3998 23.8999C23.2114 24.1562 22.9961 24.3915 22.7576 24.6019L22.7483 24.6112C21.0254 25.9685 18.9324 26.7731 16.7441 26.9193L16.7413 26.9216Z" fill="white"/>
</svg>
