<svg width="32" height="32" viewBox="0 0 32 32" fill="none" xmlns="http://www.w3.org/2000/svg">
<g clip-path="url(#clip0_649_2446)">
<path d="M32 16C32 7.16344 24.8366 0 16 0C7.16344 0 0 7.16344 0 16C0 24.8366 7.16344 32 16 32C24.8366 32 32 24.8366 32 16Z" fill="#8D91AB"/>
<path d="M7.72464 14.1704H5.3125V12.7259H7.72464C7.72464 12.6864 7.72464 12.6536 7.72464 12.6208C7.73082 12.1992 7.72032 11.7772 7.74676 11.3564C7.79756 10.5483 8.00432 9.78686 8.48981 9.12254C8.9982 8.42691 9.69888 8.02894 10.5237 7.83023C11.1957 7.66865 11.8769 7.65215 12.5624 7.71046C13.2722 7.77219 13.9698 7.93283 14.6351 8.18771C14.6726 8.20196 14.7101 8.21788 14.7556 8.23644L14.3477 9.54075C14.251 9.50326 14.1603 9.46575 14.0678 9.43164C13.1883 9.10417 12.2805 9.01924 11.3582 9.16284C10.3085 9.32574 9.67471 9.98763 9.50244 11.0402C9.4402 11.422 9.44527 11.8054 9.44508 12.1894C9.44508 12.3636 9.44508 12.5379 9.44508 12.7214H13.7179V14.1616H9.4522V23.0843H7.72464V14.1704Z" fill="white"/>
<path d="M21.5337 18.6563C21.5302 18.6502 21.5272 18.644 21.5248 18.6376C21.5273 18.631 21.5302 18.6248 21.5337 18.6187C21.9536 17.8612 22.3897 17.0648 22.8084 16.3062C22.9696 16.0136 23.144 15.7151 23.3145 15.4039H21.6836C21.6836 15.4039 20.9624 17.016 20.634 17.7352H20.5964C20.2337 17.0113 19.4531 15.4039 19.4531 15.4039L17.7369 15.3945C17.7609 15.4399 18.9825 17.6265 19.5467 18.6187C19.5507 18.6257 19.554 18.6318 19.5571 18.6376L19.5467 18.6563C18.9825 19.6342 17.7422 21.8641 17.7182 21.9088L19.4531 21.8995C19.4531 21.8995 20.2337 20.315 20.5964 19.6027H20.634C20.9624 20.3113 21.6836 21.9004 21.6836 21.9004H23.3332C23.1619 21.5926 21.9536 19.4028 21.5337 18.6563ZM17.1233 22.4161C16.8392 22.646 16.5409 22.886 16.2664 23.1084C13.8609 20.9209 13.5935 16.7182 16.2568 14.1748C16.5347 14.3981 16.8312 14.6412 17.1158 14.8712C17.0409 14.9572 16.9699 15.0386 16.8998 15.1209C16.3187 15.8034 15.916 16.556 15.7462 17.4416C15.6391 17.9998 15.6194 18.5622 15.6588 19.1286C15.7032 19.7659 15.85 20.3774 16.1235 20.9566C16.3617 21.4548 16.6712 21.9158 17.042 22.3251C17.0662 22.3507 17.0884 22.3769 17.1233 22.4161ZM23.9204 22.4161C24.2044 22.646 24.5027 22.886 24.7773 23.1084C27.1827 20.9209 27.4504 16.7182 24.787 14.1748C24.5097 14.3981 24.2124 14.6412 23.9272 14.8712C24.002 14.9572 24.0729 15.0386 24.1433 15.1209C24.7244 15.8034 25.127 16.556 25.2966 17.4416C25.4037 17.9998 25.4233 18.5622 25.384 19.1286C25.3396 19.7659 25.1929 20.3774 24.9195 20.9566C24.6812 21.4548 24.3718 21.9158 24.0009 22.3251C23.9766 22.3507 23.9544 22.3769 23.9204 22.4161Z" fill="white"/>
</g>
<defs>
<clipPath id="clip0_649_2446">
<rect width="32" height="32" fill="white"/>
</clipPath>
</defs>
</svg>
