<svg width="32" height="32" viewBox="0 0 32 32" fill="none" xmlns="http://www.w3.org/2000/svg">
<rect width="32" height="32" rx="16" fill="#8D91AB"/>
<path d="M16.0328 27.8728L16.0344 23.8106C15.6251 23.8106 15.2126 23.778 14.8089 23.7135L14.1787 27.7263C14.7899 27.8235 15.4137 27.8728 16.0336 27.8728H16.0328ZM17.8869 27.7279C18.4997 27.6307 19.1085 27.4849 19.6975 27.293L18.4546 23.4283C18.0666 23.555 17.6645 23.6513 17.2599 23.7151L17.8869 27.7279ZM12.3674 27.2906L13.6134 23.4267C13.2247 23.3001 12.8439 23.1408 12.4806 22.9544L10.6454 26.5729C11.1972 26.8565 11.7767 27.0978 12.3674 27.2906ZM21.4186 26.5777C21.9712 26.2949 22.5056 25.9652 23.0075 25.598L20.6317 22.3132C20.3016 22.5554 19.95 22.772 19.5867 22.9576L21.4186 26.5777ZM9.05733 25.5917L11.4355 22.3084C11.107 22.0679 10.7935 21.7971 10.5022 21.5048L7.64498 24.3754L7.64735 24.3778C8.08594 24.819 8.56016 25.2277 9.05733 25.5917ZM24.4009 24.4025L24.4254 24.377C24.8624 23.9373 25.2678 23.461 25.6304 22.9616L22.3678 20.5681C22.1287 20.8978 21.8604 21.2132 21.5706 21.5056L21.5303 21.547L22.903 22.8509L24.4009 24.4025ZM6.43687 22.9536L9.70096 20.5625C9.46031 20.2304 9.24497 19.8767 9.0597 19.5111L5.46231 21.355C5.74336 21.9102 6.07112 22.4478 6.43687 22.9528V22.9536ZM26.6065 21.363C26.8883 20.8078 27.1282 20.2248 27.3206 19.6306L23.4802 18.3761C23.3543 18.7672 23.1959 19.1503 23.0107 19.5159L26.6065 21.363ZM4.75059 19.6218L8.59184 18.3705C8.46595 17.9803 8.37016 17.5756 8.30602 17.1686L4.31754 17.801C4.41413 18.4175 4.5598 19.03 4.75059 19.6226V19.6218ZM27.7544 17.8098C27.851 17.1949 27.9001 16.5673 27.9009 15.9444L23.8633 15.942C23.8633 16.3538 23.8309 16.7688 23.7667 17.1758L27.7544 17.8098ZM8.21023 15.9356C8.21023 15.5238 8.2427 15.108 8.30602 14.7018L4.31754 14.0694C4.22096 14.6843 4.17267 15.3119 4.17188 15.9348H8.20946L8.21023 15.9356ZM23.7683 14.7082L27.7568 14.0782C27.661 13.4617 27.5154 12.8492 27.3254 12.2566L23.4833 13.5055C23.6092 13.8966 23.705 14.3004 23.7683 14.7074V14.7082ZM8.59184 13.5007C8.7177 13.1096 8.87603 12.7257 9.0605 12.3601L5.4631 10.5154C5.18206 11.0706 4.94218 11.6536 4.75059 12.2478L8.59104 13.5007H8.59184ZM23.0154 12.3657L26.6144 10.5242C26.3334 9.9682 26.0056 9.43057 25.6407 8.92558L22.375 11.3151C22.6148 11.6473 22.8302 12.0009 23.0154 12.3665V12.3657ZM9.70256 11.3087C9.94244 10.9774 10.2116 10.6604 10.503 10.3681L10.5109 10.3601L7.65605 7.4879L7.64815 7.49586C7.20956 7.93713 6.80263 8.41583 6.43925 8.91682L9.70256 11.3087ZM21.5849 10.3824L22.447 9.49748L24.4317 7.50142L24.4254 7.49506C23.9892 7.05618 23.5166 6.64918 23.021 6.28517L20.6412 9.56676C20.969 9.80733 21.2816 10.0765 21.5706 10.3681L21.5849 10.3824ZM11.445 9.558C11.7752 9.31666 12.1267 9.10001 12.4901 8.91443L10.6605 5.29352C10.1079 5.57628 9.5735 5.90524 9.0716 6.27243L11.445 9.558ZM19.597 8.92079L21.4344 5.30388C20.8827 5.02032 20.3039 4.77818 19.7133 4.58543L18.4649 8.44848C18.8536 8.57591 19.2344 8.73441 19.5977 8.92159L19.597 8.92079ZM13.6237 8.44371C14.0125 8.31785 14.4146 8.22146 14.8184 8.15775L14.1938 4.14417C13.5818 4.24055 12.9722 4.38631 12.3832 4.57826L13.6237 8.44371ZM17.2702 8.16015L17.902 4.14735C17.2908 4.05018 16.667 4 16.0479 4L16.0439 8.06216C16.4532 8.06216 16.8657 8.09563 17.2702 8.16015Z" fill="white"/>
<path d="M16.0351 23.9905V19.9079C15.694 19.9079 15.3538 19.863 15.0247 19.7758L13.9711 23.7199C14.6436 23.8992 15.3377 23.9905 16.0351 23.9905ZM18.099 23.7199C18.7739 23.5398 19.4232 23.2716 20.0269 22.9226L17.9837 19.3875C17.6899 19.5572 17.3745 19.6877 17.0462 19.775L18.099 23.7199ZM12.0425 22.9218L14.0864 19.3875C13.7934 19.2178 13.522 19.0089 13.2786 18.7663L13.241 18.7295L11.9512 20.0872L10.3684 21.6298L10.3916 21.6522C10.8864 22.1469 11.442 22.5736 12.0433 22.9218H12.0425ZM21.6785 21.6538H21.6793C22.1733 21.1583 22.6 20.6035 22.9475 20.0031L19.4136 17.9586C19.2439 18.2516 19.0349 18.523 18.7923 18.7655L21.6785 21.6538ZM9.1179 19.9943L12.6549 17.9546C12.4852 17.6608 12.3555 17.3454 12.2683 17.0164L8.3221 18.0659C8.50144 18.7407 8.76962 19.3899 9.1179 19.9943ZM23.7465 18.0763C23.9258 17.4038 24.0171 16.7098 24.0179 16.0125L19.9348 16.0109C19.9348 16.3528 19.8899 16.693 19.8019 17.022L23.7465 18.0763ZM12.1369 16.0061C12.1369 15.6643 12.1818 15.3241 12.2707 14.9951L8.3269 13.9384C8.14677 14.6108 8.05469 15.3049 8.05469 16.0021L12.1377 16.0061H12.1369ZM19.8027 14.9999L23.748 13.9488C23.5679 13.2739 23.2997 12.6247 22.9515 12.0211L19.4152 14.0625C19.5849 14.3562 19.7154 14.6717 19.8027 14.9999ZM12.6589 14.0577C12.8263 13.7687 13.0328 13.5005 13.2714 13.2603L13.2818 13.2499L11.8215 11.7898L10.4173 10.3416L10.3916 10.3665C9.89846 10.8596 9.47255 11.4128 9.12589 12.0115L12.6589 14.0577ZM18.7947 13.2547L20.2406 11.809L21.7161 10.4033L21.6793 10.3657C21.1861 9.87255 20.6313 9.44586 20.0317 9.09843L17.9861 12.6319C18.2752 12.7993 18.5441 13.0058 18.7843 13.2443L18.7947 13.2547ZM14.0888 12.6295C14.3818 12.4598 14.6973 12.3301 15.0263 12.2421L13.9759 8.29713C13.3002 8.47723 12.6517 8.74462 12.0473 9.09364L14.0888 12.6295ZM17.0486 12.2437L18.1046 8.29952C17.4321 8.11939 16.738 8.02814 16.0407 8.02734L16.0383 12.11C16.3801 12.11 16.7204 12.1548 17.0494 12.2429L17.0486 12.2437Z" fill="white"/>
</svg>
