<svg width="32" height="32" viewBox="0 0 32 32" fill="none" xmlns="http://www.w3.org/2000/svg">
<rect width="32" height="32" rx="16" fill="black"/>
<path d="M16.1998 3.23905C16.6817 3.69826 16.7171 4.46274 16.4081 5.01614C16.4015 5.02835 16.4011 5.04071 16.4067 5.05321C16.8778 6.09765 17.2755 7.01039 17.8269 7.76745C18.5152 8.7129 19.222 9.60076 19.8207 10.6526C19.9273 10.8402 19.9286 10.9932 19.9044 11.196C19.903 11.2103 19.9067 11.2227 19.9157 11.2335C20.2287 11.6098 20.6004 11.6055 21.0765 11.5663C21.7868 11.5072 22.2825 11.4825 22.5634 11.4921C24.3817 11.5531 25.8896 12.7803 25.99 14.598C26.041 15.5195 25.9044 16.3747 25.4091 17.1478C24.88 17.9732 24.1621 18.6132 23.2554 19.0679C23.0556 19.1682 22.8551 19.2675 22.6538 19.3658C21.8012 19.7827 21.4021 21.019 21.6229 21.8729C21.6844 22.1095 21.8676 22.6337 22.1724 23.4454C22.2151 23.5585 22.2326 23.6471 22.2248 23.711C22.1872 24.0224 21.6941 24.1633 21.42 24.1877C21.4131 24.1883 21.4065 24.1912 21.4014 24.1958C21.3962 24.2004 21.3927 24.2066 21.3913 24.2134C21.2592 24.9465 20.871 25.7301 20.2309 26.1649C20.0476 26.2893 19.7834 26.4057 19.4382 26.5138C18.5079 26.8051 17.5574 26.9641 16.5867 26.9909C15.0179 27.0345 13.527 26.9333 12.0634 26.4283C11.3383 26.178 10.8251 25.5618 10.5666 24.8745C10.1022 23.6391 10.2679 22.319 10.8407 21.1498C11.04 20.7434 11.2761 20.2934 11.427 19.917C11.9909 18.5114 12.0912 16.9895 11.8072 15.5094C11.4771 13.789 10.0574 12.4581 8.36274 11.964C7.0747 11.5889 5.69888 11.6683 4.39025 11.7934C3.91104 11.8393 3.90387 11.5933 4.20214 11.3416C4.99933 10.6692 6.04463 10.3378 7.08948 10.2296C8.35916 10.0975 9.55225 10.2523 10.6656 10.8563C11.1139 11.0997 11.3782 11.3836 11.7602 11.7852C11.8217 11.8497 11.882 11.8914 11.9411 11.9104C11.9453 11.9116 11.9497 11.9119 11.9541 11.9112C11.9584 11.9104 11.9624 11.9087 11.9658 11.9062C11.9693 11.9036 11.972 11.9002 11.9738 11.8964C11.9756 11.8926 11.9764 11.8884 11.9761 11.8842C11.9563 11.585 11.9168 11.2916 11.8574 11.0037C11.8229 10.8358 11.9411 10.6801 12.0222 10.5336C12.6156 9.4621 13.4423 8.48744 14.206 7.40637C14.2552 7.33659 14.2977 7.26652 14.3335 7.19617C14.6925 6.49115 15.0361 5.77901 15.3645 5.05975C15.3705 5.04608 15.3699 5.03286 15.3627 5.02006C15.051 4.46056 15.0792 3.70219 15.5746 3.24168C15.5795 3.23721 15.5827 3.2313 15.5838 3.2249C15.5848 3.2185 15.5837 3.21196 15.5804 3.20635C15.444 2.96737 15.4092 2.71386 15.4761 2.4458C15.5298 2.2295 15.7721 1.86842 16.0292 2.04896C16.4005 2.30931 16.3955 2.84788 16.1945 3.20417C16.187 3.21696 16.1887 3.22859 16.1998 3.23905ZM25.1511 15.222C25.0741 14.1719 24.401 13.1864 23.3498 12.8457C22.0578 12.4271 20.4182 13.2461 19.5139 14.1113C19.5032 14.1215 19.4973 14.1338 19.4965 14.1483C19.4568 14.7676 19.4442 15.3875 19.4589 16.0079C19.4951 17.5385 19.9376 19.1085 20.604 20.4922C20.6115 20.5076 20.6194 20.5079 20.6277 20.4931C21.0935 19.6794 21.7779 19.0557 22.5786 18.5629C22.9109 18.3588 23.4009 18.1574 23.7036 17.9799C24.0132 17.7979 24.3033 17.5238 24.5738 17.1578C25.01 16.5671 25.2025 15.9218 25.1511 15.222Z" fill="#DF5E00"/>
</svg>
