<svg width="32" height="32" viewBox="0 0 32 32" fill="none" xmlns="http://www.w3.org/2000/svg">
<g clip-path="url(#clip0_690_2487)">
<path d="M32 16C32 7.16344 24.8366 0 16 0C7.16344 0 0 7.16344 0 16C0 24.8366 7.16344 32 16 32C24.8366 32 32 24.8366 32 16Z" fill="#8D91AB"/>
<path d="M27.8068 15.1974C27.3634 8.67261 21.7156 3.74464 15.1928 4.18786C11.9434 4.40928 9.08986 5.92288 7.09831 8.19031L7.09239 8.18635C7.07818 8.20451 7.06594 8.22267 7.0537 8.24083C5.07597 10.5225 3.96296 13.554 4.18399 16.8042C4.20452 17.1144 4.24082 17.4182 4.28543 17.7198C4.28543 17.7344 4.28936 17.7462 4.29135 17.7605C4.32173 17.959 4.35647 18.1579 4.39474 18.3525C4.43104 18.5323 4.47157 18.7114 4.51631 18.8893C5.88426 24.3422 10.9926 28.2042 16.7999 27.809C23.3228 27.3654 28.2527 21.7179 27.809 15.1935L27.8068 15.1974ZM25.2295 15.3735C25.2844 16.1763 25.2334 16.9624 25.0898 17.7202C25.0898 17.7163 25.0858 17.7123 25.0858 17.708C24.2262 15.6107 22.5282 14.0951 21.0367 13.258C21.3388 9.7039 20.133 8.20451 18.7674 7.96139C18.5028 7.91168 18.2308 7.91659 17.9682 7.97581C17.7055 8.03504 17.4578 8.14733 17.2401 8.30578C17.0225 8.46424 16.8394 8.66551 16.7025 8.89725C16.5654 9.12899 16.477 9.3863 16.4431 9.65338C16.4098 9.91102 16.4278 10.1727 16.4958 10.4234C16.5638 10.6741 16.6806 10.909 16.8394 11.1145C16.9983 11.32 17.1962 11.4922 17.4217 11.6211C17.6473 11.7501 17.8959 11.8333 18.1537 11.866C18.2487 11.8782 18.342 11.8821 18.433 11.8802C18.4398 12.007 18.4431 12.134 18.4434 12.261C17.1807 11.9492 16.0015 11.8861 14.9256 11.9836C14.521 12.0101 14.1184 12.0608 13.7198 12.1355C13.854 10.9357 14.3055 9.58629 15.179 8.60157C16.0236 7.64723 17.2802 7.10218 18.6498 7.24189C18.9095 7.26834 19.187 7.33306 19.4359 7.41634C19.4482 7.42029 19.4604 7.42424 19.4706 7.42621C22.6439 8.71919 24.9804 11.7322 25.2274 15.3735H25.2295ZM16.9764 17.1811C16.9764 17.1811 16.9764 17.183 16.9743 17.1851C16.675 17.6152 16.3358 18.0163 15.9612 18.3829C15.3939 17.7837 14.9137 17.1077 14.5345 16.3747C14.5163 16.3362 14.4962 16.3018 14.4776 16.263V16.2592C14.2554 15.7842 14.0777 15.2896 13.9468 14.7819C14.7874 14.5833 15.6123 14.5103 16.4009 14.549L16.5265 14.5549H16.5303C17.0249 14.5956 17.5396 14.6867 18.0724 14.8328C17.825 15.6644 17.4564 16.455 16.9783 17.1792L16.9764 17.1811ZM12.9317 7.26637L12.9257 7.27426C11.5377 9.06571 11.0755 11.2925 11.096 13.0026C7.86596 14.5182 7.1729 16.3117 7.64296 17.6165C7.6548 17.6531 7.6694 17.6875 7.6836 17.7222C7.88613 18.2059 8.27244 18.5896 8.75762 18.7886C9.2428 18.9877 9.78719 18.9861 10.2711 18.7838C10.7549 18.5814 11.1385 18.195 11.3375 17.7099C11.5366 17.2246 11.5349 16.6803 11.3328 16.1963C11.296 16.1104 11.2534 16.027 11.2053 15.9469C11.3068 15.8798 11.4161 15.8135 11.5337 15.7445C11.8941 16.9949 12.4273 18.0506 13.0493 18.9339C13.2742 19.2682 13.5174 19.5902 13.7826 19.9005C12.6763 20.3846 11.2823 20.6685 9.9913 20.4048C8.74333 20.1499 7.64296 19.3352 7.07778 18.0786C6.96951 17.8322 6.888 17.5747 6.83466 17.3109C6.80133 17.0843 6.77632 16.8566 6.75967 16.6282C6.47156 12.3869 9.10208 8.61182 12.9317 7.26637ZM16.6234 25.2338C14.105 25.4058 11.7504 24.547 9.97117 23.0189C12.2165 23.3251 14.3766 22.6115 15.848 21.7384C18.7756 23.779 20.6764 23.4829 21.5719 22.4232C21.7474 22.2187 21.8793 21.9805 21.9593 21.7232C22.0393 21.4659 22.066 21.1949 22.0375 20.9269C22.009 20.659 21.9262 20.3997 21.7938 20.165C21.6615 19.9301 21.4826 19.725 21.2681 19.5618C21.0615 19.4043 20.8258 19.2891 20.5746 19.2227C20.3234 19.1563 20.0617 19.14 19.8042 19.1749C19.5468 19.2096 19.2988 19.2949 19.0743 19.4256C18.8497 19.5563 18.6532 19.7301 18.4959 19.9368C18.4394 20.0117 18.3886 20.0931 18.3439 20.1739C18.2366 20.119 18.123 20.0582 18.0076 19.9917C18.8326 19.1405 19.5086 18.1568 20.0074 17.0816C20.1862 16.7178 20.3431 16.3435 20.4775 15.9612C21.4505 16.6787 22.3945 17.7424 22.8121 18.9923C23.2154 20.2 23.061 21.5616 22.2548 22.6786C22.0954 22.8954 21.9134 23.0942 21.7118 23.2722L21.7038 23.2802C20.2466 24.4278 18.4766 25.1082 16.6258 25.2318L16.6234 25.2338Z" fill="white"/>
</g>
<defs>
<clipPath id="clip0_690_2487">
<rect width="32" height="32" fill="white"/>
</clipPath>
</defs>
</svg>
