<svg width="32" height="32" viewBox="0 0 32 32" fill="none" xmlns="http://www.w3.org/2000/svg">
<g clip-path="url(#clip0_690_2490)">
<path d="M32 16C32 7.16344 24.8366 0 16 0C7.16344 0 0 7.16344 0 16C0 24.8366 7.16344 32 16 32C24.8366 32 32 24.8366 32 16Z" fill="#8D91AB"/>
<path d="M16.0094 28.1571C9.66526 28.3014 4.06414 22.9349 4.00051 16.2083C3.93995 9.66722 9.25264 4.08223 15.8412 4.00086C22.3138 3.92255 27.9877 9.22319 28 16.1578C28.0112 22.8544 22.4163 28.2952 16.0094 28.1571ZM25.1938 17.5888C25.2451 17.0522 25.317 16.6781 25.3118 16.3042C25.2646 12.2861 23.4592 9.36124 19.8718 7.58097C18.8526 7.07511 17.7872 7.08646 16.7485 7.53358C14.9246 8.32172 14.1825 9.89594 13.8356 11.7308C13.7637 12.1089 14.0408 12.0523 14.2625 12.0275C15.5219 11.8843 16.7773 11.8792 18.0264 12.1306C18.1413 12.1532 18.2882 12.2418 18.4 12.078C18.2522 11.8967 18.0315 11.9204 17.8446 11.8627C17.3331 11.7022 16.9043 11.3473 16.6501 10.8737C16.3957 10.4001 16.336 9.84545 16.4837 9.32828C16.6286 8.81108 16.9714 8.37236 17.4373 8.10778C17.9032 7.84319 18.4544 7.77418 18.9707 7.9158C20.0906 8.22487 20.5965 9.09338 20.9208 10.1123C21.1826 10.9283 21.1661 11.7751 21.1261 12.6148C21.1066 13.0578 21.236 13.3298 21.625 13.576C22.4478 14.1011 23.185 14.7506 23.8102 15.5015C24.3234 16.1053 24.7083 16.7853 25.1896 17.5888H25.1938ZM10.2739 23.4613C10.3447 23.5077 10.4207 23.5478 10.4864 23.6003C13.5789 26.0482 18.5314 26.0358 21.589 23.5653C22.0376 23.2166 22.4014 22.7702 22.653 22.2598C22.9046 21.7494 23.0374 21.1883 23.0414 20.6189C23.0814 18.8922 22.2203 17.5909 20.9886 16.4834C20.6488 16.1742 20.5042 16.2443 20.3502 16.643C19.8947 17.8115 19.2381 18.8906 18.4102 19.8307C18.3394 19.911 18.2131 19.9883 18.3077 20.1397C18.513 20.1264 18.5683 19.9338 18.6874 19.8254C19.5989 18.9899 20.9824 19.0806 21.7296 20.0315C21.9051 20.2595 22.032 20.5214 22.1021 20.8008C22.1723 21.0802 22.1843 21.3712 22.1374 21.6554C22.0904 21.9397 21.9856 22.2112 21.8294 22.453C21.6733 22.6947 21.4691 22.9014 21.2298 23.0605C20.4312 23.6107 19.564 23.5973 18.6771 23.3747C17.7739 23.148 16.9579 22.7237 16.1891 22.2043C15.992 22.0704 15.8247 22.0128 15.5835 22.1435C13.9474 23.041 12.1964 23.449 10.2698 23.4643L10.2739 23.4613ZM11.403 16.0198C11.2613 16.1939 11.403 16.3474 11.4389 16.4989C11.717 17.6002 11.1104 18.7386 10.0758 19.0426C9.8143 19.1259 9.53869 19.1552 9.26557 19.1286C8.99246 19.1022 8.72754 19.0205 8.48677 18.8883C8.24602 18.7562 8.03442 18.5765 7.86474 18.3602C7.69506 18.1437 7.57083 17.895 7.49954 17.629C7.21626 16.6493 7.5293 15.8034 8.16362 15.0534C8.82462 14.2766 9.65192 13.7007 10.5695 13.2556C10.8641 13.1114 10.9873 12.9249 11.0068 12.5849C11.1094 10.8798 11.5384 9.27058 12.4437 7.80866C12.5002 7.71697 12.6193 7.6263 12.5187 7.49958C12.4037 7.44807 12.3134 7.51092 12.2231 7.55007C8.76202 9.0223 6.42797 12.9228 6.73691 16.7038C6.90525 18.7643 8.2129 20.2334 10.2267 20.5528C11.2726 20.7198 12.2959 20.5528 13.2926 20.1923C13.6395 20.0686 13.6005 19.9326 13.4075 19.6771C12.6091 18.667 11.9938 17.524 11.5898 16.3C11.5549 16.199 11.5569 16.0547 11.403 16.0229V16.0198ZM16.0352 14.6475C15.4891 14.6341 14.9543 14.7402 14.4155 14.8051C14.0963 14.8442 14.0388 14.9864 14.1281 15.2903C14.4493 16.3782 15.0375 17.3075 15.7406 18.175C15.9304 18.409 16.0608 18.3378 16.2291 18.1595C17.003 17.3354 17.5347 16.3742 17.9155 15.3171C18.011 15.0503 17.9474 14.905 17.6477 14.8494C17.1128 14.7629 16.5822 14.6372 16.0352 14.6506V14.6475Z" fill="white"/>
</g>
<defs>
<clipPath id="clip0_690_2490">
<rect width="32" height="32" fill="white"/>
</clipPath>
</defs>
</svg>
