<svg width="32" height="32" viewBox="0 0 32 32" fill="none" xmlns="http://www.w3.org/2000/svg">
<g clip-path="url(#clip0_620_2475)">
<path d="M32 16C32 7.16344 24.8366 0 16 0C7.16344 0 0 7.16344 0 16C0 24.8366 7.16344 32 16 32C24.8366 32 32 24.8366 32 16Z" fill="#8D91AB"/>
<path d="M13.0594 8.98139C8.60737 10.5901 8.19955 14.71 6.92299 16.6341C5.63129 18.5811 2.67209 19.6552 3.07675 20.6475C3.48142 21.6397 6.44414 20.5739 8.78809 21.207C11.1043 21.8325 14.3359 24.6376 18.7879 23.0289C21.0559 22.2094 22.6983 20.5227 23.4533 18.5248C23.5346 18.3104 23.3827 18.0809 23.1418 18.0598C22.992 18.0465 22.8483 18.1203 22.7808 18.2467C22.0976 19.5275 20.9259 20.5822 19.3923 21.1363C16.8607 22.051 14.0905 21.3328 12.3893 19.5315C12.0029 19.1224 11.6724 18.6568 11.4115 18.1422C11.3398 18.0006 11.2716 17.8566 11.2111 17.7077C11.1503 17.5587 11.0986 17.4088 11.0512 17.2582C12.3893 16.6712 13.9334 16.0493 15.6839 15.4169C17.4003 14.7967 18.9623 14.2937 20.3531 13.8912C21.2939 13.6192 22.1563 13.3928 22.9351 13.2079C22.9912 13.1946 23.0469 13.1814 23.1021 13.1685C23.2199 13.141 23.3408 13.2003 23.3845 13.3068L23.3851 13.3088C23.4107 13.372 23.4328 13.4355 23.4568 13.4991C23.6109 13.9091 23.7261 14.3235 23.8024 14.7388C23.8359 14.9205 24.0469 15.0194 24.2197 14.9321C24.8589 14.6091 25.4437 14.294 25.9661 13.9909C27.9128 12.8623 28.992 11.9053 28.7704 11.3629C28.5495 10.8201 27.0672 10.789 24.8181 11.1762C24.1034 11.2993 23.3111 11.4648 22.457 11.6696C22.3093 11.705 22.1599 11.7418 22.0088 11.7795C21.2901 11.9589 20.5322 12.1644 19.7427 12.3944C18.2751 12.8223 16.7003 13.3349 15.0746 13.9224C13.5537 14.4721 12.1122 15.0419 10.7903 15.6098C10.7741 13.1996 12.3221 10.9211 14.8538 10.0063C16.3871 9.45233 18.0079 9.49766 19.4259 10.0195C19.5659 10.0712 19.7253 10.0354 19.8275 9.9312C19.9914 9.76408 19.941 9.498 19.7283 9.38945C17.7469 8.38107 15.3274 8.16198 13.0594 8.98139Z" fill="white"/>
</g>
<defs>
<clipPath id="clip0_620_2475">
<rect width="32" height="32" fill="white"/>
</clipPath>
</defs>
</svg>
