<svg width="32" height="32" viewBox="0 0 32 32" fill="none" xmlns="http://www.w3.org/2000/svg">
<g clip-path="url(#clip0_616_2509)">
<path d="M31.872 16C31.872 7.16344 24.7442 0 15.9516 0C7.15906 0 0.03125 7.16344 0.03125 16C0.03125 24.8366 7.15906 32 15.9516 32C24.7442 32 31.872 24.8366 31.872 16Z" fill="#8D91AB"/>
<path d="M18.4698 16.2403L18.2031 15.3378L22.2832 15.3316C22.3147 15.3316 22.3418 15.3206 22.3646 15.2985L23.2975 14.3598C23.3215 14.3356 23.3507 14.3236 23.3851 14.3236H27.7772C27.7923 14.3235 27.8071 14.3201 27.8206 14.3134C27.8342 14.3068 27.8461 14.2972 27.8555 14.2853C28.0723 14.0024 28.3374 13.8858 28.6504 13.9354C29.604 14.0855 29.6442 15.4579 28.6958 15.6369C28.3587 15.7011 28.0779 15.5865 27.8534 15.2933C27.8335 15.2678 27.8074 15.255 27.7751 15.255H23.7969C23.7633 15.255 23.7342 15.2671 23.7095 15.2912L22.8022 16.2031C22.7791 16.2263 22.7479 16.2392 22.7158 16.2392L18.4698 16.2403Z" fill="white" fill-opacity="0.5"/>
<path d="M18.8281 18.1001L18.6797 17.1956H24.6701C24.6879 17.1956 24.7054 17.1913 24.7212 17.183C24.7369 17.1746 24.7506 17.1626 24.7606 17.1479C25.3137 16.35 26.5165 16.8334 26.3218 17.773C26.1787 18.4593 25.3105 18.6974 24.8441 18.1406C24.8337 18.1282 24.821 18.1183 24.8065 18.1114C24.7922 18.1047 24.7766 18.1012 24.7606 18.1012L18.8281 18.1001Z" fill="white" fill-opacity="0.5"/>
<path d="M20.59 18.9243C20.6146 19.0123 22.6846 18.9552 23.0821 18.9542C23.0982 18.9542 23.114 18.9574 23.1286 18.9637C23.1433 18.9699 23.1566 18.979 23.1676 18.9904L24.1007 19.9282C24.1246 19.9523 24.1539 19.9643 24.1881 19.9643H26.4146C26.4469 19.9643 26.4737 19.9518 26.495 19.927C27.4042 18.8621 28.7079 20.3752 27.6925 21.1038C27.2923 21.3915 26.8941 21.3339 26.498 20.931C26.4754 20.9075 26.4476 20.8958 26.4146 20.8958H23.8062C23.7697 20.8958 23.7385 20.8827 23.7124 20.8565L22.7629 19.9032C22.7365 19.8768 22.701 19.8619 22.6641 19.8619L20.3984 19.8827C20.4234 19.7488 20.5704 18.9602 20.59 18.9243Z" fill="white" fill-opacity="0.5"/>
<path d="M20.1109 20.5385L20.7478 20.5441C20.7867 20.5441 20.8195 20.5577 20.8464 20.5852L22.2998 22.0373C22.3115 22.0493 22.3257 22.0589 22.3413 22.0655C22.3571 22.0721 22.374 22.0754 22.3912 22.0754H25.3181C25.3536 22.0754 25.3824 22.0613 25.4044 22.0333C25.8023 21.5271 26.6279 21.6025 26.8528 22.194C27.1974 23.1028 26.0393 23.7826 25.4265 23.0204C25.4165 23.0076 25.4038 22.9973 25.3891 22.9901C25.3745 22.9831 25.3584 22.9793 25.3422 22.9793H21.9944C21.9568 22.9793 21.9252 22.9661 21.8991 22.9401C21.4296 22.4762 20.9625 22.0101 20.4977 21.5421C20.3653 21.4076 20.2457 21.4073 20.1392 21.5412C18.6406 23.4285 16.7493 24.6289 14.4651 25.1425C11.1274 25.8925 7.7324 24.0588 5.67027 21.4529C5.10445 20.7378 4.77165 19.9722 4.67188 19.1562V18.3306C4.84195 16.9777 5.17074 15.6675 5.65822 14.4001C5.67027 14.3693 5.66994 14.3385 5.65722 14.3077C5.19921 13.1508 4.90891 11.9555 4.78637 10.7216C4.67689 9.62098 4.56214 6.53093 6.50272 7.04006C7.95313 7.41966 9.53837 8.91902 10.4675 10.0468C10.4771 10.0585 10.4898 10.0673 10.5042 10.0721C10.5186 10.0769 10.5341 10.0775 10.5488 10.0739C12.1071 9.71504 13.6673 9.70835 15.2295 10.0538C15.2462 10.0575 15.2636 10.0564 15.2799 10.0507C15.2962 10.0451 15.3107 10.035 15.3219 10.0217C16.1857 8.97426 18.434 6.74181 19.9095 7.04006C20.2774 7.11459 20.4337 7.45592 20.6019 7.82296C20.624 7.87142 20.6464 7.92034 20.6695 7.96914C21.3391 9.68038 20.8905 12.0432 20.308 13.7413C20.2965 13.7741 20.3083 13.7905 20.3432 13.7905H20.9569C20.9903 13.7905 21.0188 13.7788 21.0422 13.7554L22.5257 12.2721C22.5375 12.2601 22.5516 12.2504 22.5674 12.2439C22.583 12.2373 22.6 12.234 22.6172 12.234H24.0133C24.0481 12.234 24.077 12.2206 24.0997 12.1938C24.5538 11.6586 25.4717 11.8062 25.5822 12.5152C25.7198 13.3939 24.6944 13.887 24.0946 13.177C24.0843 13.1647 24.0714 13.1548 24.0567 13.1481C24.0423 13.1413 24.0263 13.1378 24.0103 13.1378H22.9939C22.9584 13.1378 22.9278 13.1505 22.9024 13.176L21.4168 14.6602C21.4058 14.6717 21.3925 14.6808 21.3775 14.687C21.3627 14.6932 21.3468 14.6964 21.3305 14.6964L19.6581 14.6972C20.1346 16.0545 20.556 18.3847 20.5815 18.9695C20.4861 19.6375 20.3798 20.1476 20.1109 20.5385Z" fill="white" fill-opacity="0.5"/>
<path d="M20.5913 18.9574L20.4144 19.8871L20.0778 20.6132C18.5576 22.771 15.9755 24.4102 13.3277 24.6206C10.3317 24.8593 7.21495 22.8375 5.63754 20.4828C5.35664 20.0647 5.1936 19.5524 5.14844 18.9459C6.86876 18.5083 8.50548 18.5815 9.78011 19.9185C9.78748 19.9265 9.79686 19.9323 9.80727 19.9355C9.81768 19.9387 9.8288 19.939 9.83949 19.9366C9.85019 19.9342 9.86011 19.9291 9.86826 19.9215C9.87641 19.9142 9.88253 19.9049 9.88597 19.8945C10.7996 17.055 14.9348 17.0372 15.8346 19.907C15.837 19.9148 15.8413 19.922 15.8473 19.9276C15.8532 19.9332 15.8606 19.9374 15.8686 19.9393C15.8766 19.9414 15.885 19.9412 15.893 19.939C15.9009 19.9369 15.9082 19.9327 15.914 19.927C17.2341 18.6171 18.8265 18.4569 20.5913 18.9574ZM13.0959 21.4043V20.9393C13.0959 20.9094 13.1107 20.8919 13.1403 20.887C13.6527 20.7956 13.9682 20.4982 14.0868 19.995C14.1598 19.6862 14.1831 19.083 13.8041 19.0799C13.255 19.075 12.7073 19.0737 12.1611 19.0758C11.7863 19.0779 11.6169 19.1887 11.6222 19.5699C11.6342 20.2931 11.961 20.7407 12.6025 20.9132C12.6315 20.9209 12.6459 20.9398 12.6459 20.9697V21.3791C12.6459 21.4188 12.63 21.451 12.5983 21.4755L12.3198 21.69C12.2944 21.7095 12.2655 21.7193 12.233 21.7193H10.8187C10.77 21.7193 10.7506 21.7428 10.7604 21.7895L10.8695 22.2815C10.8737 22.3025 10.8857 22.3172 10.9055 22.3255L11.0304 22.3811C11.0657 22.3964 11.0904 22.4215 11.1045 22.4564L11.3205 23.0009C11.3346 23.0343 11.3561 23.0403 11.385 23.0187C11.6243 22.8396 11.5206 22.3947 11.5322 22.1246C11.5343 22.0827 11.5562 22.0646 11.5978 22.0702C12.4511 22.1811 13.3034 22.1807 14.1545 22.0691C14.194 22.0635 14.2166 22.0803 14.2223 22.1193C14.2678 22.4219 14.1334 22.8166 14.362 23.0177C14.3902 23.0428 14.4114 23.0379 14.4255 23.003L14.6436 22.447C14.6613 22.4017 14.6941 22.3775 14.7421 22.3748C14.7597 22.3734 14.7767 22.3689 14.7929 22.3612C14.8282 22.3459 14.8511 22.3193 14.8617 22.2815L15.0015 21.7937C15.0039 21.7851 15.0043 21.7758 15.0026 21.767C15.0008 21.758 14.9971 21.7497 14.9915 21.7425C14.986 21.7353 14.9788 21.7295 14.9707 21.7254C14.9625 21.7214 14.9534 21.7193 14.9443 21.7193H13.4664C13.4283 21.7193 13.3997 21.7033 13.3806 21.6711C13.3277 21.5812 13.2501 21.5169 13.1477 21.4785C13.1325 21.4727 13.1193 21.4625 13.1101 21.4492C13.1008 21.4359 13.0959 21.4203 13.0959 21.4043ZM12.5231 22.7276L12.7105 23.0459C12.7275 23.0747 12.7518 23.0987 12.7811 23.1151C12.8104 23.1316 12.8436 23.1403 12.8773 23.1401C12.911 23.1398 12.9441 23.1308 12.9732 23.114C13.0023 23.0971 13.0263 23.0729 13.0429 23.0438L13.2218 22.7308C13.2267 22.7223 13.2333 22.715 13.2411 22.7092C13.249 22.7035 13.258 22.6995 13.2676 22.6972C13.2771 22.6951 13.287 22.6948 13.2966 22.6967C13.3062 22.6985 13.3154 22.7022 13.3235 22.7078C13.3828 22.7489 13.4378 22.7935 13.4886 22.8417C13.5211 22.8732 13.5588 22.8833 13.6019 22.8721C13.7346 22.8387 13.809 22.7521 13.8253 22.6124C13.8373 22.5057 13.7889 22.4523 13.6802 22.4523H12.0086C11.9684 22.4523 11.9437 22.4715 11.9345 22.5099C11.9034 22.6452 11.9405 22.7551 12.0456 22.8396C12.0752 22.8631 12.1119 22.8761 12.1498 22.8763C12.1876 22.8764 12.2245 22.8639 12.2542 22.8407L12.4257 22.7087C12.4331 22.7031 12.4415 22.699 12.4506 22.6969C12.4597 22.6948 12.4691 22.6947 12.4784 22.6964C12.4876 22.6982 12.4963 22.7019 12.504 22.7073C12.5118 22.7126 12.5183 22.7196 12.5231 22.7276Z" fill="white" fill-opacity="0.7"/>
<path d="M19.5816 14.4836L19.8839 15.2855L20.1577 16.2154L20.3755 17.1995L20.5277 18.1315L20.5913 18.9579C20.5588 18.9672 20.5521 18.9807 20.5712 18.9984C18.8086 18.4888 17.2185 18.6519 15.9 19.9859C15.8942 19.9919 15.887 19.996 15.879 19.9983C15.871 20.0005 15.8627 20.0007 15.8547 19.9986C15.8467 19.9965 15.8393 19.9923 15.8334 19.9866C15.8274 19.9808 15.8231 19.9736 15.8207 19.9656C14.922 17.0429 10.7923 17.061 9.8798 19.9528C9.87637 19.9634 9.87027 19.973 9.86213 19.9805C9.85398 19.988 9.84408 19.9933 9.8334 19.9957C9.82271 19.9983 9.81162 19.9978 9.80121 19.9946C9.79081 19.9914 9.78145 19.9855 9.77408 19.9775C8.5011 18.6157 6.86653 18.541 5.14844 18.9867C5.24781 17.3311 5.62634 15.7419 6.28396 14.2192C6.29877 14.1865 6.29912 14.1534 6.28503 14.12C5.62315 12.5322 4.72023 9.46009 5.63902 7.74221C6.00061 7.06828 7.68276 8.35855 8.0306 8.67633C8.76577 9.34954 9.39627 10.0213 9.92211 10.6917C9.94607 10.7223 9.97673 10.7322 10.0141 10.7216C11.8939 10.1628 13.7766 10.1578 15.6621 10.7066C15.6751 10.7108 15.6892 10.7107 15.7024 10.7066C15.7156 10.7024 15.7274 10.6942 15.7361 10.6832C16.7078 9.42916 18.0241 8.01839 19.5276 7.53001C19.5615 7.51884 19.5973 7.517 19.6313 7.52468C19.8311 7.56839 19.9844 7.6569 20.0605 7.85844C20.7551 9.69681 20.1947 11.9596 19.5001 13.7489C19.3901 14.0326 19.4197 14.2469 19.5816 14.4836ZM8.87644 10.7504C8.14585 9.88556 7.27782 9.00796 6.32943 8.47479C6.23357 8.42076 6.17718 8.44884 6.16026 8.55903C5.9488 9.97193 6.2237 11.4083 6.6942 12.7423C6.70617 12.775 6.72204 12.7775 6.74177 12.7498C7.30073 11.9585 8.00488 11.3315 8.85424 10.8687C8.90992 10.8389 8.91732 10.7994 8.87644 10.7504ZM16.7955 10.8133C17.6614 11.3006 18.3583 11.8668 18.9196 12.6687C18.9373 12.6936 18.9513 12.6914 18.962 12.6623C19.3772 11.5064 19.5797 10.3142 19.5698 9.0858C19.5677 8.89919 19.4725 8.70405 19.4652 8.49825C19.4646 8.48426 19.4603 8.47068 19.4528 8.45887C19.4455 8.44706 19.435 8.43743 19.4227 8.43097C19.4103 8.42449 19.3966 8.42138 19.3827 8.42196C19.3689 8.42254 19.3554 8.42678 19.3436 8.43426C18.3632 9.06057 17.5095 9.8301 16.7829 10.7429C16.7595 10.772 16.7638 10.7955 16.7955 10.8133ZM11.3738 13.9675C10.8049 13.5559 9.39874 13.4525 9.3998 14.4804C9.3998 14.7545 9.55839 14.8654 9.80157 14.9176C10.2086 15.004 11.1634 15.2546 11.4795 14.9773C11.7428 14.747 11.6656 14.1786 11.3738 13.9675ZM16.1316 13.9142C15.604 13.573 14.6979 13.5538 14.2845 14.0869C14.0212 14.425 14.073 15.1458 14.6693 15.1085C15.0214 15.0861 16.0332 15.0168 16.2786 14.7609C16.4932 14.5369 16.3768 14.072 16.1316 13.9142ZM11.2786 17.0418C11.1242 16.3114 9.35645 15.5457 8.70093 15.3122C8.5508 15.2581 8.4567 15.3093 8.41863 15.4657C8.34145 15.7835 8.19554 16.3679 8.53705 16.5885C8.95045 16.8552 10.9836 17.7754 11.2691 17.1335C11.2818 17.1035 11.285 17.073 11.2786 17.0418ZM17.2691 15.3186C16.9097 15.2343 15.7975 15.8763 15.457 16.0725C15.0859 16.2867 14.4663 16.6931 14.4875 17.1451C14.4889 17.1843 14.5072 17.2127 14.5425 17.2306C14.7596 17.3421 15.0165 17.3695 15.3132 17.3127C15.7393 17.2306 17.4976 16.7506 17.4553 16.2675C17.4299 15.979 17.3989 15.6971 17.3623 15.422C17.3589 15.3972 17.3481 15.374 17.3316 15.3556C17.315 15.3371 17.2932 15.3242 17.2691 15.3186Z" fill="white"/>
</g>
<defs>
<clipPath id="clip0_616_2509">
<rect width="32" height="32" fill="white"/>
</clipPath>
</defs>
</svg>
