<svg width="32" height="32" viewBox="0 0 32 32" fill="none" xmlns="http://www.w3.org/2000/svg">
<rect width="32" height="32" rx="16" fill="black"/>
<path d="M25.0594 17.2236C25.0594 18.0503 25.0594 18.8772 25.0594 19.704C24.9317 19.8132 24.773 19.8064 24.6188 19.8064C20.6445 19.8084 16.6701 19.8093 12.6959 19.8058C12.1626 19.8054 12.0637 19.7069 12.0628 19.1816C12.0589 17.0304 12.0591 14.8794 12.0628 12.7282C12.0637 12.1909 12.1615 12.0974 12.7228 12.0968C15.7451 12.0935 18.7672 12.0957 21.7895 12.0953C22.4254 12.0952 22.4259 12.0947 22.4259 11.4823C22.4258 11.0796 22.4224 10.6769 22.4265 10.2743C22.4288 10.0474 22.3315 9.94062 22.0913 9.95038C21.9699 9.9553 21.8478 9.94969 21.7261 9.94969C17.0765 9.9496 12.4268 9.94987 7.77729 9.94943C7.08757 9.94934 7.07972 9.94831 7.08983 9.29855C7.09985 8.65423 7.04578 8.00887 7.11979 7.36551C13.0111 7.36551 18.9023 7.36715 24.7936 7.35938C25.0211 7.35912 25.0669 7.40197 25.066 7.61994C25.0554 9.9731 25.0594 12.3264 25.0594 14.6795C24.8883 14.8159 24.6817 14.7807 24.4861 14.7809C21.5103 14.7831 18.5346 14.7823 15.5589 14.7825C14.8684 14.7826 14.8681 14.7831 14.8683 15.4433C14.8683 15.8775 14.8622 16.3116 14.8706 16.7457C14.8769 17.0676 14.92 17.1052 15.2602 17.1181C15.4702 17.126 15.6805 17.1206 15.8907 17.1206C18.7559 17.1208 21.621 17.1199 24.4861 17.1223C24.6817 17.1224 24.8883 17.087 25.0594 17.2236Z" fill="#FF0506"/>
<path d="M25.0594 24.4731C19.2015 24.4731 13.3438 24.4714 7.48597 24.4786C7.21431 24.479 7.1162 24.4437 7.11719 24.1452C7.13046 20.2657 7.12866 16.3863 7.11981 12.5068C7.11927 12.2583 7.18299 12.1899 7.44283 12.1979C8.07335 12.2171 8.70531 12.2158 9.33601 12.1989C9.62401 12.1912 9.71237 12.2757 9.71147 12.5585C9.70118 15.6536 9.70705 18.7487 9.70037 21.8438C9.69992 22.0502 9.72843 22.1321 9.97772 22.1317C14.9718 22.1238 19.966 22.1257 24.9601 22.1254C24.9933 22.1254 25.0264 22.1219 25.0595 22.12C25.0594 22.9043 25.0594 23.6887 25.0594 24.4731Z" fill="#FF0506"/>
</svg>
