<svg width="32" height="32" viewBox="0 0 32 32" fill="none" xmlns="http://www.w3.org/2000/svg">
<rect width="32" height="32" rx="16" fill="#24201F"/>
<path d="M6.52009 18.6813C6.04234 18.2035 5.72193 17.6517 5.55889 17.0259C5.39964 16.3964 5.39964 15.7668 5.55889 15.1373C5.72193 14.5039 6.04044 13.9502 6.5144 13.4762C6.99594 12.9945 7.55143 12.6741 8.18086 12.5148C8.81028 12.3555 9.43971 12.3555 10.0691 12.5148C10.6985 12.6741 11.2521 12.9926 11.7299 13.4705L12.9129 14.6538L14.6647 12.9016L13.4817 11.7184C13.0039 11.2405 12.6835 10.6887 12.5204 10.063C12.3612 9.43341 12.3593 8.80576 12.5148 8.18C12.6741 7.55045 12.9944 6.99485 13.476 6.51321C13.9537 6.03536 14.5073 5.7168 15.1367 5.55751C15.7662 5.39823 16.3937 5.40012 17.0193 5.5632C17.6487 5.72248 18.2023 6.04105 18.6801 6.5189C19.1579 6.99676 19.4764 7.55045 19.6356 8.18C19.7987 8.80576 19.8005 9.43341 19.6413 10.063C19.4858 10.6963 19.1692 11.2519 18.6915 11.7297L17.5142 12.9073L19.2602 14.6538L20.4375 13.4762C20.9153 12.9983 21.467 12.6778 22.0926 12.5148C22.722 12.3555 23.3496 12.3574 23.9752 12.5205C24.6047 12.6798 25.1601 13.0002 25.6417 13.4819C26.1194 13.9597 26.4379 14.5134 26.5972 15.143C26.7602 15.7687 26.7602 16.3945 26.5972 17.0202C26.4379 17.6498 26.1194 18.2035 25.6417 18.6813C25.1601 19.163 24.6047 19.4834 23.9752 19.6427C23.3496 19.7982 22.722 19.7963 22.0926 19.637C21.4708 19.4777 20.921 19.1592 20.4432 18.6813L19.2659 17.5038L17.5142 19.2559L18.6915 20.4335C19.1692 20.9113 19.4858 21.4631 19.6413 22.0889C19.8005 22.7184 19.8005 23.348 19.6413 23.9775C19.482 24.6071 19.1617 25.1627 18.6801 25.6443C18.2062 26.1183 17.6526 26.4369 17.0193 26.6C16.3899 26.7593 15.7605 26.7593 15.1311 26.6C14.5092 26.4407 13.9594 26.1222 13.4817 25.6443C13.0001 25.1627 12.6778 24.6089 12.5148 23.9832C12.3555 23.3537 12.3555 22.7241 12.5148 22.0945C12.6816 21.465 13.002 20.9132 13.476 20.4392L14.6647 19.2502L12.9186 17.5038L11.7299 18.6927C11.256 19.1668 10.7004 19.4834 10.0634 19.6427C9.43401 19.802 8.8046 19.802 8.17518 19.6427C7.54954 19.4797 6.99784 19.1592 6.52009 18.6813ZM7.94198 17.2592C8.1581 17.4753 8.40836 17.6195 8.69273 17.6915C8.98091 17.7674 9.26718 17.7692 9.55156 17.6972C9.83594 17.6252 10.0862 17.481 10.3023 17.2649L11.491 16.0759L10.308 14.8927C10.0919 14.6765 9.83973 14.5343 9.55156 14.466C9.26718 14.394 8.98281 14.394 8.69843 14.466C8.41405 14.5381 8.1619 14.6841 7.94198 14.904C7.72585 15.1202 7.57987 15.3686 7.50404 15.6492C7.432 15.9337 7.432 16.2181 7.50404 16.5026C7.57987 16.7908 7.72585 17.043 7.94198 17.2592ZM14.9035 10.2962L16.0866 11.4795L17.2639 10.3019C17.4838 10.0819 17.6279 9.83162 17.6962 9.55097C17.7682 9.26654 17.7663 8.98021 17.6904 8.69198C17.6184 8.40754 17.4743 8.15724 17.2582 7.94107C17.0421 7.7249 16.7918 7.58079 16.5075 7.50873C16.223 7.43667 15.9387 7.43667 15.6543 7.50873C15.3737 7.57699 15.1235 7.72111 14.9035 7.94107C14.6874 8.15724 14.5396 8.40754 14.4599 8.69198C14.3879 8.97641 14.3879 9.26085 14.4599 9.54528C14.5396 9.82972 14.6874 10.08 14.9035 10.2962ZM20.3547 16.0816L21.532 17.2592C21.7482 17.4753 21.9965 17.6213 22.2771 17.6972C22.5615 17.7692 23.1771 17.7674 23.4577 17.6915C23.742 17.6195 23.9942 17.4735 24.2141 17.2535C24.434 17.0335 24.5781 16.7832 24.6464 16.5026C24.7222 16.2219 24.7241 15.9394 24.652 15.6549C24.58 15.3705 24.4359 15.1202 24.2198 14.904C23.9998 14.6841 23.7477 14.5381 23.4633 14.466C23.179 14.394 22.5615 14.394 22.2771 14.466C22.0003 14.5381 21.7519 14.6841 21.532 14.904L20.3547 16.0816ZM14.9035 24.2221C15.1197 24.4383 15.37 24.5824 15.6543 24.6545C15.9387 24.7265 16.2212 24.7246 16.5018 24.6488C16.7861 24.5767 17.0364 24.4326 17.2525 24.2164C17.4724 23.9965 17.6184 23.7443 17.6904 23.4599C17.7663 23.1792 17.7682 22.8967 17.6962 22.6122C17.6279 22.324 17.4857 22.0718 17.2696 21.8556L16.0922 20.678L14.9035 21.867C14.6874 22.0832 14.5414 22.3316 14.4656 22.6122C14.3935 22.8967 14.3935 23.1811 14.4656 23.4655C14.5377 23.7499 14.6836 24.0022 14.9035 24.2221ZM14.3405 16.0816L16.0866 17.8281L17.8383 16.0759L16.0922 14.3295L14.3405 16.0816Z" fill="#F1E1D4"/>
</svg>
