<svg width="32" height="32" viewBox="0 0 32 32" fill="none" xmlns="http://www.w3.org/2000/svg">
<path d="M9.48445 11.4373C10.2501 11.6125 10.7241 12.3554 10.5431 13.0966C10.3621 13.8378 9.59467 14.2966 8.82899 14.1214C8.06332 13.9462 7.58934 13.2033 7.77034 12.4621C7.95134 11.7209 8.71877 11.2621 9.48445 11.4373Z" fill="white"/>
<path fill-rule="evenodd" clip-rule="evenodd" d="M25.1066 18.1122C24.7459 18.6708 24.3311 19.1771 23.8803 19.6484L23.8984 19.7007C24.264 19.9092 24.6025 20.0699 24.9109 20.2164C26.23 20.843 27 21.2087 27 23.9252C27 27.2768 22.059 30 16 30C9.94098 30 5 27.2768 5 23.9252C5 22.3192 6.13607 20.8529 7.97541 19.7706C7.41639 19.1945 6.94754 18.5835 6.51475 17.8853C6.44262 17.7456 6.37049 17.6234 6.29836 17.5012C6.28033 17.4751 6.26681 17.4489 6.25328 17.4227C6.23976 17.3965 6.22623 17.3703 6.2082 17.3441C6.18537 17.2999 6.16254 17.2569 6.14001 17.2143C6.07353 17.0889 6.00961 16.9683 5.95574 16.8379C5.93771 16.803 5.92418 16.7681 5.91066 16.7332C5.89713 16.6983 5.88361 16.6633 5.86557 16.6284C5.46885 15.7207 5.19836 14.7606 5.09016 13.7481C5.07213 13.6783 5.07213 13.6259 5.07213 13.5561C5.0541 13.3815 5.03607 13.207 5.03607 13.015V12.4738C5.03607 10.5711 5.54098 8.80798 6.53279 7.202C7.0377 6.399 7.61476 5.66584 8.28197 5.03741C8.30661 5.00162 8.33968 4.97399 8.36966 4.94893C8.38355 4.93732 8.39678 4.92627 8.4082 4.91521C8.57049 4.75811 8.75082 4.601 8.93115 4.46135C8.9582 4.44389 8.98074 4.42643 9.00328 4.40898C9.02582 4.39152 9.04836 4.37406 9.07541 4.35661C9.52623 3.99002 10.0131 3.67581 10.5361 3.37905C10.8426 3.20449 11.1672 3.04738 11.4918 2.90773C11.5459 2.88155 11.6 2.85973 11.6541 2.83791C11.7082 2.81609 11.7623 2.79427 11.8164 2.76808C12.0328 2.6808 12.2672 2.59352 12.4836 2.52369C12.5395 2.50678 12.5947 2.48987 12.6496 2.47308C12.8776 2.40324 13.0985 2.3356 13.3311 2.2793C13.3852 2.27057 13.4439 2.25748 13.5025 2.24439C13.5611 2.2313 13.6197 2.21821 13.6738 2.20948C13.6888 2.20583 13.7031 2.20219 13.7167 2.1987C13.7685 2.18549 13.8113 2.17456 13.8541 2.17456C14.323 2.08728 14.7918 2.03491 15.2787 2H15.982C17.1 2 18.1639 2.13965 19.1738 2.45387C19.2098 2.46259 19.2459 2.47569 19.282 2.48878C19.318 2.50187 19.3541 2.51496 19.3902 2.52369C19.4352 2.54115 19.4803 2.55424 19.5254 2.56733C19.5705 2.58043 19.6156 2.59352 19.6607 2.61097C19.6967 2.62843 19.7373 2.64152 19.7779 2.65461C19.8184 2.66771 19.859 2.6808 19.8951 2.69825C19.9131 2.69825 19.9311 2.70698 19.9492 2.71571C19.9672 2.72444 19.9852 2.73317 20.0033 2.73317C20.1836 2.80299 20.3459 2.87282 20.5262 2.9601C20.8148 3.08229 21.1033 3.22195 21.3738 3.37905C21.6443 3.53616 21.8967 3.69327 22.1311 3.85037C22.2213 3.90274 22.3295 3.97257 22.4197 4.04239C22.5279 4.11222 22.618 4.18204 22.7082 4.25187C22.7352 4.26933 22.7578 4.28679 22.7803 4.30424C22.8029 4.3217 22.8254 4.33915 22.8525 4.35661C23.8443 5.14214 24.6738 6.08479 25.359 7.202C25.5213 7.44639 25.6656 7.70823 25.7918 7.97008L26.0082 8.4414C26.0262 8.49377 26.0488 8.54614 26.0713 8.5985C26.0939 8.65087 26.1164 8.70324 26.1344 8.75561C26.1923 8.88169 26.2386 9.01901 26.2826 9.14952C26.2934 9.18165 26.3041 9.21336 26.3148 9.24439C26.3328 9.29676 26.3508 9.35349 26.3689 9.41023C26.3869 9.46696 26.4049 9.52369 26.423 9.57606C26.441 9.62843 26.4545 9.68516 26.468 9.7419C26.4816 9.79863 26.4951 9.85536 26.5131 9.90773C26.5311 9.96883 26.5447 10.0299 26.5582 10.091C26.5717 10.1521 26.5852 10.2132 26.6033 10.2743L26.6574 10.5885C26.6754 10.6409 26.6934 10.7107 26.6934 10.7805C26.6995 10.8155 26.7075 10.8504 26.7155 10.8853C26.7315 10.9551 26.7475 11.0249 26.7475 11.0948C26.7656 11.217 26.7836 11.3392 26.7836 11.4613C26.8016 11.5661 26.8016 11.6883 26.8016 11.793V12.5262C26.8016 13.3117 26.7115 14.0623 26.5492 14.7955C26.459 15.1796 26.3508 15.5636 26.2066 15.9476C26.1885 16 26.166 16.0524 26.1434 16.1047C26.1209 16.1571 26.0984 16.2095 26.0803 16.2618C26.0262 16.419 25.9541 16.5761 25.882 16.7332C25.8099 16.8902 25.7377 17.0475 25.6475 17.2045C25.5393 17.414 25.4311 17.606 25.3049 17.8155C25.2688 17.8678 25.2373 17.9158 25.2057 17.9638C25.1742 18.0118 25.1426 18.0599 25.1066 18.1122ZM23.9344 13.0673C24.0426 13.1372 24.1148 13.207 24.1508 13.2943V13.3117C24.2049 13.399 24.223 13.5037 24.223 13.6085C24.223 13.7132 24.2049 13.818 24.1508 13.9052C24.0967 13.9925 24.0246 14.0623 23.9344 14.1147C23.8443 14.1671 23.7902 14.1845 23.6098 14.1845C23.4295 14.1845 23.2672 14.1496 23.141 14.0449C22.9967 13.9402 22.9066 13.8005 22.8344 13.6085C22.8344 13.6085 22.4377 13.7656 22.4377 13.783C22.4918 13.9402 22.582 14.0798 22.6902 14.202C22.7984 14.3242 22.9246 14.4115 23.0869 14.4813C23.2492 14.5511 23.4295 14.586 23.6098 14.586C23.7902 14.586 23.9705 14.5511 24.1328 14.4638C24.2951 14.394 24.4213 14.2718 24.5115 14.1322C24.6016 13.9751 24.6557 13.8005 24.6557 13.6259C24.6557 13.4514 24.6197 13.2943 24.5656 13.1721C24.4934 13.0324 24.4033 12.9277 24.277 12.8229C24.1508 12.7182 23.9705 12.6135 23.7541 12.5262L23.3213 12.3167C23.2131 12.2643 23.141 12.212 23.1049 12.1421C23.0508 12.0723 23.0328 12.0025 23.0328 11.9152C23.0328 11.8279 23.0508 11.7406 23.1049 11.6708C23.159 11.601 23.2311 11.5312 23.3033 11.4963C23.3754 11.4439 23.4475 11.4264 23.5738 11.4264C23.7 11.4264 23.8262 11.4439 23.9164 11.5137C24.0066 11.5661 24.0967 11.6708 24.1688 11.8105C24.1688 11.8105 24.5295 11.601 24.5295 11.5835C24.4213 11.409 24.2951 11.2693 24.1328 11.1646C23.9705 11.0599 23.7361 11.0075 23.5557 11.0075C23.3754 11.0075 23.2131 11.0599 23.0689 11.1297C22.9246 11.217 22.8164 11.3217 22.7262 11.4439C22.6361 11.5835 22.6 11.7232 22.6 11.8803C22.6 12.0374 22.6361 12.1771 22.7082 12.2818C22.7803 12.404 22.8705 12.4913 22.9967 12.5786C23.1229 12.6658 23.3033 12.7531 23.5016 12.8404C23.682 12.9102 23.8262 12.9975 23.9344 13.0673ZM21.4098 11.1297L19.7689 14.4638H20.2016L21.8246 11.1297H21.4098ZM19.4082 11.4963L19.2279 11.1297L19.2098 11.1122H18.7951L19.9492 13.4688L20.1656 13.0499L19.4082 11.4963ZM17.1 13.0673C17.2082 13.1372 17.2803 13.207 17.3164 13.2943V13.3117C17.3705 13.399 17.3885 13.5037 17.3885 13.6085C17.3885 13.7132 17.3705 13.818 17.3164 13.9052C17.2623 13.9925 17.1902 14.0623 17.1 14.1147C17.0098 14.1671 16.9557 14.1845 16.7754 14.1845C16.5951 14.1845 16.4328 14.1496 16.3066 14.0449C16.1623 13.9402 16.0721 13.8005 16 13.6085C16 13.6085 15.6033 13.7656 15.6033 13.783C15.6574 13.9402 15.7475 14.0798 15.8557 14.202C15.9639 14.3242 16.0902 14.4115 16.2525 14.4813C16.4148 14.5511 16.5951 14.586 16.7754 14.586C16.9557 14.586 17.1361 14.5511 17.2984 14.4638C17.4607 14.394 17.5869 14.2718 17.677 14.1322C17.7672 13.9751 17.8213 13.8005 17.8213 13.6259C17.8213 13.4514 17.7852 13.2943 17.7311 13.1721C17.659 13.0324 17.5689 12.9277 17.4426 12.8229C17.3164 12.7182 17.1361 12.6135 16.9197 12.5262L16.4869 12.3167C16.3787 12.2643 16.3066 12.212 16.2705 12.1421C16.2164 12.0723 16.1984 12.0025 16.1984 11.9152C16.1984 11.8279 16.2164 11.7406 16.2705 11.6708C16.3246 11.601 16.3967 11.5312 16.4689 11.4963C16.541 11.4439 16.6131 11.4264 16.7393 11.4264C16.8656 11.4264 16.9918 11.4439 17.082 11.5137C17.1721 11.5661 17.2623 11.6708 17.3344 11.8105C17.3344 11.8105 17.6951 11.601 17.6951 11.5835C17.5869 11.409 17.4607 11.2693 17.2984 11.1646C17.1361 11.0599 16.9016 11.0075 16.7213 11.0075C16.541 11.0075 16.3787 11.0599 16.2344 11.1297C16.0902 11.217 15.982 11.3217 15.8918 11.4439C15.8016 11.5835 15.7656 11.7232 15.7656 11.8803C15.7656 12.0374 15.8016 12.1771 15.8738 12.2818C15.9459 12.404 16.0361 12.4913 16.1623 12.5786C16.2885 12.6658 16.4689 12.7531 16.6672 12.8404C16.8475 12.9102 16.9918 12.9975 17.1 13.0673ZM14.8554 14.4464H14.4492L14.2689 14.0798L13.277 12.0723L13.4934 11.6534L14.8554 14.4464ZM13.4574 11.1122H13.0246L11.4016 14.4464H11.8164L13.4574 11.1122ZM9.14754 11.0075C8.1377 11.0075 7.32623 11.793 7.32623 12.7706C7.32623 13.7481 8.1377 14.5337 9.14754 14.5337C10.1574 14.5337 10.9689 13.7481 10.9689 12.7706C10.9689 11.793 10.1574 11.0075 9.14754 11.0075ZM6.40656 23.8554C6.40656 24.7631 7.00164 25.6708 8.10164 26.4564C8.0373 26.337 7.98253 26.2979 7.93732 26.2656C7.83047 26.1892 7.77705 26.1511 7.77705 25.182C7.77705 23.803 8.89508 22.5636 10.6443 21.7257C10.6172 21.7082 10.5902 21.6951 10.5631 21.682C10.5361 21.669 10.509 21.6559 10.482 21.6384C10.0672 21.394 9.68853 21.1496 9.30984 20.8703L9.03934 20.6608C9.02512 20.6677 9.0137 20.6773 9.00287 20.6864C8.98625 20.7004 8.97102 20.7132 8.94918 20.7132C7.3082 21.6209 6.40656 22.7207 6.40656 23.8554ZM12.141 26.788C12.141 27.3292 13.5115 28.3766 16 28.3766C18.4885 28.3766 19.859 27.3292 19.859 26.788C19.859 26.2469 18.4885 25.1995 16 25.1995C13.5115 25.1995 12.141 26.2469 12.141 26.788ZM21.2299 27.1518C21.2478 27.0305 21.2656 26.9093 21.2656 26.788C21.2656 25.1646 18.9033 23.8379 15.982 23.8379C13.0607 23.8379 10.6984 25.1646 10.6984 26.788C10.6984 26.9232 10.6984 27.0376 10.6984 27.1338C9.74599 26.5791 9.16557 25.9063 9.16557 25.1995C9.16557 24.1172 10.518 23.1047 12.4475 22.5112C12.5197 22.5374 12.5918 22.5592 12.6639 22.581C12.7361 22.6029 12.8082 22.6247 12.8803 22.6509C13.1508 22.7207 13.4393 22.7905 13.7098 22.8429C13.7639 22.8429 13.818 22.8604 13.8721 22.8778C14.0198 22.9096 14.1824 22.9269 14.3328 22.9429C14.3477 22.9445 14.3624 22.9461 14.3771 22.9476C14.4311 22.9476 14.4853 22.9476 14.5574 22.9651C14.9541 23.0175 15.3689 23.0349 15.7836 23.0349C16.4508 23.0349 17.1 22.9825 17.7311 22.8778H17.7852C18.1098 22.8254 18.4344 22.7556 18.741 22.6683C18.777 22.6683 18.7951 22.6683 18.8311 22.6509C18.9213 22.6247 19.0069 22.5985 19.0926 22.5723C19.1782 22.5461 19.2639 22.52 19.3541 22.4938C21.3377 23.0698 22.7623 24.1172 22.7623 25.217C22.7623 26.3006 22.1845 26.6216 21.236 27.1484L21.2299 27.1518ZM10.727 27.1503C10.7293 27.1447 10.7318 27.1456 10.7344 27.1546C10.7319 27.1532 10.7295 27.1518 10.727 27.1503ZM24.2049 25.182C24.2049 25.6185 24.0967 26.0549 23.8803 26.4564C24.9803 25.6708 25.5754 24.99 25.5754 23.8554C25.5754 22.7207 24.6738 21.6035 23.0328 20.7132L22.8164 20.6085C22.3295 20.9751 21.8246 21.3242 21.2836 21.6209C21.2746 21.6209 21.2611 21.6297 21.2475 21.6384C21.234 21.6471 21.2205 21.6559 21.2115 21.6559C23.0328 22.4938 24.2049 23.7681 24.2049 25.182Z" fill="white"/>
</svg>
