<svg width="32" height="32" viewBox="0 0 32 32" fill="none" xmlns="http://www.w3.org/2000/svg">
<g clip-path="url(#clip0_635_2482)">
<path d="M32 16C32 24.8366 24.8366 32 16 32C7.16344 32 0 24.8366 0 16C0 7.16344 7.16344 0 16 0C24.8366 0 32 7.16344 32 16Z" fill="#8D91AB"/>
<path d="M26.2334 14.6478L25.6536 13.6766L22.479 8.34226H22.4646L22.3632 8.15381H21.2035L16.6953 16.0829L21.276 23.9685H22.4356L22.4646 23.925L26.248 17.4454H23.9142L21.8992 21.0259L19.0291 16.0685L21.8412 11.1109L23.8851 14.6333L26.2334 14.6478Z" fill="white"/>
<path d="M8.59339 13.3578L10.7097 9.74838L9.99947 8.60323L9.50661 7.79149L5.88271 14.184L5.78125 14.358L6.36107 15.3727H15.4788L20.0739 7.50157L19.4362 6.3999L13.058 6.4144H12.9566L11.9419 6.3999L12.4782 7.41459L13.0146 8.42929L17.1893 8.4148L14.3192 13.3578H8.59339Z" fill="white"/>
<path d="M13.0985 9.18311C12.9391 9.18311 12.7651 9.2121 12.5912 9.27008C12.4027 9.32807 12.2143 9.41503 12.0404 9.5165C11.5475 9.82091 11.1996 10.2558 11.1416 10.6616C11.1126 10.8501 11.1561 11.0096 11.2576 11.1255C11.2721 11.1545 11.3011 11.169 11.3156 11.198C11.3301 11.2125 11.3446 11.2125 11.3591 11.227C11.3736 11.2415 11.3736 11.2415 11.3881 11.256C11.4171 11.2705 11.4316 11.285 11.4605 11.2995C11.7649 11.4444 12.2433 11.4154 12.7071 11.198L12.7216 11.1835C12.7651 11.169 12.8086 11.14 12.8521 11.1255C12.8956 11.111 12.9246 11.082 12.9681 11.053C13.0116 11.024 13.0551 10.9951 13.0985 10.9661C13.142 10.9371 13.171 10.9081 13.2145 10.8791L13.2435 10.8646C13.2725 10.8356 13.3015 10.8211 13.3305 10.7921C13.345 10.7776 13.345 10.7776 13.3595 10.7631C13.3884 10.7486 13.4029 10.7196 13.4174 10.7051C13.4319 10.6906 13.4464 10.6761 13.4609 10.6472C13.4754 10.6182 13.5044 10.6037 13.5189 10.5747C13.5334 10.5602 13.5334 10.5602 13.5479 10.5457C13.5624 10.5167 13.5914 10.5022 13.6059 10.4732L13.6349 10.4442C13.6494 10.4152 13.6639 10.4007 13.6784 10.3717C13.6784 10.3717 13.6784 10.3717 13.6784 10.3572L13.6929 10.3283C13.7219 10.2993 13.7363 10.2558 13.7508 10.2268C13.7653 10.1978 13.7798 10.1543 13.7943 10.1253L13.8088 10.1108C13.8088 10.0963 13.8233 10.0818 13.8233 10.0818C13.8233 10.0673 13.8233 10.0673 13.8378 10.0528C13.8378 10.0238 13.8523 10.0093 13.8523 9.98035C13.8523 9.95136 13.8668 9.95136 13.8668 9.93687C13.8668 9.92237 13.8668 9.90789 13.8668 9.90789C13.8668 9.8789 13.8668 9.8644 13.8668 9.84991V9.82091C13.8668 9.79192 13.8668 9.77743 13.8668 9.74843C13.8668 9.73394 13.8668 9.73394 13.8668 9.71944C13.8668 9.70495 13.8668 9.69045 13.8668 9.69045C13.8668 9.67595 13.8668 9.67595 13.8668 9.66146V9.64696C13.8668 9.61797 13.8523 9.60347 13.8378 9.57448C13.8233 9.54549 13.8088 9.53099 13.7943 9.502C13.6929 9.28458 13.4174 9.18311 13.0985 9.18311Z" fill="white"/>
<path d="M14.1583 10.2415C14.1583 10.2705 14.1438 10.285 14.1293 10.314C14.1293 10.3284 14.1293 10.3284 14.1148 10.3429C14.1003 10.3864 14.0859 10.4154 14.0569 10.4589C13.8974 10.7633 13.6365 11.0532 13.3176 11.2852C13.2741 11.3142 13.2306 11.3432 13.1871 11.3721C13.1436 11.4011 13.1002 11.4301 13.0567 11.4446H13.0422C13.0277 11.4591 13.0132 11.4591 12.9987 11.4736C12.9697 11.4881 12.9552 11.5026 12.9262 11.5171H12.9117C12.8972 11.5171 12.8827 11.5316 12.8682 11.5316C12.8392 11.5461 12.8103 11.5606 12.7813 11.5606L12.7523 11.5751C12.7523 11.5751 12.7523 11.5751 12.7378 11.5751C12.7233 11.5751 12.7088 11.5896 12.6943 11.5896C12.6653 11.6041 12.6363 11.6041 12.6073 11.6186L12.5783 11.6331H12.5638C12.5348 11.6476 12.5058 11.6476 12.4768 11.662C12.4623 11.662 12.4479 11.6765 12.4189 11.6765H12.4044C12.3754 11.6765 12.3464 11.691 12.3319 11.691C12.3174 11.691 12.2884 11.691 12.2739 11.7055H12.2594C12.2449 11.7055 12.2304 11.7055 12.2159 11.72C12.2014 11.72 12.1869 11.72 12.1724 11.72C12.129 11.72 12.071 11.7345 12.0275 11.7345H12.013C11.9695 11.7345 11.926 11.7345 11.8825 11.7345C11.868 11.7345 11.8535 11.7345 11.8535 11.7345H11.839C11.81 11.7345 11.7811 11.7345 11.7521 11.72C11.7376 11.72 11.7231 11.72 11.7086 11.7055C11.6796 11.7055 11.6506 11.691 11.6216 11.691C11.6071 11.691 11.5926 11.6765 11.5781 11.6765L12.3754 12.9667L14.0859 12.9522L14.9701 11.3866L14.1728 10.082C14.1728 10.0965 14.1728 10.111 14.1583 10.1255C14.1583 10.14 14.1583 10.14 14.1583 10.1545C14.1583 10.169 14.1438 10.1835 14.1438 10.2125C14.1583 10.227 14.1583 10.2415 14.1583 10.2415Z" fill="white"/>
<path d="M23.2476 14.9523C23.3345 15.0828 23.3924 15.2422 23.4359 15.4307C23.4794 15.6191 23.5084 15.822 23.5084 16.025C23.5084 16.6048 23.3201 17.1266 23.001 17.3876C22.8561 17.5036 22.6967 17.5615 22.5372 17.5325C22.5082 17.5325 22.4793 17.518 22.4503 17.518C22.4357 17.518 22.4212 17.5036 22.4068 17.5036C22.3922 17.5036 22.3778 17.489 22.3633 17.489C22.3343 17.4746 22.3053 17.46 22.2908 17.4455C22.0009 17.2572 21.7834 16.8367 21.7255 16.3293V16.3149C21.7255 16.2714 21.7109 16.2279 21.7109 16.17C21.7109 16.1264 21.7109 16.0829 21.7109 16.0394C21.7109 15.9815 21.7109 15.938 21.7109 15.88C21.7109 15.8365 21.7109 15.793 21.7255 15.7496V15.7206C21.7255 15.6916 21.7399 15.6481 21.7399 15.6191C21.7399 15.6046 21.7399 15.5901 21.7399 15.5756C21.7399 15.5466 21.7545 15.5176 21.7545 15.4886C21.7545 15.4597 21.769 15.4452 21.769 15.4162C21.7834 15.3872 21.7834 15.3582 21.798 15.3292C21.798 15.3147 21.8124 15.3002 21.8124 15.2857C21.8269 15.2567 21.8269 15.2277 21.8415 15.1987L21.8559 15.1552C21.8705 15.1262 21.8849 15.1117 21.8849 15.0828C21.8849 15.0828 21.8849 15.0828 21.8849 15.0683L21.8994 15.0393C21.914 14.9958 21.9429 14.9668 21.9573 14.9378C21.9719 14.9088 22.0009 14.8798 22.0154 14.8508L22.0298 14.8363C22.0444 14.8218 22.0444 14.8218 22.0589 14.8073C22.0733 14.7929 22.0733 14.7929 22.0733 14.7784C22.0879 14.7639 22.1023 14.7494 22.1169 14.7349C22.1313 14.7204 22.1458 14.7059 22.1458 14.7059C22.1604 14.6914 22.1604 14.6914 22.1748 14.6769C22.1893 14.6624 22.2037 14.6479 22.2183 14.6334L22.2473 14.6189C22.2618 14.6044 22.2908 14.5899 22.3053 14.5754C22.3197 14.5754 22.3197 14.5754 22.3343 14.5609C22.3487 14.5609 22.3633 14.5464 22.3633 14.5464C22.3633 14.5464 22.3778 14.5464 22.3778 14.5319H22.3922C22.4212 14.5319 22.4357 14.5174 22.4647 14.5174C22.4937 14.5174 22.5228 14.5174 22.5517 14.5174C22.8561 14.5029 23.0735 14.6769 23.2476 14.9523Z" fill="white"/>
<path d="M21.7824 14.6044C21.768 14.6189 21.7535 14.6479 21.7389 14.6624C21.7389 14.6769 21.7245 14.6769 21.7245 14.6914C21.6955 14.7204 21.681 14.7639 21.652 14.7928C21.4635 15.0828 21.3621 15.4596 21.3331 15.851C21.3331 15.909 21.3331 15.9525 21.3331 16.0105C21.3331 16.0539 21.3331 16.112 21.3331 16.1555V16.1699C21.3331 16.1845 21.3331 16.2134 21.3331 16.228C21.3331 16.2569 21.3331 16.2859 21.3475 16.3149V16.3294C21.3475 16.3438 21.3475 16.3584 21.3475 16.3728C21.3475 16.4019 21.3621 16.4309 21.3621 16.4598V16.4888C21.3621 16.4888 21.3621 16.4888 21.3621 16.5033C21.3621 16.5177 21.3621 16.5323 21.3765 16.5469C21.3765 16.5758 21.3911 16.6048 21.3911 16.6337L21.4056 16.6627V16.6773C21.4056 16.7062 21.42 16.7352 21.4346 16.7643C21.4346 16.7787 21.449 16.7933 21.449 16.8077V16.8222C21.4635 16.8512 21.4635 16.8657 21.4781 16.8947C21.4781 16.9093 21.4925 16.9237 21.5071 16.9526V16.9672C21.5071 16.9817 21.5215 16.9961 21.5215 17.0107C21.536 17.0251 21.536 17.0397 21.536 17.0397C21.5506 17.0832 21.5795 17.1267 21.6085 17.1701L21.6231 17.1846C21.652 17.2281 21.6664 17.2571 21.6955 17.2861C21.6955 17.3006 21.7099 17.3006 21.7099 17.315L21.7245 17.3296C21.7389 17.3585 21.768 17.3731 21.7824 17.4021C21.797 17.4165 21.797 17.431 21.8114 17.431C21.8405 17.46 21.8549 17.4745 21.8695 17.5035C21.8839 17.5181 21.8984 17.5181 21.8984 17.5325H20.3763L19.4922 16.0685L20.3619 14.5029H21.8839C21.8695 14.5174 21.8695 14.5174 21.8549 14.5319L21.8405 14.5464C21.8259 14.5609 21.8114 14.5754 21.7824 14.6044Z" fill="white"/>
<path d="M13.0985 22.9393C12.9391 22.9393 12.7651 22.9103 12.5912 22.8523C12.4027 22.7943 12.2143 22.7073 12.0404 22.6059C11.5475 22.3015 11.1996 21.8667 11.1416 21.4607C11.1126 21.2723 11.1561 21.1129 11.2576 20.9969C11.2721 20.9679 11.3011 20.9534 11.3156 20.9244C11.3301 20.9099 11.3446 20.9099 11.3591 20.8955C11.3736 20.8809 11.3736 20.8809 11.3881 20.8663C11.4171 20.8519 11.4316 20.8374 11.4605 20.823C11.7649 20.678 12.2433 20.707 12.7071 20.9244L12.7216 20.9388C12.7651 20.9534 12.8086 20.9823 12.8521 20.9969C12.8956 21.0113 12.9246 21.0404 12.9681 21.0694C13.0116 21.0983 13.0551 21.1273 13.0985 21.1563C13.142 21.1854 13.171 21.2143 13.2145 21.2433L13.2435 21.2579C13.2725 21.2868 13.3015 21.3012 13.3305 21.3303C13.345 21.3447 13.345 21.3447 13.3595 21.3593C13.3884 21.3737 13.4029 21.4028 13.4174 21.4172C13.4319 21.4318 13.4464 21.4462 13.4609 21.4753C13.4754 21.5043 13.5044 21.5187 13.5189 21.5478C13.5334 21.5622 13.5334 21.5622 13.5479 21.5767C13.5624 21.6057 13.5914 21.6203 13.6059 21.6492L13.6349 21.6782C13.6494 21.7071 13.6639 21.7217 13.6784 21.7507V21.7652L13.6929 21.7942C13.7219 21.8231 13.7363 21.8667 13.7508 21.8956C13.7653 21.9246 13.7798 21.9681 13.7943 21.9971L13.8088 22.0116C13.8088 22.026 13.8233 22.0406 13.8233 22.0406C13.8233 22.055 13.8233 22.055 13.8378 22.0695C13.8378 22.0985 13.8523 22.1131 13.8523 22.142C13.8523 22.171 13.8668 22.171 13.8668 22.1855C13.8668 22.1999 13.8668 22.2145 13.8668 22.2145C13.8668 22.2435 13.8668 22.258 13.8668 22.2724V22.3015C13.8668 22.3305 13.8668 22.3449 13.8668 22.374C13.8668 22.3884 13.8668 22.3884 13.8668 22.403C13.8668 22.4174 13.8668 22.4319 13.8668 22.4319C13.8668 22.4465 13.8668 22.4465 13.8668 22.4609V22.4755C13.8668 22.5044 13.8523 22.519 13.8378 22.5479C13.8233 22.5769 13.8088 22.5915 13.7943 22.6204C13.6929 22.8379 13.4174 22.9537 13.0985 22.9393Z" fill="white"/>
<path d="M14.1583 21.8814C14.1583 21.8524 14.1438 21.8378 14.1293 21.8089C14.1293 21.7943 14.1293 21.7943 14.1148 21.7799C14.1003 21.7364 14.0859 21.7075 14.0569 21.6639C13.8974 21.3595 13.6365 21.0695 13.3176 20.8377C13.2741 20.8087 13.2306 20.7798 13.1871 20.7506C13.1436 20.7217 13.1002 20.6927 13.0567 20.6782H13.0422C13.0277 20.6638 13.0132 20.6638 12.9987 20.6492C12.9697 20.6348 12.9552 20.6203 12.9262 20.6057H12.9117C12.8972 20.6057 12.8827 20.5913 12.8682 20.5913C12.8392 20.5767 12.8103 20.5623 12.7813 20.5623L12.7523 20.5478C12.7523 20.5478 12.7523 20.5478 12.7378 20.5478C12.7233 20.5478 12.7088 20.5332 12.6943 20.5332C12.6653 20.5188 12.6363 20.5188 12.6073 20.5043L12.5783 20.4899H12.5638C12.5348 20.4753 12.5058 20.4753 12.4768 20.4607C12.4623 20.4607 12.4479 20.4463 12.4189 20.4463H12.4044C12.3754 20.4463 12.3464 20.4318 12.3319 20.4318C12.3174 20.4318 12.2884 20.4318 12.2739 20.4174H12.2594C12.2449 20.4174 12.2304 20.4174 12.2159 20.4028C12.2014 20.4028 12.1869 20.4028 12.1724 20.4028C12.129 20.4028 12.071 20.3883 12.0275 20.3883H12.013C11.9695 20.3883 11.926 20.3883 11.8825 20.3883C11.868 20.3883 11.8535 20.3883 11.8535 20.3883H11.839C11.81 20.3883 11.7811 20.3883 11.7521 20.4028C11.7376 20.4028 11.7231 20.4028 11.7086 20.4174C11.6796 20.4174 11.6506 20.4318 11.6216 20.4318C11.6071 20.4318 11.5926 20.4463 11.5781 20.4463L12.3754 19.1562L14.0859 19.1707L14.9701 20.7362L14.1728 22.0407C14.1728 22.0263 14.1728 22.0118 14.1583 21.9974C14.1583 21.9828 14.1583 21.9828 14.1583 21.9682C14.1583 21.9538 14.1438 21.9393 14.1438 21.9103C14.1583 21.8959 14.1583 21.8814 14.1583 21.8814Z" fill="white"/>
<path d="M17.1893 23.7078L13.0146 23.6934L12.3768 24.8964L11.9419 25.7228L13.058 25.7082V25.7228L19.4362 25.7372L20.0739 24.6356L15.4788 16.7644L6.36107 16.75L5.78125 17.7646L5.8972 17.953H5.88271L9.50661 24.3311L10.7097 22.3742L8.59339 18.7793H14.3192L17.1893 23.7078Z" fill="white"/>
</g>
<defs>
<clipPath id="clip0_635_2482">
<rect width="32" height="32" fill="white"/>
</clipPath>
</defs>
</svg>
