<svg width="32" height="32" viewBox="0 0 32 32" fill="none" xmlns="http://www.w3.org/2000/svg">
<path d="M16.0324 28.8728L16.0341 24.4703C15.5905 24.4703 15.1435 24.435 14.7059 24.365L14.0229 28.714C14.6853 28.8193 15.3614 28.8728 16.0332 28.8728H16.0324ZM18.0418 28.7157C18.7059 28.6104 19.3657 28.4524 20.0041 28.2444L18.657 24.056C18.2366 24.1933 17.8007 24.2977 17.3623 24.3668L18.0418 28.7157ZM12.0598 28.2418L13.4103 24.0543C12.989 23.917 12.5763 23.7444 12.1825 23.5424L10.1936 27.464C10.7917 27.7713 11.4197 28.0329 12.0598 28.2418ZM21.8694 27.4692C22.4683 27.1628 23.0474 26.8054 23.5914 26.4074L21.0165 22.8475C20.6587 23.1099 20.2778 23.3447 19.8839 23.5458L21.8694 27.4692ZM8.47248 26.4005L11.0499 22.8423C10.6939 22.5816 10.3541 22.2881 10.0383 21.9713L6.94181 25.0824L6.94437 25.085C7.41971 25.5632 7.93366 26.006 8.47248 26.4005ZM25.1015 25.1117L25.1281 25.0841C25.6017 24.6076 26.041 24.0914 26.4339 23.5501L22.8981 20.9561C22.639 21.3135 22.3481 21.6553 22.0341 21.9721L21.9904 22.017L23.4781 23.4301L25.1015 25.1117ZM5.63249 23.5415L9.17003 20.9501C8.90922 20.5901 8.67584 20.2068 8.47505 19.8106L4.57628 21.809C4.88087 22.4107 5.23609 22.9933 5.63249 23.5406V23.5415ZM27.4919 21.8176C27.7973 21.216 28.0573 20.5841 28.2658 19.9401L24.1036 18.5805C23.9672 19.0043 23.7956 19.4196 23.5948 19.8158L27.4919 21.8176ZM3.80493 19.9306L7.96799 18.5745C7.83155 18.1515 7.72774 17.713 7.65822 17.2718L3.33561 17.9573C3.44028 18.6254 3.59816 19.2892 3.80493 19.9315V19.9306ZM28.736 17.9667C28.8407 17.3003 28.8939 16.6201 28.8947 15.9451L24.5189 15.9425C24.5189 16.3888 24.4837 16.8385 24.4142 17.2796L28.736 17.9667ZM7.55441 15.9356C7.55441 15.4893 7.5896 15.0387 7.65822 14.5984L3.33561 13.913C3.23093 14.5794 3.17859 15.2596 3.17773 15.9347H7.55358L7.55441 15.9356ZM24.4159 14.6053L28.7386 13.9225C28.6347 13.2543 28.4769 12.5905 28.271 11.9483L24.107 13.3018C24.2435 13.7257 24.3473 14.1634 24.4159 14.6044V14.6053ZM7.96799 13.2966C8.10439 12.8728 8.27599 12.4567 8.47591 12.0605L4.57714 10.0613C4.27255 10.6629 4.01257 11.2948 3.80493 11.9388L7.96712 13.2966H7.96799ZM23.5999 12.0666L27.5004 10.0708C27.1958 9.4682 26.8407 8.88553 26.4451 8.33824L22.9058 10.9279C23.1658 11.2879 23.3992 11.6712 23.5999 12.0674V12.0666ZM9.17176 10.921C9.43174 10.5619 9.72345 10.2184 10.0392 9.90157L10.0478 9.89291L6.95381 6.7801L6.94524 6.78873C6.46991 7.26697 6.02889 7.78578 5.63506 8.32874L9.17176 10.921ZM22.0495 9.91709L22.9839 8.95805L25.1349 6.79476L25.1281 6.78786C24.6553 6.31222 24.1431 5.87112 23.606 5.47662L21.0268 9.03313C21.382 9.29385 21.7209 9.58562 22.0341 9.90157L22.0495 9.91709ZM11.0602 9.02363C11.418 8.76208 11.799 8.52728 12.1928 8.32615L10.2099 4.40189C9.61104 4.70834 9.03189 5.06485 8.48794 5.4628L11.0602 9.02363ZM19.8951 8.33304L21.8865 4.41311C21.2885 4.1058 20.6613 3.84338 20.0212 3.63448L18.6681 7.82116C19.0894 7.95926 19.5021 8.13105 19.8959 8.33391L19.8951 8.33304ZM13.4215 7.81599C13.8427 7.67959 14.2786 7.57513 14.7162 7.50607L14.0392 3.15625C13.376 3.2607 12.7153 3.41867 12.0769 3.62671L13.4215 7.81599ZM17.3734 7.50867L18.0581 3.1597C17.3957 3.05438 16.7196 3 16.0487 3L16.0444 7.40248C16.488 7.40248 16.935 7.43875 17.3734 7.50867Z" fill="white"/>
<path d="M16.0357 24.6658V20.2411C15.666 20.2411 15.2973 20.1925 14.9407 20.0979L13.7988 24.3725C14.5277 24.5668 15.2799 24.6658 16.0357 24.6658ZM18.2725 24.3725C19.004 24.1773 19.7077 23.8867 20.3619 23.5084L18.1476 19.6771C17.8291 19.8611 17.4873 20.0025 17.1315 20.0971L18.2725 24.3725ZM11.7086 23.5075L13.9238 19.6771C13.6062 19.4932 13.3121 19.2668 13.0483 19.0039L13.0075 18.964L11.6097 20.4354L9.89431 22.1072L9.91945 22.1315C10.4557 22.6677 11.0579 23.1301 11.7095 23.5075H11.7086ZM22.1519 22.1333H22.1528C22.6881 21.5962 23.1506 20.995 23.5272 20.3443L19.6973 18.1285C19.5133 18.446 19.2868 18.7401 19.0239 19.003L22.1519 22.1333ZM8.53901 20.3348L12.3724 18.1242C12.1884 17.8057 12.0479 17.4639 11.9533 17.1074L7.67654 18.2447C7.8709 18.9761 8.16155 19.6797 8.53901 20.3348ZM24.3931 18.256C24.5875 17.5272 24.6864 16.7751 24.6872 16.0194L20.2621 16.0177C20.2621 16.3881 20.2135 16.7568 20.1181 17.1134L24.3931 18.256ZM11.811 16.0125C11.811 15.642 11.8596 15.2733 11.9559 14.9167L7.68173 13.7715C7.48651 14.5003 7.38672 15.2524 7.38672 16.0081L11.8118 16.0125H11.811ZM20.1189 14.9219L24.3948 13.7828C24.1996 13.0514 23.9089 12.3478 23.5315 11.6936L19.699 13.906C19.8829 14.2244 20.0244 14.5662 20.1189 14.9219ZM12.3767 13.9008C12.558 13.5876 12.7819 13.2969 13.0405 13.0366L13.0518 13.0254L11.4691 11.4429L9.94722 9.87341L9.91945 9.90032C9.38496 10.4347 8.92336 11.0343 8.54767 11.6832L12.3767 13.9008ZM19.0266 13.0306L20.5936 11.4637L22.1927 9.94024L22.1528 9.89945C21.6183 9.36502 21.017 8.90259 20.3671 8.52606L18.1502 12.3556C18.4634 12.5369 18.7549 12.7608 19.0153 13.0193L19.0266 13.0306ZM13.9264 12.353C14.2439 12.1691 14.5858 12.0285 14.9424 11.9331L13.804 7.65762C13.0717 7.85281 12.3689 8.1426 11.7138 8.52086L13.9264 12.353ZM17.1342 11.9348L18.2786 7.66022C17.5498 7.465 16.7975 7.3661 16.0417 7.36523L16.0391 11.7899C16.4096 11.7899 16.7784 11.8385 17.135 11.9339L17.1342 11.9348Z" fill="white"/>
</svg>
