<svg width="32" height="32" viewBox="0 0 32 32" fill="none" xmlns="http://www.w3.org/2000/svg">
<path d="M18.2805 6.47253V3.19783C21.4172 3.75686 24.2394 5.44849 26.2112 7.95154C28.1831 10.4546 29.1672 13.5947 28.9767 16.7757C28.7863 19.9566 27.4346 22.9569 25.1783 25.2067C22.9219 27.4566 19.918 28.7993 16.737 28.98C16.4969 28.9933 16.2544 29 16.0095 29V21.7075C17.3881 21.7061 18.7196 21.2056 19.7578 20.2984C20.7961 19.3912 21.4709 18.1388 21.6575 16.7726C21.8441 15.4065 21.53 14.0189 20.7731 12.8665C20.0162 11.714 18.8677 10.8745 17.54 10.5033V12.1883C17.8764 12.324 18.1932 12.5043 18.4819 12.7241L17.7566 13.4495C17.1607 13.0409 16.4406 12.8538 15.7212 12.9205C15.0018 12.9872 14.3284 13.3035 13.8176 13.8146C13.3069 14.3257 12.991 14.9995 12.9247 15.719C12.8584 16.4386 13.0459 17.1587 13.4547 17.7545L12.7294 18.4799C12.2168 17.8025 11.9267 16.9828 11.899 16.1336C11.8714 15.2845 12.1076 14.4477 12.575 13.7383C13.0424 13.0289 13.7183 12.4819 14.5093 12.1724C15.3005 11.8631 16.1679 11.8065 16.9926 12.0105V8.48849C18.8368 8.73148 20.5272 9.64477 21.7415 11.0542C22.9558 12.4636 23.6091 14.2706 23.577 16.1308C23.5448 17.9911 22.8294 19.7744 21.5671 21.141C20.3048 22.5076 18.5839 23.3619 16.7324 23.5409V25.7676C19.0626 25.5947 21.2542 24.594 22.9114 22.9464C24.5686 21.2988 25.5821 19.1129 25.7691 16.7833C25.956 14.4537 25.3039 12.1341 23.9306 10.2433C22.5574 8.35243 20.5533 7.01502 18.2805 6.47253Z" fill="white"/>
<path d="M19.1918 13.4094C19.7874 14.1413 20.1122 15.0563 20.1113 16C20.1107 16.6233 19.9686 17.2383 19.6955 17.7985C19.4224 18.3587 19.0256 18.8495 18.535 19.2338C18.0444 19.6181 17.4729 19.8858 16.8635 20.0167C16.2543 20.1477 15.6233 20.1384 15.0182 19.9895V23.5115C13.1739 23.2686 11.4835 22.3555 10.2691 20.9462C9.05468 19.5369 8.40123 17.7299 8.43323 15.8697C8.46523 14.0095 9.1805 12.2261 10.4427 10.8594C11.7048 9.4927 13.4257 8.63835 15.2771 8.45909V6.23231C12.9501 6.40914 10.7626 7.41127 9.10878 9.05817C7.45492 10.7051 6.44339 12.8885 6.25642 15.2151C6.06938 17.5419 6.71923 19.8588 8.08877 21.7488C9.45838 23.6388 11.4576 24.9776 13.7267 25.5239V28.8022C10.5263 28.2339 7.65497 26.487 5.67869 23.906C3.70244 21.325 2.76468 18.097 3.05031 14.8587C3.33594 11.6203 4.82424 8.60645 7.22171 6.41136C9.61926 4.21623 12.752 2.99913 16.0024 3V10.2925C14.6225 10.2915 13.2891 10.7906 12.2489 11.6973C11.2086 12.6042 10.5321 13.8572 10.3446 15.2246C10.1572 16.5919 10.4714 17.9808 11.2291 19.1342C11.9869 20.2876 13.1368 21.1273 14.466 21.4979V19.8117C14.0857 19.6584 13.7308 19.4484 13.4135 19.1888L14.134 18.4681C14.7299 18.9195 15.4691 19.1399 16.2148 19.0886C16.9606 19.0374 17.6626 18.7179 18.1912 18.1892C18.7198 17.6605 19.0392 16.9584 19.0905 16.2125C19.1418 15.4665 18.9214 14.7273 18.4701 14.1313L19.1918 13.4094Z" fill="white"/>
<path d="M17.529 17.1292C17.7713 16.8021 17.9019 16.4058 17.9016 15.9987L17.9028 16.0034C17.9027 15.7544 17.8534 15.5079 17.758 15.278C17.663 15.0472 17.5234 14.8374 17.3472 14.6606C17.1711 14.4838 16.9618 14.3435 16.7313 14.2477C16.3554 14.0917 15.9393 14.061 15.5444 14.1598C15.1497 14.2586 14.7971 14.4818 14.5389 14.7965C14.2806 15.1111 14.1305 15.5005 14.1106 15.9071C14.0906 16.3137 14.2019 16.7159 14.4281 17.0543C14.6543 17.3927 14.9833 17.6493 15.3665 17.7864C15.7498 17.9234 16.167 17.9335 16.5564 17.8151C16.9458 17.6968 17.2868 17.4563 17.529 17.1292Z" fill="white"/>
</svg>
