<svg width="32" height="32" viewBox="0 0 32 32" fill="none" xmlns="http://www.w3.org/2000/svg">
<path d="M16 32C24.8366 32 32 24.8366 32 16C32 7.16344 24.8366 0 16 0C7.16344 0 0 7.16344 0 16C0 24.8366 7.16344 32 16 32Z" fill="white"/>
<path d="M5.16992 11.0381V21.4072C5.16992 22.067 5.52151 22.6783 6.09486 23.0082L15.0738 28.19C15.6471 28.52 16.3503 28.52 16.9236 28.19L25.9026 23.0082C26.4759 22.6783 26.8275 22.067 26.8275 21.4072V11.0381C26.8275 10.3782 26.4759 9.76703 25.9026 9.43708L16.9236 4.25527C16.3503 3.92533 15.6471 3.92533 15.0738 4.25527L6.09486 9.43708C5.52691 9.76703 5.16992 10.3782 5.16992 11.0381Z" fill="#213147"/>
<path d="M17.9627 18.232L16.6807 21.7424C16.6429 21.8398 16.6429 21.948 16.6807 22.0453L18.8822 28.0871L21.4298 26.6159L18.3738 18.232C18.3034 18.0373 18.033 18.0373 17.9627 18.232Z" fill="#12AAFF"/>
<path d="M20.5261 12.3257C20.4558 12.131 20.1853 12.131 20.115 12.3257L18.8331 15.8362C18.7952 15.9335 18.7952 16.0417 18.8331 16.1391L22.4409 26.0321L24.9885 24.5608L20.5261 12.3257Z" fill="#12AAFF"/>
<path d="M15.9991 4.63892C16.064 4.63892 16.1235 4.65515 16.183 4.6876L25.8975 10.2967C26.0111 10.3616 26.0814 10.4806 26.0814 10.6104V21.8287C26.0814 21.9585 26.0111 22.0775 25.8975 22.1424L16.183 27.7569C16.1289 27.7894 16.064 27.8056 15.9991 27.8056C15.9342 27.8056 15.8747 27.7894 15.8152 27.7569L6.10603 22.1478C5.99244 22.0829 5.92212 21.9639 5.92212 21.8341V10.6104C5.92212 10.4806 5.99244 10.3616 6.10603 10.2967L15.8206 4.6876C15.8747 4.65515 15.9396 4.63892 15.9991 4.63892ZM15.9991 3C15.6529 3 15.3067 3.09195 14.9984 3.27045L5.28386 8.87956C4.66724 9.23656 4.2832 9.89645 4.2832 10.6104V21.8287C4.2832 22.5427 4.66724 23.208 5.28386 23.565L14.9984 29.1741C15.3067 29.3526 15.6529 29.4445 15.9991 29.4445C16.3452 29.4445 16.6914 29.3526 16.9997 29.1741L26.7143 23.565C27.3363 23.208 27.7149 22.5481 27.7149 21.8287V10.6104C27.7149 9.89645 27.3309 9.23115 26.7143 8.87416L17.0051 3.27045C16.6914 3.09195 16.3452 3 15.9991 3Z" fill="#9DCCED"/>
<path d="M9.57812 26.0425L10.4706 23.5977L12.2664 25.0905L10.5896 26.6267L9.57812 26.0425Z" fill="#213147"/>
<path d="M15.1826 9.81055H12.7215C12.5376 9.81055 12.3699 9.92414 12.3104 10.0972L7.03125 24.5717L9.57888 26.0429L15.3935 10.1026C15.4422 9.962 15.3394 9.81055 15.1826 9.81055Z" fill="white"/>
<path d="M19.495 9.81055H17.0339C16.85 9.81055 16.6823 9.92414 16.6228 10.0972L10.5918 26.6271L13.1394 28.0983L19.7005 10.108C19.7546 9.962 19.6464 9.81055 19.495 9.81055Z" fill="white"/>
</svg>
