<svg width="32" height="32" viewBox="0 0 32 32" fill="none" xmlns="http://www.w3.org/2000/svg">
<g clip-path="url(#clip0_624_2496)">
<path d="M32 16C32 7.16344 24.8366 0 16 0C7.16344 0 0 7.16344 0 16C0 24.8366 7.16344 32 16 32C24.8366 32 32 24.8366 32 16Z" fill="#8D91AB"/>
<path d="M20.3289 26.5598H11.5135L5.28125 20.3275V11.5121L11.5135 5.27979H20.328L26.5613 11.5121V20.3265L20.3289 26.5598ZM12.0652 25.2297H19.7782L25.2323 19.7758V12.0638L19.7773 6.60979H12.0652L6.61125 12.0638V19.7767L12.0652 25.2297Z" fill="white"/>
<path d="M22.188 14.7109V18.5163L19.0267 21.6779L18.2782 19.8694L20.3798 17.7677V17.2057H19.0466V17.2157L17.2155 19.0467H14.6261L12.7951 17.2157V14.625L14.6261 12.7939H17.2155L19.0466 14.625V14.6418H20.3798V14.0729L18.2782 11.9712L19.0267 10.1628L20.0194 11.1554C19.973 11.2986 19.9462 11.4517 19.9462 11.6117C19.9462 12.4245 20.605 13.0833 21.4178 13.0833C22.2306 13.0833 22.8893 12.4245 22.8893 11.6117C22.8893 10.7988 22.2306 10.1401 21.4178 10.1401C21.2587 10.1401 21.1056 10.1657 20.9614 10.2132L19.0683 8.31982H12.7724L8.32031 12.7712V19.0675L12.7724 23.5198H19.0683L23.5203 19.0675V14.7109H22.188ZM14.795 20.379H17.0456L17.7942 22.1875H14.0464L14.795 20.379ZM13.5634 19.8685L12.8148 21.6768L10.1641 19.0261L11.9724 18.2774L13.5634 19.8685ZM11.4618 14.7939V17.0448L9.65356 17.7934V14.0453L11.4618 14.7939ZM11.9714 13.5623L10.1632 12.8136L12.8138 10.1628L13.5624 11.9712L11.9714 13.5623ZM14.0464 9.65218H17.7952L17.0467 11.4606H14.795L14.0464 9.65218Z" fill="white"/>
</g>
<defs>
<clipPath id="clip0_624_2496">
<rect width="32" height="32" fill="white"/>
</clipPath>
</defs>
</svg>
