<svg width="32" height="32" viewBox="0 0 32 32" fill="none" xmlns="http://www.w3.org/2000/svg">
<path d="M27.221 7.50351V16.0752C23.4803 14.559 19.7996 13.0729 16.104 11.5867C13.4599 12.6525 10.8158 13.7184 8.14172 14.8142V23.6261C8.03656 23.566 7.97647 23.566 7.94642 23.521C6.18872 21.3743 4.85166 19.0926 4.9418 16.1653C5.01692 13.5082 4.95683 10.8511 4.95683 8.20906C4.95683 7.9989 4.95683 7.78874 4.95683 7.51852C8.66753 6.01735 12.3782 4.51618 16.104 3C19.7996 4.50117 23.4953 5.98733 27.221 7.50351ZM16.104 8.14902C18.748 9.21485 21.362 10.2657 24.0211 11.3465V9.63518C21.362 8.55433 18.718 7.4885 16.104 6.43768C13.4148 7.51852 10.7858 8.58436 8.20181 9.63518V11.3465C10.8759 10.2657 13.4749 9.21485 16.104 8.14902Z" fill="white"/>
<path d="M9.72656 25.4609V15.8614C11.8308 15.0118 13.92 14.177 16.0543 13.3125C19.7218 14.7882 23.4042 16.2639 27.2219 17.7992C26.8762 18.7979 26.5305 19.7519 26.1848 20.7804C22.7278 19.3942 19.3911 18.0526 16.0543 16.726C15.0022 17.1433 13.9651 17.5607 12.913 17.993V24.1343C13.905 24.9243 14.9571 25.7739 16.0694 26.6832C17.377 25.5951 18.6396 24.5516 20.0073 23.4188C19.1656 23.0759 18.4742 22.7927 17.6927 22.4946C17.6626 22.7927 17.6476 23.0461 17.6175 23.3741C17.1516 23.7616 16.6255 24.179 16.0543 24.656C15.5133 24.2237 15.0022 23.8063 14.4912 23.4039V19.0662C14.9872 18.8724 15.4982 18.6489 16.0393 18.4253C19.0754 19.6476 22.1266 20.8699 25.2529 22.122C22.7429 25.5653 19.5414 28.1291 16.0543 30.4395C13.7697 28.9787 11.6655 27.3391 9.72656 25.4609Z" fill="white"/>
</svg>
