<svg width="32" height="32" viewBox="0 0 32 32" fill="none" xmlns="http://www.w3.org/2000/svg">
<path d="M17.6795 18.232L16.3975 21.7424C16.3597 21.8398 16.3597 21.9479 16.3975 22.0453L18.599 28.0871L21.1466 26.6159L18.0905 18.232C18.0202 18.0373 17.7498 18.0373 17.6795 18.232Z" fill="white"/>
<path d="M20.2429 12.3257C20.1726 12.131 19.9021 12.131 19.8318 12.3257L18.5499 15.8361C18.512 15.9335 18.512 16.0417 18.5499 16.1391L22.1577 26.032L24.7053 24.5608L20.2429 12.3257Z" fill="white"/>
<path d="M15.7158 4.63892C15.7807 4.63892 15.8402 4.65514 15.8997 4.6876L25.6142 10.2967C25.7278 10.3616 25.7981 10.4806 25.7981 10.6104V21.8286C25.7981 21.9584 25.7278 22.0774 25.6142 22.1423L15.8997 27.7568C15.8456 27.7893 15.7807 27.8055 15.7158 27.8055C15.6509 27.8055 15.5914 27.7893 15.5319 27.7568L5.82282 22.1477C5.70923 22.0828 5.63892 21.9638 5.63892 21.834V10.6104C5.63892 10.4806 5.70923 10.3616 5.82282 10.2967L15.5373 4.6876C15.5914 4.65514 15.6563 4.63892 15.7158 4.63892ZM15.7158 3C15.3696 3 15.0235 3.09195 14.7152 3.27045L5.00066 8.87955C4.38404 9.23654 4 9.89643 4 10.6104V21.8286C4 22.5426 4.38404 23.2079 5.00066 23.5649L14.7152 29.174C15.0235 29.3525 15.3696 29.4444 15.7158 29.4444C16.062 29.4444 16.4082 29.3525 16.7165 29.174L26.431 23.5649C27.053 23.2079 27.4316 22.548 27.4316 21.8286V10.6104C27.4316 9.89643 27.0476 9.23113 26.431 8.87414L16.7219 3.27045C16.4082 3.09195 16.062 3 15.7158 3Z" fill="white"/>
<path d="M9.29492 26.0425L10.1874 23.5977L11.9832 25.0905L10.3064 26.6267L9.29492 26.0425Z" fill="white"/>
<path d="M14.8994 9.81055H12.4383C12.2544 9.81055 12.0867 9.92413 12.0272 10.0972L6.74805 24.5716L9.29567 26.0429L15.1103 10.1026C15.159 9.962 15.0562 9.81055 14.8994 9.81055Z" fill="white"/>
<path d="M19.2098 9.81055H16.7487C16.5648 9.81055 16.3971 9.92413 16.3376 10.0972L10.3066 26.627L12.8543 28.0983L19.4153 10.108C19.4694 9.962 19.3612 9.81055 19.2098 9.81055Z" fill="white"/>
</svg>
