<svg width="32" height="32" viewBox="0 0 32 32" fill="none" xmlns="http://www.w3.org/2000/svg">
<g clip-path="url(#clip0_720_2511)">
<path d="M32 16C32 7.16344 24.8366 0 16 0C7.16344 0 0 7.16344 0 16C0 24.8366 7.16344 32 16 32C24.8366 32 32 24.8366 32 16Z" fill="#8D91AB"/>
<path d="M24.5284 15.9996C24.5284 14.2655 24.0075 12.652 23.115 11.3038L25.7622 8.65687L23.3815 6.27641L20.7417 8.91614C19.3862 8.00567 17.7556 7.47388 16.0035 7.47388C14.2692 7.47388 12.6556 7.99483 11.3073 8.88719L8.65897 6.24023L6.27836 8.6207L8.91825 11.2604C8.00774 12.6159 7.4759 14.2463 7.4759 15.9984C7.4759 17.7326 7.99689 19.346 8.88931 20.6942L6.24219 23.3423L8.6228 25.7228L11.2627 23.0831C12.6182 23.9935 14.2487 24.5254 16.001 24.5254C17.7351 24.5254 19.3487 24.0044 20.6971 23.1121L23.3454 25.7602L25.726 23.3798L23.0862 20.7401C23.9966 19.3822 24.5284 17.7518 24.5284 15.9996ZM10.8442 15.9996C10.8442 13.1549 13.1585 10.8408 16.0035 10.8408C18.8483 10.8408 21.1625 13.1549 21.1625 15.9996C21.1625 18.8444 18.8483 21.1585 16.0035 21.1585C13.1585 21.1585 10.8442 18.8444 10.8442 15.9996Z" fill="white"/>
</g>
<defs>
<clipPath id="clip0_720_2511">
<rect width="32" height="32" fill="white"/>
</clipPath>
</defs>
</svg>
