<svg width="32" height="32" viewBox="0 0 32 32" fill="none" xmlns="http://www.w3.org/2000/svg">
<path d="M2 11.6995V11H6.25895V11.6995L5.03014 11.8483C5.02083 12.4634 5.01151 13.0884 5.00222 13.7234C5.00222 14.3484 5.00222 14.9784 5.00222 15.6134V16.5212C5.00222 17.047 5.00222 17.6126 5.00222 18.2176C5.01151 18.8229 5.02083 19.4379 5.03014 20.0631H7.85081L8.24181 18.0094H9.21927L9.07963 20.8666H2V20.1671L3.17296 20.0332C3.19157 19.4082 3.20089 18.7931 3.20089 18.1879C3.20089 17.5728 3.20089 16.9825 3.20089 16.417V15.6134C3.20089 14.9686 3.20089 14.3336 3.20089 13.7085C3.20089 13.0735 3.19157 12.4485 3.17296 11.8334L2 11.6995Z" fill="white"/>
<path d="M13.5607 21.0744C12.9275 21.0744 12.355 20.9255 11.843 20.6279C11.3403 20.3302 10.94 19.8988 10.6422 19.3333C10.3443 18.7678 10.1953 18.0931 10.1953 17.3093C10.1953 16.5156 10.3489 15.8359 10.6561 15.2704C10.9726 14.7049 11.3869 14.2735 11.8989 13.9758C12.4109 13.6781 12.9648 13.5293 13.5607 13.5293C14.1564 13.5293 14.7102 13.6781 15.2223 13.9758C15.7343 14.2735 16.1486 14.7049 16.4651 15.2704C16.7815 15.8261 16.9398 16.5057 16.9398 17.3093C16.9398 18.103 16.7862 18.7826 16.4791 19.3481C16.1811 19.9036 15.7762 20.3302 15.2641 20.6279C14.7615 20.9255 14.1936 21.0744 13.5607 21.0744ZM13.5607 20.3452C14.0633 20.3452 14.445 20.0972 14.7056 19.6012C14.9756 19.1051 15.1105 18.346 15.1105 17.3241C15.1105 15.2804 14.5939 14.2585 13.5607 14.2585C12.5366 14.2585 12.0246 15.2804 12.0246 17.3241C12.0246 18.346 12.1549 19.1051 12.4155 19.6012C12.6762 20.0972 13.0579 20.3452 13.5607 20.3452Z" fill="white"/>
<path d="M21.3868 21.0744C20.7536 21.0744 20.1811 20.9255 19.6692 20.6279C19.1664 20.3302 18.7661 19.8988 18.4683 19.3333C18.1704 18.7678 18.0215 18.0931 18.0215 17.3093C18.0215 16.5156 18.1751 15.8359 18.4822 15.2704C18.7988 14.7049 19.213 14.2735 19.7251 13.9758C20.237 13.6781 20.7909 13.5293 21.3868 13.5293C21.9825 13.5293 22.5363 13.6781 23.0484 13.9758C23.5604 14.2735 23.9747 14.7049 24.2912 15.2704C24.6076 15.8261 24.7659 16.5057 24.7659 17.3093C24.7659 18.103 24.6123 18.7826 24.3052 19.3481C24.0072 19.9036 23.6023 20.3302 23.0903 20.6279C22.5876 20.9255 22.0197 21.0744 21.3868 21.0744ZM21.3868 20.3452C21.8894 20.3452 22.2711 20.0972 22.5317 19.6012C22.8017 19.1051 22.9366 18.346 22.9366 17.3241C22.9366 15.2804 22.42 14.2585 21.3868 14.2585C20.3627 14.2585 19.8508 15.2804 19.8508 17.3241C19.8508 18.346 19.981 19.1051 20.2417 19.6012C20.5024 20.0972 20.884 20.3452 21.3868 20.3452Z" fill="white"/>
<path d="M28.1425 21.076C27.584 21.076 27.1465 20.9271 26.83 20.6295C26.5136 20.3318 26.3553 19.8557 26.3553 19.2009C26.3553 18.9728 26.3553 18.7594 26.3553 18.561C26.3645 18.3526 26.3692 18.1046 26.3692 17.8168V14.647H25.3359V13.8732L26.467 13.7244L26.9976 11.6855H28.1287L28.0728 13.7392H29.7485V14.647H28.0589V19.0372C28.0589 19.4043 28.124 19.6721 28.2544 19.8407C28.3939 20.0094 28.5755 20.0938 28.7989 20.0938C29.0502 20.0938 29.3342 19.9697 29.6506 19.7218L29.9858 20.0938C29.8089 20.4013 29.5669 20.6444 29.2597 20.8231C28.9524 20.9917 28.5802 21.076 28.1425 21.076Z" fill="white"/>
</svg>
