<svg width="32" height="32" viewBox="0 0 32 32" fill="none" xmlns="http://www.w3.org/2000/svg">
<path d="M17.7957 16.2462L17.5098 15.2834L21.8845 15.2768C21.9183 15.2768 21.9474 15.265 21.9717 15.2415L22.9721 14.24C22.9978 14.2142 23.0291 14.2013 23.0659 14.2013H27.7752C27.7913 14.2013 27.8073 14.1976 27.8218 14.1905C27.8364 14.1834 27.8491 14.1732 27.8591 14.1605C28.0917 13.8587 28.3758 13.7343 28.7115 13.7873C29.734 13.9474 29.777 15.4115 28.7601 15.6025C28.3987 15.671 28.0976 15.5488 27.8569 15.2359C27.8355 15.2087 27.8076 15.1951 27.773 15.1951H23.5076C23.4715 15.1951 23.4402 15.208 23.4137 15.2337L22.441 16.2065C22.4162 16.2312 22.3828 16.2451 22.3482 16.2451L17.7957 16.2462Z" fill="white" fill-opacity="0.5"/>
<path d="M18.1824 18.2302L18.0234 17.2652H24.4464C24.4655 17.2652 24.4843 17.2606 24.5012 17.2518C24.5181 17.2429 24.5326 17.2301 24.5435 17.2144C25.1365 16.3631 26.4261 16.8787 26.2174 17.8813C26.064 18.6134 25.1332 18.8673 24.633 18.2733C24.6219 18.2602 24.6082 18.2496 24.5927 18.2423C24.5773 18.2351 24.5605 18.2313 24.5435 18.2313L18.1824 18.2302Z" fill="white" fill-opacity="0.5"/>
<path d="M20.0706 19.1094C20.0971 19.2032 22.3166 19.1424 22.7428 19.1413C22.7599 19.1413 22.7769 19.1447 22.7926 19.1513C22.8083 19.158 22.8226 19.1677 22.8344 19.1799L23.8348 20.1803C23.8606 20.2061 23.8918 20.2189 23.9286 20.2189H26.3158C26.3504 20.2189 26.3792 20.2057 26.402 20.1792C27.3769 19.043 28.7748 20.6573 27.6861 21.4346C27.257 21.7416 26.83 21.6801 26.4053 21.2502C26.381 21.2252 26.3512 21.2127 26.3158 21.2127H23.519C23.48 21.2127 23.4465 21.1987 23.4185 21.1707L22.4005 20.1538C22.3722 20.1255 22.3341 20.1096 22.2945 20.1096L19.8652 20.1318C19.8921 19.9889 20.0496 19.1476 20.0706 19.1094Z" fill="white" fill-opacity="0.5"/>
<path d="M19.5539 20.8321L20.2369 20.838C20.2785 20.838 20.3137 20.8527 20.3424 20.882L21.9008 22.4312C21.9134 22.4441 21.9286 22.4544 21.9454 22.4613C21.9622 22.4683 21.9804 22.4719 21.9988 22.4719H25.1371C25.1751 22.4719 25.206 22.4569 25.2297 22.4269C25.6562 21.8869 26.5414 21.9673 26.7827 22.5983C27.1521 23.5679 25.9103 24.2933 25.2534 23.4801C25.2426 23.4664 25.2289 23.4554 25.2132 23.4478C25.1975 23.4402 25.1803 23.4362 25.1629 23.4362H21.5734C21.5332 23.4362 21.4991 23.4222 21.4711 23.3944C20.9678 22.8994 20.467 22.4023 19.9687 21.903C19.8265 21.7594 19.6984 21.7591 19.5842 21.9019C17.9774 23.9154 15.9495 25.1961 13.5004 25.7439C9.92167 26.5443 6.28152 24.5879 4.07051 21.8076C3.46381 21.0448 3.10698 20.2281 3 19.3574V18.4767C3.18237 17.0332 3.53489 15.6354 4.05758 14.2833C4.07051 14.2504 4.07015 14.2176 4.0565 14.1847C3.56541 12.9505 3.25416 11.6752 3.12277 10.3588C3.00538 9.18453 2.88235 5.88784 4.96305 6.43103C6.51819 6.83602 8.21791 8.43563 9.2141 9.6388C9.22441 9.65133 9.23808 9.66069 9.25351 9.66581C9.26895 9.67093 9.28553 9.6716 9.30133 9.66773C10.9721 9.28489 12.645 9.27774 14.32 9.6463C14.3379 9.6502 14.3566 9.64906 14.3741 9.64302C14.3915 9.63697 14.4071 9.62625 14.4191 9.61202C15.3453 8.49456 17.7559 6.11283 19.338 6.43103C19.7325 6.51053 19.9001 6.87469 20.0803 7.26627C20.1041 7.31798 20.1281 7.37016 20.1529 7.42223C20.8708 9.2479 20.3898 11.7687 19.7651 13.5804C19.7529 13.6154 19.7655 13.6329 19.8028 13.6329H20.4609C20.4968 13.6329 20.5273 13.6204 20.5524 13.5954L22.1431 12.013C22.1557 12.0001 22.1709 11.9898 22.1877 11.9829C22.2045 11.9759 22.2227 11.9723 22.2411 11.9723H23.7381C23.7754 11.9723 23.8063 11.958 23.8307 11.9294C24.3175 11.3584 25.3018 11.5159 25.4203 12.2723C25.5678 13.2097 24.4683 13.7358 23.8253 12.9783C23.8142 12.9652 23.8003 12.9547 23.7847 12.9475C23.7691 12.9403 23.7521 12.9365 23.7348 12.9365H22.645C22.6069 12.9365 22.5742 12.9501 22.547 12.9773L20.9541 14.5608C20.9422 14.573 20.9279 14.5827 20.912 14.5893C20.8961 14.5959 20.8789 14.5993 20.8615 14.5993L19.0683 14.6002C19.5793 16.0483 20.0311 18.5344 20.0584 19.1582C19.9563 19.8709 19.8422 20.4151 19.5539 20.8321Z" fill="white" fill-opacity="0.5"/>
<path d="M20.0696 19.1449L19.88 20.1368L19.5192 20.9114C17.8891 23.2135 15.1205 24.9623 12.2816 25.1868C9.06923 25.4415 5.72746 23.2845 4.03614 20.7724C3.73496 20.3263 3.56015 19.7797 3.51172 19.1326C5.35628 18.6657 7.11116 18.7439 8.47784 20.1703C8.48576 20.1788 8.4958 20.185 8.50697 20.1884C8.51814 20.1918 8.53005 20.1922 8.54152 20.1896C8.55299 20.187 8.56362 20.1815 8.57236 20.1736C8.5811 20.1657 8.58765 20.1557 8.59135 20.1446C9.57095 17.1153 14.0047 17.0963 14.9695 20.158C14.9721 20.1664 14.9767 20.174 14.9831 20.18C14.9895 20.186 14.9974 20.1903 15.006 20.1925C15.0146 20.1946 15.0236 20.1945 15.0321 20.1922C15.0406 20.1899 15.0484 20.1854 15.0547 20.1793C16.4702 18.7819 18.1774 18.611 20.0696 19.1449ZM12.033 21.7554V21.2594C12.033 21.2274 12.0489 21.2088 12.0807 21.2036C12.6301 21.106 12.9683 20.7888 13.0955 20.2519C13.1738 19.9223 13.1988 19.2789 12.7924 19.2756C12.2037 19.2704 11.6164 19.2689 11.0307 19.2711C10.6289 19.2734 10.4473 19.3918 10.4529 19.7984C10.4658 20.5698 10.8162 21.0475 11.504 21.2315C11.5351 21.2397 11.5506 21.2598 11.5506 21.2918V21.7285C11.5506 21.771 11.5336 21.8052 11.4995 21.8313L11.201 22.0603C11.1737 22.0811 11.1427 22.0916 11.1079 22.0916H9.59138C9.53917 22.0916 9.51836 22.1165 9.52895 22.1664L9.64587 22.6914C9.65041 22.7137 9.66327 22.7294 9.68446 22.7383L9.81841 22.7975C9.85624 22.8139 9.88273 22.8407 9.89786 22.8779L10.1294 23.4588C10.1446 23.4945 10.1676 23.5009 10.1987 23.4778C10.4552 23.2868 10.344 22.812 10.3565 22.5239C10.3587 22.4792 10.3822 22.4598 10.4268 22.4658C11.3417 22.5842 12.2555 22.5838 13.1681 22.4647C13.2105 22.4587 13.2347 22.4766 13.2408 22.5183C13.2896 22.8411 13.1454 23.2622 13.3906 23.4767C13.4209 23.5035 13.4436 23.4983 13.4587 23.461L13.6925 22.8679C13.7115 22.8195 13.7467 22.7938 13.7981 22.7908C13.817 22.7893 13.8352 22.7845 13.8526 22.7763C13.8904 22.7599 13.915 22.7316 13.9264 22.6914L14.0762 22.1709C14.0788 22.1616 14.0792 22.1518 14.0774 22.1423C14.0756 22.1329 14.0715 22.1239 14.0656 22.1163C14.0596 22.1086 14.052 22.1024 14.0432 22.0981C14.0344 22.0938 14.0247 22.0916 14.0149 22.0916H12.4303C12.3894 22.0916 12.3588 22.0744 12.3384 22.0402C12.2816 21.9441 12.1984 21.8756 12.0886 21.8347C12.0723 21.8284 12.0582 21.8174 12.0483 21.8033C12.0383 21.7891 12.033 21.7724 12.033 21.7554ZM11.4189 23.1672L11.6198 23.5068C11.638 23.5376 11.6641 23.5631 11.6955 23.5807C11.727 23.5983 11.7625 23.6075 11.7987 23.6073C11.8349 23.6071 11.8703 23.5974 11.9015 23.5794C11.9327 23.5614 11.9585 23.5356 11.9763 23.5046L12.1681 23.1706C12.1733 23.1616 12.1804 23.1538 12.1888 23.1477C12.1972 23.1415 12.2069 23.1371 12.2171 23.1348C12.2273 23.1325 12.238 23.1323 12.2483 23.1343C12.2586 23.1362 12.2684 23.1402 12.2771 23.146C12.3406 23.19 12.3997 23.2376 12.4541 23.289C12.4889 23.3225 12.5294 23.3333 12.5756 23.3214C12.7179 23.2857 12.7977 23.1933 12.8151 23.0444C12.828 22.9304 12.7761 22.8735 12.6596 22.8735H10.8673C10.8241 22.8735 10.7976 22.894 10.7878 22.9349C10.7545 23.0794 10.7942 23.1967 10.907 23.2868C10.9386 23.3118 10.978 23.3256 11.0186 23.3258C11.0592 23.326 11.0987 23.3126 11.1306 23.2879L11.3145 23.1471C11.3223 23.1411 11.3314 23.1368 11.3412 23.1345C11.3509 23.1322 11.3611 23.132 11.3709 23.1339C11.3808 23.1358 11.3902 23.1398 11.3985 23.1455C11.4067 23.1513 11.4137 23.1587 11.4189 23.1672Z" fill="white" fill-opacity="0.7"/>
<path d="M18.987 14.3726L19.3112 15.2282L19.6048 16.2202L19.8383 17.2702L20.0016 18.2645L20.0696 19.1462C20.0348 19.1561 20.0277 19.1705 20.0481 19.1895C18.1583 18.6457 16.4533 18.8197 15.0397 20.2429C15.0334 20.2492 15.0257 20.2537 15.0171 20.2561C15.0086 20.2585 14.9996 20.2586 14.991 20.2564C14.9825 20.2542 14.9746 20.2498 14.9682 20.2437C14.9618 20.2375 14.9572 20.2298 14.9546 20.2213C13.9911 17.103 9.56307 17.1223 8.58474 20.2077C8.58105 20.2189 8.57451 20.2291 8.56578 20.2371C8.55705 20.2452 8.54643 20.2508 8.53498 20.2534C8.52352 20.2561 8.51162 20.2556 8.50047 20.2522C8.48931 20.2488 8.47928 20.2424 8.47138 20.2338C7.10648 18.781 5.35388 18.7014 3.51172 19.1769C3.61828 17.4105 4.02412 15.7151 4.72924 14.0905C4.74512 14.0556 4.74549 14.0203 4.73038 13.9847C4.02072 12.2907 3.0526 9.01316 4.03773 7.18041C4.42543 6.46141 6.22904 7.83797 6.60201 8.17699C7.39027 8.89523 8.06629 9.61195 8.63009 10.3271C8.65578 10.3598 8.68866 10.3704 8.72871 10.359C10.7443 9.76287 12.7629 9.75757 14.7846 10.3431C14.7986 10.3475 14.8136 10.3475 14.8278 10.343C14.8419 10.3385 14.8545 10.3298 14.864 10.318C15.9058 8.98017 17.3171 7.47506 18.9292 6.95401C18.9656 6.9421 19.0039 6.94014 19.0403 6.94832C19.2545 6.99497 19.4189 7.08939 19.5005 7.30441C20.2453 9.26572 19.6445 11.6798 18.8997 13.5888C18.7818 13.8914 18.8135 14.1201 18.987 14.3726ZM7.50892 10.3897C6.72558 9.46709 5.79486 8.5308 4.77799 7.96197C4.67521 7.90433 4.61475 7.93429 4.59661 8.05185C4.36988 9.55923 4.66463 11.0917 5.16909 12.5149C5.18194 12.5497 5.19895 12.5524 5.22011 12.5228C5.81942 11.6787 6.57443 11.0097 7.48511 10.516C7.54482 10.4841 7.55275 10.4421 7.50892 10.3897ZM15.9999 10.4568C16.9283 10.9767 17.6754 11.5808 18.2773 12.4364C18.2962 12.4629 18.3113 12.4606 18.3227 12.4295C18.7678 11.1963 18.9851 9.92442 18.9745 8.61385C18.9722 8.41476 18.8702 8.20657 18.8623 7.987C18.8616 7.97208 18.857 7.95759 18.849 7.94499C18.841 7.93239 18.8299 7.92213 18.8167 7.91522C18.8035 7.9083 18.7887 7.90499 18.7738 7.90561C18.759 7.90623 18.7445 7.91076 18.7319 7.91874C17.6807 8.58692 16.7654 9.40793 15.9863 10.3818C15.9613 10.4129 15.9658 10.4379 15.9999 10.4568ZM10.1866 13.822C9.57667 13.3829 8.06894 13.2725 8.07007 14.3692C8.07007 14.6616 8.24012 14.7799 8.50085 14.8357C8.9373 14.9278 9.96098 15.1952 10.2999 14.8994C10.5822 14.6536 10.4995 14.0473 10.1866 13.822ZM15.2879 13.7651C14.7222 13.4011 13.7507 13.3806 13.3075 13.9494C13.0252 14.3101 13.0807 15.0791 13.7201 15.0393C14.0976 15.0154 15.1825 14.9415 15.4455 14.6684C15.6756 14.4295 15.5509 13.9335 15.2879 13.7651ZM10.0845 17.1019C9.91903 16.3226 8.02359 15.5057 7.32074 15.2566C7.15976 15.199 7.05887 15.2536 7.01806 15.4204C6.9353 15.7594 6.77886 16.3829 7.14502 16.6184C7.58827 16.9028 9.76826 17.8846 10.0743 17.1997C10.0879 17.1678 10.0913 17.1352 10.0845 17.1019ZM16.5077 15.2634C16.1223 15.1735 14.9297 15.8584 14.5647 16.0677C14.1668 16.2964 13.5025 16.7299 13.5251 17.2122C13.5266 17.2539 13.5463 17.2843 13.5841 17.3032C13.8169 17.4223 14.0923 17.4515 14.4105 17.3908C14.8674 17.3032 16.7526 16.7913 16.7072 16.2759C16.68 15.968 16.6468 15.6673 16.6075 15.3738C16.6039 15.3473 16.5924 15.3226 16.5746 15.3029C16.5567 15.2832 16.5334 15.2694 16.5077 15.2634Z" fill="white"/>
</svg>
