<svg width="32" height="32" viewBox="0 0 32 32" fill="none" xmlns="http://www.w3.org/2000/svg">
<g clip-path="url(#clip0_635_2441)">
<path d="M32 16C32 7.16344 24.8366 0 16 0C7.16344 0 0 7.16344 0 16C0 24.8366 7.16344 32 16 32C24.8366 32 32 24.8366 32 16Z" fill="#8D91AB"/>
<path d="M3.04169 16.5031C3.07327 16.4556 3.10223 16.4069 3.13644 16.3615C3.17428 16.3082 3.22279 16.2632 3.27892 16.2296C3.33505 16.196 3.39754 16.1744 3.46245 16.1663C3.52737 16.1581 3.59327 16.1636 3.65597 16.1821C3.71868 16.2008 3.77681 16.2324 3.82668 16.2748C3.87705 16.3168 3.91829 16.3688 3.94794 16.4274C3.97759 16.486 3.99501 16.5501 3.99913 16.6156C4.00325 16.6812 3.99401 16.7469 3.97194 16.8087C3.94986 16.8706 3.91545 16.9272 3.87077 16.9754C3.82429 17.0248 3.76788 17.0637 3.70525 17.0898C3.64263 17.1157 3.57521 17.128 3.50743 17.1261C3.43965 17.1242 3.37308 17.1079 3.31209 17.0783C3.25108 17.0487 3.19705 17.0064 3.15356 16.9544C3.1121 16.9056 3.07722 16.8504 3.03906 16.7984L3.04169 16.5031Z" fill="white"/>
<path d="M18.0377 12.6028H10.7536C10.27 12.6028 10.1614 12.4936 10.1726 12.006C10.2384 8.27384 13.002 5.04243 16.6795 4.44233C19.4516 3.99029 21.8435 4.79107 23.7859 6.81441C25.086 8.1679 25.783 9.81488 25.8968 11.6974C25.9067 11.8527 25.9297 12.0086 25.9244 12.1633C25.9145 12.437 25.7659 12.5811 25.4928 12.6015C25.427 12.6061 25.3611 12.6015 25.2953 12.6015L18.0377 12.6028Z" fill="white"/>
<path d="M18.0381 14.9479H9.17422C9.09196 14.9479 9.00972 14.9479 8.92812 14.9479C8.65111 14.9302 8.46292 14.738 8.46095 14.4762C8.45897 14.2143 8.6498 14.0156 8.92154 13.9958C9.00314 13.9886 9.08539 13.9925 9.16764 13.9925H26.9151C27.0135 13.9884 27.1119 13.9913 27.21 14.0011C27.3234 14.0192 27.4266 14.0779 27.5004 14.1662C27.5741 14.2545 27.6133 14.3665 27.6109 14.4815C27.6085 14.5965 27.5647 14.7067 27.4873 14.7918C27.41 14.877 27.3044 14.9313 27.1901 14.9446C27.1082 14.9507 27.0261 14.9524 26.9441 14.9499L18.0381 14.9479Z" fill="white"/>
<path d="M16.9715 18.3321H24.8174C24.8994 18.3288 24.9814 18.3308 25.0629 18.3387C25.1736 18.3547 25.2755 18.4081 25.3514 18.4902C25.4274 18.5721 25.4728 18.6779 25.4802 18.7894C25.4827 18.9009 25.4478 19.01 25.381 19.0993C25.3142 19.1884 25.2194 19.2528 25.1117 19.2816C25.0152 19.2998 24.917 19.307 24.8189 19.3027C19.5869 19.3027 14.3551 19.3027 9.12364 19.3027C9.04991 19.3057 8.97607 19.3043 8.90255 19.298C8.77906 19.283 8.66557 19.2225 8.58402 19.1286C8.50247 19.0347 8.45865 18.9139 8.46103 18.7894C8.46898 18.6696 8.52071 18.5569 8.60637 18.4729C8.69205 18.3888 8.80567 18.3392 8.92557 18.3334C8.99861 18.3275 9.07297 18.3334 9.14666 18.3334L16.9715 18.3321Z" fill="white"/>
<path d="M11.9017 16.1602C14.0845 16.1602 16.2671 16.1602 18.4495 16.1602C18.881 16.1602 19.1298 16.4681 18.987 16.8181C18.9566 16.8996 18.9042 16.9709 18.8356 17.0244C18.7671 17.0778 18.6852 17.1111 18.5988 17.1209C18.5174 17.1295 18.4353 17.1321 18.3534 17.1287C14.0457 17.1287 9.73781 17.1287 5.42968 17.1287C5.3235 17.1325 5.21726 17.1237 5.11318 17.1025C5.00569 17.0737 4.91155 17.0085 4.84693 16.918C4.78229 16.8274 4.7512 16.7172 4.75899 16.6061C4.76677 16.4951 4.81294 16.3903 4.88958 16.3097C4.96621 16.229 5.06854 16.1775 5.17897 16.1641C5.26083 16.1573 5.34301 16.1556 5.42507 16.1588L11.9017 16.1602Z" fill="white"/>
<path d="M21.1364 20.5048H27.5848C27.642 20.5048 27.6999 20.5016 27.7572 20.5048C28.0341 20.5266 28.2316 20.7173 28.2408 20.9701C28.25 21.2228 28.0375 21.4432 27.7612 21.4695C27.688 21.4767 27.6138 21.4728 27.54 21.4728H14.5472C14.1932 21.4676 13.9629 21.2688 13.9689 20.9746C13.9748 20.6805 14.1906 20.5042 14.5426 20.5042C16.7416 20.5037 18.9396 20.504 21.1364 20.5048Z" fill="white"/>
<path d="M21.2098 23.6416C19.872 23.6416 18.5343 23.6416 17.1959 23.6416C16.9827 23.6416 16.8051 23.5817 16.6887 23.4001C16.6491 23.3373 16.6253 23.2661 16.6189 23.1921C16.6125 23.1184 16.624 23.044 16.6522 22.9755C16.6803 22.9069 16.7245 22.8461 16.781 22.7981C16.8375 22.7499 16.9047 22.7161 16.9768 22.6993C17.0816 22.6801 17.1882 22.6723 17.2946 22.6763H25.1248C25.1735 22.6763 25.2229 22.6763 25.2722 22.6763C25.5802 22.6953 25.7855 22.8953 25.7775 23.1665C25.7696 23.4376 25.5459 23.6369 25.2472 23.6376C24.1227 23.6416 22.9987 23.6376 21.8743 23.6376L21.2098 23.6416Z" fill="white"/>
<path d="M16.1926 24.8549H20.1768C20.5499 24.8549 20.7632 25.0293 20.7624 25.3305C20.7624 25.6189 20.5222 25.8227 20.1736 25.8227C17.5179 25.8227 14.862 25.8227 12.2059 25.8227C12.1164 25.8286 12.0267 25.8153 11.9427 25.784C11.7005 25.6787 11.5749 25.4728 11.6176 25.2405C11.6604 25.0081 11.8407 24.8561 12.1124 24.8555C13.1369 24.8521 14.1621 24.8555 15.1866 24.8555L16.1926 24.8549Z" fill="white"/>
<path d="M9.37268 20.5046C10.3741 20.5046 11.3752 20.5046 12.3758 20.5046C12.4659 20.5033 12.5559 20.5098 12.6449 20.5244C12.8686 20.5644 12.9844 20.7151 13.0127 20.9297C13.0281 21.0238 13.0125 21.1204 12.9682 21.2049C12.9239 21.2894 12.8534 21.3572 12.7673 21.3981C12.6572 21.454 12.5345 21.4801 12.4113 21.4738H6.33141C6.20797 21.4825 6.08442 21.4583 5.97348 21.4034C5.78397 21.2969 5.68197 21.1343 5.71816 20.9151C5.72834 20.8161 5.77159 20.7231 5.84092 20.6516C5.91026 20.5799 6.00168 20.5337 6.10047 20.5204C6.18144 20.5081 6.26336 20.503 6.34524 20.5052L9.37268 20.5046Z" fill="white"/>
<path d="M7.22047 19.3019C7.12449 19.3005 7.03106 19.2707 6.95201 19.2163C6.87297 19.1619 6.81185 19.0851 6.77642 18.996C6.741 18.9067 6.73284 18.8089 6.753 18.7152C6.77314 18.6213 6.8207 18.5355 6.88962 18.4688C6.95855 18.4019 7.04577 18.3571 7.1402 18.3398C7.23463 18.3227 7.33205 18.3339 7.42012 18.3721C7.50818 18.4102 7.58292 18.4737 7.63489 18.5544C7.68684 18.6352 7.71369 18.7294 7.71201 18.8254C7.70677 18.9528 7.65285 19.0731 7.56138 19.1617C7.46989 19.2505 7.34786 19.3006 7.22047 19.3019Z" fill="white"/>
<path d="M7.71012 14.4802C7.70369 14.6068 7.64784 14.7259 7.55457 14.8118C7.46131 14.8977 7.33806 14.9436 7.21132 14.9397C7.08459 14.9357 6.96446 14.8822 6.87675 14.7906C6.78902 14.699 6.74073 14.5767 6.74222 14.4499C6.74865 14.3233 6.80451 14.2042 6.89777 14.1183C6.99104 14.0324 7.11427 13.9865 7.241 13.9905C7.36776 13.9944 7.48788 14.0479 7.5756 14.1395C7.66331 14.2311 7.71161 14.3534 7.71012 14.4802Z" fill="white"/>
<path d="M15.8643 23.1617C15.8636 23.2246 15.8505 23.2868 15.8257 23.3446C15.801 23.4024 15.7651 23.4548 15.7201 23.4988C15.6751 23.5427 15.6219 23.5774 15.5635 23.6008C15.5051 23.6243 15.4426 23.6358 15.3797 23.6352C15.3168 23.6344 15.2547 23.6212 15.1968 23.5966C15.139 23.5718 15.0866 23.536 15.0426 23.4908C14.9987 23.4459 14.964 23.3926 14.9406 23.3342C14.9172 23.2758 14.9055 23.2134 14.9063 23.1505C14.91 23.0264 14.9612 22.9084 15.0494 22.8211C15.1375 22.7336 15.2559 22.6833 15.38 22.6808C15.4437 22.6795 15.507 22.691 15.5661 22.7147C15.6252 22.7384 15.6789 22.7737 15.7241 22.8187C15.7693 22.8635 15.805 22.9169 15.829 22.976C15.8531 23.0348 15.8651 23.098 15.8643 23.1617Z" fill="white"/>
<path d="M10.8552 25.3304C10.8552 25.3937 10.8428 25.4565 10.8185 25.515C10.7943 25.5736 10.7588 25.6267 10.714 25.6715C10.6692 25.7163 10.616 25.7518 10.5575 25.776C10.499 25.8003 10.4363 25.8128 10.3729 25.8128C10.3096 25.8128 10.2469 25.8003 10.1884 25.776C10.1299 25.7518 10.0767 25.7163 10.0319 25.6715C9.98711 25.6267 9.95158 25.5736 9.92734 25.515C9.9031 25.4565 9.89062 25.3937 9.89062 25.3304C9.89062 25.2025 9.94144 25.0798 10.0319 24.9894C10.1224 24.899 10.245 24.8481 10.3729 24.8481C10.5009 24.8481 10.6235 24.899 10.714 24.9894C10.8044 25.0798 10.8552 25.2025 10.8552 25.3304Z" fill="white"/>
<path d="M4.95558 20.9888C4.95268 21.1171 4.90009 21.2392 4.80887 21.3294C4.71766 21.4197 4.59497 21.471 4.46668 21.4725C4.33876 21.4725 4.21609 21.4216 4.12564 21.3312C4.03519 21.2408 3.98438 21.1181 3.98438 20.9901C3.98438 20.8622 4.03519 20.7395 4.12564 20.6491C4.21609 20.5587 4.33876 20.5078 4.46668 20.5078C4.59489 20.5081 4.71786 20.5587 4.80924 20.6486C4.90063 20.7385 4.95316 20.8606 4.95558 20.9888Z" fill="white"/>
</g>
<defs>
<clipPath id="clip0_635_2441">
<rect width="32" height="32" fill="white"/>
</clipPath>
</defs>
</svg>
