<svg width="32" height="32" viewBox="0 0 32 32" fill="none" xmlns="http://www.w3.org/2000/svg">
<g id="Optimism">
<circle id="Ellipse 12" cx="16" cy="16" r="16" fill="#8D91AB"/>
<g id="Subtract">
<path fill-rule="evenodd" clip-rule="evenodd" d="M14.3466 11.8445C13.8242 11.4238 13.2106 11.1787 12.4631 11.0902C12.2447 11.0648 11.7651 11.0541 11.5494 11.0701C9.9271 11.1907 8.59682 12.024 7.71934 13.4709C7.32682 14.118 7.04951 14.8964 6.90348 15.7619C6.8298 16.2026 6.81775 16.3567 6.81641 16.8444C6.81641 17.3387 6.83114 17.5169 6.90348 17.876C7.21027 19.4059 8.18822 20.4107 9.64443 20.6947C9.96461 20.7564 10.1749 20.7751 10.5675 20.7738C11.0618 20.7738 11.3686 20.7363 11.8133 20.6224C13.3727 20.2245 14.6293 19.0134 15.2214 17.3401C15.618 16.2174 15.7372 14.9594 15.543 13.968C15.3702 13.0878 14.9388 12.3201 14.3466 11.8445ZM11.5575 12.6778C11.2788 12.7046 10.9814 12.7877 10.7416 12.9042C9.89361 13.3182 9.29077 14.327 9.05365 15.7257C8.94647 16.3607 8.90629 17.1552 8.95987 17.5785C9.06838 18.4453 9.46224 18.9651 10.1374 19.1299C10.4295 19.2009 10.8555 19.2036 11.1743 19.1353C12.2581 18.9062 13.0271 17.9121 13.3392 16.3353C13.3874 16.0888 13.4491 15.6359 13.4826 15.2769C13.5161 14.9004 13.5134 14.3927 13.4745 14.1529C13.4062 13.7215 13.2588 13.3839 13.0324 13.1373C12.8208 12.9056 12.5408 12.7582 12.1978 12.6979C12.0545 12.6725 11.7223 12.6617 11.5575 12.6778Z" fill="white"/>
<path fill-rule="evenodd" clip-rule="evenodd" d="M24.4678 12.0374C23.9212 11.4881 23.2058 11.1787 22.2761 11.0902C22.118 11.0755 21.6545 11.0688 20.1233 11.0621L18.1714 11.0527L18.1633 11.0849C18.1593 11.1023 17.7614 13.2727 17.2792 15.9066C16.9571 17.6655 16.6721 19.2201 16.517 20.0657L16.3937 20.7389L16.3856 20.7832H18.45L18.4634 20.7122C18.4916 20.5742 19.081 17.3776 19.081 17.3669C19.081 17.3588 19.5566 17.3548 20.2572 17.3575C21.5393 17.3602 21.6009 17.3575 22.0685 17.2784C22.9553 17.1297 23.7055 16.7707 24.2735 16.2241C24.7907 15.727 25.0814 15.1416 25.1859 14.3927C25.218 14.1542 25.218 13.6759 25.1859 13.475C25.0894 12.8895 24.8617 12.4326 24.4678 12.0374ZM19.6982 13.9759L19.6985 13.9745L19.699 13.9719L19.6992 13.9707C19.8284 13.2723 19.9294 12.7261 19.9331 12.714C19.9397 12.6926 19.9987 12.6912 20.9338 12.6912C21.5768 12.6912 21.9707 12.6966 22.0484 12.706C22.3672 12.7448 22.6526 12.8801 22.8321 13.0757C22.966 13.2218 23.0531 13.3812 23.108 13.5821C23.1429 13.7067 23.1482 14.0564 23.1201 14.2399C23.0022 14.9942 22.461 15.5261 21.6451 15.6909C21.3906 15.7418 21.2379 15.7471 20.2827 15.7378L19.3744 15.7284L19.3811 15.6935C19.3851 15.6748 19.5097 15.0009 19.6571 14.1984L19.6982 13.9759Z" fill="white"/>
</g>
</g>
</svg>
