<svg width="200" height="200" viewBox="0 0 200 200" fill="none" xmlns="http://www.w3.org/2000/svg">
<path d="M100 200C155.228 200 200 155.228 200 100C200 44.7715 155.228 0 100 0C44.7715 0 0 44.7715 0 100C0 155.228 44.7715 200 100 200Z" fill="#8D91AB"/>
<path d="M53.3753 85.8803C48.6033 81.2439 45.258 75.2467 45.258 68.1409V67.3849C45.6516 55.2394 55.3922 45.4626 67.2483 45.1098H142.714C144.682 45.2106 146.256 46.6217 146.256 48.6879V114.102C147.977 114.405 148.814 114.657 150.487 115.262C151.815 115.766 153.635 116.824 153.635 116.824V48.6879C153.536 42.4892 148.715 37.5 142.665 37.5H67.1991C50.9155 37.752 37.8296 51.4093 37.8296 68.1409C37.8296 77.8673 42.1588 86.1827 49.2428 92.0285C49.7348 92.4321 50.1776 92.936 51.4567 92.936C53.6704 92.936 55.2447 91.1214 55.1463 89.1561C55.0971 87.493 54.4084 86.8882 53.3753 85.8803Z" fill="white"/>
<path d="M140.747 118.385H81.5655C77.5807 118.435 74.383 121.711 74.383 125.793V134.512C74.4814 138.544 77.8267 141.971 81.8115 141.971H86.1898V134.512H81.8115V125.995C81.8115 125.995 82.8938 125.995 84.222 125.995C91.6997 125.995 97.2098 133.101 97.2098 140.711C97.2098 147.464 91.2077 156.081 81.1719 155.376C72.2676 154.771 67.4465 146.657 67.4465 140.711V66.8298C67.4465 63.5036 64.79 60.7822 61.5431 60.7822H55.6396V68.3417H60.018V140.761C59.7721 155.477 70.2506 162.885 81.1719 162.885L140.797 163.086C152.8 163.086 162.541 153.108 162.541 140.761C162.541 128.414 152.751 118.385 140.747 118.385ZM155.112 141.215C154.866 149.127 148.52 155.477 140.747 155.477L99.2758 155.325C102.572 151.395 104.589 146.304 104.589 140.761C104.589 132.043 99.5216 126.045 99.5216 126.045H140.797C148.717 126.045 155.162 132.647 155.162 140.761L155.112 141.215Z" fill="white"/>
<path d="M124.805 69.705H80.1851V62.1456H124.805C126.822 62.1456 128.495 63.8087 128.495 65.9253C128.495 67.9915 126.872 69.705 124.805 69.705Z" fill="white"/>
<path d="M124.805 105.283H80.1851V97.7227H124.805C126.822 97.7227 128.495 99.3861 128.495 101.503C128.495 103.569 126.872 105.283 124.805 105.283Z" fill="white"/>
<path d="M132.676 87.4929H80.1851V79.9335H132.627C134.644 79.9335 136.317 81.5966 136.317 83.7132C136.366 85.7794 134.693 87.4929 132.676 87.4929Z" fill="white"/>
</svg>
