<svg width="32" height="32" viewBox="0 0 32 32" fill="none" xmlns="http://www.w3.org/2000/svg">
<path d="M29.2529 10.0006H25.6314C25.3932 9.23228 24.9688 8.50628 24.3584 7.89447C23.7593 7.29535 23.0376 6.86116 22.2524 6.6187V3H19.6797V6.50592C18.7718 6.70328 17.9415 7.15297 17.2719 7.82258L15.5577 9.53677C15.0558 10.0386 15.0558 10.8534 15.5577 11.3567C16.0595 11.8585 16.8744 11.8585 17.3776 11.3567L19.0918 9.6425C19.5373 9.19704 20.1392 8.95739 20.7834 8.96444C21.4418 8.97289 22.0649 9.23933 22.5399 9.7144C23.5098 10.6843 23.5422 12.2321 22.6118 13.1625L19.0072 16.7671C18.0768 17.6975 16.529 17.6651 15.5591 16.6952C15.0573 16.1934 14.2424 16.1934 13.7392 16.6952C13.2373 17.1971 13.2373 18.0119 13.7392 18.5151C14.7387 19.5146 16.0483 20.0165 17.3494 20.0165C18.6153 20.0165 19.8728 19.5414 20.8271 18.587L24.4318 14.9824C25.1155 14.2987 25.5511 13.46 25.7456 12.5747H29.2557V10.0006H29.2529Z" fill="white"/>
<path d="M14.6611 21.1132L12.9469 22.8274C12.0165 23.7578 10.4701 23.7253 9.49882 22.7555C8.52895 21.7856 8.49652 20.2377 9.42693 19.3073L13.0315 15.7027C13.9619 14.7723 15.5098 14.8048 16.4796 15.7746C16.9815 16.2765 17.7963 16.2765 18.2996 15.7746C18.8014 15.2728 18.8014 14.458 18.2996 13.9547C16.326 11.9811 13.1471 11.9487 11.213 13.8828L7.60841 17.4874C6.92471 18.1711 6.48911 19.0099 6.29457 19.8952H2.78442V22.4679H6.40594C6.64418 23.2362 7.0685 23.9622 7.6789 24.574C8.2893 25.1844 9.01529 25.6087 9.78499 25.8469V29.4699H12.3577V25.9597C13.2444 25.7666 14.0832 25.3296 14.7655 24.6459L16.4796 22.9317C16.9815 22.4298 16.9815 21.615 16.4796 21.1118C15.9778 20.6099 15.163 20.6099 14.6611 21.1132Z" fill="white"/>
</svg>
