<svg width="32" height="32" viewBox="0 0 32 32" fill="none" xmlns="http://www.w3.org/2000/svg">
<rect width="32" height="32" rx="16" fill="#8D91AB"/>
<path d="M21.5193 14.1326L11.7647 14.125C9.10498 14.125 6.89398 16.2282 6.82428 18.9315C6.8221 19.0034 6.882 19.0633 6.95389 19.0633L16.7084 19.0698C19.3682 19.0709 21.5792 16.9677 21.6489 14.2655C21.651 14.1936 21.5911 14.1337 21.5193 14.1337V14.1326Z" fill="white"/>
<path d="M26.4641 6.72833L11.7647 6.7207C9.10498 6.7207 6.89398 8.82387 6.82428 11.5272C6.8221 11.5991 6.882 11.659 6.95389 11.659L21.6532 11.6655C24.313 11.6666 26.524 9.56342 26.5937 6.86121C26.5958 6.78932 26.5359 6.72942 26.4641 6.72942V6.72833Z" fill="white"/>
<path d="M9.76322 26.3998C11.1041 26.1416 11.9817 24.8453 11.7235 23.5045C11.4653 22.1636 10.169 21.286 8.82818 21.5442C7.48735 21.8024 6.60971 23.0987 6.86791 24.4395C7.12611 25.7803 8.42239 26.658 9.76322 26.3998Z" fill="white"/>
</svg>
