<svg width="32" height="32" viewBox="0 0 32 32" fill="none" xmlns="http://www.w3.org/2000/svg">
<rect width="32" height="32" rx="16" fill="#8D91AB"/>
<path opacity="0.8" d="M13.3115 24.4373C16.5577 24.4373 19.1893 21.8057 19.1893 18.5595C19.1893 15.3133 16.5577 12.6817 13.3115 12.6817C10.0653 12.6817 7.4337 15.3133 7.4337 18.5595C7.4337 21.8057 10.0653 24.4373 13.3115 24.4373ZM13.3115 26.4316C8.96402 26.4316 5.43945 22.907 5.43945 18.5595C5.43945 14.2121 8.96402 10.6875 13.3115 10.6875C17.6589 10.6875 21.1835 14.2121 21.1835 18.5595C21.1835 22.907 17.6589 26.4316 13.3115 26.4316Z" fill="white"/>
<path d="M18.5595 19.1893C21.8057 19.1893 24.4373 16.5577 24.4373 13.3115C24.4373 10.0653 21.8057 7.4337 18.5595 7.4337C15.3133 7.4337 12.6817 10.0653 12.6817 13.3115C12.6817 16.5577 15.3133 19.1893 18.5595 19.1893ZM18.5595 21.1835C14.2121 21.1835 10.6875 17.6589 10.6875 13.3115C10.6875 8.96402 14.2121 5.43945 18.5595 5.43945C22.907 5.43945 26.4316 8.96402 26.4316 13.3115C26.4316 17.6589 22.907 21.1835 18.5595 21.1835Z" fill="white"/>
</svg>
