<svg width="32" height="32" viewBox="0 0 32 32" fill="none" xmlns="http://www.w3.org/2000/svg">
<rect width="32" height="32" rx="16" fill="#8D91AB"/>
<path d="M5.75977 12.0714V9.13513C5.75977 8.24284 6.62649 7.51953 7.69495 7.51953H11.2131C12.2826 7.51953 13.1493 8.24284 13.1493 9.13513V11.5063C13.1493 11.9153 13.3436 12.3071 13.6894 12.5967C14.411 13.1983 15.5809 13.1983 16.3024 12.5967L21.8187 7.99312C22.1816 7.68959 22.6737 7.51953 23.1871 7.51953H24.1446C25.2141 7.51953 26.0798 8.24284 26.0798 9.13513V9.93378C26.0798 10.3622 25.8759 10.7733 25.513 11.0758L19.9967 15.6804C19.2762 16.2821 19.2762 17.2594 19.9967 17.8611C20.3436 18.1506 20.8132 18.3131 21.3032 18.3131H24.1446C25.2141 18.3131 26.0798 19.0364 26.0798 19.9277V22.865C26.0798 23.7562 25.2141 24.4795 24.1446 24.4795H20.6264C19.5569 24.4795 18.6913 23.7562 18.6913 22.865V20.4927C18.6913 20.0848 18.4959 19.6919 18.1501 19.4035C17.4285 18.8007 16.2587 18.8007 15.5371 19.4035L10.0219 24.0059C9.65896 24.3095 9.16582 24.4795 8.65347 24.4795H7.69495C6.62649 24.4795 5.75977 23.7562 5.75977 22.8639V22.0653C5.75977 21.6369 5.96364 21.2257 6.32655 20.9222L11.8428 16.3187C12.5633 15.717 12.5633 14.7407 11.8428 14.138C11.4959 13.8495 11.0263 13.687 10.5364 13.687H7.69495C6.62649 13.687 5.75977 12.9637 5.75977 12.0714Z" fill="white"/>
</svg>
