<svg width="32" height="32" viewBox="0 0 32 32" fill="none" xmlns="http://www.w3.org/2000/svg">
<path d="M16.3089 3.38774C16.8346 3.90206 16.8732 4.75827 16.5361 5.37808C16.5289 5.39175 16.5284 5.40559 16.5346 5.41959C17.0486 6.58936 17.4824 7.61164 18.0839 8.45955C18.8347 9.51845 19.6058 10.5128 20.259 11.6909C20.3752 11.901 20.3767 12.0724 20.3503 12.2995C20.3487 12.3155 20.3528 12.3295 20.3626 12.3416C20.704 12.763 21.1096 12.7582 21.6289 12.7142C22.4038 12.6481 22.9445 12.6204 23.2509 12.6312C25.2346 12.6995 26.8796 14.074 26.9891 16.1098C27.0448 17.1418 26.8957 18.0996 26.3553 18.9656C25.7782 19.89 24.995 20.6068 24.0058 21.116C23.7879 21.2284 23.5692 21.3396 23.3497 21.4497C22.4195 21.9166 21.9841 23.3013 22.225 24.2577C22.292 24.5227 22.4919 25.1098 22.8244 26.0188C22.8711 26.1455 22.8901 26.2447 22.8816 26.3164C22.8405 26.6651 22.3027 26.8229 22.0036 26.8502C21.9961 26.8509 21.9889 26.8541 21.9833 26.8593C21.9776 26.8645 21.9739 26.8714 21.9724 26.879C21.8283 27.7001 21.4047 28.5777 20.7065 29.0647C20.5065 29.2041 20.2183 29.3344 19.8417 29.4554C18.8268 29.7817 17.7899 29.9598 16.731 29.9898C15.0195 30.0386 13.3931 29.9253 11.7964 29.3597C11.0054 29.0794 10.4455 28.3892 10.1636 27.6195C9.65697 26.2357 9.83773 24.7573 10.4626 23.4478C10.68 22.9926 10.9375 22.4886 11.1022 22.067C11.7173 20.4928 11.8267 18.7882 11.5169 17.1305C11.1569 15.2037 9.6081 13.713 7.75935 13.1596C6.35422 12.7396 4.85333 12.8285 3.42572 12.9686C2.90295 13.02 2.89513 12.7445 3.22052 12.4626C4.09018 11.7095 5.2305 11.3383 6.37034 11.2172C7.75544 11.0692 9.057 11.2426 10.2716 11.919C10.7606 12.1916 11.0489 12.5096 11.4657 12.9594C11.5327 13.0317 11.5985 13.0784 11.663 13.0996C11.6676 13.101 11.6724 13.1013 11.6772 13.1005C11.6819 13.0997 11.6863 13.0978 11.69 13.0949C11.6938 13.092 11.6967 13.0882 11.6987 13.084C11.7006 13.0797 11.7015 13.075 11.7012 13.0703C11.6796 12.7352 11.6365 12.4065 11.5717 12.0841C11.534 11.8961 11.663 11.7217 11.7514 11.5576C12.3988 10.3576 13.3007 9.26593 14.1338 8.05513C14.1875 7.97698 14.2339 7.8985 14.273 7.81971C14.6645 7.03009 15.0394 6.23249 15.3977 5.42692C15.4042 5.41161 15.4035 5.3968 15.3957 5.38247C15.0557 4.75582 15.0864 3.90645 15.6268 3.39068C15.6321 3.38568 15.6357 3.37906 15.6368 3.37189C15.638 3.36472 15.6367 3.3574 15.6332 3.35111C15.4843 3.08346 15.4464 2.79952 15.5194 2.4993C15.578 2.25704 15.8423 1.85263 16.1227 2.05483C16.5278 2.34642 16.5223 2.94963 16.303 3.34867C16.2949 3.363 16.2968 3.37602 16.3089 3.38774ZM26.0739 16.8087C25.9899 15.6325 25.2556 14.5287 24.1089 14.1472C22.6994 13.6783 20.9107 14.5956 19.9243 15.5647C19.9126 15.576 19.9062 15.5899 19.9053 15.6061C19.8619 16.2997 19.8483 16.994 19.8642 17.6888C19.9038 19.4031 20.3865 21.1615 21.1135 22.7112C21.1217 22.7285 21.1303 22.7288 21.1393 22.7122C21.6475 21.8009 22.394 21.1024 23.2676 20.5505C23.6301 20.3219 24.1646 20.0963 24.4949 19.8975C24.8326 19.6937 25.1491 19.3867 25.4442 18.9768C25.92 18.3151 26.13 17.5924 26.0739 16.8087Z" fill="white"/>
</svg>
